%TF.GenerationSoftware,KiCad,Pcbnew,8.0.6*%
%TF.CreationDate,2025-02-23T18:05:14+01:00*%
%TF.ProjectId,TocBoatReceiver,546f6342-6f61-4745-9265-636569766572,rev?*%
%TF.SameCoordinates,Original*%
%TF.FileFunction,Copper,L1,Top*%
%TF.FilePolarity,Positive*%
%FSLAX46Y46*%
G04 Gerber Fmt 4.6, Leading zero omitted, Abs format (unit mm)*
G04 Created by KiCad (PCBNEW 8.0.6) date 2025-02-23 18:05:14*
%MOMM*%
%LPD*%
G01*
G04 APERTURE LIST*
G04 Aperture macros list*
%AMRoundRect*
0 Rectangle with rounded corners*
0 $1 Rounding radius*
0 $2 $3 $4 $5 $6 $7 $8 $9 X,Y pos of 4 corners*
0 Add a 4 corners polygon primitive as box body*
4,1,4,$2,$3,$4,$5,$6,$7,$8,$9,$2,$3,0*
0 Add four circle primitives for the rounded corners*
1,1,$1+$1,$2,$3*
1,1,$1+$1,$4,$5*
1,1,$1+$1,$6,$7*
1,1,$1+$1,$8,$9*
0 Add four rect primitives between the rounded corners*
20,1,$1+$1,$2,$3,$4,$5,0*
20,1,$1+$1,$4,$5,$6,$7,0*
20,1,$1+$1,$6,$7,$8,$9,0*
20,1,$1+$1,$8,$9,$2,$3,0*%
G04 Aperture macros list end*
%TA.AperFunction,SMDPad,CuDef*%
%ADD10RoundRect,0.200000X-0.200000X-0.275000X0.200000X-0.275000X0.200000X0.275000X-0.200000X0.275000X0*%
%TD*%
%TA.AperFunction,SMDPad,CuDef*%
%ADD11RoundRect,0.225000X0.225000X0.250000X-0.225000X0.250000X-0.225000X-0.250000X0.225000X-0.250000X0*%
%TD*%
%TA.AperFunction,SMDPad,CuDef*%
%ADD12RoundRect,0.150000X-0.587500X-0.150000X0.587500X-0.150000X0.587500X0.150000X-0.587500X0.150000X0*%
%TD*%
%TA.AperFunction,ComponentPad*%
%ADD13RoundRect,0.250000X0.845000X-0.620000X0.845000X0.620000X-0.845000X0.620000X-0.845000X-0.620000X0*%
%TD*%
%TA.AperFunction,ComponentPad*%
%ADD14O,2.190000X1.740000*%
%TD*%
%TA.AperFunction,SMDPad,CuDef*%
%ADD15RoundRect,0.243750X-0.243750X-0.456250X0.243750X-0.456250X0.243750X0.456250X-0.243750X0.456250X0*%
%TD*%
%TA.AperFunction,SMDPad,CuDef*%
%ADD16RoundRect,0.225000X-0.250000X0.225000X-0.250000X-0.225000X0.250000X-0.225000X0.250000X0.225000X0*%
%TD*%
%TA.AperFunction,SMDPad,CuDef*%
%ADD17R,2.500000X0.500000*%
%TD*%
%TA.AperFunction,SMDPad,CuDef*%
%ADD18R,2.500000X2.000000*%
%TD*%
%TA.AperFunction,SMDPad,CuDef*%
%ADD19RoundRect,0.375000X-0.625000X-0.375000X0.625000X-0.375000X0.625000X0.375000X-0.625000X0.375000X0*%
%TD*%
%TA.AperFunction,SMDPad,CuDef*%
%ADD20RoundRect,0.500000X-0.500000X-1.400000X0.500000X-1.400000X0.500000X1.400000X-0.500000X1.400000X0*%
%TD*%
%TA.AperFunction,SMDPad,CuDef*%
%ADD21RoundRect,0.062500X-0.337500X-0.062500X0.337500X-0.062500X0.337500X0.062500X-0.337500X0.062500X0*%
%TD*%
%TA.AperFunction,SMDPad,CuDef*%
%ADD22RoundRect,0.062500X-0.062500X-0.337500X0.062500X-0.337500X0.062500X0.337500X-0.062500X0.337500X0*%
%TD*%
%TA.AperFunction,HeatsinkPad*%
%ADD23R,3.350000X3.350000*%
%TD*%
%TA.AperFunction,SMDPad,CuDef*%
%ADD24RoundRect,0.100000X0.225000X0.100000X-0.225000X0.100000X-0.225000X-0.100000X0.225000X-0.100000X0*%
%TD*%
%TA.AperFunction,SMDPad,CuDef*%
%ADD25R,0.900000X1.500000*%
%TD*%
%TA.AperFunction,SMDPad,CuDef*%
%ADD26R,1.500000X0.900000*%
%TD*%
%TA.AperFunction,SMDPad,CuDef*%
%ADD27R,4.100000X4.100000*%
%TD*%
%TA.AperFunction,SMDPad,CuDef*%
%ADD28RoundRect,0.150000X-0.512500X-0.150000X0.512500X-0.150000X0.512500X0.150000X-0.512500X0.150000X0*%
%TD*%
%TA.AperFunction,SMDPad,CuDef*%
%ADD29R,0.740000X2.400000*%
%TD*%
%TA.AperFunction,SMDPad,CuDef*%
%ADD30RoundRect,0.250000X-1.500000X-0.550000X1.500000X-0.550000X1.500000X0.550000X-1.500000X0.550000X0*%
%TD*%
%TA.AperFunction,SMDPad,CuDef*%
%ADD31RoundRect,0.225000X-0.225000X-0.250000X0.225000X-0.250000X0.225000X0.250000X-0.225000X0.250000X0*%
%TD*%
%TA.AperFunction,SMDPad,CuDef*%
%ADD32RoundRect,0.200000X0.200000X0.275000X-0.200000X0.275000X-0.200000X-0.275000X0.200000X-0.275000X0*%
%TD*%
%TA.AperFunction,ViaPad*%
%ADD33C,0.600000*%
%TD*%
%TA.AperFunction,Conductor*%
%ADD34C,0.200000*%
%TD*%
%TA.AperFunction,Conductor*%
%ADD35C,0.127000*%
%TD*%
%TA.AperFunction,Conductor*%
%ADD36C,1.000000*%
%TD*%
%TA.AperFunction,Conductor*%
%ADD37C,0.254000*%
%TD*%
G04 APERTURE END LIST*
D10*
%TO.P,R11,1*%
%TO.N,/ESP32/GPIO5*%
X172150000Y-109600000D03*
%TO.P,R11,2*%
%TO.N,GND*%
X173800000Y-109600000D03*
%TD*%
%TO.P,R10,1*%
%TO.N,+BATT*%
X168450000Y-109600000D03*
%TO.P,R10,2*%
%TO.N,/ESP32/GPIO5*%
X170100000Y-109600000D03*
%TD*%
D11*
%TO.P,C8,1*%
%TO.N,GND*%
X173750000Y-107600000D03*
%TO.P,C8,2*%
%TO.N,/ESP32/GPIO5*%
X172200000Y-107600000D03*
%TD*%
%TO.P,C2,1*%
%TO.N,GND*%
X134900000Y-75500000D03*
%TO.P,C2,2*%
%TO.N,+3.3V*%
X133350000Y-75500000D03*
%TD*%
D10*
%TO.P,R6,1*%
%TO.N,+3.3V*%
X148650000Y-125000000D03*
%TO.P,R6,2*%
%TO.N,Net-(U6-~{RST})*%
X150300000Y-125000000D03*
%TD*%
D12*
%TO.P,Q2,1,G*%
%TO.N,/ESP32/GPIO15*%
X159062500Y-96000000D03*
%TO.P,Q2,2,S*%
%TO.N,GND*%
X159062500Y-97900000D03*
%TO.P,Q2,3,D*%
%TO.N,Net-(D1-K)*%
X160937500Y-96950000D03*
%TD*%
D10*
%TO.P,R7,1*%
%TO.N,+BATT*%
X183000000Y-55000000D03*
%TO.P,R7,2*%
%TO.N,Net-(D4-A)*%
X184650000Y-55000000D03*
%TD*%
D13*
%TO.P,J6,1,Pin_1*%
%TO.N,+BATT*%
X182000000Y-85620000D03*
D14*
%TO.P,J6,2,Pin_2*%
%TO.N,/ESP32/GPIO16*%
X182000000Y-83080000D03*
%TO.P,J6,3,Pin_3*%
%TO.N,GND*%
X182000000Y-80540000D03*
%TD*%
D15*
%TO.P,D1,1,K*%
%TO.N,Net-(D1-K)*%
X133125000Y-132000000D03*
%TO.P,D1,2,A*%
%TO.N,Net-(D1-A)*%
X135000000Y-132000000D03*
%TD*%
D10*
%TO.P,R8,1*%
%TO.N,+BATT*%
X176000000Y-92000000D03*
%TO.P,R8,2*%
%TO.N,Net-(J4-Pin_2)*%
X177650000Y-92000000D03*
%TD*%
D12*
%TO.P,Q4,1,G*%
%TO.N,/ESP32/GPIO18*%
X159125000Y-88050000D03*
%TO.P,Q4,2,S*%
%TO.N,GND*%
X159125000Y-89950000D03*
%TO.P,Q4,3,D*%
%TO.N,Net-(J5-Pin_1)*%
X161000000Y-89000000D03*
%TD*%
D13*
%TO.P,J7,1,Pin_1*%
%TO.N,+BATT*%
X182000000Y-73540000D03*
D14*
%TO.P,J7,2,Pin_2*%
%TO.N,/ESP32/GPIO14*%
X182000000Y-71000000D03*
%TO.P,J7,3,Pin_3*%
%TO.N,GND*%
X182000000Y-68460000D03*
%TD*%
D16*
%TO.P,C4,1*%
%TO.N,+3.3V*%
X147300000Y-122750000D03*
%TO.P,C4,2*%
%TO.N,GND*%
X147300000Y-124300000D03*
%TD*%
D17*
%TO.P,J2,1,VBUS*%
%TO.N,+5V*%
X140200000Y-120700000D03*
%TO.P,J2,2,D-*%
%TO.N,Net-(J2-D-)*%
X140200000Y-121500000D03*
%TO.P,J2,3,D+*%
%TO.N,Net-(J2-D+)*%
X140200000Y-122300000D03*
%TO.P,J2,4,GND*%
%TO.N,GND*%
X140200000Y-123100000D03*
%TO.P,J2,5,Shield*%
X140200000Y-123900000D03*
D18*
%TO.P,J2,6*%
%TO.N,N/C*%
X140200000Y-117900000D03*
X134700000Y-117900000D03*
X140200000Y-126700000D03*
X134700000Y-126700000D03*
%TD*%
D19*
%TO.P,U2,1,GND*%
%TO.N,GND*%
X169850000Y-120700000D03*
%TO.P,U2,2,VO*%
%TO.N,+3.3V*%
X169850000Y-123000000D03*
D20*
X176150000Y-123000000D03*
D19*
%TO.P,U2,3,VI*%
%TO.N,+BATT*%
X169850000Y-125300000D03*
%TD*%
D21*
%TO.P,U6,1,~{DCD}*%
%TO.N,unconnected-(U6-~{DCD}-Pad1)*%
X148750000Y-119550000D03*
%TO.P,U6,2,~{RI}/CLK*%
%TO.N,unconnected-(U6-~{RI}{slash}CLK-Pad2)*%
X148750000Y-120050000D03*
%TO.P,U6,3,GND*%
%TO.N,GND*%
X148750000Y-120550000D03*
%TO.P,U6,4,D+*%
%TO.N,/USB Serial/USB_P*%
X148750000Y-121050000D03*
%TO.P,U6,5,D-*%
%TO.N,/USB Serial/USB_N*%
X148750000Y-121550000D03*
%TO.P,U6,6,VDD*%
%TO.N,+3.3V*%
X148750000Y-122050000D03*
%TO.P,U6,7,VREGIN*%
X148750000Y-122550000D03*
D22*
%TO.P,U6,8,VBUS*%
%TO.N,+5V*%
X149700000Y-123500000D03*
%TO.P,U6,9,~{RST}*%
%TO.N,Net-(U6-~{RST})*%
X150200000Y-123500000D03*
%TO.P,U6,10,NC*%
%TO.N,unconnected-(U6-NC-Pad10)*%
X150700000Y-123500000D03*
%TO.P,U6,11,~{SUSPEND}*%
%TO.N,GND*%
X151200000Y-123500000D03*
%TO.P,U6,12,SUSPEND*%
%TO.N,unconnected-(U6-SUSPEND-Pad12)*%
X151700000Y-123500000D03*
%TO.P,U6,13,CHREN*%
%TO.N,unconnected-(U6-CHREN-Pad13)*%
X152200000Y-123500000D03*
%TO.P,U6,14,CHR1*%
%TO.N,unconnected-(U6-CHR1-Pad14)*%
X152700000Y-123500000D03*
D21*
%TO.P,U6,15,CHR0*%
%TO.N,unconnected-(U6-CHR0-Pad15)*%
X153650000Y-122550000D03*
%TO.P,U6,16,~{WAKEUP}/GPIO.3*%
%TO.N,unconnected-(U6-~{WAKEUP}{slash}GPIO.3-Pad16)*%
X153650000Y-122050000D03*
%TO.P,U6,17,RS485/GPIO.2*%
%TO.N,unconnected-(U6-RS485{slash}GPIO.2-Pad17)*%
X153650000Y-121550000D03*
%TO.P,U6,18,~{RXT}/GPIO.1*%
%TO.N,unconnected-(U6-~{RXT}{slash}GPIO.1-Pad18)*%
X153650000Y-121050000D03*
%TO.P,U6,19,~{TXT}/GPIO.0*%
%TO.N,unconnected-(U6-~{TXT}{slash}GPIO.0-Pad19)*%
X153650000Y-120550000D03*
%TO.P,U6,20,GPIO.6*%
%TO.N,unconnected-(U6-GPIO.6-Pad20)*%
X153650000Y-120050000D03*
%TO.P,U6,21,GPIO.5*%
%TO.N,unconnected-(U6-GPIO.5-Pad21)*%
X153650000Y-119550000D03*
D22*
%TO.P,U6,22,GPIO.4*%
%TO.N,unconnected-(U6-GPIO.4-Pad22)*%
X152700000Y-118600000D03*
%TO.P,U6,23,~{CTS}*%
%TO.N,unconnected-(U6-~{CTS}-Pad23)*%
X152200000Y-118600000D03*
%TO.P,U6,24,~{RTS}*%
%TO.N,Net-(Q1A-E1)*%
X151700000Y-118600000D03*
%TO.P,U6,25,RXD*%
%TO.N,TX*%
X151200000Y-118600000D03*
%TO.P,U6,26,TXD*%
%TO.N,RX*%
X150700000Y-118600000D03*
%TO.P,U6,27,~{DSR}*%
%TO.N,unconnected-(U6-~{DSR}-Pad27)*%
X150200000Y-118600000D03*
%TO.P,U6,28,~{DTR}*%
%TO.N,Net-(Q1B-E2)*%
X149700000Y-118600000D03*
D23*
%TO.P,U6,29,GND*%
%TO.N,GND*%
X151200000Y-121050000D03*
%TD*%
D13*
%TO.P,J3,1,Pin_1*%
%TO.N,+BATT*%
X182000000Y-115540000D03*
D14*
%TO.P,J3,2,Pin_2*%
%TO.N,GND*%
X182000000Y-113000000D03*
%TD*%
D11*
%TO.P,C5,1*%
%TO.N,+BATT*%
X167800000Y-125300000D03*
%TO.P,C5,2*%
%TO.N,GND*%
X166250000Y-125300000D03*
%TD*%
D24*
%TO.P,Q1,1,E1*%
%TO.N,Net-(Q1A-E1)*%
X146900000Y-106650000D03*
%TO.P,Q1,2,B1*%
%TO.N,Net-(Q1A-B1)*%
X146900000Y-106000000D03*
%TO.P,Q1,3,C2*%
%TO.N,D0*%
X146900000Y-105350000D03*
%TO.P,Q1,4,E2*%
%TO.N,Net-(Q1B-E2)*%
X145000000Y-105350000D03*
%TO.P,Q1,5,B2*%
%TO.N,Net-(Q1B-B2)*%
X145000000Y-106000000D03*
%TO.P,Q1,6,C1*%
%TO.N,EN*%
X145000000Y-106650000D03*
%TD*%
D15*
%TO.P,D3,1,K*%
%TO.N,Net-(D1-K)*%
X134125000Y-52000000D03*
%TO.P,D3,2,A*%
%TO.N,Net-(D3-A)*%
X136000000Y-52000000D03*
%TD*%
D25*
%TO.P,U8,1,GND*%
%TO.N,GND*%
X132500000Y-96445000D03*
%TO.P,U8,2,3V3*%
%TO.N,+3.3V*%
X134000000Y-96445000D03*
%TO.P,U8,3,IO00*%
%TO.N,D0*%
X135500000Y-96445000D03*
%TO.P,U8,4,IO01*%
%TO.N,unconnected-(U8-IO01-Pad4)*%
X137000000Y-96445000D03*
%TO.P,U8,5,IO02*%
%TO.N,/ESP32/GPIO2*%
X138500000Y-96445000D03*
%TO.P,U8,6,IO03*%
%TO.N,unconnected-(U8-IO03-Pad6)*%
X140000000Y-96445000D03*
%TO.P,U8,7,IO04*%
%TO.N,/ESP32/GPIO4*%
X141500000Y-96445000D03*
%TO.P,U8,8,IO05*%
%TO.N,/ESP32/GPIO5*%
X143000000Y-96445000D03*
%TO.P,U8,9,IO06*%
%TO.N,/ESP32/GPIO6*%
X144500000Y-96445000D03*
%TO.P,U8,10,IO07*%
%TO.N,/ESP32/GPIO7*%
X146000000Y-96445000D03*
%TO.P,U8,11,IO08*%
%TO.N,/ESP32/GPIO8*%
X147500000Y-96445000D03*
%TO.P,U8,12,IO09*%
%TO.N,/ESP32/GPIO9*%
X149000000Y-96445000D03*
%TO.P,U8,13,IO10*%
%TO.N,/ESP32/GPIO10*%
X150500000Y-96445000D03*
%TO.P,U8,14,IO11*%
%TO.N,/ESP32/GPIO11*%
X152000000Y-96445000D03*
%TO.P,U8,15,IO12*%
%TO.N,/ESP32/GPIO12*%
X153500000Y-96445000D03*
%TO.P,U8,16,IO13*%
%TO.N,/ESP32/GPIO13*%
X155000000Y-96445000D03*
D26*
%TO.P,U8,17,IO14*%
%TO.N,/ESP32/GPIO14*%
X155750000Y-94570000D03*
%TO.P,U8,18,IO15*%
%TO.N,/ESP32/GPIO15*%
X155750000Y-93070000D03*
%TO.P,U8,19,IO16*%
%TO.N,/ESP32/GPIO16*%
X155750000Y-91570000D03*
%TO.P,U8,20,IO17*%
%TO.N,/ESP32/GPIO17*%
X155750000Y-90070000D03*
%TO.P,U8,21,IO18*%
%TO.N,/ESP32/GPIO18*%
X155750000Y-88570000D03*
%TO.P,U8,22,USB_D-*%
%TO.N,unconnected-(U8-USB_D--Pad22)*%
X155750000Y-87070000D03*
%TO.P,U8,23,USB_D+*%
%TO.N,unconnected-(U8-USB_D+-Pad23)*%
X155750000Y-85570000D03*
%TO.P,U8,24,IO21*%
%TO.N,unconnected-(U8-IO21-Pad24)*%
X155750000Y-84070000D03*
%TO.P,U8,25,IO26*%
%TO.N,unconnected-(U8-IO26-Pad25)*%
X155750000Y-82570000D03*
%TO.P,U8,26,GND*%
%TO.N,GND*%
X155750000Y-81070000D03*
D25*
%TO.P,U8,27,IO33*%
%TO.N,unconnected-(U8-IO33-Pad27)*%
X155100000Y-79195000D03*
%TO.P,U8,28,IO34*%
%TO.N,unconnected-(U8-IO34-Pad28)*%
X153600000Y-79195000D03*
%TO.P,U8,29,IO35*%
%TO.N,/ESP32/GPIO35*%
X152100000Y-79195000D03*
%TO.P,U8,30,IO36*%
%TO.N,unconnected-(U8-IO36-Pad30)*%
X150600000Y-79195000D03*
%TO.P,U8,31,IO37*%
%TO.N,/ESP32/GPIO37*%
X149100000Y-79195000D03*
%TO.P,U8,32,IO38*%
%TO.N,/ESP32/GPIO38*%
X147600000Y-79195000D03*
%TO.P,U8,33,IO39*%
%TO.N,unconnected-(U8-IO39-Pad33)*%
X146100000Y-79195000D03*
%TO.P,U8,34,IO40*%
%TO.N,/ESP32/GPIO40*%
X144600000Y-79195000D03*
%TO.P,U8,35,IO41*%
%TO.N,unconnected-(U8-IO41-Pad35)*%
X143100000Y-79195000D03*
%TO.P,U8,36,IO42*%
%TO.N,unconnected-(U8-IO42-Pad36)*%
X141600000Y-79195000D03*
%TO.P,U8,37,TXD0*%
%TO.N,TX*%
X140100000Y-79195000D03*
%TO.P,U8,38,RXD0*%
%TO.N,RX*%
X138600000Y-79195000D03*
%TO.P,U8,39,IO45*%
%TO.N,unconnected-(U8-IO45-Pad39)*%
X137100000Y-79195000D03*
%TO.P,U8,40,IO46*%
%TO.N,unconnected-(U8-IO46-Pad40)*%
X135500000Y-79195000D03*
%TO.P,U8,41,EN*%
%TO.N,EN*%
X134000000Y-79195000D03*
%TO.P,U8,42,GND*%
%TO.N,GND*%
X132600000Y-79195000D03*
D27*
%TO.P,U8,43,GND*%
X140540000Y-89010000D03*
%TD*%
D10*
%TO.P,R1,1*%
%TO.N,+3.3V*%
X134150000Y-98500000D03*
%TO.P,R1,2*%
%TO.N,D0*%
X135800000Y-98500000D03*
%TD*%
D11*
%TO.P,C6,1*%
%TO.N,+3.3V*%
X167700000Y-123100000D03*
%TO.P,C6,2*%
%TO.N,GND*%
X166150000Y-123100000D03*
%TD*%
D13*
%TO.P,J4,1,Pin_1*%
%TO.N,Net-(J4-Pin_1)*%
X182000000Y-94540000D03*
D14*
%TO.P,J4,2,Pin_2*%
%TO.N,Net-(J4-Pin_2)*%
X182000000Y-92000000D03*
%TD*%
D28*
%TO.P,U1,1,I/O1*%
%TO.N,Net-(J2-D-)*%
X143000000Y-120900000D03*
%TO.P,U1,2,GND*%
%TO.N,GND*%
X143000000Y-121850000D03*
%TO.P,U1,3,I/O2*%
%TO.N,Net-(J2-D+)*%
X143000000Y-122800000D03*
%TO.P,U1,4,I/O2*%
%TO.N,/USB Serial/USB_N*%
X145275000Y-122800000D03*
%TO.P,U1,5,VBUS*%
%TO.N,+5V*%
X145275000Y-121850000D03*
%TO.P,U1,6,I/O1*%
%TO.N,/USB Serial/USB_P*%
X145275000Y-120900000D03*
%TD*%
D10*
%TO.P,R9,1*%
%TO.N,+BATT*%
X176000000Y-59000000D03*
%TO.P,R9,2*%
%TO.N,Net-(J5-Pin_2)*%
X177650000Y-59000000D03*
%TD*%
D29*
%TO.P,J1,1,Pin_1*%
%TO.N,EN*%
X140100000Y-105800000D03*
%TO.P,J1,2,Pin_2*%
%TO.N,+3V3*%
X140100000Y-109700000D03*
%TO.P,J1,3,Pin_3*%
%TO.N,TX*%
X138830000Y-105800000D03*
%TO.P,J1,4,Pin_4*%
%TO.N,GNDD*%
X138830000Y-109700000D03*
%TO.P,J1,5,Pin_5*%
%TO.N,RX*%
X137560000Y-105800000D03*
%TO.P,J1,6,Pin_6*%
%TO.N,D0*%
X137560000Y-109700000D03*
%TD*%
D30*
%TO.P,C7,1*%
%TO.N,+BATT*%
X168000000Y-115000000D03*
%TO.P,C7,2*%
%TO.N,GND*%
X173600000Y-115000000D03*
%TD*%
D15*
%TO.P,D2,1,K*%
%TO.N,Net-(D1-K)*%
X182062500Y-132000000D03*
%TO.P,D2,2,A*%
%TO.N,Net-(D2-A)*%
X183937500Y-132000000D03*
%TD*%
D10*
%TO.P,R5,1*%
%TO.N,+3.3V*%
X133350000Y-77000000D03*
%TO.P,R5,2*%
%TO.N,EN*%
X135000000Y-77000000D03*
%TD*%
D15*
%TO.P,D4,1,K*%
%TO.N,Net-(D1-K)*%
X183062500Y-52000000D03*
%TO.P,D4,2,A*%
%TO.N,Net-(D4-A)*%
X184937500Y-52000000D03*
%TD*%
D10*
%TO.P,R4,1*%
%TO.N,+BATT*%
X134350000Y-54000000D03*
%TO.P,R4,2*%
%TO.N,Net-(D3-A)*%
X136000000Y-54000000D03*
%TD*%
D31*
%TO.P,C3,1*%
%TO.N,GND*%
X132500000Y-100000000D03*
%TO.P,C3,2*%
%TO.N,+3.3V*%
X134050000Y-100000000D03*
%TD*%
D10*
%TO.P,R13,1*%
%TO.N,Net-(Q1B-B2)*%
X145050000Y-108200000D03*
%TO.P,R13,2*%
%TO.N,Net-(Q1A-E1)*%
X146700000Y-108200000D03*
%TD*%
%TO.P,R3,1*%
%TO.N,+BATT*%
X182350000Y-130000000D03*
%TO.P,R3,2*%
%TO.N,Net-(D2-A)*%
X184000000Y-130000000D03*
%TD*%
D13*
%TO.P,J5,1,Pin_1*%
%TO.N,Net-(J5-Pin_1)*%
X182000000Y-61540000D03*
D14*
%TO.P,J5,2,Pin_2*%
%TO.N,Net-(J5-Pin_2)*%
X182000000Y-59000000D03*
%TD*%
D32*
%TO.P,R12,1*%
%TO.N,Net-(Q1A-B1)*%
X146750000Y-103800000D03*
%TO.P,R12,2*%
%TO.N,Net-(Q1B-E2)*%
X145100000Y-103800000D03*
%TD*%
D12*
%TO.P,Q3,1,G*%
%TO.N,/ESP32/GPIO17*%
X159000000Y-92100000D03*
%TO.P,Q3,2,S*%
%TO.N,GND*%
X159000000Y-94000000D03*
%TO.P,Q3,3,D*%
%TO.N,Net-(J4-Pin_1)*%
X160875000Y-93050000D03*
%TD*%
D10*
%TO.P,R2,1*%
%TO.N,+BATT*%
X133350000Y-130000000D03*
%TO.P,R2,2*%
%TO.N,Net-(D1-A)*%
X135000000Y-130000000D03*
%TD*%
D31*
%TO.P,C1,1*%
%TO.N,GND*%
X133381750Y-73968250D03*
%TO.P,C1,2*%
%TO.N,EN*%
X134931750Y-73968250D03*
%TD*%
D33*
%TO.N,EN*%
X141600000Y-106650000D03*
X137100000Y-101900000D03*
%TO.N,GND*%
X135500000Y-75500000D03*
X140500000Y-91600000D03*
X141700000Y-123900000D03*
X165500000Y-123100000D03*
X143800000Y-121900000D03*
X151200000Y-124200000D03*
X156800000Y-81300000D03*
X132600000Y-78200000D03*
X140500000Y-86600000D03*
X168800000Y-120800000D03*
X132500000Y-100700000D03*
X147300000Y-125000000D03*
X175800000Y-115100000D03*
X132681750Y-73968250D03*
X132400000Y-95200000D03*
X165700000Y-125400000D03*
X158100000Y-98000000D03*
X158000000Y-94000000D03*
X158100000Y-90100000D03*
%TO.N,+3.3V*%
X135236500Y-100400000D03*
X134000000Y-95300000D03*
X176000000Y-125200000D03*
X134000000Y-77000000D03*
X140100000Y-100500000D03*
X168600000Y-123000000D03*
%TO.N,Net-(D1-K)*%
X133800000Y-132000000D03*
X162200000Y-97000000D03*
X134900000Y-52000000D03*
X181800000Y-52000000D03*
%TO.N,D0*%
X140701500Y-103101500D03*
X137100000Y-102800000D03*
%TO.N,+5V*%
X144573108Y-121694310D03*
X149566988Y-124266453D03*
%TO.N,Net-(J4-Pin_1)*%
X162036500Y-93300000D03*
%TO.N,/ESP32/GPIO14*%
X162600000Y-94600000D03*
X162000828Y-89800828D03*
%TO.N,Net-(Q1B-E2)*%
X144951544Y-113248456D03*
X144991317Y-111709500D03*
%TD*%
D34*
%TO.N,/ESP32/GPIO5*%
X143000000Y-98600000D02*
X143000000Y-96445000D01*
X143700000Y-99300000D02*
X143000000Y-98600000D01*
X159800000Y-99300000D02*
X143700000Y-99300000D01*
X170100000Y-109600000D02*
X159800000Y-99300000D01*
%TO.N,+BATT*%
X168450000Y-114550000D02*
X168000000Y-115000000D01*
X168450000Y-109600000D02*
X168450000Y-114550000D01*
%TO.N,/ESP32/GPIO5*%
X172200000Y-109550000D02*
X172150000Y-109600000D01*
X172200000Y-107600000D02*
X172200000Y-109550000D01*
X170100000Y-109600000D02*
X172150000Y-109600000D01*
D35*
%TO.N,EN*%
X140950000Y-106650000D02*
X140100000Y-105800000D01*
X134000000Y-92900000D02*
X136286500Y-95186500D01*
X136286500Y-97586500D02*
X137100000Y-98400000D01*
X145000000Y-106650000D02*
X140950000Y-106650000D01*
X134000000Y-79195000D02*
X134000000Y-92900000D01*
X135000000Y-77000000D02*
X134186500Y-76186500D01*
X134186500Y-76186500D02*
X134186500Y-74713500D01*
X134000000Y-78000000D02*
X134000000Y-79195000D01*
X135000000Y-77000000D02*
X134000000Y-78000000D01*
X136286500Y-95186500D02*
X136286500Y-97586500D01*
X134186500Y-74713500D02*
X134931750Y-73968250D01*
X137100000Y-98400000D02*
X137100000Y-101900000D01*
%TO.N,GND*%
X143000000Y-121850000D02*
X143750000Y-121850000D01*
X156570000Y-81070000D02*
X156800000Y-81300000D01*
X140540000Y-89010000D02*
X140540000Y-91560000D01*
X133381750Y-73968250D02*
X132681750Y-73968250D01*
X150700000Y-120550000D02*
X151200000Y-121050000D01*
X148750000Y-120550000D02*
X150700000Y-120550000D01*
D36*
X173600000Y-115000000D02*
X175700000Y-115000000D01*
D35*
X132500000Y-96445000D02*
X132500000Y-95300000D01*
X140200000Y-123900000D02*
X141700000Y-123900000D01*
D36*
X175700000Y-115000000D02*
X175800000Y-115100000D01*
D35*
X132500000Y-100000000D02*
X132500000Y-100700000D01*
X159000000Y-94000000D02*
X158000000Y-94000000D01*
X132600000Y-79195000D02*
X132600000Y-78200000D01*
X140540000Y-91560000D02*
X140500000Y-91600000D01*
X134900000Y-75500000D02*
X135500000Y-75500000D01*
X151200000Y-123500000D02*
X151200000Y-124200000D01*
D36*
X169850000Y-120700000D02*
X168900000Y-120700000D01*
D37*
X165800000Y-125300000D02*
X165700000Y-125400000D01*
D36*
X168900000Y-120700000D02*
X168800000Y-120800000D01*
D37*
X166250000Y-125300000D02*
X165800000Y-125300000D01*
D35*
X140200000Y-123100000D02*
X140200000Y-123900000D01*
X159125000Y-89950000D02*
X158250000Y-89950000D01*
D37*
X166150000Y-123100000D02*
X165500000Y-123100000D01*
D35*
X158200000Y-97900000D02*
X158100000Y-98000000D01*
X140540000Y-89010000D02*
X140540000Y-86640000D01*
X132500000Y-95300000D02*
X132400000Y-95200000D01*
X159062500Y-97900000D02*
X158200000Y-97900000D01*
X155750000Y-81070000D02*
X156570000Y-81070000D01*
X140540000Y-86640000D02*
X140500000Y-86600000D01*
X147300000Y-124300000D02*
X147300000Y-125000000D01*
X158250000Y-89950000D02*
X158100000Y-90100000D01*
X143750000Y-121850000D02*
X143800000Y-121900000D01*
X151200000Y-123500000D02*
X151200000Y-121050000D01*
%TO.N,+3.3V*%
X134050000Y-99950000D02*
X134150000Y-99850000D01*
D34*
X133350000Y-75500000D02*
X133350000Y-77000000D01*
X133350000Y-77000000D02*
X134000000Y-77000000D01*
D36*
X167700000Y-123100000D02*
X167700000Y-122520248D01*
D35*
X148650000Y-122650000D02*
X148750000Y-122550000D01*
D37*
X134050000Y-100000000D02*
X134836500Y-100000000D01*
D36*
X176150000Y-125050000D02*
X176000000Y-125200000D01*
X145679752Y-100500000D02*
X140100000Y-100500000D01*
D35*
X134000000Y-98350000D02*
X134150000Y-98500000D01*
D37*
X134836500Y-100000000D02*
X135236500Y-100400000D01*
D36*
X165489876Y-120310124D02*
X145679752Y-100500000D01*
D35*
X134000000Y-96445000D02*
X134000000Y-98350000D01*
X134050000Y-100000000D02*
X134050000Y-99950000D01*
D36*
X167800000Y-123000000D02*
X167700000Y-123100000D01*
D35*
X148650000Y-125000000D02*
X148650000Y-122650000D01*
D34*
X134000000Y-95300000D02*
X134000000Y-96445000D01*
D36*
X167700000Y-122520248D02*
X165489876Y-120310124D01*
X165189876Y-120310124D02*
X158700000Y-126800000D01*
X176150000Y-123000000D02*
X176150000Y-125050000D01*
X158700000Y-126800000D02*
X149600000Y-126800000D01*
X149600000Y-126800000D02*
X148650000Y-125850000D01*
D35*
X147950000Y-122750000D02*
X148150000Y-122550000D01*
D36*
X165489876Y-120310124D02*
X165189876Y-120310124D01*
X169850000Y-123000000D02*
X168600000Y-123000000D01*
D35*
X134150000Y-99850000D02*
X134150000Y-98500000D01*
X148150000Y-122550000D02*
X148750000Y-122550000D01*
D36*
X168600000Y-123000000D02*
X167800000Y-123000000D01*
X148650000Y-125850000D02*
X148650000Y-125000000D01*
D35*
X147300000Y-122750000D02*
X147950000Y-122750000D01*
D36*
%TO.N,+BATT*%
X182000000Y-85620000D02*
X183795000Y-83825000D01*
X134075000Y-128825000D02*
X133350000Y-129550000D01*
X133350000Y-129550000D02*
X133350000Y-130000000D01*
X181200000Y-55100000D02*
X182000000Y-55100000D01*
X176000000Y-92000000D02*
X175800000Y-92000000D01*
X183000000Y-55475000D02*
X183000000Y-55000000D01*
X183795000Y-56270000D02*
X183000000Y-55475000D01*
X178100000Y-116500000D02*
X178100000Y-97000000D01*
X134350000Y-54000000D02*
X133950000Y-54000000D01*
X169850000Y-125300000D02*
X167800000Y-125300000D01*
X176000000Y-59000000D02*
X176000000Y-58525000D01*
X132900000Y-52950000D02*
X132900000Y-51183582D01*
X181040000Y-116500000D02*
X178100000Y-116500000D01*
X182350000Y-130000000D02*
X174550000Y-130000000D01*
X174550000Y-130000000D02*
X169850000Y-125300000D01*
X176700000Y-50600000D02*
X181200000Y-55100000D01*
X175700000Y-92100000D02*
X175700000Y-87800000D01*
X183795000Y-75335000D02*
X182000000Y-73540000D01*
X183795000Y-71745000D02*
X183795000Y-57200000D01*
X182000000Y-55100000D02*
X182100000Y-55000000D01*
X169850000Y-125300000D02*
X170850000Y-125300000D01*
X182000000Y-73540000D02*
X183795000Y-71745000D01*
X178100000Y-97000000D02*
X175700000Y-94600000D01*
X174550000Y-130000000D02*
X173375000Y-128825000D01*
X177880000Y-85620000D02*
X182000000Y-85620000D01*
X175800000Y-92000000D02*
X175700000Y-92100000D01*
X178100000Y-116500000D02*
X173100000Y-116500000D01*
X173375000Y-128825000D02*
X134075000Y-128825000D01*
X183795000Y-83825000D02*
X183795000Y-75335000D01*
X176000000Y-58525000D02*
X177325000Y-57200000D01*
X132900000Y-51183582D02*
X133483582Y-50600000D01*
X177325000Y-57200000D02*
X183795000Y-57200000D01*
X182100000Y-55000000D02*
X183000000Y-55000000D01*
X175700000Y-94600000D02*
X175700000Y-92100000D01*
X169500000Y-116500000D02*
X168000000Y-115000000D01*
X170850000Y-125300000D02*
X173100000Y-123050000D01*
X173100000Y-116500000D02*
X169500000Y-116500000D01*
X133483582Y-50600000D02*
X176700000Y-50600000D01*
X133950000Y-54000000D02*
X132900000Y-52950000D01*
X182000000Y-115540000D02*
X181040000Y-116500000D01*
X183795000Y-57200000D02*
X183795000Y-56270000D01*
X175700000Y-87800000D02*
X177880000Y-85620000D01*
X173100000Y-123050000D02*
X173100000Y-116500000D01*
D35*
%TO.N,Net-(D1-K)*%
X133800000Y-132000000D02*
X133800000Y-132224114D01*
X134900000Y-52000000D02*
X134125000Y-52000000D01*
X134539386Y-132963500D02*
X181099000Y-132963500D01*
X181099000Y-132963500D02*
X182062500Y-132000000D01*
X133800000Y-132000000D02*
X133125000Y-132000000D01*
X133800000Y-132224114D02*
X134539386Y-132963500D01*
X183062500Y-52000000D02*
X181800000Y-52000000D01*
X161900000Y-97000000D02*
X161850000Y-96950000D01*
X162200000Y-97000000D02*
X161900000Y-97000000D01*
X161850000Y-96950000D02*
X160937500Y-96950000D01*
%TO.N,Net-(D1-A)*%
X135000000Y-130000000D02*
X135000000Y-132000000D01*
D36*
%TO.N,Net-(D3-A)*%
X136000000Y-52000000D02*
X136000000Y-54000000D01*
D35*
%TO.N,TX*%
X142853500Y-91346500D02*
X142853500Y-84353500D01*
X138830000Y-105800000D02*
X138830000Y-97842000D01*
X138036000Y-112273000D02*
X136926500Y-111163500D01*
X139286500Y-94913500D02*
X142853500Y-91346500D01*
X139286500Y-97385500D02*
X139286500Y-94913500D01*
X151200000Y-118200001D02*
X145272999Y-112273000D01*
X136926500Y-111163500D02*
X136926500Y-108236500D01*
X142853500Y-84353500D02*
X140100000Y-81600000D01*
X137063000Y-108100000D02*
X137800000Y-108100000D01*
X138830000Y-107070000D02*
X138830000Y-105800000D01*
X140100000Y-81600000D02*
X140100000Y-79195000D01*
X137800000Y-108100000D02*
X138830000Y-107070000D01*
X138830000Y-97842000D02*
X139286500Y-97385500D01*
X151200000Y-118600000D02*
X151200000Y-118200001D01*
X136926500Y-108236500D02*
X137063000Y-108100000D01*
X145272999Y-112273000D02*
X138036000Y-112273000D01*
%TO.N,D0*%
X147413500Y-103313500D02*
X147413500Y-104836500D01*
X139166500Y-107263500D02*
X139436500Y-107263500D01*
X139466500Y-107233500D02*
X139466500Y-104336500D01*
X135800000Y-98500000D02*
X135800000Y-101500000D01*
X139436500Y-107263500D02*
X139466500Y-107233500D01*
X147413500Y-104836500D02*
X146900000Y-105350000D01*
X135800000Y-96745000D02*
X135500000Y-96445000D01*
X140701500Y-103101500D02*
X140741500Y-103061500D01*
X137560000Y-108870000D02*
X139166500Y-107263500D01*
X147161500Y-103061500D02*
X147413500Y-103313500D01*
X135800000Y-101500000D02*
X137100000Y-102800000D01*
X135800000Y-98500000D02*
X135800000Y-96745000D01*
X140741500Y-103061500D02*
X147161500Y-103061500D01*
X137560000Y-109700000D02*
X137560000Y-108870000D01*
X139466500Y-104336500D02*
X140701500Y-103101500D01*
%TO.N,RX*%
X137900552Y-112600000D02*
X145099999Y-112600000D01*
X137560000Y-107540000D02*
X137160552Y-107540000D01*
X150700000Y-118200001D02*
X150700000Y-118600000D01*
X137560000Y-105800000D02*
X137786500Y-105573500D01*
X136599500Y-111298948D02*
X137900552Y-112600000D01*
X137160552Y-107540000D02*
X136599500Y-108101052D01*
X138600000Y-79495000D02*
X138600000Y-79195000D01*
X137786500Y-105573500D02*
X137786500Y-80308500D01*
X145099999Y-112600000D02*
X150700000Y-118200001D01*
X136599500Y-108101052D02*
X136599500Y-111298948D01*
X137786500Y-80308500D02*
X138600000Y-79495000D01*
X137560000Y-105800000D02*
X137560000Y-107540000D01*
%TO.N,Net-(J2-D-)*%
X142177000Y-120900000D02*
X143000000Y-120900000D01*
X140200000Y-121500000D02*
X141577000Y-121500000D01*
X141577000Y-121500000D02*
X142177000Y-120900000D01*
%TO.N,+5V*%
X145275000Y-121850000D02*
X144728798Y-121850000D01*
X144728798Y-121850000D02*
X144573108Y-121694310D01*
X145275000Y-121850000D02*
X144612501Y-121850000D01*
X149566988Y-124266453D02*
X149566988Y-123633012D01*
X144000000Y-120600000D02*
X143736500Y-120336500D01*
X144612501Y-121850000D02*
X144000000Y-121237499D01*
X149566988Y-123633012D02*
X149700000Y-123500000D01*
X141800000Y-120700000D02*
X140200000Y-120700000D01*
X143736500Y-120336500D02*
X142163500Y-120336500D01*
X142163500Y-120336500D02*
X141800000Y-120700000D01*
X144000000Y-121237499D02*
X144000000Y-120600000D01*
%TO.N,Net-(J2-D+)*%
X141577000Y-122300000D02*
X142077000Y-122800000D01*
X140200000Y-122300000D02*
X141577000Y-122300000D01*
X142077000Y-122800000D02*
X143000000Y-122800000D01*
%TO.N,Net-(J4-Pin_2)*%
X177650000Y-92000000D02*
X182000000Y-92000000D01*
%TO.N,Net-(J4-Pin_1)*%
X162036500Y-93300000D02*
X161125000Y-93300000D01*
X161125000Y-93300000D02*
X160875000Y-93050000D01*
%TO.N,Net-(J5-Pin_2)*%
X177650000Y-59000000D02*
X182000000Y-59000000D01*
%TO.N,Net-(J5-Pin_1)*%
X161700000Y-68700000D02*
X161700000Y-88300000D01*
X161700000Y-88300000D02*
X161000000Y-89000000D01*
X182000000Y-61540000D02*
X168860000Y-61540000D01*
X168860000Y-61540000D02*
X161700000Y-68700000D01*
%TO.N,/ESP32/GPIO16*%
X169518566Y-83080000D02*
X182000000Y-83080000D01*
X157180000Y-92700000D02*
X159898566Y-92700000D01*
X155750000Y-91570000D02*
X156050000Y-91570000D01*
X159898566Y-92700000D02*
X169518566Y-83080000D01*
X156050000Y-91570000D02*
X157180000Y-92700000D01*
%TO.N,/ESP32/GPIO14*%
X160681434Y-94570000D02*
X160711434Y-94600000D01*
X162300000Y-94600000D02*
X162600000Y-94600000D01*
X160711434Y-94600000D02*
X162300000Y-94600000D01*
X155750000Y-94570000D02*
X160681434Y-94570000D01*
X181136118Y-71000000D02*
X162168059Y-89968059D01*
X182000000Y-71000000D02*
X181136118Y-71000000D01*
%TO.N,Net-(Q1A-E1)*%
X151700000Y-118600000D02*
X151700000Y-113200000D01*
X151700000Y-113200000D02*
X146700000Y-108200000D01*
X146700000Y-106850000D02*
X146900000Y-106650000D01*
X146700000Y-108200000D02*
X146700000Y-106850000D01*
%TO.N,Net-(Q1B-E2)*%
X145148456Y-113248456D02*
X144951544Y-113248456D01*
X145100000Y-105250000D02*
X145000000Y-105350000D01*
X146036500Y-105836500D02*
X145100000Y-104900000D01*
X145100000Y-104900000D02*
X145100000Y-104400000D01*
X144991317Y-111709500D02*
X146036500Y-110664317D01*
X149700000Y-117800000D02*
X145300000Y-113400000D01*
X149700000Y-118600000D02*
X149700000Y-117800000D01*
X145100000Y-104400000D02*
X145100000Y-105250000D01*
X146036500Y-110664317D02*
X146036500Y-105836500D01*
X145100000Y-103800000D02*
X145100000Y-104400000D01*
X145300000Y-113400000D02*
X145148456Y-113248456D01*
%TO.N,Net-(Q1A-B1)*%
X146311500Y-104238500D02*
X146311500Y-105603338D01*
X146750000Y-103800000D02*
X146311500Y-104238500D01*
X146311500Y-105603338D02*
X146708162Y-106000000D01*
X146708162Y-106000000D02*
X146900000Y-106000000D01*
%TO.N,Net-(Q1B-B2)*%
X145588500Y-107661500D02*
X145588500Y-106188500D01*
X145400000Y-106000000D02*
X145000000Y-106000000D01*
X145588500Y-106188500D02*
X145400000Y-106000000D01*
X145050000Y-108200000D02*
X145588500Y-107661500D01*
%TO.N,/ESP32/GPIO15*%
X155523000Y-93070000D02*
X155750000Y-93070000D01*
X158346000Y-95283500D02*
X154736500Y-95283500D01*
X154736500Y-93856500D02*
X155523000Y-93070000D01*
X159062500Y-96000000D02*
X158346000Y-95283500D01*
X154736500Y-95283500D02*
X154736500Y-93856500D01*
%TO.N,/ESP32/GPIO17*%
X156970000Y-90070000D02*
X155750000Y-90070000D01*
X159000000Y-92100000D02*
X156970000Y-90070000D01*
%TO.N,/ESP32/GPIO18*%
X156270000Y-88050000D02*
X155750000Y-88570000D01*
X159125000Y-88050000D02*
X156270000Y-88050000D01*
%TO.N,Net-(U6-~{RST})*%
X150200000Y-124900000D02*
X150300000Y-125000000D01*
X150200000Y-123500000D02*
X150200000Y-124900000D01*
%TO.N,/USB Serial/USB_P*%
X145425000Y-121050000D02*
X148750000Y-121050000D01*
X145275000Y-120900000D02*
X145425000Y-121050000D01*
%TO.N,/USB Serial/USB_N*%
X145275000Y-122800000D02*
X145800000Y-122800000D01*
X148387234Y-121550000D02*
X148750000Y-121550000D01*
X148000734Y-121936500D02*
X148387234Y-121550000D01*
X146663500Y-121936500D02*
X148000734Y-121936500D01*
X145800000Y-122800000D02*
X146663500Y-121936500D01*
%TD*%
M02*
