%TF.GenerationSoftware,KiCad,Pcbnew,8.0.6*%
%TF.CreationDate,2025-02-23T18:05:16+01:00*%
%TF.ProjectId,TocBoatReceiver,546f6342-6f61-4745-9265-636569766572,rev?*%
%TF.SameCoordinates,Original*%
%TF.FileFunction,Drillmap*%
%TF.FilePolarity,Positive*%
%FSLAX45Y45*%
G04 Gerber Fmt 4.5, Leading zero omitted, Abs format (unit mm)*
G04 Created by KiCad (PCBNEW 8.0.6) date 2025-02-23 18:05:16*
%MOMM*%
%LPD*%
G01*
G04 APERTURE LIST*
%ADD10C,0.050000*%
%ADD11C,0.200000*%
%ADD12C,0.100000*%
G04 APERTURE END LIST*
D10*
X13150000Y-4900000D02*
X18650000Y-4900000D01*
X18650000Y-13400000D01*
X13150000Y-13400000D01*
X13150000Y-4900000D01*
D11*
D12*
X13715000Y-11965000D02*
X13805000Y-12055000D01*
X13805000Y-11965000D02*
X13715000Y-12055000D01*
X13715000Y-12405000D02*
X13805000Y-12495000D01*
X13805000Y-12405000D02*
X13715000Y-12495000D01*
D11*
X13408277Y-13713984D02*
X13408277Y-13513984D01*
X13408277Y-13513984D02*
X13455896Y-13513984D01*
X13455896Y-13513984D02*
X13484467Y-13523508D01*
X13484467Y-13523508D02*
X13503515Y-13542555D01*
X13503515Y-13542555D02*
X13513039Y-13561603D01*
X13513039Y-13561603D02*
X13522562Y-13599698D01*
X13522562Y-13599698D02*
X13522562Y-13628269D01*
X13522562Y-13628269D02*
X13513039Y-13666365D01*
X13513039Y-13666365D02*
X13503515Y-13685412D01*
X13503515Y-13685412D02*
X13484467Y-13704460D01*
X13484467Y-13704460D02*
X13455896Y-13713984D01*
X13455896Y-13713984D02*
X13408277Y-13713984D01*
X13608277Y-13713984D02*
X13608277Y-13580650D01*
X13608277Y-13618746D02*
X13617801Y-13599698D01*
X13617801Y-13599698D02*
X13627324Y-13590174D01*
X13627324Y-13590174D02*
X13646372Y-13580650D01*
X13646372Y-13580650D02*
X13665420Y-13580650D01*
X13732086Y-13713984D02*
X13732086Y-13580650D01*
X13732086Y-13513984D02*
X13722562Y-13523508D01*
X13722562Y-13523508D02*
X13732086Y-13533031D01*
X13732086Y-13533031D02*
X13741610Y-13523508D01*
X13741610Y-13523508D02*
X13732086Y-13513984D01*
X13732086Y-13513984D02*
X13732086Y-13533031D01*
X13855896Y-13713984D02*
X13836848Y-13704460D01*
X13836848Y-13704460D02*
X13827324Y-13685412D01*
X13827324Y-13685412D02*
X13827324Y-13513984D01*
X13960658Y-13713984D02*
X13941610Y-13704460D01*
X13941610Y-13704460D02*
X13932086Y-13685412D01*
X13932086Y-13685412D02*
X13932086Y-13513984D01*
X14189229Y-13713984D02*
X14189229Y-13513984D01*
X14189229Y-13513984D02*
X14255896Y-13656841D01*
X14255896Y-13656841D02*
X14322562Y-13513984D01*
X14322562Y-13513984D02*
X14322562Y-13713984D01*
X14503515Y-13713984D02*
X14503515Y-13609222D01*
X14503515Y-13609222D02*
X14493991Y-13590174D01*
X14493991Y-13590174D02*
X14474943Y-13580650D01*
X14474943Y-13580650D02*
X14436848Y-13580650D01*
X14436848Y-13580650D02*
X14417801Y-13590174D01*
X14503515Y-13704460D02*
X14484467Y-13713984D01*
X14484467Y-13713984D02*
X14436848Y-13713984D01*
X14436848Y-13713984D02*
X14417801Y-13704460D01*
X14417801Y-13704460D02*
X14408277Y-13685412D01*
X14408277Y-13685412D02*
X14408277Y-13666365D01*
X14408277Y-13666365D02*
X14417801Y-13647317D01*
X14417801Y-13647317D02*
X14436848Y-13637793D01*
X14436848Y-13637793D02*
X14484467Y-13637793D01*
X14484467Y-13637793D02*
X14503515Y-13628269D01*
X14598753Y-13580650D02*
X14598753Y-13780650D01*
X14598753Y-13590174D02*
X14617801Y-13580650D01*
X14617801Y-13580650D02*
X14655896Y-13580650D01*
X14655896Y-13580650D02*
X14674943Y-13590174D01*
X14674943Y-13590174D02*
X14684467Y-13599698D01*
X14684467Y-13599698D02*
X14693991Y-13618746D01*
X14693991Y-13618746D02*
X14693991Y-13675888D01*
X14693991Y-13675888D02*
X14684467Y-13694936D01*
X14684467Y-13694936D02*
X14674943Y-13704460D01*
X14674943Y-13704460D02*
X14655896Y-13713984D01*
X14655896Y-13713984D02*
X14617801Y-13713984D01*
X14617801Y-13713984D02*
X14598753Y-13704460D01*
X14779705Y-13694936D02*
X14789229Y-13704460D01*
X14789229Y-13704460D02*
X14779705Y-13713984D01*
X14779705Y-13713984D02*
X14770182Y-13704460D01*
X14770182Y-13704460D02*
X14779705Y-13694936D01*
X14779705Y-13694936D02*
X14779705Y-13713984D01*
X14779705Y-13590174D02*
X14789229Y-13599698D01*
X14789229Y-13599698D02*
X14779705Y-13609222D01*
X14779705Y-13609222D02*
X14770182Y-13599698D01*
X14770182Y-13599698D02*
X14779705Y-13590174D01*
X14779705Y-13590174D02*
X14779705Y-13609222D01*
D12*
X13057500Y-13997500D02*
X13147500Y-14087500D01*
X13147500Y-13997500D02*
X13057500Y-14087500D01*
D11*
X13446372Y-13933984D02*
X13465420Y-13933984D01*
X13465420Y-13933984D02*
X13484467Y-13943508D01*
X13484467Y-13943508D02*
X13493991Y-13953031D01*
X13493991Y-13953031D02*
X13503515Y-13972079D01*
X13503515Y-13972079D02*
X13513039Y-14010174D01*
X13513039Y-14010174D02*
X13513039Y-14057793D01*
X13513039Y-14057793D02*
X13503515Y-14095888D01*
X13503515Y-14095888D02*
X13493991Y-14114936D01*
X13493991Y-14114936D02*
X13484467Y-14124460D01*
X13484467Y-14124460D02*
X13465420Y-14133984D01*
X13465420Y-14133984D02*
X13446372Y-14133984D01*
X13446372Y-14133984D02*
X13427324Y-14124460D01*
X13427324Y-14124460D02*
X13417801Y-14114936D01*
X13417801Y-14114936D02*
X13408277Y-14095888D01*
X13408277Y-14095888D02*
X13398753Y-14057793D01*
X13398753Y-14057793D02*
X13398753Y-14010174D01*
X13398753Y-14010174D02*
X13408277Y-13972079D01*
X13408277Y-13972079D02*
X13417801Y-13953031D01*
X13417801Y-13953031D02*
X13427324Y-13943508D01*
X13427324Y-13943508D02*
X13446372Y-13933984D01*
X13598753Y-14114936D02*
X13608277Y-14124460D01*
X13608277Y-14124460D02*
X13598753Y-14133984D01*
X13598753Y-14133984D02*
X13589229Y-14124460D01*
X13589229Y-14124460D02*
X13598753Y-14114936D01*
X13598753Y-14114936D02*
X13598753Y-14133984D01*
X13703515Y-14133984D02*
X13741610Y-14133984D01*
X13741610Y-14133984D02*
X13760658Y-14124460D01*
X13760658Y-14124460D02*
X13770182Y-14114936D01*
X13770182Y-14114936D02*
X13789229Y-14086365D01*
X13789229Y-14086365D02*
X13798753Y-14048269D01*
X13798753Y-14048269D02*
X13798753Y-13972079D01*
X13798753Y-13972079D02*
X13789229Y-13953031D01*
X13789229Y-13953031D02*
X13779705Y-13943508D01*
X13779705Y-13943508D02*
X13760658Y-13933984D01*
X13760658Y-13933984D02*
X13722562Y-13933984D01*
X13722562Y-13933984D02*
X13703515Y-13943508D01*
X13703515Y-13943508D02*
X13693991Y-13953031D01*
X13693991Y-13953031D02*
X13684467Y-13972079D01*
X13684467Y-13972079D02*
X13684467Y-14019698D01*
X13684467Y-14019698D02*
X13693991Y-14038746D01*
X13693991Y-14038746D02*
X13703515Y-14048269D01*
X13703515Y-14048269D02*
X13722562Y-14057793D01*
X13722562Y-14057793D02*
X13760658Y-14057793D01*
X13760658Y-14057793D02*
X13779705Y-14048269D01*
X13779705Y-14048269D02*
X13789229Y-14038746D01*
X13789229Y-14038746D02*
X13798753Y-14019698D01*
X13922562Y-13933984D02*
X13941610Y-13933984D01*
X13941610Y-13933984D02*
X13960658Y-13943508D01*
X13960658Y-13943508D02*
X13970182Y-13953031D01*
X13970182Y-13953031D02*
X13979705Y-13972079D01*
X13979705Y-13972079D02*
X13989229Y-14010174D01*
X13989229Y-14010174D02*
X13989229Y-14057793D01*
X13989229Y-14057793D02*
X13979705Y-14095888D01*
X13979705Y-14095888D02*
X13970182Y-14114936D01*
X13970182Y-14114936D02*
X13960658Y-14124460D01*
X13960658Y-14124460D02*
X13941610Y-14133984D01*
X13941610Y-14133984D02*
X13922562Y-14133984D01*
X13922562Y-14133984D02*
X13903515Y-14124460D01*
X13903515Y-14124460D02*
X13893991Y-14114936D01*
X13893991Y-14114936D02*
X13884467Y-14095888D01*
X13884467Y-14095888D02*
X13874943Y-14057793D01*
X13874943Y-14057793D02*
X13874943Y-14010174D01*
X13874943Y-14010174D02*
X13884467Y-13972079D01*
X13884467Y-13972079D02*
X13893991Y-13953031D01*
X13893991Y-13953031D02*
X13903515Y-13943508D01*
X13903515Y-13943508D02*
X13922562Y-13933984D01*
X14113039Y-13933984D02*
X14132086Y-13933984D01*
X14132086Y-13933984D02*
X14151134Y-13943508D01*
X14151134Y-13943508D02*
X14160658Y-13953031D01*
X14160658Y-13953031D02*
X14170182Y-13972079D01*
X14170182Y-13972079D02*
X14179705Y-14010174D01*
X14179705Y-14010174D02*
X14179705Y-14057793D01*
X14179705Y-14057793D02*
X14170182Y-14095888D01*
X14170182Y-14095888D02*
X14160658Y-14114936D01*
X14160658Y-14114936D02*
X14151134Y-14124460D01*
X14151134Y-14124460D02*
X14132086Y-14133984D01*
X14132086Y-14133984D02*
X14113039Y-14133984D01*
X14113039Y-14133984D02*
X14093991Y-14124460D01*
X14093991Y-14124460D02*
X14084467Y-14114936D01*
X14084467Y-14114936D02*
X14074943Y-14095888D01*
X14074943Y-14095888D02*
X14065420Y-14057793D01*
X14065420Y-14057793D02*
X14065420Y-14010174D01*
X14065420Y-14010174D02*
X14074943Y-13972079D01*
X14074943Y-13972079D02*
X14084467Y-13953031D01*
X14084467Y-13953031D02*
X14093991Y-13943508D01*
X14093991Y-13943508D02*
X14113039Y-13933984D01*
X14265420Y-14133984D02*
X14265420Y-14000650D01*
X14265420Y-14019698D02*
X14274943Y-14010174D01*
X14274943Y-14010174D02*
X14293991Y-14000650D01*
X14293991Y-14000650D02*
X14322563Y-14000650D01*
X14322563Y-14000650D02*
X14341610Y-14010174D01*
X14341610Y-14010174D02*
X14351134Y-14029222D01*
X14351134Y-14029222D02*
X14351134Y-14133984D01*
X14351134Y-14029222D02*
X14360658Y-14010174D01*
X14360658Y-14010174D02*
X14379705Y-14000650D01*
X14379705Y-14000650D02*
X14408277Y-14000650D01*
X14408277Y-14000650D02*
X14427324Y-14010174D01*
X14427324Y-14010174D02*
X14436848Y-14029222D01*
X14436848Y-14029222D02*
X14436848Y-14133984D01*
X14532086Y-14133984D02*
X14532086Y-14000650D01*
X14532086Y-14019698D02*
X14541610Y-14010174D01*
X14541610Y-14010174D02*
X14560658Y-14000650D01*
X14560658Y-14000650D02*
X14589229Y-14000650D01*
X14589229Y-14000650D02*
X14608277Y-14010174D01*
X14608277Y-14010174D02*
X14617801Y-14029222D01*
X14617801Y-14029222D02*
X14617801Y-14133984D01*
X14617801Y-14029222D02*
X14627324Y-14010174D01*
X14627324Y-14010174D02*
X14646372Y-14000650D01*
X14646372Y-14000650D02*
X14674943Y-14000650D01*
X14674943Y-14000650D02*
X14693991Y-14010174D01*
X14693991Y-14010174D02*
X14703515Y-14029222D01*
X14703515Y-14029222D02*
X14703515Y-14133984D01*
X15093991Y-13924460D02*
X14922563Y-14181603D01*
X15351134Y-13933984D02*
X15370182Y-13933984D01*
X15370182Y-13933984D02*
X15389229Y-13943508D01*
X15389229Y-13943508D02*
X15398753Y-13953031D01*
X15398753Y-13953031D02*
X15408277Y-13972079D01*
X15408277Y-13972079D02*
X15417801Y-14010174D01*
X15417801Y-14010174D02*
X15417801Y-14057793D01*
X15417801Y-14057793D02*
X15408277Y-14095888D01*
X15408277Y-14095888D02*
X15398753Y-14114936D01*
X15398753Y-14114936D02*
X15389229Y-14124460D01*
X15389229Y-14124460D02*
X15370182Y-14133984D01*
X15370182Y-14133984D02*
X15351134Y-14133984D01*
X15351134Y-14133984D02*
X15332086Y-14124460D01*
X15332086Y-14124460D02*
X15322563Y-14114936D01*
X15322563Y-14114936D02*
X15313039Y-14095888D01*
X15313039Y-14095888D02*
X15303515Y-14057793D01*
X15303515Y-14057793D02*
X15303515Y-14010174D01*
X15303515Y-14010174D02*
X15313039Y-13972079D01*
X15313039Y-13972079D02*
X15322563Y-13953031D01*
X15322563Y-13953031D02*
X15332086Y-13943508D01*
X15332086Y-13943508D02*
X15351134Y-13933984D01*
X15503515Y-14114936D02*
X15513039Y-14124460D01*
X15513039Y-14124460D02*
X15503515Y-14133984D01*
X15503515Y-14133984D02*
X15493991Y-14124460D01*
X15493991Y-14124460D02*
X15503515Y-14114936D01*
X15503515Y-14114936D02*
X15503515Y-14133984D01*
X15636848Y-13933984D02*
X15655896Y-13933984D01*
X15655896Y-13933984D02*
X15674944Y-13943508D01*
X15674944Y-13943508D02*
X15684467Y-13953031D01*
X15684467Y-13953031D02*
X15693991Y-13972079D01*
X15693991Y-13972079D02*
X15703515Y-14010174D01*
X15703515Y-14010174D02*
X15703515Y-14057793D01*
X15703515Y-14057793D02*
X15693991Y-14095888D01*
X15693991Y-14095888D02*
X15684467Y-14114936D01*
X15684467Y-14114936D02*
X15674944Y-14124460D01*
X15674944Y-14124460D02*
X15655896Y-14133984D01*
X15655896Y-14133984D02*
X15636848Y-14133984D01*
X15636848Y-14133984D02*
X15617801Y-14124460D01*
X15617801Y-14124460D02*
X15608277Y-14114936D01*
X15608277Y-14114936D02*
X15598753Y-14095888D01*
X15598753Y-14095888D02*
X15589229Y-14057793D01*
X15589229Y-14057793D02*
X15589229Y-14010174D01*
X15589229Y-14010174D02*
X15598753Y-13972079D01*
X15598753Y-13972079D02*
X15608277Y-13953031D01*
X15608277Y-13953031D02*
X15617801Y-13943508D01*
X15617801Y-13943508D02*
X15636848Y-13933984D01*
X15770182Y-13933984D02*
X15893991Y-13933984D01*
X15893991Y-13933984D02*
X15827325Y-14010174D01*
X15827325Y-14010174D02*
X15855896Y-14010174D01*
X15855896Y-14010174D02*
X15874944Y-14019698D01*
X15874944Y-14019698D02*
X15884467Y-14029222D01*
X15884467Y-14029222D02*
X15893991Y-14048269D01*
X15893991Y-14048269D02*
X15893991Y-14095888D01*
X15893991Y-14095888D02*
X15884467Y-14114936D01*
X15884467Y-14114936D02*
X15874944Y-14124460D01*
X15874944Y-14124460D02*
X15855896Y-14133984D01*
X15855896Y-14133984D02*
X15798753Y-14133984D01*
X15798753Y-14133984D02*
X15779706Y-14124460D01*
X15779706Y-14124460D02*
X15770182Y-14114936D01*
X16074944Y-13933984D02*
X15979706Y-13933984D01*
X15979706Y-13933984D02*
X15970182Y-14029222D01*
X15970182Y-14029222D02*
X15979706Y-14019698D01*
X15979706Y-14019698D02*
X15998753Y-14010174D01*
X15998753Y-14010174D02*
X16046372Y-14010174D01*
X16046372Y-14010174D02*
X16065420Y-14019698D01*
X16065420Y-14019698D02*
X16074944Y-14029222D01*
X16074944Y-14029222D02*
X16084467Y-14048269D01*
X16084467Y-14048269D02*
X16084467Y-14095888D01*
X16084467Y-14095888D02*
X16074944Y-14114936D01*
X16074944Y-14114936D02*
X16065420Y-14124460D01*
X16065420Y-14124460D02*
X16046372Y-14133984D01*
X16046372Y-14133984D02*
X15998753Y-14133984D01*
X15998753Y-14133984D02*
X15979706Y-14124460D01*
X15979706Y-14124460D02*
X15970182Y-14114936D01*
X16255896Y-14000650D02*
X16255896Y-14133984D01*
X16208277Y-13924460D02*
X16160658Y-14067317D01*
X16160658Y-14067317D02*
X16284467Y-14067317D01*
X16351134Y-13933984D02*
X16351134Y-13972079D01*
X16427325Y-13933984D02*
X16427325Y-13972079D01*
X16722563Y-14210174D02*
X16713039Y-14200650D01*
X16713039Y-14200650D02*
X16693991Y-14172079D01*
X16693991Y-14172079D02*
X16684468Y-14153031D01*
X16684468Y-14153031D02*
X16674944Y-14124460D01*
X16674944Y-14124460D02*
X16665420Y-14076841D01*
X16665420Y-14076841D02*
X16665420Y-14038746D01*
X16665420Y-14038746D02*
X16674944Y-13991127D01*
X16674944Y-13991127D02*
X16684468Y-13962555D01*
X16684468Y-13962555D02*
X16693991Y-13943508D01*
X16693991Y-13943508D02*
X16713039Y-13914936D01*
X16713039Y-13914936D02*
X16722563Y-13905412D01*
X16789230Y-13953031D02*
X16798753Y-13943508D01*
X16798753Y-13943508D02*
X16817801Y-13933984D01*
X16817801Y-13933984D02*
X16865420Y-13933984D01*
X16865420Y-13933984D02*
X16884468Y-13943508D01*
X16884468Y-13943508D02*
X16893991Y-13953031D01*
X16893991Y-13953031D02*
X16903515Y-13972079D01*
X16903515Y-13972079D02*
X16903515Y-13991127D01*
X16903515Y-13991127D02*
X16893991Y-14019698D01*
X16893991Y-14019698D02*
X16779706Y-14133984D01*
X16779706Y-14133984D02*
X16903515Y-14133984D01*
X17141611Y-14133984D02*
X17141611Y-13933984D01*
X17227325Y-14133984D02*
X17227325Y-14029222D01*
X17227325Y-14029222D02*
X17217801Y-14010174D01*
X17217801Y-14010174D02*
X17198753Y-14000650D01*
X17198753Y-14000650D02*
X17170182Y-14000650D01*
X17170182Y-14000650D02*
X17151134Y-14010174D01*
X17151134Y-14010174D02*
X17141611Y-14019698D01*
X17351134Y-14133984D02*
X17332087Y-14124460D01*
X17332087Y-14124460D02*
X17322563Y-14114936D01*
X17322563Y-14114936D02*
X17313039Y-14095888D01*
X17313039Y-14095888D02*
X17313039Y-14038746D01*
X17313039Y-14038746D02*
X17322563Y-14019698D01*
X17322563Y-14019698D02*
X17332087Y-14010174D01*
X17332087Y-14010174D02*
X17351134Y-14000650D01*
X17351134Y-14000650D02*
X17379706Y-14000650D01*
X17379706Y-14000650D02*
X17398753Y-14010174D01*
X17398753Y-14010174D02*
X17408277Y-14019698D01*
X17408277Y-14019698D02*
X17417801Y-14038746D01*
X17417801Y-14038746D02*
X17417801Y-14095888D01*
X17417801Y-14095888D02*
X17408277Y-14114936D01*
X17408277Y-14114936D02*
X17398753Y-14124460D01*
X17398753Y-14124460D02*
X17379706Y-14133984D01*
X17379706Y-14133984D02*
X17351134Y-14133984D01*
X17532087Y-14133984D02*
X17513039Y-14124460D01*
X17513039Y-14124460D02*
X17503515Y-14105412D01*
X17503515Y-14105412D02*
X17503515Y-13933984D01*
X17684468Y-14124460D02*
X17665420Y-14133984D01*
X17665420Y-14133984D02*
X17627325Y-14133984D01*
X17627325Y-14133984D02*
X17608277Y-14124460D01*
X17608277Y-14124460D02*
X17598753Y-14105412D01*
X17598753Y-14105412D02*
X17598753Y-14029222D01*
X17598753Y-14029222D02*
X17608277Y-14010174D01*
X17608277Y-14010174D02*
X17627325Y-14000650D01*
X17627325Y-14000650D02*
X17665420Y-14000650D01*
X17665420Y-14000650D02*
X17684468Y-14010174D01*
X17684468Y-14010174D02*
X17693992Y-14029222D01*
X17693992Y-14029222D02*
X17693992Y-14048269D01*
X17693992Y-14048269D02*
X17598753Y-14067317D01*
X17770182Y-14124460D02*
X17789230Y-14133984D01*
X17789230Y-14133984D02*
X17827325Y-14133984D01*
X17827325Y-14133984D02*
X17846373Y-14124460D01*
X17846373Y-14124460D02*
X17855896Y-14105412D01*
X17855896Y-14105412D02*
X17855896Y-14095888D01*
X17855896Y-14095888D02*
X17846373Y-14076841D01*
X17846373Y-14076841D02*
X17827325Y-14067317D01*
X17827325Y-14067317D02*
X17798753Y-14067317D01*
X17798753Y-14067317D02*
X17779706Y-14057793D01*
X17779706Y-14057793D02*
X17770182Y-14038746D01*
X17770182Y-14038746D02*
X17770182Y-14029222D01*
X17770182Y-14029222D02*
X17779706Y-14010174D01*
X17779706Y-14010174D02*
X17798753Y-14000650D01*
X17798753Y-14000650D02*
X17827325Y-14000650D01*
X17827325Y-14000650D02*
X17846373Y-14010174D01*
X17922563Y-14210174D02*
X17932087Y-14200650D01*
X17932087Y-14200650D02*
X17951134Y-14172079D01*
X17951134Y-14172079D02*
X17960658Y-14153031D01*
X17960658Y-14153031D02*
X17970182Y-14124460D01*
X17970182Y-14124460D02*
X17979706Y-14076841D01*
X17979706Y-14076841D02*
X17979706Y-14038746D01*
X17979706Y-14038746D02*
X17970182Y-13991127D01*
X17970182Y-13991127D02*
X17960658Y-13962555D01*
X17960658Y-13962555D02*
X17951134Y-13943508D01*
X17951134Y-13943508D02*
X17932087Y-13914936D01*
X17932087Y-13914936D02*
X17922563Y-13905412D01*
X18284468Y-14210174D02*
X18274944Y-14200650D01*
X18274944Y-14200650D02*
X18255896Y-14172079D01*
X18255896Y-14172079D02*
X18246373Y-14153031D01*
X18246373Y-14153031D02*
X18236849Y-14124460D01*
X18236849Y-14124460D02*
X18227325Y-14076841D01*
X18227325Y-14076841D02*
X18227325Y-14038746D01*
X18227325Y-14038746D02*
X18236849Y-13991127D01*
X18236849Y-13991127D02*
X18246373Y-13962555D01*
X18246373Y-13962555D02*
X18255896Y-13943508D01*
X18255896Y-13943508D02*
X18274944Y-13914936D01*
X18274944Y-13914936D02*
X18284468Y-13905412D01*
X18360658Y-14000650D02*
X18360658Y-14133984D01*
X18360658Y-14019698D02*
X18370182Y-14010174D01*
X18370182Y-14010174D02*
X18389230Y-14000650D01*
X18389230Y-14000650D02*
X18417801Y-14000650D01*
X18417801Y-14000650D02*
X18436849Y-14010174D01*
X18436849Y-14010174D02*
X18446373Y-14029222D01*
X18446373Y-14029222D02*
X18446373Y-14133984D01*
X18570182Y-14133984D02*
X18551134Y-14124460D01*
X18551134Y-14124460D02*
X18541611Y-14114936D01*
X18541611Y-14114936D02*
X18532087Y-14095888D01*
X18532087Y-14095888D02*
X18532087Y-14038746D01*
X18532087Y-14038746D02*
X18541611Y-14019698D01*
X18541611Y-14019698D02*
X18551134Y-14010174D01*
X18551134Y-14010174D02*
X18570182Y-14000650D01*
X18570182Y-14000650D02*
X18598754Y-14000650D01*
X18598754Y-14000650D02*
X18617801Y-14010174D01*
X18617801Y-14010174D02*
X18627325Y-14019698D01*
X18627325Y-14019698D02*
X18636849Y-14038746D01*
X18636849Y-14038746D02*
X18636849Y-14095888D01*
X18636849Y-14095888D02*
X18627325Y-14114936D01*
X18627325Y-14114936D02*
X18617801Y-14124460D01*
X18617801Y-14124460D02*
X18598754Y-14133984D01*
X18598754Y-14133984D02*
X18570182Y-14133984D01*
X18693992Y-14000650D02*
X18770182Y-14000650D01*
X18722563Y-13933984D02*
X18722563Y-14105412D01*
X18722563Y-14105412D02*
X18732087Y-14124460D01*
X18732087Y-14124460D02*
X18751134Y-14133984D01*
X18751134Y-14133984D02*
X18770182Y-14133984D01*
X18989230Y-14000650D02*
X18989230Y-14200650D01*
X18989230Y-14010174D02*
X19008277Y-14000650D01*
X19008277Y-14000650D02*
X19046373Y-14000650D01*
X19046373Y-14000650D02*
X19065420Y-14010174D01*
X19065420Y-14010174D02*
X19074944Y-14019698D01*
X19074944Y-14019698D02*
X19084468Y-14038746D01*
X19084468Y-14038746D02*
X19084468Y-14095888D01*
X19084468Y-14095888D02*
X19074944Y-14114936D01*
X19074944Y-14114936D02*
X19065420Y-14124460D01*
X19065420Y-14124460D02*
X19046373Y-14133984D01*
X19046373Y-14133984D02*
X19008277Y-14133984D01*
X19008277Y-14133984D02*
X18989230Y-14124460D01*
X19198754Y-14133984D02*
X19179706Y-14124460D01*
X19179706Y-14124460D02*
X19170182Y-14105412D01*
X19170182Y-14105412D02*
X19170182Y-13933984D01*
X19360658Y-14133984D02*
X19360658Y-14029222D01*
X19360658Y-14029222D02*
X19351135Y-14010174D01*
X19351135Y-14010174D02*
X19332087Y-14000650D01*
X19332087Y-14000650D02*
X19293992Y-14000650D01*
X19293992Y-14000650D02*
X19274944Y-14010174D01*
X19360658Y-14124460D02*
X19341611Y-14133984D01*
X19341611Y-14133984D02*
X19293992Y-14133984D01*
X19293992Y-14133984D02*
X19274944Y-14124460D01*
X19274944Y-14124460D02*
X19265420Y-14105412D01*
X19265420Y-14105412D02*
X19265420Y-14086365D01*
X19265420Y-14086365D02*
X19274944Y-14067317D01*
X19274944Y-14067317D02*
X19293992Y-14057793D01*
X19293992Y-14057793D02*
X19341611Y-14057793D01*
X19341611Y-14057793D02*
X19360658Y-14048269D01*
X19427325Y-14000650D02*
X19503515Y-14000650D01*
X19455896Y-13933984D02*
X19455896Y-14105412D01*
X19455896Y-14105412D02*
X19465420Y-14124460D01*
X19465420Y-14124460D02*
X19484468Y-14133984D01*
X19484468Y-14133984D02*
X19503515Y-14133984D01*
X19646373Y-14124460D02*
X19627325Y-14133984D01*
X19627325Y-14133984D02*
X19589230Y-14133984D01*
X19589230Y-14133984D02*
X19570182Y-14124460D01*
X19570182Y-14124460D02*
X19560658Y-14105412D01*
X19560658Y-14105412D02*
X19560658Y-14029222D01*
X19560658Y-14029222D02*
X19570182Y-14010174D01*
X19570182Y-14010174D02*
X19589230Y-14000650D01*
X19589230Y-14000650D02*
X19627325Y-14000650D01*
X19627325Y-14000650D02*
X19646373Y-14010174D01*
X19646373Y-14010174D02*
X19655896Y-14029222D01*
X19655896Y-14029222D02*
X19655896Y-14048269D01*
X19655896Y-14048269D02*
X19560658Y-14067317D01*
X19827325Y-14133984D02*
X19827325Y-13933984D01*
X19827325Y-14124460D02*
X19808277Y-14133984D01*
X19808277Y-14133984D02*
X19770182Y-14133984D01*
X19770182Y-14133984D02*
X19751135Y-14124460D01*
X19751135Y-14124460D02*
X19741611Y-14114936D01*
X19741611Y-14114936D02*
X19732087Y-14095888D01*
X19732087Y-14095888D02*
X19732087Y-14038746D01*
X19732087Y-14038746D02*
X19741611Y-14019698D01*
X19741611Y-14019698D02*
X19751135Y-14010174D01*
X19751135Y-14010174D02*
X19770182Y-14000650D01*
X19770182Y-14000650D02*
X19808277Y-14000650D01*
X19808277Y-14000650D02*
X19827325Y-14010174D01*
X19903516Y-14210174D02*
X19913039Y-14200650D01*
X19913039Y-14200650D02*
X19932087Y-14172079D01*
X19932087Y-14172079D02*
X19941611Y-14153031D01*
X19941611Y-14153031D02*
X19951135Y-14124460D01*
X19951135Y-14124460D02*
X19960658Y-14076841D01*
X19960658Y-14076841D02*
X19960658Y-14038746D01*
X19960658Y-14038746D02*
X19951135Y-13991127D01*
X19951135Y-13991127D02*
X19941611Y-13962555D01*
X19941611Y-13962555D02*
X19932087Y-13943508D01*
X19932087Y-13943508D02*
X19913039Y-13914936D01*
X19913039Y-13914936D02*
X19903516Y-13905412D01*
M02*
