M48
; DRILL file {KiCad 8.0.6} date 2025-02-23T18:05:17+0100
; FORMAT={-:-/ absolute / inch / decimal}
; #@! TF.CreationDate,2025-02-23T18:05:17+01:00
; #@! TF.GenerationSoftware,Kicad,Pcbnew,8.0.6
; #@! TF.FileFunction,Plated,1,2,PTH
FMAT,2
INCH
; #@! TA.AperFunction,Plated,PTH,ViaDrill
T1C0.0118
; #@! TA.AperFunction,Plated,PTH,ComponentDrill
T2C0.0469
%
G90
G05
T1
X5.2126Y-3.748
X5.2165Y-3.9646
X5.2205Y-3.0787
X5.2237Y-2.9121
X5.2677Y-5.1969
X5.2756Y-3.0315
X5.2756Y-3.752
X5.311Y-2.0472
X5.3243Y-3.9528
X5.3346Y-2.9724
X5.3976Y-4.0118
X5.3976Y-4.0472
X5.5157Y-3.9567
X5.5315Y-3.4094
X5.5315Y-3.6063
X5.5394Y-4.0591
X5.5748Y-4.1988
X5.5787Y-4.878
X5.6614Y-4.7992
X5.6919Y-4.7911
X5.7068Y-4.4586
X5.7083Y-4.398
X5.7992Y-4.9213
X5.8885Y-4.8924
X5.9528Y-4.8898
X6.1732Y-3.2008
X6.2205Y-3.7008
X6.2244Y-3.5472
X6.2244Y-3.8583
X6.378Y-3.5355
X6.3794Y-3.6732
X6.3858Y-3.8189
X6.4016Y-3.7244
X6.5157Y-4.8465
X6.5236Y-4.937
X6.6378Y-4.8425
X6.6457Y-4.7559
X6.9213Y-4.5315
X6.9291Y-4.9291
X7.1575Y-2.0472
T2
X7.1654Y-2.3228
X7.1654Y-2.4228
X7.1654Y-2.6953
X7.1654Y-2.7953
X7.1654Y-2.8953
X7.1654Y-3.1709
X7.1654Y-3.2709
X7.1654Y-3.3709
X7.1654Y-3.622
X7.1654Y-3.722
X7.1654Y-4.4488
X7.1654Y-4.5488
M30
