%TF.GenerationSoftware,KiCad,Pcbnew,7.0.9*%
%TF.CreationDate,2024-05-06T23:46:21-05:00*%
%TF.ProjectId,CONTROL WIFI ESP32 S3 V4.0,434f4e54-524f-44c2-9057-494649204553,rev?*%
%TF.SameCoordinates,Original*%
%TF.FileFunction,Drillmap*%
%TF.FilePolarity,Positive*%
%FSLAX45Y45*%
G04 Gerber Fmt 4.5, Leading zero omitted, Abs format (unit mm)*
G04 Created by KiCad (PCBNEW 7.0.9) date 2024-05-06 23:46:21*
%MOMM*%
%LPD*%
G01*
G04 APERTURE LIST*
%ADD10C,0.100000*%
%ADD11C,0.200000*%
G04 APERTURE END LIST*
D10*
X8615000Y-13876500D02*
X8615000Y-13676500D01*
X11915000Y-10676500D02*
G75*
G03*
X11915000Y-10676500I-100000J0D01*
G01*
X6615000Y-13676500D02*
X8615000Y-13676500D01*
X12115000Y-12176500D02*
X12115000Y-8576500D01*
X10115000Y-14176500D02*
G75*
G03*
X12115000Y-12176500I0J2000000D01*
G01*
X3515000Y-8176500D02*
G75*
G03*
X3115000Y-8576500I0J-400000D01*
G01*
X6615000Y-13876500D02*
X8615000Y-13876500D01*
X12115000Y-8576500D02*
G75*
G03*
X11715000Y-8176500I-400000J0D01*
G01*
X3115000Y-12176500D02*
G75*
G03*
X5115000Y-14176500I2000000J0D01*
G01*
X3515000Y-8176500D02*
X11715000Y-8176500D01*
X11415000Y-9276500D02*
G75*
G03*
X11415000Y-9276500I-100000J0D01*
G01*
X6615000Y-13676500D02*
X6615000Y-13876500D01*
X3615000Y-9376500D02*
G75*
G03*
X3615000Y-9376500I-100000J0D01*
G01*
X3615000Y-11676500D02*
G75*
G03*
X3615000Y-11676500I-100000J0D01*
G01*
X3115000Y-8576500D02*
X3115000Y-12176500D01*
X5115000Y-14176500D02*
X10115000Y-14176500D01*
D11*
D10*
X9665550Y-13935890D02*
X9754450Y-14024790D01*
X9754450Y-13935890D02*
X9665550Y-14024790D01*
X9965550Y-13935890D02*
X10054450Y-14024790D01*
X10054450Y-13935890D02*
X9965550Y-14024790D01*
D11*
X3370777Y-14492984D02*
X3370777Y-14292984D01*
X3370777Y-14292984D02*
X3418396Y-14292984D01*
X3418396Y-14292984D02*
X3446967Y-14302508D01*
X3446967Y-14302508D02*
X3466015Y-14321555D01*
X3466015Y-14321555D02*
X3475539Y-14340603D01*
X3475539Y-14340603D02*
X3485062Y-14378698D01*
X3485062Y-14378698D02*
X3485062Y-14407269D01*
X3485062Y-14407269D02*
X3475539Y-14445365D01*
X3475539Y-14445365D02*
X3466015Y-14464412D01*
X3466015Y-14464412D02*
X3446967Y-14483460D01*
X3446967Y-14483460D02*
X3418396Y-14492984D01*
X3418396Y-14492984D02*
X3370777Y-14492984D01*
X3570777Y-14492984D02*
X3570777Y-14359650D01*
X3570777Y-14397746D02*
X3580301Y-14378698D01*
X3580301Y-14378698D02*
X3589824Y-14369174D01*
X3589824Y-14369174D02*
X3608872Y-14359650D01*
X3608872Y-14359650D02*
X3627920Y-14359650D01*
X3694586Y-14492984D02*
X3694586Y-14359650D01*
X3694586Y-14292984D02*
X3685062Y-14302508D01*
X3685062Y-14302508D02*
X3694586Y-14312031D01*
X3694586Y-14312031D02*
X3704110Y-14302508D01*
X3704110Y-14302508D02*
X3694586Y-14292984D01*
X3694586Y-14292984D02*
X3694586Y-14312031D01*
X3818396Y-14492984D02*
X3799348Y-14483460D01*
X3799348Y-14483460D02*
X3789824Y-14464412D01*
X3789824Y-14464412D02*
X3789824Y-14292984D01*
X3923158Y-14492984D02*
X3904110Y-14483460D01*
X3904110Y-14483460D02*
X3894586Y-14464412D01*
X3894586Y-14464412D02*
X3894586Y-14292984D01*
X4151729Y-14492984D02*
X4151729Y-14292984D01*
X4151729Y-14292984D02*
X4218396Y-14435841D01*
X4218396Y-14435841D02*
X4285063Y-14292984D01*
X4285063Y-14292984D02*
X4285063Y-14492984D01*
X4466015Y-14492984D02*
X4466015Y-14388222D01*
X4466015Y-14388222D02*
X4456491Y-14369174D01*
X4456491Y-14369174D02*
X4437444Y-14359650D01*
X4437444Y-14359650D02*
X4399348Y-14359650D01*
X4399348Y-14359650D02*
X4380301Y-14369174D01*
X4466015Y-14483460D02*
X4446967Y-14492984D01*
X4446967Y-14492984D02*
X4399348Y-14492984D01*
X4399348Y-14492984D02*
X4380301Y-14483460D01*
X4380301Y-14483460D02*
X4370777Y-14464412D01*
X4370777Y-14464412D02*
X4370777Y-14445365D01*
X4370777Y-14445365D02*
X4380301Y-14426317D01*
X4380301Y-14426317D02*
X4399348Y-14416793D01*
X4399348Y-14416793D02*
X4446967Y-14416793D01*
X4446967Y-14416793D02*
X4466015Y-14407269D01*
X4561253Y-14359650D02*
X4561253Y-14559650D01*
X4561253Y-14369174D02*
X4580301Y-14359650D01*
X4580301Y-14359650D02*
X4618396Y-14359650D01*
X4618396Y-14359650D02*
X4637444Y-14369174D01*
X4637444Y-14369174D02*
X4646967Y-14378698D01*
X4646967Y-14378698D02*
X4656491Y-14397746D01*
X4656491Y-14397746D02*
X4656491Y-14454888D01*
X4656491Y-14454888D02*
X4646967Y-14473936D01*
X4646967Y-14473936D02*
X4637444Y-14483460D01*
X4637444Y-14483460D02*
X4618396Y-14492984D01*
X4618396Y-14492984D02*
X4580301Y-14492984D01*
X4580301Y-14492984D02*
X4561253Y-14483460D01*
X4742205Y-14473936D02*
X4751729Y-14483460D01*
X4751729Y-14483460D02*
X4742205Y-14492984D01*
X4742205Y-14492984D02*
X4732682Y-14483460D01*
X4732682Y-14483460D02*
X4742205Y-14473936D01*
X4742205Y-14473936D02*
X4742205Y-14492984D01*
X4742205Y-14369174D02*
X4751729Y-14378698D01*
X4751729Y-14378698D02*
X4742205Y-14388222D01*
X4742205Y-14388222D02*
X4732682Y-14378698D01*
X4732682Y-14378698D02*
X4742205Y-14369174D01*
X4742205Y-14369174D02*
X4742205Y-14388222D01*
D10*
X3021100Y-14777050D02*
X3110000Y-14865950D01*
X3110000Y-14777050D02*
X3021100Y-14865950D01*
D11*
X3408872Y-14712984D02*
X3427920Y-14712984D01*
X3427920Y-14712984D02*
X3446967Y-14722508D01*
X3446967Y-14722508D02*
X3456491Y-14732031D01*
X3456491Y-14732031D02*
X3466015Y-14751079D01*
X3466015Y-14751079D02*
X3475539Y-14789174D01*
X3475539Y-14789174D02*
X3475539Y-14836793D01*
X3475539Y-14836793D02*
X3466015Y-14874888D01*
X3466015Y-14874888D02*
X3456491Y-14893936D01*
X3456491Y-14893936D02*
X3446967Y-14903460D01*
X3446967Y-14903460D02*
X3427920Y-14912984D01*
X3427920Y-14912984D02*
X3408872Y-14912984D01*
X3408872Y-14912984D02*
X3389824Y-14903460D01*
X3389824Y-14903460D02*
X3380301Y-14893936D01*
X3380301Y-14893936D02*
X3370777Y-14874888D01*
X3370777Y-14874888D02*
X3361253Y-14836793D01*
X3361253Y-14836793D02*
X3361253Y-14789174D01*
X3361253Y-14789174D02*
X3370777Y-14751079D01*
X3370777Y-14751079D02*
X3380301Y-14732031D01*
X3380301Y-14732031D02*
X3389824Y-14722508D01*
X3389824Y-14722508D02*
X3408872Y-14712984D01*
X3561253Y-14893936D02*
X3570777Y-14903460D01*
X3570777Y-14903460D02*
X3561253Y-14912984D01*
X3561253Y-14912984D02*
X3551729Y-14903460D01*
X3551729Y-14903460D02*
X3561253Y-14893936D01*
X3561253Y-14893936D02*
X3561253Y-14912984D01*
X3685062Y-14798698D02*
X3666015Y-14789174D01*
X3666015Y-14789174D02*
X3656491Y-14779650D01*
X3656491Y-14779650D02*
X3646967Y-14760603D01*
X3646967Y-14760603D02*
X3646967Y-14751079D01*
X3646967Y-14751079D02*
X3656491Y-14732031D01*
X3656491Y-14732031D02*
X3666015Y-14722508D01*
X3666015Y-14722508D02*
X3685062Y-14712984D01*
X3685062Y-14712984D02*
X3723158Y-14712984D01*
X3723158Y-14712984D02*
X3742205Y-14722508D01*
X3742205Y-14722508D02*
X3751729Y-14732031D01*
X3751729Y-14732031D02*
X3761253Y-14751079D01*
X3761253Y-14751079D02*
X3761253Y-14760603D01*
X3761253Y-14760603D02*
X3751729Y-14779650D01*
X3751729Y-14779650D02*
X3742205Y-14789174D01*
X3742205Y-14789174D02*
X3723158Y-14798698D01*
X3723158Y-14798698D02*
X3685062Y-14798698D01*
X3685062Y-14798698D02*
X3666015Y-14808222D01*
X3666015Y-14808222D02*
X3656491Y-14817746D01*
X3656491Y-14817746D02*
X3646967Y-14836793D01*
X3646967Y-14836793D02*
X3646967Y-14874888D01*
X3646967Y-14874888D02*
X3656491Y-14893936D01*
X3656491Y-14893936D02*
X3666015Y-14903460D01*
X3666015Y-14903460D02*
X3685062Y-14912984D01*
X3685062Y-14912984D02*
X3723158Y-14912984D01*
X3723158Y-14912984D02*
X3742205Y-14903460D01*
X3742205Y-14903460D02*
X3751729Y-14893936D01*
X3751729Y-14893936D02*
X3761253Y-14874888D01*
X3761253Y-14874888D02*
X3761253Y-14836793D01*
X3761253Y-14836793D02*
X3751729Y-14817746D01*
X3751729Y-14817746D02*
X3742205Y-14808222D01*
X3742205Y-14808222D02*
X3723158Y-14798698D01*
X3875539Y-14798698D02*
X3856491Y-14789174D01*
X3856491Y-14789174D02*
X3846967Y-14779650D01*
X3846967Y-14779650D02*
X3837443Y-14760603D01*
X3837443Y-14760603D02*
X3837443Y-14751079D01*
X3837443Y-14751079D02*
X3846967Y-14732031D01*
X3846967Y-14732031D02*
X3856491Y-14722508D01*
X3856491Y-14722508D02*
X3875539Y-14712984D01*
X3875539Y-14712984D02*
X3913634Y-14712984D01*
X3913634Y-14712984D02*
X3932682Y-14722508D01*
X3932682Y-14722508D02*
X3942205Y-14732031D01*
X3942205Y-14732031D02*
X3951729Y-14751079D01*
X3951729Y-14751079D02*
X3951729Y-14760603D01*
X3951729Y-14760603D02*
X3942205Y-14779650D01*
X3942205Y-14779650D02*
X3932682Y-14789174D01*
X3932682Y-14789174D02*
X3913634Y-14798698D01*
X3913634Y-14798698D02*
X3875539Y-14798698D01*
X3875539Y-14798698D02*
X3856491Y-14808222D01*
X3856491Y-14808222D02*
X3846967Y-14817746D01*
X3846967Y-14817746D02*
X3837443Y-14836793D01*
X3837443Y-14836793D02*
X3837443Y-14874888D01*
X3837443Y-14874888D02*
X3846967Y-14893936D01*
X3846967Y-14893936D02*
X3856491Y-14903460D01*
X3856491Y-14903460D02*
X3875539Y-14912984D01*
X3875539Y-14912984D02*
X3913634Y-14912984D01*
X3913634Y-14912984D02*
X3932682Y-14903460D01*
X3932682Y-14903460D02*
X3942205Y-14893936D01*
X3942205Y-14893936D02*
X3951729Y-14874888D01*
X3951729Y-14874888D02*
X3951729Y-14836793D01*
X3951729Y-14836793D02*
X3942205Y-14817746D01*
X3942205Y-14817746D02*
X3932682Y-14808222D01*
X3932682Y-14808222D02*
X3913634Y-14798698D01*
X4046967Y-14912984D02*
X4085062Y-14912984D01*
X4085062Y-14912984D02*
X4104110Y-14903460D01*
X4104110Y-14903460D02*
X4113634Y-14893936D01*
X4113634Y-14893936D02*
X4132682Y-14865365D01*
X4132682Y-14865365D02*
X4142205Y-14827269D01*
X4142205Y-14827269D02*
X4142205Y-14751079D01*
X4142205Y-14751079D02*
X4132682Y-14732031D01*
X4132682Y-14732031D02*
X4123158Y-14722508D01*
X4123158Y-14722508D02*
X4104110Y-14712984D01*
X4104110Y-14712984D02*
X4066015Y-14712984D01*
X4066015Y-14712984D02*
X4046967Y-14722508D01*
X4046967Y-14722508D02*
X4037443Y-14732031D01*
X4037443Y-14732031D02*
X4027920Y-14751079D01*
X4027920Y-14751079D02*
X4027920Y-14798698D01*
X4027920Y-14798698D02*
X4037443Y-14817746D01*
X4037443Y-14817746D02*
X4046967Y-14827269D01*
X4046967Y-14827269D02*
X4066015Y-14836793D01*
X4066015Y-14836793D02*
X4104110Y-14836793D01*
X4104110Y-14836793D02*
X4123158Y-14827269D01*
X4123158Y-14827269D02*
X4132682Y-14817746D01*
X4132682Y-14817746D02*
X4142205Y-14798698D01*
X4227920Y-14912984D02*
X4227920Y-14779650D01*
X4227920Y-14798698D02*
X4237444Y-14789174D01*
X4237444Y-14789174D02*
X4256491Y-14779650D01*
X4256491Y-14779650D02*
X4285063Y-14779650D01*
X4285063Y-14779650D02*
X4304110Y-14789174D01*
X4304110Y-14789174D02*
X4313634Y-14808222D01*
X4313634Y-14808222D02*
X4313634Y-14912984D01*
X4313634Y-14808222D02*
X4323158Y-14789174D01*
X4323158Y-14789174D02*
X4342205Y-14779650D01*
X4342205Y-14779650D02*
X4370777Y-14779650D01*
X4370777Y-14779650D02*
X4389825Y-14789174D01*
X4389825Y-14789174D02*
X4399348Y-14808222D01*
X4399348Y-14808222D02*
X4399348Y-14912984D01*
X4494586Y-14912984D02*
X4494586Y-14779650D01*
X4494586Y-14798698D02*
X4504110Y-14789174D01*
X4504110Y-14789174D02*
X4523158Y-14779650D01*
X4523158Y-14779650D02*
X4551729Y-14779650D01*
X4551729Y-14779650D02*
X4570777Y-14789174D01*
X4570777Y-14789174D02*
X4580301Y-14808222D01*
X4580301Y-14808222D02*
X4580301Y-14912984D01*
X4580301Y-14808222D02*
X4589825Y-14789174D01*
X4589825Y-14789174D02*
X4608872Y-14779650D01*
X4608872Y-14779650D02*
X4637444Y-14779650D01*
X4637444Y-14779650D02*
X4656491Y-14789174D01*
X4656491Y-14789174D02*
X4666015Y-14808222D01*
X4666015Y-14808222D02*
X4666015Y-14912984D01*
X5056491Y-14703460D02*
X4885063Y-14960603D01*
X5313634Y-14712984D02*
X5332682Y-14712984D01*
X5332682Y-14712984D02*
X5351729Y-14722508D01*
X5351729Y-14722508D02*
X5361253Y-14732031D01*
X5361253Y-14732031D02*
X5370777Y-14751079D01*
X5370777Y-14751079D02*
X5380301Y-14789174D01*
X5380301Y-14789174D02*
X5380301Y-14836793D01*
X5380301Y-14836793D02*
X5370777Y-14874888D01*
X5370777Y-14874888D02*
X5361253Y-14893936D01*
X5361253Y-14893936D02*
X5351729Y-14903460D01*
X5351729Y-14903460D02*
X5332682Y-14912984D01*
X5332682Y-14912984D02*
X5313634Y-14912984D01*
X5313634Y-14912984D02*
X5294587Y-14903460D01*
X5294587Y-14903460D02*
X5285063Y-14893936D01*
X5285063Y-14893936D02*
X5275539Y-14874888D01*
X5275539Y-14874888D02*
X5266015Y-14836793D01*
X5266015Y-14836793D02*
X5266015Y-14789174D01*
X5266015Y-14789174D02*
X5275539Y-14751079D01*
X5275539Y-14751079D02*
X5285063Y-14732031D01*
X5285063Y-14732031D02*
X5294587Y-14722508D01*
X5294587Y-14722508D02*
X5313634Y-14712984D01*
X5466015Y-14893936D02*
X5475539Y-14903460D01*
X5475539Y-14903460D02*
X5466015Y-14912984D01*
X5466015Y-14912984D02*
X5456491Y-14903460D01*
X5456491Y-14903460D02*
X5466015Y-14893936D01*
X5466015Y-14893936D02*
X5466015Y-14912984D01*
X5599348Y-14712984D02*
X5618396Y-14712984D01*
X5618396Y-14712984D02*
X5637444Y-14722508D01*
X5637444Y-14722508D02*
X5646967Y-14732031D01*
X5646967Y-14732031D02*
X5656491Y-14751079D01*
X5656491Y-14751079D02*
X5666015Y-14789174D01*
X5666015Y-14789174D02*
X5666015Y-14836793D01*
X5666015Y-14836793D02*
X5656491Y-14874888D01*
X5656491Y-14874888D02*
X5646967Y-14893936D01*
X5646967Y-14893936D02*
X5637444Y-14903460D01*
X5637444Y-14903460D02*
X5618396Y-14912984D01*
X5618396Y-14912984D02*
X5599348Y-14912984D01*
X5599348Y-14912984D02*
X5580301Y-14903460D01*
X5580301Y-14903460D02*
X5570777Y-14893936D01*
X5570777Y-14893936D02*
X5561253Y-14874888D01*
X5561253Y-14874888D02*
X5551729Y-14836793D01*
X5551729Y-14836793D02*
X5551729Y-14789174D01*
X5551729Y-14789174D02*
X5561253Y-14751079D01*
X5561253Y-14751079D02*
X5570777Y-14732031D01*
X5570777Y-14732031D02*
X5580301Y-14722508D01*
X5580301Y-14722508D02*
X5599348Y-14712984D01*
X5732682Y-14712984D02*
X5856491Y-14712984D01*
X5856491Y-14712984D02*
X5789825Y-14789174D01*
X5789825Y-14789174D02*
X5818396Y-14789174D01*
X5818396Y-14789174D02*
X5837444Y-14798698D01*
X5837444Y-14798698D02*
X5846967Y-14808222D01*
X5846967Y-14808222D02*
X5856491Y-14827269D01*
X5856491Y-14827269D02*
X5856491Y-14874888D01*
X5856491Y-14874888D02*
X5846967Y-14893936D01*
X5846967Y-14893936D02*
X5837444Y-14903460D01*
X5837444Y-14903460D02*
X5818396Y-14912984D01*
X5818396Y-14912984D02*
X5761253Y-14912984D01*
X5761253Y-14912984D02*
X5742206Y-14903460D01*
X5742206Y-14903460D02*
X5732682Y-14893936D01*
X6037444Y-14712984D02*
X5942206Y-14712984D01*
X5942206Y-14712984D02*
X5932682Y-14808222D01*
X5932682Y-14808222D02*
X5942206Y-14798698D01*
X5942206Y-14798698D02*
X5961253Y-14789174D01*
X5961253Y-14789174D02*
X6008872Y-14789174D01*
X6008872Y-14789174D02*
X6027920Y-14798698D01*
X6027920Y-14798698D02*
X6037444Y-14808222D01*
X6037444Y-14808222D02*
X6046967Y-14827269D01*
X6046967Y-14827269D02*
X6046967Y-14874888D01*
X6046967Y-14874888D02*
X6037444Y-14893936D01*
X6037444Y-14893936D02*
X6027920Y-14903460D01*
X6027920Y-14903460D02*
X6008872Y-14912984D01*
X6008872Y-14912984D02*
X5961253Y-14912984D01*
X5961253Y-14912984D02*
X5942206Y-14903460D01*
X5942206Y-14903460D02*
X5932682Y-14893936D01*
X6170777Y-14712984D02*
X6189825Y-14712984D01*
X6189825Y-14712984D02*
X6208872Y-14722508D01*
X6208872Y-14722508D02*
X6218396Y-14732031D01*
X6218396Y-14732031D02*
X6227920Y-14751079D01*
X6227920Y-14751079D02*
X6237444Y-14789174D01*
X6237444Y-14789174D02*
X6237444Y-14836793D01*
X6237444Y-14836793D02*
X6227920Y-14874888D01*
X6227920Y-14874888D02*
X6218396Y-14893936D01*
X6218396Y-14893936D02*
X6208872Y-14903460D01*
X6208872Y-14903460D02*
X6189825Y-14912984D01*
X6189825Y-14912984D02*
X6170777Y-14912984D01*
X6170777Y-14912984D02*
X6151729Y-14903460D01*
X6151729Y-14903460D02*
X6142206Y-14893936D01*
X6142206Y-14893936D02*
X6132682Y-14874888D01*
X6132682Y-14874888D02*
X6123158Y-14836793D01*
X6123158Y-14836793D02*
X6123158Y-14789174D01*
X6123158Y-14789174D02*
X6132682Y-14751079D01*
X6132682Y-14751079D02*
X6142206Y-14732031D01*
X6142206Y-14732031D02*
X6151729Y-14722508D01*
X6151729Y-14722508D02*
X6170777Y-14712984D01*
X6313634Y-14712984D02*
X6313634Y-14751079D01*
X6389825Y-14712984D02*
X6389825Y-14751079D01*
X6685063Y-14989174D02*
X6675539Y-14979650D01*
X6675539Y-14979650D02*
X6656491Y-14951079D01*
X6656491Y-14951079D02*
X6646968Y-14932031D01*
X6646968Y-14932031D02*
X6637444Y-14903460D01*
X6637444Y-14903460D02*
X6627920Y-14855841D01*
X6627920Y-14855841D02*
X6627920Y-14817746D01*
X6627920Y-14817746D02*
X6637444Y-14770127D01*
X6637444Y-14770127D02*
X6646968Y-14741555D01*
X6646968Y-14741555D02*
X6656491Y-14722508D01*
X6656491Y-14722508D02*
X6675539Y-14693936D01*
X6675539Y-14693936D02*
X6685063Y-14684412D01*
X6751729Y-14732031D02*
X6761253Y-14722508D01*
X6761253Y-14722508D02*
X6780301Y-14712984D01*
X6780301Y-14712984D02*
X6827920Y-14712984D01*
X6827920Y-14712984D02*
X6846968Y-14722508D01*
X6846968Y-14722508D02*
X6856491Y-14732031D01*
X6856491Y-14732031D02*
X6866015Y-14751079D01*
X6866015Y-14751079D02*
X6866015Y-14770127D01*
X6866015Y-14770127D02*
X6856491Y-14798698D01*
X6856491Y-14798698D02*
X6742206Y-14912984D01*
X6742206Y-14912984D02*
X6866015Y-14912984D01*
X7104110Y-14912984D02*
X7104110Y-14712984D01*
X7189825Y-14912984D02*
X7189825Y-14808222D01*
X7189825Y-14808222D02*
X7180301Y-14789174D01*
X7180301Y-14789174D02*
X7161253Y-14779650D01*
X7161253Y-14779650D02*
X7132682Y-14779650D01*
X7132682Y-14779650D02*
X7113634Y-14789174D01*
X7113634Y-14789174D02*
X7104110Y-14798698D01*
X7313634Y-14912984D02*
X7294587Y-14903460D01*
X7294587Y-14903460D02*
X7285063Y-14893936D01*
X7285063Y-14893936D02*
X7275539Y-14874888D01*
X7275539Y-14874888D02*
X7275539Y-14817746D01*
X7275539Y-14817746D02*
X7285063Y-14798698D01*
X7285063Y-14798698D02*
X7294587Y-14789174D01*
X7294587Y-14789174D02*
X7313634Y-14779650D01*
X7313634Y-14779650D02*
X7342206Y-14779650D01*
X7342206Y-14779650D02*
X7361253Y-14789174D01*
X7361253Y-14789174D02*
X7370777Y-14798698D01*
X7370777Y-14798698D02*
X7380301Y-14817746D01*
X7380301Y-14817746D02*
X7380301Y-14874888D01*
X7380301Y-14874888D02*
X7370777Y-14893936D01*
X7370777Y-14893936D02*
X7361253Y-14903460D01*
X7361253Y-14903460D02*
X7342206Y-14912984D01*
X7342206Y-14912984D02*
X7313634Y-14912984D01*
X7494587Y-14912984D02*
X7475539Y-14903460D01*
X7475539Y-14903460D02*
X7466015Y-14884412D01*
X7466015Y-14884412D02*
X7466015Y-14712984D01*
X7646968Y-14903460D02*
X7627920Y-14912984D01*
X7627920Y-14912984D02*
X7589825Y-14912984D01*
X7589825Y-14912984D02*
X7570777Y-14903460D01*
X7570777Y-14903460D02*
X7561253Y-14884412D01*
X7561253Y-14884412D02*
X7561253Y-14808222D01*
X7561253Y-14808222D02*
X7570777Y-14789174D01*
X7570777Y-14789174D02*
X7589825Y-14779650D01*
X7589825Y-14779650D02*
X7627920Y-14779650D01*
X7627920Y-14779650D02*
X7646968Y-14789174D01*
X7646968Y-14789174D02*
X7656491Y-14808222D01*
X7656491Y-14808222D02*
X7656491Y-14827269D01*
X7656491Y-14827269D02*
X7561253Y-14846317D01*
X7732682Y-14903460D02*
X7751730Y-14912984D01*
X7751730Y-14912984D02*
X7789825Y-14912984D01*
X7789825Y-14912984D02*
X7808872Y-14903460D01*
X7808872Y-14903460D02*
X7818396Y-14884412D01*
X7818396Y-14884412D02*
X7818396Y-14874888D01*
X7818396Y-14874888D02*
X7808872Y-14855841D01*
X7808872Y-14855841D02*
X7789825Y-14846317D01*
X7789825Y-14846317D02*
X7761253Y-14846317D01*
X7761253Y-14846317D02*
X7742206Y-14836793D01*
X7742206Y-14836793D02*
X7732682Y-14817746D01*
X7732682Y-14817746D02*
X7732682Y-14808222D01*
X7732682Y-14808222D02*
X7742206Y-14789174D01*
X7742206Y-14789174D02*
X7761253Y-14779650D01*
X7761253Y-14779650D02*
X7789825Y-14779650D01*
X7789825Y-14779650D02*
X7808872Y-14789174D01*
X7885063Y-14989174D02*
X7894587Y-14979650D01*
X7894587Y-14979650D02*
X7913634Y-14951079D01*
X7913634Y-14951079D02*
X7923158Y-14932031D01*
X7923158Y-14932031D02*
X7932682Y-14903460D01*
X7932682Y-14903460D02*
X7942206Y-14855841D01*
X7942206Y-14855841D02*
X7942206Y-14817746D01*
X7942206Y-14817746D02*
X7932682Y-14770127D01*
X7932682Y-14770127D02*
X7923158Y-14741555D01*
X7923158Y-14741555D02*
X7913634Y-14722508D01*
X7913634Y-14722508D02*
X7894587Y-14693936D01*
X7894587Y-14693936D02*
X7885063Y-14684412D01*
X8246968Y-14989174D02*
X8237444Y-14979650D01*
X8237444Y-14979650D02*
X8218396Y-14951079D01*
X8218396Y-14951079D02*
X8208872Y-14932031D01*
X8208872Y-14932031D02*
X8199349Y-14903460D01*
X8199349Y-14903460D02*
X8189825Y-14855841D01*
X8189825Y-14855841D02*
X8189825Y-14817746D01*
X8189825Y-14817746D02*
X8199349Y-14770127D01*
X8199349Y-14770127D02*
X8208872Y-14741555D01*
X8208872Y-14741555D02*
X8218396Y-14722508D01*
X8218396Y-14722508D02*
X8237444Y-14693936D01*
X8237444Y-14693936D02*
X8246968Y-14684412D01*
X8323158Y-14779650D02*
X8323158Y-14912984D01*
X8323158Y-14798698D02*
X8332682Y-14789174D01*
X8332682Y-14789174D02*
X8351730Y-14779650D01*
X8351730Y-14779650D02*
X8380301Y-14779650D01*
X8380301Y-14779650D02*
X8399349Y-14789174D01*
X8399349Y-14789174D02*
X8408873Y-14808222D01*
X8408873Y-14808222D02*
X8408873Y-14912984D01*
X8532682Y-14912984D02*
X8513634Y-14903460D01*
X8513634Y-14903460D02*
X8504111Y-14893936D01*
X8504111Y-14893936D02*
X8494587Y-14874888D01*
X8494587Y-14874888D02*
X8494587Y-14817746D01*
X8494587Y-14817746D02*
X8504111Y-14798698D01*
X8504111Y-14798698D02*
X8513634Y-14789174D01*
X8513634Y-14789174D02*
X8532682Y-14779650D01*
X8532682Y-14779650D02*
X8561254Y-14779650D01*
X8561254Y-14779650D02*
X8580301Y-14789174D01*
X8580301Y-14789174D02*
X8589825Y-14798698D01*
X8589825Y-14798698D02*
X8599349Y-14817746D01*
X8599349Y-14817746D02*
X8599349Y-14874888D01*
X8599349Y-14874888D02*
X8589825Y-14893936D01*
X8589825Y-14893936D02*
X8580301Y-14903460D01*
X8580301Y-14903460D02*
X8561254Y-14912984D01*
X8561254Y-14912984D02*
X8532682Y-14912984D01*
X8656492Y-14779650D02*
X8732682Y-14779650D01*
X8685063Y-14712984D02*
X8685063Y-14884412D01*
X8685063Y-14884412D02*
X8694587Y-14903460D01*
X8694587Y-14903460D02*
X8713634Y-14912984D01*
X8713634Y-14912984D02*
X8732682Y-14912984D01*
X8951730Y-14779650D02*
X8951730Y-14979650D01*
X8951730Y-14789174D02*
X8970777Y-14779650D01*
X8970777Y-14779650D02*
X9008873Y-14779650D01*
X9008873Y-14779650D02*
X9027920Y-14789174D01*
X9027920Y-14789174D02*
X9037444Y-14798698D01*
X9037444Y-14798698D02*
X9046968Y-14817746D01*
X9046968Y-14817746D02*
X9046968Y-14874888D01*
X9046968Y-14874888D02*
X9037444Y-14893936D01*
X9037444Y-14893936D02*
X9027920Y-14903460D01*
X9027920Y-14903460D02*
X9008873Y-14912984D01*
X9008873Y-14912984D02*
X8970777Y-14912984D01*
X8970777Y-14912984D02*
X8951730Y-14903460D01*
X9161254Y-14912984D02*
X9142206Y-14903460D01*
X9142206Y-14903460D02*
X9132682Y-14884412D01*
X9132682Y-14884412D02*
X9132682Y-14712984D01*
X9323158Y-14912984D02*
X9323158Y-14808222D01*
X9323158Y-14808222D02*
X9313635Y-14789174D01*
X9313635Y-14789174D02*
X9294587Y-14779650D01*
X9294587Y-14779650D02*
X9256492Y-14779650D01*
X9256492Y-14779650D02*
X9237444Y-14789174D01*
X9323158Y-14903460D02*
X9304111Y-14912984D01*
X9304111Y-14912984D02*
X9256492Y-14912984D01*
X9256492Y-14912984D02*
X9237444Y-14903460D01*
X9237444Y-14903460D02*
X9227920Y-14884412D01*
X9227920Y-14884412D02*
X9227920Y-14865365D01*
X9227920Y-14865365D02*
X9237444Y-14846317D01*
X9237444Y-14846317D02*
X9256492Y-14836793D01*
X9256492Y-14836793D02*
X9304111Y-14836793D01*
X9304111Y-14836793D02*
X9323158Y-14827269D01*
X9389825Y-14779650D02*
X9466015Y-14779650D01*
X9418396Y-14712984D02*
X9418396Y-14884412D01*
X9418396Y-14884412D02*
X9427920Y-14903460D01*
X9427920Y-14903460D02*
X9446968Y-14912984D01*
X9446968Y-14912984D02*
X9466015Y-14912984D01*
X9608873Y-14903460D02*
X9589825Y-14912984D01*
X9589825Y-14912984D02*
X9551730Y-14912984D01*
X9551730Y-14912984D02*
X9532682Y-14903460D01*
X9532682Y-14903460D02*
X9523158Y-14884412D01*
X9523158Y-14884412D02*
X9523158Y-14808222D01*
X9523158Y-14808222D02*
X9532682Y-14789174D01*
X9532682Y-14789174D02*
X9551730Y-14779650D01*
X9551730Y-14779650D02*
X9589825Y-14779650D01*
X9589825Y-14779650D02*
X9608873Y-14789174D01*
X9608873Y-14789174D02*
X9618396Y-14808222D01*
X9618396Y-14808222D02*
X9618396Y-14827269D01*
X9618396Y-14827269D02*
X9523158Y-14846317D01*
X9789825Y-14912984D02*
X9789825Y-14712984D01*
X9789825Y-14903460D02*
X9770777Y-14912984D01*
X9770777Y-14912984D02*
X9732682Y-14912984D01*
X9732682Y-14912984D02*
X9713635Y-14903460D01*
X9713635Y-14903460D02*
X9704111Y-14893936D01*
X9704111Y-14893936D02*
X9694587Y-14874888D01*
X9694587Y-14874888D02*
X9694587Y-14817746D01*
X9694587Y-14817746D02*
X9704111Y-14798698D01*
X9704111Y-14798698D02*
X9713635Y-14789174D01*
X9713635Y-14789174D02*
X9732682Y-14779650D01*
X9732682Y-14779650D02*
X9770777Y-14779650D01*
X9770777Y-14779650D02*
X9789825Y-14789174D01*
X9866016Y-14989174D02*
X9875539Y-14979650D01*
X9875539Y-14979650D02*
X9894587Y-14951079D01*
X9894587Y-14951079D02*
X9904111Y-14932031D01*
X9904111Y-14932031D02*
X9913635Y-14903460D01*
X9913635Y-14903460D02*
X9923158Y-14855841D01*
X9923158Y-14855841D02*
X9923158Y-14817746D01*
X9923158Y-14817746D02*
X9913635Y-14770127D01*
X9913635Y-14770127D02*
X9904111Y-14741555D01*
X9904111Y-14741555D02*
X9894587Y-14722508D01*
X9894587Y-14722508D02*
X9875539Y-14693936D01*
X9875539Y-14693936D02*
X9866016Y-14684412D01*
M02*
