M48
; DRILL file {KiCad 7.0.9} date Mon May  6 23:46:20 2024
; FORMAT={-:-/ absolute / inch / decimal}
; #@! TF.CreationDate,2024-05-06T23:46:20-05:00
; #@! TF.GenerationSoftware,Kicad,Pcbnew,7.0.9
; #@! TF.FileFunction,Plated,1,2,PTH
FMAT,2
INCH
; #@! TA.AperFunction,Plated,PTH,ViaDrill
T1C0.0157
; #@! TA.AperFunction,Plated,PTH,ComponentDrill
T2C0.0236
; #@! TA.AperFunction,Plated,PTH,ComponentDrill
T3C0.0299
; #@! TA.AperFunction,Plated,PTH,ComponentDrill
T4C0.0300
; #@! TA.AperFunction,Plated,PTH,ComponentDrill
T5C0.0315
; #@! TA.AperFunction,Plated,PTH,ComponentDrill
T6C0.0350
; #@! TA.AperFunction,Plated,PTH,ComponentDrill
T7C0.0354
; #@! TA.AperFunction,Plated,PTH,ComponentDrill
T8C0.0390
; #@! TA.AperFunction,Plated,PTH,ComponentDrill
T9C0.0433
; #@! TA.AperFunction,Plated,PTH,ComponentDrill
T10C0.0512
; #@! TA.AperFunction,Plated,PTH,ComponentDrill
T11C0.0550
%
G90
G05
T1
X1.622Y-3.5394
X1.9252Y-4.8504
X1.937Y-3.4213
X2.0039Y-4.7756
X2.0079Y-4.6535
X2.1535Y-3.4213
X2.2303Y-5.0695
X2.4021Y-4.5551
X2.4213Y-3.2874
X2.4429Y-3.5433
X2.4449Y-3.4449
X2.5177Y-3.5433
X2.5709Y-3.6535
X2.5738Y-3.9734
X2.5748Y-3.7008
X2.5787Y-4.1693
X2.6191Y-4.2427
X2.6417Y-4.4213
X2.6535Y-3.3376
X2.6535Y-3.5876
X2.7362Y-3.7008
X2.7795Y-3.8898
X2.8228Y-3.8504
X2.874Y-3.8189
X2.9252Y-3.8474
X2.939Y-3.5364
X3.0118Y-4.1063
X3.0433Y-3.8898
X3.1339Y-3.4173
X3.1354Y-4.5083
X3.1378Y-4.3976
X3.1811Y-4.0866
X3.185Y-3.7756
X3.189Y-3.3701
X3.1929Y-4.3858
X3.1969Y-3.8937
X3.2311Y-4.4591
X3.2441Y-3.8937
X3.252Y-3.7677
X3.2564Y-3.4217
X3.3031Y-4.0945
X3.3425Y-3.2874
X3.3504Y-4.7841
X3.3504Y-4.9809
X3.5753Y-4.9809
X3.7677Y-5.0709
X3.9094Y-5.3465
X4.0591Y-3.2992
X4.1304Y-3.2992
X4.1496Y-4.8626
X4.5787Y-4.4134
T3
X4.3925Y-4.7112
X4.4925Y-4.7112
X4.5925Y-4.7112
T4
X4.3094Y-3.4488
X4.4094Y-3.4488
X4.5094Y-3.4488
T5
X1.3376Y-3.9439
X1.3376Y-4.0226
X1.3376Y-4.1014
X1.3376Y-4.1801
X3.5827Y-3.3071
X3.5827Y-3.4567
X3.6614Y-3.3071
X3.6614Y-3.4567
X3.7402Y-3.3071
X3.7402Y-3.4567
X3.8189Y-3.3071
X3.8189Y-3.4567
T6
X1.8685Y-3.6551
X1.9685Y-3.6551
X2.0685Y-3.6551
X2.3685Y-3.9551
X2.3685Y-4.0551
X2.3685Y-4.1551
X3.9157Y-3.6551
X4.0157Y-3.6551
X4.1157Y-3.6551
X4.4157Y-3.9551
X4.4157Y-4.0551
X4.4157Y-4.1551
T7
X1.8435Y-4.3551
X1.8435Y-4.5551
X2.0935Y-4.3551
X2.0935Y-4.5551
X3.8907Y-4.3551
X3.8907Y-4.5551
X4.1407Y-4.3551
X4.1407Y-4.5551
T8
X1.4911Y-3.2964
X1.6683Y-3.2964
X4.3199Y-3.2662
X4.497Y-3.2662
T9
X1.8012Y-4.9902
X1.8012Y-5.1673
X2.0571Y-4.9902
X2.0571Y-5.1673
X3.9665Y-4.9809
X3.9665Y-5.1581
X4.2224Y-4.9809
X4.2224Y-5.1581
T10
X1.4419Y-3.3944
X1.7179Y-3.3944
X4.2707Y-3.3643
X4.5467Y-3.3643
T11
X1.6685Y-3.7926
X1.6685Y-4.3176
X2.2685Y-3.7926
X2.2685Y-4.3176
X3.7157Y-3.7926
X3.7157Y-4.3176
X4.3157Y-3.7926
X4.3157Y-4.3176
T2
G00X1.8732Y-3.2815
M15
G01X1.8732Y-3.2579
M16
G05
G00X1.8732Y-3.4311
M15
G01X1.8732Y-3.4075
M16
G05
G00X2.2134Y-3.2815
M15
G01X2.2134Y-3.2579
M16
G05
G00X2.2134Y-3.4311
M15
G01X2.2134Y-3.4075
M16
G05
T0
M30
