%TF.GenerationSoftware,KiCad,Pcbnew,7.0.9*%
%TF.CreationDate,2024-05-06T23:46:21-05:00*%
%TF.ProjectId,CONTROL WIFI ESP32 S3 V4.0,434f4e54-524f-44c2-9057-494649204553,rev?*%
%TF.SameCoordinates,Original*%
%TF.FileFunction,Drillmap*%
%TF.FilePolarity,Positive*%
%FSLAX45Y45*%
G04 Gerber Fmt 4.5, Leading zero omitted, Abs format (unit mm)*
G04 Created by KiCad (PCBNEW 7.0.9) date 2024-05-06 23:46:21*
%MOMM*%
%LPD*%
G01*
G04 APERTURE LIST*
%ADD10C,0.100000*%
%ADD11C,0.200000*%
%ADD12C,0.110000*%
%ADD13C,0.130000*%
%ADD14C,0.139700*%
G04 APERTURE END LIST*
D10*
X8615000Y-13876500D02*
X8615000Y-13676500D01*
X11915000Y-10676500D02*
G75*
G03*
X11915000Y-10676500I-100000J0D01*
G01*
X6615000Y-13676500D02*
X8615000Y-13676500D01*
X12115000Y-12176500D02*
X12115000Y-8576500D01*
X10115000Y-14176500D02*
G75*
G03*
X12115000Y-12176500I0J2000000D01*
G01*
X3515000Y-8176500D02*
G75*
G03*
X3115000Y-8576500I0J-400000D01*
G01*
X6615000Y-13876500D02*
X8615000Y-13876500D01*
X12115000Y-8576500D02*
G75*
G03*
X11715000Y-8176500I-400000J0D01*
G01*
X3115000Y-12176500D02*
G75*
G03*
X5115000Y-14176500I2000000J0D01*
G01*
X3515000Y-8176500D02*
X11715000Y-8176500D01*
X11415000Y-9276500D02*
G75*
G03*
X11415000Y-9276500I-100000J0D01*
G01*
X6615000Y-13676500D02*
X6615000Y-13876500D01*
X3615000Y-9376500D02*
G75*
G03*
X3615000Y-9376500I-100000J0D01*
G01*
X3615000Y-11676500D02*
G75*
G03*
X3615000Y-11676500I-100000J0D01*
G01*
X3115000Y-8576500D02*
X3115000Y-12176500D01*
X5115000Y-14176500D02*
X10115000Y-14176500D01*
D11*
D10*
X4100000Y-8970000D02*
X4140000Y-9010000D01*
X4140000Y-8970000D02*
X4100000Y-9010000D01*
X4870000Y-12300000D02*
X4910000Y-12340000D01*
X4910000Y-12300000D02*
X4870000Y-12340000D01*
X4900000Y-8670000D02*
X4940000Y-8710000D01*
X4940000Y-8670000D02*
X4900000Y-8710000D01*
X5070000Y-12110000D02*
X5110000Y-12150000D01*
X5110000Y-12110000D02*
X5070000Y-12150000D01*
X5080000Y-11800000D02*
X5120000Y-11840000D01*
X5120000Y-11800000D02*
X5080000Y-11840000D01*
X5450000Y-8670000D02*
X5490000Y-8710000D01*
X5490000Y-8670000D02*
X5450000Y-8710000D01*
X5645000Y-12856500D02*
X5685000Y-12896500D01*
X5685000Y-12856500D02*
X5645000Y-12896500D01*
X6081250Y-11550000D02*
X6121250Y-11590000D01*
X6121250Y-11550000D02*
X6081250Y-11590000D01*
X6130000Y-8330000D02*
X6170000Y-8370000D01*
X6170000Y-8330000D02*
X6130000Y-8370000D01*
X6185000Y-8980000D02*
X6225000Y-9020000D01*
X6225000Y-8980000D02*
X6185000Y-9020000D01*
X6190000Y-8730000D02*
X6230000Y-8770000D01*
X6230000Y-8730000D02*
X6190000Y-8770000D01*
X6375000Y-8980000D02*
X6415000Y-9020000D01*
X6415000Y-8980000D02*
X6375000Y-9020000D01*
X6510000Y-9260000D02*
X6550000Y-9300000D01*
X6550000Y-9260000D02*
X6510000Y-9300000D01*
X6517500Y-10072500D02*
X6557500Y-10112500D01*
X6557500Y-10072500D02*
X6517500Y-10112500D01*
X6520000Y-9380000D02*
X6560000Y-9420000D01*
X6560000Y-9380000D02*
X6520000Y-9420000D01*
X6530000Y-10570000D02*
X6570000Y-10610000D01*
X6570000Y-10570000D02*
X6530000Y-10610000D01*
X6632500Y-10756500D02*
X6672500Y-10796500D01*
X6672500Y-10756500D02*
X6632500Y-10796500D01*
X6690000Y-11210000D02*
X6730000Y-11250000D01*
X6730000Y-11210000D02*
X6690000Y-11250000D01*
X6720000Y-8457500D02*
X6760000Y-8497500D01*
X6760000Y-8457500D02*
X6720000Y-8497500D01*
X6720000Y-9092500D02*
X6760000Y-9132500D01*
X6760000Y-9092500D02*
X6720000Y-9132500D01*
X6930000Y-9380000D02*
X6970000Y-9420000D01*
X6970000Y-9380000D02*
X6930000Y-9420000D01*
X7040000Y-9860000D02*
X7080000Y-9900000D01*
X7080000Y-9860000D02*
X7040000Y-9900000D01*
X7150000Y-9760000D02*
X7190000Y-9800000D01*
X7190000Y-9760000D02*
X7150000Y-9800000D01*
X7280000Y-9680000D02*
X7320000Y-9720000D01*
X7320000Y-9680000D02*
X7280000Y-9720000D01*
X7410000Y-9752450D02*
X7450000Y-9792450D01*
X7450000Y-9752450D02*
X7410000Y-9792450D01*
X7445000Y-8962500D02*
X7485000Y-9002500D01*
X7485000Y-8962500D02*
X7445000Y-9002500D01*
X7630000Y-10410000D02*
X7670000Y-10450000D01*
X7670000Y-10410000D02*
X7630000Y-10450000D01*
X7710000Y-9860000D02*
X7750000Y-9900000D01*
X7750000Y-9860000D02*
X7710000Y-9900000D01*
X7940000Y-8660000D02*
X7980000Y-8700000D01*
X7980000Y-8660000D02*
X7940000Y-8700000D01*
X7944000Y-11431000D02*
X7984000Y-11471000D01*
X7984000Y-11431000D02*
X7944000Y-11471000D01*
X7950000Y-11150000D02*
X7990000Y-11190000D01*
X7990000Y-11150000D02*
X7950000Y-11190000D01*
X8060000Y-10360000D02*
X8100000Y-10400000D01*
X8100000Y-10360000D02*
X8060000Y-10400000D01*
X8070000Y-9570000D02*
X8110000Y-9610000D01*
X8110000Y-9570000D02*
X8070000Y-9610000D01*
X8080000Y-8540000D02*
X8120000Y-8580000D01*
X8120000Y-8540000D02*
X8080000Y-8580000D01*
X8090000Y-11120000D02*
X8130000Y-11160000D01*
X8130000Y-11120000D02*
X8090000Y-11160000D01*
X8100000Y-9870000D02*
X8140000Y-9910000D01*
X8140000Y-9870000D02*
X8100000Y-9910000D01*
X8187000Y-11306000D02*
X8227000Y-11346000D01*
X8227000Y-11306000D02*
X8187000Y-11346000D01*
X8220000Y-9870000D02*
X8260000Y-9910000D01*
X8260000Y-9870000D02*
X8220000Y-9910000D01*
X8240000Y-9550000D02*
X8280000Y-9590000D01*
X8280000Y-9550000D02*
X8240000Y-9590000D01*
X8251230Y-8671230D02*
X8291230Y-8711230D01*
X8291230Y-8671230D02*
X8251230Y-8711230D01*
X8370000Y-10380000D02*
X8410000Y-10420000D01*
X8410000Y-10380000D02*
X8370000Y-10420000D01*
X8470000Y-8330000D02*
X8510000Y-8370000D01*
X8510000Y-8330000D02*
X8470000Y-8370000D01*
X8490000Y-12131500D02*
X8530000Y-12171500D01*
X8530000Y-12131500D02*
X8490000Y-12171500D01*
X8490000Y-12631500D02*
X8530000Y-12671500D01*
X8530000Y-12631500D02*
X8490000Y-12671500D01*
X9061250Y-12631500D02*
X9101250Y-12671500D01*
X9101250Y-12631500D02*
X9061250Y-12671500D01*
X9550000Y-12860000D02*
X9590000Y-12900000D01*
X9590000Y-12860000D02*
X9550000Y-12900000D01*
X9910000Y-13560000D02*
X9950000Y-13600000D01*
X9950000Y-13560000D02*
X9910000Y-13600000D01*
X10290000Y-8360000D02*
X10330000Y-8400000D01*
X10330000Y-8360000D02*
X10290000Y-8400000D01*
X10471250Y-8360000D02*
X10511250Y-8400000D01*
X10511250Y-8360000D02*
X10471250Y-8400000D01*
X10520000Y-12331000D02*
X10560000Y-12371000D01*
X10560000Y-12331000D02*
X10520000Y-12371000D01*
X11610000Y-11190000D02*
X11650000Y-11230000D01*
X11650000Y-11190000D02*
X11610000Y-11230000D01*
X4788000Y-8305000D02*
G75*
G03*
X4788000Y-8305000I-30000J0D01*
G01*
X4788000Y-8335000D02*
X4788000Y-8275000D01*
X4788000Y-8275000D02*
G75*
G03*
X4728000Y-8275000I-30000J0D01*
G01*
X4728000Y-8275000D02*
X4728000Y-8335000D01*
X4728000Y-8335000D02*
G75*
G03*
X4788000Y-8335000I30000J0D01*
G01*
X4788000Y-8685000D02*
G75*
G03*
X4788000Y-8685000I-30000J0D01*
G01*
X4788000Y-8715000D02*
X4788000Y-8655000D01*
X4788000Y-8655000D02*
G75*
G03*
X4728000Y-8655000I-30000J0D01*
G01*
X4728000Y-8655000D02*
X4728000Y-8715000D01*
X4728000Y-8715000D02*
G75*
G03*
X4788000Y-8715000I30000J0D01*
G01*
X5652000Y-8305000D02*
G75*
G03*
X5652000Y-8305000I-30000J0D01*
G01*
X5652000Y-8335000D02*
X5652000Y-8275000D01*
X5652000Y-8275000D02*
G75*
G03*
X5592000Y-8275000I-30000J0D01*
G01*
X5592000Y-8275000D02*
X5592000Y-8335000D01*
X5592000Y-8335000D02*
G75*
G03*
X5652000Y-8335000I30000J0D01*
G01*
X5652000Y-8685000D02*
G75*
G03*
X5652000Y-8685000I-30000J0D01*
G01*
X5652000Y-8715000D02*
X5652000Y-8655000D01*
X5652000Y-8655000D02*
G75*
G03*
X5592000Y-8655000I-30000J0D01*
G01*
X5592000Y-8655000D02*
X5592000Y-8715000D01*
X5592000Y-8715000D02*
G75*
G03*
X5652000Y-8715000I30000J0D01*
G01*
X11157000Y-11928500D02*
X11157000Y-12004500D01*
X11119000Y-11966500D02*
X11195000Y-11966500D01*
X11411000Y-11928500D02*
X11411000Y-12004500D01*
X11373000Y-11966500D02*
X11449000Y-11966500D01*
X11665000Y-11928500D02*
X11665000Y-12004500D01*
X11627000Y-11966500D02*
X11703000Y-11966500D01*
X10972941Y-8786941D02*
X10972941Y-8733059D01*
X10919059Y-8733059D01*
X10919059Y-8786941D01*
X10972941Y-8786941D01*
X11226941Y-8786941D02*
X11226941Y-8733059D01*
X11173059Y-8733059D01*
X11173059Y-8786941D01*
X11226941Y-8786941D01*
X11480941Y-8786941D02*
X11480941Y-8733059D01*
X11427059Y-8733059D01*
X11427059Y-8786941D01*
X11480941Y-8786941D01*
X3397500Y-10057500D02*
X3437500Y-10017500D01*
X3397500Y-9977500D01*
X3357500Y-10017500D01*
X3397500Y-10057500D01*
X3397500Y-10257500D02*
X3437500Y-10217500D01*
X3397500Y-10177500D01*
X3357500Y-10217500D01*
X3397500Y-10257500D01*
X3397500Y-10457500D02*
X3437500Y-10417500D01*
X3397500Y-10377500D01*
X3357500Y-10417500D01*
X3397500Y-10457500D01*
X3397500Y-10657500D02*
X3437500Y-10617500D01*
X3397500Y-10577500D01*
X3357500Y-10617500D01*
X3397500Y-10657500D01*
X9100000Y-8440000D02*
X9140000Y-8400000D01*
X9100000Y-8360000D01*
X9060000Y-8400000D01*
X9100000Y-8440000D01*
X9100000Y-8820000D02*
X9140000Y-8780000D01*
X9100000Y-8740000D01*
X9060000Y-8780000D01*
X9100000Y-8820000D01*
X9300000Y-8440000D02*
X9340000Y-8400000D01*
X9300000Y-8360000D01*
X9260000Y-8400000D01*
X9300000Y-8440000D01*
X9300000Y-8820000D02*
X9340000Y-8780000D01*
X9300000Y-8740000D01*
X9260000Y-8780000D01*
X9300000Y-8820000D01*
X9500000Y-8440000D02*
X9540000Y-8400000D01*
X9500000Y-8360000D01*
X9460000Y-8400000D01*
X9500000Y-8440000D01*
X9500000Y-8820000D02*
X9540000Y-8780000D01*
X9500000Y-8740000D01*
X9460000Y-8780000D01*
X9500000Y-8820000D01*
X9700000Y-8440000D02*
X9740000Y-8400000D01*
X9700000Y-8360000D01*
X9660000Y-8400000D01*
X9700000Y-8440000D01*
X9700000Y-8820000D02*
X9740000Y-8780000D01*
X9700000Y-8740000D01*
X9660000Y-8780000D01*
X9700000Y-8820000D01*
X4701550Y-9239550D02*
X4790450Y-9328450D01*
X4790450Y-9239550D02*
X4701550Y-9328450D01*
X4790450Y-9284000D02*
G75*
G03*
X4790450Y-9284000I-44450J0D01*
G01*
X4955550Y-9239550D02*
X5044450Y-9328450D01*
X5044450Y-9239550D02*
X4955550Y-9328450D01*
X5044450Y-9284000D02*
G75*
G03*
X5044450Y-9284000I-44450J0D01*
G01*
X5209550Y-9239550D02*
X5298450Y-9328450D01*
X5298450Y-9239550D02*
X5209550Y-9328450D01*
X5298450Y-9284000D02*
G75*
G03*
X5298450Y-9284000I-44450J0D01*
G01*
X5971550Y-10001550D02*
X6060450Y-10090450D01*
X6060450Y-10001550D02*
X5971550Y-10090450D01*
X6060450Y-10046000D02*
G75*
G03*
X6060450Y-10046000I-44450J0D01*
G01*
X5971550Y-10255550D02*
X6060450Y-10344450D01*
X6060450Y-10255550D02*
X5971550Y-10344450D01*
X6060450Y-10300000D02*
G75*
G03*
X6060450Y-10300000I-44450J0D01*
G01*
X5971550Y-10509550D02*
X6060450Y-10598450D01*
X6060450Y-10509550D02*
X5971550Y-10598450D01*
X6060450Y-10554000D02*
G75*
G03*
X6060450Y-10554000I-44450J0D01*
G01*
X9901550Y-9239550D02*
X9990450Y-9328450D01*
X9990450Y-9239550D02*
X9901550Y-9328450D01*
X9990450Y-9284000D02*
G75*
G03*
X9990450Y-9284000I-44450J0D01*
G01*
X10155550Y-9239550D02*
X10244450Y-9328450D01*
X10244450Y-9239550D02*
X10155550Y-9328450D01*
X10244450Y-9284000D02*
G75*
G03*
X10244450Y-9284000I-44450J0D01*
G01*
X10409550Y-9239550D02*
X10498450Y-9328450D01*
X10498450Y-9239550D02*
X10409550Y-9328450D01*
X10498450Y-9284000D02*
G75*
G03*
X10498450Y-9284000I-44450J0D01*
G01*
X11171550Y-10001550D02*
X11260450Y-10090450D01*
X11260450Y-10001550D02*
X11171550Y-10090450D01*
X11260450Y-10046000D02*
G75*
G03*
X11260450Y-10046000I-44450J0D01*
G01*
X11171550Y-10255550D02*
X11260450Y-10344450D01*
X11260450Y-10255550D02*
X11171550Y-10344450D01*
X11260450Y-10300000D02*
G75*
G03*
X11260450Y-10300000I-44450J0D01*
G01*
X11171550Y-10509550D02*
X11260450Y-10598450D01*
X11260450Y-10509550D02*
X11171550Y-10598450D01*
X11260450Y-10554000D02*
G75*
G03*
X11260450Y-10554000I-44450J0D01*
G01*
X4637500Y-11017000D02*
X4727500Y-11107000D01*
X4727500Y-11017000D02*
X4637500Y-11107000D01*
X4682500Y-11017000D02*
X4682500Y-11107000D01*
X4637500Y-11062000D02*
X4727500Y-11062000D01*
X4637500Y-11525000D02*
X4727500Y-11615000D01*
X4727500Y-11525000D02*
X4637500Y-11615000D01*
X4682500Y-11525000D02*
X4682500Y-11615000D01*
X4637500Y-11570000D02*
X4727500Y-11570000D01*
X5272500Y-11017000D02*
X5362500Y-11107000D01*
X5362500Y-11017000D02*
X5272500Y-11107000D01*
X5317500Y-11017000D02*
X5317500Y-11107000D01*
X5272500Y-11062000D02*
X5362500Y-11062000D01*
X5272500Y-11525000D02*
X5362500Y-11615000D01*
X5362500Y-11525000D02*
X5272500Y-11615000D01*
X5317500Y-11525000D02*
X5317500Y-11615000D01*
X5272500Y-11570000D02*
X5362500Y-11570000D01*
X9837500Y-11017000D02*
X9927500Y-11107000D01*
X9927500Y-11017000D02*
X9837500Y-11107000D01*
X9882500Y-11017000D02*
X9882500Y-11107000D01*
X9837500Y-11062000D02*
X9927500Y-11062000D01*
X9837500Y-11525000D02*
X9927500Y-11615000D01*
X9927500Y-11525000D02*
X9837500Y-11615000D01*
X9882500Y-11525000D02*
X9882500Y-11615000D01*
X9837500Y-11570000D02*
X9927500Y-11570000D01*
X10472500Y-11017000D02*
X10562500Y-11107000D01*
X10562500Y-11017000D02*
X10472500Y-11107000D01*
X10517500Y-11017000D02*
X10517500Y-11107000D01*
X10472500Y-11062000D02*
X10562500Y-11062000D01*
X10472500Y-11525000D02*
X10562500Y-11615000D01*
X10562500Y-11525000D02*
X10472500Y-11615000D01*
X10517500Y-11525000D02*
X10517500Y-11615000D01*
X10472500Y-11570000D02*
X10562500Y-11570000D01*
X3738000Y-8323250D02*
X3837000Y-8422250D01*
X3837000Y-8323250D02*
X3738000Y-8422250D01*
X3822502Y-8407752D02*
X3822502Y-8337748D01*
X3752498Y-8337748D01*
X3752498Y-8407752D01*
X3822502Y-8407752D01*
X4188000Y-8323250D02*
X4287000Y-8422250D01*
X4287000Y-8323250D02*
X4188000Y-8422250D01*
X4272502Y-8407752D02*
X4272502Y-8337748D01*
X4202498Y-8337748D01*
X4202498Y-8407752D01*
X4272502Y-8407752D01*
X10923000Y-8246750D02*
X11022000Y-8345750D01*
X11022000Y-8246750D02*
X10923000Y-8345750D01*
X11007502Y-8331252D02*
X11007502Y-8261248D01*
X10937498Y-8261248D01*
X10937498Y-8331252D01*
X11007502Y-8331252D01*
X11373000Y-8246750D02*
X11472000Y-8345750D01*
X11472000Y-8246750D02*
X11373000Y-8345750D01*
X11457502Y-8331252D02*
X11457502Y-8261248D01*
X11387498Y-8261248D01*
X11387498Y-8331252D01*
X11457502Y-8331252D01*
D12*
X4520000Y-12620000D02*
X4630000Y-12730000D01*
X4630000Y-12620000D02*
X4520000Y-12730000D01*
X4575000Y-12730000D02*
X4630000Y-12675000D01*
X4575000Y-12620000D01*
X4520000Y-12675000D01*
X4575000Y-12730000D01*
X4520000Y-13070000D02*
X4630000Y-13180000D01*
X4630000Y-13070000D02*
X4520000Y-13180000D01*
X4575000Y-13180000D02*
X4630000Y-13125000D01*
X4575000Y-13070000D01*
X4520000Y-13125000D01*
X4575000Y-13180000D01*
X5170000Y-12620000D02*
X5280000Y-12730000D01*
X5280000Y-12620000D02*
X5170000Y-12730000D01*
X5225000Y-12730000D02*
X5280000Y-12675000D01*
X5225000Y-12620000D01*
X5170000Y-12675000D01*
X5225000Y-12730000D01*
X5170000Y-13070000D02*
X5280000Y-13180000D01*
X5280000Y-13070000D02*
X5170000Y-13180000D01*
X5225000Y-13180000D02*
X5280000Y-13125000D01*
X5225000Y-13070000D01*
X5170000Y-13125000D01*
X5225000Y-13180000D01*
X10020000Y-12596500D02*
X10130000Y-12706500D01*
X10130000Y-12596500D02*
X10020000Y-12706500D01*
X10075000Y-12706500D02*
X10130000Y-12651500D01*
X10075000Y-12596500D01*
X10020000Y-12651500D01*
X10075000Y-12706500D01*
X10020000Y-13046500D02*
X10130000Y-13156500D01*
X10130000Y-13046500D02*
X10020000Y-13156500D01*
X10075000Y-13156500D02*
X10130000Y-13101500D01*
X10075000Y-13046500D01*
X10020000Y-13101500D01*
X10075000Y-13156500D01*
X10670000Y-12596500D02*
X10780000Y-12706500D01*
X10780000Y-12596500D02*
X10670000Y-12706500D01*
X10725000Y-12706500D02*
X10780000Y-12651500D01*
X10725000Y-12596500D01*
X10670000Y-12651500D01*
X10725000Y-12706500D01*
X10670000Y-13046500D02*
X10780000Y-13156500D01*
X10780000Y-13046500D02*
X10670000Y-13156500D01*
X10725000Y-13156500D02*
X10780000Y-13101500D01*
X10725000Y-13046500D01*
X10670000Y-13101500D01*
X10725000Y-13156500D01*
D13*
X3662500Y-8556750D02*
X3662500Y-8686750D01*
X3597500Y-8621750D02*
X3727500Y-8621750D01*
X3727500Y-8621750D02*
G75*
G03*
X3727500Y-8621750I-65000J0D01*
G01*
X4363500Y-8556750D02*
X4363500Y-8686750D01*
X4298500Y-8621750D02*
X4428500Y-8621750D01*
X4428500Y-8621750D02*
G75*
G03*
X4428500Y-8621750I-65000J0D01*
G01*
X10847500Y-8480250D02*
X10847500Y-8610250D01*
X10782500Y-8545250D02*
X10912500Y-8545250D01*
X10912500Y-8545250D02*
G75*
G03*
X10912500Y-8545250I-65000J0D01*
G01*
X11548500Y-8480250D02*
X11548500Y-8610250D01*
X11483500Y-8545250D02*
X11613500Y-8545250D01*
X11613500Y-8545250D02*
G75*
G03*
X11613500Y-8545250I-65000J0D01*
G01*
D14*
X4287392Y-9682642D02*
X4287392Y-9583858D01*
X4188608Y-9583858D01*
X4188608Y-9682642D01*
X4287392Y-9682642D01*
X4307850Y-9633250D02*
G75*
G03*
X4307850Y-9633250I-69850J0D01*
G01*
X4287392Y-11016142D02*
X4287392Y-10917358D01*
X4188608Y-10917358D01*
X4188608Y-11016142D01*
X4287392Y-11016142D01*
X4307850Y-10966750D02*
G75*
G03*
X4307850Y-10966750I-69850J0D01*
G01*
X5811392Y-9682642D02*
X5811392Y-9583858D01*
X5712608Y-9583858D01*
X5712608Y-9682642D01*
X5811392Y-9682642D01*
X5831850Y-9633250D02*
G75*
G03*
X5831850Y-9633250I-69850J0D01*
G01*
X5811392Y-11016142D02*
X5811392Y-10917358D01*
X5712608Y-10917358D01*
X5712608Y-11016142D01*
X5811392Y-11016142D01*
X5831850Y-10966750D02*
G75*
G03*
X5831850Y-10966750I-69850J0D01*
G01*
X9487392Y-9682642D02*
X9487392Y-9583858D01*
X9388608Y-9583858D01*
X9388608Y-9682642D01*
X9487392Y-9682642D01*
X9507850Y-9633250D02*
G75*
G03*
X9507850Y-9633250I-69850J0D01*
G01*
X9487392Y-11016142D02*
X9487392Y-10917358D01*
X9388608Y-10917358D01*
X9388608Y-11016142D01*
X9487392Y-11016142D01*
X9507850Y-10966750D02*
G75*
G03*
X9507850Y-10966750I-69850J0D01*
G01*
X11011392Y-9682642D02*
X11011392Y-9583858D01*
X10912608Y-9583858D01*
X10912608Y-9682642D01*
X11011392Y-9682642D01*
X11031850Y-9633250D02*
G75*
G03*
X11031850Y-9633250I-69850J0D01*
G01*
X11011392Y-11016142D02*
X11011392Y-10917358D01*
X10912608Y-10917358D01*
X10912608Y-11016142D01*
X11011392Y-11016142D01*
X11031850Y-10966750D02*
G75*
G03*
X11031850Y-10966750I-69850J0D01*
G01*
D11*
X3370777Y-14492984D02*
X3370777Y-14292984D01*
X3370777Y-14292984D02*
X3418396Y-14292984D01*
X3418396Y-14292984D02*
X3446967Y-14302508D01*
X3446967Y-14302508D02*
X3466015Y-14321555D01*
X3466015Y-14321555D02*
X3475539Y-14340603D01*
X3475539Y-14340603D02*
X3485062Y-14378698D01*
X3485062Y-14378698D02*
X3485062Y-14407269D01*
X3485062Y-14407269D02*
X3475539Y-14445365D01*
X3475539Y-14445365D02*
X3466015Y-14464412D01*
X3466015Y-14464412D02*
X3446967Y-14483460D01*
X3446967Y-14483460D02*
X3418396Y-14492984D01*
X3418396Y-14492984D02*
X3370777Y-14492984D01*
X3570777Y-14492984D02*
X3570777Y-14359650D01*
X3570777Y-14397746D02*
X3580301Y-14378698D01*
X3580301Y-14378698D02*
X3589824Y-14369174D01*
X3589824Y-14369174D02*
X3608872Y-14359650D01*
X3608872Y-14359650D02*
X3627920Y-14359650D01*
X3694586Y-14492984D02*
X3694586Y-14359650D01*
X3694586Y-14292984D02*
X3685062Y-14302508D01*
X3685062Y-14302508D02*
X3694586Y-14312031D01*
X3694586Y-14312031D02*
X3704110Y-14302508D01*
X3704110Y-14302508D02*
X3694586Y-14292984D01*
X3694586Y-14292984D02*
X3694586Y-14312031D01*
X3818396Y-14492984D02*
X3799348Y-14483460D01*
X3799348Y-14483460D02*
X3789824Y-14464412D01*
X3789824Y-14464412D02*
X3789824Y-14292984D01*
X3923158Y-14492984D02*
X3904110Y-14483460D01*
X3904110Y-14483460D02*
X3894586Y-14464412D01*
X3894586Y-14464412D02*
X3894586Y-14292984D01*
X4151729Y-14492984D02*
X4151729Y-14292984D01*
X4151729Y-14292984D02*
X4218396Y-14435841D01*
X4218396Y-14435841D02*
X4285063Y-14292984D01*
X4285063Y-14292984D02*
X4285063Y-14492984D01*
X4466015Y-14492984D02*
X4466015Y-14388222D01*
X4466015Y-14388222D02*
X4456491Y-14369174D01*
X4456491Y-14369174D02*
X4437444Y-14359650D01*
X4437444Y-14359650D02*
X4399348Y-14359650D01*
X4399348Y-14359650D02*
X4380301Y-14369174D01*
X4466015Y-14483460D02*
X4446967Y-14492984D01*
X4446967Y-14492984D02*
X4399348Y-14492984D01*
X4399348Y-14492984D02*
X4380301Y-14483460D01*
X4380301Y-14483460D02*
X4370777Y-14464412D01*
X4370777Y-14464412D02*
X4370777Y-14445365D01*
X4370777Y-14445365D02*
X4380301Y-14426317D01*
X4380301Y-14426317D02*
X4399348Y-14416793D01*
X4399348Y-14416793D02*
X4446967Y-14416793D01*
X4446967Y-14416793D02*
X4466015Y-14407269D01*
X4561253Y-14359650D02*
X4561253Y-14559650D01*
X4561253Y-14369174D02*
X4580301Y-14359650D01*
X4580301Y-14359650D02*
X4618396Y-14359650D01*
X4618396Y-14359650D02*
X4637444Y-14369174D01*
X4637444Y-14369174D02*
X4646967Y-14378698D01*
X4646967Y-14378698D02*
X4656491Y-14397746D01*
X4656491Y-14397746D02*
X4656491Y-14454888D01*
X4656491Y-14454888D02*
X4646967Y-14473936D01*
X4646967Y-14473936D02*
X4637444Y-14483460D01*
X4637444Y-14483460D02*
X4618396Y-14492984D01*
X4618396Y-14492984D02*
X4580301Y-14492984D01*
X4580301Y-14492984D02*
X4561253Y-14483460D01*
X4742205Y-14473936D02*
X4751729Y-14483460D01*
X4751729Y-14483460D02*
X4742205Y-14492984D01*
X4742205Y-14492984D02*
X4732682Y-14483460D01*
X4732682Y-14483460D02*
X4742205Y-14473936D01*
X4742205Y-14473936D02*
X4742205Y-14492984D01*
X4742205Y-14369174D02*
X4751729Y-14378698D01*
X4751729Y-14378698D02*
X4742205Y-14388222D01*
X4742205Y-14388222D02*
X4732682Y-14378698D01*
X4732682Y-14378698D02*
X4742205Y-14369174D01*
X4742205Y-14369174D02*
X4742205Y-14388222D01*
D10*
X3070000Y-14801500D02*
X3110000Y-14841500D01*
X3110000Y-14801500D02*
X3070000Y-14841500D01*
D11*
X3408872Y-14712984D02*
X3427920Y-14712984D01*
X3427920Y-14712984D02*
X3446967Y-14722508D01*
X3446967Y-14722508D02*
X3456491Y-14732031D01*
X3456491Y-14732031D02*
X3466015Y-14751079D01*
X3466015Y-14751079D02*
X3475539Y-14789174D01*
X3475539Y-14789174D02*
X3475539Y-14836793D01*
X3475539Y-14836793D02*
X3466015Y-14874888D01*
X3466015Y-14874888D02*
X3456491Y-14893936D01*
X3456491Y-14893936D02*
X3446967Y-14903460D01*
X3446967Y-14903460D02*
X3427920Y-14912984D01*
X3427920Y-14912984D02*
X3408872Y-14912984D01*
X3408872Y-14912984D02*
X3389824Y-14903460D01*
X3389824Y-14903460D02*
X3380301Y-14893936D01*
X3380301Y-14893936D02*
X3370777Y-14874888D01*
X3370777Y-14874888D02*
X3361253Y-14836793D01*
X3361253Y-14836793D02*
X3361253Y-14789174D01*
X3361253Y-14789174D02*
X3370777Y-14751079D01*
X3370777Y-14751079D02*
X3380301Y-14732031D01*
X3380301Y-14732031D02*
X3389824Y-14722508D01*
X3389824Y-14722508D02*
X3408872Y-14712984D01*
X3561253Y-14893936D02*
X3570777Y-14903460D01*
X3570777Y-14903460D02*
X3561253Y-14912984D01*
X3561253Y-14912984D02*
X3551729Y-14903460D01*
X3551729Y-14903460D02*
X3561253Y-14893936D01*
X3561253Y-14893936D02*
X3561253Y-14912984D01*
X3742205Y-14779650D02*
X3742205Y-14912984D01*
X3694586Y-14703460D02*
X3646967Y-14846317D01*
X3646967Y-14846317D02*
X3770777Y-14846317D01*
X3885062Y-14712984D02*
X3904110Y-14712984D01*
X3904110Y-14712984D02*
X3923158Y-14722508D01*
X3923158Y-14722508D02*
X3932682Y-14732031D01*
X3932682Y-14732031D02*
X3942205Y-14751079D01*
X3942205Y-14751079D02*
X3951729Y-14789174D01*
X3951729Y-14789174D02*
X3951729Y-14836793D01*
X3951729Y-14836793D02*
X3942205Y-14874888D01*
X3942205Y-14874888D02*
X3932682Y-14893936D01*
X3932682Y-14893936D02*
X3923158Y-14903460D01*
X3923158Y-14903460D02*
X3904110Y-14912984D01*
X3904110Y-14912984D02*
X3885062Y-14912984D01*
X3885062Y-14912984D02*
X3866015Y-14903460D01*
X3866015Y-14903460D02*
X3856491Y-14893936D01*
X3856491Y-14893936D02*
X3846967Y-14874888D01*
X3846967Y-14874888D02*
X3837443Y-14836793D01*
X3837443Y-14836793D02*
X3837443Y-14789174D01*
X3837443Y-14789174D02*
X3846967Y-14751079D01*
X3846967Y-14751079D02*
X3856491Y-14732031D01*
X3856491Y-14732031D02*
X3866015Y-14722508D01*
X3866015Y-14722508D02*
X3885062Y-14712984D01*
X4075539Y-14712984D02*
X4094586Y-14712984D01*
X4094586Y-14712984D02*
X4113634Y-14722508D01*
X4113634Y-14722508D02*
X4123158Y-14732031D01*
X4123158Y-14732031D02*
X4132682Y-14751079D01*
X4132682Y-14751079D02*
X4142205Y-14789174D01*
X4142205Y-14789174D02*
X4142205Y-14836793D01*
X4142205Y-14836793D02*
X4132682Y-14874888D01*
X4132682Y-14874888D02*
X4123158Y-14893936D01*
X4123158Y-14893936D02*
X4113634Y-14903460D01*
X4113634Y-14903460D02*
X4094586Y-14912984D01*
X4094586Y-14912984D02*
X4075539Y-14912984D01*
X4075539Y-14912984D02*
X4056491Y-14903460D01*
X4056491Y-14903460D02*
X4046967Y-14893936D01*
X4046967Y-14893936D02*
X4037443Y-14874888D01*
X4037443Y-14874888D02*
X4027920Y-14836793D01*
X4027920Y-14836793D02*
X4027920Y-14789174D01*
X4027920Y-14789174D02*
X4037443Y-14751079D01*
X4037443Y-14751079D02*
X4046967Y-14732031D01*
X4046967Y-14732031D02*
X4056491Y-14722508D01*
X4056491Y-14722508D02*
X4075539Y-14712984D01*
X4227920Y-14912984D02*
X4227920Y-14779650D01*
X4227920Y-14798698D02*
X4237444Y-14789174D01*
X4237444Y-14789174D02*
X4256491Y-14779650D01*
X4256491Y-14779650D02*
X4285063Y-14779650D01*
X4285063Y-14779650D02*
X4304110Y-14789174D01*
X4304110Y-14789174D02*
X4313634Y-14808222D01*
X4313634Y-14808222D02*
X4313634Y-14912984D01*
X4313634Y-14808222D02*
X4323158Y-14789174D01*
X4323158Y-14789174D02*
X4342205Y-14779650D01*
X4342205Y-14779650D02*
X4370777Y-14779650D01*
X4370777Y-14779650D02*
X4389825Y-14789174D01*
X4389825Y-14789174D02*
X4399348Y-14808222D01*
X4399348Y-14808222D02*
X4399348Y-14912984D01*
X4494586Y-14912984D02*
X4494586Y-14779650D01*
X4494586Y-14798698D02*
X4504110Y-14789174D01*
X4504110Y-14789174D02*
X4523158Y-14779650D01*
X4523158Y-14779650D02*
X4551729Y-14779650D01*
X4551729Y-14779650D02*
X4570777Y-14789174D01*
X4570777Y-14789174D02*
X4580301Y-14808222D01*
X4580301Y-14808222D02*
X4580301Y-14912984D01*
X4580301Y-14808222D02*
X4589825Y-14789174D01*
X4589825Y-14789174D02*
X4608872Y-14779650D01*
X4608872Y-14779650D02*
X4637444Y-14779650D01*
X4637444Y-14779650D02*
X4656491Y-14789174D01*
X4656491Y-14789174D02*
X4666015Y-14808222D01*
X4666015Y-14808222D02*
X4666015Y-14912984D01*
X5056491Y-14703460D02*
X4885063Y-14960603D01*
X5313634Y-14712984D02*
X5332682Y-14712984D01*
X5332682Y-14712984D02*
X5351729Y-14722508D01*
X5351729Y-14722508D02*
X5361253Y-14732031D01*
X5361253Y-14732031D02*
X5370777Y-14751079D01*
X5370777Y-14751079D02*
X5380301Y-14789174D01*
X5380301Y-14789174D02*
X5380301Y-14836793D01*
X5380301Y-14836793D02*
X5370777Y-14874888D01*
X5370777Y-14874888D02*
X5361253Y-14893936D01*
X5361253Y-14893936D02*
X5351729Y-14903460D01*
X5351729Y-14903460D02*
X5332682Y-14912984D01*
X5332682Y-14912984D02*
X5313634Y-14912984D01*
X5313634Y-14912984D02*
X5294587Y-14903460D01*
X5294587Y-14903460D02*
X5285063Y-14893936D01*
X5285063Y-14893936D02*
X5275539Y-14874888D01*
X5275539Y-14874888D02*
X5266015Y-14836793D01*
X5266015Y-14836793D02*
X5266015Y-14789174D01*
X5266015Y-14789174D02*
X5275539Y-14751079D01*
X5275539Y-14751079D02*
X5285063Y-14732031D01*
X5285063Y-14732031D02*
X5294587Y-14722508D01*
X5294587Y-14722508D02*
X5313634Y-14712984D01*
X5466015Y-14893936D02*
X5475539Y-14903460D01*
X5475539Y-14903460D02*
X5466015Y-14912984D01*
X5466015Y-14912984D02*
X5456491Y-14903460D01*
X5456491Y-14903460D02*
X5466015Y-14893936D01*
X5466015Y-14893936D02*
X5466015Y-14912984D01*
X5599348Y-14712984D02*
X5618396Y-14712984D01*
X5618396Y-14712984D02*
X5637444Y-14722508D01*
X5637444Y-14722508D02*
X5646967Y-14732031D01*
X5646967Y-14732031D02*
X5656491Y-14751079D01*
X5656491Y-14751079D02*
X5666015Y-14789174D01*
X5666015Y-14789174D02*
X5666015Y-14836793D01*
X5666015Y-14836793D02*
X5656491Y-14874888D01*
X5656491Y-14874888D02*
X5646967Y-14893936D01*
X5646967Y-14893936D02*
X5637444Y-14903460D01*
X5637444Y-14903460D02*
X5618396Y-14912984D01*
X5618396Y-14912984D02*
X5599348Y-14912984D01*
X5599348Y-14912984D02*
X5580301Y-14903460D01*
X5580301Y-14903460D02*
X5570777Y-14893936D01*
X5570777Y-14893936D02*
X5561253Y-14874888D01*
X5561253Y-14874888D02*
X5551729Y-14836793D01*
X5551729Y-14836793D02*
X5551729Y-14789174D01*
X5551729Y-14789174D02*
X5561253Y-14751079D01*
X5561253Y-14751079D02*
X5570777Y-14732031D01*
X5570777Y-14732031D02*
X5580301Y-14722508D01*
X5580301Y-14722508D02*
X5599348Y-14712984D01*
X5856491Y-14912984D02*
X5742206Y-14912984D01*
X5799348Y-14912984D02*
X5799348Y-14712984D01*
X5799348Y-14712984D02*
X5780301Y-14741555D01*
X5780301Y-14741555D02*
X5761253Y-14760603D01*
X5761253Y-14760603D02*
X5742206Y-14770127D01*
X6037444Y-14712984D02*
X5942206Y-14712984D01*
X5942206Y-14712984D02*
X5932682Y-14808222D01*
X5932682Y-14808222D02*
X5942206Y-14798698D01*
X5942206Y-14798698D02*
X5961253Y-14789174D01*
X5961253Y-14789174D02*
X6008872Y-14789174D01*
X6008872Y-14789174D02*
X6027920Y-14798698D01*
X6027920Y-14798698D02*
X6037444Y-14808222D01*
X6037444Y-14808222D02*
X6046967Y-14827269D01*
X6046967Y-14827269D02*
X6046967Y-14874888D01*
X6046967Y-14874888D02*
X6037444Y-14893936D01*
X6037444Y-14893936D02*
X6027920Y-14903460D01*
X6027920Y-14903460D02*
X6008872Y-14912984D01*
X6008872Y-14912984D02*
X5961253Y-14912984D01*
X5961253Y-14912984D02*
X5942206Y-14903460D01*
X5942206Y-14903460D02*
X5932682Y-14893936D01*
X6113634Y-14712984D02*
X6246967Y-14712984D01*
X6246967Y-14712984D02*
X6161253Y-14912984D01*
X6313634Y-14712984D02*
X6313634Y-14751079D01*
X6389825Y-14712984D02*
X6389825Y-14751079D01*
X6685063Y-14989174D02*
X6675539Y-14979650D01*
X6675539Y-14979650D02*
X6656491Y-14951079D01*
X6656491Y-14951079D02*
X6646968Y-14932031D01*
X6646968Y-14932031D02*
X6637444Y-14903460D01*
X6637444Y-14903460D02*
X6627920Y-14855841D01*
X6627920Y-14855841D02*
X6627920Y-14817746D01*
X6627920Y-14817746D02*
X6637444Y-14770127D01*
X6637444Y-14770127D02*
X6646968Y-14741555D01*
X6646968Y-14741555D02*
X6656491Y-14722508D01*
X6656491Y-14722508D02*
X6675539Y-14693936D01*
X6675539Y-14693936D02*
X6685063Y-14684412D01*
X6856491Y-14712984D02*
X6761253Y-14712984D01*
X6761253Y-14712984D02*
X6751729Y-14808222D01*
X6751729Y-14808222D02*
X6761253Y-14798698D01*
X6761253Y-14798698D02*
X6780301Y-14789174D01*
X6780301Y-14789174D02*
X6827920Y-14789174D01*
X6827920Y-14789174D02*
X6846968Y-14798698D01*
X6846968Y-14798698D02*
X6856491Y-14808222D01*
X6856491Y-14808222D02*
X6866015Y-14827269D01*
X6866015Y-14827269D02*
X6866015Y-14874888D01*
X6866015Y-14874888D02*
X6856491Y-14893936D01*
X6856491Y-14893936D02*
X6846968Y-14903460D01*
X6846968Y-14903460D02*
X6827920Y-14912984D01*
X6827920Y-14912984D02*
X6780301Y-14912984D01*
X6780301Y-14912984D02*
X6761253Y-14903460D01*
X6761253Y-14903460D02*
X6751729Y-14893936D01*
X7056491Y-14912984D02*
X6942206Y-14912984D01*
X6999348Y-14912984D02*
X6999348Y-14712984D01*
X6999348Y-14712984D02*
X6980301Y-14741555D01*
X6980301Y-14741555D02*
X6961253Y-14760603D01*
X6961253Y-14760603D02*
X6942206Y-14770127D01*
X7294587Y-14912984D02*
X7294587Y-14712984D01*
X7380301Y-14912984D02*
X7380301Y-14808222D01*
X7380301Y-14808222D02*
X7370777Y-14789174D01*
X7370777Y-14789174D02*
X7351730Y-14779650D01*
X7351730Y-14779650D02*
X7323158Y-14779650D01*
X7323158Y-14779650D02*
X7304110Y-14789174D01*
X7304110Y-14789174D02*
X7294587Y-14798698D01*
X7504110Y-14912984D02*
X7485063Y-14903460D01*
X7485063Y-14903460D02*
X7475539Y-14893936D01*
X7475539Y-14893936D02*
X7466015Y-14874888D01*
X7466015Y-14874888D02*
X7466015Y-14817746D01*
X7466015Y-14817746D02*
X7475539Y-14798698D01*
X7475539Y-14798698D02*
X7485063Y-14789174D01*
X7485063Y-14789174D02*
X7504110Y-14779650D01*
X7504110Y-14779650D02*
X7532682Y-14779650D01*
X7532682Y-14779650D02*
X7551730Y-14789174D01*
X7551730Y-14789174D02*
X7561253Y-14798698D01*
X7561253Y-14798698D02*
X7570777Y-14817746D01*
X7570777Y-14817746D02*
X7570777Y-14874888D01*
X7570777Y-14874888D02*
X7561253Y-14893936D01*
X7561253Y-14893936D02*
X7551730Y-14903460D01*
X7551730Y-14903460D02*
X7532682Y-14912984D01*
X7532682Y-14912984D02*
X7504110Y-14912984D01*
X7685063Y-14912984D02*
X7666015Y-14903460D01*
X7666015Y-14903460D02*
X7656491Y-14884412D01*
X7656491Y-14884412D02*
X7656491Y-14712984D01*
X7837444Y-14903460D02*
X7818396Y-14912984D01*
X7818396Y-14912984D02*
X7780301Y-14912984D01*
X7780301Y-14912984D02*
X7761253Y-14903460D01*
X7761253Y-14903460D02*
X7751730Y-14884412D01*
X7751730Y-14884412D02*
X7751730Y-14808222D01*
X7751730Y-14808222D02*
X7761253Y-14789174D01*
X7761253Y-14789174D02*
X7780301Y-14779650D01*
X7780301Y-14779650D02*
X7818396Y-14779650D01*
X7818396Y-14779650D02*
X7837444Y-14789174D01*
X7837444Y-14789174D02*
X7846968Y-14808222D01*
X7846968Y-14808222D02*
X7846968Y-14827269D01*
X7846968Y-14827269D02*
X7751730Y-14846317D01*
X7923158Y-14903460D02*
X7942206Y-14912984D01*
X7942206Y-14912984D02*
X7980301Y-14912984D01*
X7980301Y-14912984D02*
X7999349Y-14903460D01*
X7999349Y-14903460D02*
X8008872Y-14884412D01*
X8008872Y-14884412D02*
X8008872Y-14874888D01*
X8008872Y-14874888D02*
X7999349Y-14855841D01*
X7999349Y-14855841D02*
X7980301Y-14846317D01*
X7980301Y-14846317D02*
X7951730Y-14846317D01*
X7951730Y-14846317D02*
X7932682Y-14836793D01*
X7932682Y-14836793D02*
X7923158Y-14817746D01*
X7923158Y-14817746D02*
X7923158Y-14808222D01*
X7923158Y-14808222D02*
X7932682Y-14789174D01*
X7932682Y-14789174D02*
X7951730Y-14779650D01*
X7951730Y-14779650D02*
X7980301Y-14779650D01*
X7980301Y-14779650D02*
X7999349Y-14789174D01*
X8075539Y-14989174D02*
X8085063Y-14979650D01*
X8085063Y-14979650D02*
X8104111Y-14951079D01*
X8104111Y-14951079D02*
X8113634Y-14932031D01*
X8113634Y-14932031D02*
X8123158Y-14903460D01*
X8123158Y-14903460D02*
X8132682Y-14855841D01*
X8132682Y-14855841D02*
X8132682Y-14817746D01*
X8132682Y-14817746D02*
X8123158Y-14770127D01*
X8123158Y-14770127D02*
X8113634Y-14741555D01*
X8113634Y-14741555D02*
X8104111Y-14722508D01*
X8104111Y-14722508D02*
X8085063Y-14693936D01*
X8085063Y-14693936D02*
X8075539Y-14684412D01*
D10*
X3110000Y-15085500D02*
G75*
G03*
X3110000Y-15085500I-30000J0D01*
G01*
D11*
X3408872Y-14976984D02*
X3427920Y-14976984D01*
X3427920Y-14976984D02*
X3446967Y-14986508D01*
X3446967Y-14986508D02*
X3456491Y-14996031D01*
X3456491Y-14996031D02*
X3466015Y-15015079D01*
X3466015Y-15015079D02*
X3475539Y-15053174D01*
X3475539Y-15053174D02*
X3475539Y-15100793D01*
X3475539Y-15100793D02*
X3466015Y-15138888D01*
X3466015Y-15138888D02*
X3456491Y-15157936D01*
X3456491Y-15157936D02*
X3446967Y-15167460D01*
X3446967Y-15167460D02*
X3427920Y-15176984D01*
X3427920Y-15176984D02*
X3408872Y-15176984D01*
X3408872Y-15176984D02*
X3389824Y-15167460D01*
X3389824Y-15167460D02*
X3380301Y-15157936D01*
X3380301Y-15157936D02*
X3370777Y-15138888D01*
X3370777Y-15138888D02*
X3361253Y-15100793D01*
X3361253Y-15100793D02*
X3361253Y-15053174D01*
X3361253Y-15053174D02*
X3370777Y-15015079D01*
X3370777Y-15015079D02*
X3380301Y-14996031D01*
X3380301Y-14996031D02*
X3389824Y-14986508D01*
X3389824Y-14986508D02*
X3408872Y-14976984D01*
X3561253Y-15157936D02*
X3570777Y-15167460D01*
X3570777Y-15167460D02*
X3561253Y-15176984D01*
X3561253Y-15176984D02*
X3551729Y-15167460D01*
X3551729Y-15167460D02*
X3561253Y-15157936D01*
X3561253Y-15157936D02*
X3561253Y-15176984D01*
X3742205Y-14976984D02*
X3704110Y-14976984D01*
X3704110Y-14976984D02*
X3685062Y-14986508D01*
X3685062Y-14986508D02*
X3675539Y-14996031D01*
X3675539Y-14996031D02*
X3656491Y-15024603D01*
X3656491Y-15024603D02*
X3646967Y-15062698D01*
X3646967Y-15062698D02*
X3646967Y-15138888D01*
X3646967Y-15138888D02*
X3656491Y-15157936D01*
X3656491Y-15157936D02*
X3666015Y-15167460D01*
X3666015Y-15167460D02*
X3685062Y-15176984D01*
X3685062Y-15176984D02*
X3723158Y-15176984D01*
X3723158Y-15176984D02*
X3742205Y-15167460D01*
X3742205Y-15167460D02*
X3751729Y-15157936D01*
X3751729Y-15157936D02*
X3761253Y-15138888D01*
X3761253Y-15138888D02*
X3761253Y-15091269D01*
X3761253Y-15091269D02*
X3751729Y-15072222D01*
X3751729Y-15072222D02*
X3742205Y-15062698D01*
X3742205Y-15062698D02*
X3723158Y-15053174D01*
X3723158Y-15053174D02*
X3685062Y-15053174D01*
X3685062Y-15053174D02*
X3666015Y-15062698D01*
X3666015Y-15062698D02*
X3656491Y-15072222D01*
X3656491Y-15072222D02*
X3646967Y-15091269D01*
X3885062Y-14976984D02*
X3904110Y-14976984D01*
X3904110Y-14976984D02*
X3923158Y-14986508D01*
X3923158Y-14986508D02*
X3932682Y-14996031D01*
X3932682Y-14996031D02*
X3942205Y-15015079D01*
X3942205Y-15015079D02*
X3951729Y-15053174D01*
X3951729Y-15053174D02*
X3951729Y-15100793D01*
X3951729Y-15100793D02*
X3942205Y-15138888D01*
X3942205Y-15138888D02*
X3932682Y-15157936D01*
X3932682Y-15157936D02*
X3923158Y-15167460D01*
X3923158Y-15167460D02*
X3904110Y-15176984D01*
X3904110Y-15176984D02*
X3885062Y-15176984D01*
X3885062Y-15176984D02*
X3866015Y-15167460D01*
X3866015Y-15167460D02*
X3856491Y-15157936D01*
X3856491Y-15157936D02*
X3846967Y-15138888D01*
X3846967Y-15138888D02*
X3837443Y-15100793D01*
X3837443Y-15100793D02*
X3837443Y-15053174D01*
X3837443Y-15053174D02*
X3846967Y-15015079D01*
X3846967Y-15015079D02*
X3856491Y-14996031D01*
X3856491Y-14996031D02*
X3866015Y-14986508D01*
X3866015Y-14986508D02*
X3885062Y-14976984D01*
X4075539Y-14976984D02*
X4094586Y-14976984D01*
X4094586Y-14976984D02*
X4113634Y-14986508D01*
X4113634Y-14986508D02*
X4123158Y-14996031D01*
X4123158Y-14996031D02*
X4132682Y-15015079D01*
X4132682Y-15015079D02*
X4142205Y-15053174D01*
X4142205Y-15053174D02*
X4142205Y-15100793D01*
X4142205Y-15100793D02*
X4132682Y-15138888D01*
X4132682Y-15138888D02*
X4123158Y-15157936D01*
X4123158Y-15157936D02*
X4113634Y-15167460D01*
X4113634Y-15167460D02*
X4094586Y-15176984D01*
X4094586Y-15176984D02*
X4075539Y-15176984D01*
X4075539Y-15176984D02*
X4056491Y-15167460D01*
X4056491Y-15167460D02*
X4046967Y-15157936D01*
X4046967Y-15157936D02*
X4037443Y-15138888D01*
X4037443Y-15138888D02*
X4027920Y-15100793D01*
X4027920Y-15100793D02*
X4027920Y-15053174D01*
X4027920Y-15053174D02*
X4037443Y-15015079D01*
X4037443Y-15015079D02*
X4046967Y-14996031D01*
X4046967Y-14996031D02*
X4056491Y-14986508D01*
X4056491Y-14986508D02*
X4075539Y-14976984D01*
X4227920Y-15176984D02*
X4227920Y-15043650D01*
X4227920Y-15062698D02*
X4237444Y-15053174D01*
X4237444Y-15053174D02*
X4256491Y-15043650D01*
X4256491Y-15043650D02*
X4285063Y-15043650D01*
X4285063Y-15043650D02*
X4304110Y-15053174D01*
X4304110Y-15053174D02*
X4313634Y-15072222D01*
X4313634Y-15072222D02*
X4313634Y-15176984D01*
X4313634Y-15072222D02*
X4323158Y-15053174D01*
X4323158Y-15053174D02*
X4342205Y-15043650D01*
X4342205Y-15043650D02*
X4370777Y-15043650D01*
X4370777Y-15043650D02*
X4389825Y-15053174D01*
X4389825Y-15053174D02*
X4399348Y-15072222D01*
X4399348Y-15072222D02*
X4399348Y-15176984D01*
X4494586Y-15176984D02*
X4494586Y-15043650D01*
X4494586Y-15062698D02*
X4504110Y-15053174D01*
X4504110Y-15053174D02*
X4523158Y-15043650D01*
X4523158Y-15043650D02*
X4551729Y-15043650D01*
X4551729Y-15043650D02*
X4570777Y-15053174D01*
X4570777Y-15053174D02*
X4580301Y-15072222D01*
X4580301Y-15072222D02*
X4580301Y-15176984D01*
X4580301Y-15072222D02*
X4589825Y-15053174D01*
X4589825Y-15053174D02*
X4608872Y-15043650D01*
X4608872Y-15043650D02*
X4637444Y-15043650D01*
X4637444Y-15043650D02*
X4656491Y-15053174D01*
X4656491Y-15053174D02*
X4666015Y-15072222D01*
X4666015Y-15072222D02*
X4666015Y-15176984D01*
X5056491Y-14967460D02*
X4885063Y-15224603D01*
X5313634Y-14976984D02*
X5332682Y-14976984D01*
X5332682Y-14976984D02*
X5351729Y-14986508D01*
X5351729Y-14986508D02*
X5361253Y-14996031D01*
X5361253Y-14996031D02*
X5370777Y-15015079D01*
X5370777Y-15015079D02*
X5380301Y-15053174D01*
X5380301Y-15053174D02*
X5380301Y-15100793D01*
X5380301Y-15100793D02*
X5370777Y-15138888D01*
X5370777Y-15138888D02*
X5361253Y-15157936D01*
X5361253Y-15157936D02*
X5351729Y-15167460D01*
X5351729Y-15167460D02*
X5332682Y-15176984D01*
X5332682Y-15176984D02*
X5313634Y-15176984D01*
X5313634Y-15176984D02*
X5294587Y-15167460D01*
X5294587Y-15167460D02*
X5285063Y-15157936D01*
X5285063Y-15157936D02*
X5275539Y-15138888D01*
X5275539Y-15138888D02*
X5266015Y-15100793D01*
X5266015Y-15100793D02*
X5266015Y-15053174D01*
X5266015Y-15053174D02*
X5275539Y-15015079D01*
X5275539Y-15015079D02*
X5285063Y-14996031D01*
X5285063Y-14996031D02*
X5294587Y-14986508D01*
X5294587Y-14986508D02*
X5313634Y-14976984D01*
X5466015Y-15157936D02*
X5475539Y-15167460D01*
X5475539Y-15167460D02*
X5466015Y-15176984D01*
X5466015Y-15176984D02*
X5456491Y-15167460D01*
X5456491Y-15167460D02*
X5466015Y-15157936D01*
X5466015Y-15157936D02*
X5466015Y-15176984D01*
X5599348Y-14976984D02*
X5618396Y-14976984D01*
X5618396Y-14976984D02*
X5637444Y-14986508D01*
X5637444Y-14986508D02*
X5646967Y-14996031D01*
X5646967Y-14996031D02*
X5656491Y-15015079D01*
X5656491Y-15015079D02*
X5666015Y-15053174D01*
X5666015Y-15053174D02*
X5666015Y-15100793D01*
X5666015Y-15100793D02*
X5656491Y-15138888D01*
X5656491Y-15138888D02*
X5646967Y-15157936D01*
X5646967Y-15157936D02*
X5637444Y-15167460D01*
X5637444Y-15167460D02*
X5618396Y-15176984D01*
X5618396Y-15176984D02*
X5599348Y-15176984D01*
X5599348Y-15176984D02*
X5580301Y-15167460D01*
X5580301Y-15167460D02*
X5570777Y-15157936D01*
X5570777Y-15157936D02*
X5561253Y-15138888D01*
X5561253Y-15138888D02*
X5551729Y-15100793D01*
X5551729Y-15100793D02*
X5551729Y-15053174D01*
X5551729Y-15053174D02*
X5561253Y-15015079D01*
X5561253Y-15015079D02*
X5570777Y-14996031D01*
X5570777Y-14996031D02*
X5580301Y-14986508D01*
X5580301Y-14986508D02*
X5599348Y-14976984D01*
X5742206Y-14996031D02*
X5751729Y-14986508D01*
X5751729Y-14986508D02*
X5770777Y-14976984D01*
X5770777Y-14976984D02*
X5818396Y-14976984D01*
X5818396Y-14976984D02*
X5837444Y-14986508D01*
X5837444Y-14986508D02*
X5846967Y-14996031D01*
X5846967Y-14996031D02*
X5856491Y-15015079D01*
X5856491Y-15015079D02*
X5856491Y-15034127D01*
X5856491Y-15034127D02*
X5846967Y-15062698D01*
X5846967Y-15062698D02*
X5732682Y-15176984D01*
X5732682Y-15176984D02*
X5856491Y-15176984D01*
X5923158Y-14976984D02*
X6046967Y-14976984D01*
X6046967Y-14976984D02*
X5980301Y-15053174D01*
X5980301Y-15053174D02*
X6008872Y-15053174D01*
X6008872Y-15053174D02*
X6027920Y-15062698D01*
X6027920Y-15062698D02*
X6037444Y-15072222D01*
X6037444Y-15072222D02*
X6046967Y-15091269D01*
X6046967Y-15091269D02*
X6046967Y-15138888D01*
X6046967Y-15138888D02*
X6037444Y-15157936D01*
X6037444Y-15157936D02*
X6027920Y-15167460D01*
X6027920Y-15167460D02*
X6008872Y-15176984D01*
X6008872Y-15176984D02*
X5951729Y-15176984D01*
X5951729Y-15176984D02*
X5932682Y-15167460D01*
X5932682Y-15167460D02*
X5923158Y-15157936D01*
X6218396Y-14976984D02*
X6180301Y-14976984D01*
X6180301Y-14976984D02*
X6161253Y-14986508D01*
X6161253Y-14986508D02*
X6151729Y-14996031D01*
X6151729Y-14996031D02*
X6132682Y-15024603D01*
X6132682Y-15024603D02*
X6123158Y-15062698D01*
X6123158Y-15062698D02*
X6123158Y-15138888D01*
X6123158Y-15138888D02*
X6132682Y-15157936D01*
X6132682Y-15157936D02*
X6142206Y-15167460D01*
X6142206Y-15167460D02*
X6161253Y-15176984D01*
X6161253Y-15176984D02*
X6199348Y-15176984D01*
X6199348Y-15176984D02*
X6218396Y-15167460D01*
X6218396Y-15167460D02*
X6227920Y-15157936D01*
X6227920Y-15157936D02*
X6237444Y-15138888D01*
X6237444Y-15138888D02*
X6237444Y-15091269D01*
X6237444Y-15091269D02*
X6227920Y-15072222D01*
X6227920Y-15072222D02*
X6218396Y-15062698D01*
X6218396Y-15062698D02*
X6199348Y-15053174D01*
X6199348Y-15053174D02*
X6161253Y-15053174D01*
X6161253Y-15053174D02*
X6142206Y-15062698D01*
X6142206Y-15062698D02*
X6132682Y-15072222D01*
X6132682Y-15072222D02*
X6123158Y-15091269D01*
X6313634Y-14976984D02*
X6313634Y-15015079D01*
X6389825Y-14976984D02*
X6389825Y-15015079D01*
X6685063Y-15253174D02*
X6675539Y-15243650D01*
X6675539Y-15243650D02*
X6656491Y-15215079D01*
X6656491Y-15215079D02*
X6646968Y-15196031D01*
X6646968Y-15196031D02*
X6637444Y-15167460D01*
X6637444Y-15167460D02*
X6627920Y-15119841D01*
X6627920Y-15119841D02*
X6627920Y-15081746D01*
X6627920Y-15081746D02*
X6637444Y-15034127D01*
X6637444Y-15034127D02*
X6646968Y-15005555D01*
X6646968Y-15005555D02*
X6656491Y-14986508D01*
X6656491Y-14986508D02*
X6675539Y-14957936D01*
X6675539Y-14957936D02*
X6685063Y-14948412D01*
X6799348Y-14976984D02*
X6818396Y-14976984D01*
X6818396Y-14976984D02*
X6837444Y-14986508D01*
X6837444Y-14986508D02*
X6846968Y-14996031D01*
X6846968Y-14996031D02*
X6856491Y-15015079D01*
X6856491Y-15015079D02*
X6866015Y-15053174D01*
X6866015Y-15053174D02*
X6866015Y-15100793D01*
X6866015Y-15100793D02*
X6856491Y-15138888D01*
X6856491Y-15138888D02*
X6846968Y-15157936D01*
X6846968Y-15157936D02*
X6837444Y-15167460D01*
X6837444Y-15167460D02*
X6818396Y-15176984D01*
X6818396Y-15176984D02*
X6799348Y-15176984D01*
X6799348Y-15176984D02*
X6780301Y-15167460D01*
X6780301Y-15167460D02*
X6770777Y-15157936D01*
X6770777Y-15157936D02*
X6761253Y-15138888D01*
X6761253Y-15138888D02*
X6751729Y-15100793D01*
X6751729Y-15100793D02*
X6751729Y-15053174D01*
X6751729Y-15053174D02*
X6761253Y-15015079D01*
X6761253Y-15015079D02*
X6770777Y-14996031D01*
X6770777Y-14996031D02*
X6780301Y-14986508D01*
X6780301Y-14986508D02*
X6799348Y-14976984D01*
X7104110Y-15176984D02*
X7104110Y-14976984D01*
X7189825Y-15176984D02*
X7189825Y-15072222D01*
X7189825Y-15072222D02*
X7180301Y-15053174D01*
X7180301Y-15053174D02*
X7161253Y-15043650D01*
X7161253Y-15043650D02*
X7132682Y-15043650D01*
X7132682Y-15043650D02*
X7113634Y-15053174D01*
X7113634Y-15053174D02*
X7104110Y-15062698D01*
X7313634Y-15176984D02*
X7294587Y-15167460D01*
X7294587Y-15167460D02*
X7285063Y-15157936D01*
X7285063Y-15157936D02*
X7275539Y-15138888D01*
X7275539Y-15138888D02*
X7275539Y-15081746D01*
X7275539Y-15081746D02*
X7285063Y-15062698D01*
X7285063Y-15062698D02*
X7294587Y-15053174D01*
X7294587Y-15053174D02*
X7313634Y-15043650D01*
X7313634Y-15043650D02*
X7342206Y-15043650D01*
X7342206Y-15043650D02*
X7361253Y-15053174D01*
X7361253Y-15053174D02*
X7370777Y-15062698D01*
X7370777Y-15062698D02*
X7380301Y-15081746D01*
X7380301Y-15081746D02*
X7380301Y-15138888D01*
X7380301Y-15138888D02*
X7370777Y-15157936D01*
X7370777Y-15157936D02*
X7361253Y-15167460D01*
X7361253Y-15167460D02*
X7342206Y-15176984D01*
X7342206Y-15176984D02*
X7313634Y-15176984D01*
X7494587Y-15176984D02*
X7475539Y-15167460D01*
X7475539Y-15167460D02*
X7466015Y-15148412D01*
X7466015Y-15148412D02*
X7466015Y-14976984D01*
X7646968Y-15167460D02*
X7627920Y-15176984D01*
X7627920Y-15176984D02*
X7589825Y-15176984D01*
X7589825Y-15176984D02*
X7570777Y-15167460D01*
X7570777Y-15167460D02*
X7561253Y-15148412D01*
X7561253Y-15148412D02*
X7561253Y-15072222D01*
X7561253Y-15072222D02*
X7570777Y-15053174D01*
X7570777Y-15053174D02*
X7589825Y-15043650D01*
X7589825Y-15043650D02*
X7627920Y-15043650D01*
X7627920Y-15043650D02*
X7646968Y-15053174D01*
X7646968Y-15053174D02*
X7656491Y-15072222D01*
X7656491Y-15072222D02*
X7656491Y-15091269D01*
X7656491Y-15091269D02*
X7561253Y-15110317D01*
X7732682Y-15167460D02*
X7751730Y-15176984D01*
X7751730Y-15176984D02*
X7789825Y-15176984D01*
X7789825Y-15176984D02*
X7808872Y-15167460D01*
X7808872Y-15167460D02*
X7818396Y-15148412D01*
X7818396Y-15148412D02*
X7818396Y-15138888D01*
X7818396Y-15138888D02*
X7808872Y-15119841D01*
X7808872Y-15119841D02*
X7789825Y-15110317D01*
X7789825Y-15110317D02*
X7761253Y-15110317D01*
X7761253Y-15110317D02*
X7742206Y-15100793D01*
X7742206Y-15100793D02*
X7732682Y-15081746D01*
X7732682Y-15081746D02*
X7732682Y-15072222D01*
X7732682Y-15072222D02*
X7742206Y-15053174D01*
X7742206Y-15053174D02*
X7761253Y-15043650D01*
X7761253Y-15043650D02*
X7789825Y-15043650D01*
X7789825Y-15043650D02*
X7808872Y-15053174D01*
X8056492Y-15100793D02*
X8208873Y-15100793D01*
X8132682Y-15176984D02*
X8132682Y-15024603D01*
X8542206Y-15043650D02*
X8542206Y-15176984D01*
X8494587Y-14967460D02*
X8446968Y-15110317D01*
X8446968Y-15110317D02*
X8570777Y-15110317D01*
X8789825Y-15167460D02*
X8808873Y-15176984D01*
X8808873Y-15176984D02*
X8846968Y-15176984D01*
X8846968Y-15176984D02*
X8866016Y-15167460D01*
X8866016Y-15167460D02*
X8875539Y-15148412D01*
X8875539Y-15148412D02*
X8875539Y-15138888D01*
X8875539Y-15138888D02*
X8866016Y-15119841D01*
X8866016Y-15119841D02*
X8846968Y-15110317D01*
X8846968Y-15110317D02*
X8818396Y-15110317D01*
X8818396Y-15110317D02*
X8799349Y-15100793D01*
X8799349Y-15100793D02*
X8789825Y-15081746D01*
X8789825Y-15081746D02*
X8789825Y-15072222D01*
X8789825Y-15072222D02*
X8799349Y-15053174D01*
X8799349Y-15053174D02*
X8818396Y-15043650D01*
X8818396Y-15043650D02*
X8846968Y-15043650D01*
X8846968Y-15043650D02*
X8866016Y-15053174D01*
X8989825Y-15176984D02*
X8970777Y-15167460D01*
X8970777Y-15167460D02*
X8961254Y-15148412D01*
X8961254Y-15148412D02*
X8961254Y-14976984D01*
X9094587Y-15176984D02*
X9075539Y-15167460D01*
X9075539Y-15167460D02*
X9066016Y-15157936D01*
X9066016Y-15157936D02*
X9056492Y-15138888D01*
X9056492Y-15138888D02*
X9056492Y-15081746D01*
X9056492Y-15081746D02*
X9066016Y-15062698D01*
X9066016Y-15062698D02*
X9075539Y-15053174D01*
X9075539Y-15053174D02*
X9094587Y-15043650D01*
X9094587Y-15043650D02*
X9123158Y-15043650D01*
X9123158Y-15043650D02*
X9142206Y-15053174D01*
X9142206Y-15053174D02*
X9151730Y-15062698D01*
X9151730Y-15062698D02*
X9161254Y-15081746D01*
X9161254Y-15081746D02*
X9161254Y-15138888D01*
X9161254Y-15138888D02*
X9151730Y-15157936D01*
X9151730Y-15157936D02*
X9142206Y-15167460D01*
X9142206Y-15167460D02*
X9123158Y-15176984D01*
X9123158Y-15176984D02*
X9094587Y-15176984D01*
X9218397Y-15043650D02*
X9294587Y-15043650D01*
X9246968Y-14976984D02*
X9246968Y-15148412D01*
X9246968Y-15148412D02*
X9256492Y-15167460D01*
X9256492Y-15167460D02*
X9275539Y-15176984D01*
X9275539Y-15176984D02*
X9294587Y-15176984D01*
X9351730Y-15167460D02*
X9370777Y-15176984D01*
X9370777Y-15176984D02*
X9408873Y-15176984D01*
X9408873Y-15176984D02*
X9427920Y-15167460D01*
X9427920Y-15167460D02*
X9437444Y-15148412D01*
X9437444Y-15148412D02*
X9437444Y-15138888D01*
X9437444Y-15138888D02*
X9427920Y-15119841D01*
X9427920Y-15119841D02*
X9408873Y-15110317D01*
X9408873Y-15110317D02*
X9380301Y-15110317D01*
X9380301Y-15110317D02*
X9361254Y-15100793D01*
X9361254Y-15100793D02*
X9351730Y-15081746D01*
X9351730Y-15081746D02*
X9351730Y-15072222D01*
X9351730Y-15072222D02*
X9361254Y-15053174D01*
X9361254Y-15053174D02*
X9380301Y-15043650D01*
X9380301Y-15043650D02*
X9408873Y-15043650D01*
X9408873Y-15043650D02*
X9427920Y-15053174D01*
X9504111Y-15253174D02*
X9513635Y-15243650D01*
X9513635Y-15243650D02*
X9532682Y-15215079D01*
X9532682Y-15215079D02*
X9542206Y-15196031D01*
X9542206Y-15196031D02*
X9551730Y-15167460D01*
X9551730Y-15167460D02*
X9561254Y-15119841D01*
X9561254Y-15119841D02*
X9561254Y-15081746D01*
X9561254Y-15081746D02*
X9551730Y-15034127D01*
X9551730Y-15034127D02*
X9542206Y-15005555D01*
X9542206Y-15005555D02*
X9532682Y-14986508D01*
X9532682Y-14986508D02*
X9513635Y-14957936D01*
X9513635Y-14957936D02*
X9504111Y-14948412D01*
D10*
X3072000Y-15311500D02*
X3072000Y-15387500D01*
X3034000Y-15349500D02*
X3110000Y-15349500D01*
D11*
X3408872Y-15240984D02*
X3427920Y-15240984D01*
X3427920Y-15240984D02*
X3446967Y-15250508D01*
X3446967Y-15250508D02*
X3456491Y-15260031D01*
X3456491Y-15260031D02*
X3466015Y-15279079D01*
X3466015Y-15279079D02*
X3475539Y-15317174D01*
X3475539Y-15317174D02*
X3475539Y-15364793D01*
X3475539Y-15364793D02*
X3466015Y-15402888D01*
X3466015Y-15402888D02*
X3456491Y-15421936D01*
X3456491Y-15421936D02*
X3446967Y-15431460D01*
X3446967Y-15431460D02*
X3427920Y-15440984D01*
X3427920Y-15440984D02*
X3408872Y-15440984D01*
X3408872Y-15440984D02*
X3389824Y-15431460D01*
X3389824Y-15431460D02*
X3380301Y-15421936D01*
X3380301Y-15421936D02*
X3370777Y-15402888D01*
X3370777Y-15402888D02*
X3361253Y-15364793D01*
X3361253Y-15364793D02*
X3361253Y-15317174D01*
X3361253Y-15317174D02*
X3370777Y-15279079D01*
X3370777Y-15279079D02*
X3380301Y-15260031D01*
X3380301Y-15260031D02*
X3389824Y-15250508D01*
X3389824Y-15250508D02*
X3408872Y-15240984D01*
X3561253Y-15421936D02*
X3570777Y-15431460D01*
X3570777Y-15431460D02*
X3561253Y-15440984D01*
X3561253Y-15440984D02*
X3551729Y-15431460D01*
X3551729Y-15431460D02*
X3561253Y-15421936D01*
X3561253Y-15421936D02*
X3561253Y-15440984D01*
X3637443Y-15240984D02*
X3770777Y-15240984D01*
X3770777Y-15240984D02*
X3685062Y-15440984D01*
X3932682Y-15240984D02*
X3894586Y-15240984D01*
X3894586Y-15240984D02*
X3875539Y-15250508D01*
X3875539Y-15250508D02*
X3866015Y-15260031D01*
X3866015Y-15260031D02*
X3846967Y-15288603D01*
X3846967Y-15288603D02*
X3837443Y-15326698D01*
X3837443Y-15326698D02*
X3837443Y-15402888D01*
X3837443Y-15402888D02*
X3846967Y-15421936D01*
X3846967Y-15421936D02*
X3856491Y-15431460D01*
X3856491Y-15431460D02*
X3875539Y-15440984D01*
X3875539Y-15440984D02*
X3913634Y-15440984D01*
X3913634Y-15440984D02*
X3932682Y-15431460D01*
X3932682Y-15431460D02*
X3942205Y-15421936D01*
X3942205Y-15421936D02*
X3951729Y-15402888D01*
X3951729Y-15402888D02*
X3951729Y-15355269D01*
X3951729Y-15355269D02*
X3942205Y-15336222D01*
X3942205Y-15336222D02*
X3932682Y-15326698D01*
X3932682Y-15326698D02*
X3913634Y-15317174D01*
X3913634Y-15317174D02*
X3875539Y-15317174D01*
X3875539Y-15317174D02*
X3856491Y-15326698D01*
X3856491Y-15326698D02*
X3846967Y-15336222D01*
X3846967Y-15336222D02*
X3837443Y-15355269D01*
X4075539Y-15240984D02*
X4094586Y-15240984D01*
X4094586Y-15240984D02*
X4113634Y-15250508D01*
X4113634Y-15250508D02*
X4123158Y-15260031D01*
X4123158Y-15260031D02*
X4132682Y-15279079D01*
X4132682Y-15279079D02*
X4142205Y-15317174D01*
X4142205Y-15317174D02*
X4142205Y-15364793D01*
X4142205Y-15364793D02*
X4132682Y-15402888D01*
X4132682Y-15402888D02*
X4123158Y-15421936D01*
X4123158Y-15421936D02*
X4113634Y-15431460D01*
X4113634Y-15431460D02*
X4094586Y-15440984D01*
X4094586Y-15440984D02*
X4075539Y-15440984D01*
X4075539Y-15440984D02*
X4056491Y-15431460D01*
X4056491Y-15431460D02*
X4046967Y-15421936D01*
X4046967Y-15421936D02*
X4037443Y-15402888D01*
X4037443Y-15402888D02*
X4027920Y-15364793D01*
X4027920Y-15364793D02*
X4027920Y-15317174D01*
X4027920Y-15317174D02*
X4037443Y-15279079D01*
X4037443Y-15279079D02*
X4046967Y-15260031D01*
X4046967Y-15260031D02*
X4056491Y-15250508D01*
X4056491Y-15250508D02*
X4075539Y-15240984D01*
X4227920Y-15440984D02*
X4227920Y-15307650D01*
X4227920Y-15326698D02*
X4237444Y-15317174D01*
X4237444Y-15317174D02*
X4256491Y-15307650D01*
X4256491Y-15307650D02*
X4285063Y-15307650D01*
X4285063Y-15307650D02*
X4304110Y-15317174D01*
X4304110Y-15317174D02*
X4313634Y-15336222D01*
X4313634Y-15336222D02*
X4313634Y-15440984D01*
X4313634Y-15336222D02*
X4323158Y-15317174D01*
X4323158Y-15317174D02*
X4342205Y-15307650D01*
X4342205Y-15307650D02*
X4370777Y-15307650D01*
X4370777Y-15307650D02*
X4389825Y-15317174D01*
X4389825Y-15317174D02*
X4399348Y-15336222D01*
X4399348Y-15336222D02*
X4399348Y-15440984D01*
X4494586Y-15440984D02*
X4494586Y-15307650D01*
X4494586Y-15326698D02*
X4504110Y-15317174D01*
X4504110Y-15317174D02*
X4523158Y-15307650D01*
X4523158Y-15307650D02*
X4551729Y-15307650D01*
X4551729Y-15307650D02*
X4570777Y-15317174D01*
X4570777Y-15317174D02*
X4580301Y-15336222D01*
X4580301Y-15336222D02*
X4580301Y-15440984D01*
X4580301Y-15336222D02*
X4589825Y-15317174D01*
X4589825Y-15317174D02*
X4608872Y-15307650D01*
X4608872Y-15307650D02*
X4637444Y-15307650D01*
X4637444Y-15307650D02*
X4656491Y-15317174D01*
X4656491Y-15317174D02*
X4666015Y-15336222D01*
X4666015Y-15336222D02*
X4666015Y-15440984D01*
X5056491Y-15231460D02*
X4885063Y-15488603D01*
X5313634Y-15240984D02*
X5332682Y-15240984D01*
X5332682Y-15240984D02*
X5351729Y-15250508D01*
X5351729Y-15250508D02*
X5361253Y-15260031D01*
X5361253Y-15260031D02*
X5370777Y-15279079D01*
X5370777Y-15279079D02*
X5380301Y-15317174D01*
X5380301Y-15317174D02*
X5380301Y-15364793D01*
X5380301Y-15364793D02*
X5370777Y-15402888D01*
X5370777Y-15402888D02*
X5361253Y-15421936D01*
X5361253Y-15421936D02*
X5351729Y-15431460D01*
X5351729Y-15431460D02*
X5332682Y-15440984D01*
X5332682Y-15440984D02*
X5313634Y-15440984D01*
X5313634Y-15440984D02*
X5294587Y-15431460D01*
X5294587Y-15431460D02*
X5285063Y-15421936D01*
X5285063Y-15421936D02*
X5275539Y-15402888D01*
X5275539Y-15402888D02*
X5266015Y-15364793D01*
X5266015Y-15364793D02*
X5266015Y-15317174D01*
X5266015Y-15317174D02*
X5275539Y-15279079D01*
X5275539Y-15279079D02*
X5285063Y-15260031D01*
X5285063Y-15260031D02*
X5294587Y-15250508D01*
X5294587Y-15250508D02*
X5313634Y-15240984D01*
X5466015Y-15421936D02*
X5475539Y-15431460D01*
X5475539Y-15431460D02*
X5466015Y-15440984D01*
X5466015Y-15440984D02*
X5456491Y-15431460D01*
X5456491Y-15431460D02*
X5466015Y-15421936D01*
X5466015Y-15421936D02*
X5466015Y-15440984D01*
X5599348Y-15240984D02*
X5618396Y-15240984D01*
X5618396Y-15240984D02*
X5637444Y-15250508D01*
X5637444Y-15250508D02*
X5646967Y-15260031D01*
X5646967Y-15260031D02*
X5656491Y-15279079D01*
X5656491Y-15279079D02*
X5666015Y-15317174D01*
X5666015Y-15317174D02*
X5666015Y-15364793D01*
X5666015Y-15364793D02*
X5656491Y-15402888D01*
X5656491Y-15402888D02*
X5646967Y-15421936D01*
X5646967Y-15421936D02*
X5637444Y-15431460D01*
X5637444Y-15431460D02*
X5618396Y-15440984D01*
X5618396Y-15440984D02*
X5599348Y-15440984D01*
X5599348Y-15440984D02*
X5580301Y-15431460D01*
X5580301Y-15431460D02*
X5570777Y-15421936D01*
X5570777Y-15421936D02*
X5561253Y-15402888D01*
X5561253Y-15402888D02*
X5551729Y-15364793D01*
X5551729Y-15364793D02*
X5551729Y-15317174D01*
X5551729Y-15317174D02*
X5561253Y-15279079D01*
X5561253Y-15279079D02*
X5570777Y-15260031D01*
X5570777Y-15260031D02*
X5580301Y-15250508D01*
X5580301Y-15250508D02*
X5599348Y-15240984D01*
X5742206Y-15260031D02*
X5751729Y-15250508D01*
X5751729Y-15250508D02*
X5770777Y-15240984D01*
X5770777Y-15240984D02*
X5818396Y-15240984D01*
X5818396Y-15240984D02*
X5837444Y-15250508D01*
X5837444Y-15250508D02*
X5846967Y-15260031D01*
X5846967Y-15260031D02*
X5856491Y-15279079D01*
X5856491Y-15279079D02*
X5856491Y-15298127D01*
X5856491Y-15298127D02*
X5846967Y-15326698D01*
X5846967Y-15326698D02*
X5732682Y-15440984D01*
X5732682Y-15440984D02*
X5856491Y-15440984D01*
X5951729Y-15440984D02*
X5989825Y-15440984D01*
X5989825Y-15440984D02*
X6008872Y-15431460D01*
X6008872Y-15431460D02*
X6018396Y-15421936D01*
X6018396Y-15421936D02*
X6037444Y-15393365D01*
X6037444Y-15393365D02*
X6046967Y-15355269D01*
X6046967Y-15355269D02*
X6046967Y-15279079D01*
X6046967Y-15279079D02*
X6037444Y-15260031D01*
X6037444Y-15260031D02*
X6027920Y-15250508D01*
X6027920Y-15250508D02*
X6008872Y-15240984D01*
X6008872Y-15240984D02*
X5970777Y-15240984D01*
X5970777Y-15240984D02*
X5951729Y-15250508D01*
X5951729Y-15250508D02*
X5942206Y-15260031D01*
X5942206Y-15260031D02*
X5932682Y-15279079D01*
X5932682Y-15279079D02*
X5932682Y-15326698D01*
X5932682Y-15326698D02*
X5942206Y-15345746D01*
X5942206Y-15345746D02*
X5951729Y-15355269D01*
X5951729Y-15355269D02*
X5970777Y-15364793D01*
X5970777Y-15364793D02*
X6008872Y-15364793D01*
X6008872Y-15364793D02*
X6027920Y-15355269D01*
X6027920Y-15355269D02*
X6037444Y-15345746D01*
X6037444Y-15345746D02*
X6046967Y-15326698D01*
X6142206Y-15440984D02*
X6180301Y-15440984D01*
X6180301Y-15440984D02*
X6199348Y-15431460D01*
X6199348Y-15431460D02*
X6208872Y-15421936D01*
X6208872Y-15421936D02*
X6227920Y-15393365D01*
X6227920Y-15393365D02*
X6237444Y-15355269D01*
X6237444Y-15355269D02*
X6237444Y-15279079D01*
X6237444Y-15279079D02*
X6227920Y-15260031D01*
X6227920Y-15260031D02*
X6218396Y-15250508D01*
X6218396Y-15250508D02*
X6199348Y-15240984D01*
X6199348Y-15240984D02*
X6161253Y-15240984D01*
X6161253Y-15240984D02*
X6142206Y-15250508D01*
X6142206Y-15250508D02*
X6132682Y-15260031D01*
X6132682Y-15260031D02*
X6123158Y-15279079D01*
X6123158Y-15279079D02*
X6123158Y-15326698D01*
X6123158Y-15326698D02*
X6132682Y-15345746D01*
X6132682Y-15345746D02*
X6142206Y-15355269D01*
X6142206Y-15355269D02*
X6161253Y-15364793D01*
X6161253Y-15364793D02*
X6199348Y-15364793D01*
X6199348Y-15364793D02*
X6218396Y-15355269D01*
X6218396Y-15355269D02*
X6227920Y-15345746D01*
X6227920Y-15345746D02*
X6237444Y-15326698D01*
X6313634Y-15240984D02*
X6313634Y-15279079D01*
X6389825Y-15240984D02*
X6389825Y-15279079D01*
X6685063Y-15517174D02*
X6675539Y-15507650D01*
X6675539Y-15507650D02*
X6656491Y-15479079D01*
X6656491Y-15479079D02*
X6646968Y-15460031D01*
X6646968Y-15460031D02*
X6637444Y-15431460D01*
X6637444Y-15431460D02*
X6627920Y-15383841D01*
X6627920Y-15383841D02*
X6627920Y-15345746D01*
X6627920Y-15345746D02*
X6637444Y-15298127D01*
X6637444Y-15298127D02*
X6646968Y-15269555D01*
X6646968Y-15269555D02*
X6656491Y-15250508D01*
X6656491Y-15250508D02*
X6675539Y-15221936D01*
X6675539Y-15221936D02*
X6685063Y-15212412D01*
X6742206Y-15240984D02*
X6866015Y-15240984D01*
X6866015Y-15240984D02*
X6799348Y-15317174D01*
X6799348Y-15317174D02*
X6827920Y-15317174D01*
X6827920Y-15317174D02*
X6846968Y-15326698D01*
X6846968Y-15326698D02*
X6856491Y-15336222D01*
X6856491Y-15336222D02*
X6866015Y-15355269D01*
X6866015Y-15355269D02*
X6866015Y-15402888D01*
X6866015Y-15402888D02*
X6856491Y-15421936D01*
X6856491Y-15421936D02*
X6846968Y-15431460D01*
X6846968Y-15431460D02*
X6827920Y-15440984D01*
X6827920Y-15440984D02*
X6770777Y-15440984D01*
X6770777Y-15440984D02*
X6751729Y-15431460D01*
X6751729Y-15431460D02*
X6742206Y-15421936D01*
X7104110Y-15440984D02*
X7104110Y-15240984D01*
X7189825Y-15440984D02*
X7189825Y-15336222D01*
X7189825Y-15336222D02*
X7180301Y-15317174D01*
X7180301Y-15317174D02*
X7161253Y-15307650D01*
X7161253Y-15307650D02*
X7132682Y-15307650D01*
X7132682Y-15307650D02*
X7113634Y-15317174D01*
X7113634Y-15317174D02*
X7104110Y-15326698D01*
X7313634Y-15440984D02*
X7294587Y-15431460D01*
X7294587Y-15431460D02*
X7285063Y-15421936D01*
X7285063Y-15421936D02*
X7275539Y-15402888D01*
X7275539Y-15402888D02*
X7275539Y-15345746D01*
X7275539Y-15345746D02*
X7285063Y-15326698D01*
X7285063Y-15326698D02*
X7294587Y-15317174D01*
X7294587Y-15317174D02*
X7313634Y-15307650D01*
X7313634Y-15307650D02*
X7342206Y-15307650D01*
X7342206Y-15307650D02*
X7361253Y-15317174D01*
X7361253Y-15317174D02*
X7370777Y-15326698D01*
X7370777Y-15326698D02*
X7380301Y-15345746D01*
X7380301Y-15345746D02*
X7380301Y-15402888D01*
X7380301Y-15402888D02*
X7370777Y-15421936D01*
X7370777Y-15421936D02*
X7361253Y-15431460D01*
X7361253Y-15431460D02*
X7342206Y-15440984D01*
X7342206Y-15440984D02*
X7313634Y-15440984D01*
X7494587Y-15440984D02*
X7475539Y-15431460D01*
X7475539Y-15431460D02*
X7466015Y-15412412D01*
X7466015Y-15412412D02*
X7466015Y-15240984D01*
X7646968Y-15431460D02*
X7627920Y-15440984D01*
X7627920Y-15440984D02*
X7589825Y-15440984D01*
X7589825Y-15440984D02*
X7570777Y-15431460D01*
X7570777Y-15431460D02*
X7561253Y-15412412D01*
X7561253Y-15412412D02*
X7561253Y-15336222D01*
X7561253Y-15336222D02*
X7570777Y-15317174D01*
X7570777Y-15317174D02*
X7589825Y-15307650D01*
X7589825Y-15307650D02*
X7627920Y-15307650D01*
X7627920Y-15307650D02*
X7646968Y-15317174D01*
X7646968Y-15317174D02*
X7656491Y-15336222D01*
X7656491Y-15336222D02*
X7656491Y-15355269D01*
X7656491Y-15355269D02*
X7561253Y-15374317D01*
X7732682Y-15431460D02*
X7751730Y-15440984D01*
X7751730Y-15440984D02*
X7789825Y-15440984D01*
X7789825Y-15440984D02*
X7808872Y-15431460D01*
X7808872Y-15431460D02*
X7818396Y-15412412D01*
X7818396Y-15412412D02*
X7818396Y-15402888D01*
X7818396Y-15402888D02*
X7808872Y-15383841D01*
X7808872Y-15383841D02*
X7789825Y-15374317D01*
X7789825Y-15374317D02*
X7761253Y-15374317D01*
X7761253Y-15374317D02*
X7742206Y-15364793D01*
X7742206Y-15364793D02*
X7732682Y-15345746D01*
X7732682Y-15345746D02*
X7732682Y-15336222D01*
X7732682Y-15336222D02*
X7742206Y-15317174D01*
X7742206Y-15317174D02*
X7761253Y-15307650D01*
X7761253Y-15307650D02*
X7789825Y-15307650D01*
X7789825Y-15307650D02*
X7808872Y-15317174D01*
X7885063Y-15517174D02*
X7894587Y-15507650D01*
X7894587Y-15507650D02*
X7913634Y-15479079D01*
X7913634Y-15479079D02*
X7923158Y-15460031D01*
X7923158Y-15460031D02*
X7932682Y-15431460D01*
X7932682Y-15431460D02*
X7942206Y-15383841D01*
X7942206Y-15383841D02*
X7942206Y-15345746D01*
X7942206Y-15345746D02*
X7932682Y-15298127D01*
X7932682Y-15298127D02*
X7923158Y-15269555D01*
X7923158Y-15269555D02*
X7913634Y-15250508D01*
X7913634Y-15250508D02*
X7894587Y-15221936D01*
X7894587Y-15221936D02*
X7885063Y-15212412D01*
D10*
X3098841Y-15640441D02*
X3098841Y-15586559D01*
X3044959Y-15586559D01*
X3044959Y-15640441D01*
X3098841Y-15640441D01*
D11*
X3408872Y-15504984D02*
X3427920Y-15504984D01*
X3427920Y-15504984D02*
X3446967Y-15514508D01*
X3446967Y-15514508D02*
X3456491Y-15524031D01*
X3456491Y-15524031D02*
X3466015Y-15543079D01*
X3466015Y-15543079D02*
X3475539Y-15581174D01*
X3475539Y-15581174D02*
X3475539Y-15628793D01*
X3475539Y-15628793D02*
X3466015Y-15666888D01*
X3466015Y-15666888D02*
X3456491Y-15685936D01*
X3456491Y-15685936D02*
X3446967Y-15695460D01*
X3446967Y-15695460D02*
X3427920Y-15704984D01*
X3427920Y-15704984D02*
X3408872Y-15704984D01*
X3408872Y-15704984D02*
X3389824Y-15695460D01*
X3389824Y-15695460D02*
X3380301Y-15685936D01*
X3380301Y-15685936D02*
X3370777Y-15666888D01*
X3370777Y-15666888D02*
X3361253Y-15628793D01*
X3361253Y-15628793D02*
X3361253Y-15581174D01*
X3361253Y-15581174D02*
X3370777Y-15543079D01*
X3370777Y-15543079D02*
X3380301Y-15524031D01*
X3380301Y-15524031D02*
X3389824Y-15514508D01*
X3389824Y-15514508D02*
X3408872Y-15504984D01*
X3561253Y-15685936D02*
X3570777Y-15695460D01*
X3570777Y-15695460D02*
X3561253Y-15704984D01*
X3561253Y-15704984D02*
X3551729Y-15695460D01*
X3551729Y-15695460D02*
X3561253Y-15685936D01*
X3561253Y-15685936D02*
X3561253Y-15704984D01*
X3637443Y-15504984D02*
X3770777Y-15504984D01*
X3770777Y-15504984D02*
X3685062Y-15704984D01*
X3932682Y-15504984D02*
X3894586Y-15504984D01*
X3894586Y-15504984D02*
X3875539Y-15514508D01*
X3875539Y-15514508D02*
X3866015Y-15524031D01*
X3866015Y-15524031D02*
X3846967Y-15552603D01*
X3846967Y-15552603D02*
X3837443Y-15590698D01*
X3837443Y-15590698D02*
X3837443Y-15666888D01*
X3837443Y-15666888D02*
X3846967Y-15685936D01*
X3846967Y-15685936D02*
X3856491Y-15695460D01*
X3856491Y-15695460D02*
X3875539Y-15704984D01*
X3875539Y-15704984D02*
X3913634Y-15704984D01*
X3913634Y-15704984D02*
X3932682Y-15695460D01*
X3932682Y-15695460D02*
X3942205Y-15685936D01*
X3942205Y-15685936D02*
X3951729Y-15666888D01*
X3951729Y-15666888D02*
X3951729Y-15619269D01*
X3951729Y-15619269D02*
X3942205Y-15600222D01*
X3942205Y-15600222D02*
X3932682Y-15590698D01*
X3932682Y-15590698D02*
X3913634Y-15581174D01*
X3913634Y-15581174D02*
X3875539Y-15581174D01*
X3875539Y-15581174D02*
X3856491Y-15590698D01*
X3856491Y-15590698D02*
X3846967Y-15600222D01*
X3846967Y-15600222D02*
X3837443Y-15619269D01*
X4027920Y-15524031D02*
X4037443Y-15514508D01*
X4037443Y-15514508D02*
X4056491Y-15504984D01*
X4056491Y-15504984D02*
X4104110Y-15504984D01*
X4104110Y-15504984D02*
X4123158Y-15514508D01*
X4123158Y-15514508D02*
X4132682Y-15524031D01*
X4132682Y-15524031D02*
X4142205Y-15543079D01*
X4142205Y-15543079D02*
X4142205Y-15562127D01*
X4142205Y-15562127D02*
X4132682Y-15590698D01*
X4132682Y-15590698D02*
X4018396Y-15704984D01*
X4018396Y-15704984D02*
X4142205Y-15704984D01*
X4227920Y-15704984D02*
X4227920Y-15571650D01*
X4227920Y-15590698D02*
X4237444Y-15581174D01*
X4237444Y-15581174D02*
X4256491Y-15571650D01*
X4256491Y-15571650D02*
X4285063Y-15571650D01*
X4285063Y-15571650D02*
X4304110Y-15581174D01*
X4304110Y-15581174D02*
X4313634Y-15600222D01*
X4313634Y-15600222D02*
X4313634Y-15704984D01*
X4313634Y-15600222D02*
X4323158Y-15581174D01*
X4323158Y-15581174D02*
X4342205Y-15571650D01*
X4342205Y-15571650D02*
X4370777Y-15571650D01*
X4370777Y-15571650D02*
X4389825Y-15581174D01*
X4389825Y-15581174D02*
X4399348Y-15600222D01*
X4399348Y-15600222D02*
X4399348Y-15704984D01*
X4494586Y-15704984D02*
X4494586Y-15571650D01*
X4494586Y-15590698D02*
X4504110Y-15581174D01*
X4504110Y-15581174D02*
X4523158Y-15571650D01*
X4523158Y-15571650D02*
X4551729Y-15571650D01*
X4551729Y-15571650D02*
X4570777Y-15581174D01*
X4570777Y-15581174D02*
X4580301Y-15600222D01*
X4580301Y-15600222D02*
X4580301Y-15704984D01*
X4580301Y-15600222D02*
X4589825Y-15581174D01*
X4589825Y-15581174D02*
X4608872Y-15571650D01*
X4608872Y-15571650D02*
X4637444Y-15571650D01*
X4637444Y-15571650D02*
X4656491Y-15581174D01*
X4656491Y-15581174D02*
X4666015Y-15600222D01*
X4666015Y-15600222D02*
X4666015Y-15704984D01*
X5056491Y-15495460D02*
X4885063Y-15752603D01*
X5313634Y-15504984D02*
X5332682Y-15504984D01*
X5332682Y-15504984D02*
X5351729Y-15514508D01*
X5351729Y-15514508D02*
X5361253Y-15524031D01*
X5361253Y-15524031D02*
X5370777Y-15543079D01*
X5370777Y-15543079D02*
X5380301Y-15581174D01*
X5380301Y-15581174D02*
X5380301Y-15628793D01*
X5380301Y-15628793D02*
X5370777Y-15666888D01*
X5370777Y-15666888D02*
X5361253Y-15685936D01*
X5361253Y-15685936D02*
X5351729Y-15695460D01*
X5351729Y-15695460D02*
X5332682Y-15704984D01*
X5332682Y-15704984D02*
X5313634Y-15704984D01*
X5313634Y-15704984D02*
X5294587Y-15695460D01*
X5294587Y-15695460D02*
X5285063Y-15685936D01*
X5285063Y-15685936D02*
X5275539Y-15666888D01*
X5275539Y-15666888D02*
X5266015Y-15628793D01*
X5266015Y-15628793D02*
X5266015Y-15581174D01*
X5266015Y-15581174D02*
X5275539Y-15543079D01*
X5275539Y-15543079D02*
X5285063Y-15524031D01*
X5285063Y-15524031D02*
X5294587Y-15514508D01*
X5294587Y-15514508D02*
X5313634Y-15504984D01*
X5466015Y-15685936D02*
X5475539Y-15695460D01*
X5475539Y-15695460D02*
X5466015Y-15704984D01*
X5466015Y-15704984D02*
X5456491Y-15695460D01*
X5456491Y-15695460D02*
X5466015Y-15685936D01*
X5466015Y-15685936D02*
X5466015Y-15704984D01*
X5599348Y-15504984D02*
X5618396Y-15504984D01*
X5618396Y-15504984D02*
X5637444Y-15514508D01*
X5637444Y-15514508D02*
X5646967Y-15524031D01*
X5646967Y-15524031D02*
X5656491Y-15543079D01*
X5656491Y-15543079D02*
X5666015Y-15581174D01*
X5666015Y-15581174D02*
X5666015Y-15628793D01*
X5666015Y-15628793D02*
X5656491Y-15666888D01*
X5656491Y-15666888D02*
X5646967Y-15685936D01*
X5646967Y-15685936D02*
X5637444Y-15695460D01*
X5637444Y-15695460D02*
X5618396Y-15704984D01*
X5618396Y-15704984D02*
X5599348Y-15704984D01*
X5599348Y-15704984D02*
X5580301Y-15695460D01*
X5580301Y-15695460D02*
X5570777Y-15685936D01*
X5570777Y-15685936D02*
X5561253Y-15666888D01*
X5561253Y-15666888D02*
X5551729Y-15628793D01*
X5551729Y-15628793D02*
X5551729Y-15581174D01*
X5551729Y-15581174D02*
X5561253Y-15543079D01*
X5561253Y-15543079D02*
X5570777Y-15524031D01*
X5570777Y-15524031D02*
X5580301Y-15514508D01*
X5580301Y-15514508D02*
X5599348Y-15504984D01*
X5732682Y-15504984D02*
X5856491Y-15504984D01*
X5856491Y-15504984D02*
X5789825Y-15581174D01*
X5789825Y-15581174D02*
X5818396Y-15581174D01*
X5818396Y-15581174D02*
X5837444Y-15590698D01*
X5837444Y-15590698D02*
X5846967Y-15600222D01*
X5846967Y-15600222D02*
X5856491Y-15619269D01*
X5856491Y-15619269D02*
X5856491Y-15666888D01*
X5856491Y-15666888D02*
X5846967Y-15685936D01*
X5846967Y-15685936D02*
X5837444Y-15695460D01*
X5837444Y-15695460D02*
X5818396Y-15704984D01*
X5818396Y-15704984D02*
X5761253Y-15704984D01*
X5761253Y-15704984D02*
X5742206Y-15695460D01*
X5742206Y-15695460D02*
X5732682Y-15685936D01*
X5980301Y-15504984D02*
X5999348Y-15504984D01*
X5999348Y-15504984D02*
X6018396Y-15514508D01*
X6018396Y-15514508D02*
X6027920Y-15524031D01*
X6027920Y-15524031D02*
X6037444Y-15543079D01*
X6037444Y-15543079D02*
X6046967Y-15581174D01*
X6046967Y-15581174D02*
X6046967Y-15628793D01*
X6046967Y-15628793D02*
X6037444Y-15666888D01*
X6037444Y-15666888D02*
X6027920Y-15685936D01*
X6027920Y-15685936D02*
X6018396Y-15695460D01*
X6018396Y-15695460D02*
X5999348Y-15704984D01*
X5999348Y-15704984D02*
X5980301Y-15704984D01*
X5980301Y-15704984D02*
X5961253Y-15695460D01*
X5961253Y-15695460D02*
X5951729Y-15685936D01*
X5951729Y-15685936D02*
X5942206Y-15666888D01*
X5942206Y-15666888D02*
X5932682Y-15628793D01*
X5932682Y-15628793D02*
X5932682Y-15581174D01*
X5932682Y-15581174D02*
X5942206Y-15543079D01*
X5942206Y-15543079D02*
X5951729Y-15524031D01*
X5951729Y-15524031D02*
X5961253Y-15514508D01*
X5961253Y-15514508D02*
X5980301Y-15504984D01*
X6170777Y-15504984D02*
X6189825Y-15504984D01*
X6189825Y-15504984D02*
X6208872Y-15514508D01*
X6208872Y-15514508D02*
X6218396Y-15524031D01*
X6218396Y-15524031D02*
X6227920Y-15543079D01*
X6227920Y-15543079D02*
X6237444Y-15581174D01*
X6237444Y-15581174D02*
X6237444Y-15628793D01*
X6237444Y-15628793D02*
X6227920Y-15666888D01*
X6227920Y-15666888D02*
X6218396Y-15685936D01*
X6218396Y-15685936D02*
X6208872Y-15695460D01*
X6208872Y-15695460D02*
X6189825Y-15704984D01*
X6189825Y-15704984D02*
X6170777Y-15704984D01*
X6170777Y-15704984D02*
X6151729Y-15695460D01*
X6151729Y-15695460D02*
X6142206Y-15685936D01*
X6142206Y-15685936D02*
X6132682Y-15666888D01*
X6132682Y-15666888D02*
X6123158Y-15628793D01*
X6123158Y-15628793D02*
X6123158Y-15581174D01*
X6123158Y-15581174D02*
X6132682Y-15543079D01*
X6132682Y-15543079D02*
X6142206Y-15524031D01*
X6142206Y-15524031D02*
X6151729Y-15514508D01*
X6151729Y-15514508D02*
X6170777Y-15504984D01*
X6313634Y-15504984D02*
X6313634Y-15543079D01*
X6389825Y-15504984D02*
X6389825Y-15543079D01*
X6685063Y-15781174D02*
X6675539Y-15771650D01*
X6675539Y-15771650D02*
X6656491Y-15743079D01*
X6656491Y-15743079D02*
X6646968Y-15724031D01*
X6646968Y-15724031D02*
X6637444Y-15695460D01*
X6637444Y-15695460D02*
X6627920Y-15647841D01*
X6627920Y-15647841D02*
X6627920Y-15609746D01*
X6627920Y-15609746D02*
X6637444Y-15562127D01*
X6637444Y-15562127D02*
X6646968Y-15533555D01*
X6646968Y-15533555D02*
X6656491Y-15514508D01*
X6656491Y-15514508D02*
X6675539Y-15485936D01*
X6675539Y-15485936D02*
X6685063Y-15476412D01*
X6742206Y-15504984D02*
X6866015Y-15504984D01*
X6866015Y-15504984D02*
X6799348Y-15581174D01*
X6799348Y-15581174D02*
X6827920Y-15581174D01*
X6827920Y-15581174D02*
X6846968Y-15590698D01*
X6846968Y-15590698D02*
X6856491Y-15600222D01*
X6856491Y-15600222D02*
X6866015Y-15619269D01*
X6866015Y-15619269D02*
X6866015Y-15666888D01*
X6866015Y-15666888D02*
X6856491Y-15685936D01*
X6856491Y-15685936D02*
X6846968Y-15695460D01*
X6846968Y-15695460D02*
X6827920Y-15704984D01*
X6827920Y-15704984D02*
X6770777Y-15704984D01*
X6770777Y-15704984D02*
X6751729Y-15695460D01*
X6751729Y-15695460D02*
X6742206Y-15685936D01*
X7104110Y-15704984D02*
X7104110Y-15504984D01*
X7189825Y-15704984D02*
X7189825Y-15600222D01*
X7189825Y-15600222D02*
X7180301Y-15581174D01*
X7180301Y-15581174D02*
X7161253Y-15571650D01*
X7161253Y-15571650D02*
X7132682Y-15571650D01*
X7132682Y-15571650D02*
X7113634Y-15581174D01*
X7113634Y-15581174D02*
X7104110Y-15590698D01*
X7313634Y-15704984D02*
X7294587Y-15695460D01*
X7294587Y-15695460D02*
X7285063Y-15685936D01*
X7285063Y-15685936D02*
X7275539Y-15666888D01*
X7275539Y-15666888D02*
X7275539Y-15609746D01*
X7275539Y-15609746D02*
X7285063Y-15590698D01*
X7285063Y-15590698D02*
X7294587Y-15581174D01*
X7294587Y-15581174D02*
X7313634Y-15571650D01*
X7313634Y-15571650D02*
X7342206Y-15571650D01*
X7342206Y-15571650D02*
X7361253Y-15581174D01*
X7361253Y-15581174D02*
X7370777Y-15590698D01*
X7370777Y-15590698D02*
X7380301Y-15609746D01*
X7380301Y-15609746D02*
X7380301Y-15666888D01*
X7380301Y-15666888D02*
X7370777Y-15685936D01*
X7370777Y-15685936D02*
X7361253Y-15695460D01*
X7361253Y-15695460D02*
X7342206Y-15704984D01*
X7342206Y-15704984D02*
X7313634Y-15704984D01*
X7494587Y-15704984D02*
X7475539Y-15695460D01*
X7475539Y-15695460D02*
X7466015Y-15676412D01*
X7466015Y-15676412D02*
X7466015Y-15504984D01*
X7646968Y-15695460D02*
X7627920Y-15704984D01*
X7627920Y-15704984D02*
X7589825Y-15704984D01*
X7589825Y-15704984D02*
X7570777Y-15695460D01*
X7570777Y-15695460D02*
X7561253Y-15676412D01*
X7561253Y-15676412D02*
X7561253Y-15600222D01*
X7561253Y-15600222D02*
X7570777Y-15581174D01*
X7570777Y-15581174D02*
X7589825Y-15571650D01*
X7589825Y-15571650D02*
X7627920Y-15571650D01*
X7627920Y-15571650D02*
X7646968Y-15581174D01*
X7646968Y-15581174D02*
X7656491Y-15600222D01*
X7656491Y-15600222D02*
X7656491Y-15619269D01*
X7656491Y-15619269D02*
X7561253Y-15638317D01*
X7732682Y-15695460D02*
X7751730Y-15704984D01*
X7751730Y-15704984D02*
X7789825Y-15704984D01*
X7789825Y-15704984D02*
X7808872Y-15695460D01*
X7808872Y-15695460D02*
X7818396Y-15676412D01*
X7818396Y-15676412D02*
X7818396Y-15666888D01*
X7818396Y-15666888D02*
X7808872Y-15647841D01*
X7808872Y-15647841D02*
X7789825Y-15638317D01*
X7789825Y-15638317D02*
X7761253Y-15638317D01*
X7761253Y-15638317D02*
X7742206Y-15628793D01*
X7742206Y-15628793D02*
X7732682Y-15609746D01*
X7732682Y-15609746D02*
X7732682Y-15600222D01*
X7732682Y-15600222D02*
X7742206Y-15581174D01*
X7742206Y-15581174D02*
X7761253Y-15571650D01*
X7761253Y-15571650D02*
X7789825Y-15571650D01*
X7789825Y-15571650D02*
X7808872Y-15581174D01*
X7885063Y-15781174D02*
X7894587Y-15771650D01*
X7894587Y-15771650D02*
X7913634Y-15743079D01*
X7913634Y-15743079D02*
X7923158Y-15724031D01*
X7923158Y-15724031D02*
X7932682Y-15695460D01*
X7932682Y-15695460D02*
X7942206Y-15647841D01*
X7942206Y-15647841D02*
X7942206Y-15609746D01*
X7942206Y-15609746D02*
X7932682Y-15562127D01*
X7932682Y-15562127D02*
X7923158Y-15533555D01*
X7923158Y-15533555D02*
X7913634Y-15514508D01*
X7913634Y-15514508D02*
X7894587Y-15485936D01*
X7894587Y-15485936D02*
X7885063Y-15476412D01*
D10*
X3070000Y-15917500D02*
X3110000Y-15877500D01*
X3070000Y-15837500D01*
X3030000Y-15877500D01*
X3070000Y-15917500D01*
D11*
X3408872Y-15768984D02*
X3427920Y-15768984D01*
X3427920Y-15768984D02*
X3446967Y-15778508D01*
X3446967Y-15778508D02*
X3456491Y-15788031D01*
X3456491Y-15788031D02*
X3466015Y-15807079D01*
X3466015Y-15807079D02*
X3475539Y-15845174D01*
X3475539Y-15845174D02*
X3475539Y-15892793D01*
X3475539Y-15892793D02*
X3466015Y-15930888D01*
X3466015Y-15930888D02*
X3456491Y-15949936D01*
X3456491Y-15949936D02*
X3446967Y-15959460D01*
X3446967Y-15959460D02*
X3427920Y-15968984D01*
X3427920Y-15968984D02*
X3408872Y-15968984D01*
X3408872Y-15968984D02*
X3389824Y-15959460D01*
X3389824Y-15959460D02*
X3380301Y-15949936D01*
X3380301Y-15949936D02*
X3370777Y-15930888D01*
X3370777Y-15930888D02*
X3361253Y-15892793D01*
X3361253Y-15892793D02*
X3361253Y-15845174D01*
X3361253Y-15845174D02*
X3370777Y-15807079D01*
X3370777Y-15807079D02*
X3380301Y-15788031D01*
X3380301Y-15788031D02*
X3389824Y-15778508D01*
X3389824Y-15778508D02*
X3408872Y-15768984D01*
X3561253Y-15949936D02*
X3570777Y-15959460D01*
X3570777Y-15959460D02*
X3561253Y-15968984D01*
X3561253Y-15968984D02*
X3551729Y-15959460D01*
X3551729Y-15959460D02*
X3561253Y-15949936D01*
X3561253Y-15949936D02*
X3561253Y-15968984D01*
X3685062Y-15854698D02*
X3666015Y-15845174D01*
X3666015Y-15845174D02*
X3656491Y-15835650D01*
X3656491Y-15835650D02*
X3646967Y-15816603D01*
X3646967Y-15816603D02*
X3646967Y-15807079D01*
X3646967Y-15807079D02*
X3656491Y-15788031D01*
X3656491Y-15788031D02*
X3666015Y-15778508D01*
X3666015Y-15778508D02*
X3685062Y-15768984D01*
X3685062Y-15768984D02*
X3723158Y-15768984D01*
X3723158Y-15768984D02*
X3742205Y-15778508D01*
X3742205Y-15778508D02*
X3751729Y-15788031D01*
X3751729Y-15788031D02*
X3761253Y-15807079D01*
X3761253Y-15807079D02*
X3761253Y-15816603D01*
X3761253Y-15816603D02*
X3751729Y-15835650D01*
X3751729Y-15835650D02*
X3742205Y-15845174D01*
X3742205Y-15845174D02*
X3723158Y-15854698D01*
X3723158Y-15854698D02*
X3685062Y-15854698D01*
X3685062Y-15854698D02*
X3666015Y-15864222D01*
X3666015Y-15864222D02*
X3656491Y-15873746D01*
X3656491Y-15873746D02*
X3646967Y-15892793D01*
X3646967Y-15892793D02*
X3646967Y-15930888D01*
X3646967Y-15930888D02*
X3656491Y-15949936D01*
X3656491Y-15949936D02*
X3666015Y-15959460D01*
X3666015Y-15959460D02*
X3685062Y-15968984D01*
X3685062Y-15968984D02*
X3723158Y-15968984D01*
X3723158Y-15968984D02*
X3742205Y-15959460D01*
X3742205Y-15959460D02*
X3751729Y-15949936D01*
X3751729Y-15949936D02*
X3761253Y-15930888D01*
X3761253Y-15930888D02*
X3761253Y-15892793D01*
X3761253Y-15892793D02*
X3751729Y-15873746D01*
X3751729Y-15873746D02*
X3742205Y-15864222D01*
X3742205Y-15864222D02*
X3723158Y-15854698D01*
X3885062Y-15768984D02*
X3904110Y-15768984D01*
X3904110Y-15768984D02*
X3923158Y-15778508D01*
X3923158Y-15778508D02*
X3932682Y-15788031D01*
X3932682Y-15788031D02*
X3942205Y-15807079D01*
X3942205Y-15807079D02*
X3951729Y-15845174D01*
X3951729Y-15845174D02*
X3951729Y-15892793D01*
X3951729Y-15892793D02*
X3942205Y-15930888D01*
X3942205Y-15930888D02*
X3932682Y-15949936D01*
X3932682Y-15949936D02*
X3923158Y-15959460D01*
X3923158Y-15959460D02*
X3904110Y-15968984D01*
X3904110Y-15968984D02*
X3885062Y-15968984D01*
X3885062Y-15968984D02*
X3866015Y-15959460D01*
X3866015Y-15959460D02*
X3856491Y-15949936D01*
X3856491Y-15949936D02*
X3846967Y-15930888D01*
X3846967Y-15930888D02*
X3837443Y-15892793D01*
X3837443Y-15892793D02*
X3837443Y-15845174D01*
X3837443Y-15845174D02*
X3846967Y-15807079D01*
X3846967Y-15807079D02*
X3856491Y-15788031D01*
X3856491Y-15788031D02*
X3866015Y-15778508D01*
X3866015Y-15778508D02*
X3885062Y-15768984D01*
X4075539Y-15768984D02*
X4094586Y-15768984D01*
X4094586Y-15768984D02*
X4113634Y-15778508D01*
X4113634Y-15778508D02*
X4123158Y-15788031D01*
X4123158Y-15788031D02*
X4132682Y-15807079D01*
X4132682Y-15807079D02*
X4142205Y-15845174D01*
X4142205Y-15845174D02*
X4142205Y-15892793D01*
X4142205Y-15892793D02*
X4132682Y-15930888D01*
X4132682Y-15930888D02*
X4123158Y-15949936D01*
X4123158Y-15949936D02*
X4113634Y-15959460D01*
X4113634Y-15959460D02*
X4094586Y-15968984D01*
X4094586Y-15968984D02*
X4075539Y-15968984D01*
X4075539Y-15968984D02*
X4056491Y-15959460D01*
X4056491Y-15959460D02*
X4046967Y-15949936D01*
X4046967Y-15949936D02*
X4037443Y-15930888D01*
X4037443Y-15930888D02*
X4027920Y-15892793D01*
X4027920Y-15892793D02*
X4027920Y-15845174D01*
X4027920Y-15845174D02*
X4037443Y-15807079D01*
X4037443Y-15807079D02*
X4046967Y-15788031D01*
X4046967Y-15788031D02*
X4056491Y-15778508D01*
X4056491Y-15778508D02*
X4075539Y-15768984D01*
X4227920Y-15968984D02*
X4227920Y-15835650D01*
X4227920Y-15854698D02*
X4237444Y-15845174D01*
X4237444Y-15845174D02*
X4256491Y-15835650D01*
X4256491Y-15835650D02*
X4285063Y-15835650D01*
X4285063Y-15835650D02*
X4304110Y-15845174D01*
X4304110Y-15845174D02*
X4313634Y-15864222D01*
X4313634Y-15864222D02*
X4313634Y-15968984D01*
X4313634Y-15864222D02*
X4323158Y-15845174D01*
X4323158Y-15845174D02*
X4342205Y-15835650D01*
X4342205Y-15835650D02*
X4370777Y-15835650D01*
X4370777Y-15835650D02*
X4389825Y-15845174D01*
X4389825Y-15845174D02*
X4399348Y-15864222D01*
X4399348Y-15864222D02*
X4399348Y-15968984D01*
X4494586Y-15968984D02*
X4494586Y-15835650D01*
X4494586Y-15854698D02*
X4504110Y-15845174D01*
X4504110Y-15845174D02*
X4523158Y-15835650D01*
X4523158Y-15835650D02*
X4551729Y-15835650D01*
X4551729Y-15835650D02*
X4570777Y-15845174D01*
X4570777Y-15845174D02*
X4580301Y-15864222D01*
X4580301Y-15864222D02*
X4580301Y-15968984D01*
X4580301Y-15864222D02*
X4589825Y-15845174D01*
X4589825Y-15845174D02*
X4608872Y-15835650D01*
X4608872Y-15835650D02*
X4637444Y-15835650D01*
X4637444Y-15835650D02*
X4656491Y-15845174D01*
X4656491Y-15845174D02*
X4666015Y-15864222D01*
X4666015Y-15864222D02*
X4666015Y-15968984D01*
X5056491Y-15759460D02*
X4885063Y-16016603D01*
X5313634Y-15768984D02*
X5332682Y-15768984D01*
X5332682Y-15768984D02*
X5351729Y-15778508D01*
X5351729Y-15778508D02*
X5361253Y-15788031D01*
X5361253Y-15788031D02*
X5370777Y-15807079D01*
X5370777Y-15807079D02*
X5380301Y-15845174D01*
X5380301Y-15845174D02*
X5380301Y-15892793D01*
X5380301Y-15892793D02*
X5370777Y-15930888D01*
X5370777Y-15930888D02*
X5361253Y-15949936D01*
X5361253Y-15949936D02*
X5351729Y-15959460D01*
X5351729Y-15959460D02*
X5332682Y-15968984D01*
X5332682Y-15968984D02*
X5313634Y-15968984D01*
X5313634Y-15968984D02*
X5294587Y-15959460D01*
X5294587Y-15959460D02*
X5285063Y-15949936D01*
X5285063Y-15949936D02*
X5275539Y-15930888D01*
X5275539Y-15930888D02*
X5266015Y-15892793D01*
X5266015Y-15892793D02*
X5266015Y-15845174D01*
X5266015Y-15845174D02*
X5275539Y-15807079D01*
X5275539Y-15807079D02*
X5285063Y-15788031D01*
X5285063Y-15788031D02*
X5294587Y-15778508D01*
X5294587Y-15778508D02*
X5313634Y-15768984D01*
X5466015Y-15949936D02*
X5475539Y-15959460D01*
X5475539Y-15959460D02*
X5466015Y-15968984D01*
X5466015Y-15968984D02*
X5456491Y-15959460D01*
X5456491Y-15959460D02*
X5466015Y-15949936D01*
X5466015Y-15949936D02*
X5466015Y-15968984D01*
X5599348Y-15768984D02*
X5618396Y-15768984D01*
X5618396Y-15768984D02*
X5637444Y-15778508D01*
X5637444Y-15778508D02*
X5646967Y-15788031D01*
X5646967Y-15788031D02*
X5656491Y-15807079D01*
X5656491Y-15807079D02*
X5666015Y-15845174D01*
X5666015Y-15845174D02*
X5666015Y-15892793D01*
X5666015Y-15892793D02*
X5656491Y-15930888D01*
X5656491Y-15930888D02*
X5646967Y-15949936D01*
X5646967Y-15949936D02*
X5637444Y-15959460D01*
X5637444Y-15959460D02*
X5618396Y-15968984D01*
X5618396Y-15968984D02*
X5599348Y-15968984D01*
X5599348Y-15968984D02*
X5580301Y-15959460D01*
X5580301Y-15959460D02*
X5570777Y-15949936D01*
X5570777Y-15949936D02*
X5561253Y-15930888D01*
X5561253Y-15930888D02*
X5551729Y-15892793D01*
X5551729Y-15892793D02*
X5551729Y-15845174D01*
X5551729Y-15845174D02*
X5561253Y-15807079D01*
X5561253Y-15807079D02*
X5570777Y-15788031D01*
X5570777Y-15788031D02*
X5580301Y-15778508D01*
X5580301Y-15778508D02*
X5599348Y-15768984D01*
X5732682Y-15768984D02*
X5856491Y-15768984D01*
X5856491Y-15768984D02*
X5789825Y-15845174D01*
X5789825Y-15845174D02*
X5818396Y-15845174D01*
X5818396Y-15845174D02*
X5837444Y-15854698D01*
X5837444Y-15854698D02*
X5846967Y-15864222D01*
X5846967Y-15864222D02*
X5856491Y-15883269D01*
X5856491Y-15883269D02*
X5856491Y-15930888D01*
X5856491Y-15930888D02*
X5846967Y-15949936D01*
X5846967Y-15949936D02*
X5837444Y-15959460D01*
X5837444Y-15959460D02*
X5818396Y-15968984D01*
X5818396Y-15968984D02*
X5761253Y-15968984D01*
X5761253Y-15968984D02*
X5742206Y-15959460D01*
X5742206Y-15959460D02*
X5732682Y-15949936D01*
X6046967Y-15968984D02*
X5932682Y-15968984D01*
X5989825Y-15968984D02*
X5989825Y-15768984D01*
X5989825Y-15768984D02*
X5970777Y-15797555D01*
X5970777Y-15797555D02*
X5951729Y-15816603D01*
X5951729Y-15816603D02*
X5932682Y-15826127D01*
X6227920Y-15768984D02*
X6132682Y-15768984D01*
X6132682Y-15768984D02*
X6123158Y-15864222D01*
X6123158Y-15864222D02*
X6132682Y-15854698D01*
X6132682Y-15854698D02*
X6151729Y-15845174D01*
X6151729Y-15845174D02*
X6199348Y-15845174D01*
X6199348Y-15845174D02*
X6218396Y-15854698D01*
X6218396Y-15854698D02*
X6227920Y-15864222D01*
X6227920Y-15864222D02*
X6237444Y-15883269D01*
X6237444Y-15883269D02*
X6237444Y-15930888D01*
X6237444Y-15930888D02*
X6227920Y-15949936D01*
X6227920Y-15949936D02*
X6218396Y-15959460D01*
X6218396Y-15959460D02*
X6199348Y-15968984D01*
X6199348Y-15968984D02*
X6151729Y-15968984D01*
X6151729Y-15968984D02*
X6132682Y-15959460D01*
X6132682Y-15959460D02*
X6123158Y-15949936D01*
X6313634Y-15768984D02*
X6313634Y-15807079D01*
X6389825Y-15768984D02*
X6389825Y-15807079D01*
X6685063Y-16045174D02*
X6675539Y-16035650D01*
X6675539Y-16035650D02*
X6656491Y-16007079D01*
X6656491Y-16007079D02*
X6646968Y-15988031D01*
X6646968Y-15988031D02*
X6637444Y-15959460D01*
X6637444Y-15959460D02*
X6627920Y-15911841D01*
X6627920Y-15911841D02*
X6627920Y-15873746D01*
X6627920Y-15873746D02*
X6637444Y-15826127D01*
X6637444Y-15826127D02*
X6646968Y-15797555D01*
X6646968Y-15797555D02*
X6656491Y-15778508D01*
X6656491Y-15778508D02*
X6675539Y-15749936D01*
X6675539Y-15749936D02*
X6685063Y-15740412D01*
X6866015Y-15968984D02*
X6751729Y-15968984D01*
X6808872Y-15968984D02*
X6808872Y-15768984D01*
X6808872Y-15768984D02*
X6789825Y-15797555D01*
X6789825Y-15797555D02*
X6770777Y-15816603D01*
X6770777Y-15816603D02*
X6751729Y-15826127D01*
X6942206Y-15788031D02*
X6951729Y-15778508D01*
X6951729Y-15778508D02*
X6970777Y-15768984D01*
X6970777Y-15768984D02*
X7018396Y-15768984D01*
X7018396Y-15768984D02*
X7037444Y-15778508D01*
X7037444Y-15778508D02*
X7046968Y-15788031D01*
X7046968Y-15788031D02*
X7056491Y-15807079D01*
X7056491Y-15807079D02*
X7056491Y-15826127D01*
X7056491Y-15826127D02*
X7046968Y-15854698D01*
X7046968Y-15854698D02*
X6932682Y-15968984D01*
X6932682Y-15968984D02*
X7056491Y-15968984D01*
X7294587Y-15968984D02*
X7294587Y-15768984D01*
X7380301Y-15968984D02*
X7380301Y-15864222D01*
X7380301Y-15864222D02*
X7370777Y-15845174D01*
X7370777Y-15845174D02*
X7351730Y-15835650D01*
X7351730Y-15835650D02*
X7323158Y-15835650D01*
X7323158Y-15835650D02*
X7304110Y-15845174D01*
X7304110Y-15845174D02*
X7294587Y-15854698D01*
X7504110Y-15968984D02*
X7485063Y-15959460D01*
X7485063Y-15959460D02*
X7475539Y-15949936D01*
X7475539Y-15949936D02*
X7466015Y-15930888D01*
X7466015Y-15930888D02*
X7466015Y-15873746D01*
X7466015Y-15873746D02*
X7475539Y-15854698D01*
X7475539Y-15854698D02*
X7485063Y-15845174D01*
X7485063Y-15845174D02*
X7504110Y-15835650D01*
X7504110Y-15835650D02*
X7532682Y-15835650D01*
X7532682Y-15835650D02*
X7551730Y-15845174D01*
X7551730Y-15845174D02*
X7561253Y-15854698D01*
X7561253Y-15854698D02*
X7570777Y-15873746D01*
X7570777Y-15873746D02*
X7570777Y-15930888D01*
X7570777Y-15930888D02*
X7561253Y-15949936D01*
X7561253Y-15949936D02*
X7551730Y-15959460D01*
X7551730Y-15959460D02*
X7532682Y-15968984D01*
X7532682Y-15968984D02*
X7504110Y-15968984D01*
X7685063Y-15968984D02*
X7666015Y-15959460D01*
X7666015Y-15959460D02*
X7656491Y-15940412D01*
X7656491Y-15940412D02*
X7656491Y-15768984D01*
X7837444Y-15959460D02*
X7818396Y-15968984D01*
X7818396Y-15968984D02*
X7780301Y-15968984D01*
X7780301Y-15968984D02*
X7761253Y-15959460D01*
X7761253Y-15959460D02*
X7751730Y-15940412D01*
X7751730Y-15940412D02*
X7751730Y-15864222D01*
X7751730Y-15864222D02*
X7761253Y-15845174D01*
X7761253Y-15845174D02*
X7780301Y-15835650D01*
X7780301Y-15835650D02*
X7818396Y-15835650D01*
X7818396Y-15835650D02*
X7837444Y-15845174D01*
X7837444Y-15845174D02*
X7846968Y-15864222D01*
X7846968Y-15864222D02*
X7846968Y-15883269D01*
X7846968Y-15883269D02*
X7751730Y-15902317D01*
X7923158Y-15959460D02*
X7942206Y-15968984D01*
X7942206Y-15968984D02*
X7980301Y-15968984D01*
X7980301Y-15968984D02*
X7999349Y-15959460D01*
X7999349Y-15959460D02*
X8008872Y-15940412D01*
X8008872Y-15940412D02*
X8008872Y-15930888D01*
X8008872Y-15930888D02*
X7999349Y-15911841D01*
X7999349Y-15911841D02*
X7980301Y-15902317D01*
X7980301Y-15902317D02*
X7951730Y-15902317D01*
X7951730Y-15902317D02*
X7932682Y-15892793D01*
X7932682Y-15892793D02*
X7923158Y-15873746D01*
X7923158Y-15873746D02*
X7923158Y-15864222D01*
X7923158Y-15864222D02*
X7932682Y-15845174D01*
X7932682Y-15845174D02*
X7951730Y-15835650D01*
X7951730Y-15835650D02*
X7980301Y-15835650D01*
X7980301Y-15835650D02*
X7999349Y-15845174D01*
X8075539Y-16045174D02*
X8085063Y-16035650D01*
X8085063Y-16035650D02*
X8104111Y-16007079D01*
X8104111Y-16007079D02*
X8113634Y-15988031D01*
X8113634Y-15988031D02*
X8123158Y-15959460D01*
X8123158Y-15959460D02*
X8132682Y-15911841D01*
X8132682Y-15911841D02*
X8132682Y-15873746D01*
X8132682Y-15873746D02*
X8123158Y-15826127D01*
X8123158Y-15826127D02*
X8113634Y-15797555D01*
X8113634Y-15797555D02*
X8104111Y-15778508D01*
X8104111Y-15778508D02*
X8085063Y-15749936D01*
X8085063Y-15749936D02*
X8075539Y-15740412D01*
D10*
X3021100Y-16097050D02*
X3110000Y-16185950D01*
X3110000Y-16097050D02*
X3021100Y-16185950D01*
X3110000Y-16141500D02*
G75*
G03*
X3110000Y-16141500I-44450J0D01*
G01*
D11*
X3408872Y-16032984D02*
X3427920Y-16032984D01*
X3427920Y-16032984D02*
X3446967Y-16042508D01*
X3446967Y-16042508D02*
X3456491Y-16052031D01*
X3456491Y-16052031D02*
X3466015Y-16071079D01*
X3466015Y-16071079D02*
X3475539Y-16109174D01*
X3475539Y-16109174D02*
X3475539Y-16156793D01*
X3475539Y-16156793D02*
X3466015Y-16194888D01*
X3466015Y-16194888D02*
X3456491Y-16213936D01*
X3456491Y-16213936D02*
X3446967Y-16223460D01*
X3446967Y-16223460D02*
X3427920Y-16232984D01*
X3427920Y-16232984D02*
X3408872Y-16232984D01*
X3408872Y-16232984D02*
X3389824Y-16223460D01*
X3389824Y-16223460D02*
X3380301Y-16213936D01*
X3380301Y-16213936D02*
X3370777Y-16194888D01*
X3370777Y-16194888D02*
X3361253Y-16156793D01*
X3361253Y-16156793D02*
X3361253Y-16109174D01*
X3361253Y-16109174D02*
X3370777Y-16071079D01*
X3370777Y-16071079D02*
X3380301Y-16052031D01*
X3380301Y-16052031D02*
X3389824Y-16042508D01*
X3389824Y-16042508D02*
X3408872Y-16032984D01*
X3561253Y-16213936D02*
X3570777Y-16223460D01*
X3570777Y-16223460D02*
X3561253Y-16232984D01*
X3561253Y-16232984D02*
X3551729Y-16223460D01*
X3551729Y-16223460D02*
X3561253Y-16213936D01*
X3561253Y-16213936D02*
X3561253Y-16232984D01*
X3685062Y-16118698D02*
X3666015Y-16109174D01*
X3666015Y-16109174D02*
X3656491Y-16099650D01*
X3656491Y-16099650D02*
X3646967Y-16080603D01*
X3646967Y-16080603D02*
X3646967Y-16071079D01*
X3646967Y-16071079D02*
X3656491Y-16052031D01*
X3656491Y-16052031D02*
X3666015Y-16042508D01*
X3666015Y-16042508D02*
X3685062Y-16032984D01*
X3685062Y-16032984D02*
X3723158Y-16032984D01*
X3723158Y-16032984D02*
X3742205Y-16042508D01*
X3742205Y-16042508D02*
X3751729Y-16052031D01*
X3751729Y-16052031D02*
X3761253Y-16071079D01*
X3761253Y-16071079D02*
X3761253Y-16080603D01*
X3761253Y-16080603D02*
X3751729Y-16099650D01*
X3751729Y-16099650D02*
X3742205Y-16109174D01*
X3742205Y-16109174D02*
X3723158Y-16118698D01*
X3723158Y-16118698D02*
X3685062Y-16118698D01*
X3685062Y-16118698D02*
X3666015Y-16128222D01*
X3666015Y-16128222D02*
X3656491Y-16137746D01*
X3656491Y-16137746D02*
X3646967Y-16156793D01*
X3646967Y-16156793D02*
X3646967Y-16194888D01*
X3646967Y-16194888D02*
X3656491Y-16213936D01*
X3656491Y-16213936D02*
X3666015Y-16223460D01*
X3666015Y-16223460D02*
X3685062Y-16232984D01*
X3685062Y-16232984D02*
X3723158Y-16232984D01*
X3723158Y-16232984D02*
X3742205Y-16223460D01*
X3742205Y-16223460D02*
X3751729Y-16213936D01*
X3751729Y-16213936D02*
X3761253Y-16194888D01*
X3761253Y-16194888D02*
X3761253Y-16156793D01*
X3761253Y-16156793D02*
X3751729Y-16137746D01*
X3751729Y-16137746D02*
X3742205Y-16128222D01*
X3742205Y-16128222D02*
X3723158Y-16118698D01*
X3875539Y-16118698D02*
X3856491Y-16109174D01*
X3856491Y-16109174D02*
X3846967Y-16099650D01*
X3846967Y-16099650D02*
X3837443Y-16080603D01*
X3837443Y-16080603D02*
X3837443Y-16071079D01*
X3837443Y-16071079D02*
X3846967Y-16052031D01*
X3846967Y-16052031D02*
X3856491Y-16042508D01*
X3856491Y-16042508D02*
X3875539Y-16032984D01*
X3875539Y-16032984D02*
X3913634Y-16032984D01*
X3913634Y-16032984D02*
X3932682Y-16042508D01*
X3932682Y-16042508D02*
X3942205Y-16052031D01*
X3942205Y-16052031D02*
X3951729Y-16071079D01*
X3951729Y-16071079D02*
X3951729Y-16080603D01*
X3951729Y-16080603D02*
X3942205Y-16099650D01*
X3942205Y-16099650D02*
X3932682Y-16109174D01*
X3932682Y-16109174D02*
X3913634Y-16118698D01*
X3913634Y-16118698D02*
X3875539Y-16118698D01*
X3875539Y-16118698D02*
X3856491Y-16128222D01*
X3856491Y-16128222D02*
X3846967Y-16137746D01*
X3846967Y-16137746D02*
X3837443Y-16156793D01*
X3837443Y-16156793D02*
X3837443Y-16194888D01*
X3837443Y-16194888D02*
X3846967Y-16213936D01*
X3846967Y-16213936D02*
X3856491Y-16223460D01*
X3856491Y-16223460D02*
X3875539Y-16232984D01*
X3875539Y-16232984D02*
X3913634Y-16232984D01*
X3913634Y-16232984D02*
X3932682Y-16223460D01*
X3932682Y-16223460D02*
X3942205Y-16213936D01*
X3942205Y-16213936D02*
X3951729Y-16194888D01*
X3951729Y-16194888D02*
X3951729Y-16156793D01*
X3951729Y-16156793D02*
X3942205Y-16137746D01*
X3942205Y-16137746D02*
X3932682Y-16128222D01*
X3932682Y-16128222D02*
X3913634Y-16118698D01*
X4046967Y-16232984D02*
X4085062Y-16232984D01*
X4085062Y-16232984D02*
X4104110Y-16223460D01*
X4104110Y-16223460D02*
X4113634Y-16213936D01*
X4113634Y-16213936D02*
X4132682Y-16185365D01*
X4132682Y-16185365D02*
X4142205Y-16147269D01*
X4142205Y-16147269D02*
X4142205Y-16071079D01*
X4142205Y-16071079D02*
X4132682Y-16052031D01*
X4132682Y-16052031D02*
X4123158Y-16042508D01*
X4123158Y-16042508D02*
X4104110Y-16032984D01*
X4104110Y-16032984D02*
X4066015Y-16032984D01*
X4066015Y-16032984D02*
X4046967Y-16042508D01*
X4046967Y-16042508D02*
X4037443Y-16052031D01*
X4037443Y-16052031D02*
X4027920Y-16071079D01*
X4027920Y-16071079D02*
X4027920Y-16118698D01*
X4027920Y-16118698D02*
X4037443Y-16137746D01*
X4037443Y-16137746D02*
X4046967Y-16147269D01*
X4046967Y-16147269D02*
X4066015Y-16156793D01*
X4066015Y-16156793D02*
X4104110Y-16156793D01*
X4104110Y-16156793D02*
X4123158Y-16147269D01*
X4123158Y-16147269D02*
X4132682Y-16137746D01*
X4132682Y-16137746D02*
X4142205Y-16118698D01*
X4227920Y-16232984D02*
X4227920Y-16099650D01*
X4227920Y-16118698D02*
X4237444Y-16109174D01*
X4237444Y-16109174D02*
X4256491Y-16099650D01*
X4256491Y-16099650D02*
X4285063Y-16099650D01*
X4285063Y-16099650D02*
X4304110Y-16109174D01*
X4304110Y-16109174D02*
X4313634Y-16128222D01*
X4313634Y-16128222D02*
X4313634Y-16232984D01*
X4313634Y-16128222D02*
X4323158Y-16109174D01*
X4323158Y-16109174D02*
X4342205Y-16099650D01*
X4342205Y-16099650D02*
X4370777Y-16099650D01*
X4370777Y-16099650D02*
X4389825Y-16109174D01*
X4389825Y-16109174D02*
X4399348Y-16128222D01*
X4399348Y-16128222D02*
X4399348Y-16232984D01*
X4494586Y-16232984D02*
X4494586Y-16099650D01*
X4494586Y-16118698D02*
X4504110Y-16109174D01*
X4504110Y-16109174D02*
X4523158Y-16099650D01*
X4523158Y-16099650D02*
X4551729Y-16099650D01*
X4551729Y-16099650D02*
X4570777Y-16109174D01*
X4570777Y-16109174D02*
X4580301Y-16128222D01*
X4580301Y-16128222D02*
X4580301Y-16232984D01*
X4580301Y-16128222D02*
X4589825Y-16109174D01*
X4589825Y-16109174D02*
X4608872Y-16099650D01*
X4608872Y-16099650D02*
X4637444Y-16099650D01*
X4637444Y-16099650D02*
X4656491Y-16109174D01*
X4656491Y-16109174D02*
X4666015Y-16128222D01*
X4666015Y-16128222D02*
X4666015Y-16232984D01*
X5056491Y-16023460D02*
X4885063Y-16280603D01*
X5313634Y-16032984D02*
X5332682Y-16032984D01*
X5332682Y-16032984D02*
X5351729Y-16042508D01*
X5351729Y-16042508D02*
X5361253Y-16052031D01*
X5361253Y-16052031D02*
X5370777Y-16071079D01*
X5370777Y-16071079D02*
X5380301Y-16109174D01*
X5380301Y-16109174D02*
X5380301Y-16156793D01*
X5380301Y-16156793D02*
X5370777Y-16194888D01*
X5370777Y-16194888D02*
X5361253Y-16213936D01*
X5361253Y-16213936D02*
X5351729Y-16223460D01*
X5351729Y-16223460D02*
X5332682Y-16232984D01*
X5332682Y-16232984D02*
X5313634Y-16232984D01*
X5313634Y-16232984D02*
X5294587Y-16223460D01*
X5294587Y-16223460D02*
X5285063Y-16213936D01*
X5285063Y-16213936D02*
X5275539Y-16194888D01*
X5275539Y-16194888D02*
X5266015Y-16156793D01*
X5266015Y-16156793D02*
X5266015Y-16109174D01*
X5266015Y-16109174D02*
X5275539Y-16071079D01*
X5275539Y-16071079D02*
X5285063Y-16052031D01*
X5285063Y-16052031D02*
X5294587Y-16042508D01*
X5294587Y-16042508D02*
X5313634Y-16032984D01*
X5466015Y-16213936D02*
X5475539Y-16223460D01*
X5475539Y-16223460D02*
X5466015Y-16232984D01*
X5466015Y-16232984D02*
X5456491Y-16223460D01*
X5456491Y-16223460D02*
X5466015Y-16213936D01*
X5466015Y-16213936D02*
X5466015Y-16232984D01*
X5599348Y-16032984D02*
X5618396Y-16032984D01*
X5618396Y-16032984D02*
X5637444Y-16042508D01*
X5637444Y-16042508D02*
X5646967Y-16052031D01*
X5646967Y-16052031D02*
X5656491Y-16071079D01*
X5656491Y-16071079D02*
X5666015Y-16109174D01*
X5666015Y-16109174D02*
X5666015Y-16156793D01*
X5666015Y-16156793D02*
X5656491Y-16194888D01*
X5656491Y-16194888D02*
X5646967Y-16213936D01*
X5646967Y-16213936D02*
X5637444Y-16223460D01*
X5637444Y-16223460D02*
X5618396Y-16232984D01*
X5618396Y-16232984D02*
X5599348Y-16232984D01*
X5599348Y-16232984D02*
X5580301Y-16223460D01*
X5580301Y-16223460D02*
X5570777Y-16213936D01*
X5570777Y-16213936D02*
X5561253Y-16194888D01*
X5561253Y-16194888D02*
X5551729Y-16156793D01*
X5551729Y-16156793D02*
X5551729Y-16109174D01*
X5551729Y-16109174D02*
X5561253Y-16071079D01*
X5561253Y-16071079D02*
X5570777Y-16052031D01*
X5570777Y-16052031D02*
X5580301Y-16042508D01*
X5580301Y-16042508D02*
X5599348Y-16032984D01*
X5732682Y-16032984D02*
X5856491Y-16032984D01*
X5856491Y-16032984D02*
X5789825Y-16109174D01*
X5789825Y-16109174D02*
X5818396Y-16109174D01*
X5818396Y-16109174D02*
X5837444Y-16118698D01*
X5837444Y-16118698D02*
X5846967Y-16128222D01*
X5846967Y-16128222D02*
X5856491Y-16147269D01*
X5856491Y-16147269D02*
X5856491Y-16194888D01*
X5856491Y-16194888D02*
X5846967Y-16213936D01*
X5846967Y-16213936D02*
X5837444Y-16223460D01*
X5837444Y-16223460D02*
X5818396Y-16232984D01*
X5818396Y-16232984D02*
X5761253Y-16232984D01*
X5761253Y-16232984D02*
X5742206Y-16223460D01*
X5742206Y-16223460D02*
X5732682Y-16213936D01*
X6037444Y-16032984D02*
X5942206Y-16032984D01*
X5942206Y-16032984D02*
X5932682Y-16128222D01*
X5932682Y-16128222D02*
X5942206Y-16118698D01*
X5942206Y-16118698D02*
X5961253Y-16109174D01*
X5961253Y-16109174D02*
X6008872Y-16109174D01*
X6008872Y-16109174D02*
X6027920Y-16118698D01*
X6027920Y-16118698D02*
X6037444Y-16128222D01*
X6037444Y-16128222D02*
X6046967Y-16147269D01*
X6046967Y-16147269D02*
X6046967Y-16194888D01*
X6046967Y-16194888D02*
X6037444Y-16213936D01*
X6037444Y-16213936D02*
X6027920Y-16223460D01*
X6027920Y-16223460D02*
X6008872Y-16232984D01*
X6008872Y-16232984D02*
X5961253Y-16232984D01*
X5961253Y-16232984D02*
X5942206Y-16223460D01*
X5942206Y-16223460D02*
X5932682Y-16213936D01*
X6170777Y-16032984D02*
X6189825Y-16032984D01*
X6189825Y-16032984D02*
X6208872Y-16042508D01*
X6208872Y-16042508D02*
X6218396Y-16052031D01*
X6218396Y-16052031D02*
X6227920Y-16071079D01*
X6227920Y-16071079D02*
X6237444Y-16109174D01*
X6237444Y-16109174D02*
X6237444Y-16156793D01*
X6237444Y-16156793D02*
X6227920Y-16194888D01*
X6227920Y-16194888D02*
X6218396Y-16213936D01*
X6218396Y-16213936D02*
X6208872Y-16223460D01*
X6208872Y-16223460D02*
X6189825Y-16232984D01*
X6189825Y-16232984D02*
X6170777Y-16232984D01*
X6170777Y-16232984D02*
X6151729Y-16223460D01*
X6151729Y-16223460D02*
X6142206Y-16213936D01*
X6142206Y-16213936D02*
X6132682Y-16194888D01*
X6132682Y-16194888D02*
X6123158Y-16156793D01*
X6123158Y-16156793D02*
X6123158Y-16109174D01*
X6123158Y-16109174D02*
X6132682Y-16071079D01*
X6132682Y-16071079D02*
X6142206Y-16052031D01*
X6142206Y-16052031D02*
X6151729Y-16042508D01*
X6151729Y-16042508D02*
X6170777Y-16032984D01*
X6313634Y-16032984D02*
X6313634Y-16071079D01*
X6389825Y-16032984D02*
X6389825Y-16071079D01*
X6685063Y-16309174D02*
X6675539Y-16299650D01*
X6675539Y-16299650D02*
X6656491Y-16271079D01*
X6656491Y-16271079D02*
X6646968Y-16252031D01*
X6646968Y-16252031D02*
X6637444Y-16223460D01*
X6637444Y-16223460D02*
X6627920Y-16175841D01*
X6627920Y-16175841D02*
X6627920Y-16137746D01*
X6627920Y-16137746D02*
X6637444Y-16090127D01*
X6637444Y-16090127D02*
X6646968Y-16061555D01*
X6646968Y-16061555D02*
X6656491Y-16042508D01*
X6656491Y-16042508D02*
X6675539Y-16013936D01*
X6675539Y-16013936D02*
X6685063Y-16004412D01*
X6866015Y-16232984D02*
X6751729Y-16232984D01*
X6808872Y-16232984D02*
X6808872Y-16032984D01*
X6808872Y-16032984D02*
X6789825Y-16061555D01*
X6789825Y-16061555D02*
X6770777Y-16080603D01*
X6770777Y-16080603D02*
X6751729Y-16090127D01*
X6942206Y-16052031D02*
X6951729Y-16042508D01*
X6951729Y-16042508D02*
X6970777Y-16032984D01*
X6970777Y-16032984D02*
X7018396Y-16032984D01*
X7018396Y-16032984D02*
X7037444Y-16042508D01*
X7037444Y-16042508D02*
X7046968Y-16052031D01*
X7046968Y-16052031D02*
X7056491Y-16071079D01*
X7056491Y-16071079D02*
X7056491Y-16090127D01*
X7056491Y-16090127D02*
X7046968Y-16118698D01*
X7046968Y-16118698D02*
X6932682Y-16232984D01*
X6932682Y-16232984D02*
X7056491Y-16232984D01*
X7294587Y-16232984D02*
X7294587Y-16032984D01*
X7380301Y-16232984D02*
X7380301Y-16128222D01*
X7380301Y-16128222D02*
X7370777Y-16109174D01*
X7370777Y-16109174D02*
X7351730Y-16099650D01*
X7351730Y-16099650D02*
X7323158Y-16099650D01*
X7323158Y-16099650D02*
X7304110Y-16109174D01*
X7304110Y-16109174D02*
X7294587Y-16118698D01*
X7504110Y-16232984D02*
X7485063Y-16223460D01*
X7485063Y-16223460D02*
X7475539Y-16213936D01*
X7475539Y-16213936D02*
X7466015Y-16194888D01*
X7466015Y-16194888D02*
X7466015Y-16137746D01*
X7466015Y-16137746D02*
X7475539Y-16118698D01*
X7475539Y-16118698D02*
X7485063Y-16109174D01*
X7485063Y-16109174D02*
X7504110Y-16099650D01*
X7504110Y-16099650D02*
X7532682Y-16099650D01*
X7532682Y-16099650D02*
X7551730Y-16109174D01*
X7551730Y-16109174D02*
X7561253Y-16118698D01*
X7561253Y-16118698D02*
X7570777Y-16137746D01*
X7570777Y-16137746D02*
X7570777Y-16194888D01*
X7570777Y-16194888D02*
X7561253Y-16213936D01*
X7561253Y-16213936D02*
X7551730Y-16223460D01*
X7551730Y-16223460D02*
X7532682Y-16232984D01*
X7532682Y-16232984D02*
X7504110Y-16232984D01*
X7685063Y-16232984D02*
X7666015Y-16223460D01*
X7666015Y-16223460D02*
X7656491Y-16204412D01*
X7656491Y-16204412D02*
X7656491Y-16032984D01*
X7837444Y-16223460D02*
X7818396Y-16232984D01*
X7818396Y-16232984D02*
X7780301Y-16232984D01*
X7780301Y-16232984D02*
X7761253Y-16223460D01*
X7761253Y-16223460D02*
X7751730Y-16204412D01*
X7751730Y-16204412D02*
X7751730Y-16128222D01*
X7751730Y-16128222D02*
X7761253Y-16109174D01*
X7761253Y-16109174D02*
X7780301Y-16099650D01*
X7780301Y-16099650D02*
X7818396Y-16099650D01*
X7818396Y-16099650D02*
X7837444Y-16109174D01*
X7837444Y-16109174D02*
X7846968Y-16128222D01*
X7846968Y-16128222D02*
X7846968Y-16147269D01*
X7846968Y-16147269D02*
X7751730Y-16166317D01*
X7923158Y-16223460D02*
X7942206Y-16232984D01*
X7942206Y-16232984D02*
X7980301Y-16232984D01*
X7980301Y-16232984D02*
X7999349Y-16223460D01*
X7999349Y-16223460D02*
X8008872Y-16204412D01*
X8008872Y-16204412D02*
X8008872Y-16194888D01*
X8008872Y-16194888D02*
X7999349Y-16175841D01*
X7999349Y-16175841D02*
X7980301Y-16166317D01*
X7980301Y-16166317D02*
X7951730Y-16166317D01*
X7951730Y-16166317D02*
X7932682Y-16156793D01*
X7932682Y-16156793D02*
X7923158Y-16137746D01*
X7923158Y-16137746D02*
X7923158Y-16128222D01*
X7923158Y-16128222D02*
X7932682Y-16109174D01*
X7932682Y-16109174D02*
X7951730Y-16099650D01*
X7951730Y-16099650D02*
X7980301Y-16099650D01*
X7980301Y-16099650D02*
X7999349Y-16109174D01*
X8075539Y-16309174D02*
X8085063Y-16299650D01*
X8085063Y-16299650D02*
X8104111Y-16271079D01*
X8104111Y-16271079D02*
X8113634Y-16252031D01*
X8113634Y-16252031D02*
X8123158Y-16223460D01*
X8123158Y-16223460D02*
X8132682Y-16175841D01*
X8132682Y-16175841D02*
X8132682Y-16137746D01*
X8132682Y-16137746D02*
X8123158Y-16090127D01*
X8123158Y-16090127D02*
X8113634Y-16061555D01*
X8113634Y-16061555D02*
X8104111Y-16042508D01*
X8104111Y-16042508D02*
X8085063Y-16013936D01*
X8085063Y-16013936D02*
X8075539Y-16004412D01*
D10*
X3020000Y-16360500D02*
X3110000Y-16450500D01*
X3110000Y-16360500D02*
X3020000Y-16450500D01*
X3065000Y-16360500D02*
X3065000Y-16450500D01*
X3020000Y-16405500D02*
X3110000Y-16405500D01*
D11*
X3408872Y-16296984D02*
X3427920Y-16296984D01*
X3427920Y-16296984D02*
X3446967Y-16306508D01*
X3446967Y-16306508D02*
X3456491Y-16316031D01*
X3456491Y-16316031D02*
X3466015Y-16335079D01*
X3466015Y-16335079D02*
X3475539Y-16373174D01*
X3475539Y-16373174D02*
X3475539Y-16420793D01*
X3475539Y-16420793D02*
X3466015Y-16458888D01*
X3466015Y-16458888D02*
X3456491Y-16477936D01*
X3456491Y-16477936D02*
X3446967Y-16487460D01*
X3446967Y-16487460D02*
X3427920Y-16496984D01*
X3427920Y-16496984D02*
X3408872Y-16496984D01*
X3408872Y-16496984D02*
X3389824Y-16487460D01*
X3389824Y-16487460D02*
X3380301Y-16477936D01*
X3380301Y-16477936D02*
X3370777Y-16458888D01*
X3370777Y-16458888D02*
X3361253Y-16420793D01*
X3361253Y-16420793D02*
X3361253Y-16373174D01*
X3361253Y-16373174D02*
X3370777Y-16335079D01*
X3370777Y-16335079D02*
X3380301Y-16316031D01*
X3380301Y-16316031D02*
X3389824Y-16306508D01*
X3389824Y-16306508D02*
X3408872Y-16296984D01*
X3561253Y-16477936D02*
X3570777Y-16487460D01*
X3570777Y-16487460D02*
X3561253Y-16496984D01*
X3561253Y-16496984D02*
X3551729Y-16487460D01*
X3551729Y-16487460D02*
X3561253Y-16477936D01*
X3561253Y-16477936D02*
X3561253Y-16496984D01*
X3666015Y-16496984D02*
X3704110Y-16496984D01*
X3704110Y-16496984D02*
X3723158Y-16487460D01*
X3723158Y-16487460D02*
X3732682Y-16477936D01*
X3732682Y-16477936D02*
X3751729Y-16449365D01*
X3751729Y-16449365D02*
X3761253Y-16411269D01*
X3761253Y-16411269D02*
X3761253Y-16335079D01*
X3761253Y-16335079D02*
X3751729Y-16316031D01*
X3751729Y-16316031D02*
X3742205Y-16306508D01*
X3742205Y-16306508D02*
X3723158Y-16296984D01*
X3723158Y-16296984D02*
X3685062Y-16296984D01*
X3685062Y-16296984D02*
X3666015Y-16306508D01*
X3666015Y-16306508D02*
X3656491Y-16316031D01*
X3656491Y-16316031D02*
X3646967Y-16335079D01*
X3646967Y-16335079D02*
X3646967Y-16382698D01*
X3646967Y-16382698D02*
X3656491Y-16401746D01*
X3656491Y-16401746D02*
X3666015Y-16411269D01*
X3666015Y-16411269D02*
X3685062Y-16420793D01*
X3685062Y-16420793D02*
X3723158Y-16420793D01*
X3723158Y-16420793D02*
X3742205Y-16411269D01*
X3742205Y-16411269D02*
X3751729Y-16401746D01*
X3751729Y-16401746D02*
X3761253Y-16382698D01*
X3885062Y-16296984D02*
X3904110Y-16296984D01*
X3904110Y-16296984D02*
X3923158Y-16306508D01*
X3923158Y-16306508D02*
X3932682Y-16316031D01*
X3932682Y-16316031D02*
X3942205Y-16335079D01*
X3942205Y-16335079D02*
X3951729Y-16373174D01*
X3951729Y-16373174D02*
X3951729Y-16420793D01*
X3951729Y-16420793D02*
X3942205Y-16458888D01*
X3942205Y-16458888D02*
X3932682Y-16477936D01*
X3932682Y-16477936D02*
X3923158Y-16487460D01*
X3923158Y-16487460D02*
X3904110Y-16496984D01*
X3904110Y-16496984D02*
X3885062Y-16496984D01*
X3885062Y-16496984D02*
X3866015Y-16487460D01*
X3866015Y-16487460D02*
X3856491Y-16477936D01*
X3856491Y-16477936D02*
X3846967Y-16458888D01*
X3846967Y-16458888D02*
X3837443Y-16420793D01*
X3837443Y-16420793D02*
X3837443Y-16373174D01*
X3837443Y-16373174D02*
X3846967Y-16335079D01*
X3846967Y-16335079D02*
X3856491Y-16316031D01*
X3856491Y-16316031D02*
X3866015Y-16306508D01*
X3866015Y-16306508D02*
X3885062Y-16296984D01*
X4075539Y-16296984D02*
X4094586Y-16296984D01*
X4094586Y-16296984D02*
X4113634Y-16306508D01*
X4113634Y-16306508D02*
X4123158Y-16316031D01*
X4123158Y-16316031D02*
X4132682Y-16335079D01*
X4132682Y-16335079D02*
X4142205Y-16373174D01*
X4142205Y-16373174D02*
X4142205Y-16420793D01*
X4142205Y-16420793D02*
X4132682Y-16458888D01*
X4132682Y-16458888D02*
X4123158Y-16477936D01*
X4123158Y-16477936D02*
X4113634Y-16487460D01*
X4113634Y-16487460D02*
X4094586Y-16496984D01*
X4094586Y-16496984D02*
X4075539Y-16496984D01*
X4075539Y-16496984D02*
X4056491Y-16487460D01*
X4056491Y-16487460D02*
X4046967Y-16477936D01*
X4046967Y-16477936D02*
X4037443Y-16458888D01*
X4037443Y-16458888D02*
X4027920Y-16420793D01*
X4027920Y-16420793D02*
X4027920Y-16373174D01*
X4027920Y-16373174D02*
X4037443Y-16335079D01*
X4037443Y-16335079D02*
X4046967Y-16316031D01*
X4046967Y-16316031D02*
X4056491Y-16306508D01*
X4056491Y-16306508D02*
X4075539Y-16296984D01*
X4227920Y-16496984D02*
X4227920Y-16363650D01*
X4227920Y-16382698D02*
X4237444Y-16373174D01*
X4237444Y-16373174D02*
X4256491Y-16363650D01*
X4256491Y-16363650D02*
X4285063Y-16363650D01*
X4285063Y-16363650D02*
X4304110Y-16373174D01*
X4304110Y-16373174D02*
X4313634Y-16392222D01*
X4313634Y-16392222D02*
X4313634Y-16496984D01*
X4313634Y-16392222D02*
X4323158Y-16373174D01*
X4323158Y-16373174D02*
X4342205Y-16363650D01*
X4342205Y-16363650D02*
X4370777Y-16363650D01*
X4370777Y-16363650D02*
X4389825Y-16373174D01*
X4389825Y-16373174D02*
X4399348Y-16392222D01*
X4399348Y-16392222D02*
X4399348Y-16496984D01*
X4494586Y-16496984D02*
X4494586Y-16363650D01*
X4494586Y-16382698D02*
X4504110Y-16373174D01*
X4504110Y-16373174D02*
X4523158Y-16363650D01*
X4523158Y-16363650D02*
X4551729Y-16363650D01*
X4551729Y-16363650D02*
X4570777Y-16373174D01*
X4570777Y-16373174D02*
X4580301Y-16392222D01*
X4580301Y-16392222D02*
X4580301Y-16496984D01*
X4580301Y-16392222D02*
X4589825Y-16373174D01*
X4589825Y-16373174D02*
X4608872Y-16363650D01*
X4608872Y-16363650D02*
X4637444Y-16363650D01*
X4637444Y-16363650D02*
X4656491Y-16373174D01*
X4656491Y-16373174D02*
X4666015Y-16392222D01*
X4666015Y-16392222D02*
X4666015Y-16496984D01*
X5056491Y-16287460D02*
X4885063Y-16544603D01*
X5313634Y-16296984D02*
X5332682Y-16296984D01*
X5332682Y-16296984D02*
X5351729Y-16306508D01*
X5351729Y-16306508D02*
X5361253Y-16316031D01*
X5361253Y-16316031D02*
X5370777Y-16335079D01*
X5370777Y-16335079D02*
X5380301Y-16373174D01*
X5380301Y-16373174D02*
X5380301Y-16420793D01*
X5380301Y-16420793D02*
X5370777Y-16458888D01*
X5370777Y-16458888D02*
X5361253Y-16477936D01*
X5361253Y-16477936D02*
X5351729Y-16487460D01*
X5351729Y-16487460D02*
X5332682Y-16496984D01*
X5332682Y-16496984D02*
X5313634Y-16496984D01*
X5313634Y-16496984D02*
X5294587Y-16487460D01*
X5294587Y-16487460D02*
X5285063Y-16477936D01*
X5285063Y-16477936D02*
X5275539Y-16458888D01*
X5275539Y-16458888D02*
X5266015Y-16420793D01*
X5266015Y-16420793D02*
X5266015Y-16373174D01*
X5266015Y-16373174D02*
X5275539Y-16335079D01*
X5275539Y-16335079D02*
X5285063Y-16316031D01*
X5285063Y-16316031D02*
X5294587Y-16306508D01*
X5294587Y-16306508D02*
X5313634Y-16296984D01*
X5466015Y-16477936D02*
X5475539Y-16487460D01*
X5475539Y-16487460D02*
X5466015Y-16496984D01*
X5466015Y-16496984D02*
X5456491Y-16487460D01*
X5456491Y-16487460D02*
X5466015Y-16477936D01*
X5466015Y-16477936D02*
X5466015Y-16496984D01*
X5599348Y-16296984D02*
X5618396Y-16296984D01*
X5618396Y-16296984D02*
X5637444Y-16306508D01*
X5637444Y-16306508D02*
X5646967Y-16316031D01*
X5646967Y-16316031D02*
X5656491Y-16335079D01*
X5656491Y-16335079D02*
X5666015Y-16373174D01*
X5666015Y-16373174D02*
X5666015Y-16420793D01*
X5666015Y-16420793D02*
X5656491Y-16458888D01*
X5656491Y-16458888D02*
X5646967Y-16477936D01*
X5646967Y-16477936D02*
X5637444Y-16487460D01*
X5637444Y-16487460D02*
X5618396Y-16496984D01*
X5618396Y-16496984D02*
X5599348Y-16496984D01*
X5599348Y-16496984D02*
X5580301Y-16487460D01*
X5580301Y-16487460D02*
X5570777Y-16477936D01*
X5570777Y-16477936D02*
X5561253Y-16458888D01*
X5561253Y-16458888D02*
X5551729Y-16420793D01*
X5551729Y-16420793D02*
X5551729Y-16373174D01*
X5551729Y-16373174D02*
X5561253Y-16335079D01*
X5561253Y-16335079D02*
X5570777Y-16316031D01*
X5570777Y-16316031D02*
X5580301Y-16306508D01*
X5580301Y-16306508D02*
X5599348Y-16296984D01*
X5732682Y-16296984D02*
X5856491Y-16296984D01*
X5856491Y-16296984D02*
X5789825Y-16373174D01*
X5789825Y-16373174D02*
X5818396Y-16373174D01*
X5818396Y-16373174D02*
X5837444Y-16382698D01*
X5837444Y-16382698D02*
X5846967Y-16392222D01*
X5846967Y-16392222D02*
X5856491Y-16411269D01*
X5856491Y-16411269D02*
X5856491Y-16458888D01*
X5856491Y-16458888D02*
X5846967Y-16477936D01*
X5846967Y-16477936D02*
X5837444Y-16487460D01*
X5837444Y-16487460D02*
X5818396Y-16496984D01*
X5818396Y-16496984D02*
X5761253Y-16496984D01*
X5761253Y-16496984D02*
X5742206Y-16487460D01*
X5742206Y-16487460D02*
X5732682Y-16477936D01*
X6037444Y-16296984D02*
X5942206Y-16296984D01*
X5942206Y-16296984D02*
X5932682Y-16392222D01*
X5932682Y-16392222D02*
X5942206Y-16382698D01*
X5942206Y-16382698D02*
X5961253Y-16373174D01*
X5961253Y-16373174D02*
X6008872Y-16373174D01*
X6008872Y-16373174D02*
X6027920Y-16382698D01*
X6027920Y-16382698D02*
X6037444Y-16392222D01*
X6037444Y-16392222D02*
X6046967Y-16411269D01*
X6046967Y-16411269D02*
X6046967Y-16458888D01*
X6046967Y-16458888D02*
X6037444Y-16477936D01*
X6037444Y-16477936D02*
X6027920Y-16487460D01*
X6027920Y-16487460D02*
X6008872Y-16496984D01*
X6008872Y-16496984D02*
X5961253Y-16496984D01*
X5961253Y-16496984D02*
X5942206Y-16487460D01*
X5942206Y-16487460D02*
X5932682Y-16477936D01*
X6218396Y-16363650D02*
X6218396Y-16496984D01*
X6170777Y-16287460D02*
X6123158Y-16430317D01*
X6123158Y-16430317D02*
X6246967Y-16430317D01*
X6313634Y-16296984D02*
X6313634Y-16335079D01*
X6389825Y-16296984D02*
X6389825Y-16335079D01*
X6685063Y-16573174D02*
X6675539Y-16563650D01*
X6675539Y-16563650D02*
X6656491Y-16535079D01*
X6656491Y-16535079D02*
X6646968Y-16516031D01*
X6646968Y-16516031D02*
X6637444Y-16487460D01*
X6637444Y-16487460D02*
X6627920Y-16439841D01*
X6627920Y-16439841D02*
X6627920Y-16401746D01*
X6627920Y-16401746D02*
X6637444Y-16354127D01*
X6637444Y-16354127D02*
X6646968Y-16325555D01*
X6646968Y-16325555D02*
X6656491Y-16306508D01*
X6656491Y-16306508D02*
X6675539Y-16277936D01*
X6675539Y-16277936D02*
X6685063Y-16268412D01*
X6789825Y-16382698D02*
X6770777Y-16373174D01*
X6770777Y-16373174D02*
X6761253Y-16363650D01*
X6761253Y-16363650D02*
X6751729Y-16344603D01*
X6751729Y-16344603D02*
X6751729Y-16335079D01*
X6751729Y-16335079D02*
X6761253Y-16316031D01*
X6761253Y-16316031D02*
X6770777Y-16306508D01*
X6770777Y-16306508D02*
X6789825Y-16296984D01*
X6789825Y-16296984D02*
X6827920Y-16296984D01*
X6827920Y-16296984D02*
X6846968Y-16306508D01*
X6846968Y-16306508D02*
X6856491Y-16316031D01*
X6856491Y-16316031D02*
X6866015Y-16335079D01*
X6866015Y-16335079D02*
X6866015Y-16344603D01*
X6866015Y-16344603D02*
X6856491Y-16363650D01*
X6856491Y-16363650D02*
X6846968Y-16373174D01*
X6846968Y-16373174D02*
X6827920Y-16382698D01*
X6827920Y-16382698D02*
X6789825Y-16382698D01*
X6789825Y-16382698D02*
X6770777Y-16392222D01*
X6770777Y-16392222D02*
X6761253Y-16401746D01*
X6761253Y-16401746D02*
X6751729Y-16420793D01*
X6751729Y-16420793D02*
X6751729Y-16458888D01*
X6751729Y-16458888D02*
X6761253Y-16477936D01*
X6761253Y-16477936D02*
X6770777Y-16487460D01*
X6770777Y-16487460D02*
X6789825Y-16496984D01*
X6789825Y-16496984D02*
X6827920Y-16496984D01*
X6827920Y-16496984D02*
X6846968Y-16487460D01*
X6846968Y-16487460D02*
X6856491Y-16477936D01*
X6856491Y-16477936D02*
X6866015Y-16458888D01*
X6866015Y-16458888D02*
X6866015Y-16420793D01*
X6866015Y-16420793D02*
X6856491Y-16401746D01*
X6856491Y-16401746D02*
X6846968Y-16392222D01*
X6846968Y-16392222D02*
X6827920Y-16382698D01*
X7104110Y-16496984D02*
X7104110Y-16296984D01*
X7189825Y-16496984D02*
X7189825Y-16392222D01*
X7189825Y-16392222D02*
X7180301Y-16373174D01*
X7180301Y-16373174D02*
X7161253Y-16363650D01*
X7161253Y-16363650D02*
X7132682Y-16363650D01*
X7132682Y-16363650D02*
X7113634Y-16373174D01*
X7113634Y-16373174D02*
X7104110Y-16382698D01*
X7313634Y-16496984D02*
X7294587Y-16487460D01*
X7294587Y-16487460D02*
X7285063Y-16477936D01*
X7285063Y-16477936D02*
X7275539Y-16458888D01*
X7275539Y-16458888D02*
X7275539Y-16401746D01*
X7275539Y-16401746D02*
X7285063Y-16382698D01*
X7285063Y-16382698D02*
X7294587Y-16373174D01*
X7294587Y-16373174D02*
X7313634Y-16363650D01*
X7313634Y-16363650D02*
X7342206Y-16363650D01*
X7342206Y-16363650D02*
X7361253Y-16373174D01*
X7361253Y-16373174D02*
X7370777Y-16382698D01*
X7370777Y-16382698D02*
X7380301Y-16401746D01*
X7380301Y-16401746D02*
X7380301Y-16458888D01*
X7380301Y-16458888D02*
X7370777Y-16477936D01*
X7370777Y-16477936D02*
X7361253Y-16487460D01*
X7361253Y-16487460D02*
X7342206Y-16496984D01*
X7342206Y-16496984D02*
X7313634Y-16496984D01*
X7494587Y-16496984D02*
X7475539Y-16487460D01*
X7475539Y-16487460D02*
X7466015Y-16468412D01*
X7466015Y-16468412D02*
X7466015Y-16296984D01*
X7646968Y-16487460D02*
X7627920Y-16496984D01*
X7627920Y-16496984D02*
X7589825Y-16496984D01*
X7589825Y-16496984D02*
X7570777Y-16487460D01*
X7570777Y-16487460D02*
X7561253Y-16468412D01*
X7561253Y-16468412D02*
X7561253Y-16392222D01*
X7561253Y-16392222D02*
X7570777Y-16373174D01*
X7570777Y-16373174D02*
X7589825Y-16363650D01*
X7589825Y-16363650D02*
X7627920Y-16363650D01*
X7627920Y-16363650D02*
X7646968Y-16373174D01*
X7646968Y-16373174D02*
X7656491Y-16392222D01*
X7656491Y-16392222D02*
X7656491Y-16411269D01*
X7656491Y-16411269D02*
X7561253Y-16430317D01*
X7732682Y-16487460D02*
X7751730Y-16496984D01*
X7751730Y-16496984D02*
X7789825Y-16496984D01*
X7789825Y-16496984D02*
X7808872Y-16487460D01*
X7808872Y-16487460D02*
X7818396Y-16468412D01*
X7818396Y-16468412D02*
X7818396Y-16458888D01*
X7818396Y-16458888D02*
X7808872Y-16439841D01*
X7808872Y-16439841D02*
X7789825Y-16430317D01*
X7789825Y-16430317D02*
X7761253Y-16430317D01*
X7761253Y-16430317D02*
X7742206Y-16420793D01*
X7742206Y-16420793D02*
X7732682Y-16401746D01*
X7732682Y-16401746D02*
X7732682Y-16392222D01*
X7732682Y-16392222D02*
X7742206Y-16373174D01*
X7742206Y-16373174D02*
X7761253Y-16363650D01*
X7761253Y-16363650D02*
X7789825Y-16363650D01*
X7789825Y-16363650D02*
X7808872Y-16373174D01*
X7885063Y-16573174D02*
X7894587Y-16563650D01*
X7894587Y-16563650D02*
X7913634Y-16535079D01*
X7913634Y-16535079D02*
X7923158Y-16516031D01*
X7923158Y-16516031D02*
X7932682Y-16487460D01*
X7932682Y-16487460D02*
X7942206Y-16439841D01*
X7942206Y-16439841D02*
X7942206Y-16401746D01*
X7942206Y-16401746D02*
X7932682Y-16354127D01*
X7932682Y-16354127D02*
X7923158Y-16325555D01*
X7923158Y-16325555D02*
X7913634Y-16306508D01*
X7913634Y-16306508D02*
X7894587Y-16277936D01*
X7894587Y-16277936D02*
X7885063Y-16268412D01*
D10*
X3011000Y-16620000D02*
X3110000Y-16719000D01*
X3110000Y-16620000D02*
X3011000Y-16719000D01*
X3095502Y-16704502D02*
X3095502Y-16634498D01*
X3025498Y-16634498D01*
X3025498Y-16704502D01*
X3095502Y-16704502D01*
D11*
X3408872Y-16560984D02*
X3427920Y-16560984D01*
X3427920Y-16560984D02*
X3446967Y-16570508D01*
X3446967Y-16570508D02*
X3456491Y-16580031D01*
X3456491Y-16580031D02*
X3466015Y-16599079D01*
X3466015Y-16599079D02*
X3475539Y-16637174D01*
X3475539Y-16637174D02*
X3475539Y-16684793D01*
X3475539Y-16684793D02*
X3466015Y-16722888D01*
X3466015Y-16722888D02*
X3456491Y-16741936D01*
X3456491Y-16741936D02*
X3446967Y-16751460D01*
X3446967Y-16751460D02*
X3427920Y-16760984D01*
X3427920Y-16760984D02*
X3408872Y-16760984D01*
X3408872Y-16760984D02*
X3389824Y-16751460D01*
X3389824Y-16751460D02*
X3380301Y-16741936D01*
X3380301Y-16741936D02*
X3370777Y-16722888D01*
X3370777Y-16722888D02*
X3361253Y-16684793D01*
X3361253Y-16684793D02*
X3361253Y-16637174D01*
X3361253Y-16637174D02*
X3370777Y-16599079D01*
X3370777Y-16599079D02*
X3380301Y-16580031D01*
X3380301Y-16580031D02*
X3389824Y-16570508D01*
X3389824Y-16570508D02*
X3408872Y-16560984D01*
X3561253Y-16741936D02*
X3570777Y-16751460D01*
X3570777Y-16751460D02*
X3561253Y-16760984D01*
X3561253Y-16760984D02*
X3551729Y-16751460D01*
X3551729Y-16751460D02*
X3561253Y-16741936D01*
X3561253Y-16741936D02*
X3561253Y-16760984D01*
X3666015Y-16760984D02*
X3704110Y-16760984D01*
X3704110Y-16760984D02*
X3723158Y-16751460D01*
X3723158Y-16751460D02*
X3732682Y-16741936D01*
X3732682Y-16741936D02*
X3751729Y-16713365D01*
X3751729Y-16713365D02*
X3761253Y-16675269D01*
X3761253Y-16675269D02*
X3761253Y-16599079D01*
X3761253Y-16599079D02*
X3751729Y-16580031D01*
X3751729Y-16580031D02*
X3742205Y-16570508D01*
X3742205Y-16570508D02*
X3723158Y-16560984D01*
X3723158Y-16560984D02*
X3685062Y-16560984D01*
X3685062Y-16560984D02*
X3666015Y-16570508D01*
X3666015Y-16570508D02*
X3656491Y-16580031D01*
X3656491Y-16580031D02*
X3646967Y-16599079D01*
X3646967Y-16599079D02*
X3646967Y-16646698D01*
X3646967Y-16646698D02*
X3656491Y-16665746D01*
X3656491Y-16665746D02*
X3666015Y-16675269D01*
X3666015Y-16675269D02*
X3685062Y-16684793D01*
X3685062Y-16684793D02*
X3723158Y-16684793D01*
X3723158Y-16684793D02*
X3742205Y-16675269D01*
X3742205Y-16675269D02*
X3751729Y-16665746D01*
X3751729Y-16665746D02*
X3761253Y-16646698D01*
X3856491Y-16760984D02*
X3894586Y-16760984D01*
X3894586Y-16760984D02*
X3913634Y-16751460D01*
X3913634Y-16751460D02*
X3923158Y-16741936D01*
X3923158Y-16741936D02*
X3942205Y-16713365D01*
X3942205Y-16713365D02*
X3951729Y-16675269D01*
X3951729Y-16675269D02*
X3951729Y-16599079D01*
X3951729Y-16599079D02*
X3942205Y-16580031D01*
X3942205Y-16580031D02*
X3932682Y-16570508D01*
X3932682Y-16570508D02*
X3913634Y-16560984D01*
X3913634Y-16560984D02*
X3875539Y-16560984D01*
X3875539Y-16560984D02*
X3856491Y-16570508D01*
X3856491Y-16570508D02*
X3846967Y-16580031D01*
X3846967Y-16580031D02*
X3837443Y-16599079D01*
X3837443Y-16599079D02*
X3837443Y-16646698D01*
X3837443Y-16646698D02*
X3846967Y-16665746D01*
X3846967Y-16665746D02*
X3856491Y-16675269D01*
X3856491Y-16675269D02*
X3875539Y-16684793D01*
X3875539Y-16684793D02*
X3913634Y-16684793D01*
X3913634Y-16684793D02*
X3932682Y-16675269D01*
X3932682Y-16675269D02*
X3942205Y-16665746D01*
X3942205Y-16665746D02*
X3951729Y-16646698D01*
X4075539Y-16560984D02*
X4094586Y-16560984D01*
X4094586Y-16560984D02*
X4113634Y-16570508D01*
X4113634Y-16570508D02*
X4123158Y-16580031D01*
X4123158Y-16580031D02*
X4132682Y-16599079D01*
X4132682Y-16599079D02*
X4142205Y-16637174D01*
X4142205Y-16637174D02*
X4142205Y-16684793D01*
X4142205Y-16684793D02*
X4132682Y-16722888D01*
X4132682Y-16722888D02*
X4123158Y-16741936D01*
X4123158Y-16741936D02*
X4113634Y-16751460D01*
X4113634Y-16751460D02*
X4094586Y-16760984D01*
X4094586Y-16760984D02*
X4075539Y-16760984D01*
X4075539Y-16760984D02*
X4056491Y-16751460D01*
X4056491Y-16751460D02*
X4046967Y-16741936D01*
X4046967Y-16741936D02*
X4037443Y-16722888D01*
X4037443Y-16722888D02*
X4027920Y-16684793D01*
X4027920Y-16684793D02*
X4027920Y-16637174D01*
X4027920Y-16637174D02*
X4037443Y-16599079D01*
X4037443Y-16599079D02*
X4046967Y-16580031D01*
X4046967Y-16580031D02*
X4056491Y-16570508D01*
X4056491Y-16570508D02*
X4075539Y-16560984D01*
X4227920Y-16760984D02*
X4227920Y-16627650D01*
X4227920Y-16646698D02*
X4237444Y-16637174D01*
X4237444Y-16637174D02*
X4256491Y-16627650D01*
X4256491Y-16627650D02*
X4285063Y-16627650D01*
X4285063Y-16627650D02*
X4304110Y-16637174D01*
X4304110Y-16637174D02*
X4313634Y-16656222D01*
X4313634Y-16656222D02*
X4313634Y-16760984D01*
X4313634Y-16656222D02*
X4323158Y-16637174D01*
X4323158Y-16637174D02*
X4342205Y-16627650D01*
X4342205Y-16627650D02*
X4370777Y-16627650D01*
X4370777Y-16627650D02*
X4389825Y-16637174D01*
X4389825Y-16637174D02*
X4399348Y-16656222D01*
X4399348Y-16656222D02*
X4399348Y-16760984D01*
X4494586Y-16760984D02*
X4494586Y-16627650D01*
X4494586Y-16646698D02*
X4504110Y-16637174D01*
X4504110Y-16637174D02*
X4523158Y-16627650D01*
X4523158Y-16627650D02*
X4551729Y-16627650D01*
X4551729Y-16627650D02*
X4570777Y-16637174D01*
X4570777Y-16637174D02*
X4580301Y-16656222D01*
X4580301Y-16656222D02*
X4580301Y-16760984D01*
X4580301Y-16656222D02*
X4589825Y-16637174D01*
X4589825Y-16637174D02*
X4608872Y-16627650D01*
X4608872Y-16627650D02*
X4637444Y-16627650D01*
X4637444Y-16627650D02*
X4656491Y-16637174D01*
X4656491Y-16637174D02*
X4666015Y-16656222D01*
X4666015Y-16656222D02*
X4666015Y-16760984D01*
X5056491Y-16551460D02*
X4885063Y-16808603D01*
X5313634Y-16560984D02*
X5332682Y-16560984D01*
X5332682Y-16560984D02*
X5351729Y-16570508D01*
X5351729Y-16570508D02*
X5361253Y-16580031D01*
X5361253Y-16580031D02*
X5370777Y-16599079D01*
X5370777Y-16599079D02*
X5380301Y-16637174D01*
X5380301Y-16637174D02*
X5380301Y-16684793D01*
X5380301Y-16684793D02*
X5370777Y-16722888D01*
X5370777Y-16722888D02*
X5361253Y-16741936D01*
X5361253Y-16741936D02*
X5351729Y-16751460D01*
X5351729Y-16751460D02*
X5332682Y-16760984D01*
X5332682Y-16760984D02*
X5313634Y-16760984D01*
X5313634Y-16760984D02*
X5294587Y-16751460D01*
X5294587Y-16751460D02*
X5285063Y-16741936D01*
X5285063Y-16741936D02*
X5275539Y-16722888D01*
X5275539Y-16722888D02*
X5266015Y-16684793D01*
X5266015Y-16684793D02*
X5266015Y-16637174D01*
X5266015Y-16637174D02*
X5275539Y-16599079D01*
X5275539Y-16599079D02*
X5285063Y-16580031D01*
X5285063Y-16580031D02*
X5294587Y-16570508D01*
X5294587Y-16570508D02*
X5313634Y-16560984D01*
X5466015Y-16741936D02*
X5475539Y-16751460D01*
X5475539Y-16751460D02*
X5466015Y-16760984D01*
X5466015Y-16760984D02*
X5456491Y-16751460D01*
X5456491Y-16751460D02*
X5466015Y-16741936D01*
X5466015Y-16741936D02*
X5466015Y-16760984D01*
X5599348Y-16560984D02*
X5618396Y-16560984D01*
X5618396Y-16560984D02*
X5637444Y-16570508D01*
X5637444Y-16570508D02*
X5646967Y-16580031D01*
X5646967Y-16580031D02*
X5656491Y-16599079D01*
X5656491Y-16599079D02*
X5666015Y-16637174D01*
X5666015Y-16637174D02*
X5666015Y-16684793D01*
X5666015Y-16684793D02*
X5656491Y-16722888D01*
X5656491Y-16722888D02*
X5646967Y-16741936D01*
X5646967Y-16741936D02*
X5637444Y-16751460D01*
X5637444Y-16751460D02*
X5618396Y-16760984D01*
X5618396Y-16760984D02*
X5599348Y-16760984D01*
X5599348Y-16760984D02*
X5580301Y-16751460D01*
X5580301Y-16751460D02*
X5570777Y-16741936D01*
X5570777Y-16741936D02*
X5561253Y-16722888D01*
X5561253Y-16722888D02*
X5551729Y-16684793D01*
X5551729Y-16684793D02*
X5551729Y-16637174D01*
X5551729Y-16637174D02*
X5561253Y-16599079D01*
X5561253Y-16599079D02*
X5570777Y-16580031D01*
X5570777Y-16580031D02*
X5580301Y-16570508D01*
X5580301Y-16570508D02*
X5599348Y-16560984D01*
X5732682Y-16560984D02*
X5856491Y-16560984D01*
X5856491Y-16560984D02*
X5789825Y-16637174D01*
X5789825Y-16637174D02*
X5818396Y-16637174D01*
X5818396Y-16637174D02*
X5837444Y-16646698D01*
X5837444Y-16646698D02*
X5846967Y-16656222D01*
X5846967Y-16656222D02*
X5856491Y-16675269D01*
X5856491Y-16675269D02*
X5856491Y-16722888D01*
X5856491Y-16722888D02*
X5846967Y-16741936D01*
X5846967Y-16741936D02*
X5837444Y-16751460D01*
X5837444Y-16751460D02*
X5818396Y-16760984D01*
X5818396Y-16760984D02*
X5761253Y-16760984D01*
X5761253Y-16760984D02*
X5742206Y-16751460D01*
X5742206Y-16751460D02*
X5732682Y-16741936D01*
X5951729Y-16760984D02*
X5989825Y-16760984D01*
X5989825Y-16760984D02*
X6008872Y-16751460D01*
X6008872Y-16751460D02*
X6018396Y-16741936D01*
X6018396Y-16741936D02*
X6037444Y-16713365D01*
X6037444Y-16713365D02*
X6046967Y-16675269D01*
X6046967Y-16675269D02*
X6046967Y-16599079D01*
X6046967Y-16599079D02*
X6037444Y-16580031D01*
X6037444Y-16580031D02*
X6027920Y-16570508D01*
X6027920Y-16570508D02*
X6008872Y-16560984D01*
X6008872Y-16560984D02*
X5970777Y-16560984D01*
X5970777Y-16560984D02*
X5951729Y-16570508D01*
X5951729Y-16570508D02*
X5942206Y-16580031D01*
X5942206Y-16580031D02*
X5932682Y-16599079D01*
X5932682Y-16599079D02*
X5932682Y-16646698D01*
X5932682Y-16646698D02*
X5942206Y-16665746D01*
X5942206Y-16665746D02*
X5951729Y-16675269D01*
X5951729Y-16675269D02*
X5970777Y-16684793D01*
X5970777Y-16684793D02*
X6008872Y-16684793D01*
X6008872Y-16684793D02*
X6027920Y-16675269D01*
X6027920Y-16675269D02*
X6037444Y-16665746D01*
X6037444Y-16665746D02*
X6046967Y-16646698D01*
X6170777Y-16560984D02*
X6189825Y-16560984D01*
X6189825Y-16560984D02*
X6208872Y-16570508D01*
X6208872Y-16570508D02*
X6218396Y-16580031D01*
X6218396Y-16580031D02*
X6227920Y-16599079D01*
X6227920Y-16599079D02*
X6237444Y-16637174D01*
X6237444Y-16637174D02*
X6237444Y-16684793D01*
X6237444Y-16684793D02*
X6227920Y-16722888D01*
X6227920Y-16722888D02*
X6218396Y-16741936D01*
X6218396Y-16741936D02*
X6208872Y-16751460D01*
X6208872Y-16751460D02*
X6189825Y-16760984D01*
X6189825Y-16760984D02*
X6170777Y-16760984D01*
X6170777Y-16760984D02*
X6151729Y-16751460D01*
X6151729Y-16751460D02*
X6142206Y-16741936D01*
X6142206Y-16741936D02*
X6132682Y-16722888D01*
X6132682Y-16722888D02*
X6123158Y-16684793D01*
X6123158Y-16684793D02*
X6123158Y-16637174D01*
X6123158Y-16637174D02*
X6132682Y-16599079D01*
X6132682Y-16599079D02*
X6142206Y-16580031D01*
X6142206Y-16580031D02*
X6151729Y-16570508D01*
X6151729Y-16570508D02*
X6170777Y-16560984D01*
X6313634Y-16560984D02*
X6313634Y-16599079D01*
X6389825Y-16560984D02*
X6389825Y-16599079D01*
X6685063Y-16837174D02*
X6675539Y-16827650D01*
X6675539Y-16827650D02*
X6656491Y-16799079D01*
X6656491Y-16799079D02*
X6646968Y-16780031D01*
X6646968Y-16780031D02*
X6637444Y-16751460D01*
X6637444Y-16751460D02*
X6627920Y-16703841D01*
X6627920Y-16703841D02*
X6627920Y-16665746D01*
X6627920Y-16665746D02*
X6637444Y-16618127D01*
X6637444Y-16618127D02*
X6646968Y-16589555D01*
X6646968Y-16589555D02*
X6656491Y-16570508D01*
X6656491Y-16570508D02*
X6675539Y-16541936D01*
X6675539Y-16541936D02*
X6685063Y-16532412D01*
X6846968Y-16627650D02*
X6846968Y-16760984D01*
X6799348Y-16551460D02*
X6751729Y-16694317D01*
X6751729Y-16694317D02*
X6875539Y-16694317D01*
X7104110Y-16760984D02*
X7104110Y-16560984D01*
X7189825Y-16760984D02*
X7189825Y-16656222D01*
X7189825Y-16656222D02*
X7180301Y-16637174D01*
X7180301Y-16637174D02*
X7161253Y-16627650D01*
X7161253Y-16627650D02*
X7132682Y-16627650D01*
X7132682Y-16627650D02*
X7113634Y-16637174D01*
X7113634Y-16637174D02*
X7104110Y-16646698D01*
X7313634Y-16760984D02*
X7294587Y-16751460D01*
X7294587Y-16751460D02*
X7285063Y-16741936D01*
X7285063Y-16741936D02*
X7275539Y-16722888D01*
X7275539Y-16722888D02*
X7275539Y-16665746D01*
X7275539Y-16665746D02*
X7285063Y-16646698D01*
X7285063Y-16646698D02*
X7294587Y-16637174D01*
X7294587Y-16637174D02*
X7313634Y-16627650D01*
X7313634Y-16627650D02*
X7342206Y-16627650D01*
X7342206Y-16627650D02*
X7361253Y-16637174D01*
X7361253Y-16637174D02*
X7370777Y-16646698D01*
X7370777Y-16646698D02*
X7380301Y-16665746D01*
X7380301Y-16665746D02*
X7380301Y-16722888D01*
X7380301Y-16722888D02*
X7370777Y-16741936D01*
X7370777Y-16741936D02*
X7361253Y-16751460D01*
X7361253Y-16751460D02*
X7342206Y-16760984D01*
X7342206Y-16760984D02*
X7313634Y-16760984D01*
X7494587Y-16760984D02*
X7475539Y-16751460D01*
X7475539Y-16751460D02*
X7466015Y-16732412D01*
X7466015Y-16732412D02*
X7466015Y-16560984D01*
X7646968Y-16751460D02*
X7627920Y-16760984D01*
X7627920Y-16760984D02*
X7589825Y-16760984D01*
X7589825Y-16760984D02*
X7570777Y-16751460D01*
X7570777Y-16751460D02*
X7561253Y-16732412D01*
X7561253Y-16732412D02*
X7561253Y-16656222D01*
X7561253Y-16656222D02*
X7570777Y-16637174D01*
X7570777Y-16637174D02*
X7589825Y-16627650D01*
X7589825Y-16627650D02*
X7627920Y-16627650D01*
X7627920Y-16627650D02*
X7646968Y-16637174D01*
X7646968Y-16637174D02*
X7656491Y-16656222D01*
X7656491Y-16656222D02*
X7656491Y-16675269D01*
X7656491Y-16675269D02*
X7561253Y-16694317D01*
X7732682Y-16751460D02*
X7751730Y-16760984D01*
X7751730Y-16760984D02*
X7789825Y-16760984D01*
X7789825Y-16760984D02*
X7808872Y-16751460D01*
X7808872Y-16751460D02*
X7818396Y-16732412D01*
X7818396Y-16732412D02*
X7818396Y-16722888D01*
X7818396Y-16722888D02*
X7808872Y-16703841D01*
X7808872Y-16703841D02*
X7789825Y-16694317D01*
X7789825Y-16694317D02*
X7761253Y-16694317D01*
X7761253Y-16694317D02*
X7742206Y-16684793D01*
X7742206Y-16684793D02*
X7732682Y-16665746D01*
X7732682Y-16665746D02*
X7732682Y-16656222D01*
X7732682Y-16656222D02*
X7742206Y-16637174D01*
X7742206Y-16637174D02*
X7761253Y-16627650D01*
X7761253Y-16627650D02*
X7789825Y-16627650D01*
X7789825Y-16627650D02*
X7808872Y-16637174D01*
X7885063Y-16837174D02*
X7894587Y-16827650D01*
X7894587Y-16827650D02*
X7913634Y-16799079D01*
X7913634Y-16799079D02*
X7923158Y-16780031D01*
X7923158Y-16780031D02*
X7932682Y-16751460D01*
X7932682Y-16751460D02*
X7942206Y-16703841D01*
X7942206Y-16703841D02*
X7942206Y-16665746D01*
X7942206Y-16665746D02*
X7932682Y-16618127D01*
X7932682Y-16618127D02*
X7923158Y-16589555D01*
X7923158Y-16589555D02*
X7913634Y-16570508D01*
X7913634Y-16570508D02*
X7894587Y-16541936D01*
X7894587Y-16541936D02*
X7885063Y-16532412D01*
D12*
X3000000Y-16878500D02*
X3110000Y-16988500D01*
X3110000Y-16878500D02*
X3000000Y-16988500D01*
X3055000Y-16988500D02*
X3110000Y-16933500D01*
X3055000Y-16878500D01*
X3000000Y-16933500D01*
X3055000Y-16988500D01*
D11*
X3475539Y-17024984D02*
X3361253Y-17024984D01*
X3418396Y-17024984D02*
X3418396Y-16824984D01*
X3418396Y-16824984D02*
X3399348Y-16853555D01*
X3399348Y-16853555D02*
X3380301Y-16872603D01*
X3380301Y-16872603D02*
X3361253Y-16882127D01*
X3561253Y-17005936D02*
X3570777Y-17015460D01*
X3570777Y-17015460D02*
X3561253Y-17024984D01*
X3561253Y-17024984D02*
X3551729Y-17015460D01*
X3551729Y-17015460D02*
X3561253Y-17005936D01*
X3561253Y-17005936D02*
X3561253Y-17024984D01*
X3761253Y-17024984D02*
X3646967Y-17024984D01*
X3704110Y-17024984D02*
X3704110Y-16824984D01*
X3704110Y-16824984D02*
X3685062Y-16853555D01*
X3685062Y-16853555D02*
X3666015Y-16872603D01*
X3666015Y-16872603D02*
X3646967Y-16882127D01*
X3885062Y-16824984D02*
X3904110Y-16824984D01*
X3904110Y-16824984D02*
X3923158Y-16834508D01*
X3923158Y-16834508D02*
X3932682Y-16844031D01*
X3932682Y-16844031D02*
X3942205Y-16863079D01*
X3942205Y-16863079D02*
X3951729Y-16901174D01*
X3951729Y-16901174D02*
X3951729Y-16948793D01*
X3951729Y-16948793D02*
X3942205Y-16986889D01*
X3942205Y-16986889D02*
X3932682Y-17005936D01*
X3932682Y-17005936D02*
X3923158Y-17015460D01*
X3923158Y-17015460D02*
X3904110Y-17024984D01*
X3904110Y-17024984D02*
X3885062Y-17024984D01*
X3885062Y-17024984D02*
X3866015Y-17015460D01*
X3866015Y-17015460D02*
X3856491Y-17005936D01*
X3856491Y-17005936D02*
X3846967Y-16986889D01*
X3846967Y-16986889D02*
X3837443Y-16948793D01*
X3837443Y-16948793D02*
X3837443Y-16901174D01*
X3837443Y-16901174D02*
X3846967Y-16863079D01*
X3846967Y-16863079D02*
X3856491Y-16844031D01*
X3856491Y-16844031D02*
X3866015Y-16834508D01*
X3866015Y-16834508D02*
X3885062Y-16824984D01*
X4075539Y-16824984D02*
X4094586Y-16824984D01*
X4094586Y-16824984D02*
X4113634Y-16834508D01*
X4113634Y-16834508D02*
X4123158Y-16844031D01*
X4123158Y-16844031D02*
X4132682Y-16863079D01*
X4132682Y-16863079D02*
X4142205Y-16901174D01*
X4142205Y-16901174D02*
X4142205Y-16948793D01*
X4142205Y-16948793D02*
X4132682Y-16986889D01*
X4132682Y-16986889D02*
X4123158Y-17005936D01*
X4123158Y-17005936D02*
X4113634Y-17015460D01*
X4113634Y-17015460D02*
X4094586Y-17024984D01*
X4094586Y-17024984D02*
X4075539Y-17024984D01*
X4075539Y-17024984D02*
X4056491Y-17015460D01*
X4056491Y-17015460D02*
X4046967Y-17005936D01*
X4046967Y-17005936D02*
X4037443Y-16986889D01*
X4037443Y-16986889D02*
X4027920Y-16948793D01*
X4027920Y-16948793D02*
X4027920Y-16901174D01*
X4027920Y-16901174D02*
X4037443Y-16863079D01*
X4037443Y-16863079D02*
X4046967Y-16844031D01*
X4046967Y-16844031D02*
X4056491Y-16834508D01*
X4056491Y-16834508D02*
X4075539Y-16824984D01*
X4227920Y-17024984D02*
X4227920Y-16891650D01*
X4227920Y-16910698D02*
X4237444Y-16901174D01*
X4237444Y-16901174D02*
X4256491Y-16891650D01*
X4256491Y-16891650D02*
X4285063Y-16891650D01*
X4285063Y-16891650D02*
X4304110Y-16901174D01*
X4304110Y-16901174D02*
X4313634Y-16920222D01*
X4313634Y-16920222D02*
X4313634Y-17024984D01*
X4313634Y-16920222D02*
X4323158Y-16901174D01*
X4323158Y-16901174D02*
X4342205Y-16891650D01*
X4342205Y-16891650D02*
X4370777Y-16891650D01*
X4370777Y-16891650D02*
X4389825Y-16901174D01*
X4389825Y-16901174D02*
X4399348Y-16920222D01*
X4399348Y-16920222D02*
X4399348Y-17024984D01*
X4494586Y-17024984D02*
X4494586Y-16891650D01*
X4494586Y-16910698D02*
X4504110Y-16901174D01*
X4504110Y-16901174D02*
X4523158Y-16891650D01*
X4523158Y-16891650D02*
X4551729Y-16891650D01*
X4551729Y-16891650D02*
X4570777Y-16901174D01*
X4570777Y-16901174D02*
X4580301Y-16920222D01*
X4580301Y-16920222D02*
X4580301Y-17024984D01*
X4580301Y-16920222D02*
X4589825Y-16901174D01*
X4589825Y-16901174D02*
X4608872Y-16891650D01*
X4608872Y-16891650D02*
X4637444Y-16891650D01*
X4637444Y-16891650D02*
X4656491Y-16901174D01*
X4656491Y-16901174D02*
X4666015Y-16920222D01*
X4666015Y-16920222D02*
X4666015Y-17024984D01*
X5056491Y-16815460D02*
X4885063Y-17072603D01*
X5313634Y-16824984D02*
X5332682Y-16824984D01*
X5332682Y-16824984D02*
X5351729Y-16834508D01*
X5351729Y-16834508D02*
X5361253Y-16844031D01*
X5361253Y-16844031D02*
X5370777Y-16863079D01*
X5370777Y-16863079D02*
X5380301Y-16901174D01*
X5380301Y-16901174D02*
X5380301Y-16948793D01*
X5380301Y-16948793D02*
X5370777Y-16986889D01*
X5370777Y-16986889D02*
X5361253Y-17005936D01*
X5361253Y-17005936D02*
X5351729Y-17015460D01*
X5351729Y-17015460D02*
X5332682Y-17024984D01*
X5332682Y-17024984D02*
X5313634Y-17024984D01*
X5313634Y-17024984D02*
X5294587Y-17015460D01*
X5294587Y-17015460D02*
X5285063Y-17005936D01*
X5285063Y-17005936D02*
X5275539Y-16986889D01*
X5275539Y-16986889D02*
X5266015Y-16948793D01*
X5266015Y-16948793D02*
X5266015Y-16901174D01*
X5266015Y-16901174D02*
X5275539Y-16863079D01*
X5275539Y-16863079D02*
X5285063Y-16844031D01*
X5285063Y-16844031D02*
X5294587Y-16834508D01*
X5294587Y-16834508D02*
X5313634Y-16824984D01*
X5466015Y-17005936D02*
X5475539Y-17015460D01*
X5475539Y-17015460D02*
X5466015Y-17024984D01*
X5466015Y-17024984D02*
X5456491Y-17015460D01*
X5456491Y-17015460D02*
X5466015Y-17005936D01*
X5466015Y-17005936D02*
X5466015Y-17024984D01*
X5599348Y-16824984D02*
X5618396Y-16824984D01*
X5618396Y-16824984D02*
X5637444Y-16834508D01*
X5637444Y-16834508D02*
X5646967Y-16844031D01*
X5646967Y-16844031D02*
X5656491Y-16863079D01*
X5656491Y-16863079D02*
X5666015Y-16901174D01*
X5666015Y-16901174D02*
X5666015Y-16948793D01*
X5666015Y-16948793D02*
X5656491Y-16986889D01*
X5656491Y-16986889D02*
X5646967Y-17005936D01*
X5646967Y-17005936D02*
X5637444Y-17015460D01*
X5637444Y-17015460D02*
X5618396Y-17024984D01*
X5618396Y-17024984D02*
X5599348Y-17024984D01*
X5599348Y-17024984D02*
X5580301Y-17015460D01*
X5580301Y-17015460D02*
X5570777Y-17005936D01*
X5570777Y-17005936D02*
X5561253Y-16986889D01*
X5561253Y-16986889D02*
X5551729Y-16948793D01*
X5551729Y-16948793D02*
X5551729Y-16901174D01*
X5551729Y-16901174D02*
X5561253Y-16863079D01*
X5561253Y-16863079D02*
X5570777Y-16844031D01*
X5570777Y-16844031D02*
X5580301Y-16834508D01*
X5580301Y-16834508D02*
X5599348Y-16824984D01*
X5837444Y-16891650D02*
X5837444Y-17024984D01*
X5789825Y-16815460D02*
X5742206Y-16958317D01*
X5742206Y-16958317D02*
X5866015Y-16958317D01*
X5923158Y-16824984D02*
X6046967Y-16824984D01*
X6046967Y-16824984D02*
X5980301Y-16901174D01*
X5980301Y-16901174D02*
X6008872Y-16901174D01*
X6008872Y-16901174D02*
X6027920Y-16910698D01*
X6027920Y-16910698D02*
X6037444Y-16920222D01*
X6037444Y-16920222D02*
X6046967Y-16939270D01*
X6046967Y-16939270D02*
X6046967Y-16986889D01*
X6046967Y-16986889D02*
X6037444Y-17005936D01*
X6037444Y-17005936D02*
X6027920Y-17015460D01*
X6027920Y-17015460D02*
X6008872Y-17024984D01*
X6008872Y-17024984D02*
X5951729Y-17024984D01*
X5951729Y-17024984D02*
X5932682Y-17015460D01*
X5932682Y-17015460D02*
X5923158Y-17005936D01*
X6113634Y-16824984D02*
X6237444Y-16824984D01*
X6237444Y-16824984D02*
X6170777Y-16901174D01*
X6170777Y-16901174D02*
X6199348Y-16901174D01*
X6199348Y-16901174D02*
X6218396Y-16910698D01*
X6218396Y-16910698D02*
X6227920Y-16920222D01*
X6227920Y-16920222D02*
X6237444Y-16939270D01*
X6237444Y-16939270D02*
X6237444Y-16986889D01*
X6237444Y-16986889D02*
X6227920Y-17005936D01*
X6227920Y-17005936D02*
X6218396Y-17015460D01*
X6218396Y-17015460D02*
X6199348Y-17024984D01*
X6199348Y-17024984D02*
X6142206Y-17024984D01*
X6142206Y-17024984D02*
X6123158Y-17015460D01*
X6123158Y-17015460D02*
X6113634Y-17005936D01*
X6313634Y-16824984D02*
X6313634Y-16863079D01*
X6389825Y-16824984D02*
X6389825Y-16863079D01*
X6685063Y-17101174D02*
X6675539Y-17091650D01*
X6675539Y-17091650D02*
X6656491Y-17063079D01*
X6656491Y-17063079D02*
X6646968Y-17044031D01*
X6646968Y-17044031D02*
X6637444Y-17015460D01*
X6637444Y-17015460D02*
X6627920Y-16967841D01*
X6627920Y-16967841D02*
X6627920Y-16929746D01*
X6627920Y-16929746D02*
X6637444Y-16882127D01*
X6637444Y-16882127D02*
X6646968Y-16853555D01*
X6646968Y-16853555D02*
X6656491Y-16834508D01*
X6656491Y-16834508D02*
X6675539Y-16805936D01*
X6675539Y-16805936D02*
X6685063Y-16796412D01*
X6789825Y-16910698D02*
X6770777Y-16901174D01*
X6770777Y-16901174D02*
X6761253Y-16891650D01*
X6761253Y-16891650D02*
X6751729Y-16872603D01*
X6751729Y-16872603D02*
X6751729Y-16863079D01*
X6751729Y-16863079D02*
X6761253Y-16844031D01*
X6761253Y-16844031D02*
X6770777Y-16834508D01*
X6770777Y-16834508D02*
X6789825Y-16824984D01*
X6789825Y-16824984D02*
X6827920Y-16824984D01*
X6827920Y-16824984D02*
X6846968Y-16834508D01*
X6846968Y-16834508D02*
X6856491Y-16844031D01*
X6856491Y-16844031D02*
X6866015Y-16863079D01*
X6866015Y-16863079D02*
X6866015Y-16872603D01*
X6866015Y-16872603D02*
X6856491Y-16891650D01*
X6856491Y-16891650D02*
X6846968Y-16901174D01*
X6846968Y-16901174D02*
X6827920Y-16910698D01*
X6827920Y-16910698D02*
X6789825Y-16910698D01*
X6789825Y-16910698D02*
X6770777Y-16920222D01*
X6770777Y-16920222D02*
X6761253Y-16929746D01*
X6761253Y-16929746D02*
X6751729Y-16948793D01*
X6751729Y-16948793D02*
X6751729Y-16986889D01*
X6751729Y-16986889D02*
X6761253Y-17005936D01*
X6761253Y-17005936D02*
X6770777Y-17015460D01*
X6770777Y-17015460D02*
X6789825Y-17024984D01*
X6789825Y-17024984D02*
X6827920Y-17024984D01*
X6827920Y-17024984D02*
X6846968Y-17015460D01*
X6846968Y-17015460D02*
X6856491Y-17005936D01*
X6856491Y-17005936D02*
X6866015Y-16986889D01*
X6866015Y-16986889D02*
X6866015Y-16948793D01*
X6866015Y-16948793D02*
X6856491Y-16929746D01*
X6856491Y-16929746D02*
X6846968Y-16920222D01*
X6846968Y-16920222D02*
X6827920Y-16910698D01*
X7104110Y-17024984D02*
X7104110Y-16824984D01*
X7189825Y-17024984D02*
X7189825Y-16920222D01*
X7189825Y-16920222D02*
X7180301Y-16901174D01*
X7180301Y-16901174D02*
X7161253Y-16891650D01*
X7161253Y-16891650D02*
X7132682Y-16891650D01*
X7132682Y-16891650D02*
X7113634Y-16901174D01*
X7113634Y-16901174D02*
X7104110Y-16910698D01*
X7313634Y-17024984D02*
X7294587Y-17015460D01*
X7294587Y-17015460D02*
X7285063Y-17005936D01*
X7285063Y-17005936D02*
X7275539Y-16986889D01*
X7275539Y-16986889D02*
X7275539Y-16929746D01*
X7275539Y-16929746D02*
X7285063Y-16910698D01*
X7285063Y-16910698D02*
X7294587Y-16901174D01*
X7294587Y-16901174D02*
X7313634Y-16891650D01*
X7313634Y-16891650D02*
X7342206Y-16891650D01*
X7342206Y-16891650D02*
X7361253Y-16901174D01*
X7361253Y-16901174D02*
X7370777Y-16910698D01*
X7370777Y-16910698D02*
X7380301Y-16929746D01*
X7380301Y-16929746D02*
X7380301Y-16986889D01*
X7380301Y-16986889D02*
X7370777Y-17005936D01*
X7370777Y-17005936D02*
X7361253Y-17015460D01*
X7361253Y-17015460D02*
X7342206Y-17024984D01*
X7342206Y-17024984D02*
X7313634Y-17024984D01*
X7494587Y-17024984D02*
X7475539Y-17015460D01*
X7475539Y-17015460D02*
X7466015Y-16996412D01*
X7466015Y-16996412D02*
X7466015Y-16824984D01*
X7646968Y-17015460D02*
X7627920Y-17024984D01*
X7627920Y-17024984D02*
X7589825Y-17024984D01*
X7589825Y-17024984D02*
X7570777Y-17015460D01*
X7570777Y-17015460D02*
X7561253Y-16996412D01*
X7561253Y-16996412D02*
X7561253Y-16920222D01*
X7561253Y-16920222D02*
X7570777Y-16901174D01*
X7570777Y-16901174D02*
X7589825Y-16891650D01*
X7589825Y-16891650D02*
X7627920Y-16891650D01*
X7627920Y-16891650D02*
X7646968Y-16901174D01*
X7646968Y-16901174D02*
X7656491Y-16920222D01*
X7656491Y-16920222D02*
X7656491Y-16939270D01*
X7656491Y-16939270D02*
X7561253Y-16958317D01*
X7732682Y-17015460D02*
X7751730Y-17024984D01*
X7751730Y-17024984D02*
X7789825Y-17024984D01*
X7789825Y-17024984D02*
X7808872Y-17015460D01*
X7808872Y-17015460D02*
X7818396Y-16996412D01*
X7818396Y-16996412D02*
X7818396Y-16986889D01*
X7818396Y-16986889D02*
X7808872Y-16967841D01*
X7808872Y-16967841D02*
X7789825Y-16958317D01*
X7789825Y-16958317D02*
X7761253Y-16958317D01*
X7761253Y-16958317D02*
X7742206Y-16948793D01*
X7742206Y-16948793D02*
X7732682Y-16929746D01*
X7732682Y-16929746D02*
X7732682Y-16920222D01*
X7732682Y-16920222D02*
X7742206Y-16901174D01*
X7742206Y-16901174D02*
X7761253Y-16891650D01*
X7761253Y-16891650D02*
X7789825Y-16891650D01*
X7789825Y-16891650D02*
X7808872Y-16901174D01*
X7885063Y-17101174D02*
X7894587Y-17091650D01*
X7894587Y-17091650D02*
X7913634Y-17063079D01*
X7913634Y-17063079D02*
X7923158Y-17044031D01*
X7923158Y-17044031D02*
X7932682Y-17015460D01*
X7932682Y-17015460D02*
X7942206Y-16967841D01*
X7942206Y-16967841D02*
X7942206Y-16929746D01*
X7942206Y-16929746D02*
X7932682Y-16882127D01*
X7932682Y-16882127D02*
X7923158Y-16853555D01*
X7923158Y-16853555D02*
X7913634Y-16834508D01*
X7913634Y-16834508D02*
X7894587Y-16805936D01*
X7894587Y-16805936D02*
X7885063Y-16796412D01*
D13*
X3045000Y-17132500D02*
X3045000Y-17262500D01*
X2980000Y-17197500D02*
X3110000Y-17197500D01*
X3110000Y-17197500D02*
G75*
G03*
X3110000Y-17197500I-65000J0D01*
G01*
D11*
X3475539Y-17288984D02*
X3361253Y-17288984D01*
X3418396Y-17288984D02*
X3418396Y-17088984D01*
X3418396Y-17088984D02*
X3399348Y-17117555D01*
X3399348Y-17117555D02*
X3380301Y-17136603D01*
X3380301Y-17136603D02*
X3361253Y-17146127D01*
X3561253Y-17269936D02*
X3570777Y-17279460D01*
X3570777Y-17279460D02*
X3561253Y-17288984D01*
X3561253Y-17288984D02*
X3551729Y-17279460D01*
X3551729Y-17279460D02*
X3561253Y-17269936D01*
X3561253Y-17269936D02*
X3561253Y-17288984D01*
X3637443Y-17088984D02*
X3761253Y-17088984D01*
X3761253Y-17088984D02*
X3694586Y-17165174D01*
X3694586Y-17165174D02*
X3723158Y-17165174D01*
X3723158Y-17165174D02*
X3742205Y-17174698D01*
X3742205Y-17174698D02*
X3751729Y-17184222D01*
X3751729Y-17184222D02*
X3761253Y-17203270D01*
X3761253Y-17203270D02*
X3761253Y-17250889D01*
X3761253Y-17250889D02*
X3751729Y-17269936D01*
X3751729Y-17269936D02*
X3742205Y-17279460D01*
X3742205Y-17279460D02*
X3723158Y-17288984D01*
X3723158Y-17288984D02*
X3666015Y-17288984D01*
X3666015Y-17288984D02*
X3646967Y-17279460D01*
X3646967Y-17279460D02*
X3637443Y-17269936D01*
X3885062Y-17088984D02*
X3904110Y-17088984D01*
X3904110Y-17088984D02*
X3923158Y-17098508D01*
X3923158Y-17098508D02*
X3932682Y-17108031D01*
X3932682Y-17108031D02*
X3942205Y-17127079D01*
X3942205Y-17127079D02*
X3951729Y-17165174D01*
X3951729Y-17165174D02*
X3951729Y-17212793D01*
X3951729Y-17212793D02*
X3942205Y-17250889D01*
X3942205Y-17250889D02*
X3932682Y-17269936D01*
X3932682Y-17269936D02*
X3923158Y-17279460D01*
X3923158Y-17279460D02*
X3904110Y-17288984D01*
X3904110Y-17288984D02*
X3885062Y-17288984D01*
X3885062Y-17288984D02*
X3866015Y-17279460D01*
X3866015Y-17279460D02*
X3856491Y-17269936D01*
X3856491Y-17269936D02*
X3846967Y-17250889D01*
X3846967Y-17250889D02*
X3837443Y-17212793D01*
X3837443Y-17212793D02*
X3837443Y-17165174D01*
X3837443Y-17165174D02*
X3846967Y-17127079D01*
X3846967Y-17127079D02*
X3856491Y-17108031D01*
X3856491Y-17108031D02*
X3866015Y-17098508D01*
X3866015Y-17098508D02*
X3885062Y-17088984D01*
X4075539Y-17088984D02*
X4094586Y-17088984D01*
X4094586Y-17088984D02*
X4113634Y-17098508D01*
X4113634Y-17098508D02*
X4123158Y-17108031D01*
X4123158Y-17108031D02*
X4132682Y-17127079D01*
X4132682Y-17127079D02*
X4142205Y-17165174D01*
X4142205Y-17165174D02*
X4142205Y-17212793D01*
X4142205Y-17212793D02*
X4132682Y-17250889D01*
X4132682Y-17250889D02*
X4123158Y-17269936D01*
X4123158Y-17269936D02*
X4113634Y-17279460D01*
X4113634Y-17279460D02*
X4094586Y-17288984D01*
X4094586Y-17288984D02*
X4075539Y-17288984D01*
X4075539Y-17288984D02*
X4056491Y-17279460D01*
X4056491Y-17279460D02*
X4046967Y-17269936D01*
X4046967Y-17269936D02*
X4037443Y-17250889D01*
X4037443Y-17250889D02*
X4027920Y-17212793D01*
X4027920Y-17212793D02*
X4027920Y-17165174D01*
X4027920Y-17165174D02*
X4037443Y-17127079D01*
X4037443Y-17127079D02*
X4046967Y-17108031D01*
X4046967Y-17108031D02*
X4056491Y-17098508D01*
X4056491Y-17098508D02*
X4075539Y-17088984D01*
X4227920Y-17288984D02*
X4227920Y-17155650D01*
X4227920Y-17174698D02*
X4237444Y-17165174D01*
X4237444Y-17165174D02*
X4256491Y-17155650D01*
X4256491Y-17155650D02*
X4285063Y-17155650D01*
X4285063Y-17155650D02*
X4304110Y-17165174D01*
X4304110Y-17165174D02*
X4313634Y-17184222D01*
X4313634Y-17184222D02*
X4313634Y-17288984D01*
X4313634Y-17184222D02*
X4323158Y-17165174D01*
X4323158Y-17165174D02*
X4342205Y-17155650D01*
X4342205Y-17155650D02*
X4370777Y-17155650D01*
X4370777Y-17155650D02*
X4389825Y-17165174D01*
X4389825Y-17165174D02*
X4399348Y-17184222D01*
X4399348Y-17184222D02*
X4399348Y-17288984D01*
X4494586Y-17288984D02*
X4494586Y-17155650D01*
X4494586Y-17174698D02*
X4504110Y-17165174D01*
X4504110Y-17165174D02*
X4523158Y-17155650D01*
X4523158Y-17155650D02*
X4551729Y-17155650D01*
X4551729Y-17155650D02*
X4570777Y-17165174D01*
X4570777Y-17165174D02*
X4580301Y-17184222D01*
X4580301Y-17184222D02*
X4580301Y-17288984D01*
X4580301Y-17184222D02*
X4589825Y-17165174D01*
X4589825Y-17165174D02*
X4608872Y-17155650D01*
X4608872Y-17155650D02*
X4637444Y-17155650D01*
X4637444Y-17155650D02*
X4656491Y-17165174D01*
X4656491Y-17165174D02*
X4666015Y-17184222D01*
X4666015Y-17184222D02*
X4666015Y-17288984D01*
X5056491Y-17079460D02*
X4885063Y-17336603D01*
X5313634Y-17088984D02*
X5332682Y-17088984D01*
X5332682Y-17088984D02*
X5351729Y-17098508D01*
X5351729Y-17098508D02*
X5361253Y-17108031D01*
X5361253Y-17108031D02*
X5370777Y-17127079D01*
X5370777Y-17127079D02*
X5380301Y-17165174D01*
X5380301Y-17165174D02*
X5380301Y-17212793D01*
X5380301Y-17212793D02*
X5370777Y-17250889D01*
X5370777Y-17250889D02*
X5361253Y-17269936D01*
X5361253Y-17269936D02*
X5351729Y-17279460D01*
X5351729Y-17279460D02*
X5332682Y-17288984D01*
X5332682Y-17288984D02*
X5313634Y-17288984D01*
X5313634Y-17288984D02*
X5294587Y-17279460D01*
X5294587Y-17279460D02*
X5285063Y-17269936D01*
X5285063Y-17269936D02*
X5275539Y-17250889D01*
X5275539Y-17250889D02*
X5266015Y-17212793D01*
X5266015Y-17212793D02*
X5266015Y-17165174D01*
X5266015Y-17165174D02*
X5275539Y-17127079D01*
X5275539Y-17127079D02*
X5285063Y-17108031D01*
X5285063Y-17108031D02*
X5294587Y-17098508D01*
X5294587Y-17098508D02*
X5313634Y-17088984D01*
X5466015Y-17269936D02*
X5475539Y-17279460D01*
X5475539Y-17279460D02*
X5466015Y-17288984D01*
X5466015Y-17288984D02*
X5456491Y-17279460D01*
X5456491Y-17279460D02*
X5466015Y-17269936D01*
X5466015Y-17269936D02*
X5466015Y-17288984D01*
X5599348Y-17088984D02*
X5618396Y-17088984D01*
X5618396Y-17088984D02*
X5637444Y-17098508D01*
X5637444Y-17098508D02*
X5646967Y-17108031D01*
X5646967Y-17108031D02*
X5656491Y-17127079D01*
X5656491Y-17127079D02*
X5666015Y-17165174D01*
X5666015Y-17165174D02*
X5666015Y-17212793D01*
X5666015Y-17212793D02*
X5656491Y-17250889D01*
X5656491Y-17250889D02*
X5646967Y-17269936D01*
X5646967Y-17269936D02*
X5637444Y-17279460D01*
X5637444Y-17279460D02*
X5618396Y-17288984D01*
X5618396Y-17288984D02*
X5599348Y-17288984D01*
X5599348Y-17288984D02*
X5580301Y-17279460D01*
X5580301Y-17279460D02*
X5570777Y-17269936D01*
X5570777Y-17269936D02*
X5561253Y-17250889D01*
X5561253Y-17250889D02*
X5551729Y-17212793D01*
X5551729Y-17212793D02*
X5551729Y-17165174D01*
X5551729Y-17165174D02*
X5561253Y-17127079D01*
X5561253Y-17127079D02*
X5570777Y-17108031D01*
X5570777Y-17108031D02*
X5580301Y-17098508D01*
X5580301Y-17098508D02*
X5599348Y-17088984D01*
X5846967Y-17088984D02*
X5751729Y-17088984D01*
X5751729Y-17088984D02*
X5742206Y-17184222D01*
X5742206Y-17184222D02*
X5751729Y-17174698D01*
X5751729Y-17174698D02*
X5770777Y-17165174D01*
X5770777Y-17165174D02*
X5818396Y-17165174D01*
X5818396Y-17165174D02*
X5837444Y-17174698D01*
X5837444Y-17174698D02*
X5846967Y-17184222D01*
X5846967Y-17184222D02*
X5856491Y-17203270D01*
X5856491Y-17203270D02*
X5856491Y-17250889D01*
X5856491Y-17250889D02*
X5846967Y-17269936D01*
X5846967Y-17269936D02*
X5837444Y-17279460D01*
X5837444Y-17279460D02*
X5818396Y-17288984D01*
X5818396Y-17288984D02*
X5770777Y-17288984D01*
X5770777Y-17288984D02*
X5751729Y-17279460D01*
X5751729Y-17279460D02*
X5742206Y-17269936D01*
X6046967Y-17288984D02*
X5932682Y-17288984D01*
X5989825Y-17288984D02*
X5989825Y-17088984D01*
X5989825Y-17088984D02*
X5970777Y-17117555D01*
X5970777Y-17117555D02*
X5951729Y-17136603D01*
X5951729Y-17136603D02*
X5932682Y-17146127D01*
X6123158Y-17108031D02*
X6132682Y-17098508D01*
X6132682Y-17098508D02*
X6151729Y-17088984D01*
X6151729Y-17088984D02*
X6199348Y-17088984D01*
X6199348Y-17088984D02*
X6218396Y-17098508D01*
X6218396Y-17098508D02*
X6227920Y-17108031D01*
X6227920Y-17108031D02*
X6237444Y-17127079D01*
X6237444Y-17127079D02*
X6237444Y-17146127D01*
X6237444Y-17146127D02*
X6227920Y-17174698D01*
X6227920Y-17174698D02*
X6113634Y-17288984D01*
X6113634Y-17288984D02*
X6237444Y-17288984D01*
X6313634Y-17088984D02*
X6313634Y-17127079D01*
X6389825Y-17088984D02*
X6389825Y-17127079D01*
X6685063Y-17365174D02*
X6675539Y-17355650D01*
X6675539Y-17355650D02*
X6656491Y-17327079D01*
X6656491Y-17327079D02*
X6646968Y-17308031D01*
X6646968Y-17308031D02*
X6637444Y-17279460D01*
X6637444Y-17279460D02*
X6627920Y-17231841D01*
X6627920Y-17231841D02*
X6627920Y-17193746D01*
X6627920Y-17193746D02*
X6637444Y-17146127D01*
X6637444Y-17146127D02*
X6646968Y-17117555D01*
X6646968Y-17117555D02*
X6656491Y-17098508D01*
X6656491Y-17098508D02*
X6675539Y-17069936D01*
X6675539Y-17069936D02*
X6685063Y-17060412D01*
X6846968Y-17155650D02*
X6846968Y-17288984D01*
X6799348Y-17079460D02*
X6751729Y-17222317D01*
X6751729Y-17222317D02*
X6875539Y-17222317D01*
X7104110Y-17288984D02*
X7104110Y-17088984D01*
X7189825Y-17288984D02*
X7189825Y-17184222D01*
X7189825Y-17184222D02*
X7180301Y-17165174D01*
X7180301Y-17165174D02*
X7161253Y-17155650D01*
X7161253Y-17155650D02*
X7132682Y-17155650D01*
X7132682Y-17155650D02*
X7113634Y-17165174D01*
X7113634Y-17165174D02*
X7104110Y-17174698D01*
X7313634Y-17288984D02*
X7294587Y-17279460D01*
X7294587Y-17279460D02*
X7285063Y-17269936D01*
X7285063Y-17269936D02*
X7275539Y-17250889D01*
X7275539Y-17250889D02*
X7275539Y-17193746D01*
X7275539Y-17193746D02*
X7285063Y-17174698D01*
X7285063Y-17174698D02*
X7294587Y-17165174D01*
X7294587Y-17165174D02*
X7313634Y-17155650D01*
X7313634Y-17155650D02*
X7342206Y-17155650D01*
X7342206Y-17155650D02*
X7361253Y-17165174D01*
X7361253Y-17165174D02*
X7370777Y-17174698D01*
X7370777Y-17174698D02*
X7380301Y-17193746D01*
X7380301Y-17193746D02*
X7380301Y-17250889D01*
X7380301Y-17250889D02*
X7370777Y-17269936D01*
X7370777Y-17269936D02*
X7361253Y-17279460D01*
X7361253Y-17279460D02*
X7342206Y-17288984D01*
X7342206Y-17288984D02*
X7313634Y-17288984D01*
X7494587Y-17288984D02*
X7475539Y-17279460D01*
X7475539Y-17279460D02*
X7466015Y-17260412D01*
X7466015Y-17260412D02*
X7466015Y-17088984D01*
X7646968Y-17279460D02*
X7627920Y-17288984D01*
X7627920Y-17288984D02*
X7589825Y-17288984D01*
X7589825Y-17288984D02*
X7570777Y-17279460D01*
X7570777Y-17279460D02*
X7561253Y-17260412D01*
X7561253Y-17260412D02*
X7561253Y-17184222D01*
X7561253Y-17184222D02*
X7570777Y-17165174D01*
X7570777Y-17165174D02*
X7589825Y-17155650D01*
X7589825Y-17155650D02*
X7627920Y-17155650D01*
X7627920Y-17155650D02*
X7646968Y-17165174D01*
X7646968Y-17165174D02*
X7656491Y-17184222D01*
X7656491Y-17184222D02*
X7656491Y-17203270D01*
X7656491Y-17203270D02*
X7561253Y-17222317D01*
X7732682Y-17279460D02*
X7751730Y-17288984D01*
X7751730Y-17288984D02*
X7789825Y-17288984D01*
X7789825Y-17288984D02*
X7808872Y-17279460D01*
X7808872Y-17279460D02*
X7818396Y-17260412D01*
X7818396Y-17260412D02*
X7818396Y-17250889D01*
X7818396Y-17250889D02*
X7808872Y-17231841D01*
X7808872Y-17231841D02*
X7789825Y-17222317D01*
X7789825Y-17222317D02*
X7761253Y-17222317D01*
X7761253Y-17222317D02*
X7742206Y-17212793D01*
X7742206Y-17212793D02*
X7732682Y-17193746D01*
X7732682Y-17193746D02*
X7732682Y-17184222D01*
X7732682Y-17184222D02*
X7742206Y-17165174D01*
X7742206Y-17165174D02*
X7761253Y-17155650D01*
X7761253Y-17155650D02*
X7789825Y-17155650D01*
X7789825Y-17155650D02*
X7808872Y-17165174D01*
X7885063Y-17365174D02*
X7894587Y-17355650D01*
X7894587Y-17355650D02*
X7913634Y-17327079D01*
X7913634Y-17327079D02*
X7923158Y-17308031D01*
X7923158Y-17308031D02*
X7932682Y-17279460D01*
X7932682Y-17279460D02*
X7942206Y-17231841D01*
X7942206Y-17231841D02*
X7942206Y-17193746D01*
X7942206Y-17193746D02*
X7932682Y-17146127D01*
X7932682Y-17146127D02*
X7923158Y-17117555D01*
X7923158Y-17117555D02*
X7913634Y-17098508D01*
X7913634Y-17098508D02*
X7894587Y-17069936D01*
X7894587Y-17069936D02*
X7885063Y-17060412D01*
D14*
X3089542Y-17510892D02*
X3089542Y-17412108D01*
X2990758Y-17412108D01*
X2990758Y-17510892D01*
X3089542Y-17510892D01*
X3110000Y-17461500D02*
G75*
G03*
X3110000Y-17461500I-69850J0D01*
G01*
D11*
X3475539Y-17552984D02*
X3361253Y-17552984D01*
X3418396Y-17552984D02*
X3418396Y-17352984D01*
X3418396Y-17352984D02*
X3399348Y-17381555D01*
X3399348Y-17381555D02*
X3380301Y-17400603D01*
X3380301Y-17400603D02*
X3361253Y-17410127D01*
X3561253Y-17533936D02*
X3570777Y-17543460D01*
X3570777Y-17543460D02*
X3561253Y-17552984D01*
X3561253Y-17552984D02*
X3551729Y-17543460D01*
X3551729Y-17543460D02*
X3561253Y-17533936D01*
X3561253Y-17533936D02*
X3561253Y-17552984D01*
X3637443Y-17352984D02*
X3761253Y-17352984D01*
X3761253Y-17352984D02*
X3694586Y-17429174D01*
X3694586Y-17429174D02*
X3723158Y-17429174D01*
X3723158Y-17429174D02*
X3742205Y-17438698D01*
X3742205Y-17438698D02*
X3751729Y-17448222D01*
X3751729Y-17448222D02*
X3761253Y-17467270D01*
X3761253Y-17467270D02*
X3761253Y-17514889D01*
X3761253Y-17514889D02*
X3751729Y-17533936D01*
X3751729Y-17533936D02*
X3742205Y-17543460D01*
X3742205Y-17543460D02*
X3723158Y-17552984D01*
X3723158Y-17552984D02*
X3666015Y-17552984D01*
X3666015Y-17552984D02*
X3646967Y-17543460D01*
X3646967Y-17543460D02*
X3637443Y-17533936D01*
X3856491Y-17552984D02*
X3894586Y-17552984D01*
X3894586Y-17552984D02*
X3913634Y-17543460D01*
X3913634Y-17543460D02*
X3923158Y-17533936D01*
X3923158Y-17533936D02*
X3942205Y-17505365D01*
X3942205Y-17505365D02*
X3951729Y-17467270D01*
X3951729Y-17467270D02*
X3951729Y-17391079D01*
X3951729Y-17391079D02*
X3942205Y-17372031D01*
X3942205Y-17372031D02*
X3932682Y-17362508D01*
X3932682Y-17362508D02*
X3913634Y-17352984D01*
X3913634Y-17352984D02*
X3875539Y-17352984D01*
X3875539Y-17352984D02*
X3856491Y-17362508D01*
X3856491Y-17362508D02*
X3846967Y-17372031D01*
X3846967Y-17372031D02*
X3837443Y-17391079D01*
X3837443Y-17391079D02*
X3837443Y-17438698D01*
X3837443Y-17438698D02*
X3846967Y-17457746D01*
X3846967Y-17457746D02*
X3856491Y-17467270D01*
X3856491Y-17467270D02*
X3875539Y-17476793D01*
X3875539Y-17476793D02*
X3913634Y-17476793D01*
X3913634Y-17476793D02*
X3932682Y-17467270D01*
X3932682Y-17467270D02*
X3942205Y-17457746D01*
X3942205Y-17457746D02*
X3951729Y-17438698D01*
X4018396Y-17352984D02*
X4151729Y-17352984D01*
X4151729Y-17352984D02*
X4066015Y-17552984D01*
X4227920Y-17552984D02*
X4227920Y-17419650D01*
X4227920Y-17438698D02*
X4237444Y-17429174D01*
X4237444Y-17429174D02*
X4256491Y-17419650D01*
X4256491Y-17419650D02*
X4285063Y-17419650D01*
X4285063Y-17419650D02*
X4304110Y-17429174D01*
X4304110Y-17429174D02*
X4313634Y-17448222D01*
X4313634Y-17448222D02*
X4313634Y-17552984D01*
X4313634Y-17448222D02*
X4323158Y-17429174D01*
X4323158Y-17429174D02*
X4342205Y-17419650D01*
X4342205Y-17419650D02*
X4370777Y-17419650D01*
X4370777Y-17419650D02*
X4389825Y-17429174D01*
X4389825Y-17429174D02*
X4399348Y-17448222D01*
X4399348Y-17448222D02*
X4399348Y-17552984D01*
X4494586Y-17552984D02*
X4494586Y-17419650D01*
X4494586Y-17438698D02*
X4504110Y-17429174D01*
X4504110Y-17429174D02*
X4523158Y-17419650D01*
X4523158Y-17419650D02*
X4551729Y-17419650D01*
X4551729Y-17419650D02*
X4570777Y-17429174D01*
X4570777Y-17429174D02*
X4580301Y-17448222D01*
X4580301Y-17448222D02*
X4580301Y-17552984D01*
X4580301Y-17448222D02*
X4589825Y-17429174D01*
X4589825Y-17429174D02*
X4608872Y-17419650D01*
X4608872Y-17419650D02*
X4637444Y-17419650D01*
X4637444Y-17419650D02*
X4656491Y-17429174D01*
X4656491Y-17429174D02*
X4666015Y-17448222D01*
X4666015Y-17448222D02*
X4666015Y-17552984D01*
X5056491Y-17343460D02*
X4885063Y-17600603D01*
X5313634Y-17352984D02*
X5332682Y-17352984D01*
X5332682Y-17352984D02*
X5351729Y-17362508D01*
X5351729Y-17362508D02*
X5361253Y-17372031D01*
X5361253Y-17372031D02*
X5370777Y-17391079D01*
X5370777Y-17391079D02*
X5380301Y-17429174D01*
X5380301Y-17429174D02*
X5380301Y-17476793D01*
X5380301Y-17476793D02*
X5370777Y-17514889D01*
X5370777Y-17514889D02*
X5361253Y-17533936D01*
X5361253Y-17533936D02*
X5351729Y-17543460D01*
X5351729Y-17543460D02*
X5332682Y-17552984D01*
X5332682Y-17552984D02*
X5313634Y-17552984D01*
X5313634Y-17552984D02*
X5294587Y-17543460D01*
X5294587Y-17543460D02*
X5285063Y-17533936D01*
X5285063Y-17533936D02*
X5275539Y-17514889D01*
X5275539Y-17514889D02*
X5266015Y-17476793D01*
X5266015Y-17476793D02*
X5266015Y-17429174D01*
X5266015Y-17429174D02*
X5275539Y-17391079D01*
X5275539Y-17391079D02*
X5285063Y-17372031D01*
X5285063Y-17372031D02*
X5294587Y-17362508D01*
X5294587Y-17362508D02*
X5313634Y-17352984D01*
X5466015Y-17533936D02*
X5475539Y-17543460D01*
X5475539Y-17543460D02*
X5466015Y-17552984D01*
X5466015Y-17552984D02*
X5456491Y-17543460D01*
X5456491Y-17543460D02*
X5466015Y-17533936D01*
X5466015Y-17533936D02*
X5466015Y-17552984D01*
X5599348Y-17352984D02*
X5618396Y-17352984D01*
X5618396Y-17352984D02*
X5637444Y-17362508D01*
X5637444Y-17362508D02*
X5646967Y-17372031D01*
X5646967Y-17372031D02*
X5656491Y-17391079D01*
X5656491Y-17391079D02*
X5666015Y-17429174D01*
X5666015Y-17429174D02*
X5666015Y-17476793D01*
X5666015Y-17476793D02*
X5656491Y-17514889D01*
X5656491Y-17514889D02*
X5646967Y-17533936D01*
X5646967Y-17533936D02*
X5637444Y-17543460D01*
X5637444Y-17543460D02*
X5618396Y-17552984D01*
X5618396Y-17552984D02*
X5599348Y-17552984D01*
X5599348Y-17552984D02*
X5580301Y-17543460D01*
X5580301Y-17543460D02*
X5570777Y-17533936D01*
X5570777Y-17533936D02*
X5561253Y-17514889D01*
X5561253Y-17514889D02*
X5551729Y-17476793D01*
X5551729Y-17476793D02*
X5551729Y-17429174D01*
X5551729Y-17429174D02*
X5561253Y-17391079D01*
X5561253Y-17391079D02*
X5570777Y-17372031D01*
X5570777Y-17372031D02*
X5580301Y-17362508D01*
X5580301Y-17362508D02*
X5599348Y-17352984D01*
X5846967Y-17352984D02*
X5751729Y-17352984D01*
X5751729Y-17352984D02*
X5742206Y-17448222D01*
X5742206Y-17448222D02*
X5751729Y-17438698D01*
X5751729Y-17438698D02*
X5770777Y-17429174D01*
X5770777Y-17429174D02*
X5818396Y-17429174D01*
X5818396Y-17429174D02*
X5837444Y-17438698D01*
X5837444Y-17438698D02*
X5846967Y-17448222D01*
X5846967Y-17448222D02*
X5856491Y-17467270D01*
X5856491Y-17467270D02*
X5856491Y-17514889D01*
X5856491Y-17514889D02*
X5846967Y-17533936D01*
X5846967Y-17533936D02*
X5837444Y-17543460D01*
X5837444Y-17543460D02*
X5818396Y-17552984D01*
X5818396Y-17552984D02*
X5770777Y-17552984D01*
X5770777Y-17552984D02*
X5751729Y-17543460D01*
X5751729Y-17543460D02*
X5742206Y-17533936D01*
X6037444Y-17352984D02*
X5942206Y-17352984D01*
X5942206Y-17352984D02*
X5932682Y-17448222D01*
X5932682Y-17448222D02*
X5942206Y-17438698D01*
X5942206Y-17438698D02*
X5961253Y-17429174D01*
X5961253Y-17429174D02*
X6008872Y-17429174D01*
X6008872Y-17429174D02*
X6027920Y-17438698D01*
X6027920Y-17438698D02*
X6037444Y-17448222D01*
X6037444Y-17448222D02*
X6046967Y-17467270D01*
X6046967Y-17467270D02*
X6046967Y-17514889D01*
X6046967Y-17514889D02*
X6037444Y-17533936D01*
X6037444Y-17533936D02*
X6027920Y-17543460D01*
X6027920Y-17543460D02*
X6008872Y-17552984D01*
X6008872Y-17552984D02*
X5961253Y-17552984D01*
X5961253Y-17552984D02*
X5942206Y-17543460D01*
X5942206Y-17543460D02*
X5932682Y-17533936D01*
X6170777Y-17352984D02*
X6189825Y-17352984D01*
X6189825Y-17352984D02*
X6208872Y-17362508D01*
X6208872Y-17362508D02*
X6218396Y-17372031D01*
X6218396Y-17372031D02*
X6227920Y-17391079D01*
X6227920Y-17391079D02*
X6237444Y-17429174D01*
X6237444Y-17429174D02*
X6237444Y-17476793D01*
X6237444Y-17476793D02*
X6227920Y-17514889D01*
X6227920Y-17514889D02*
X6218396Y-17533936D01*
X6218396Y-17533936D02*
X6208872Y-17543460D01*
X6208872Y-17543460D02*
X6189825Y-17552984D01*
X6189825Y-17552984D02*
X6170777Y-17552984D01*
X6170777Y-17552984D02*
X6151729Y-17543460D01*
X6151729Y-17543460D02*
X6142206Y-17533936D01*
X6142206Y-17533936D02*
X6132682Y-17514889D01*
X6132682Y-17514889D02*
X6123158Y-17476793D01*
X6123158Y-17476793D02*
X6123158Y-17429174D01*
X6123158Y-17429174D02*
X6132682Y-17391079D01*
X6132682Y-17391079D02*
X6142206Y-17372031D01*
X6142206Y-17372031D02*
X6151729Y-17362508D01*
X6151729Y-17362508D02*
X6170777Y-17352984D01*
X6313634Y-17352984D02*
X6313634Y-17391079D01*
X6389825Y-17352984D02*
X6389825Y-17391079D01*
X6685063Y-17629174D02*
X6675539Y-17619650D01*
X6675539Y-17619650D02*
X6656491Y-17591079D01*
X6656491Y-17591079D02*
X6646968Y-17572031D01*
X6646968Y-17572031D02*
X6637444Y-17543460D01*
X6637444Y-17543460D02*
X6627920Y-17495841D01*
X6627920Y-17495841D02*
X6627920Y-17457746D01*
X6627920Y-17457746D02*
X6637444Y-17410127D01*
X6637444Y-17410127D02*
X6646968Y-17381555D01*
X6646968Y-17381555D02*
X6656491Y-17362508D01*
X6656491Y-17362508D02*
X6675539Y-17333936D01*
X6675539Y-17333936D02*
X6685063Y-17324412D01*
X6789825Y-17438698D02*
X6770777Y-17429174D01*
X6770777Y-17429174D02*
X6761253Y-17419650D01*
X6761253Y-17419650D02*
X6751729Y-17400603D01*
X6751729Y-17400603D02*
X6751729Y-17391079D01*
X6751729Y-17391079D02*
X6761253Y-17372031D01*
X6761253Y-17372031D02*
X6770777Y-17362508D01*
X6770777Y-17362508D02*
X6789825Y-17352984D01*
X6789825Y-17352984D02*
X6827920Y-17352984D01*
X6827920Y-17352984D02*
X6846968Y-17362508D01*
X6846968Y-17362508D02*
X6856491Y-17372031D01*
X6856491Y-17372031D02*
X6866015Y-17391079D01*
X6866015Y-17391079D02*
X6866015Y-17400603D01*
X6866015Y-17400603D02*
X6856491Y-17419650D01*
X6856491Y-17419650D02*
X6846968Y-17429174D01*
X6846968Y-17429174D02*
X6827920Y-17438698D01*
X6827920Y-17438698D02*
X6789825Y-17438698D01*
X6789825Y-17438698D02*
X6770777Y-17448222D01*
X6770777Y-17448222D02*
X6761253Y-17457746D01*
X6761253Y-17457746D02*
X6751729Y-17476793D01*
X6751729Y-17476793D02*
X6751729Y-17514889D01*
X6751729Y-17514889D02*
X6761253Y-17533936D01*
X6761253Y-17533936D02*
X6770777Y-17543460D01*
X6770777Y-17543460D02*
X6789825Y-17552984D01*
X6789825Y-17552984D02*
X6827920Y-17552984D01*
X6827920Y-17552984D02*
X6846968Y-17543460D01*
X6846968Y-17543460D02*
X6856491Y-17533936D01*
X6856491Y-17533936D02*
X6866015Y-17514889D01*
X6866015Y-17514889D02*
X6866015Y-17476793D01*
X6866015Y-17476793D02*
X6856491Y-17457746D01*
X6856491Y-17457746D02*
X6846968Y-17448222D01*
X6846968Y-17448222D02*
X6827920Y-17438698D01*
X7104110Y-17552984D02*
X7104110Y-17352984D01*
X7189825Y-17552984D02*
X7189825Y-17448222D01*
X7189825Y-17448222D02*
X7180301Y-17429174D01*
X7180301Y-17429174D02*
X7161253Y-17419650D01*
X7161253Y-17419650D02*
X7132682Y-17419650D01*
X7132682Y-17419650D02*
X7113634Y-17429174D01*
X7113634Y-17429174D02*
X7104110Y-17438698D01*
X7313634Y-17552984D02*
X7294587Y-17543460D01*
X7294587Y-17543460D02*
X7285063Y-17533936D01*
X7285063Y-17533936D02*
X7275539Y-17514889D01*
X7275539Y-17514889D02*
X7275539Y-17457746D01*
X7275539Y-17457746D02*
X7285063Y-17438698D01*
X7285063Y-17438698D02*
X7294587Y-17429174D01*
X7294587Y-17429174D02*
X7313634Y-17419650D01*
X7313634Y-17419650D02*
X7342206Y-17419650D01*
X7342206Y-17419650D02*
X7361253Y-17429174D01*
X7361253Y-17429174D02*
X7370777Y-17438698D01*
X7370777Y-17438698D02*
X7380301Y-17457746D01*
X7380301Y-17457746D02*
X7380301Y-17514889D01*
X7380301Y-17514889D02*
X7370777Y-17533936D01*
X7370777Y-17533936D02*
X7361253Y-17543460D01*
X7361253Y-17543460D02*
X7342206Y-17552984D01*
X7342206Y-17552984D02*
X7313634Y-17552984D01*
X7494587Y-17552984D02*
X7475539Y-17543460D01*
X7475539Y-17543460D02*
X7466015Y-17524412D01*
X7466015Y-17524412D02*
X7466015Y-17352984D01*
X7646968Y-17543460D02*
X7627920Y-17552984D01*
X7627920Y-17552984D02*
X7589825Y-17552984D01*
X7589825Y-17552984D02*
X7570777Y-17543460D01*
X7570777Y-17543460D02*
X7561253Y-17524412D01*
X7561253Y-17524412D02*
X7561253Y-17448222D01*
X7561253Y-17448222D02*
X7570777Y-17429174D01*
X7570777Y-17429174D02*
X7589825Y-17419650D01*
X7589825Y-17419650D02*
X7627920Y-17419650D01*
X7627920Y-17419650D02*
X7646968Y-17429174D01*
X7646968Y-17429174D02*
X7656491Y-17448222D01*
X7656491Y-17448222D02*
X7656491Y-17467270D01*
X7656491Y-17467270D02*
X7561253Y-17486317D01*
X7732682Y-17543460D02*
X7751730Y-17552984D01*
X7751730Y-17552984D02*
X7789825Y-17552984D01*
X7789825Y-17552984D02*
X7808872Y-17543460D01*
X7808872Y-17543460D02*
X7818396Y-17524412D01*
X7818396Y-17524412D02*
X7818396Y-17514889D01*
X7818396Y-17514889D02*
X7808872Y-17495841D01*
X7808872Y-17495841D02*
X7789825Y-17486317D01*
X7789825Y-17486317D02*
X7761253Y-17486317D01*
X7761253Y-17486317D02*
X7742206Y-17476793D01*
X7742206Y-17476793D02*
X7732682Y-17457746D01*
X7732682Y-17457746D02*
X7732682Y-17448222D01*
X7732682Y-17448222D02*
X7742206Y-17429174D01*
X7742206Y-17429174D02*
X7761253Y-17419650D01*
X7761253Y-17419650D02*
X7789825Y-17419650D01*
X7789825Y-17419650D02*
X7808872Y-17429174D01*
X7885063Y-17629174D02*
X7894587Y-17619650D01*
X7894587Y-17619650D02*
X7913634Y-17591079D01*
X7913634Y-17591079D02*
X7923158Y-17572031D01*
X7923158Y-17572031D02*
X7932682Y-17543460D01*
X7932682Y-17543460D02*
X7942206Y-17495841D01*
X7942206Y-17495841D02*
X7942206Y-17457746D01*
X7942206Y-17457746D02*
X7932682Y-17410127D01*
X7932682Y-17410127D02*
X7923158Y-17381555D01*
X7923158Y-17381555D02*
X7913634Y-17362508D01*
X7913634Y-17362508D02*
X7894587Y-17333936D01*
X7894587Y-17333936D02*
X7885063Y-17324412D01*
M02*
