<?xml version="1.0" standalone="no"?>
 <!DOCTYPE svg PUBLIC "-//W3C//DTD SVG 1.1//EN" 
 "http://www.w3.org/Graphics/SVG/1.1/DTD/svg11.dtd"> 
<svg
  xmlns:svg="http://www.w3.org/2000/svg"
  xmlns="http://www.w3.org/2000/svg"
  xmlns:xlink="http://www.w3.org/1999/xlink"
  version="1.1"
  width="297.0022mm" height="210.0072mm" viewBox="0.0000 0.0000 297.0022 210.0072">
<title>SVG Image created as CONTROL WIFI ESP32 S3 V4.0-F_Mask.svg date 2024/03/27 21:43:53 </title>
  <desc>Image generated by PCBNEW </desc>
<g style="fill:#000000; fill-opacity:1.0000;stroke:#000000; stroke-opacity:1.0000;
stroke-linecap:round; stroke-linejoin:round;"
 transform="translate(0 0) scale(1 1)">
</g>
<g style="fill:#000000; fill-opacity:0.0; 
stroke:#000000; stroke-width:0.0000; stroke-opacity:1; 
stroke-linecap:round; stroke-linejoin:round;">
</g>
<g style="fill:#D864FF; fill-opacity:0.0; 
stroke:#D864FF; stroke-width:0.0000; stroke-opacity:1; 
stroke-linecap:round; stroke-linejoin:round;">
</g>
<g style="fill:#D864FF; fill-opacity:0.4000; 
stroke:#D864FF; stroke-width:0.0100; stroke-opacity:1; 
stroke-linecap:round; stroke-linejoin:round;">
<path style="fill:#D864FF; fill-opacity:0.4000; 
stroke:#D864FF; stroke-width:0.0100; stroke-opacity:1; 
stroke-linecap:round; stroke-linejoin:round;fill-rule:evenodd;"
d="M 56.2540,85.9010
56.2880,85.9040
56.3220,85.9080
56.3550,85.9140
56.3880,85.9220
56.4210,85.9320
56.4530,85.9430
56.4840,85.9560
56.5150,85.9710
56.5450,85.9870
56.5740,86.0050
56.6020,86.0240
56.6290,86.0450
56.6550,86.0670
56.6800,86.0900
56.7030,86.1150
56.7250,86.1410
56.7460,86.1680
56.7650,86.1960
56.7830,86.2250
56.7990,86.2550
56.8140,86.2860
56.8270,86.3170
56.8380,86.3490
56.8480,86.3820
56.8560,86.4150
56.8620,86.4480
56.8660,86.4820
56.8690,86.5160
56.8700,86.5500
56.8700,87.1500
56.8690,87.1840
56.8660,87.2180
56.8620,87.2520
56.8560,87.2850
56.8480,87.3180
56.8380,87.3510
56.8270,87.3830
56.8140,87.4140
56.7990,87.4450
56.7830,87.4750
56.7650,87.5040
56.7460,87.5320
56.7250,87.5590
56.7030,87.5850
56.6800,87.6100
56.6550,87.6330
56.6290,87.6550
56.6020,87.6760
56.5740,87.6950
56.5450,87.7130
56.5150,87.7290
56.4840,87.7440
56.4530,87.7570
56.4210,87.7680
56.3880,87.7780
56.3550,87.7860
56.3220,87.7920
56.2880,87.7960
56.2540,87.7990
56.2200,87.8000
56.1860,87.7990
56.1520,87.7960
56.1180,87.7920
56.0850,87.7860
56.0520,87.7780
56.0190,87.7680
55.9870,87.7570
55.9560,87.7440
55.9250,87.7290
55.8950,87.7130
55.8660,87.6950
55.8380,87.6760
55.8110,87.6550
55.7850,87.6330
55.7600,87.6100
55.7370,87.5850
55.7150,87.5590
55.6940,87.5320
55.6750,87.5040
55.6570,87.4750
55.6410,87.4450
55.6260,87.4140
55.6130,87.3830
55.6020,87.3510
55.5920,87.3180
55.5840,87.2850
55.5780,87.2520
55.5740,87.2180
55.5710,87.1840
55.5700,87.1500
55.5700,86.5500
55.5710,86.5160
55.5740,86.4820
55.5780,86.4480
55.5840,86.4150
55.5920,86.3820
55.6020,86.3490
55.6130,86.3170
55.6260,86.2860
55.6410,86.2550
55.6570,86.2250
55.6750,86.1960
55.6940,86.1680
55.7150,86.1410
55.7370,86.1150
55.7600,86.0900
55.7850,86.0670
55.8110,86.0450
55.8380,86.0240
55.8660,86.0050
55.8950,85.9870
55.9250,85.9710
55.9560,85.9560
55.9870,85.9430
56.0190,85.9320
56.0520,85.9220
56.0850,85.9140
56.1180,85.9080
56.1520,85.9040
56.1860,85.9010
56.2200,85.9000
Z" /> 
<path style="fill:#D864FF; fill-opacity:0.4000; 
stroke:#D864FF; stroke-width:0.0100; stroke-opacity:1; 
stroke-linecap:round; stroke-linejoin:round;fill-rule:evenodd;"
d="M 56.2540,82.1010
56.2880,82.1040
56.3220,82.1080
56.3550,82.1140
56.3880,82.1220
56.4210,82.1320
56.4530,82.1430
56.4840,82.1560
56.5150,82.1710
56.5450,82.1870
56.5740,82.2050
56.6020,82.2240
56.6290,82.2450
56.6550,82.2670
56.6800,82.2900
56.7030,82.3150
56.7250,82.3410
56.7460,82.3680
56.7650,82.3960
56.7830,82.4250
56.7990,82.4550
56.8140,82.4860
56.8270,82.5170
56.8380,82.5490
56.8480,82.5820
56.8560,82.6150
56.8620,82.6480
56.8660,82.6820
56.8690,82.7160
56.8700,82.7500
56.8700,83.3500
56.8690,83.3840
56.8660,83.4180
56.8620,83.4520
56.8560,83.4850
56.8480,83.5180
56.8380,83.5510
56.8270,83.5830
56.8140,83.6140
56.7990,83.6450
56.7830,83.6750
56.7650,83.7040
56.7460,83.7320
56.7250,83.7590
56.7030,83.7850
56.6800,83.8100
56.6550,83.8330
56.6290,83.8550
56.6020,83.8760
56.5740,83.8950
56.5450,83.9130
56.5150,83.9290
56.4840,83.9440
56.4530,83.9570
56.4210,83.9680
56.3880,83.9780
56.3550,83.9860
56.3220,83.9920
56.2880,83.9960
56.2540,83.9990
56.2200,84.0000
56.1860,83.9990
56.1520,83.9960
56.1180,83.9920
56.0850,83.9860
56.0520,83.9780
56.0190,83.9680
55.9870,83.9570
55.9560,83.9440
55.9250,83.9290
55.8950,83.9130
55.8660,83.8950
55.8380,83.8760
55.8110,83.8550
55.7850,83.8330
55.7600,83.8100
55.7370,83.7850
55.7150,83.7590
55.6940,83.7320
55.6750,83.7040
55.6570,83.6750
55.6410,83.6450
55.6260,83.6140
55.6130,83.5830
55.6020,83.5510
55.5920,83.5180
55.5840,83.4850
55.5780,83.4520
55.5740,83.4180
55.5710,83.3840
55.5700,83.3500
55.5700,82.7500
55.5710,82.7160
55.5740,82.6820
55.5780,82.6480
55.5840,82.6150
55.5920,82.5820
55.6020,82.5490
55.6130,82.5170
55.6260,82.4860
55.6410,82.4550
55.6570,82.4250
55.6750,82.3960
55.6940,82.3680
55.7150,82.3410
55.7370,82.3150
55.7600,82.2900
55.7850,82.2670
55.8110,82.2450
55.8380,82.2240
55.8660,82.2050
55.8950,82.1870
55.9250,82.1710
55.9560,82.1560
55.9870,82.1430
56.0190,82.1320
56.0520,82.1220
56.0850,82.1140
56.1180,82.1080
56.1520,82.1040
56.1860,82.1010
56.2200,82.1000
Z" /> 
<path style="fill:#D864FF; fill-opacity:0.4000; 
stroke:#D864FF; stroke-width:0.0100; stroke-opacity:1; 
stroke-linecap:round; stroke-linejoin:round;fill-rule:evenodd;"
d="M 47.6140,85.9010
47.6480,85.9040
47.6820,85.9080
47.7150,85.9140
47.7480,85.9220
47.7810,85.9320
47.8130,85.9430
47.8440,85.9560
47.8750,85.9710
47.9050,85.9870
47.9340,86.0050
47.9620,86.0240
47.9890,86.0450
48.0150,86.0670
48.0400,86.0900
48.0630,86.1150
48.0850,86.1410
48.1060,86.1680
48.1250,86.1960
48.1430,86.2250
48.1590,86.2550
48.1740,86.2860
48.1870,86.3170
48.1980,86.3490
48.2080,86.3820
48.2160,86.4150
48.2220,86.4480
48.2260,86.4820
48.2290,86.5160
48.2300,86.5500
48.2300,87.1500
48.2290,87.1840
48.2260,87.2180
48.2220,87.2520
48.2160,87.2850
48.2080,87.3180
48.1980,87.3510
48.1870,87.3830
48.1740,87.4140
48.1590,87.4450
48.1430,87.4750
48.1250,87.5040
48.1060,87.5320
48.0850,87.5590
48.0630,87.5850
48.0400,87.6100
48.0150,87.6330
47.9890,87.6550
47.9620,87.6760
47.9340,87.6950
47.9050,87.7130
47.8750,87.7290
47.8440,87.7440
47.8130,87.7570
47.7810,87.7680
47.7480,87.7780
47.7150,87.7860
47.6820,87.7920
47.6480,87.7960
47.6140,87.7990
47.5800,87.8000
47.5460,87.7990
47.5120,87.7960
47.4780,87.7920
47.4450,87.7860
47.4120,87.7780
47.3790,87.7680
47.3470,87.7570
47.3160,87.7440
47.2850,87.7290
47.2550,87.7130
47.2260,87.6950
47.1980,87.6760
47.1710,87.6550
47.1450,87.6330
47.1200,87.6100
47.0970,87.5850
47.0750,87.5590
47.0540,87.5320
47.0350,87.5040
47.0170,87.4750
47.0010,87.4450
46.9860,87.4140
46.9730,87.3830
46.9620,87.3510
46.9520,87.3180
46.9440,87.2850
46.9380,87.2520
46.9340,87.2180
46.9310,87.1840
46.9300,87.1500
46.9300,86.5500
46.9310,86.5160
46.9340,86.4820
46.9380,86.4480
46.9440,86.4150
46.9520,86.3820
46.9620,86.3490
46.9730,86.3170
46.9860,86.2860
47.0010,86.2550
47.0170,86.2250
47.0350,86.1960
47.0540,86.1680
47.0750,86.1410
47.0970,86.1150
47.1200,86.0900
47.1450,86.0670
47.1710,86.0450
47.1980,86.0240
47.2260,86.0050
47.2550,85.9870
47.2850,85.9710
47.3160,85.9560
47.3470,85.9430
47.3790,85.9320
47.4120,85.9220
47.4450,85.9140
47.4780,85.9080
47.5120,85.9040
47.5460,85.9010
47.5800,85.9000
Z" /> 
<path style="fill:#D864FF; fill-opacity:0.4000; 
stroke:#D864FF; stroke-width:0.0100; stroke-opacity:1; 
stroke-linecap:round; stroke-linejoin:round;fill-rule:evenodd;"
d="M 47.6140,82.1010
47.6480,82.1040
47.6820,82.1080
47.7150,82.1140
47.7480,82.1220
47.7810,82.1320
47.8130,82.1430
47.8440,82.1560
47.8750,82.1710
47.9050,82.1870
47.9340,82.2050
47.9620,82.2240
47.9890,82.2450
48.0150,82.2670
48.0400,82.2900
48.0630,82.3150
48.0850,82.3410
48.1060,82.3680
48.1250,82.3960
48.1430,82.4250
48.1590,82.4550
48.1740,82.4860
48.1870,82.5170
48.1980,82.5490
48.2080,82.5820
48.2160,82.6150
48.2220,82.6480
48.2260,82.6820
48.2290,82.7160
48.2300,82.7500
48.2300,83.3500
48.2290,83.3840
48.2260,83.4180
48.2220,83.4520
48.2160,83.4850
48.2080,83.5180
48.1980,83.5510
48.1870,83.5830
48.1740,83.6140
48.1590,83.6450
48.1430,83.6750
48.1250,83.7040
48.1060,83.7320
48.0850,83.7590
48.0630,83.7850
48.0400,83.8100
48.0150,83.8330
47.9890,83.8550
47.9620,83.8760
47.9340,83.8950
47.9050,83.9130
47.8750,83.9290
47.8440,83.9440
47.8130,83.9570
47.7810,83.9680
47.7480,83.9780
47.7150,83.9860
47.6820,83.9920
47.6480,83.9960
47.6140,83.9990
47.5800,84.0000
47.5460,83.9990
47.5120,83.9960
47.4780,83.9920
47.4450,83.9860
47.4120,83.9780
47.3790,83.9680
47.3470,83.9570
47.3160,83.9440
47.2850,83.9290
47.2550,83.9130
47.2260,83.8950
47.1980,83.8760
47.1710,83.8550
47.1450,83.8330
47.1200,83.8100
47.0970,83.7850
47.0750,83.7590
47.0540,83.7320
47.0350,83.7040
47.0170,83.6750
47.0010,83.6450
46.9860,83.6140
46.9730,83.5830
46.9620,83.5510
46.9520,83.5180
46.9440,83.4850
46.9380,83.4520
46.9340,83.4180
46.9310,83.3840
46.9300,83.3500
46.9300,82.7500
46.9310,82.7160
46.9340,82.6820
46.9380,82.6480
46.9440,82.6150
46.9520,82.5820
46.9620,82.5490
46.9730,82.5170
46.9860,82.4860
47.0010,82.4550
47.0170,82.4250
47.0350,82.3960
47.0540,82.3680
47.0750,82.3410
47.0970,82.3150
47.1200,82.2900
47.1450,82.2670
47.1710,82.2450
47.1980,82.2240
47.2260,82.2050
47.2550,82.1870
47.2850,82.1710
47.3160,82.1560
47.3470,82.1430
47.3790,82.1320
47.4120,82.1220
47.4450,82.1140
47.4780,82.1080
47.5120,82.1040
47.5460,82.1010
47.5800,82.1000
Z" /> 
<g >
</g>
<g style="fill:#D864FF; fill-opacity:0.4000; 
stroke:#D864FF; stroke-width:0.0000; stroke-opacity:1; 
stroke-linecap:round; stroke-linejoin:round;">
<path style="fill:#D864FF; fill-opacity:0.4000; 
stroke:#D864FF; stroke-width:0.0000; stroke-opacity:1; 
stroke-linecap:round; stroke-linejoin:round;fill-rule:evenodd;"
d="M 110.8340,119.0310
110.8418,118.9920
110.8639,118.9589
110.8970,118.9368
110.9360,118.9290
112.2040,118.9290
112.2430,118.9368
112.2761,118.9589
112.2982,118.9920
112.3060,119.0310
112.3060,120.2990
112.2982,120.3380
112.2761,120.3711
112.2430,120.3932
112.2040,120.4010
110.9360,120.4010
110.8970,120.3932
110.8639,120.3711
110.8418,120.3380
110.8340,120.2990
Z" /> 
<circle cx="114.1100" cy="119.6650" r="0.7360" /> 
</g>
<g style="fill:#D864FF; fill-opacity:0.4000; 
stroke:#D864FF; stroke-width:0.0212; stroke-opacity:1; 
stroke-linecap:round; stroke-linejoin:round;">
</g>
<g style="fill:#D864FF; fill-opacity:0.4000; 
stroke:#D864FF; stroke-width:0.0000; stroke-opacity:1; 
stroke-linecap:round; stroke-linejoin:round;">
<circle cx="116.6500" cy="119.6650" r="0.7360" /> 
</g>
<g style="fill:#D864FF; fill-opacity:0.4000; 
stroke:#D864FF; stroke-width:0.0212; stroke-opacity:1; 
stroke-linecap:round; stroke-linejoin:round;">
</g>
<g >
</g>
<g style="fill:#D864FF; fill-opacity:0.4000; 
stroke:#D864FF; stroke-width:0.0212; stroke-opacity:1; 
stroke-linecap:round; stroke-linejoin:round;">
</g>
<g style="fill:#D864FF; fill-opacity:0.4000; 
stroke:#D864FF; stroke-width:0.0000; stroke-opacity:1; 
stroke-linecap:round; stroke-linejoin:round;">
<path style="fill:#D864FF; fill-opacity:0.4000; 
stroke:#D864FF; stroke-width:0.0000; stroke-opacity:1; 
stroke-linecap:round; stroke-linejoin:round;fill-rule:evenodd;"
d="M 96.3250,83.3250
97.6750,83.3250
97.6750,84.6750
96.3250,84.6750
Z" /> 
<circle cx="95.0000" cy="84.0000" r="0.6750" /> 
<circle cx="93.0000" cy="84.0000" r="0.6750" /> 
<circle cx="91.0000" cy="84.0000" r="0.6750" /> 
</g>
<g >
</g>
<g style="fill:#D864FF; fill-opacity:0.4000; 
stroke:#D864FF; stroke-width:0.0000; stroke-opacity:1; 
stroke-linecap:round; stroke-linejoin:round;">
<circle cx="105.1750" cy="115.7000" r="0.9910" /> 
</g>
<g style="fill:#D864FF; fill-opacity:0.4000; 
stroke:#D864FF; stroke-width:0.0212; stroke-opacity:1; 
stroke-linecap:round; stroke-linejoin:round;">
</g>
<g style="fill:#D864FF; fill-opacity:0.4000; 
stroke:#D864FF; stroke-width:0.0000; stroke-opacity:1; 
stroke-linecap:round; stroke-linejoin:round;">
<circle cx="98.8250" cy="115.7000" r="0.9910" /> 
</g>
<g style="fill:#D864FF; fill-opacity:0.4000; 
stroke:#D864FF; stroke-width:0.0212; stroke-opacity:1; 
stroke-linecap:round; stroke-linejoin:round;">
</g>
<g style="fill:#D864FF; fill-opacity:0.4000; 
stroke:#D864FF; stroke-width:0.0000; stroke-opacity:1; 
stroke-linecap:round; stroke-linejoin:round;">
<circle cx="105.1750" cy="110.6200" r="0.9910" /> 
</g>
<g style="fill:#D864FF; fill-opacity:0.4000; 
stroke:#D864FF; stroke-width:0.0212; stroke-opacity:1; 
stroke-linecap:round; stroke-linejoin:round;">
</g>
<g style="fill:#D864FF; fill-opacity:0.4000; 
stroke:#D864FF; stroke-width:0.0000; stroke-opacity:1; 
stroke-linecap:round; stroke-linejoin:round;">
<circle cx="98.8250" cy="110.6200" r="0.9910" /> 
</g>
<g style="fill:#D864FF; fill-opacity:0.4000; 
stroke:#D864FF; stroke-width:0.0212; stroke-opacity:1; 
stroke-linecap:round; stroke-linejoin:round;">
</g>
<g style="fill:#D864FF; fill-opacity:0.4000; 
stroke:#D864FF; stroke-width:0.0000; stroke-opacity:1; 
stroke-linecap:round; stroke-linejoin:round;">
<circle cx="104.5400" cy="92.8400" r="0.9910" /> 
</g>
<g style="fill:#D864FF; fill-opacity:0.4000; 
stroke:#D864FF; stroke-width:0.0212; stroke-opacity:1; 
stroke-linecap:round; stroke-linejoin:round;">
</g>
<g style="fill:#D864FF; fill-opacity:0.4000; 
stroke:#D864FF; stroke-width:0.0000; stroke-opacity:1; 
stroke-linecap:round; stroke-linejoin:round;">
<circle cx="102.0000" cy="92.8400" r="0.9910" /> 
</g>
<g style="fill:#D864FF; fill-opacity:0.4000; 
stroke:#D864FF; stroke-width:0.0212; stroke-opacity:1; 
stroke-linecap:round; stroke-linejoin:round;">
</g>
<g style="fill:#D864FF; fill-opacity:0.4000; 
stroke:#D864FF; stroke-width:0.0000; stroke-opacity:1; 
stroke-linecap:round; stroke-linejoin:round;">
<circle cx="99.4600" cy="92.8400" r="0.9910" /> 
</g>
<g style="fill:#D864FF; fill-opacity:0.4000; 
stroke:#D864FF; stroke-width:0.0212; stroke-opacity:1; 
stroke-linecap:round; stroke-linejoin:round;">
</g>
<g style="fill:#D864FF; fill-opacity:0.4000; 
stroke:#D864FF; stroke-width:0.0000; stroke-opacity:1; 
stroke-linecap:round; stroke-linejoin:round;">
<circle cx="109.6200" cy="109.6675" r="1.2450" /> 
</g>
<g style="fill:#D864FF; fill-opacity:0.4000; 
stroke:#D864FF; stroke-width:0.0212; stroke-opacity:1; 
stroke-linecap:round; stroke-linejoin:round;">
</g>
<g style="fill:#D864FF; fill-opacity:0.4000; 
stroke:#D864FF; stroke-width:0.0000; stroke-opacity:1; 
stroke-linecap:round; stroke-linejoin:round;">
<circle cx="109.6200" cy="96.3325" r="1.2450" /> 
</g>
<g style="fill:#D864FF; fill-opacity:0.4000; 
stroke:#D864FF; stroke-width:0.0212; stroke-opacity:1; 
stroke-linecap:round; stroke-linejoin:round;">
</g>
<g style="fill:#D864FF; fill-opacity:0.4000; 
stroke:#D864FF; stroke-width:0.0000; stroke-opacity:1; 
stroke-linecap:round; stroke-linejoin:round;">
<circle cx="94.3800" cy="96.3325" r="1.2450" /> 
</g>
<g style="fill:#D864FF; fill-opacity:0.4000; 
stroke:#D864FF; stroke-width:0.0212; stroke-opacity:1; 
stroke-linecap:round; stroke-linejoin:round;">
</g>
<g style="fill:#D864FF; fill-opacity:0.4000; 
stroke:#D864FF; stroke-width:0.0000; stroke-opacity:1; 
stroke-linecap:round; stroke-linejoin:round;">
<circle cx="94.3800" cy="109.6675" r="1.2450" /> 
</g>
<g style="fill:#D864FF; fill-opacity:0.4000; 
stroke:#D864FF; stroke-width:0.0212; stroke-opacity:1; 
stroke-linecap:round; stroke-linejoin:round;">
</g>
<g style="fill:#D864FF; fill-opacity:0.4000; 
stroke:#D864FF; stroke-width:0.0000; stroke-opacity:1; 
stroke-linecap:round; stroke-linejoin:round;">
<circle cx="112.1600" cy="105.5400" r="0.9910" /> 
</g>
<g style="fill:#D864FF; fill-opacity:0.4000; 
stroke:#D864FF; stroke-width:0.0212; stroke-opacity:1; 
stroke-linecap:round; stroke-linejoin:round;">
</g>
<g style="fill:#D864FF; fill-opacity:0.4000; 
stroke:#D864FF; stroke-width:0.0000; stroke-opacity:1; 
stroke-linecap:round; stroke-linejoin:round;">
<circle cx="112.1600" cy="103.0000" r="0.9910" /> 
</g>
<g style="fill:#D864FF; fill-opacity:0.4000; 
stroke:#D864FF; stroke-width:0.0212; stroke-opacity:1; 
stroke-linecap:round; stroke-linejoin:round;">
</g>
<g style="fill:#D864FF; fill-opacity:0.4000; 
stroke:#D864FF; stroke-width:0.0000; stroke-opacity:1; 
stroke-linecap:round; stroke-linejoin:round;">
<circle cx="112.1600" cy="100.4600" r="0.9910" /> 
</g>
<g style="fill:#D864FF; fill-opacity:0.4000; 
stroke:#D864FF; stroke-width:0.0212; stroke-opacity:1; 
stroke-linecap:round; stroke-linejoin:round;">
</g>
<g >
</g>
<g style="fill:#D864FF; fill-opacity:0.4000; 
stroke:#D864FF; stroke-width:0.0212; stroke-opacity:1; 
stroke-linecap:round; stroke-linejoin:round;">
</g>
<g style="fill:#D864FF; fill-opacity:0.4000; 
stroke:#D864FF; stroke-width:0.0000; stroke-opacity:1; 
stroke-linecap:round; stroke-linejoin:round;">
<circle cx="100.7500" cy="126.5150" r="1.0000" /> 
</g>
<g style="fill:#D864FF; fill-opacity:0.4000; 
stroke:#D864FF; stroke-width:0.0212; stroke-opacity:1; 
stroke-linecap:round; stroke-linejoin:round;">
</g>
<g style="fill:#D864FF; fill-opacity:0.4000; 
stroke:#D864FF; stroke-width:0.0000; stroke-opacity:1; 
stroke-linecap:round; stroke-linejoin:round;">
<circle cx="107.2500" cy="126.5150" r="1.0000" /> 
</g>
<g style="fill:#D864FF; fill-opacity:0.4000; 
stroke:#D864FF; stroke-width:0.0212; stroke-opacity:1; 
stroke-linecap:round; stroke-linejoin:round;">
</g>
<g style="fill:#D864FF; fill-opacity:0.4000; 
stroke:#D864FF; stroke-width:0.0000; stroke-opacity:1; 
stroke-linecap:round; stroke-linejoin:round;">
<circle cx="100.7500" cy="131.0150" r="1.0000" /> 
</g>
<g style="fill:#D864FF; fill-opacity:0.4000; 
stroke:#D864FF; stroke-width:0.0212; stroke-opacity:1; 
stroke-linecap:round; stroke-linejoin:round;">
</g>
<g style="fill:#D864FF; fill-opacity:0.4000; 
stroke:#D864FF; stroke-width:0.0000; stroke-opacity:1; 
stroke-linecap:round; stroke-linejoin:round;">
<circle cx="107.2500" cy="131.0150" r="1.0000" /> 
</g>
<g style="fill:#D864FF; fill-opacity:0.4000; 
stroke:#D864FF; stroke-width:0.0212; stroke-opacity:1; 
stroke-linecap:round; stroke-linejoin:round;">
</g>
<g >
</g>
<g style="fill:#D864FF; fill-opacity:0.4000; 
stroke:#D864FF; stroke-width:0.0212; stroke-opacity:1; 
stroke-linecap:round; stroke-linejoin:round;">
</g>
<g style="fill:#D864FF; fill-opacity:0.4000; 
stroke:#D864FF; stroke-width:0.0000; stroke-opacity:1; 
stroke-linecap:round; stroke-linejoin:round;">
<path style="fill:#D864FF; fill-opacity:0.4000; 
stroke:#D864FF; stroke-width:0.0000; stroke-opacity:1; 
stroke-linecap:round; stroke-linejoin:round;fill-rule:evenodd;"
d="M 61.5500,89.5250
61.5690,89.4293
61.6232,89.3482
61.7043,89.2940
61.8000,89.2750
62.3000,89.2750
62.3957,89.2940
62.4768,89.3482
62.5310,89.4293
62.5500,89.5250
62.5500,90.4750
62.5310,90.5707
62.4768,90.6518
62.3957,90.7060
62.3000,90.7250
61.8000,90.7250
61.7043,90.7060
61.6232,90.6518
61.5690,90.5707
61.5500,90.4750
Z" /> 
<path style="fill:#D864FF; fill-opacity:0.4000; 
stroke:#D864FF; stroke-width:0.0000; stroke-opacity:1; 
stroke-linecap:round; stroke-linejoin:round;fill-rule:evenodd;"
d="M 63.4500,89.5250
63.4690,89.4293
63.5232,89.3482
63.6043,89.2940
63.7000,89.2750
64.2000,89.2750
64.2957,89.2940
64.3768,89.3482
64.4310,89.4293
64.4500,89.5250
64.4500,90.4750
64.4310,90.5707
64.3768,90.6518
64.2957,90.7060
64.2000,90.7250
63.7000,90.7250
63.6043,90.7060
63.5232,90.6518
63.4690,90.5707
63.4500,90.4750
Z" /> 
</g>
<g >
</g>
<g style="fill:#D864FF; fill-opacity:0.4000; 
stroke:#D864FF; stroke-width:0.0000; stroke-opacity:1; 
stroke-linecap:round; stroke-linejoin:round;">
<path style="fill:#D864FF; fill-opacity:0.4000; 
stroke:#D864FF; stroke-width:0.0000; stroke-opacity:1; 
stroke-linecap:round; stroke-linejoin:round;fill-rule:evenodd;"
d="M 116.8250,112.5500
116.8060,112.6457
116.7518,112.7268
116.6707,112.7810
116.5750,112.8000
116.0500,112.8000
115.9543,112.7810
115.8732,112.7268
115.8190,112.6457
115.8000,112.5500
115.8000,111.6500
115.8190,111.5543
115.8732,111.4732
115.9543,111.4190
116.0500,111.4000
116.5750,111.4000
116.6707,111.4190
116.7518,111.4732
116.8060,111.5543
116.8250,111.6500
Z" /> 
<path style="fill:#D864FF; fill-opacity:0.4000; 
stroke:#D864FF; stroke-width:0.0000; stroke-opacity:1; 
stroke-linecap:round; stroke-linejoin:round;fill-rule:evenodd;"
d="M 115.0000,112.5500
114.9810,112.6457
114.9268,112.7268
114.8457,112.7810
114.7500,112.8000
114.2250,112.8000
114.1293,112.7810
114.0482,112.7268
113.9940,112.6457
113.9750,112.5500
113.9750,111.6500
113.9940,111.5543
114.0482,111.4732
114.1293,111.4190
114.2250,111.4000
114.7500,111.4000
114.8457,111.4190
114.9268,111.4732
114.9810,111.5543
115.0000,111.6500
Z" /> 
</g>
<g >
</g>
<g style="fill:#D864FF; fill-opacity:0.4000; 
stroke:#D864FF; stroke-width:0.0000; stroke-opacity:1; 
stroke-linecap:round; stroke-linejoin:round;">
<path style="fill:#D864FF; fill-opacity:0.4000; 
stroke:#D864FF; stroke-width:0.0000; stroke-opacity:1; 
stroke-linecap:round; stroke-linejoin:round;fill-rule:evenodd;"
d="M 70.2000,116.4900
70.1810,116.5857
70.1268,116.6668
70.0457,116.7210
69.9500,116.7400
69.4500,116.7400
69.3543,116.7210
69.2732,116.6668
69.2190,116.5857
69.2000,116.4900
69.2000,115.5400
69.2190,115.4443
69.2732,115.3632
69.3543,115.3090
69.4500,115.2900
69.9500,115.2900
70.0457,115.3090
70.1268,115.3632
70.1810,115.4443
70.2000,115.5400
Z" /> 
<path style="fill:#D864FF; fill-opacity:0.4000; 
stroke:#D864FF; stroke-width:0.0000; stroke-opacity:1; 
stroke-linecap:round; stroke-linejoin:round;fill-rule:evenodd;"
d="M 68.3000,116.4900
68.2810,116.5857
68.2268,116.6668
68.1457,116.7210
68.0500,116.7400
67.5500,116.7400
67.4543,116.7210
67.3732,116.6668
67.3190,116.5857
67.3000,116.4900
67.3000,115.5400
67.3190,115.4443
67.3732,115.3632
67.4543,115.3090
67.5500,115.2900
68.0500,115.2900
68.1457,115.3090
68.2268,115.3632
68.2810,115.4443
68.3000,115.5400
Z" /> 
</g>
<g >
</g>
<g style="fill:#D864FF; fill-opacity:0.4000; 
stroke:#D864FF; stroke-width:0.0000; stroke-opacity:1; 
stroke-linecap:round; stroke-linejoin:round;">
<path style="fill:#D864FF; fill-opacity:0.4000; 
stroke:#D864FF; stroke-width:0.0000; stroke-opacity:1; 
stroke-linecap:round; stroke-linejoin:round;fill-rule:evenodd;"
d="M 87.4625,124.4712
87.4439,124.5645
87.3911,124.6436
87.3120,124.6964
87.2188,124.7150
86.7313,124.7150
86.6380,124.6964
86.5589,124.6436
86.5061,124.5645
86.4875,124.4712
86.4875,123.5587
86.5061,123.4655
86.5589,123.3864
86.6380,123.3336
86.7313,123.3150
87.2188,123.3150
87.3120,123.3336
87.3911,123.3864
87.4439,123.4655
87.4625,123.5587
Z" /> 
<path style="fill:#D864FF; fill-opacity:0.4000; 
stroke:#D864FF; stroke-width:0.0000; stroke-opacity:1; 
stroke-linecap:round; stroke-linejoin:round;fill-rule:evenodd;"
d="M 85.5875,124.4712
85.5689,124.5645
85.5161,124.6436
85.4370,124.6964
85.3438,124.7150
84.8563,124.7150
84.7630,124.6964
84.6839,124.6436
84.6311,124.5645
84.6125,124.4712
84.6125,123.5587
84.6311,123.4655
84.6839,123.3864
84.7630,123.3336
84.8563,123.3150
85.3438,123.3150
85.4370,123.3336
85.5161,123.3864
85.5689,123.4655
85.5875,123.5587
Z" /> 
</g>
<g >
</g>
<g style="fill:#D864FF; fill-opacity:0.4000; 
stroke:#D864FF; stroke-width:0.0000; stroke-opacity:1; 
stroke-linecap:round; stroke-linejoin:round;">
<path style="fill:#D864FF; fill-opacity:0.4000; 
stroke:#D864FF; stroke-width:0.0000; stroke-opacity:1; 
stroke-linecap:round; stroke-linejoin:round;fill-rule:evenodd;"
d="M 84.6125,126.0587
84.6311,125.9655
84.6839,125.8864
84.7630,125.8336
84.8563,125.8150
85.3438,125.8150
85.4370,125.8336
85.5161,125.8864
85.5689,125.9655
85.5875,126.0587
85.5875,126.9712
85.5689,127.0645
85.5161,127.1436
85.4370,127.1964
85.3438,127.2150
84.8563,127.2150
84.7630,127.1964
84.6839,127.1436
84.6311,127.0645
84.6125,126.9712
Z" /> 
<path style="fill:#D864FF; fill-opacity:0.4000; 
stroke:#D864FF; stroke-width:0.0000; stroke-opacity:1; 
stroke-linecap:round; stroke-linejoin:round;fill-rule:evenodd;"
d="M 86.4875,126.0587
86.5061,125.9655
86.5589,125.8864
86.6380,125.8336
86.7313,125.8150
87.2188,125.8150
87.3120,125.8336
87.3911,125.8864
87.4439,125.9655
87.4625,126.0587
87.4625,126.9712
87.4439,127.0645
87.3911,127.1436
87.3120,127.1964
87.2188,127.2150
86.7313,127.2150
86.6380,127.1964
86.5589,127.1436
86.5061,127.0645
86.4875,126.9712
Z" /> 
</g>
<g >
</g>
<g style="fill:#D864FF; fill-opacity:0.4000; 
stroke:#D864FF; stroke-width:0.0000; stroke-opacity:1; 
stroke-linecap:round; stroke-linejoin:round;">
<circle cx="36.6250" cy="86.2175" r="1.0500" /> 
</g>
<g style="fill:#D864FF; fill-opacity:0.4000; 
stroke:#D864FF; stroke-width:0.0212; stroke-opacity:1; 
stroke-linecap:round; stroke-linejoin:round;">
</g>
<g style="fill:#D864FF; fill-opacity:0.4000; 
stroke:#D864FF; stroke-width:0.0000; stroke-opacity:1; 
stroke-linecap:round; stroke-linejoin:round;">
<circle cx="43.6350" cy="86.2175" r="1.0500" /> 
</g>
<g style="fill:#D864FF; fill-opacity:0.4000; 
stroke:#D864FF; stroke-width:0.0212; stroke-opacity:1; 
stroke-linecap:round; stroke-linejoin:round;">
</g>
<g style="fill:#D864FF; fill-opacity:0.4000; 
stroke:#D864FF; stroke-width:0.0000; stroke-opacity:1; 
stroke-linecap:round; stroke-linejoin:round;">
<circle cx="37.8750" cy="83.7275" r="0.8750" /> 
</g>
<g style="fill:#D864FF; fill-opacity:0.4000; 
stroke:#D864FF; stroke-width:0.0212; stroke-opacity:1; 
stroke-linecap:round; stroke-linejoin:round;">
</g>
<g style="fill:#D864FF; fill-opacity:0.4000; 
stroke:#D864FF; stroke-width:0.0000; stroke-opacity:1; 
stroke-linecap:round; stroke-linejoin:round;">
<circle cx="42.3750" cy="83.7275" r="0.8750" /> 
</g>
<g style="fill:#D864FF; fill-opacity:0.4000; 
stroke:#D864FF; stroke-width:0.0212; stroke-opacity:1; 
stroke-linecap:round; stroke-linejoin:round;">
</g>
<g >
</g>
<g style="fill:#D864FF; fill-opacity:0.4000; 
stroke:#D864FF; stroke-width:0.0212; stroke-opacity:1; 
stroke-linecap:round; stroke-linejoin:round;">
</g>
<g style="fill:#D864FF; fill-opacity:0.4000; 
stroke:#D864FF; stroke-width:0.0000; stroke-opacity:1; 
stroke-linecap:round; stroke-linejoin:round;">
<path style="fill:#D864FF; fill-opacity:0.4000; 
stroke:#D864FF; stroke-width:0.0000; stroke-opacity:1; 
stroke-linecap:round; stroke-linejoin:round;fill-rule:evenodd;"
d="M 86.3000,104.4750
86.2810,104.5707
86.2268,104.6518
86.1457,104.7060
86.0500,104.7250
85.5500,104.7250
85.4543,104.7060
85.3732,104.6518
85.3190,104.5707
85.3000,104.4750
85.3000,103.5250
85.3190,103.4293
85.3732,103.3482
85.4543,103.2940
85.5500,103.2750
86.0500,103.2750
86.1457,103.2940
86.2268,103.3482
86.2810,103.4293
86.3000,103.5250
Z" /> 
<path style="fill:#D864FF; fill-opacity:0.4000; 
stroke:#D864FF; stroke-width:0.0000; stroke-opacity:1; 
stroke-linecap:round; stroke-linejoin:round;fill-rule:evenodd;"
d="M 84.4000,104.4750
84.3810,104.5707
84.3268,104.6518
84.2457,104.7060
84.1500,104.7250
83.6500,104.7250
83.5543,104.7060
83.4732,104.6518
83.4190,104.5707
83.4000,104.4750
83.4000,103.5250
83.4190,103.4293
83.4732,103.3482
83.5543,103.2940
83.6500,103.2750
84.1500,103.2750
84.2457,103.2940
84.3268,103.3482
84.3810,103.4293
84.4000,103.5250
Z" /> 
</g>
<g >
</g>
<g style="fill:#D864FF; fill-opacity:0.4000; 
stroke:#D864FF; stroke-width:0.0000; stroke-opacity:1; 
stroke-linecap:round; stroke-linejoin:round;">
<path style="fill:#D864FF; fill-opacity:0.4000; 
stroke:#D864FF; stroke-width:0.0000; stroke-opacity:1; 
stroke-linecap:round; stroke-linejoin:round;fill-rule:evenodd;"
d="M 61.5250,116.1500
61.5060,116.2457
61.4518,116.3268
61.3707,116.3810
61.2750,116.4000
60.7500,116.4000
60.6543,116.3810
60.5732,116.3268
60.5190,116.2457
60.5000,116.1500
60.5000,115.2500
60.5190,115.1543
60.5732,115.0732
60.6543,115.0190
60.7500,115.0000
61.2750,115.0000
61.3707,115.0190
61.4518,115.0732
61.5060,115.1543
61.5250,115.2500
Z" /> 
<path style="fill:#D864FF; fill-opacity:0.4000; 
stroke:#D864FF; stroke-width:0.0000; stroke-opacity:1; 
stroke-linecap:round; stroke-linejoin:round;fill-rule:evenodd;"
d="M 59.7000,116.1500
59.6810,116.2457
59.6268,116.3268
59.5457,116.3810
59.4500,116.4000
58.9250,116.4000
58.8293,116.3810
58.7482,116.3268
58.6940,116.2457
58.6750,116.1500
58.6750,115.2500
58.6940,115.1543
58.7482,115.0732
58.8293,115.0190
58.9250,115.0000
59.4500,115.0000
59.5457,115.0190
59.6268,115.0732
59.6810,115.1543
59.7000,115.2500
Z" /> 
</g>
<g >
</g>
<g style="fill:#D864FF; fill-opacity:0.4000; 
stroke:#D864FF; stroke-width:0.0000; stroke-opacity:1; 
stroke-linecap:round; stroke-linejoin:round;">
<path style="fill:#D864FF; fill-opacity:0.4000; 
stroke:#D864FF; stroke-width:0.0000; stroke-opacity:1; 
stroke-linecap:round; stroke-linejoin:round;fill-rule:evenodd;"
d="M 71.3500,112.9500
71.3500,111.4500
73.3500,111.4500
73.3500,112.9500
Z" /> 
<path style="fill:#D864FF; fill-opacity:0.4000; 
stroke:#D864FF; stroke-width:0.0000; stroke-opacity:1; 
stroke-linecap:round; stroke-linejoin:round;fill-rule:evenodd;"
d="M 71.3500,115.2500
71.3500,113.7500
73.3500,113.7500
73.3500,115.2500
Z" /> 
<path style="fill:#D864FF; fill-opacity:0.4000; 
stroke:#D864FF; stroke-width:0.0000; stroke-opacity:1; 
stroke-linecap:round; stroke-linejoin:round;fill-rule:evenodd;"
d="M 77.6500,116.4000
77.6500,112.6000
79.6500,112.6000
79.6500,116.4000
Z" /> 
<path style="fill:#D864FF; fill-opacity:0.4000; 
stroke:#D864FF; stroke-width:0.0000; stroke-opacity:1; 
stroke-linecap:round; stroke-linejoin:round;fill-rule:evenodd;"
d="M 71.3500,117.5500
71.3500,116.0500
73.3500,116.0500
73.3500,117.5500
Z" /> 
</g>
<g >
</g>
<g style="fill:#D864FF; fill-opacity:0.4000; 
stroke:#D864FF; stroke-width:0.0000; stroke-opacity:1; 
stroke-linecap:round; stroke-linejoin:round;">
<path style="fill:#D864FF; fill-opacity:0.4000; 
stroke:#D864FF; stroke-width:0.0000; stroke-opacity:1; 
stroke-linecap:round; stroke-linejoin:round;fill-rule:evenodd;"
d="M 96.3250,87.1250
97.6750,87.1250
97.6750,88.4750
96.3250,88.4750
Z" /> 
<circle cx="95.0000" cy="87.8000" r="0.6750" /> 
<circle cx="93.0000" cy="87.8000" r="0.6750" /> 
<circle cx="91.0000" cy="87.8000" r="0.6750" /> 
</g>
<g >
</g>
<g style="fill:#D864FF; fill-opacity:0.4000; 
stroke:#D864FF; stroke-width:0.0000; stroke-opacity:1; 
stroke-linecap:round; stroke-linejoin:round;">
<path style="fill:#D864FF; fill-opacity:0.4000; 
stroke:#D864FF; stroke-width:0.0000; stroke-opacity:1; 
stroke-linecap:round; stroke-linejoin:round;fill-rule:evenodd;"
d="M 70.2000,114.2400
70.1810,114.3357
70.1268,114.4168
70.0457,114.4710
69.9500,114.4900
69.4500,114.4900
69.3543,114.4710
69.2732,114.4168
69.2190,114.3357
69.2000,114.2400
69.2000,113.2900
69.2190,113.1943
69.2732,113.1132
69.3543,113.0590
69.4500,113.0400
69.9500,113.0400
70.0457,113.0590
70.1268,113.1132
70.1810,113.1943
70.2000,113.2900
Z" /> 
<path style="fill:#D864FF; fill-opacity:0.4000; 
stroke:#D864FF; stroke-width:0.0000; stroke-opacity:1; 
stroke-linecap:round; stroke-linejoin:round;fill-rule:evenodd;"
d="M 68.3000,114.2400
68.2810,114.3357
68.2268,114.4168
68.1457,114.4710
68.0500,114.4900
67.5500,114.4900
67.4543,114.4710
67.3732,114.4168
67.3190,114.3357
67.3000,114.2400
67.3000,113.2900
67.3190,113.1943
67.3732,113.1132
67.4543,113.0590
67.5500,113.0400
68.0500,113.0400
68.1457,113.0590
68.2268,113.1132
68.2810,113.1943
68.3000,113.2900
Z" /> 
</g>
<g >
</g>
<g style="fill:#D864FF; fill-opacity:0.4000; 
stroke:#D864FF; stroke-width:0.0000; stroke-opacity:1; 
stroke-linecap:round; stroke-linejoin:round;">
<path style="fill:#D864FF; fill-opacity:0.4000; 
stroke:#D864FF; stroke-width:0.0000; stroke-opacity:1; 
stroke-linecap:round; stroke-linejoin:round;fill-rule:evenodd;"
d="M 87.4625,121.9712
87.4439,122.0645
87.3911,122.1436
87.3120,122.1964
87.2188,122.2150
86.7313,122.2150
86.6380,122.1964
86.5589,122.1436
86.5061,122.0645
86.4875,121.9712
86.4875,121.0587
86.5061,120.9655
86.5589,120.8864
86.6380,120.8336
86.7313,120.8150
87.2188,120.8150
87.3120,120.8336
87.3911,120.8864
87.4439,120.9655
87.4625,121.0587
Z" /> 
<path style="fill:#D864FF; fill-opacity:0.4000; 
stroke:#D864FF; stroke-width:0.0000; stroke-opacity:1; 
stroke-linecap:round; stroke-linejoin:round;fill-rule:evenodd;"
d="M 85.5875,121.9712
85.5689,122.0645
85.5161,122.1436
85.4370,122.1964
85.3438,122.2150
84.8563,122.2150
84.7630,122.1964
84.6839,122.1436
84.6311,122.0645
84.6125,121.9712
84.6125,121.0587
84.6311,120.9655
84.6839,120.8864
84.7630,120.8336
84.8563,120.8150
85.3438,120.8150
85.4370,120.8336
85.5161,120.8864
85.5689,120.9655
85.5875,121.0587
Z" /> 
</g>
<g >
</g>
<g style="fill:#D864FF; fill-opacity:0.4000; 
stroke:#D864FF; stroke-width:0.0000; stroke-opacity:1; 
stroke-linecap:round; stroke-linejoin:round;">
<path style="fill:#D864FF; fill-opacity:0.4000; 
stroke:#D864FF; stroke-width:0.0000; stroke-opacity:1; 
stroke-linecap:round; stroke-linejoin:round;fill-rule:evenodd;"
d="M 68.9500,104.4750
68.9310,104.5707
68.8768,104.6518
68.7957,104.7060
68.7000,104.7250
68.2000,104.7250
68.1043,104.7060
68.0232,104.6518
67.9690,104.5707
67.9500,104.4750
67.9500,103.5250
67.9690,103.4293
68.0232,103.3482
68.1043,103.2940
68.2000,103.2750
68.7000,103.2750
68.7957,103.2940
68.8768,103.3482
68.9310,103.4293
68.9500,103.5250
Z" /> 
<path style="fill:#D864FF; fill-opacity:0.4000; 
stroke:#D864FF; stroke-width:0.0000; stroke-opacity:1; 
stroke-linecap:round; stroke-linejoin:round;fill-rule:evenodd;"
d="M 67.0500,104.4750
67.0310,104.5707
66.9768,104.6518
66.8957,104.7060
66.8000,104.7250
66.3000,104.7250
66.2043,104.7060
66.1232,104.6518
66.0690,104.5707
66.0500,104.4750
66.0500,103.5250
66.0690,103.4293
66.1232,103.3482
66.2043,103.2940
66.3000,103.2750
66.8000,103.2750
66.8957,103.2940
66.9768,103.3482
67.0310,103.4293
67.0500,103.5250
Z" /> 
</g>
<g >
</g>
<g style="fill:#D864FF; fill-opacity:0.4000; 
stroke:#D864FF; stroke-width:0.0000; stroke-opacity:1; 
stroke-linecap:round; stroke-linejoin:round;">
<path style="fill:#D864FF; fill-opacity:0.4000; 
stroke:#D864FF; stroke-width:0.0000; stroke-opacity:1; 
stroke-linecap:round; stroke-linejoin:round;fill-rule:evenodd;"
d="M 80.5000,113.0250
80.5190,112.9293
80.5732,112.8482
80.6543,112.7940
80.7500,112.7750
81.2500,112.7750
81.3457,112.7940
81.4268,112.8482
81.4810,112.9293
81.5000,113.0250
81.5000,113.9750
81.4810,114.0707
81.4268,114.1518
81.3457,114.2060
81.2500,114.2250
80.7500,114.2250
80.6543,114.2060
80.5732,114.1518
80.5190,114.0707
80.5000,113.9750
Z" /> 
<path style="fill:#D864FF; fill-opacity:0.4000; 
stroke:#D864FF; stroke-width:0.0000; stroke-opacity:1; 
stroke-linecap:round; stroke-linejoin:round;fill-rule:evenodd;"
d="M 82.4000,113.0250
82.4190,112.9293
82.4732,112.8482
82.5543,112.7940
82.6500,112.7750
83.1500,112.7750
83.2457,112.7940
83.3268,112.8482
83.3810,112.9293
83.4000,113.0250
83.4000,113.9750
83.3810,114.0707
83.3268,114.1518
83.2457,114.2060
83.1500,114.2250
82.6500,114.2250
82.5543,114.2060
82.4732,114.1518
82.4190,114.0707
82.4000,113.9750
Z" /> 
</g>
<g >
</g>
<g style="fill:#D864FF; fill-opacity:0.4000; 
stroke:#D864FF; stroke-width:0.0000; stroke-opacity:1; 
stroke-linecap:round; stroke-linejoin:round;">
<path style="fill:#D864FF; fill-opacity:0.4000; 
stroke:#D864FF; stroke-width:0.0000; stroke-opacity:1; 
stroke-linecap:round; stroke-linejoin:round;fill-rule:evenodd;"
d="M 61.9750,83.0000
62.0707,83.0190
62.1518,83.0732
62.2060,83.1543
62.2250,83.2500
62.2250,83.7500
62.2060,83.8457
62.1518,83.9268
62.0707,83.9810
61.9750,84.0000
61.0250,84.0000
60.9293,83.9810
60.8482,83.9268
60.7940,83.8457
60.7750,83.7500
60.7750,83.2500
60.7940,83.1543
60.8482,83.0732
60.9293,83.0190
61.0250,83.0000
Z" /> 
<path style="fill:#D864FF; fill-opacity:0.4000; 
stroke:#D864FF; stroke-width:0.0000; stroke-opacity:1; 
stroke-linecap:round; stroke-linejoin:round;fill-rule:evenodd;"
d="M 61.9750,84.9000
62.0707,84.9190
62.1518,84.9732
62.2060,85.0543
62.2250,85.1500
62.2250,85.6500
62.2060,85.7457
62.1518,85.8268
62.0707,85.8810
61.9750,85.9000
61.0250,85.9000
60.9293,85.8810
60.8482,85.8268
60.7940,85.7457
60.7750,85.6500
60.7750,85.1500
60.7940,85.0543
60.8482,84.9732
60.9293,84.9190
61.0250,84.9000
Z" /> 
</g>
<g >
</g>
<g style="fill:#D864FF; fill-opacity:0.4000; 
stroke:#D864FF; stroke-width:0.0000; stroke-opacity:1; 
stroke-linecap:round; stroke-linejoin:round;">
<path style="fill:#D864FF; fill-opacity:0.4000; 
stroke:#D864FF; stroke-width:0.0000; stroke-opacity:1; 
stroke-linecap:round; stroke-linejoin:round;fill-rule:evenodd;"
d="M 80.5000,115.5400
80.5190,115.4443
80.5732,115.3632
80.6543,115.3090
80.7500,115.2900
81.2500,115.2900
81.3457,115.3090
81.4268,115.3632
81.4810,115.4443
81.5000,115.5400
81.5000,116.4900
81.4810,116.5857
81.4268,116.6668
81.3457,116.7210
81.2500,116.7400
80.7500,116.7400
80.6543,116.7210
80.5732,116.6668
80.5190,116.5857
80.5000,116.4900
Z" /> 
<path style="fill:#D864FF; fill-opacity:0.4000; 
stroke:#D864FF; stroke-width:0.0000; stroke-opacity:1; 
stroke-linecap:round; stroke-linejoin:round;fill-rule:evenodd;"
d="M 82.4000,115.5400
82.4190,115.4443
82.4732,115.3632
82.5543,115.3090
82.6500,115.2900
83.1500,115.2900
83.2457,115.3090
83.3268,115.3632
83.3810,115.4443
83.4000,115.5400
83.4000,116.4900
83.3810,116.5857
83.3268,116.6668
83.2457,116.7210
83.1500,116.7400
82.6500,116.7400
82.5543,116.7210
82.4732,116.6668
82.4190,116.5857
82.4000,116.4900
Z" /> 
</g>
<g >
</g>
<g style="fill:#D864FF; fill-opacity:0.4000; 
stroke:#D864FF; stroke-width:0.0000; stroke-opacity:1; 
stroke-linecap:round; stroke-linejoin:round;">
<path style="fill:#D864FF; fill-opacity:0.4000; 
stroke:#D864FF; stroke-width:0.0000; stroke-opacity:1; 
stroke-linecap:round; stroke-linejoin:round;fill-rule:evenodd;"
d="M 91.4250,124.4500
91.4060,124.5457
91.3518,124.6268
91.2707,124.6810
91.1750,124.7000
90.6500,124.7000
90.5543,124.6810
90.4732,124.6268
90.4190,124.5457
90.4000,124.4500
90.4000,123.5500
90.4190,123.4543
90.4732,123.3732
90.5543,123.3190
90.6500,123.3000
91.1750,123.3000
91.2707,123.3190
91.3518,123.3732
91.4060,123.4543
91.4250,123.5500
Z" /> 
<path style="fill:#D864FF; fill-opacity:0.4000; 
stroke:#D864FF; stroke-width:0.0000; stroke-opacity:1; 
stroke-linecap:round; stroke-linejoin:round;fill-rule:evenodd;"
d="M 89.6000,124.4500
89.5810,124.5457
89.5268,124.6268
89.4457,124.6810
89.3500,124.7000
88.8250,124.7000
88.7293,124.6810
88.6482,124.6268
88.5940,124.5457
88.5750,124.4500
88.5750,123.5500
88.5940,123.4543
88.6482,123.3732
88.7293,123.3190
88.8250,123.3000
89.3500,123.3000
89.4457,123.3190
89.5268,123.3732
89.5810,123.4543
89.6000,123.5500
Z" /> 
</g>
<g >
</g>
<g style="fill:#D864FF; fill-opacity:0.4000; 
stroke:#D864FF; stroke-width:0.0000; stroke-opacity:1; 
stroke-linecap:round; stroke-linejoin:round;">
<path style="fill:#D864FF; fill-opacity:0.4000; 
stroke:#D864FF; stroke-width:0.0000; stroke-opacity:1; 
stroke-linecap:round; stroke-linejoin:round;fill-rule:evenodd;"
d="M 102.5750,83.3500
102.5940,83.2543
102.6482,83.1732
102.7293,83.1190
102.8250,83.1000
103.3500,83.1000
103.4457,83.1190
103.5268,83.1732
103.5810,83.2543
103.6000,83.3500
103.6000,84.2500
103.5810,84.3457
103.5268,84.4268
103.4457,84.4810
103.3500,84.5000
102.8250,84.5000
102.7293,84.4810
102.6482,84.4268
102.5940,84.3457
102.5750,84.2500
Z" /> 
<path style="fill:#D864FF; fill-opacity:0.4000; 
stroke:#D864FF; stroke-width:0.0000; stroke-opacity:1; 
stroke-linecap:round; stroke-linejoin:round;fill-rule:evenodd;"
d="M 104.4000,83.3500
104.4190,83.2543
104.4732,83.1732
104.5543,83.1190
104.6500,83.1000
105.1750,83.1000
105.2707,83.1190
105.3518,83.1732
105.4060,83.2543
105.4250,83.3500
105.4250,84.2500
105.4060,84.3457
105.3518,84.4268
105.2707,84.4810
105.1750,84.5000
104.6500,84.5000
104.5543,84.4810
104.4732,84.4268
104.4190,84.3457
104.4000,84.2500
Z" /> 
</g>
<g >
</g>
<g style="fill:#D864FF; fill-opacity:0.4000; 
stroke:#D864FF; stroke-width:0.0000; stroke-opacity:1; 
stroke-linecap:round; stroke-linejoin:round;">
<path style="fill:#D864FF; fill-opacity:0.4000; 
stroke:#D864FF; stroke-width:0.0000; stroke-opacity:1; 
stroke-linecap:round; stroke-linejoin:round;fill-rule:evenodd;"
d="M 41.7250,90.3500
41.7060,90.4457
41.6518,90.5268
41.5707,90.5810
41.4750,90.6000
40.9500,90.6000
40.8543,90.5810
40.7732,90.5268
40.7190,90.4457
40.7000,90.3500
40.7000,89.4500
40.7190,89.3543
40.7732,89.2732
40.8543,89.2190
40.9500,89.2000
41.4750,89.2000
41.5707,89.2190
41.6518,89.2732
41.7060,89.3543
41.7250,89.4500
Z" /> 
<path style="fill:#D864FF; fill-opacity:0.4000; 
stroke:#D864FF; stroke-width:0.0000; stroke-opacity:1; 
stroke-linecap:round; stroke-linejoin:round;fill-rule:evenodd;"
d="M 39.9000,90.3500
39.8810,90.4457
39.8268,90.5268
39.7457,90.5810
39.6500,90.6000
39.1250,90.6000
39.0293,90.5810
38.9482,90.5268
38.8940,90.4457
38.8750,90.3500
38.8750,89.4500
38.8940,89.3543
38.9482,89.2732
39.0293,89.2190
39.1250,89.2000
39.6500,89.2000
39.7457,89.2190
39.8268,89.2732
39.8810,89.3543
39.9000,89.4500
Z" /> 
</g>
<g >
</g>
<g style="fill:#D864FF; fill-opacity:0.4000; 
stroke:#D864FF; stroke-width:0.0000; stroke-opacity:1; 
stroke-linecap:round; stroke-linejoin:round;">
<path style="fill:#D864FF; fill-opacity:0.4000; 
stroke:#D864FF; stroke-width:0.0000; stroke-opacity:1; 
stroke-linecap:round; stroke-linejoin:round;fill-rule:evenodd;"
d="M 77.4000,108.2650
77.4000,107.2650
78.6500,107.2650
78.6500,108.2650
Z" /> 
<path style="fill:#D864FF; fill-opacity:0.4000; 
stroke:#D864FF; stroke-width:0.0000; stroke-opacity:1; 
stroke-linecap:round; stroke-linejoin:round;fill-rule:evenodd;"
d="M 85.1500,108.2650
85.1500,107.2650
86.4000,107.2650
86.4000,108.2650
Z" /> 
</g>
<g >
</g>
<g style="fill:#D864FF; fill-opacity:0.4000; 
stroke:#D864FF; stroke-width:0.0000; stroke-opacity:1; 
stroke-linecap:round; stroke-linejoin:round;">
<path style="fill:#D864FF; fill-opacity:0.4000; 
stroke:#D864FF; stroke-width:0.0000; stroke-opacity:1; 
stroke-linecap:round; stroke-linejoin:round;fill-rule:evenodd;"
d="M 34.6500,105.5000
34.6500,106.8500
33.3000,106.8500
33.3000,105.5000
Z" /> 
<circle cx="33.9750" cy="104.1750" r="0.6750" /> 
<circle cx="33.9750" cy="102.1750" r="0.6750" /> 
<circle cx="33.9750" cy="100.1750" r="0.6750" /> 
</g>
<g >
</g>
<g style="fill:#D864FF; fill-opacity:0.4000; 
stroke:#D864FF; stroke-width:0.0000; stroke-opacity:1; 
stroke-linecap:round; stroke-linejoin:round;">
<circle cx="53.1750" cy="115.7000" r="0.9910" /> 
</g>
<g style="fill:#D864FF; fill-opacity:0.4000; 
stroke:#D864FF; stroke-width:0.0212; stroke-opacity:1; 
stroke-linecap:round; stroke-linejoin:round;">
</g>
<g style="fill:#D864FF; fill-opacity:0.4000; 
stroke:#D864FF; stroke-width:0.0000; stroke-opacity:1; 
stroke-linecap:round; stroke-linejoin:round;">
<circle cx="46.8250" cy="115.7000" r="0.9910" /> 
</g>
<g style="fill:#D864FF; fill-opacity:0.4000; 
stroke:#D864FF; stroke-width:0.0212; stroke-opacity:1; 
stroke-linecap:round; stroke-linejoin:round;">
</g>
<g style="fill:#D864FF; fill-opacity:0.4000; 
stroke:#D864FF; stroke-width:0.0000; stroke-opacity:1; 
stroke-linecap:round; stroke-linejoin:round;">
<circle cx="53.1750" cy="110.6200" r="0.9910" /> 
</g>
<g style="fill:#D864FF; fill-opacity:0.4000; 
stroke:#D864FF; stroke-width:0.0212; stroke-opacity:1; 
stroke-linecap:round; stroke-linejoin:round;">
</g>
<g style="fill:#D864FF; fill-opacity:0.4000; 
stroke:#D864FF; stroke-width:0.0000; stroke-opacity:1; 
stroke-linecap:round; stroke-linejoin:round;">
<circle cx="46.8250" cy="110.6200" r="0.9910" /> 
</g>
<g style="fill:#D864FF; fill-opacity:0.4000; 
stroke:#D864FF; stroke-width:0.0212; stroke-opacity:1; 
stroke-linecap:round; stroke-linejoin:round;">
</g>
<g style="fill:#D864FF; fill-opacity:0.4000; 
stroke:#D864FF; stroke-width:0.0000; stroke-opacity:1; 
stroke-linecap:round; stroke-linejoin:round;">
<circle cx="52.5400" cy="92.8400" r="0.9910" /> 
</g>
<g style="fill:#D864FF; fill-opacity:0.4000; 
stroke:#D864FF; stroke-width:0.0212; stroke-opacity:1; 
stroke-linecap:round; stroke-linejoin:round;">
</g>
<g style="fill:#D864FF; fill-opacity:0.4000; 
stroke:#D864FF; stroke-width:0.0000; stroke-opacity:1; 
stroke-linecap:round; stroke-linejoin:round;">
<circle cx="50.0000" cy="92.8400" r="0.9910" /> 
</g>
<g style="fill:#D864FF; fill-opacity:0.4000; 
stroke:#D864FF; stroke-width:0.0212; stroke-opacity:1; 
stroke-linecap:round; stroke-linejoin:round;">
</g>
<g style="fill:#D864FF; fill-opacity:0.4000; 
stroke:#D864FF; stroke-width:0.0000; stroke-opacity:1; 
stroke-linecap:round; stroke-linejoin:round;">
<circle cx="47.4600" cy="92.8400" r="0.9910" /> 
</g>
<g style="fill:#D864FF; fill-opacity:0.4000; 
stroke:#D864FF; stroke-width:0.0212; stroke-opacity:1; 
stroke-linecap:round; stroke-linejoin:round;">
</g>
<g style="fill:#D864FF; fill-opacity:0.4000; 
stroke:#D864FF; stroke-width:0.0000; stroke-opacity:1; 
stroke-linecap:round; stroke-linejoin:round;">
<circle cx="57.6200" cy="109.6675" r="1.2450" /> 
</g>
<g style="fill:#D864FF; fill-opacity:0.4000; 
stroke:#D864FF; stroke-width:0.0212; stroke-opacity:1; 
stroke-linecap:round; stroke-linejoin:round;">
</g>
<g style="fill:#D864FF; fill-opacity:0.4000; 
stroke:#D864FF; stroke-width:0.0000; stroke-opacity:1; 
stroke-linecap:round; stroke-linejoin:round;">
<circle cx="57.6200" cy="96.3325" r="1.2450" /> 
</g>
<g style="fill:#D864FF; fill-opacity:0.4000; 
stroke:#D864FF; stroke-width:0.0212; stroke-opacity:1; 
stroke-linecap:round; stroke-linejoin:round;">
</g>
<g style="fill:#D864FF; fill-opacity:0.4000; 
stroke:#D864FF; stroke-width:0.0000; stroke-opacity:1; 
stroke-linecap:round; stroke-linejoin:round;">
<circle cx="42.3800" cy="96.3325" r="1.2450" /> 
</g>
<g style="fill:#D864FF; fill-opacity:0.4000; 
stroke:#D864FF; stroke-width:0.0212; stroke-opacity:1; 
stroke-linecap:round; stroke-linejoin:round;">
</g>
<g style="fill:#D864FF; fill-opacity:0.4000; 
stroke:#D864FF; stroke-width:0.0000; stroke-opacity:1; 
stroke-linecap:round; stroke-linejoin:round;">
<circle cx="42.3800" cy="109.6675" r="1.2450" /> 
</g>
<g style="fill:#D864FF; fill-opacity:0.4000; 
stroke:#D864FF; stroke-width:0.0212; stroke-opacity:1; 
stroke-linecap:round; stroke-linejoin:round;">
</g>
<g style="fill:#D864FF; fill-opacity:0.4000; 
stroke:#D864FF; stroke-width:0.0000; stroke-opacity:1; 
stroke-linecap:round; stroke-linejoin:round;">
<circle cx="60.1600" cy="105.5400" r="0.9910" /> 
</g>
<g style="fill:#D864FF; fill-opacity:0.4000; 
stroke:#D864FF; stroke-width:0.0212; stroke-opacity:1; 
stroke-linecap:round; stroke-linejoin:round;">
</g>
<g style="fill:#D864FF; fill-opacity:0.4000; 
stroke:#D864FF; stroke-width:0.0000; stroke-opacity:1; 
stroke-linecap:round; stroke-linejoin:round;">
<circle cx="60.1600" cy="103.0000" r="0.9910" /> 
</g>
<g style="fill:#D864FF; fill-opacity:0.4000; 
stroke:#D864FF; stroke-width:0.0212; stroke-opacity:1; 
stroke-linecap:round; stroke-linejoin:round;">
</g>
<g style="fill:#D864FF; fill-opacity:0.4000; 
stroke:#D864FF; stroke-width:0.0000; stroke-opacity:1; 
stroke-linecap:round; stroke-linejoin:round;">
<circle cx="60.1600" cy="100.4600" r="0.9910" /> 
</g>
<g style="fill:#D864FF; fill-opacity:0.4000; 
stroke:#D864FF; stroke-width:0.0212; stroke-opacity:1; 
stroke-linecap:round; stroke-linejoin:round;">
</g>
<g >
</g>
<g style="fill:#D864FF; fill-opacity:0.4000; 
stroke:#D864FF; stroke-width:0.0212; stroke-opacity:1; 
stroke-linecap:round; stroke-linejoin:round;">
</g>
<g style="fill:#D864FF; fill-opacity:0.4000; 
stroke:#D864FF; stroke-width:0.0000; stroke-opacity:1; 
stroke-linecap:round; stroke-linejoin:round;">
<circle cx="45.7500" cy="126.7500" r="1.0000" /> 
</g>
<g style="fill:#D864FF; fill-opacity:0.4000; 
stroke:#D864FF; stroke-width:0.0212; stroke-opacity:1; 
stroke-linecap:round; stroke-linejoin:round;">
</g>
<g style="fill:#D864FF; fill-opacity:0.4000; 
stroke:#D864FF; stroke-width:0.0000; stroke-opacity:1; 
stroke-linecap:round; stroke-linejoin:round;">
<circle cx="52.2500" cy="126.7500" r="1.0000" /> 
</g>
<g style="fill:#D864FF; fill-opacity:0.4000; 
stroke:#D864FF; stroke-width:0.0212; stroke-opacity:1; 
stroke-linecap:round; stroke-linejoin:round;">
</g>
<g style="fill:#D864FF; fill-opacity:0.4000; 
stroke:#D864FF; stroke-width:0.0000; stroke-opacity:1; 
stroke-linecap:round; stroke-linejoin:round;">
<circle cx="45.7500" cy="131.2500" r="1.0000" /> 
</g>
<g style="fill:#D864FF; fill-opacity:0.4000; 
stroke:#D864FF; stroke-width:0.0212; stroke-opacity:1; 
stroke-linecap:round; stroke-linejoin:round;">
</g>
<g style="fill:#D864FF; fill-opacity:0.4000; 
stroke:#D864FF; stroke-width:0.0000; stroke-opacity:1; 
stroke-linecap:round; stroke-linejoin:round;">
<circle cx="52.2500" cy="131.2500" r="1.0000" /> 
</g>
<g style="fill:#D864FF; fill-opacity:0.4000; 
stroke:#D864FF; stroke-width:0.0212; stroke-opacity:1; 
stroke-linecap:round; stroke-linejoin:round;">
</g>
<g >
</g>
<g style="fill:#D864FF; fill-opacity:0.4000; 
stroke:#D864FF; stroke-width:0.0212; stroke-opacity:1; 
stroke-linecap:round; stroke-linejoin:round;">
</g>
<g style="fill:#D864FF; fill-opacity:0.4000; 
stroke:#D864FF; stroke-width:0.0000; stroke-opacity:1; 
stroke-linecap:round; stroke-linejoin:round;">
<path style="fill:#D864FF; fill-opacity:0.4000; 
stroke:#D864FF; stroke-width:0.0000; stroke-opacity:1; 
stroke-linecap:round; stroke-linejoin:round;fill-rule:evenodd;"
d="M 52.8520,87.5300
52.8442,87.5690
52.8221,87.6021
52.7890,87.6242
52.7500,87.6320
52.0500,87.6320
52.0110,87.6242
51.9779,87.6021
51.9558,87.5690
51.9480,87.5300
51.9480,86.3300
51.9558,86.2910
51.9779,86.2579
52.0110,86.2358
52.0500,86.2280
52.7500,86.2280
52.7890,86.2358
52.8221,86.2579
52.8442,86.2910
52.8520,86.3300
Z" /> 
<path style="fill:#D864FF; fill-opacity:0.4000; 
stroke:#D864FF; stroke-width:0.0000; stroke-opacity:1; 
stroke-linecap:round; stroke-linejoin:round;fill-rule:evenodd;"
d="M 50.8620,87.5300
50.8542,87.5690
50.8321,87.6021
50.7990,87.6242
50.7600,87.6320
50.0000,87.6320
49.9610,87.6242
49.9279,87.6021
49.9058,87.5690
49.8980,87.5300
49.8980,86.3300
49.9058,86.2910
49.9279,86.2579
49.9610,86.2358
50.0000,86.2280
50.7600,86.2280
50.7990,86.2358
50.8321,86.2579
50.8542,86.2910
50.8620,86.3300
Z" /> 
<path style="fill:#D864FF; fill-opacity:0.4000; 
stroke:#D864FF; stroke-width:0.0000; stroke-opacity:1; 
stroke-linecap:round; stroke-linejoin:round;fill-rule:evenodd;"
d="M 49.6520,87.5300
49.6442,87.5690
49.6221,87.6021
49.5890,87.6242
49.5500,87.6320
48.7500,87.6320
48.7110,87.6242
48.6779,87.6021
48.6558,87.5690
48.6480,87.5300
48.6480,86.3300
48.6558,86.2910
48.6779,86.2579
48.7110,86.2358
48.7500,86.2280
49.5500,86.2280
49.5890,86.2358
49.6221,86.2579
49.6442,86.2910
49.6520,86.3300
Z" /> 
<path style="fill:#D864FF; fill-opacity:0.4000; 
stroke:#D864FF; stroke-width:0.0000; stroke-opacity:1; 
stroke-linecap:round; stroke-linejoin:round;fill-rule:evenodd;"
d="M 51.8520,87.5300
51.8442,87.5690
51.8221,87.6021
51.7890,87.6242
51.7500,87.6320
51.0500,87.6320
51.0110,87.6242
50.9779,87.6021
50.9558,87.5690
50.9480,87.5300
50.9480,86.3300
50.9558,86.2910
50.9779,86.2579
51.0110,86.2358
51.0500,86.2280
51.7500,86.2280
51.7890,86.2358
51.8221,86.2579
51.8442,86.2910
51.8520,86.3300
Z" /> 
<path style="fill:#D864FF; fill-opacity:0.4000; 
stroke:#D864FF; stroke-width:0.0000; stroke-opacity:1; 
stroke-linecap:round; stroke-linejoin:round;fill-rule:evenodd;"
d="M 53.9020,87.5300
53.8942,87.5690
53.8721,87.6021
53.8390,87.6242
53.8000,87.6320
53.0400,87.6320
53.0010,87.6242
52.9679,87.6021
52.9458,87.5690
52.9380,87.5300
52.9380,86.3300
52.9458,86.2910
52.9679,86.2579
53.0010,86.2358
53.0400,86.2280
53.8000,86.2280
53.8390,86.2358
53.8721,86.2579
53.8942,86.2910
53.9020,86.3300
Z" /> 
<path style="fill:#D864FF; fill-opacity:0.4000; 
stroke:#D864FF; stroke-width:0.0000; stroke-opacity:1; 
stroke-linecap:round; stroke-linejoin:round;fill-rule:evenodd;"
d="M 55.1520,87.5300
55.1442,87.5690
55.1221,87.6021
55.0890,87.6242
55.0500,87.6320
54.2500,87.6320
54.2110,87.6242
54.1779,87.6021
54.1558,87.5690
54.1480,87.5300
54.1480,86.3300
54.1558,86.2910
54.1779,86.2579
54.2110,86.2358
54.2500,86.2280
55.0500,86.2280
55.0890,86.2358
55.1221,86.2579
55.1442,86.2910
55.1520,86.3300
Z" /> 
</g>
<g >
</g>
<g style="fill:#D864FF; fill-opacity:0.4000; 
stroke:#D864FF; stroke-width:0.0000; stroke-opacity:1; 
stroke-linecap:round; stroke-linejoin:round;">
<path style="fill:#D864FF; fill-opacity:0.4000; 
stroke:#D864FF; stroke-width:0.0000; stroke-opacity:1; 
stroke-linecap:round; stroke-linejoin:round;fill-rule:evenodd;"
d="M 65.9000,108.2650
65.9000,107.2650
67.1500,107.2650
67.1500,108.2650
Z" /> 
<path style="fill:#D864FF; fill-opacity:0.4000; 
stroke:#D864FF; stroke-width:0.0000; stroke-opacity:1; 
stroke-linecap:round; stroke-linejoin:round;fill-rule:evenodd;"
d="M 73.6500,108.2650
73.6500,107.2650
74.9000,107.2650
74.9000,108.2650
Z" /> 
</g>
<g >
</g>
<g style="fill:#D864FF; fill-opacity:0.4000; 
stroke:#D864FF; stroke-width:0.0000; stroke-opacity:1; 
stroke-linecap:round; stroke-linejoin:round;">
<path style="fill:#D864FF; fill-opacity:0.4000; 
stroke:#D864FF; stroke-width:0.0000; stroke-opacity:1; 
stroke-linecap:round; stroke-linejoin:round;fill-rule:evenodd;"
d="M 61.5750,87.0500
61.5940,86.9543
61.6482,86.8732
61.7293,86.8190
61.8250,86.8000
62.3500,86.8000
62.4457,86.8190
62.5268,86.8732
62.5810,86.9543
62.6000,87.0500
62.6000,87.9500
62.5810,88.0457
62.5268,88.1268
62.4457,88.1810
62.3500,88.2000
61.8250,88.2000
61.7293,88.1810
61.6482,88.1268
61.5940,88.0457
61.5750,87.9500
Z" /> 
<path style="fill:#D864FF; fill-opacity:0.4000; 
stroke:#D864FF; stroke-width:0.0000; stroke-opacity:1; 
stroke-linecap:round; stroke-linejoin:round;fill-rule:evenodd;"
d="M 63.4000,87.0500
63.4190,86.9543
63.4732,86.8732
63.5543,86.8190
63.6500,86.8000
64.1750,86.8000
64.2707,86.8190
64.3518,86.8732
64.4060,86.9543
64.4250,87.0500
64.4250,87.9500
64.4060,88.0457
64.3518,88.1268
64.2707,88.1810
64.1750,88.2000
63.6500,88.2000
63.5543,88.1810
63.4732,88.1268
63.4190,88.0457
63.4000,87.9500
Z" /> 
</g>
<g >
</g>
<g style="fill:#D864FF; fill-opacity:0.4000; 
stroke:#D864FF; stroke-width:0.0000; stroke-opacity:1; 
stroke-linecap:round; stroke-linejoin:round;">
<circle cx="97.1000" cy="139.8034" r="0.4445" /> 
</g>
<g style="fill:#D864FF; fill-opacity:0.4000; 
stroke:#D864FF; stroke-width:0.0212; stroke-opacity:1; 
stroke-linecap:round; stroke-linejoin:round;">
</g>
<g style="fill:#D864FF; fill-opacity:0.4000; 
stroke:#D864FF; stroke-width:0.0000; stroke-opacity:1; 
stroke-linecap:round; stroke-linejoin:round;">
<circle cx="100.1000" cy="139.8034" r="0.4445" /> 
</g>
<g style="fill:#D864FF; fill-opacity:0.4000; 
stroke:#D864FF; stroke-width:0.0212; stroke-opacity:1; 
stroke-linecap:round; stroke-linejoin:round;">
</g>
<g style="fill:#D864FF; fill-opacity:0.4000; 
stroke:#D864FF; stroke-width:0.0000; stroke-opacity:1; 
stroke-linecap:round; stroke-linejoin:round;">
<path style="fill:#D864FF; fill-opacity:0.4000; 
stroke:#D864FF; stroke-width:0.0000; stroke-opacity:1; 
stroke-linecap:round; stroke-linejoin:round;fill-rule:evenodd;"
d="M 95.9055,138.3507
95.9055,137.1061
96.7945,137.1061
96.7945,138.3507
Z" /> 
<path style="fill:#D864FF; fill-opacity:0.4000; 
stroke:#D864FF; stroke-width:0.0000; stroke-opacity:1; 
stroke-linecap:round; stroke-linejoin:round;fill-rule:evenodd;"
d="M 98.9055,138.3507
98.9055,137.1061
99.7945,137.1061
99.7945,138.3507
Z" /> 
<path style="fill:#D864FF; fill-opacity:0.4000; 
stroke:#D864FF; stroke-width:0.0000; stroke-opacity:1; 
stroke-linecap:round; stroke-linejoin:round;fill-rule:evenodd;"
d="M 100.4055,138.3507
100.4055,137.1061
101.2945,137.1061
101.2945,138.3507
Z" /> 
<path style="fill:#D864FF; fill-opacity:0.4000; 
stroke:#D864FF; stroke-width:0.0000; stroke-opacity:1; 
stroke-linecap:round; stroke-linejoin:round;fill-rule:evenodd;"
d="M 94.3936,139.1979
94.3936,138.3089
95.2064,138.3089
95.2064,139.1979
Z" /> 
<path style="fill:#D864FF; fill-opacity:0.4000; 
stroke:#D864FF; stroke-width:0.0000; stroke-opacity:1; 
stroke-linecap:round; stroke-linejoin:round;fill-rule:evenodd;"
d="M 101.9936,139.1979
101.9936,138.3089
102.8064,138.3089
102.8064,139.1979
Z" /> 
<path style="fill:#D864FF; fill-opacity:0.4000; 
stroke:#D864FF; stroke-width:0.0000; stroke-opacity:1; 
stroke-linecap:round; stroke-linejoin:round;fill-rule:evenodd;"
d="M 94.3936,141.2979
94.3936,140.4089
95.2064,140.4089
95.2064,141.2979
Z" /> 
<path style="fill:#D864FF; fill-opacity:0.4000; 
stroke:#D864FF; stroke-width:0.0000; stroke-opacity:1; 
stroke-linecap:round; stroke-linejoin:round;fill-rule:evenodd;"
d="M 101.9936,141.2979
101.9936,140.4089
102.8064,140.4089
102.8064,141.2979
Z" /> 
</g>
<g >
</g>
<g >
</g>
<g style="fill:#D864FF; fill-opacity:0.4000; 
stroke:#D864FF; stroke-width:0.0000; stroke-opacity:1; 
stroke-linecap:round; stroke-linejoin:round;">
<path style="fill:#D864FF; fill-opacity:0.4000; 
stroke:#D864FF; stroke-width:0.0000; stroke-opacity:1; 
stroke-linecap:round; stroke-linejoin:round;fill-rule:evenodd;"
d="M 91.3250,126.9650
91.3060,127.0607
91.2518,127.1418
91.1707,127.1960
91.0750,127.2150
90.5500,127.2150
90.4543,127.1960
90.3732,127.1418
90.3190,127.0607
90.3000,126.9650
90.3000,126.0650
90.3190,125.9693
90.3732,125.8882
90.4543,125.8340
90.5500,125.8150
91.0750,125.8150
91.1707,125.8340
91.2518,125.8882
91.3060,125.9693
91.3250,126.0650
Z" /> 
<path style="fill:#D864FF; fill-opacity:0.4000; 
stroke:#D864FF; stroke-width:0.0000; stroke-opacity:1; 
stroke-linecap:round; stroke-linejoin:round;fill-rule:evenodd;"
d="M 89.5000,126.9650
89.4810,127.0607
89.4268,127.1418
89.3457,127.1960
89.2500,127.2150
88.7250,127.2150
88.6293,127.1960
88.5482,127.1418
88.4940,127.0607
88.4750,126.9650
88.4750,126.0650
88.4940,125.9693
88.5482,125.8882
88.6293,125.8340
88.7250,125.8150
89.2500,125.8150
89.3457,125.8340
89.4268,125.8882
89.4810,125.9693
89.5000,126.0650
Z" /> 
</g>
<g >
</g>
<g style="fill:#D864FF; fill-opacity:0.4000; 
stroke:#D864FF; stroke-width:0.0000; stroke-opacity:1; 
stroke-linecap:round; stroke-linejoin:round;">
<path style="fill:#D864FF; fill-opacity:0.4000; 
stroke:#D864FF; stroke-width:0.0000; stroke-opacity:1; 
stroke-linecap:round; stroke-linejoin:round;fill-rule:evenodd;"
d="M 104.8750,123.0500
104.8940,122.9543
104.9482,122.8732
105.0293,122.8190
105.1250,122.8000
105.6500,122.8000
105.7457,122.8190
105.8268,122.8732
105.8810,122.9543
105.9000,123.0500
105.9000,123.9500
105.8810,124.0457
105.8268,124.1268
105.7457,124.1810
105.6500,124.2000
105.1250,124.2000
105.0293,124.1810
104.9482,124.1268
104.8940,124.0457
104.8750,123.9500
Z" /> 
<path style="fill:#D864FF; fill-opacity:0.4000; 
stroke:#D864FF; stroke-width:0.0000; stroke-opacity:1; 
stroke-linecap:round; stroke-linejoin:round;fill-rule:evenodd;"
d="M 106.7000,123.0500
106.7190,122.9543
106.7732,122.8732
106.8543,122.8190
106.9500,122.8000
107.4750,122.8000
107.5707,122.8190
107.6518,122.8732
107.7060,122.9543
107.7250,123.0500
107.7250,123.9500
107.7060,124.0457
107.6518,124.1268
107.5707,124.1810
107.4750,124.2000
106.9500,124.2000
106.8543,124.1810
106.7732,124.1268
106.7190,124.0457
106.7000,123.9500
Z" /> 
</g>
<g >
</g>
<g style="fill:#D864FF; fill-opacity:0.4000; 
stroke:#D864FF; stroke-width:0.0000; stroke-opacity:1; 
stroke-linecap:round; stroke-linejoin:round;">
<path style="fill:#D864FF; fill-opacity:0.4000; 
stroke:#D864FF; stroke-width:0.0000; stroke-opacity:1; 
stroke-linecap:round; stroke-linejoin:round;fill-rule:evenodd;"
d="M 49.4250,123.6500
49.4060,123.7457
49.3518,123.8268
49.2707,123.8810
49.1750,123.9000
48.6500,123.9000
48.5543,123.8810
48.4732,123.8268
48.4190,123.7457
48.4000,123.6500
48.4000,122.7500
48.4190,122.6543
48.4732,122.5732
48.5543,122.5190
48.6500,122.5000
49.1750,122.5000
49.2707,122.5190
49.3518,122.5732
49.4060,122.6543
49.4250,122.7500
Z" /> 
<path style="fill:#D864FF; fill-opacity:0.4000; 
stroke:#D864FF; stroke-width:0.0000; stroke-opacity:1; 
stroke-linecap:round; stroke-linejoin:round;fill-rule:evenodd;"
d="M 47.6000,123.6500
47.5810,123.7457
47.5268,123.8268
47.4457,123.8810
47.3500,123.9000
46.8250,123.9000
46.7293,123.8810
46.6482,123.8268
46.5940,123.7457
46.5750,123.6500
46.5750,122.7500
46.5940,122.6543
46.6482,122.5732
46.7293,122.5190
46.8250,122.5000
47.3500,122.5000
47.4457,122.5190
47.5268,122.5732
47.5810,122.6543
47.6000,122.7500
Z" /> 
</g>
<g >
</g>
<g style="fill:#D864FF; fill-opacity:0.4000; 
stroke:#D864FF; stroke-width:0.0000; stroke-opacity:1; 
stroke-linecap:round; stroke-linejoin:round;">
<path style="fill:#D864FF; fill-opacity:0.4000; 
stroke:#D864FF; stroke-width:0.0000; stroke-opacity:1; 
stroke-linecap:round; stroke-linejoin:round;fill-rule:evenodd;"
d="M 64.4750,83.0000
64.5707,83.0190
64.6518,83.0732
64.7060,83.1543
64.7250,83.2500
64.7250,83.7500
64.7060,83.8457
64.6518,83.9268
64.5707,83.9810
64.4750,84.0000
63.5250,84.0000
63.4293,83.9810
63.3482,83.9268
63.2940,83.8457
63.2750,83.7500
63.2750,83.2500
63.2940,83.1543
63.3482,83.0732
63.4293,83.0190
63.5250,83.0000
Z" /> 
<path style="fill:#D864FF; fill-opacity:0.4000; 
stroke:#D864FF; stroke-width:0.0000; stroke-opacity:1; 
stroke-linecap:round; stroke-linejoin:round;fill-rule:evenodd;"
d="M 64.4750,84.9000
64.5707,84.9190
64.6518,84.9732
64.7060,85.0543
64.7250,85.1500
64.7250,85.6500
64.7060,85.7457
64.6518,85.8268
64.5707,85.8810
64.4750,85.9000
63.5250,85.9000
63.4293,85.8810
63.3482,85.8268
63.2940,85.7457
63.2750,85.6500
63.2750,85.1500
63.2940,85.0543
63.3482,84.9732
63.4293,84.9190
63.5250,84.9000
Z" /> 
</g>
<g >
</g>
<g style="fill:#D864FF; fill-opacity:0.4000; 
stroke:#D864FF; stroke-width:0.0000; stroke-opacity:1; 
stroke-linecap:round; stroke-linejoin:round;">
<path style="fill:#D864FF; fill-opacity:0.4000; 
stroke:#D864FF; stroke-width:0.0000; stroke-opacity:1; 
stroke-linecap:round; stroke-linejoin:round;fill-rule:evenodd;"
d="M 66.5480,83.0550
66.5558,83.0160
66.5779,82.9829
66.6110,82.9608
66.6500,82.9530
68.1500,82.9530
68.1890,82.9608
68.2221,82.9829
68.2442,83.0160
68.2520,83.0550
68.2520,83.9550
68.2442,83.9940
68.2221,84.0271
68.1890,84.0492
68.1500,84.0570
66.6500,84.0570
66.6110,84.0492
66.5779,84.0271
66.5558,83.9940
66.5480,83.9550
Z" /> 
<path style="fill:#D864FF; fill-opacity:0.4000; 
stroke:#D864FF; stroke-width:0.0000; stroke-opacity:1; 
stroke-linecap:round; stroke-linejoin:round;fill-rule:evenodd;"
d="M 66.5480,84.3250
66.5558,84.2860
66.5779,84.2529
66.6110,84.2308
66.6500,84.2230
68.1500,84.2230
68.1890,84.2308
68.2221,84.2529
68.2442,84.2860
68.2520,84.3250
68.2520,85.2250
68.2442,85.2640
68.2221,85.2971
68.1890,85.3192
68.1500,85.3270
66.6500,85.3270
66.6110,85.3192
66.5779,85.2971
66.5558,85.2640
66.5480,85.2250
Z" /> 
<path style="fill:#D864FF; fill-opacity:0.4000; 
stroke:#D864FF; stroke-width:0.0000; stroke-opacity:1; 
stroke-linecap:round; stroke-linejoin:round;fill-rule:evenodd;"
d="M 66.5480,85.5950
66.5558,85.5560
66.5779,85.5229
66.6110,85.5008
66.6500,85.4930
68.1500,85.4930
68.1890,85.5008
68.2221,85.5229
68.2442,85.5560
68.2520,85.5950
68.2520,86.4950
68.2442,86.5340
68.2221,86.5671
68.1890,86.5892
68.1500,86.5970
66.6500,86.5970
66.6110,86.5892
66.5779,86.5671
66.5558,86.5340
66.5480,86.4950
Z" /> 
<path style="fill:#D864FF; fill-opacity:0.4000; 
stroke:#D864FF; stroke-width:0.0000; stroke-opacity:1; 
stroke-linecap:round; stroke-linejoin:round;fill-rule:evenodd;"
d="M 66.5480,86.8650
66.5558,86.8260
66.5779,86.7929
66.6110,86.7708
66.6500,86.7630
68.1500,86.7630
68.1890,86.7708
68.2221,86.7929
68.2442,86.8260
68.2520,86.8650
68.2520,87.7650
68.2442,87.8040
68.2221,87.8371
68.1890,87.8592
68.1500,87.8670
66.6500,87.8670
66.6110,87.8592
66.5779,87.8371
66.5558,87.8040
66.5480,87.7650
Z" /> 
<path style="fill:#D864FF; fill-opacity:0.4000; 
stroke:#D864FF; stroke-width:0.0000; stroke-opacity:1; 
stroke-linecap:round; stroke-linejoin:round;fill-rule:evenodd;"
d="M 66.5480,88.1350
66.5558,88.0960
66.5779,88.0629
66.6110,88.0408
66.6500,88.0330
68.1500,88.0330
68.1890,88.0408
68.2221,88.0629
68.2442,88.0960
68.2520,88.1350
68.2520,89.0350
68.2442,89.0740
68.2221,89.1071
68.1890,89.1292
68.1500,89.1370
66.6500,89.1370
66.6110,89.1292
66.5779,89.1071
66.5558,89.0740
66.5480,89.0350
Z" /> 
<path style="fill:#D864FF; fill-opacity:0.4000; 
stroke:#D864FF; stroke-width:0.0000; stroke-opacity:1; 
stroke-linecap:round; stroke-linejoin:round;fill-rule:evenodd;"
d="M 66.5480,89.4050
66.5558,89.3660
66.5779,89.3329
66.6110,89.3108
66.6500,89.3030
68.1500,89.3030
68.1890,89.3108
68.2221,89.3329
68.2442,89.3660
68.2520,89.4050
68.2520,90.3050
68.2442,90.3440
68.2221,90.3771
68.1890,90.3992
68.1500,90.4070
66.6500,90.4070
66.6110,90.3992
66.5779,90.3771
66.5558,90.3440
66.5480,90.3050
Z" /> 
<path style="fill:#D864FF; fill-opacity:0.4000; 
stroke:#D864FF; stroke-width:0.0000; stroke-opacity:1; 
stroke-linecap:round; stroke-linejoin:round;fill-rule:evenodd;"
d="M 66.5480,90.6750
66.5558,90.6360
66.5779,90.6029
66.6110,90.5808
66.6500,90.5730
68.1500,90.5730
68.1890,90.5808
68.2221,90.6029
68.2442,90.6360
68.2520,90.6750
68.2520,91.5750
68.2442,91.6140
68.2221,91.6471
68.1890,91.6692
68.1500,91.6770
66.6500,91.6770
66.6110,91.6692
66.5779,91.6471
66.5558,91.6140
66.5480,91.5750
Z" /> 
<path style="fill:#D864FF; fill-opacity:0.4000; 
stroke:#D864FF; stroke-width:0.0000; stroke-opacity:1; 
stroke-linecap:round; stroke-linejoin:round;fill-rule:evenodd;"
d="M 66.5480,91.9450
66.5558,91.9060
66.5779,91.8729
66.6110,91.8508
66.6500,91.8430
68.1500,91.8430
68.1890,91.8508
68.2221,91.8729
68.2442,91.9060
68.2520,91.9450
68.2520,92.8450
68.2442,92.8840
68.2221,92.9171
68.1890,92.9392
68.1500,92.9470
66.6500,92.9470
66.6110,92.9392
66.5779,92.9171
66.5558,92.8840
66.5480,92.8450
Z" /> 
<path style="fill:#D864FF; fill-opacity:0.4000; 
stroke:#D864FF; stroke-width:0.0000; stroke-opacity:1; 
stroke-linecap:round; stroke-linejoin:round;fill-rule:evenodd;"
d="M 66.5480,93.2150
66.5558,93.1760
66.5779,93.1429
66.6110,93.1208
66.6500,93.1130
68.1500,93.1130
68.1890,93.1208
68.2221,93.1429
68.2442,93.1760
68.2520,93.2150
68.2520,94.1150
68.2442,94.1540
68.2221,94.1871
68.1890,94.2092
68.1500,94.2170
66.6500,94.2170
66.6110,94.2092
66.5779,94.1871
66.5558,94.1540
66.5480,94.1150
Z" /> 
<path style="fill:#D864FF; fill-opacity:0.4000; 
stroke:#D864FF; stroke-width:0.0000; stroke-opacity:1; 
stroke-linecap:round; stroke-linejoin:round;fill-rule:evenodd;"
d="M 66.5480,94.4850
66.5558,94.4460
66.5779,94.4129
66.6110,94.3908
66.6500,94.3830
68.1500,94.3830
68.1890,94.3908
68.2221,94.4129
68.2442,94.4460
68.2520,94.4850
68.2520,95.3850
68.2442,95.4240
68.2221,95.4571
68.1890,95.4792
68.1500,95.4870
66.6500,95.4870
66.6110,95.4792
66.5779,95.4571
66.5558,95.4240
66.5480,95.3850
Z" /> 
<path style="fill:#D864FF; fill-opacity:0.4000; 
stroke:#D864FF; stroke-width:0.0000; stroke-opacity:1; 
stroke-linecap:round; stroke-linejoin:round;fill-rule:evenodd;"
d="M 66.5480,95.7550
66.5558,95.7160
66.5779,95.6829
66.6110,95.6608
66.6500,95.6530
68.1500,95.6530
68.1890,95.6608
68.2221,95.6829
68.2442,95.7160
68.2520,95.7550
68.2520,96.6550
68.2442,96.6940
68.2221,96.7271
68.1890,96.7492
68.1500,96.7570
66.6500,96.7570
66.6110,96.7492
66.5779,96.7271
66.5558,96.6940
66.5480,96.6550
Z" /> 
<path style="fill:#D864FF; fill-opacity:0.4000; 
stroke:#D864FF; stroke-width:0.0000; stroke-opacity:1; 
stroke-linecap:round; stroke-linejoin:round;fill-rule:evenodd;"
d="M 66.5480,97.0250
66.5558,96.9860
66.5779,96.9529
66.6110,96.9308
66.6500,96.9230
68.1500,96.9230
68.1890,96.9308
68.2221,96.9529
68.2442,96.9860
68.2520,97.0250
68.2520,97.9250
68.2442,97.9640
68.2221,97.9971
68.1890,98.0192
68.1500,98.0270
66.6500,98.0270
66.6110,98.0192
66.5779,97.9971
66.5558,97.9640
66.5480,97.9250
Z" /> 
<path style="fill:#D864FF; fill-opacity:0.4000; 
stroke:#D864FF; stroke-width:0.0000; stroke-opacity:1; 
stroke-linecap:round; stroke-linejoin:round;fill-rule:evenodd;"
d="M 66.5480,98.2950
66.5558,98.2560
66.5779,98.2229
66.6110,98.2008
66.6500,98.1930
68.1500,98.1930
68.1890,98.2008
68.2221,98.2229
68.2442,98.2560
68.2520,98.2950
68.2520,99.1950
68.2442,99.2340
68.2221,99.2671
68.1890,99.2892
68.1500,99.2970
66.6500,99.2970
66.6110,99.2892
66.5779,99.2671
66.5558,99.2340
66.5480,99.1950
Z" /> 
<path style="fill:#D864FF; fill-opacity:0.4000; 
stroke:#D864FF; stroke-width:0.0000; stroke-opacity:1; 
stroke-linecap:round; stroke-linejoin:round;fill-rule:evenodd;"
d="M 66.5480,99.5650
66.5558,99.5260
66.5779,99.4929
66.6110,99.4708
66.6500,99.4630
68.1500,99.4630
68.1890,99.4708
68.2221,99.4929
68.2442,99.5260
68.2520,99.5650
68.2520,100.4650
68.2442,100.5040
68.2221,100.5371
68.1890,100.5592
68.1500,100.5670
66.6500,100.5670
66.6110,100.5592
66.5779,100.5371
66.5558,100.5040
66.5480,100.4650
Z" /> 
<path style="fill:#D864FF; fill-opacity:0.4000; 
stroke:#D864FF; stroke-width:0.0000; stroke-opacity:1; 
stroke-linecap:round; stroke-linejoin:round;fill-rule:evenodd;"
d="M 68.6130,100.5150
68.6208,100.4760
68.6429,100.4429
68.6760,100.4208
68.7150,100.4130
69.6150,100.4130
69.6540,100.4208
69.6871,100.4429
69.7092,100.4760
69.7170,100.5150
69.7170,102.0150
69.7092,102.0540
69.6871,102.0871
69.6540,102.1092
69.6150,102.1170
68.7150,102.1170
68.6760,102.1092
68.6429,102.0871
68.6208,102.0540
68.6130,102.0150
Z" /> 
<path style="fill:#D864FF; fill-opacity:0.4000; 
stroke:#D864FF; stroke-width:0.0000; stroke-opacity:1; 
stroke-linecap:round; stroke-linejoin:round;fill-rule:evenodd;"
d="M 69.8830,100.5150
69.8908,100.4760
69.9129,100.4429
69.9460,100.4208
69.9850,100.4130
70.8850,100.4130
70.9240,100.4208
70.9571,100.4429
70.9792,100.4760
70.9870,100.5150
70.9870,102.0150
70.9792,102.0540
70.9571,102.0871
70.9240,102.1092
70.8850,102.1170
69.9850,102.1170
69.9460,102.1092
69.9129,102.0871
69.8908,102.0540
69.8830,102.0150
Z" /> 
<path style="fill:#D864FF; fill-opacity:0.4000; 
stroke:#D864FF; stroke-width:0.0000; stroke-opacity:1; 
stroke-linecap:round; stroke-linejoin:round;fill-rule:evenodd;"
d="M 71.1530,100.5150
71.1608,100.4760
71.1829,100.4429
71.2160,100.4208
71.2550,100.4130
72.1550,100.4130
72.1940,100.4208
72.2271,100.4429
72.2492,100.4760
72.2570,100.5150
72.2570,102.0150
72.2492,102.0540
72.2271,102.0871
72.1940,102.1092
72.1550,102.1170
71.2550,102.1170
71.2160,102.1092
71.1829,102.0871
71.1608,102.0540
71.1530,102.0150
Z" /> 
<path style="fill:#D864FF; fill-opacity:0.4000; 
stroke:#D864FF; stroke-width:0.0000; stroke-opacity:1; 
stroke-linecap:round; stroke-linejoin:round;fill-rule:evenodd;"
d="M 72.4230,100.5150
72.4308,100.4760
72.4529,100.4429
72.4860,100.4208
72.5250,100.4130
73.4250,100.4130
73.4640,100.4208
73.4971,100.4429
73.5192,100.4760
73.5270,100.5150
73.5270,102.0150
73.5192,102.0540
73.4971,102.0871
73.4640,102.1092
73.4250,102.1170
72.5250,102.1170
72.4860,102.1092
72.4529,102.0871
72.4308,102.0540
72.4230,102.0150
Z" /> 
<path style="fill:#D864FF; fill-opacity:0.4000; 
stroke:#D864FF; stroke-width:0.0000; stroke-opacity:1; 
stroke-linecap:round; stroke-linejoin:round;fill-rule:evenodd;"
d="M 73.6930,100.5150
73.7008,100.4760
73.7229,100.4429
73.7560,100.4208
73.7950,100.4130
74.6950,100.4130
74.7340,100.4208
74.7671,100.4429
74.7892,100.4760
74.7970,100.5150
74.7970,102.0150
74.7892,102.0540
74.7671,102.0871
74.7340,102.1092
74.6950,102.1170
73.7950,102.1170
73.7560,102.1092
73.7229,102.0871
73.7008,102.0540
73.6930,102.0150
Z" /> 
<path style="fill:#D864FF; fill-opacity:0.4000; 
stroke:#D864FF; stroke-width:0.0000; stroke-opacity:1; 
stroke-linecap:round; stroke-linejoin:round;fill-rule:evenodd;"
d="M 74.9630,100.5150
74.9708,100.4760
74.9929,100.4429
75.0260,100.4208
75.0650,100.4130
75.9650,100.4130
76.0040,100.4208
76.0371,100.4429
76.0592,100.4760
76.0670,100.5150
76.0670,102.0150
76.0592,102.0540
76.0371,102.0871
76.0040,102.1092
75.9650,102.1170
75.0650,102.1170
75.0260,102.1092
74.9929,102.0871
74.9708,102.0540
74.9630,102.0150
Z" /> 
<path style="fill:#D864FF; fill-opacity:0.4000; 
stroke:#D864FF; stroke-width:0.0000; stroke-opacity:1; 
stroke-linecap:round; stroke-linejoin:round;fill-rule:evenodd;"
d="M 76.2330,100.5150
76.2408,100.4760
76.2629,100.4429
76.2960,100.4208
76.3350,100.4130
77.2350,100.4130
77.2740,100.4208
77.3071,100.4429
77.3292,100.4760
77.3370,100.5150
77.3370,102.0150
77.3292,102.0540
77.3071,102.0871
77.2740,102.1092
77.2350,102.1170
76.3350,102.1170
76.2960,102.1092
76.2629,102.0871
76.2408,102.0540
76.2330,102.0150
Z" /> 
<path style="fill:#D864FF; fill-opacity:0.4000; 
stroke:#D864FF; stroke-width:0.0000; stroke-opacity:1; 
stroke-linecap:round; stroke-linejoin:round;fill-rule:evenodd;"
d="M 77.5030,100.5150
77.5108,100.4760
77.5329,100.4429
77.5660,100.4208
77.6050,100.4130
78.5050,100.4130
78.5440,100.4208
78.5771,100.4429
78.5992,100.4760
78.6070,100.5150
78.6070,102.0150
78.5992,102.0540
78.5771,102.0871
78.5440,102.1092
78.5050,102.1170
77.6050,102.1170
77.5660,102.1092
77.5329,102.0871
77.5108,102.0540
77.5030,102.0150
Z" /> 
<path style="fill:#D864FF; fill-opacity:0.4000; 
stroke:#D864FF; stroke-width:0.0000; stroke-opacity:1; 
stroke-linecap:round; stroke-linejoin:round;fill-rule:evenodd;"
d="M 78.7730,100.5150
78.7808,100.4760
78.8029,100.4429
78.8360,100.4208
78.8750,100.4130
79.7750,100.4130
79.8140,100.4208
79.8471,100.4429
79.8692,100.4760
79.8770,100.5150
79.8770,102.0150
79.8692,102.0540
79.8471,102.0871
79.8140,102.1092
79.7750,102.1170
78.8750,102.1170
78.8360,102.1092
78.8029,102.0871
78.7808,102.0540
78.7730,102.0150
Z" /> 
<path style="fill:#D864FF; fill-opacity:0.4000; 
stroke:#D864FF; stroke-width:0.0000; stroke-opacity:1; 
stroke-linecap:round; stroke-linejoin:round;fill-rule:evenodd;"
d="M 80.0430,100.5150
80.0508,100.4760
80.0729,100.4429
80.1060,100.4208
80.1450,100.4130
81.0450,100.4130
81.0840,100.4208
81.1171,100.4429
81.1392,100.4760
81.1470,100.5150
81.1470,102.0150
81.1392,102.0540
81.1171,102.0871
81.0840,102.1092
81.0450,102.1170
80.1450,102.1170
80.1060,102.1092
80.0729,102.0871
80.0508,102.0540
80.0430,102.0150
Z" /> 
<path style="fill:#D864FF; fill-opacity:0.4000; 
stroke:#D864FF; stroke-width:0.0000; stroke-opacity:1; 
stroke-linecap:round; stroke-linejoin:round;fill-rule:evenodd;"
d="M 81.3130,100.5150
81.3208,100.4760
81.3429,100.4429
81.3760,100.4208
81.4150,100.4130
82.3150,100.4130
82.3540,100.4208
82.3871,100.4429
82.4092,100.4760
82.4170,100.5150
82.4170,102.0150
82.4092,102.0540
82.3871,102.0871
82.3540,102.1092
82.3150,102.1170
81.4150,102.1170
81.3760,102.1092
81.3429,102.0871
81.3208,102.0540
81.3130,102.0150
Z" /> 
<path style="fill:#D864FF; fill-opacity:0.4000; 
stroke:#D864FF; stroke-width:0.0000; stroke-opacity:1; 
stroke-linecap:round; stroke-linejoin:round;fill-rule:evenodd;"
d="M 82.5830,100.5150
82.5908,100.4760
82.6129,100.4429
82.6460,100.4208
82.6850,100.4130
83.5850,100.4130
83.6240,100.4208
83.6571,100.4429
83.6792,100.4760
83.6870,100.5150
83.6870,102.0150
83.6792,102.0540
83.6571,102.0871
83.6240,102.1092
83.5850,102.1170
82.6850,102.1170
82.6460,102.1092
82.6129,102.0871
82.5908,102.0540
82.5830,102.0150
Z" /> 
<path style="fill:#D864FF; fill-opacity:0.4000; 
stroke:#D864FF; stroke-width:0.0000; stroke-opacity:1; 
stroke-linecap:round; stroke-linejoin:round;fill-rule:evenodd;"
d="M 84.0480,99.5650
84.0558,99.5260
84.0779,99.4929
84.1110,99.4708
84.1500,99.4630
85.6500,99.4630
85.6890,99.4708
85.7221,99.4929
85.7442,99.5260
85.7520,99.5650
85.7520,100.4650
85.7442,100.5040
85.7221,100.5371
85.6890,100.5592
85.6500,100.5670
84.1500,100.5670
84.1110,100.5592
84.0779,100.5371
84.0558,100.5040
84.0480,100.4650
Z" /> 
<path style="fill:#D864FF; fill-opacity:0.4000; 
stroke:#D864FF; stroke-width:0.0000; stroke-opacity:1; 
stroke-linecap:round; stroke-linejoin:round;fill-rule:evenodd;"
d="M 84.0480,98.2950
84.0558,98.2560
84.0779,98.2229
84.1110,98.2008
84.1500,98.1930
85.6500,98.1930
85.6890,98.2008
85.7221,98.2229
85.7442,98.2560
85.7520,98.2950
85.7520,99.1950
85.7442,99.2340
85.7221,99.2671
85.6890,99.2892
85.6500,99.2970
84.1500,99.2970
84.1110,99.2892
84.0779,99.2671
84.0558,99.2340
84.0480,99.1950
Z" /> 
<path style="fill:#D864FF; fill-opacity:0.4000; 
stroke:#D864FF; stroke-width:0.0000; stroke-opacity:1; 
stroke-linecap:round; stroke-linejoin:round;fill-rule:evenodd;"
d="M 84.0480,97.0250
84.0558,96.9860
84.0779,96.9529
84.1110,96.9308
84.1500,96.9230
85.6500,96.9230
85.6890,96.9308
85.7221,96.9529
85.7442,96.9860
85.7520,97.0250
85.7520,97.9250
85.7442,97.9640
85.7221,97.9971
85.6890,98.0192
85.6500,98.0270
84.1500,98.0270
84.1110,98.0192
84.0779,97.9971
84.0558,97.9640
84.0480,97.9250
Z" /> 
<path style="fill:#D864FF; fill-opacity:0.4000; 
stroke:#D864FF; stroke-width:0.0000; stroke-opacity:1; 
stroke-linecap:round; stroke-linejoin:round;fill-rule:evenodd;"
d="M 84.0480,95.7550
84.0558,95.7160
84.0779,95.6829
84.1110,95.6608
84.1500,95.6530
85.6500,95.6530
85.6890,95.6608
85.7221,95.6829
85.7442,95.7160
85.7520,95.7550
85.7520,96.6550
85.7442,96.6940
85.7221,96.7271
85.6890,96.7492
85.6500,96.7570
84.1500,96.7570
84.1110,96.7492
84.0779,96.7271
84.0558,96.6940
84.0480,96.6550
Z" /> 
<path style="fill:#D864FF; fill-opacity:0.4000; 
stroke:#D864FF; stroke-width:0.0000; stroke-opacity:1; 
stroke-linecap:round; stroke-linejoin:round;fill-rule:evenodd;"
d="M 84.0480,94.4850
84.0558,94.4460
84.0779,94.4129
84.1110,94.3908
84.1500,94.3830
85.6500,94.3830
85.6890,94.3908
85.7221,94.4129
85.7442,94.4460
85.7520,94.4850
85.7520,95.3850
85.7442,95.4240
85.7221,95.4571
85.6890,95.4792
85.6500,95.4870
84.1500,95.4870
84.1110,95.4792
84.0779,95.4571
84.0558,95.4240
84.0480,95.3850
Z" /> 
<path style="fill:#D864FF; fill-opacity:0.4000; 
stroke:#D864FF; stroke-width:0.0000; stroke-opacity:1; 
stroke-linecap:round; stroke-linejoin:round;fill-rule:evenodd;"
d="M 84.0480,93.2150
84.0558,93.1760
84.0779,93.1429
84.1110,93.1208
84.1500,93.1130
85.6500,93.1130
85.6890,93.1208
85.7221,93.1429
85.7442,93.1760
85.7520,93.2150
85.7520,94.1150
85.7442,94.1540
85.7221,94.1871
85.6890,94.2092
85.6500,94.2170
84.1500,94.2170
84.1110,94.2092
84.0779,94.1871
84.0558,94.1540
84.0480,94.1150
Z" /> 
<path style="fill:#D864FF; fill-opacity:0.4000; 
stroke:#D864FF; stroke-width:0.0000; stroke-opacity:1; 
stroke-linecap:round; stroke-linejoin:round;fill-rule:evenodd;"
d="M 84.0480,91.9450
84.0558,91.9060
84.0779,91.8729
84.1110,91.8508
84.1500,91.8430
85.6500,91.8430
85.6890,91.8508
85.7221,91.8729
85.7442,91.9060
85.7520,91.9450
85.7520,92.8450
85.7442,92.8840
85.7221,92.9171
85.6890,92.9392
85.6500,92.9470
84.1500,92.9470
84.1110,92.9392
84.0779,92.9171
84.0558,92.8840
84.0480,92.8450
Z" /> 
<path style="fill:#D864FF; fill-opacity:0.4000; 
stroke:#D864FF; stroke-width:0.0000; stroke-opacity:1; 
stroke-linecap:round; stroke-linejoin:round;fill-rule:evenodd;"
d="M 84.0480,90.6750
84.0558,90.6360
84.0779,90.6029
84.1110,90.5808
84.1500,90.5730
85.6500,90.5730
85.6890,90.5808
85.7221,90.6029
85.7442,90.6360
85.7520,90.6750
85.7520,91.5750
85.7442,91.6140
85.7221,91.6471
85.6890,91.6692
85.6500,91.6770
84.1500,91.6770
84.1110,91.6692
84.0779,91.6471
84.0558,91.6140
84.0480,91.5750
Z" /> 
<path style="fill:#D864FF; fill-opacity:0.4000; 
stroke:#D864FF; stroke-width:0.0000; stroke-opacity:1; 
stroke-linecap:round; stroke-linejoin:round;fill-rule:evenodd;"
d="M 84.0480,89.4050
84.0558,89.3660
84.0779,89.3329
84.1110,89.3108
84.1500,89.3030
85.6500,89.3030
85.6890,89.3108
85.7221,89.3329
85.7442,89.3660
85.7520,89.4050
85.7520,90.3050
85.7442,90.3440
85.7221,90.3771
85.6890,90.3992
85.6500,90.4070
84.1500,90.4070
84.1110,90.3992
84.0779,90.3771
84.0558,90.3440
84.0480,90.3050
Z" /> 
<path style="fill:#D864FF; fill-opacity:0.4000; 
stroke:#D864FF; stroke-width:0.0000; stroke-opacity:1; 
stroke-linecap:round; stroke-linejoin:round;fill-rule:evenodd;"
d="M 84.0480,88.1350
84.0558,88.0960
84.0779,88.0629
84.1110,88.0408
84.1500,88.0330
85.6500,88.0330
85.6890,88.0408
85.7221,88.0629
85.7442,88.0960
85.7520,88.1350
85.7520,89.0350
85.7442,89.0740
85.7221,89.1071
85.6890,89.1292
85.6500,89.1370
84.1500,89.1370
84.1110,89.1292
84.0779,89.1071
84.0558,89.0740
84.0480,89.0350
Z" /> 
<path style="fill:#D864FF; fill-opacity:0.4000; 
stroke:#D864FF; stroke-width:0.0000; stroke-opacity:1; 
stroke-linecap:round; stroke-linejoin:round;fill-rule:evenodd;"
d="M 84.0480,86.8650
84.0558,86.8260
84.0779,86.7929
84.1110,86.7708
84.1500,86.7630
85.6500,86.7630
85.6890,86.7708
85.7221,86.7929
85.7442,86.8260
85.7520,86.8650
85.7520,87.7650
85.7442,87.8040
85.7221,87.8371
85.6890,87.8592
85.6500,87.8670
84.1500,87.8670
84.1110,87.8592
84.0779,87.8371
84.0558,87.8040
84.0480,87.7650
Z" /> 
<path style="fill:#D864FF; fill-opacity:0.4000; 
stroke:#D864FF; stroke-width:0.0000; stroke-opacity:1; 
stroke-linecap:round; stroke-linejoin:round;fill-rule:evenodd;"
d="M 84.0480,85.5950
84.0558,85.5560
84.0779,85.5229
84.1110,85.5008
84.1500,85.4930
85.6500,85.4930
85.6890,85.5008
85.7221,85.5229
85.7442,85.5560
85.7520,85.5950
85.7520,86.4950
85.7442,86.5340
85.7221,86.5671
85.6890,86.5892
85.6500,86.5970
84.1500,86.5970
84.1110,86.5892
84.0779,86.5671
84.0558,86.5340
84.0480,86.4950
Z" /> 
<path style="fill:#D864FF; fill-opacity:0.4000; 
stroke:#D864FF; stroke-width:0.0000; stroke-opacity:1; 
stroke-linecap:round; stroke-linejoin:round;fill-rule:evenodd;"
d="M 84.0480,84.3250
84.0558,84.2860
84.0779,84.2529
84.1110,84.2308
84.1500,84.2230
85.6500,84.2230
85.6890,84.2308
85.7221,84.2529
85.7442,84.2860
85.7520,84.3250
85.7520,85.2250
85.7442,85.2640
85.7221,85.2971
85.6890,85.3192
85.6500,85.3270
84.1500,85.3270
84.1110,85.3192
84.0779,85.2971
84.0558,85.2640
84.0480,85.2250
Z" /> 
<path style="fill:#D864FF; fill-opacity:0.4000; 
stroke:#D864FF; stroke-width:0.0000; stroke-opacity:1; 
stroke-linecap:round; stroke-linejoin:round;fill-rule:evenodd;"
d="M 84.0480,83.0550
84.0558,83.0160
84.0779,82.9829
84.1110,82.9608
84.1500,82.9530
85.6500,82.9530
85.6890,82.9608
85.7221,82.9829
85.7442,83.0160
85.7520,83.0550
85.7520,83.9550
85.7442,83.9940
85.7221,84.0271
85.6890,84.0492
85.6500,84.0570
84.1500,84.0570
84.1110,84.0492
84.0779,84.0271
84.0558,83.9940
84.0480,83.9550
Z" /> 
<path style="fill:#D864FF; fill-opacity:0.4000; 
stroke:#D864FF; stroke-width:0.0000; stroke-opacity:1; 
stroke-linecap:round; stroke-linejoin:round;fill-rule:evenodd;"
d="M 74.0980,90.7750
74.1058,90.7360
74.1279,90.7029
74.1610,90.6808
74.2000,90.6730
75.1000,90.6730
75.1390,90.6808
75.1721,90.7029
75.1942,90.7360
75.2020,90.7750
75.2020,91.6750
75.1942,91.7140
75.1721,91.7471
75.1390,91.7692
75.1000,91.7770
74.2000,91.7770
74.1610,91.7692
74.1279,91.7471
74.1058,91.7140
74.0980,91.6750
Z" /> 
<path style="fill:#D864FF; fill-opacity:0.4000; 
stroke:#D864FF; stroke-width:0.0000; stroke-opacity:1; 
stroke-linecap:round; stroke-linejoin:round;fill-rule:evenodd;"
d="M 72.6980,90.7750
72.7058,90.7360
72.7279,90.7029
72.7610,90.6808
72.8000,90.6730
73.7000,90.6730
73.7390,90.6808
73.7721,90.7029
73.7942,90.7360
73.8020,90.7750
73.8020,91.6750
73.7942,91.7140
73.7721,91.7471
73.7390,91.7692
73.7000,91.7770
72.8000,91.7770
72.7610,91.7692
72.7279,91.7471
72.7058,91.7140
72.6980,91.6750
Z" /> 
<path style="fill:#D864FF; fill-opacity:0.4000; 
stroke:#D864FF; stroke-width:0.0000; stroke-opacity:1; 
stroke-linecap:round; stroke-linejoin:round;fill-rule:evenodd;"
d="M 75.4980,90.7750
75.5058,90.7360
75.5279,90.7029
75.5610,90.6808
75.6000,90.6730
76.5000,90.6730
76.5390,90.6808
76.5721,90.7029
76.5942,90.7360
76.6020,90.7750
76.6020,91.6750
76.5942,91.7140
76.5721,91.7471
76.5390,91.7692
76.5000,91.7770
75.6000,91.7770
75.5610,91.7692
75.5279,91.7471
75.5058,91.7140
75.4980,91.6750
Z" /> 
<path style="fill:#D864FF; fill-opacity:0.4000; 
stroke:#D864FF; stroke-width:0.0000; stroke-opacity:1; 
stroke-linecap:round; stroke-linejoin:round;fill-rule:evenodd;"
d="M 72.6980,92.1750
72.7058,92.1360
72.7279,92.1029
72.7610,92.0808
72.8000,92.0730
73.7000,92.0730
73.7390,92.0808
73.7721,92.1029
73.7942,92.1360
73.8020,92.1750
73.8020,93.0750
73.7942,93.1140
73.7721,93.1471
73.7390,93.1692
73.7000,93.1770
72.8000,93.1770
72.7610,93.1692
72.7279,93.1471
72.7058,93.1140
72.6980,93.0750
Z" /> 
<path style="fill:#D864FF; fill-opacity:0.4000; 
stroke:#D864FF; stroke-width:0.0000; stroke-opacity:1; 
stroke-linecap:round; stroke-linejoin:round;fill-rule:evenodd;"
d="M 74.0980,92.1750
74.1058,92.1360
74.1279,92.1029
74.1610,92.0808
74.2000,92.0730
75.1000,92.0730
75.1390,92.0808
75.1721,92.1029
75.1942,92.1360
75.2020,92.1750
75.2020,93.0750
75.1942,93.1140
75.1721,93.1471
75.1390,93.1692
75.1000,93.1770
74.2000,93.1770
74.1610,93.1692
74.1279,93.1471
74.1058,93.1140
74.0980,93.0750
Z" /> 
<path style="fill:#D864FF; fill-opacity:0.4000; 
stroke:#D864FF; stroke-width:0.0000; stroke-opacity:1; 
stroke-linecap:round; stroke-linejoin:round;fill-rule:evenodd;"
d="M 75.4980,92.1750
75.5058,92.1360
75.5279,92.1029
75.5610,92.0808
75.6000,92.0730
76.5000,92.0730
76.5390,92.0808
76.5721,92.1029
76.5942,92.1360
76.6020,92.1750
76.6020,93.0750
76.5942,93.1140
76.5721,93.1471
76.5390,93.1692
76.5000,93.1770
75.6000,93.1770
75.5610,93.1692
75.5279,93.1471
75.5058,93.1140
75.4980,93.0750
Z" /> 
<path style="fill:#D864FF; fill-opacity:0.4000; 
stroke:#D864FF; stroke-width:0.0000; stroke-opacity:1; 
stroke-linecap:round; stroke-linejoin:round;fill-rule:evenodd;"
d="M 72.6980,89.3750
72.7058,89.3360
72.7279,89.3029
72.7610,89.2808
72.8000,89.2730
73.7000,89.2730
73.7390,89.2808
73.7721,89.3029
73.7942,89.3360
73.8020,89.3750
73.8020,90.2750
73.7942,90.3140
73.7721,90.3471
73.7390,90.3692
73.7000,90.3770
72.8000,90.3770
72.7610,90.3692
72.7279,90.3471
72.7058,90.3140
72.6980,90.2750
Z" /> 
<path style="fill:#D864FF; fill-opacity:0.4000; 
stroke:#D864FF; stroke-width:0.0000; stroke-opacity:1; 
stroke-linecap:round; stroke-linejoin:round;fill-rule:evenodd;"
d="M 74.0980,89.3750
74.1058,89.3360
74.1279,89.3029
74.1610,89.2808
74.2000,89.2730
75.1000,89.2730
75.1390,89.2808
75.1721,89.3029
75.1942,89.3360
75.2020,89.3750
75.2020,90.2750
75.1942,90.3140
75.1721,90.3471
75.1390,90.3692
75.1000,90.3770
74.2000,90.3770
74.1610,90.3692
74.1279,90.3471
74.1058,90.3140
74.0980,90.2750
Z" /> 
<path style="fill:#D864FF; fill-opacity:0.4000; 
stroke:#D864FF; stroke-width:0.0000; stroke-opacity:1; 
stroke-linecap:round; stroke-linejoin:round;fill-rule:evenodd;"
d="M 75.4980,89.3750
75.5058,89.3360
75.5279,89.3029
75.5610,89.2808
75.6000,89.2730
76.5000,89.2730
76.5390,89.2808
76.5721,89.3029
76.5942,89.3360
76.6020,89.3750
76.6020,90.2750
76.5942,90.3140
76.5721,90.3471
76.5390,90.3692
76.5000,90.3770
75.6000,90.3770
75.5610,90.3692
75.5279,90.3471
75.5058,90.3140
75.4980,90.2750
Z" /> 
</g>
<g >
</g>
<g style="fill:#D864FF; fill-opacity:0.4000; 
stroke:#D864FF; stroke-width:0.0000; stroke-opacity:1; 
stroke-linecap:round; stroke-linejoin:round;">
<path style="fill:#D864FF; fill-opacity:0.4000; 
stroke:#D864FF; stroke-width:0.0000; stroke-opacity:1; 
stroke-linecap:round; stroke-linejoin:round;fill-rule:evenodd;"
d="M 91.2750,121.9500
91.2560,122.0457
91.2018,122.1268
91.1207,122.1810
91.0250,122.2000
90.5000,122.2000
90.4043,122.1810
90.3232,122.1268
90.2690,122.0457
90.2500,121.9500
90.2500,121.0500
90.2690,120.9543
90.3232,120.8732
90.4043,120.8190
90.5000,120.8000
91.0250,120.8000
91.1207,120.8190
91.2018,120.8732
91.2560,120.9543
91.2750,121.0500
Z" /> 
<path style="fill:#D864FF; fill-opacity:0.4000; 
stroke:#D864FF; stroke-width:0.0000; stroke-opacity:1; 
stroke-linecap:round; stroke-linejoin:round;fill-rule:evenodd;"
d="M 89.4500,121.9500
89.4310,122.0457
89.3768,122.1268
89.2957,122.1810
89.2000,122.2000
88.6750,122.2000
88.5793,122.1810
88.4982,122.1268
88.4440,122.0457
88.4250,121.9500
88.4250,121.0500
88.4440,120.9543
88.4982,120.8732
88.5793,120.8190
88.6750,120.8000
89.2000,120.8000
89.2957,120.8190
89.3768,120.8732
89.4310,120.9543
89.4500,121.0500
Z" /> 
</g>
<g >
</g>
<g style="fill:#D864FF; fill-opacity:0.4000; 
stroke:#D864FF; stroke-width:0.0000; stroke-opacity:1; 
stroke-linecap:round; stroke-linejoin:round;">
<circle cx="108.4750" cy="85.4525" r="1.0500" /> 
</g>
<g style="fill:#D864FF; fill-opacity:0.4000; 
stroke:#D864FF; stroke-width:0.0212; stroke-opacity:1; 
stroke-linecap:round; stroke-linejoin:round;">
</g>
<g style="fill:#D864FF; fill-opacity:0.4000; 
stroke:#D864FF; stroke-width:0.0000; stroke-opacity:1; 
stroke-linecap:round; stroke-linejoin:round;">
<circle cx="115.4850" cy="85.4525" r="1.0500" /> 
</g>
<g style="fill:#D864FF; fill-opacity:0.4000; 
stroke:#D864FF; stroke-width:0.0212; stroke-opacity:1; 
stroke-linecap:round; stroke-linejoin:round;">
</g>
<g style="fill:#D864FF; fill-opacity:0.4000; 
stroke:#D864FF; stroke-width:0.0000; stroke-opacity:1; 
stroke-linecap:round; stroke-linejoin:round;">
<circle cx="109.7250" cy="82.9625" r="0.8750" /> 
</g>
<g style="fill:#D864FF; fill-opacity:0.4000; 
stroke:#D864FF; stroke-width:0.0212; stroke-opacity:1; 
stroke-linecap:round; stroke-linejoin:round;">
</g>
<g style="fill:#D864FF; fill-opacity:0.4000; 
stroke:#D864FF; stroke-width:0.0000; stroke-opacity:1; 
stroke-linecap:round; stroke-linejoin:round;">
<circle cx="114.2250" cy="82.9625" r="0.8750" /> 
</g>
<g style="fill:#D864FF; fill-opacity:0.4000; 
stroke:#D864FF; stroke-width:0.0212; stroke-opacity:1; 
stroke-linecap:round; stroke-linejoin:round;">
</g>
<g >
</g>
<g style="fill:#D864FF; fill-opacity:0.4000; 
stroke:#D864FF; stroke-width:0.0212; stroke-opacity:1; 
stroke-linecap:round; stroke-linejoin:round;">
</g>
<g style="fill:#D864FF; fill-opacity:0.4000; 
stroke:#D864FF; stroke-width:0.0000; stroke-opacity:1; 
stroke-linecap:round; stroke-linejoin:round;">
<circle cx="114.5400" cy="87.6000" r="0.6350" /> 
</g>
<g style="fill:#D864FF; fill-opacity:0.4000; 
stroke:#D864FF; stroke-width:0.0212; stroke-opacity:1; 
stroke-linecap:round; stroke-linejoin:round;">
</g>
<g style="fill:#D864FF; fill-opacity:0.4000; 
stroke:#D864FF; stroke-width:0.0000; stroke-opacity:1; 
stroke-linecap:round; stroke-linejoin:round;">
<circle cx="112.0000" cy="87.6000" r="0.6350" /> 
</g>
<g style="fill:#D864FF; fill-opacity:0.4000; 
stroke:#D864FF; stroke-width:0.0212; stroke-opacity:1; 
stroke-linecap:round; stroke-linejoin:round;">
</g>
<g style="fill:#D864FF; fill-opacity:0.4000; 
stroke:#D864FF; stroke-width:0.0000; stroke-opacity:1; 
stroke-linecap:round; stroke-linejoin:round;">
<circle cx="109.4600" cy="87.6000" r="0.6350" /> 
</g>
<g style="fill:#D864FF; fill-opacity:0.4000; 
stroke:#D864FF; stroke-width:0.0212; stroke-opacity:1; 
stroke-linecap:round; stroke-linejoin:round;">
</g>
<g >
</g>
<g >
</g>
<g >
</g>
<g >
</g>
<g >
</g>
<g >
</g>
<g >
</g>
<g >
</g>
<g >
</g>
<g >
</g>
<g >
</g>
<g >
</g>
<g >
</g>
<g >
</g>
</g> 
</svg>
