<?xml version="1.0" standalone="no"?>
 <!DOCTYPE svg PUBLIC "-//W3C//DTD SVG 1.1//EN" 
 "http://www.w3.org/Graphics/SVG/1.1/DTD/svg11.dtd"> 
<svg
  xmlns:svg="http://www.w3.org/2000/svg"
  xmlns="http://www.w3.org/2000/svg"
  xmlns:xlink="http://www.w3.org/1999/xlink"
  version="1.1"
  width="297.0022mm" height="210.0072mm" viewBox="0.0000 0.0000 297.0022 210.0072">
<title>SVG Image created as CONTROL WIFI ESP32 S3 V4.0-B_Paste.svg date 2024/03/27 21:43:53 </title>
  <desc>Image generated by PCBNEW </desc>
<g style="fill:#000000; fill-opacity:1.0000;stroke:#000000; stroke-opacity:1.0000;
stroke-linecap:round; stroke-linejoin:round;"
 transform="translate(0 0) scale(1 1)">
</g>
<g style="fill:#000000; fill-opacity:0.0; 
stroke:#000000; stroke-width:0.0000; stroke-opacity:1; 
stroke-linecap:round; stroke-linejoin:round;">
</g>
<g style="fill:#00C2C2; fill-opacity:0.0; 
stroke:#00C2C2; stroke-width:0.0000; stroke-opacity:1; 
stroke-linecap:round; stroke-linejoin:round;">
</g>
<g style="fill:#00C2C2; fill-opacity:0.9000; 
stroke:#00C2C2; stroke-width:0.1000; stroke-opacity:1; 
stroke-linecap:round; stroke-linejoin:round;">
<path style="fill:#00C2C2; fill-opacity:0.9000; 
stroke:#00C2C2; stroke-width:0.1000; stroke-opacity:1; 
stroke-linecap:round; stroke-linejoin:round;fill-rule:evenodd;"
d="M 81.7668,107.6573
80.2650,107.6573
80.2650,105.3427
81.7668,105.3427
Z" /> 
<path style="fill:#00C2C2; fill-opacity:0.9000; 
stroke:#00C2C2; stroke-width:0.1000; stroke-opacity:1; 
stroke-linecap:round; stroke-linejoin:round;fill-rule:evenodd;"
d="M 80.0650,107.6573
78.5632,107.6573
78.5632,105.3427
80.0650,105.3427
Z" /> 
<g >
</g>
<g >
</g>
<g >
</g>
<g >
</g>
<g >
</g>
<g >
</g>
<g >
</g>
<g >
</g>
<g >
</g>
<g >
</g>
<g >
</g>
<g >
</g>
<g >
</g>
<g >
</g>
<g >
</g>
<g >
</g>
<g >
</g>
<g >
</g>
<g >
</g>
<g >
</g>
<g >
</g>
<g >
</g>
<g >
</g>
<g >
</g>
<g >
</g>
<g >
</g>
<g >
</g>
<g >
</g>
<g >
</g>
<g >
</g>
<g >
</g>
<g >
</g>
<g >
</g>
<g >
</g>
<g >
</g>
<g >
</g>
<g >
</g>
<g >
</g>
<g >
</g>
<g >
</g>
<g >
</g>
<g style="fill:#00C2C2; fill-opacity:0.9000; 
stroke:#00C2C2; stroke-width:0.1000; stroke-opacity:1; 
stroke-linecap:round; stroke-linejoin:round;">
</g>
<g style="fill:#00C2C2; fill-opacity:0.9000; 
stroke:#00C2C2; stroke-width:0.0000; stroke-opacity:1; 
stroke-linecap:round; stroke-linejoin:round;">
<path style="fill:#00C2C2; fill-opacity:0.9000; 
stroke:#00C2C2; stroke-width:0.0000; stroke-opacity:1; 
stroke-linecap:round; stroke-linejoin:round;fill-rule:evenodd;"
d="M 67.5750,102.5500
67.6707,102.5690
67.7518,102.6232
67.8060,102.7043
67.8250,102.8000
67.8250,103.3000
67.8060,103.3957
67.7518,103.4768
67.6707,103.5310
67.5750,103.5500
66.6250,103.5500
66.5293,103.5310
66.4482,103.4768
66.3940,103.3957
66.3750,103.3000
66.3750,102.8000
66.3940,102.7043
66.4482,102.6232
66.5293,102.5690
66.6250,102.5500
Z" /> 
<path style="fill:#00C2C2; fill-opacity:0.9000; 
stroke:#00C2C2; stroke-width:0.0000; stroke-opacity:1; 
stroke-linecap:round; stroke-linejoin:round;fill-rule:evenodd;"
d="M 67.5750,104.4500
67.6707,104.4690
67.7518,104.5232
67.8060,104.6043
67.8250,104.7000
67.8250,105.2000
67.8060,105.2957
67.7518,105.3768
67.6707,105.4310
67.5750,105.4500
66.6250,105.4500
66.5293,105.4310
66.4482,105.3768
66.3940,105.2957
66.3750,105.2000
66.3750,104.7000
66.3940,104.6043
66.4482,104.5232
66.5293,104.4690
66.6250,104.4500
Z" /> 
</g>
<g >
</g>
<g style="fill:#00C2C2; fill-opacity:0.9000; 
stroke:#00C2C2; stroke-width:0.0000; stroke-opacity:1; 
stroke-linecap:round; stroke-linejoin:round;">
<path style="fill:#00C2C2; fill-opacity:0.9000; 
stroke:#00C2C2; stroke-width:0.0000; stroke-opacity:1; 
stroke-linecap:round; stroke-linejoin:round;fill-rule:evenodd;"
d="M 77.9806,103.0456
78.5394,103.0456
78.5394,104.5061
77.9806,104.5061
Z" /> 
<path style="fill:#00C2C2; fill-opacity:0.9000; 
stroke:#00C2C2; stroke-width:0.0000; stroke-opacity:1; 
stroke-linecap:round; stroke-linejoin:round;fill-rule:evenodd;"
d="M 79.2506,103.0456
79.8094,103.0456
79.8094,104.5061
79.2506,104.5061
Z" /> 
<path style="fill:#00C2C2; fill-opacity:0.9000; 
stroke:#00C2C2; stroke-width:0.0000; stroke-opacity:1; 
stroke-linecap:round; stroke-linejoin:round;fill-rule:evenodd;"
d="M 80.5206,103.0456
81.0794,103.0456
81.0794,104.5061
80.5206,104.5061
Z" /> 
<path style="fill:#00C2C2; fill-opacity:0.9000; 
stroke:#00C2C2; stroke-width:0.0000; stroke-opacity:1; 
stroke-linecap:round; stroke-linejoin:round;fill-rule:evenodd;"
d="M 81.7906,103.0456
82.3494,103.0456
82.3494,104.5061
81.7906,104.5061
Z" /> 
<path style="fill:#00C2C2; fill-opacity:0.9000; 
stroke:#00C2C2; stroke-width:0.0000; stroke-opacity:1; 
stroke-linecap:round; stroke-linejoin:round;fill-rule:evenodd;"
d="M 81.7906,108.4939
82.3494,108.4939
82.3494,109.9544
81.7906,109.9544
Z" /> 
<path style="fill:#00C2C2; fill-opacity:0.9000; 
stroke:#00C2C2; stroke-width:0.0000; stroke-opacity:1; 
stroke-linecap:round; stroke-linejoin:round;fill-rule:evenodd;"
d="M 80.5206,108.4939
81.0794,108.4939
81.0794,109.9544
80.5206,109.9544
Z" /> 
<path style="fill:#00C2C2; fill-opacity:0.9000; 
stroke:#00C2C2; stroke-width:0.0000; stroke-opacity:1; 
stroke-linecap:round; stroke-linejoin:round;fill-rule:evenodd;"
d="M 79.2506,108.4939
79.8094,108.4939
79.8094,109.9544
79.2506,109.9544
Z" /> 
<path style="fill:#00C2C2; fill-opacity:0.9000; 
stroke:#00C2C2; stroke-width:0.0000; stroke-opacity:1; 
stroke-linecap:round; stroke-linejoin:round;fill-rule:evenodd;"
d="M 77.9806,108.4939
78.5394,108.4939
78.5394,109.9544
77.9806,109.9544
Z" /> 
</g>
<g >
</g>
<g style="fill:#00C2C2; fill-opacity:0.9000; 
stroke:#00C2C2; stroke-width:0.0000; stroke-opacity:1; 
stroke-linecap:round; stroke-linejoin:round;">
<path style="fill:#00C2C2; fill-opacity:0.9000; 
stroke:#00C2C2; stroke-width:0.0000; stroke-opacity:1; 
stroke-linecap:round; stroke-linejoin:round;fill-rule:evenodd;"
d="M 93.5300,131.3650
93.5300,126.1650
97.7700,126.1650
97.7700,131.3650
Z" /> 
<path style="fill:#00C2C2; fill-opacity:0.9000; 
stroke:#00C2C2; stroke-width:0.0000; stroke-opacity:1; 
stroke-linecap:round; stroke-linejoin:round;fill-rule:evenodd;"
d="M 109.5400,130.4150
109.5400,127.1150
113.7800,127.1150
113.7800,130.4150
Z" /> 
</g>
<g >
</g>
<g style="fill:#00C2C2; fill-opacity:0.9000; 
stroke:#00C2C2; stroke-width:0.0000; stroke-opacity:1; 
stroke-linecap:round; stroke-linejoin:round;">
<path style="fill:#00C2C2; fill-opacity:0.9000; 
stroke:#00C2C2; stroke-width:0.0000; stroke-opacity:1; 
stroke-linecap:round; stroke-linejoin:round;fill-rule:evenodd;"
d="M 70.0500,102.5750
70.1457,102.5940
70.2268,102.6482
70.2810,102.7293
70.3000,102.8250
70.3000,103.3500
70.2810,103.4457
70.2268,103.5268
70.1457,103.5810
70.0500,103.6000
69.1500,103.6000
69.0543,103.5810
68.9732,103.5268
68.9190,103.4457
68.9000,103.3500
68.9000,102.8250
68.9190,102.7293
68.9732,102.6482
69.0543,102.5940
69.1500,102.5750
Z" /> 
<path style="fill:#00C2C2; fill-opacity:0.9000; 
stroke:#00C2C2; stroke-width:0.0000; stroke-opacity:1; 
stroke-linecap:round; stroke-linejoin:round;fill-rule:evenodd;"
d="M 70.0500,104.4000
70.1457,104.4190
70.2268,104.4732
70.2810,104.5543
70.3000,104.6500
70.3000,105.1750
70.2810,105.2707
70.2268,105.3518
70.1457,105.4060
70.0500,105.4250
69.1500,105.4250
69.0543,105.4060
68.9732,105.3518
68.9190,105.2707
68.9000,105.1750
68.9000,104.6500
68.9190,104.5543
68.9732,104.4732
69.0543,104.4190
69.1500,104.4000
Z" /> 
</g>
<g >
</g>
<g style="fill:#00C2C2; fill-opacity:0.9000; 
stroke:#00C2C2; stroke-width:0.0000; stroke-opacity:1; 
stroke-linecap:round; stroke-linejoin:round;">
<path style="fill:#00C2C2; fill-opacity:0.9000; 
stroke:#00C2C2; stroke-width:0.0000; stroke-opacity:1; 
stroke-linecap:round; stroke-linejoin:round;fill-rule:evenodd;"
d="M 67.4900,108.5600
67.4915,108.5523
67.4959,108.5459
67.5023,108.5415
67.5100,108.5400
69.0300,108.5400
69.0377,108.5415
69.0441,108.5459
69.0485,108.5523
69.0500,108.5600
69.0500,108.9200
69.0485,108.9277
69.0441,108.9341
69.0377,108.9385
69.0300,108.9400
67.5100,108.9400
67.5023,108.9385
67.4959,108.9341
67.4915,108.9277
67.4900,108.9200
Z" /> 
<path style="fill:#00C2C2; fill-opacity:0.9000; 
stroke:#00C2C2; stroke-width:0.0000; stroke-opacity:1; 
stroke-linecap:round; stroke-linejoin:round;fill-rule:evenodd;"
d="M 67.4900,107.9100
67.4915,107.9023
67.4959,107.8959
67.5023,107.8915
67.5100,107.8900
69.0300,107.8900
69.0377,107.8915
69.0441,107.8959
69.0485,107.9023
69.0500,107.9100
69.0500,108.2700
69.0485,108.2777
69.0441,108.2841
69.0377,108.2885
69.0300,108.2900
67.5100,108.2900
67.5023,108.2885
67.4959,108.2841
67.4915,108.2777
67.4900,108.2700
Z" /> 
<path style="fill:#00C2C2; fill-opacity:0.9000; 
stroke:#00C2C2; stroke-width:0.0000; stroke-opacity:1; 
stroke-linecap:round; stroke-linejoin:round;fill-rule:evenodd;"
d="M 67.4900,107.2600
67.4915,107.2523
67.4959,107.2459
67.5023,107.2415
67.5100,107.2400
69.0300,107.2400
69.0377,107.2415
69.0441,107.2459
69.0485,107.2523
69.0500,107.2600
69.0500,107.6200
69.0485,107.6277
69.0441,107.6341
69.0377,107.6385
69.0300,107.6400
67.5100,107.6400
67.5023,107.6385
67.4959,107.6341
67.4915,107.6277
67.4900,107.6200
Z" /> 
<path style="fill:#00C2C2; fill-opacity:0.9000; 
stroke:#00C2C2; stroke-width:0.0000; stroke-opacity:1; 
stroke-linecap:round; stroke-linejoin:round;fill-rule:evenodd;"
d="M 67.4900,106.6100
67.4915,106.6023
67.4959,106.5959
67.5023,106.5915
67.5100,106.5900
69.0300,106.5900
69.0377,106.5915
69.0441,106.5959
69.0485,106.6023
69.0500,106.6100
69.0500,106.9700
69.0485,106.9777
69.0441,106.9841
69.0377,106.9885
69.0300,106.9900
67.5100,106.9900
67.5023,106.9885
67.4959,106.9841
67.4915,106.9777
67.4900,106.9700
Z" /> 
<path style="fill:#00C2C2; fill-opacity:0.9000; 
stroke:#00C2C2; stroke-width:0.0000; stroke-opacity:1; 
stroke-linecap:round; stroke-linejoin:round;fill-rule:evenodd;"
d="M 73.2500,106.6100
73.2515,106.6023
73.2559,106.5959
73.2623,106.5915
73.2700,106.5900
74.7900,106.5900
74.7977,106.5915
74.8041,106.5959
74.8085,106.6023
74.8100,106.6100
74.8100,106.9700
74.8085,106.9777
74.8041,106.9841
74.7977,106.9885
74.7900,106.9900
73.2700,106.9900
73.2623,106.9885
73.2559,106.9841
73.2515,106.9777
73.2500,106.9700
Z" /> 
<path style="fill:#00C2C2; fill-opacity:0.9000; 
stroke:#00C2C2; stroke-width:0.0000; stroke-opacity:1; 
stroke-linecap:round; stroke-linejoin:round;fill-rule:evenodd;"
d="M 73.2500,107.2600
73.2515,107.2523
73.2559,107.2459
73.2623,107.2415
73.2700,107.2400
74.7900,107.2400
74.7977,107.2415
74.8041,107.2459
74.8085,107.2523
74.8100,107.2600
74.8100,107.6200
74.8085,107.6277
74.8041,107.6341
74.7977,107.6385
74.7900,107.6400
73.2700,107.6400
73.2623,107.6385
73.2559,107.6341
73.2515,107.6277
73.2500,107.6200
Z" /> 
<path style="fill:#00C2C2; fill-opacity:0.9000; 
stroke:#00C2C2; stroke-width:0.0000; stroke-opacity:1; 
stroke-linecap:round; stroke-linejoin:round;fill-rule:evenodd;"
d="M 73.2500,107.9100
73.2515,107.9023
73.2559,107.8959
73.2623,107.8915
73.2700,107.8900
74.7900,107.8900
74.7977,107.8915
74.8041,107.8959
74.8085,107.9023
74.8100,107.9100
74.8100,108.2700
74.8085,108.2777
74.8041,108.2841
74.7977,108.2885
74.7900,108.2900
73.2700,108.2900
73.2623,108.2885
73.2559,108.2841
73.2515,108.2777
73.2500,108.2700
Z" /> 
<path style="fill:#00C2C2; fill-opacity:0.9000; 
stroke:#00C2C2; stroke-width:0.0000; stroke-opacity:1; 
stroke-linecap:round; stroke-linejoin:round;fill-rule:evenodd;"
d="M 73.2500,108.5600
73.2515,108.5523
73.2559,108.5459
73.2623,108.5415
73.2700,108.5400
74.7900,108.5400
74.7977,108.5415
74.8041,108.5459
74.8085,108.5523
74.8100,108.5600
74.8100,108.9200
74.8085,108.9277
74.8041,108.9341
74.7977,108.9385
74.7900,108.9400
73.2700,108.9400
73.2623,108.9385
73.2559,108.9341
73.2515,108.9277
73.2500,108.9200
Z" /> 
</g>
<g >
</g>
<g style="fill:#00C2C2; fill-opacity:0.9000; 
stroke:#00C2C2; stroke-width:0.0000; stroke-opacity:1; 
stroke-linecap:round; stroke-linejoin:round;">
<path style="fill:#00C2C2; fill-opacity:0.9000; 
stroke:#00C2C2; stroke-width:0.0000; stroke-opacity:1; 
stroke-linecap:round; stroke-linejoin:round;fill-rule:evenodd;"
d="M 71.7500,100.3500
71.7690,100.2543
71.8232,100.1732
71.9043,100.1190
72.0000,100.1000
72.5000,100.1000
72.5957,100.1190
72.6768,100.1732
72.7310,100.2543
72.7500,100.3500
72.7500,101.3000
72.7310,101.3957
72.6768,101.4768
72.5957,101.5310
72.5000,101.5500
72.0000,101.5500
71.9043,101.5310
71.8232,101.4768
71.7690,101.3957
71.7500,101.3000
Z" /> 
<path style="fill:#00C2C2; fill-opacity:0.9000; 
stroke:#00C2C2; stroke-width:0.0000; stroke-opacity:1; 
stroke-linecap:round; stroke-linejoin:round;fill-rule:evenodd;"
d="M 73.6500,100.3500
73.6690,100.2543
73.7232,100.1732
73.8043,100.1190
73.9000,100.1000
74.4000,100.1000
74.4957,100.1190
74.5768,100.1732
74.6310,100.2543
74.6500,100.3500
74.6500,101.3000
74.6310,101.3957
74.5768,101.4768
74.4957,101.5310
74.4000,101.5500
73.9000,101.5500
73.8043,101.5310
73.7232,101.4768
73.6690,101.3957
73.6500,101.3000
Z" /> 
</g>
<g >
</g>
<g style="fill:#00C2C2; fill-opacity:0.9000; 
stroke:#00C2C2; stroke-width:0.0000; stroke-opacity:1; 
stroke-linecap:round; stroke-linejoin:round;">
<path style="fill:#00C2C2; fill-opacity:0.9000; 
stroke:#00C2C2; stroke-width:0.0000; stroke-opacity:1; 
stroke-linecap:round; stroke-linejoin:round;fill-rule:evenodd;"
d="M 80.7500,100.1900
80.7690,100.0943
80.8232,100.0132
80.9043,99.9590
81.0000,99.9400
81.5000,99.9400
81.5957,99.9590
81.6768,100.0132
81.7310,100.0943
81.7500,100.1900
81.7500,101.1400
81.7310,101.2357
81.6768,101.3168
81.5957,101.3710
81.5000,101.3900
81.0000,101.3900
80.9043,101.3710
80.8232,101.3168
80.7690,101.2357
80.7500,101.1400
Z" /> 
<path style="fill:#00C2C2; fill-opacity:0.9000; 
stroke:#00C2C2; stroke-width:0.0000; stroke-opacity:1; 
stroke-linecap:round; stroke-linejoin:round;fill-rule:evenodd;"
d="M 82.6500,100.1900
82.6690,100.0943
82.7232,100.0132
82.8043,99.9590
82.9000,99.9400
83.4000,99.9400
83.4957,99.9590
83.5768,100.0132
83.6310,100.0943
83.6500,100.1900
83.6500,101.1400
83.6310,101.2357
83.5768,101.3168
83.4957,101.3710
83.4000,101.3900
82.9000,101.3900
82.8043,101.3710
82.7232,101.3168
82.6690,101.2357
82.6500,101.1400
Z" /> 
</g>
<g >
</g>
<g style="fill:#00C2C2; fill-opacity:0.9000; 
stroke:#00C2C2; stroke-width:0.0000; stroke-opacity:1; 
stroke-linecap:round; stroke-linejoin:round;">
<path style="fill:#00C2C2; fill-opacity:0.9000; 
stroke:#00C2C2; stroke-width:0.0000; stroke-opacity:1; 
stroke-linecap:round; stroke-linejoin:round;fill-rule:evenodd;"
d="M 58.7700,126.1650
58.7700,131.3650
54.5300,131.3650
54.5300,126.1650
Z" /> 
<path style="fill:#00C2C2; fill-opacity:0.9000; 
stroke:#00C2C2; stroke-width:0.0000; stroke-opacity:1; 
stroke-linecap:round; stroke-linejoin:round;fill-rule:evenodd;"
d="M 42.7600,127.1150
42.7600,130.4150
38.5200,130.4150
38.5200,127.1150
Z" /> 
</g>
<g >
</g>
<g style="fill:#00C2C2; fill-opacity:0.9000; 
stroke:#00C2C2; stroke-width:0.0000; stroke-opacity:1; 
stroke-linecap:round; stroke-linejoin:round;">
<path style="fill:#00C2C2; fill-opacity:0.9000; 
stroke:#00C2C2; stroke-width:0.0000; stroke-opacity:1; 
stroke-linecap:round; stroke-linejoin:round;fill-rule:evenodd;"
d="M 79.6398,101.1150
79.6208,101.2107
79.5666,101.2918
79.4855,101.3460
79.3898,101.3650
78.8648,101.3650
78.7692,101.3460
78.6881,101.2918
78.6339,101.2107
78.6148,101.1150
78.6148,100.2150
78.6339,100.1193
78.6881,100.0382
78.7692,99.9840
78.8648,99.9650
79.3898,99.9650
79.4855,99.9840
79.5666,100.0382
79.6208,100.1193
79.6398,100.2150
Z" /> 
<path style="fill:#00C2C2; fill-opacity:0.9000; 
stroke:#00C2C2; stroke-width:0.0000; stroke-opacity:1; 
stroke-linecap:round; stroke-linejoin:round;fill-rule:evenodd;"
d="M 77.8148,101.1150
77.7958,101.2107
77.7416,101.2918
77.6605,101.3460
77.5648,101.3650
77.0398,101.3650
76.9442,101.3460
76.8631,101.2918
76.8089,101.2107
76.7898,101.1150
76.7898,100.2150
76.8089,100.1193
76.8631,100.0382
76.9442,99.9840
77.0398,99.9650
77.5648,99.9650
77.6605,99.9840
77.7416,100.0382
77.7958,100.1193
77.8148,100.2150
Z" /> 
</g>
<g >
</g>
<g style="fill:#00C2C2; fill-opacity:0.9000; 
stroke:#00C2C2; stroke-width:0.0000; stroke-opacity:1; 
stroke-linecap:round; stroke-linejoin:round;">
<path style="fill:#00C2C2; fill-opacity:0.9000; 
stroke:#00C2C2; stroke-width:0.0000; stroke-opacity:1; 
stroke-linecap:round; stroke-linejoin:round;fill-rule:evenodd;"
d="M 72.7000,105.1900
71.5000,105.1900
71.5000,104.6400
72.7000,104.6400
Z" /> 
<path style="fill:#00C2C2; fill-opacity:0.9000; 
stroke:#00C2C2; stroke-width:0.0000; stroke-opacity:1; 
stroke-linecap:round; stroke-linejoin:round;fill-rule:evenodd;"
d="M 72.7000,104.2400
71.5000,104.2400
71.5000,103.6900
72.7000,103.6900
Z" /> 
<path style="fill:#00C2C2; fill-opacity:0.9000; 
stroke:#00C2C2; stroke-width:0.0000; stroke-opacity:1; 
stroke-linecap:round; stroke-linejoin:round;fill-rule:evenodd;"
d="M 72.7000,103.2900
71.5000,103.2900
71.5000,102.7400
72.7000,102.7400
Z" /> 
<path style="fill:#00C2C2; fill-opacity:0.9000; 
stroke:#00C2C2; stroke-width:0.0000; stroke-opacity:1; 
stroke-linecap:round; stroke-linejoin:round;fill-rule:evenodd;"
d="M 75.3000,103.2900
74.1000,103.2900
74.1000,102.7400
75.3000,102.7400
Z" /> 
<path style="fill:#00C2C2; fill-opacity:0.9000; 
stroke:#00C2C2; stroke-width:0.0000; stroke-opacity:1; 
stroke-linecap:round; stroke-linejoin:round;fill-rule:evenodd;"
d="M 75.3000,104.2400
74.1000,104.2400
74.1000,103.6900
75.3000,103.6900
Z" /> 
<path style="fill:#00C2C2; fill-opacity:0.9000; 
stroke:#00C2C2; stroke-width:0.0000; stroke-opacity:1; 
stroke-linecap:round; stroke-linejoin:round;fill-rule:evenodd;"
d="M 75.3000,105.1900
74.1000,105.1900
74.1000,104.6400
75.3000,104.6400
Z" /> 
</g>
<g >
</g>
<g style="fill:#00C2C2; fill-opacity:0.9000; 
stroke:#00C2C2; stroke-width:0.0000; stroke-opacity:1; 
stroke-linecap:round; stroke-linejoin:round;">
<path style="fill:#00C2C2; fill-opacity:0.9000; 
stroke:#00C2C2; stroke-width:0.0000; stroke-opacity:1; 
stroke-linecap:round; stroke-linejoin:round;fill-rule:evenodd;"
d="M 69.7250,101.2750
69.7060,101.3707
69.6518,101.4518
69.5707,101.5060
69.4750,101.5250
68.9500,101.5250
68.8543,101.5060
68.7732,101.4518
68.7190,101.3707
68.7000,101.2750
68.7000,100.3750
68.7190,100.2793
68.7732,100.1982
68.8543,100.1440
68.9500,100.1250
69.4750,100.1250
69.5707,100.1440
69.6518,100.1982
69.7060,100.2793
69.7250,100.3750
Z" /> 
<path style="fill:#00C2C2; fill-opacity:0.9000; 
stroke:#00C2C2; stroke-width:0.0000; stroke-opacity:1; 
stroke-linecap:round; stroke-linejoin:round;fill-rule:evenodd;"
d="M 67.9000,101.2750
67.8810,101.3707
67.8268,101.4518
67.7457,101.5060
67.6500,101.5250
67.1250,101.5250
67.0293,101.5060
66.9482,101.4518
66.8940,101.3707
66.8750,101.2750
66.8750,100.3750
66.8940,100.2793
66.9482,100.1982
67.0293,100.1440
67.1250,100.1250
67.6500,100.1250
67.7457,100.1440
67.8268,100.1982
67.8810,100.2793
67.9000,100.3750
Z" /> 
</g>
<g >
</g>
<g >
</g>
<g >
</g>
</g> 
</svg>
