<?xml version="1.0" standalone="no"?>
 <!DOCTYPE svg PUBLIC "-//W3C//DTD SVG 1.1//EN" 
 "http://www.w3.org/Graphics/SVG/1.1/DTD/svg11.dtd"> 
<svg
  xmlns:svg="http://www.w3.org/2000/svg"
  xmlns="http://www.w3.org/2000/svg"
  xmlns:xlink="http://www.w3.org/1999/xlink"
  version="1.1"
  width="297.0022mm" height="210.0072mm" viewBox="0.0000 0.0000 297.0022 210.0072">
<title>SVG Image created as CONTROL WIFI ESP32 S3 V4.0-B_Silkscreen.svg date 2024/03/27 21:43:53 </title>
  <desc>Image generated by PCBNEW </desc>
<g style="fill:#000000; fill-opacity:1.0000;stroke:#000000; stroke-opacity:1.0000;
stroke-linecap:round; stroke-linejoin:round;"
 transform="translate(0 0) scale(1 1)">
</g>
<g style="fill:#000000; fill-opacity:0.0; 
stroke:#000000; stroke-width:0.0000; stroke-opacity:1; 
stroke-linecap:round; stroke-linejoin:round;">
</g>
<g style="fill:#E8B2A7; fill-opacity:0.0; 
stroke:#E8B2A7; stroke-width:0.0000; stroke-opacity:1; 
stroke-linecap:round; stroke-linejoin:round;">
</g>
<g style="fill:#E8B2A7; fill-opacity:0.0; 
stroke:#E8B2A7; stroke-width:0.1500; stroke-opacity:1; 
stroke-linecap:round; stroke-linejoin:round;">
</g>
<g style="fill:#E8B2A7; fill-opacity:1.0000; 
stroke:#E8B2A7; stroke-width:0.0000; stroke-opacity:1; 
stroke-linecap:round; stroke-linejoin:round;">
<path style="fill:#E8B2A7; fill-opacity:1.0000; 
stroke:#E8B2A7; stroke-width:0.0000; stroke-opacity:1; 
stroke-linecap:round; stroke-linejoin:round;fill-rule:evenodd;"
d="M 96.8977,86.0193
96.7944,86.0193
96.7085,85.9906
96.6534,85.9356
96.6245,85.8776
96.5906,85.7422
96.5906,85.6464
96.6245,85.5109
96.6534,85.4530
96.7085,85.3979
96.7944,85.3693
96.8977,85.3693
Z" /> 
<path style="fill:#E8B2A7; fill-opacity:1.0000; 
stroke:#E8B2A7; stroke-width:0.0000; stroke-opacity:1; 
stroke-linecap:round; stroke-linejoin:round;fill-rule:evenodd;"
d="M 92.2882,85.6383
92.0762,85.6383
92.0267,85.6136
92.0058,85.5927
91.9811,85.5433
91.9811,85.4644
92.0058,85.4149
92.0267,85.3940
92.0762,85.3693
92.2882,85.3693
Z" /> 
<path style="fill:#E8B2A7; fill-opacity:1.0000; 
stroke:#E8B2A7; stroke-width:0.0000; stroke-opacity:1; 
stroke-linecap:round; stroke-linejoin:round;fill-rule:evenodd;"
d="M 98.8382,86.2836
88.9363,86.2836
88.9363,86.1025
89.0506,86.1025
89.0733,86.1485
89.1203,86.1691
89.1695,86.1547
89.1875,86.1359
89.3918,85.8295
89.5961,86.1359
89.6374,86.1663
89.6886,86.1630
89.7257,86.1275
89.7313,86.0765
89.7209,86.0527
89.4819,85.6943
89.7209,85.3359
89.7330,85.2861
89.7306,85.2813
89.7751,85.2813
89.7840,85.3318
89.8233,85.3648
89.8489,85.3693
90.0025,85.3693
90.0025,86.0943
90.0201,86.1425
90.0645,86.1682
90.1150,86.1592
90.1480,86.1199
90.1511,86.1025
91.0315,86.1025
91.0543,86.1485
91.1012,86.1691
91.1505,86.1547
91.1685,86.1359
91.3727,85.8295
91.5770,86.1359
91.6183,86.1663
91.6695,86.1630
91.7066,86.1275
91.7123,86.0765
91.7018,86.0527
91.4629,85.6943
91.5518,85.5610
91.8311,85.5610
91.8326,85.5652
91.8316,85.5695
91.8390,85.5945
91.8771,85.6707
91.8783,85.6718
91.8911,85.6902
91.9292,85.7283
91.9307,85.7290
91.9487,85.7423
92.0249,85.7804
92.0294,85.7809
92.0322,85.7833
91.8446,86.0513
91.8314,86.1008
91.8531,86.1473
91.8996,86.1690
91.9491,86.1557
91.9675,86.1373
92.2118,85.7883
92.2882,85.7883
92.2882,86.0943
92.3058,86.1425
92.3502,86.1682
92.4007,86.1592
92.4337,86.1199
92.4382,86.0943
92.4382,85.2943
92.4375,85.2922
93.1644,85.2922
93.1683,85.3180
93.4349,86.1180
93.4363,86.1197
93.4363,86.1219
93.4521,86.1396
93.4668,86.1582
93.4689,86.1586
93.4704,86.1602
93.4938,86.1637
93.5171,86.1685
93.5190,86.1675
93.5211,86.1678
93.5413,86.1554
93.5622,86.1441
93.5630,86.1420
93.5648,86.1409
93.5772,86.1180
93.6359,85.9419
93.9263,85.9419
93.9278,85.9461
93.9268,85.9505
93.9342,85.9755
93.9723,86.0516
93.9735,86.0528
93.9864,86.0711
94.0245,86.1092
94.0260,86.1099
94.0440,86.1233
94.1202,86.1614
94.1246,86.1619
94.1280,86.1648
94.1537,86.1693
94.3823,86.1693
94.3865,86.1678
94.3908,86.1688
94.4158,86.1614
94.4920,86.1233
94.4931,86.1221
94.5115,86.1092
94.5496,86.0711
94.5596,86.0497
94.6885,86.0497
94.6935,86.0685
94.6952,86.0879
94.7009,86.0960
94.7018,86.0992
94.7045,86.1011
94.7102,86.1092
94.7483,86.1473
94.7659,86.1556
94.7819,86.1667
94.7853,86.1664
94.7883,86.1682
94.7917,86.1676
94.7948,86.1690
94.8136,86.1640
94.8330,86.1623
94.8368,86.1596
94.8388,86.1592
94.8409,86.1567
94.8411,86.1566
94.8443,86.1557
94.8462,86.1530
94.8543,86.1473
94.8924,86.1092
94.9007,86.0916
94.9119,86.0756
94.9113,86.0689
94.9141,86.0627
94.9091,86.0439
94.9074,86.0245
94.9017,86.0164
94.9008,86.0132
94.8981,86.0113
94.8924,86.0032
94.8543,85.9651
94.8367,85.9568
94.8207,85.9457
94.8173,85.9460
94.8143,85.9442
94.8110,85.9448
94.8079,85.9434
94.7890,85.9484
94.7696,85.9501
94.7658,85.9528
94.7638,85.9532
94.7617,85.9557
94.7615,85.9558
94.7583,85.9567
94.7564,85.9594
94.7483,85.9651
94.7102,86.0032
94.7020,86.0208
94.6908,86.0368
94.6914,86.0435
94.6885,86.0497
94.5596,86.0497
94.5713,86.0246
94.5580,85.9751
94.5160,85.9457
94.4649,85.9501
94.4435,85.9651
94.4140,85.9946
94.3646,86.0193
94.1714,86.0193
94.1219,85.9946
94.1011,85.9737
94.0852,85.9419
95.0692,85.9419
95.0707,85.9461
95.0697,85.9505
95.0771,85.9755
95.1152,86.0516
95.1164,86.0528
95.1292,86.0711
95.1673,86.1092
95.1688,86.1099
95.1868,86.1233
95.2630,86.1614
95.2675,86.1619
95.2709,86.1648
95.2966,86.1693
95.5251,86.1693
95.5293,86.1678
95.5337,86.1688
95.5587,86.1614
95.6349,86.1233
95.6360,86.1221
95.6543,86.1092
95.6924,86.0711
95.7141,86.0246
95.7008,85.9751
95.6588,85.9457
95.6077,85.9501
95.5864,85.9651
95.5569,85.9946
95.5074,86.0193
95.3143,86.0193
95.2648,85.9946
95.2439,85.9737
95.2192,85.9242
95.2192,85.7691
95.2280,85.7514
96.4406,85.7514
96.4418,85.7547
96.4428,85.7696
96.4809,85.9220
96.4829,85.9250
96.4866,85.9374
96.5247,86.0135
96.5259,86.0147
96.5388,86.0330
96.6149,86.1092
96.6190,86.1111
96.6214,86.1149
96.6443,86.1274
96.7586,86.1654
96.7602,86.1654
96.7823,86.1693
96.9727,86.1693
96.9911,86.1626
97.0102,86.1592
97.0146,86.1541
97.0210,86.1517
97.0307,86.1349
97.0432,86.1199
97.0449,86.1102
97.0466,86.1073
97.0460,86.1040
97.0477,86.0943
97.2787,86.0943
97.2811,86.1008
97.2799,86.1076
97.2896,86.1243
97.2962,86.1425
97.3022,86.1460
97.3057,86.1520
97.3239,86.1585
97.3407,86.1682
97.3475,86.1670
97.3540,86.1693
97.3722,86.1626
97.3912,86.1592
97.3957,86.1539
97.4022,86.1515
97.4188,86.1315
97.7358,85.5767
97.7358,86.0943
97.7534,86.1425
97.7978,86.1682
97.8483,86.1592
97.8813,86.1199
97.8858,86.0943
97.8858,86.0181
98.0787,86.0181
98.0843,86.0335
98.0857,86.0498
98.0951,86.0632
98.0962,86.0663
98.0980,86.0673
98.1007,86.0711
98.1388,86.1092
98.1428,86.1111
98.1452,86.1149
98.1681,86.1274
98.2824,86.1654
98.2840,86.1654
98.3061,86.1693
98.3823,86.1693
98.3838,86.1687
98.4060,86.1654
98.5203,86.1274
98.5238,86.1246
98.5283,86.1242
98.5496,86.1092
98.6258,86.0330
98.6265,86.0316
98.6398,86.0135
98.6779,85.9374
98.6783,85.9338
98.6836,85.9220
98.7217,85.7696
98.7213,85.7662
98.7239,85.7514
98.7239,85.6372
98.7227,85.6339
98.7217,85.6190
98.6836,85.4666
98.6816,85.4636
98.6779,85.4512
98.6398,85.3750
98.6386,85.3739
98.6258,85.3555
98.5496,85.2794
98.5455,85.2775
98.5432,85.2736
98.5203,85.2612
98.4060,85.2231
98.4043,85.2232
98.3823,85.2193
98.2680,85.2193
98.2638,85.2208
98.2594,85.2198
98.2344,85.2272
98.1583,85.2653
98.1230,85.3026
98.1199,85.3538
98.1505,85.3950
98.2004,85.4069
98.2253,85.3995
98.2857,85.3693
98.3701,85.3693
98.4560,85.3979
98.5111,85.4530
98.5401,85.5109
98.5739,85.6464
98.5739,85.7422
98.5401,85.8776
98.5111,85.9356
98.4560,85.9906
98.3701,86.0193
98.3182,86.0193
98.2323,85.9906
98.2287,85.9870
98.2287,85.8264
98.3061,85.8264
98.3543,85.8089
98.3799,85.7645
98.3710,85.7139
98.3317,85.6810
98.3061,85.6764
98.1537,85.6764
98.1354,85.6831
98.1162,85.6865
98.1118,85.6917
98.1055,85.6940
98.0957,85.7109
98.0832,85.7258
98.0815,85.7355
98.0798,85.7384
98.0804,85.7417
98.0787,85.7514
98.0787,86.0181
97.8858,86.0181
97.8858,85.2943
97.8835,85.2878
97.8846,85.2809
97.8749,85.2642
97.8683,85.2461
97.8623,85.2426
97.8588,85.2366
97.8406,85.2301
97.8239,85.2204
97.8170,85.2216
97.8105,85.2193
97.7924,85.2260
97.7733,85.2293
97.7689,85.2347
97.7624,85.2371
97.7457,85.2571
97.4287,85.8119
97.4287,85.2943
97.4111,85.2461
97.3667,85.2204
97.3162,85.2293
97.2832,85.2686
97.2787,85.2943
97.2787,86.0943
97.0477,86.0943
97.0477,85.2943
97.0411,85.2760
97.0377,85.2568
97.0325,85.2524
97.0302,85.2461
97.0133,85.2363
96.9984,85.2238
96.9887,85.2221
96.9858,85.2204
96.9825,85.2210
96.9727,85.2193
96.7823,85.2193
96.7807,85.2199
96.7586,85.2231
96.6443,85.2612
96.6408,85.2640
96.6363,85.2644
96.6149,85.2794
96.5388,85.3555
96.5381,85.3570
96.5247,85.3750
96.4866,85.4512
96.4862,85.4548
96.4809,85.4666
96.4428,85.6190
96.4432,85.6224
96.4406,85.6372
96.4406,85.7514
95.2280,85.7514
95.2439,85.7197
95.2648,85.6988
95.3143,85.6741
95.4108,85.6741
95.4298,85.6671
95.4497,85.6632
95.4534,85.6586
95.4590,85.6565
95.4692,85.6390
95.4818,85.6232
95.4817,85.6173
95.4847,85.6121
95.4812,85.5922
95.4808,85.5720
95.4763,85.5646
95.4758,85.5616
95.4731,85.5593
95.4673,85.5497
95.3095,85.3693
95.6394,85.3693
95.6876,85.3517
95.7133,85.3073
95.7044,85.2568
95.6651,85.2238
95.6394,85.2193
95.1442,85.2193
95.1252,85.2262
95.1053,85.2301
95.1016,85.2348
95.0960,85.2368
95.0859,85.2544
95.0732,85.2701
95.0733,85.2761
95.0703,85.2813
95.0738,85.3012
95.0742,85.3214
95.0787,85.3287
95.0792,85.3318
95.0819,85.3340
95.0877,85.3437
95.2557,85.5356
95.1868,85.5701
95.1857,85.5713
95.1673,85.5841
95.1292,85.6222
95.1285,85.6237
95.1152,85.6417
95.0771,85.7179
95.0766,85.7223
95.0737,85.7258
95.0692,85.7514
95.0692,85.9419
94.0852,85.9419
94.0763,85.9242
94.0763,85.7691
94.1011,85.7197
94.1219,85.6988
94.1714,85.6741
94.2680,85.6741
94.2870,85.6671
94.3068,85.6632
94.3106,85.6586
94.3162,85.6565
94.3263,85.6390
94.3390,85.6232
94.3389,85.6173
94.3418,85.6121
94.3383,85.5922
94.3379,85.5720
94.3335,85.5646
94.3329,85.5616
94.3303,85.5593
94.3244,85.5497
94.1666,85.3693
94.4966,85.3693
94.5448,85.3517
94.5704,85.3073
94.5615,85.2568
94.5222,85.2238
94.4966,85.2193
94.0013,85.2193
93.9823,85.2262
93.9625,85.2301
93.9587,85.2348
93.9531,85.2368
93.9430,85.2544
93.9303,85.2701
93.9304,85.2761
93.9275,85.2813
93.9310,85.3012
93.9314,85.3214
93.9358,85.3287
93.9364,85.3318
93.9390,85.3340
93.9449,85.3437
94.1128,85.5356
94.0440,85.5701
94.0428,85.5713
94.0245,85.5841
93.9864,85.6222
93.9857,85.6237
93.9723,85.6417
93.9342,85.7179
93.9337,85.7223
93.9308,85.7258
93.9263,85.7514
93.9263,85.9419
93.6359,85.9419
93.8439,85.3180
93.8425,85.2667
93.8085,85.2283
93.7577,85.2208
93.7140,85.2477
93.7016,85.2706
93.5061,85.8571
93.3106,85.2706
93.2787,85.2304
93.2284,85.2201
93.1833,85.2445
93.1644,85.2922
92.4375,85.2922
92.4316,85.2760
92.4282,85.2568
92.4230,85.2524
92.4207,85.2461
92.4038,85.2363
92.3889,85.2238
92.3791,85.2221
92.3762,85.2204
92.3730,85.2210
92.3632,85.2193
92.0585,85.2193
92.0542,85.2208
92.0499,85.2198
92.0249,85.2272
91.9487,85.2653
91.9476,85.2665
91.9292,85.2794
91.8911,85.3175
91.8904,85.3189
91.8771,85.3369
91.8390,85.4131
91.8385,85.4176
91.8356,85.4210
91.8311,85.4467
91.8311,85.5610
91.5518,85.5610
91.7018,85.3359
91.7140,85.2861
91.6912,85.2401
91.6442,85.2194
91.5950,85.2339
91.5770,85.2527
91.3727,85.5591
91.1685,85.2527
91.1271,85.2223
91.0759,85.2256
91.0388,85.2611
91.0332,85.3120
91.0437,85.3359
91.2826,85.6943
91.0437,86.0527
91.0315,86.1025
90.1511,86.1025
90.1525,86.0943
90.1525,85.3693
90.3061,85.3693
90.3543,85.3517
90.3799,85.3073
90.3710,85.2568
90.3317,85.2238
90.3061,85.2193
89.8489,85.2193
89.8007,85.2368
89.7751,85.2813
89.7306,85.2813
89.7103,85.2401
89.6633,85.2194
89.6140,85.2339
89.5961,85.2527
89.3918,85.5591
89.1875,85.2527
89.1462,85.2223
89.0950,85.2256
89.0579,85.2611
89.0523,85.3120
89.0627,85.3359
89.3017,85.6943
89.0627,86.0527
89.0506,86.1025
88.9363,86.1025
88.9363,85.1050
98.8382,85.1050
Z" /> 
</g>
<g style="fill:#E8B2A7; fill-opacity:1.0000; 
stroke:#E8B2A7; stroke-width:0.2000; stroke-opacity:1; 
stroke-linecap:round; stroke-linejoin:round;">
</g>
<g style="fill:#E8B2A7; fill-opacity:1.0000; 
stroke:#E8B2A7; stroke-width:0.0000; stroke-opacity:1; 
stroke-linecap:round; stroke-linejoin:round;">
<path style="fill:#E8B2A7; fill-opacity:1.0000; 
stroke:#E8B2A7; stroke-width:0.0000; stroke-opacity:1; 
stroke-linecap:round; stroke-linejoin:round;fill-rule:evenodd;"
d="M 39.6053,107.1101
36.1255,107.1101
36.1255,105.8370
36.2683,105.8370
36.2688,105.8988
36.6021,106.8988
36.6200,106.9231
36.6376,106.9477
36.6384,106.9479
36.6388,106.9486
36.6676,106.9577
36.6962,106.9672
36.6970,106.9670
36.6978,106.9672
36.7263,106.9577
36.7552,106.9486
36.7556,106.9479
36.7564,106.9477
36.7739,106.9231
36.7919,106.8988
36.8659,106.6767
37.2160,106.6767
37.2232,106.6987
37.2266,106.7215
37.2742,106.8167
37.2856,106.8282
37.2929,106.8427
37.3406,106.8903
37.3550,106.8977
37.3666,106.9090
37.4618,106.9567
37.4846,106.9601
37.5065,106.9672
37.7922,106.9672
37.8142,106.9601
37.8370,106.9567
37.9322,106.9090
37.9437,106.8977
37.9582,106.8903
38.0058,106.8427
38.0255,106.8040
38.1696,106.8040
38.1721,106.8196
38.1697,106.8352
38.1768,106.8494
38.1793,106.8650
38.1905,106.8762
38.1977,106.8903
38.2453,106.9379
38.2594,106.9451
38.2706,106.9563
38.2786,106.9576
38.2851,106.9623
38.2932,106.9623
38.3004,106.9660
38.3160,106.9635
38.3317,106.9660
38.3389,106.9623
38.3469,106.9623
38.3535,106.9576
38.3614,106.9563
38.3726,106.9451
38.3867,106.9379
38.4344,106.8903
38.4416,106.8762
38.4528,106.8650
38.4552,106.8494
38.4624,106.8352
38.4599,106.8196
38.4624,106.8040
38.4552,106.7898
38.4528,106.7742
38.4416,106.7630
38.4344,106.7489
38.3867,106.7013
38.3726,106.6941
38.3614,106.6829
38.3535,106.6816
38.3469,106.6769
38.3389,106.6769
38.3386,106.6767
38.6446,106.6767
38.6517,106.6987
38.6552,106.7215
38.7028,106.8167
38.7142,106.8282
38.7215,106.8427
38.7691,106.8903
38.7836,106.8977
38.7951,106.9090
38.8904,106.9567
38.9132,106.9601
38.9351,106.9672
39.2208,106.9672
39.2427,106.9601
39.2655,106.9567
39.3608,106.9090
39.3723,106.8977
39.3867,106.8903
39.4344,106.8427
39.4624,106.7876
39.4528,106.7266
39.4091,106.6829
39.3480,106.6732
39.2929,106.7013
39.2568,106.7374
39.1972,106.7672
38.9587,106.7672
38.8991,106.7374
38.8744,106.7127
38.8446,106.6531
38.8446,106.4623
38.8744,106.4026
38.8991,106.3780
38.9587,106.3482
39.0779,106.3482
39.0972,106.3419
39.1173,106.3401
39.1259,106.3326
39.1367,106.3291
39.1486,106.3127
39.1638,106.2994
39.1664,106.2883
39.1730,106.2791
39.1730,106.2589
39.1775,106.2391
39.1730,106.2287
39.1730,106.2173
39.1612,106.2009
39.1532,106.1823
38.9650,105.9672
39.3637,105.9672
39.4224,105.9481
39.4588,105.8981
39.4588,105.8363
39.4224,105.7863
39.3637,105.7672
38.7446,105.7672
38.7254,105.7735
38.7052,105.7753
38.6967,105.7828
38.6858,105.7863
38.6739,105.8027
38.6587,105.8160
38.6562,105.8271
38.6495,105.8363
38.6495,105.8565
38.6450,105.8763
38.6495,105.8867
38.6495,105.8981
38.6614,105.9145
38.6694,105.9331
38.8740,106.1669
38.7951,106.2063
38.7836,106.2177
38.7691,106.2251
38.7215,106.2727
38.7142,106.2871
38.7028,106.2987
38.6552,106.3939
38.6517,106.4167
38.6446,106.4386
38.6446,106.6767
38.3386,106.6767
38.3317,106.6732
38.3160,106.6757
38.3004,106.6732
38.2932,106.6769
38.2851,106.6769
38.2786,106.6816
38.2706,106.6829
38.2594,106.6941
38.2453,106.7013
38.1977,106.7489
38.1905,106.7630
38.1793,106.7742
38.1768,106.7898
38.1696,106.8040
38.0255,106.8040
38.0339,106.7876
38.0242,106.7266
37.9805,106.6829
37.9194,106.6732
37.8644,106.7013
37.8282,106.7374
37.7686,106.7672
37.5301,106.7672
37.4705,106.7374
37.4458,106.7127
37.4160,106.6531
37.4160,106.4623
37.4458,106.4026
37.4705,106.3780
37.5301,106.3482
37.6494,106.3482
37.6686,106.3419
37.6887,106.3401
37.6973,106.3326
37.7082,106.3291
37.7200,106.3127
37.7353,106.2994
37.7378,106.2883
37.7445,106.2791
37.7445,106.2589
37.7490,106.2391
37.7445,106.2287
37.7445,106.2173
37.7326,106.2009
37.7246,106.1823
37.5364,105.9672
37.9351,105.9672
37.9939,105.9481
38.0302,105.8981
38.0302,105.8363
37.9939,105.7863
37.9351,105.7672
37.3160,105.7672
37.2968,105.7735
37.2767,105.7753
37.2681,105.7828
37.2573,105.7863
37.2454,105.8027
37.2302,105.8160
37.2276,105.8271
37.2209,105.8363
37.2209,105.8565
37.2164,105.8763
37.2209,105.8867
37.2209,105.8981
37.2328,105.9145
37.2408,105.9331
37.4454,106.1669
37.3666,106.2063
37.3550,106.2177
37.3406,106.2251
37.2929,106.2727
37.2856,106.2871
37.2742,106.2987
37.2266,106.3939
37.2232,106.4167
37.2160,106.4386
37.2160,106.6767
36.8659,106.6767
37.1252,105.8988
37.1257,105.8370
37.0897,105.7868
37.0311,105.7672
36.9722,105.7859
36.9355,105.8356
36.6970,106.5510
36.4585,105.8356
36.4218,105.7859
36.3629,105.7672
36.3043,105.7868
36.2683,105.8370
36.1255,105.8370
36.1255,105.6244
39.6053,105.6244
Z" /> 
</g>
<g style="fill:#E8B2A7; fill-opacity:1.0000; 
stroke:#E8B2A7; stroke-width:0.2000; stroke-opacity:1; 
stroke-linecap:round; stroke-linejoin:round;">
</g>
<g style="fill:#E8B2A7; fill-opacity:1.0000; 
stroke:#E8B2A7; stroke-width:0.0000; stroke-opacity:1; 
stroke-linecap:round; stroke-linejoin:round;">
<path style="fill:#E8B2A7; fill-opacity:1.0000; 
stroke:#E8B2A7; stroke-width:0.0000; stroke-opacity:1; 
stroke-linecap:round; stroke-linejoin:round;fill-rule:evenodd;"
d="M 36.7827,100.5672
36.6608,100.5672
36.5558,100.5322
36.4887,100.4651
36.4532,100.3942
36.4113,100.2263
36.4113,100.1081
36.4532,99.9402
36.4887,99.8693
36.5558,99.8022
36.6608,99.7672
36.7827,99.7672
Z" /> 
<path style="fill:#E8B2A7; fill-opacity:1.0000; 
stroke:#E8B2A7; stroke-width:0.0000; stroke-opacity:1; 
stroke-linecap:round; stroke-linejoin:round;fill-rule:evenodd;"
d="M 39.2208,100.9101
36.0684,100.9101
36.0684,100.2386
36.2113,100.2386
36.2151,100.2505
36.2143,100.2629
36.2619,100.4534
36.2678,100.4628
36.2695,100.4738
36.3171,100.5691
36.3284,100.5806
36.3358,100.5951
36.4310,100.6903
36.4516,100.7008
36.4701,100.7145
36.6130,100.7621
36.6292,100.7622
36.6446,100.7672
36.8827,100.7672
36.8978,100.7623
36.9136,100.7623
36.9264,100.7530
36.9415,100.7481
36.9508,100.7353
36.9636,100.7260
36.9685,100.7109
36.9778,100.6981
36.9778,100.6823
36.9827,100.6672
37.2589,100.6672
37.2606,100.6726
37.2595,100.6781
37.2701,100.7016
37.2780,100.7260
37.2826,100.7293
37.2849,100.7345
37.3072,100.7472
37.3280,100.7623
37.3336,100.7623
37.3385,100.7651
37.3641,100.7623
37.3898,100.7623
37.3944,100.7590
37.4000,100.7584
37.4190,100.7411
37.4398,100.7260
37.4415,100.7206
37.4457,100.7168
37.8303,100.0438
37.8303,100.6672
37.8494,100.7260
37.8994,100.7623
37.9612,100.7623
38.0112,100.7260
38.0303,100.6672
38.0303,100.5720
38.2589,100.5720
38.2614,100.5797
38.2601,100.5876
38.2708,100.6085
38.2780,100.6308
38.2845,100.6355
38.2882,100.6427
38.3358,100.6903
38.3563,100.7008
38.3749,100.7145
38.5178,100.7621
38.5340,100.7622
38.5494,100.7672
38.6446,100.7672
38.6600,100.7622
38.6762,100.7621
38.8191,100.7145
38.8376,100.7008
38.8582,100.6903
38.9534,100.5951
38.9608,100.5806
38.9721,100.5691
39.0198,100.4738
39.0214,100.4628
39.0273,100.4534
39.0750,100.2629
39.0741,100.2505
39.0779,100.2386
39.0779,100.0958
39.0741,100.0840
39.0750,100.0715
39.0273,99.8811
39.0214,99.8716
39.0198,99.8606
38.9721,99.7654
38.9608,99.7538
38.9534,99.7394
38.8582,99.6441
38.8376,99.6337
38.8191,99.6200
38.6762,99.5724
38.6600,99.5722
38.6446,99.5672
38.5018,99.5672
38.4798,99.5743
38.4570,99.5778
38.3618,99.6254
38.3178,99.6688
38.3076,99.7297
38.3353,99.7850
38.3901,99.8135
38.4512,99.8043
38.5254,99.7672
38.6284,99.7672
38.7334,99.8022
38.8005,99.8693
38.8360,99.9402
38.8779,100.1081
38.8779,100.2263
38.8360,100.3942
38.8005,100.4651
38.7334,100.5322
38.6284,100.5672
38.5656,100.5672
38.4605,100.5322
38.4589,100.5306
38.4589,100.3386
38.5494,100.3386
38.6082,100.3195
38.6445,100.2695
38.6445,100.2077
38.6082,100.1577
38.5494,100.1386
38.3589,100.1386
38.3438,100.1435
38.3280,100.1435
38.3152,100.1529
38.3001,100.1577
38.2908,100.1706
38.2780,100.1799
38.2731,100.1949
38.2638,100.2077
38.2638,100.2236
38.2589,100.2386
38.2589,100.5720
38.0303,100.5720
38.0303,99.6672
38.0286,99.6619
38.0297,99.6563
38.0192,99.6329
38.0112,99.6084
38.0067,99.6051
38.0043,99.6000
37.9820,99.5872
37.9612,99.5721
37.9556,99.5721
37.9507,99.5693
37.9251,99.5721
37.8994,99.5721
37.8949,99.5754
37.8892,99.5760
37.8702,99.5933
37.8494,99.6084
37.8477,99.6138
37.8435,99.6176
37.4589,100.2907
37.4589,99.6672
37.4398,99.6084
37.3898,99.5721
37.3280,99.5721
37.2780,99.6084
37.2589,99.6672
37.2589,100.6672
36.9827,100.6672
36.9827,99.6672
36.9778,99.6522
36.9778,99.6363
36.9685,99.6235
36.9636,99.6084
36.9508,99.5991
36.9415,99.5863
36.9264,99.5814
36.9136,99.5721
36.8978,99.5721
36.8827,99.5672
36.6446,99.5672
36.6292,99.5722
36.6130,99.5724
36.4701,99.6200
36.4516,99.6337
36.4310,99.6441
36.3358,99.7394
36.3284,99.7538
36.3171,99.7654
36.2695,99.8606
36.2678,99.8716
36.2619,99.8811
36.2143,100.0715
36.2151,100.0840
36.2113,100.0958
36.2113,100.2386
36.0684,100.2386
36.0684,99.4244
39.2208,99.4244
Z" /> 
</g>
<g style="fill:#E8B2A7; fill-opacity:1.0000; 
stroke:#E8B2A7; stroke-width:0.2000; stroke-opacity:1; 
stroke-linecap:round; stroke-linejoin:round;">
</g>
<g style="fill:#E8B2A7; fill-opacity:1.0000; 
stroke:#E8B2A7; stroke-width:0.0000; stroke-opacity:1; 
stroke-linecap:round; stroke-linejoin:round;">
<path style="fill:#E8B2A7; fill-opacity:1.0000; 
stroke:#E8B2A7; stroke-width:0.0000; stroke-opacity:1; 
stroke-linecap:round; stroke-linejoin:round;fill-rule:evenodd;"
d="M 36.7827,102.6672
36.6608,102.6672
36.5558,102.6322
36.4887,102.5651
36.4532,102.4942
36.4113,102.3263
36.4113,102.2081
36.4532,102.0402
36.4887,101.9693
36.5558,101.9022
36.6608,101.8672
36.7827,101.8672
Z" /> 
<path style="fill:#E8B2A7; fill-opacity:1.0000; 
stroke:#E8B2A7; stroke-width:0.0000; stroke-opacity:1; 
stroke-linecap:round; stroke-linejoin:round;fill-rule:evenodd;"
d="M 39.2208,103.0101
36.0684,103.0101
36.0684,102.3386
36.2113,102.3386
36.2151,102.3505
36.2143,102.3629
36.2619,102.5534
36.2678,102.5628
36.2695,102.5738
36.3171,102.6691
36.3284,102.6806
36.3358,102.6951
36.4310,102.7903
36.4516,102.8008
36.4701,102.8145
36.6130,102.8621
36.6292,102.8622
36.6446,102.8672
36.8827,102.8672
36.8978,102.8623
36.9136,102.8623
36.9264,102.8530
36.9415,102.8481
36.9508,102.8353
36.9636,102.8260
36.9685,102.8109
36.9778,102.7981
36.9778,102.7823
36.9827,102.7672
37.2589,102.7672
37.2606,102.7726
37.2595,102.7781
37.2701,102.8016
37.2780,102.8260
37.2826,102.8293
37.2849,102.8345
37.3072,102.8472
37.3280,102.8623
37.3336,102.8623
37.3385,102.8651
37.3641,102.8623
37.3898,102.8623
37.3944,102.8590
37.4000,102.8584
37.4190,102.8411
37.4398,102.8260
37.4415,102.8206
37.4457,102.8168
37.8303,102.1438
37.8303,102.7672
37.8494,102.8260
37.8994,102.8623
37.9612,102.8623
38.0112,102.8260
38.0303,102.7672
38.0303,102.6720
38.2589,102.6720
38.2614,102.6797
38.2601,102.6876
38.2708,102.7085
38.2780,102.7308
38.2845,102.7355
38.2882,102.7427
38.3358,102.7903
38.3563,102.8008
38.3749,102.8145
38.5178,102.8621
38.5340,102.8622
38.5494,102.8672
38.6446,102.8672
38.6600,102.8622
38.6762,102.8621
38.8191,102.8145
38.8376,102.8008
38.8582,102.7903
38.9534,102.6951
38.9608,102.6806
38.9721,102.6691
39.0198,102.5738
39.0214,102.5628
39.0273,102.5534
39.0750,102.3629
39.0741,102.3505
39.0779,102.3386
39.0779,102.1958
39.0741,102.1840
39.0750,102.1715
39.0273,101.9811
39.0214,101.9716
39.0198,101.9606
38.9721,101.8654
38.9608,101.8538
38.9534,101.8394
38.8582,101.7441
38.8376,101.7337
38.8191,101.7200
38.6762,101.6724
38.6600,101.6722
38.6446,101.6672
38.5018,101.6672
38.4798,101.6743
38.4570,101.6778
38.3618,101.7254
38.3178,101.7688
38.3076,101.8297
38.3353,101.8850
38.3901,101.9135
38.4512,101.9043
38.5254,101.8672
38.6284,101.8672
38.7334,101.9022
38.8005,101.9693
38.8360,102.0402
38.8779,102.2081
38.8779,102.3263
38.8360,102.4942
38.8005,102.5651
38.7334,102.6322
38.6284,102.6672
38.5656,102.6672
38.4605,102.6322
38.4589,102.6306
38.4589,102.4386
38.5494,102.4386
38.6082,102.4195
38.6445,102.3695
38.6445,102.3077
38.6082,102.2577
38.5494,102.2386
38.3589,102.2386
38.3438,102.2435
38.3280,102.2435
38.3152,102.2528
38.3001,102.2577
38.2908,102.2706
38.2780,102.2799
38.2731,102.2949
38.2638,102.3077
38.2638,102.3236
38.2589,102.3386
38.2589,102.6720
38.0303,102.6720
38.0303,101.7672
38.0286,101.7618
38.0297,101.7563
38.0192,101.7329
38.0112,101.7084
38.0067,101.7051
38.0043,101.7000
37.9820,101.6872
37.9612,101.6721
37.9556,101.6721
37.9507,101.6693
37.9251,101.6721
37.8994,101.6721
37.8949,101.6754
37.8892,101.6760
37.8702,101.6933
37.8494,101.7084
37.8477,101.7138
37.8435,101.7176
37.4589,102.3907
37.4589,101.7672
37.4398,101.7084
37.3898,101.6721
37.3280,101.6721
37.2780,101.7084
37.2589,101.7672
37.2589,102.7672
36.9827,102.7672
36.9827,101.7672
36.9778,101.7522
36.9778,101.7363
36.9685,101.7235
36.9636,101.7084
36.9508,101.6991
36.9415,101.6863
36.9264,101.6814
36.9136,101.6721
36.8978,101.6721
36.8827,101.6672
36.6446,101.6672
36.6292,101.6722
36.6130,101.6724
36.4701,101.7200
36.4516,101.7337
36.4310,101.7441
36.3358,101.8394
36.3284,101.8538
36.3171,101.8654
36.2695,101.9606
36.2678,101.9716
36.2619,101.9811
36.2143,102.1715
36.2151,102.1840
36.2113,102.1958
36.2113,102.3386
36.0684,102.3386
36.0684,101.5244
39.2208,101.5244
Z" /> 
</g>
<g style="fill:#E8B2A7; fill-opacity:1.0000; 
stroke:#E8B2A7; stroke-width:0.1500; stroke-opacity:1; 
stroke-linecap:round; stroke-linejoin:round;">
</g>
<g style="fill:#E8B2A7; fill-opacity:1.0000; 
stroke:#E8B2A7; stroke-width:0.0000; stroke-opacity:1; 
stroke-linecap:round; stroke-linejoin:round;">
<path style="fill:#E8B2A7; fill-opacity:1.0000; 
stroke:#E8B2A7; stroke-width:0.0000; stroke-opacity:1; 
stroke-linecap:round; stroke-linejoin:round;fill-rule:evenodd;"
d="M 89.1521,89.9940
89.2050,90.0469
89.2358,90.1702
89.2358,90.4184
89.2050,90.5417
89.1521,90.5946
89.1027,90.6193
88.9857,90.6193
88.9362,90.5946
88.8833,90.5417
88.8525,90.4184
88.8525,90.1702
88.8833,90.0469
88.9362,89.9940
88.9857,89.9693
89.1027,89.9693
Z" /> 
<path style="fill:#E8B2A7; fill-opacity:1.0000; 
stroke:#E8B2A7; stroke-width:0.0000; stroke-opacity:1; 
stroke-linecap:round; stroke-linejoin:round;fill-rule:evenodd;"
d="M 92.5045,89.9940
92.5574,90.0469
92.5882,90.1702
92.5882,90.4184
92.5574,90.5417
92.5045,90.5946
92.4550,90.6193
92.3381,90.6193
92.2886,90.5946
92.2357,90.5417
92.2049,90.4184
92.2049,90.1702
92.2357,90.0469
92.2886,89.9940
92.3381,89.9693
92.4550,89.9693
Z" /> 
<path style="fill:#E8B2A7; fill-opacity:1.0000; 
stroke:#E8B2A7; stroke-width:0.0000; stroke-opacity:1; 
stroke-linecap:round; stroke-linejoin:round;fill-rule:evenodd;"
d="M 94.2569,89.9940
94.2778,90.0149
94.3067,90.0729
94.3406,90.2083
94.3406,90.3803
94.3067,90.5157
94.2778,90.5737
94.2569,90.5946
94.2074,90.6193
94.1666,90.6193
94.1172,90.5946
94.0963,90.5737
94.0673,90.5157
94.0335,90.3803
94.0335,90.2083
94.0673,90.0729
94.0963,90.0149
94.1172,89.9940
94.1666,89.9693
94.2074,89.9693
Z" /> 
<path style="fill:#E8B2A7; fill-opacity:1.0000; 
stroke:#E8B2A7; stroke-width:0.0000; stroke-opacity:1; 
stroke-linecap:round; stroke-linejoin:round;fill-rule:evenodd;"
d="M 95.8569,89.9940
95.9098,90.0469
95.9406,90.1702
95.9406,90.4184
95.9098,90.5417
95.8569,90.5946
95.8074,90.6193
95.6904,90.6193
95.6410,90.5946
95.5881,90.5417
95.5573,90.4184
95.5573,90.1702
95.5881,90.0469
95.6410,89.9940
95.6904,89.9693
95.8074,89.9693
Z" /> 
<path style="fill:#E8B2A7; fill-opacity:1.0000; 
stroke:#E8B2A7; stroke-width:0.0000; stroke-opacity:1; 
stroke-linecap:round; stroke-linejoin:round;fill-rule:evenodd;"
d="M 99.2093,89.9940
99.2622,90.0469
99.2930,90.1702
99.2930,90.4184
99.2622,90.5417
99.2093,90.5946
99.1598,90.6193
99.0428,90.6193
98.9934,90.5946
98.9405,90.5417
98.9096,90.4184
98.9096,90.1702
98.9405,90.0469
98.9934,89.9940
99.0428,89.9693
99.1598,89.9693
Z" /> 
<path style="fill:#E8B2A7; fill-opacity:1.0000; 
stroke:#E8B2A7; stroke-width:0.0000; stroke-opacity:1; 
stroke-linecap:round; stroke-linejoin:round;fill-rule:evenodd;"
d="M 99.9001,90.8836
87.7883,90.8836
87.7883,89.8985
87.9026,89.8985
87.9086,89.9238
88.2514,90.7238
88.2865,90.7612
88.3375,90.7673
88.3804,90.7392
88.3952,90.6901
88.3893,90.6648
88.2877,90.4276
88.7025,90.4276
88.7037,90.4309
88.7047,90.4458
88.7428,90.5982
88.7470,90.6043
88.7476,90.6117
88.7626,90.6330
88.8388,90.7092
88.8402,90.7099
88.8583,90.7233
88.9344,90.7614
88.9389,90.7619
88.9423,90.7648
88.9680,90.7693
89.1204,90.7693
89.1246,90.7678
89.1289,90.7688
89.1539,90.7614
89.2301,90.7233
89.2312,90.7221
89.2496,90.7092
89.2645,90.6943
89.5787,90.6943
89.5962,90.7425
89.6407,90.7682
89.6912,90.7592
89.7242,90.7199
89.7287,90.6943
89.7287,90.5419
90.5311,90.5419
90.5326,90.5461
90.5316,90.5505
90.5390,90.5755
90.5771,90.6516
90.5783,90.6528
90.5911,90.6711
90.6292,90.7092
90.6307,90.7099
90.6487,90.7233
90.7249,90.7614
90.7294,90.7619
90.7328,90.7648
90.7585,90.7693
90.9489,90.7693
90.9531,90.7678
90.9575,90.7688
90.9825,90.7614
91.0587,90.7233
91.0598,90.7221
91.0782,90.7092
91.1163,90.6711
91.1379,90.6246
91.1247,90.5751
91.0826,90.5457
91.0315,90.5501
91.0102,90.5651
90.9807,90.5946
90.9312,90.6193
90.7762,90.6193
90.7267,90.5946
90.7058,90.5737
90.6899,90.5419
91.2930,90.5419
91.2945,90.5461
91.2935,90.5505
91.3009,90.5755
91.3390,90.6516
91.3402,90.6528
91.3530,90.6711
91.3911,90.7092
91.3926,90.7099
91.4106,90.7233
91.4868,90.7614
91.4913,90.7619
91.4947,90.7648
91.5204,90.7693
91.7489,90.7693
91.7531,90.7678
91.7575,90.7688
91.7825,90.7614
91.8587,90.7233
91.8598,90.7221
91.8782,90.7092
91.9163,90.6711
91.9379,90.6246
91.9247,90.5751
91.8826,90.5457
91.8315,90.5501
91.8102,90.5651
91.7807,90.5946
91.7312,90.6193
91.5381,90.6193
91.4886,90.5946
91.4677,90.5737
91.4430,90.5242
91.4430,90.4276
92.0549,90.4276
92.0561,90.4309
92.0571,90.4458
92.0952,90.5982
92.0994,90.6043
92.1000,90.6117
92.1149,90.6330
92.1911,90.7092
92.1926,90.7099
92.2106,90.7233
92.2868,90.7614
92.2913,90.7619
92.2947,90.7648
92.3204,90.7693
92.4727,90.7693
92.4770,90.7678
92.4813,90.7688
92.5063,90.7614
92.5825,90.7233
92.5836,90.7221
92.6020,90.7092
92.6169,90.6943
92.9311,90.6943
92.9486,90.7425
92.9931,90.7682
93.0436,90.7592
93.0766,90.7199
93.0811,90.6943
93.0811,90.3895
93.8835,90.3895
93.8846,90.3928
93.8857,90.4077
93.9238,90.5601
93.9258,90.5630
93.9295,90.5755
93.9676,90.6516
93.9688,90.6528
93.9816,90.6711
94.0197,90.7092
94.0212,90.7099
94.0392,90.7233
94.1154,90.7614
94.1198,90.7619
94.1233,90.7648
94.1489,90.7693
94.2251,90.7693
94.2293,90.7678
94.2337,90.7688
94.2587,90.7614
94.3349,90.7233
94.3360,90.7221
94.3543,90.7092
94.3823,90.6813
94.6465,90.6813
94.6554,90.7318
94.6947,90.7648
94.7204,90.7693
95.1775,90.7693
95.2257,90.7517
95.2514,90.7073
95.2425,90.6568
95.2032,90.6238
95.1775,90.6193
95.0239,90.6193
95.0239,90.4276
95.4073,90.4276
95.4085,90.4309
95.4095,90.4458
95.4476,90.5982
95.4517,90.6043
95.4524,90.6117
95.4673,90.6330
95.5435,90.7092
95.5450,90.7099
95.5630,90.7233
95.6392,90.7614
95.6437,90.7619
95.6471,90.7648
95.6727,90.7693
95.8251,90.7693
95.8293,90.7678
95.8337,90.7688
95.8587,90.7614
95.9349,90.7233
95.9360,90.7221
95.9543,90.7092
95.9693,90.6943
96.2835,90.6943
96.3010,90.7425
96.3454,90.7682
96.3960,90.7592
96.4289,90.7199
96.4335,90.6943
96.4335,90.6813
97.2370,90.6813
97.2459,90.7318
97.2852,90.7648
97.3108,90.7693
97.7680,90.7693
97.8162,90.7517
97.8418,90.7073
97.8373,90.6813
97.9989,90.6813
98.0078,90.7318
98.0471,90.7648
98.0727,90.7693
98.5299,90.7693
98.5781,90.7517
98.6037,90.7073
98.5948,90.6568
98.5555,90.6238
98.5299,90.6193
98.3763,90.6193
98.3763,90.4276
98.7596,90.4276
98.7608,90.4309
98.7619,90.4458
98.8000,90.5982
98.8041,90.6043
98.8048,90.6117
98.8197,90.6330
98.8959,90.7092
98.8974,90.7099
98.9154,90.7233
98.9916,90.7614
98.9960,90.7619
98.9995,90.7648
99.0251,90.7693
99.1775,90.7693
99.1817,90.7678
99.1861,90.7688
99.2110,90.7614
99.2872,90.7233
99.2884,90.7221
99.3067,90.7092
99.3217,90.6943
99.6358,90.6943
99.6534,90.7425
99.6978,90.7682
99.7483,90.7592
99.7813,90.7199
99.7858,90.6943
99.7858,89.8943
99.7683,89.8461
99.7239,89.8204
99.6733,89.8293
99.6404,89.8686
99.6358,89.8943
99.6358,90.6943
99.3217,90.6943
99.3829,90.6330
99.3860,90.6263
99.3920,90.6220
99.4026,90.5982
99.4407,90.4458
99.4404,90.4424
99.4430,90.4276
99.4430,90.1610
99.4418,90.1577
99.4407,90.1428
99.4026,89.9904
99.3985,89.9843
99.3979,89.9769
99.3829,89.9555
99.3067,89.8794
99.3052,89.8787
99.2872,89.8653
99.2110,89.8272
99.2066,89.8267
99.2032,89.8238
99.1775,89.8193
99.0251,89.8193
99.0209,89.8208
99.0166,89.8198
98.9916,89.8272
98.9154,89.8653
98.9143,89.8665
98.8959,89.8794
98.8197,89.9555
98.8166,89.9623
98.8106,89.9666
98.8000,89.9904
98.7619,90.1428
98.7622,90.1462
98.7596,90.1610
98.7596,90.4276
98.3763,90.4276
98.3763,90.1135
98.4007,90.1378
98.4021,90.1385
98.4202,90.1519
98.4963,90.1899
98.5473,90.1958
98.5901,90.1675
98.6048,90.1184
98.5844,90.0713
98.5634,90.0558
98.4981,90.0231
98.4358,89.9608
98.3637,89.8527
98.3602,89.8501
98.3588,89.8461
98.3399,89.8352
98.3224,89.8223
98.3181,89.8226
98.3143,89.8204
98.2929,89.8242
98.2712,89.8256
98.2681,89.8286
98.2638,89.8293
98.2498,89.8460
98.2341,89.8611
98.2336,89.8653
98.2308,89.8686
98.2263,89.8943
98.2263,90.6193
98.0727,90.6193
98.0245,90.6368
97.9989,90.6813
97.8373,90.6813
97.8329,90.6568
97.7936,90.6238
97.7680,90.6193
97.6144,90.6193
97.6144,90.1135
97.6388,90.1378
97.6402,90.1385
97.6583,90.1519
97.7344,90.1899
97.7854,90.1958
97.8282,90.1675
97.8428,90.1184
97.8224,90.0713
97.8015,90.0558
97.7362,90.0231
97.6739,89.9608
97.6018,89.8527
97.5983,89.8501
97.5969,89.8461
97.5780,89.8352
97.5605,89.8223
97.5562,89.8226
97.5524,89.8204
97.5310,89.8242
97.5093,89.8256
97.5062,89.8286
97.5019,89.8293
97.4879,89.8460
97.4722,89.8611
97.4717,89.8653
97.4689,89.8686
97.4644,89.8943
97.4644,90.6193
97.3108,90.6193
97.2626,90.6368
97.2370,90.6813
96.4335,90.6813
96.4335,89.8943
96.4159,89.8461
96.3715,89.8204
96.3210,89.8293
96.2880,89.8686
96.2835,89.8943
96.2835,90.6943
95.9693,90.6943
96.0305,90.6330
96.0337,90.6263
96.0397,90.6220
96.0503,90.5982
96.0884,90.4458
96.0880,90.4424
96.0906,90.4276
96.0906,90.1610
96.0894,90.1577
96.0884,90.1428
96.0503,89.9904
96.0461,89.9843
96.0455,89.9769
96.0305,89.9555
95.9543,89.8794
95.9529,89.8787
95.9349,89.8653
95.8587,89.8272
95.8542,89.8267
95.8508,89.8238
95.8251,89.8193
95.6727,89.8193
95.6685,89.8208
95.6642,89.8198
95.6392,89.8272
95.5630,89.8653
95.5619,89.8665
95.5435,89.8794
95.4673,89.9555
95.4642,89.9623
95.4582,89.9666
95.4476,89.9904
95.4095,90.1428
95.4099,90.1462
95.4073,90.1610
95.4073,90.4276
95.0239,90.4276
95.0239,90.1135
95.0483,90.1378
95.0498,90.1385
95.0678,90.1519
95.1440,90.1899
95.1949,90.1958
95.2377,90.1675
95.2524,90.1184
95.2320,90.0713
95.2110,90.0558
95.1457,90.0231
95.0834,89.9608
95.0113,89.8527
95.0079,89.8501
95.0064,89.8461
94.9875,89.8352
94.9700,89.8223
94.9657,89.8226
94.9620,89.8204
94.9405,89.8242
94.9188,89.8256
94.9157,89.8286
94.9114,89.8293
94.8974,89.8460
94.8817,89.8611
94.8812,89.8653
94.8785,89.8686
94.8739,89.8943
94.8739,90.6193
94.7204,90.6193
94.6722,90.6368
94.6465,90.6813
94.3823,90.6813
94.3924,90.6711
94.3931,90.6697
94.4065,90.6516
94.4446,90.5755
94.4450,90.5719
94.4503,90.5601
94.4884,90.4077
94.4880,90.4043
94.4906,90.3895
94.4906,90.1991
94.4894,90.1958
94.4884,90.1809
94.4503,90.0285
94.4483,90.0255
94.4446,90.0131
94.4065,89.9369
94.4053,89.9358
94.3924,89.9175
94.3543,89.8794
94.3529,89.8787
94.3349,89.8653
94.2587,89.8272
94.2542,89.8267
94.2508,89.8238
94.2251,89.8193
94.1489,89.8193
94.1447,89.8208
94.1404,89.8198
94.1154,89.8272
94.0392,89.8653
94.0381,89.8665
94.0197,89.8794
93.9816,89.9175
93.9809,89.9189
93.9676,89.9369
93.9295,90.0131
93.9291,90.0167
93.9238,90.0285
93.8857,90.1809
93.8861,90.1843
93.8835,90.1991
93.8835,90.3895
93.0811,90.3895
93.0811,89.8943
93.0635,89.8461
93.0191,89.8204
92.9686,89.8293
92.9356,89.8686
92.9311,89.8943
92.9311,90.6943
92.6169,90.6943
92.6782,90.6330
92.6813,90.6263
92.6873,90.6220
92.6979,90.5982
92.7360,90.4458
92.7356,90.4424
92.7382,90.4276
92.7382,90.1610
92.7370,90.1577
92.7360,90.1428
92.6979,89.9904
92.6937,89.9843
92.6931,89.9769
92.6782,89.9555
92.6020,89.8794
92.6005,89.8787
92.5825,89.8653
92.5063,89.8272
92.5018,89.8267
92.4984,89.8238
92.4727,89.8193
92.3204,89.8193
92.3161,89.8208
92.3118,89.8198
92.2868,89.8272
92.2106,89.8653
92.2095,89.8665
92.1911,89.8794
92.1149,89.9555
92.1118,89.9623
92.1058,89.9666
92.0952,89.9904
92.0571,90.1428
92.0575,90.1462
92.0549,90.1610
92.0549,90.4276
91.4430,90.4276
91.4430,90.3691
91.4677,90.3197
91.4886,90.2988
91.5381,90.2741
91.6346,90.2741
91.6536,90.2671
91.6735,90.2632
91.6772,90.2586
91.6829,90.2565
91.6930,90.2390
91.7056,90.2232
91.7055,90.2173
91.7085,90.2121
91.7050,90.1922
91.7046,90.1720
91.7001,90.1646
91.6996,90.1616
91.6969,90.1593
91.6911,90.1497
91.5333,89.9693
91.8632,89.9693
91.9114,89.9517
91.9371,89.9073
91.9282,89.8568
91.8889,89.8238
91.8632,89.8193
91.3680,89.8193
91.3490,89.8262
91.3291,89.8301
91.3254,89.8348
91.3198,89.8368
91.3097,89.8544
91.2970,89.8701
91.2971,89.8761
91.2941,89.8813
91.2976,89.9012
91.2981,89.9214
91.3025,89.9287
91.3030,89.9318
91.3057,89.9340
91.3115,89.9437
91.4795,90.1356
91.4106,90.1701
91.4095,90.1713
91.3911,90.1841
91.3530,90.2222
91.3524,90.2237
91.3390,90.2417
91.3009,90.3179
91.3004,90.3224
91.2975,90.3258
91.2930,90.3514
91.2930,90.5419
90.6899,90.5419
90.6811,90.5242
90.6811,90.3691
90.7058,90.3197
90.7267,90.2988
90.7762,90.2741
90.9312,90.2741
90.9807,90.2988
91.0102,90.3283
91.0106,90.3285
91.0108,90.3289
91.0339,90.3393
91.0567,90.3500
91.0572,90.3498
91.0576,90.3500
91.0819,90.3432
91.1062,90.3367
91.1065,90.3363
91.1070,90.3361
91.1212,90.3153
91.1357,90.2947
91.1356,90.2942
91.1359,90.2938
91.1378,90.2678
91.0998,89.8868
91.0928,89.8725
91.0901,89.8568
91.0820,89.8501
91.0775,89.8406
91.0630,89.8341
91.0508,89.8238
91.0336,89.8208
91.0307,89.8195
91.0290,89.8200
91.0251,89.8193
90.6442,89.8193
90.5960,89.8368
90.5703,89.8813
90.5792,89.9318
90.6185,89.9648
90.6442,89.9693
90.9573,89.9693
90.9732,90.1283
90.9489,90.1241
90.7585,90.1241
90.7542,90.1256
90.7499,90.1245
90.7249,90.1320
90.6487,90.1701
90.6476,90.1713
90.6292,90.1841
90.5911,90.2222
90.5904,90.2237
90.5771,90.2417
90.5390,90.3179
90.5385,90.3224
90.5356,90.3258
90.5311,90.3514
90.5311,90.5419
89.7287,90.5419
89.7287,89.8943
89.7111,89.8461
89.6667,89.8204
89.6162,89.8293
89.5832,89.8686
89.5787,89.8943
89.5787,90.6943
89.2645,90.6943
89.3258,90.6330
89.3289,90.6263
89.3349,90.6220
89.3455,90.5982
89.3836,90.4458
89.3832,90.4424
89.3858,90.4276
89.3858,90.1610
89.3847,90.1577
89.3836,90.1428
89.3455,89.9904
89.3414,89.9843
89.3407,89.9769
89.3258,89.9555
89.2496,89.8794
89.2481,89.8787
89.2301,89.8653
89.1539,89.8272
89.1495,89.8267
89.1460,89.8238
89.1204,89.8193
88.9680,89.8193
88.9638,89.8208
88.9594,89.8198
88.9344,89.8272
88.8583,89.8653
88.8571,89.8665
88.8388,89.8794
88.7626,89.9555
88.7594,89.9623
88.7535,89.9666
88.7428,89.9904
88.7047,90.1428
88.7051,90.1462
88.7025,90.1610
88.7025,90.4276
88.2877,90.4276
88.0912,89.9693
88.5108,89.9693
88.5590,89.9517
88.5847,89.9073
88.5758,89.8568
88.5365,89.8238
88.5108,89.8193
87.9775,89.8193
87.9692,89.8223
87.9604,89.8213
87.9457,89.8309
87.9293,89.8368
87.9249,89.8445
87.9175,89.8494
87.9124,89.8661
87.9036,89.8813
87.9052,89.8900
87.9026,89.8985
87.7883,89.8985
87.7883,89.7050
99.9001,89.7050
Z" /> 
</g>
<g style="fill:#E8B2A7; fill-opacity:1.0000; 
stroke:#E8B2A7; stroke-width:0.2000; stroke-opacity:1; 
stroke-linecap:round; stroke-linejoin:round;">
</g>
<g style="fill:#E8B2A7; fill-opacity:1.0000; 
stroke:#E8B2A7; stroke-width:0.0000; stroke-opacity:1; 
stroke-linecap:round; stroke-linejoin:round;">
<path style="fill:#E8B2A7; fill-opacity:1.0000; 
stroke:#E8B2A7; stroke-width:0.0000; stroke-opacity:1; 
stroke-linecap:round; stroke-linejoin:round;fill-rule:evenodd;"
d="M 38.6114,105.1101
36.0827,105.1101
36.0827,104.8672
36.2256,104.8672
36.2273,104.8726
36.2262,104.8781
36.2367,104.9016
36.2447,104.9260
36.2492,104.9293
36.2515,104.9345
36.2739,104.9472
36.2947,104.9623
36.3003,104.9623
36.3052,104.9651
36.3308,104.9623
36.3565,104.9623
36.3610,104.9590
36.3666,104.9584
36.3857,104.9411
36.4065,104.9260
36.4082,104.9206
36.4124,104.9168
36.7970,104.2438
36.7970,104.8672
36.8161,104.9260
36.8661,104.9623
36.9279,104.9623
36.9779,104.9260
36.9970,104.8672
37.2732,104.8672
37.2923,104.9260
37.3423,104.9623
37.4041,104.9623
37.4541,104.9260
37.4732,104.8672
37.4732,103.8672
37.4634,103.8370
37.6112,103.8370
37.6116,103.8988
37.9450,104.8988
37.9629,104.9231
37.9805,104.9477
37.9812,104.9479
37.9817,104.9486
38.0105,104.9577
38.0391,104.9672
38.0399,104.9670
38.0406,104.9672
38.0692,104.9577
38.0980,104.9486
38.0985,104.9479
38.0992,104.9477
38.1168,104.9231
38.1347,104.8988
38.4681,103.8988
38.4685,103.8370
38.4326,103.7868
38.3739,103.7672
38.3150,103.7859
38.2783,103.8356
38.0399,104.5510
37.8014,103.8356
37.7647,103.7859
37.7058,103.7672
37.6471,103.7868
37.6112,103.8370
37.4634,103.8370
37.4541,103.8084
37.4041,103.7721
37.3423,103.7721
37.2923,103.8084
37.2732,103.8672
37.2732,104.8672
36.9970,104.8672
36.9970,103.8672
36.9952,103.8618
36.9964,103.8563
36.9858,103.8329
36.9779,103.8084
36.9733,103.8051
36.9710,103.8000
36.9487,103.7872
36.9279,103.7721
36.9222,103.7721
36.9173,103.7693
36.8918,103.7721
36.8661,103.7721
36.8615,103.7754
36.8559,103.7760
36.8369,103.7933
36.8161,103.8084
36.8143,103.8138
36.8102,103.8176
36.4256,104.4907
36.4256,103.8672
36.4065,103.8084
36.3565,103.7721
36.2947,103.7721
36.2447,103.8084
36.2256,103.8672
36.2256,104.8672
36.0827,104.8672
36.0827,103.6244
38.6114,103.6244
Z" /> 
</g>
<g style="fill:#E8B2A7; fill-opacity:1.0000; 
stroke:#E8B2A7; stroke-width:0.1500; stroke-opacity:1; 
stroke-linecap:round; stroke-linejoin:round;">
</g>
<g style="fill:#E8B2A7; fill-opacity:0.0; 
stroke:#E8B2A7; stroke-width:0.1500; stroke-opacity:1; 
stroke-linecap:round; stroke-linejoin:round;">
<text x="112.0000" y="85.5600"
transform="scale(-1 1) translate(-224.000000 0)"
textLength="4.0119" font-size="1.3333" lengthAdjust="spacingAndGlyphs"
text-anchor="middle" opacity="0">POT2</text>
<g class="stroked-text"><desc>POT2</desc>
<path d="M113.6429 85.5148
L113.6429 84.5148
" />
<path d="M113.6429 84.5148
L113.2619 84.5148
" />
<path d="M113.2619 84.5148
L113.1667 84.5624
" />
<path d="M113.1667 84.5624
L113.1190 84.6101
" />
<path d="M113.1190 84.6101
L113.0714 84.7053
" />
<path d="M113.0714 84.7053
L113.0714 84.8482
" />
<path d="M113.0714 84.8482
L113.1190 84.9434
" />
<path d="M113.1190 84.9434
L113.1667 84.9910
" />
<path d="M113.1667 84.9910
L113.2619 85.0386
" />
<path d="M113.2619 85.0386
L113.6429 85.0386
" />
<path d="M112.4524 84.5148
L112.2619 84.5148
" />
<path d="M112.2619 84.5148
L112.1667 84.5624
" />
<path d="M112.1667 84.5624
L112.0714 84.6577
" />
<path d="M112.0714 84.6577
L112.0238 84.8482
" />
<path d="M112.0238 84.8482
L112.0238 85.1815
" />
<path d="M112.0238 85.1815
L112.0714 85.3720
" />
<path d="M112.0714 85.3720
L112.1667 85.4672
" />
<path d="M112.1667 85.4672
L112.2619 85.5148
" />
<path d="M112.2619 85.5148
L112.4524 85.5148
" />
<path d="M112.4524 85.5148
L112.5476 85.4672
" />
<path d="M112.5476 85.4672
L112.6429 85.3720
" />
<path d="M112.6429 85.3720
L112.6905 85.1815
" />
<path d="M112.6905 85.1815
L112.6905 84.8482
" />
<path d="M112.6905 84.8482
L112.6429 84.6577
" />
<path d="M112.6429 84.6577
L112.5476 84.5624
" />
<path d="M112.5476 84.5624
L112.4524 84.5148
" />
<path d="M111.7381 84.5148
L111.1667 84.5148
" />
<path d="M111.4524 85.5148
L111.4524 84.5148
" />
<path d="M110.8810 84.6101
L110.8333 84.5624
" />
<path d="M110.8333 84.5624
L110.7381 84.5148
" />
<path d="M110.7381 84.5148
L110.5000 84.5148
" />
<path d="M110.5000 84.5148
L110.4048 84.5624
" />
<path d="M110.4048 84.5624
L110.3571 84.6101
" />
<path d="M110.3571 84.6101
L110.3095 84.7053
" />
<path d="M110.3095 84.7053
L110.3095 84.8005
" />
<path d="M110.3095 84.8005
L110.3571 84.9434
" />
<path d="M110.3571 84.9434
L110.9286 85.5148
" />
<path d="M110.9286 85.5148
L110.3095 85.5148
" />
</g><g transform="rotate(-90.000000 65.4000 103.7000)">
<text x="65.4000" y="104.2000"
transform="scale(-1 1) translate(-130.800000 0)"
textLength="3.1548" font-size="1.3333" lengthAdjust="spacingAndGlyphs"
text-anchor="middle" opacity="0">C12</text>
</g>
<g class="stroked-text"><desc>C12</desc>
<path d="M65.7596 103.0571
L65.8072 103.0095
" />
<path d="M65.8072 103.0095
L65.8548 102.8667
" />
<path d="M65.8548 102.8667
L65.8548 102.7714
" />
<path d="M65.8548 102.7714
L65.8072 102.6286
" />
<path d="M65.8072 102.6286
L65.7120 102.5333
" />
<path d="M65.7120 102.5333
L65.6167 102.4857
" />
<path d="M65.6167 102.4857
L65.4262 102.4381
" />
<path d="M65.4262 102.4381
L65.2834 102.4381
" />
<path d="M65.2834 102.4381
L65.0929 102.4857
" />
<path d="M65.0929 102.4857
L64.9977 102.5333
" />
<path d="M64.9977 102.5333
L64.9024 102.6286
" />
<path d="M64.9024 102.6286
L64.8548 102.7714
" />
<path d="M64.8548 102.7714
L64.8548 102.8667
" />
<path d="M64.8548 102.8667
L64.9024 103.0095
" />
<path d="M64.9024 103.0095
L64.9501 103.0571
" />
<path d="M65.8548 104.0095
L65.8548 103.4381
" />
<path d="M65.8548 103.7238
L64.8548 103.7238
" />
<path d="M64.8548 103.7238
L64.9977 103.6286
" />
<path d="M64.9977 103.6286
L65.0929 103.5333
" />
<path d="M65.0929 103.5333
L65.1405 103.4381
" />
<path d="M64.9501 104.3905
L64.9024 104.4381
" />
<path d="M64.9024 104.4381
L64.8548 104.5333
" />
<path d="M64.8548 104.5333
L64.8548 104.7714
" />
<path d="M64.8548 104.7714
L64.9024 104.8667
" />
<path d="M64.9024 104.8667
L64.9501 104.9143
" />
<path d="M64.9501 104.9143
L65.0453 104.9619
" />
<path d="M65.0453 104.9619
L65.1405 104.9619
" />
<path d="M65.1405 104.9619
L65.2834 104.9143
" />
<path d="M65.2834 104.9143
L65.8548 104.3429
" />
<path d="M65.8548 104.3429
L65.8548 104.9619
" />
</g><g transform="rotate(-90.000000 70.9000 104.1000)">
<text x="70.9000" y="104.6000"
transform="scale(-1 1) translate(-141.800000 0)"
textLength="2.2024" font-size="1.3333" lengthAdjust="spacingAndGlyphs"
text-anchor="middle" opacity="0">R6</text>
</g>
<g class="stroked-text"><desc>R6</desc>
<path d="M71.3548 103.9333
L70.8786 103.6000
" />
<path d="M71.3548 103.3619
L70.3548 103.3619
" />
<path d="M70.3548 103.3619
L70.3548 103.7429
" />
<path d="M70.3548 103.7429
L70.4024 103.8381
" />
<path d="M70.4024 103.8381
L70.4501 103.8857
" />
<path d="M70.4501 103.8857
L70.5453 103.9333
" />
<path d="M70.5453 103.9333
L70.6882 103.9333
" />
<path d="M70.6882 103.9333
L70.7834 103.8857
" />
<path d="M70.7834 103.8857
L70.8310 103.8381
" />
<path d="M70.8310 103.8381
L70.8786 103.7429
" />
<path d="M70.8786 103.7429
L70.8786 103.3619
" />
<path d="M70.3548 104.7905
L70.3548 104.6000
" />
<path d="M70.3548 104.6000
L70.4024 104.5048
" />
<path d="M70.4024 104.5048
L70.4501 104.4571
" />
<path d="M70.4501 104.4571
L70.5929 104.3619
" />
<path d="M70.5929 104.3619
L70.7834 104.3143
" />
<path d="M70.7834 104.3143
L71.1643 104.3143
" />
<path d="M71.1643 104.3143
L71.2596 104.3619
" />
<path d="M71.2596 104.3619
L71.3072 104.4095
" />
<path d="M71.3072 104.4095
L71.3548 104.5048
" />
<path d="M71.3548 104.5048
L71.3548 104.6952
" />
<path d="M71.3548 104.6952
L71.3072 104.7905
" />
<path d="M71.3072 104.7905
L71.2596 104.8381
" />
<path d="M71.2596 104.8381
L71.1643 104.8857
" />
<path d="M71.1643 104.8857
L70.9262 104.8857
" />
<path d="M70.9262 104.8857
L70.8310 104.8381
" />
<path d="M70.8310 104.8381
L70.7834 104.7905
" />
<path d="M70.7834 104.7905
L70.7358 104.6952
" />
<path d="M70.7358 104.6952
L70.7358 104.5048
" />
<path d="M70.7358 104.5048
L70.7834 104.4095
" />
<path d="M70.7834 104.4095
L70.8310 104.3619
" />
<path d="M70.8310 104.3619
L70.9262 104.3143
" />
</g><text x="73.1000" y="99.7000"
transform="scale(-1 1) translate(-146.200000 0)"
textLength="3.1548" font-size="1.3333" lengthAdjust="spacingAndGlyphs"
text-anchor="middle" opacity="0">C11</text>
<g class="stroked-text"><desc>C11</desc>
<path d="M73.7429 99.5596
L73.7905 99.6072
" />
<path d="M73.7905 99.6072
L73.9333 99.6548
" />
<path d="M73.9333 99.6548
L74.0286 99.6548
" />
<path d="M74.0286 99.6548
L74.1714 99.6072
" />
<path d="M74.1714 99.6072
L74.2667 99.5120
" />
<path d="M74.2667 99.5120
L74.3143 99.4167
" />
<path d="M74.3143 99.4167
L74.3619 99.2262
" />
<path d="M74.3619 99.2262
L74.3619 99.0834
" />
<path d="M74.3619 99.0834
L74.3143 98.8929
" />
<path d="M74.3143 98.8929
L74.2667 98.7977
" />
<path d="M74.2667 98.7977
L74.1714 98.7024
" />
<path d="M74.1714 98.7024
L74.0286 98.6548
" />
<path d="M74.0286 98.6548
L73.9333 98.6548
" />
<path d="M73.9333 98.6548
L73.7905 98.7024
" />
<path d="M73.7905 98.7024
L73.7429 98.7501
" />
<path d="M72.7905 99.6548
L73.3619 99.6548
" />
<path d="M73.0762 99.6548
L73.0762 98.6548
" />
<path d="M73.0762 98.6548
L73.1714 98.7977
" />
<path d="M73.1714 98.7977
L73.2667 98.8929
" />
<path d="M73.2667 98.8929
L73.3619 98.9405
" />
<path d="M71.8381 99.6548
L72.4095 99.6548
" />
<path d="M72.1238 99.6548
L72.1238 98.6548
" />
<path d="M72.1238 98.6548
L72.2190 98.7977
" />
<path d="M72.2190 98.7977
L72.3143 98.8929
" />
<path d="M72.3143 98.8929
L72.4095 98.9405
" />
</g><text x="82.2000" y="102.8450"
transform="scale(-1 1) translate(-164.400000 0)"
textLength="2.2024" font-size="1.3333" lengthAdjust="spacingAndGlyphs"
text-anchor="middle" opacity="0">C4</text>
<g class="stroked-text"><desc>C4</desc>
<path d="M82.3667 102.7046
L82.4143 102.7522
" />
<path d="M82.4143 102.7522
L82.5571 102.7998
" />
<path d="M82.5571 102.7998
L82.6524 102.7998
" />
<path d="M82.6524 102.7998
L82.7952 102.7522
" />
<path d="M82.7952 102.7522
L82.8905 102.6570
" />
<path d="M82.8905 102.6570
L82.9381 102.5617
" />
<path d="M82.9381 102.5617
L82.9857 102.3712
" />
<path d="M82.9857 102.3712
L82.9857 102.2284
" />
<path d="M82.9857 102.2284
L82.9381 102.0379
" />
<path d="M82.9381 102.0379
L82.8905 101.9427
" />
<path d="M82.8905 101.9427
L82.7952 101.8474
" />
<path d="M82.7952 101.8474
L82.6524 101.7998
" />
<path d="M82.6524 101.7998
L82.5571 101.7998
" />
<path d="M82.5571 101.7998
L82.4143 101.8474
" />
<path d="M82.4143 101.8474
L82.3667 101.8951
" />
<path d="M81.5095 102.1332
L81.5095 102.7998
" />
<path d="M81.7476 101.7522
L81.9857 102.4665
" />
<path d="M81.9857 102.4665
L81.3667 102.4665
" />
</g><text x="78.2148" y="99.5150"
transform="scale(-1 1) translate(-156.429692 0)"
textLength="2.2024" font-size="1.3333" lengthAdjust="spacingAndGlyphs"
text-anchor="middle" opacity="0">R2</text>
<g class="stroked-text"><desc>R2</desc>
<path d="M78.3815 99.4698
L78.7148 98.9936
" />
<path d="M78.9529 99.4698
L78.9529 98.4698
" />
<path d="M78.9529 98.4698
L78.5720 98.4698
" />
<path d="M78.5720 98.4698
L78.4767 98.5174
" />
<path d="M78.4767 98.5174
L78.4291 98.5651
" />
<path d="M78.4291 98.5651
L78.3815 98.6603
" />
<path d="M78.3815 98.6603
L78.3815 98.8032
" />
<path d="M78.3815 98.8032
L78.4291 98.8984
" />
<path d="M78.4291 98.8984
L78.4767 98.9460
" />
<path d="M78.4767 98.9460
L78.5720 98.9936
" />
<path d="M78.5720 98.9936
L78.9529 98.9936
" />
<path d="M78.0006 98.5651
L77.9529 98.5174
" />
<path d="M77.9529 98.5174
L77.8577 98.4698
" />
<path d="M77.8577 98.4698
L77.6196 98.4698
" />
<path d="M77.6196 98.4698
L77.5244 98.5174
" />
<path d="M77.5244 98.5174
L77.4767 98.5651
" />
<path d="M77.4767 98.5651
L77.4291 98.6603
" />
<path d="M77.4291 98.6603
L77.4291 98.7555
" />
<path d="M77.4291 98.7555
L77.4767 98.8984
" />
<path d="M77.4767 98.8984
L78.0482 99.4698
" />
<path d="M78.0482 99.4698
L77.4291 99.4698
" />
</g><text x="68.3000" y="99.6750"
transform="scale(-1 1) translate(-136.600000 0)"
textLength="2.2024" font-size="1.3333" lengthAdjust="spacingAndGlyphs"
text-anchor="middle" opacity="0">R7</text>
<g class="stroked-text"><desc>R7</desc>
<path d="M68.4667 99.6298
L68.8000 99.1536
" />
<path d="M69.0381 99.6298
L69.0381 98.6298
" />
<path d="M69.0381 98.6298
L68.6571 98.6298
" />
<path d="M68.6571 98.6298
L68.5619 98.6774
" />
<path d="M68.5619 98.6774
L68.5143 98.7251
" />
<path d="M68.5143 98.7251
L68.4667 98.8203
" />
<path d="M68.4667 98.8203
L68.4667 98.9632
" />
<path d="M68.4667 98.9632
L68.5143 99.0584
" />
<path d="M68.5143 99.0584
L68.5619 99.1060
" />
<path d="M68.5619 99.1060
L68.6571 99.1536
" />
<path d="M68.6571 99.1536
L69.0381 99.1536
" />
<path d="M68.1333 98.6298
L67.4667 98.6298
" />
<path d="M67.4667 98.6298
L67.8952 99.6298
" />
</g></g>
<g style="fill:#E8B2A7; fill-opacity:0.0; 
stroke:#E8B2A7; stroke-width:0.5080; stroke-opacity:1; 
stroke-linecap:round; stroke-linejoin:round;">
<circle cx="93.3676" cy="137.7284" r="0.3810" /> 
</g>
<g style="fill:#E8B2A7; fill-opacity:0.0; 
stroke:#E8B2A7; stroke-width:0.1524; stroke-opacity:1; 
stroke-linecap:round; stroke-linejoin:round;">
<circle cx="114.5400" cy="88.2350" r="0.0762" /> 
<circle cx="112.0000" cy="85.0600" r="4.8895" /> 
</g>
<g style="fill:#E8B2A7; fill-opacity:0.0; 
stroke:#E8B2A7; stroke-width:0.1200; stroke-opacity:1; 
stroke-linecap:round; stroke-linejoin:round;">
<path d="M67.8350 103.7387
L67.8350 104.2613
" />
<path d="M66.3650 103.7387
L66.3650 104.2613
" />
<path d="M82.8447 104.3791
L82.8447 108.6209
" />
<path d="M82.6821 104.3791
L82.8447 104.3791
" />
<path d="M77.4853 104.3791
L77.6479 104.3791
" />
<path d="M82.8447 108.6209
L82.6821 108.6209
" />
<path d="M77.6479 108.6209
L77.4853 108.6209
" />
<path d="M77.4853 108.6209
L77.4853 104.3791
" />
</g>
<g style="fill:#E8B2A7; fill-opacity:0.0; 
stroke:#E8B2A7; stroke-width:0.1270; stroke-opacity:1; 
stroke-linecap:round; stroke-linejoin:round;">
<path d="M91.1550 128.7650
L92.1550 128.7650
" />
<path d="M91.6550 129.2650
L91.6550 128.2650
" />
<path d="M97.7150 120.4600
L97.7150 125.8450
" />
<path d="M97.7150 131.6850
L97.7150 137.0700
" />
<path d="M97.7150 137.0700
L107.2450 137.0700
" />
<path d="M107.2450 120.4600
L97.7150 120.4600
" />
<path d="M107.2450 124.3200
L107.2450 120.4600
" />
<path d="M107.2450 133.2100
L110.7150 133.2100
" />
<path d="M107.2450 137.0700
L107.2450 133.2100
" />
<path d="M110.7150 124.3200
L107.2450 124.3200
" />
<path d="M110.7150 124.3200
L110.7150 126.7950
" />
<path d="M110.7150 133.2100
L110.7150 130.7350
" />
</g>
<g style="fill:#E8B2A7; fill-opacity:0.0; 
stroke:#E8B2A7; stroke-width:0.1200; stroke-opacity:1; 
stroke-linecap:round; stroke-linejoin:round;">
<path d="M70.3350 103.7729
L70.3350 104.2271
" />
<path d="M68.8650 103.7729
L68.8650 104.2271
" />
</g>
<g style="fill:#E8B2A7; fill-opacity:0.0; 
stroke:#E8B2A7; stroke-width:0.1270; stroke-opacity:1; 
stroke-linecap:round; stroke-linejoin:round;">
<path d="M68.9000 106.2500
L73.4000 106.2500
" />
<path d="M68.9000 109.2800
L73.4000 109.2800
" />
</g>
<g style="fill:#E8B2A7; fill-opacity:0.0; 
stroke:#E8B2A7; stroke-width:0.2000; stroke-opacity:1; 
stroke-linecap:round; stroke-linejoin:round;">
<circle cx="66.7100" cy="109.1400" r="0.1000" /> 
</g>
<g style="fill:#E8B2A7; fill-opacity:0.0; 
stroke:#E8B2A7; stroke-width:0.1200; stroke-opacity:1; 
stroke-linecap:round; stroke-linejoin:round;">
<path d="M72.9387 100.0900
L73.4613 100.0900
" />
<path d="M72.9387 101.5600
L73.4613 101.5600
" />
<path d="M81.9387 99.9300
L82.4613 99.9300
" />
<path d="M81.9387 101.4000
L82.4613 101.4000
" />
</g>
<g style="fill:#E8B2A7; fill-opacity:0.0; 
stroke:#E8B2A7; stroke-width:0.1270; stroke-opacity:1; 
stroke-linecap:round; stroke-linejoin:round;">
<path d="M61.1450 128.7650
L60.1450 128.7650
" />
<path d="M60.6450 128.2650
L60.6450 129.2650
" />
<path d="M54.5850 137.0700
L54.5850 131.6850
" />
<path d="M54.5850 125.8450
L54.5850 120.4600
" />
<path d="M54.5850 120.4600
L45.0550 120.4600
" />
<path d="M45.0550 137.0700
L54.5850 137.0700
" />
<path d="M45.0550 133.2100
L45.0550 137.0700
" />
<path d="M45.0550 124.3200
L41.5850 124.3200
" />
<path d="M45.0550 120.4600
L45.0550 124.3200
" />
<path d="M41.5850 133.2100
L45.0550 133.2100
" />
<path d="M41.5850 133.2100
L41.5850 130.7350
" />
<path d="M41.5850 124.3200
L41.5850 126.7950
" />
</g>
<g style="fill:#E8B2A7; fill-opacity:0.0; 
stroke:#E8B2A7; stroke-width:0.1200; stroke-opacity:1; 
stroke-linecap:round; stroke-linejoin:round;">
<path d="M78.4419 101.4000
L77.9878 101.4000
" />
<path d="M78.4419 99.9300
L77.9878 99.9300
" />
</g>
<g style="fill:#E8B2A7; fill-opacity:0.0; 
stroke:#E8B2A7; stroke-width:0.1524; stroke-opacity:1; 
stroke-linecap:round; stroke-linejoin:round;">
<path d="M72.5900 105.3870
L74.2100 105.3870
" />
<path d="M74.2100 105.3870
L74.2100 105.2930
" />
<path d="M72.5900 105.2930
L72.5900 105.3870
" />
<path d="M74.2100 104.4870
L74.2100 103.4430
" />
<path d="M72.5900 104.3930
L72.5900 104.4870
" />
<path d="M72.5900 103.4430
L72.5900 103.5370
" />
<path d="M74.2100 102.6370
L74.2100 102.5430
" />
<path d="M72.5900 102.5430
L72.5900 102.6370
" />
<path d="M74.2100 102.5430
L72.5900 102.5430
" />
</g>
<g style="fill:#E8B2A7; fill-opacity:0.0; 
stroke:#E8B2A7; stroke-width:0.1270; stroke-opacity:1; 
stroke-linecap:round; stroke-linejoin:round;">
<circle cx="73.1000" cy="104.9650" r="0.1000" /> 
</g>
<g style="fill:#E8B2A7; fill-opacity:0.0; 
stroke:#E8B2A7; stroke-width:0.1200; stroke-opacity:1; 
stroke-linecap:round; stroke-linejoin:round;">
<path d="M68.5271 101.5600
L68.0729 101.5600
" />
<path d="M68.5271 100.0900
L68.0729 100.0900
" />
<g >
</g>
<g >
</g>
<g >
</g>
<g >
</g>
<g >
</g>
<g >
</g>
<g >
</g>
<g >
</g>
<g >
</g>
<g >
</g>
<g >
</g>
<g >
</g>
<g >
</g>
<g >
</g>
<g >
</g>
<g >
</g>
<g >
</g>
<g >
</g>
<g >
</g>
<g >
</g>
<g >
</g>
<g >
</g>
<g >
</g>
<g >
</g>
<g >
</g>
<g >
</g>
<g >
</g>
<g >
</g>
<g >
</g>
<g >
</g>
<g >
</g>
<g >
</g>
<g >
</g>
<g >
</g>
<g >
</g>
<g >
</g>
<g >
</g>
<g >
</g>
<g >
</g>
<g >
</g>
<g >
</g>
<g >
</g>
<g >
</g>
<g >
</g>
<g >
</g>
<g >
</g>
<g >
</g>
<g >
</g>
<g >
</g>
<g >
</g>
<g >
</g>
<g >
</g>
<g >
</g>
<g >
</g>
</g> 
</svg>
