<?xml version="1.0" standalone="no"?>
 <!DOCTYPE svg PUBLIC "-//W3C//DTD SVG 1.1//EN" 
 "http://www.w3.org/Graphics/SVG/1.1/DTD/svg11.dtd"> 
<svg
  xmlns:svg="http://www.w3.org/2000/svg"
  xmlns="http://www.w3.org/2000/svg"
  xmlns:xlink="http://www.w3.org/1999/xlink"
  version="1.1"
  width="297.0022mm" height="210.0072mm" viewBox="0.0000 0.0000 297.0022 210.0072">
<title>SVG Image created as CONTROL WIFI ESP32 S3 V4.0-B_Mask.svg date 2024/03/27 21:43:53 </title>
  <desc>Image generated by PCBNEW </desc>
<g style="fill:#000000; fill-opacity:1.0000;stroke:#000000; stroke-opacity:1.0000;
stroke-linecap:round; stroke-linejoin:round;"
 transform="translate(0 0) scale(1 1)">
</g>
<g style="fill:#000000; fill-opacity:0.0; 
stroke:#000000; stroke-width:0.0000; stroke-opacity:1; 
stroke-linecap:round; stroke-linejoin:round;">
</g>
<g style="fill:#02FFEE; fill-opacity:0.0; 
stroke:#02FFEE; stroke-width:0.0000; stroke-opacity:1; 
stroke-linecap:round; stroke-linejoin:round;">
</g>
<g style="fill:#02FFEE; fill-opacity:0.4000; 
stroke:#02FFEE; stroke-width:0.0100; stroke-opacity:1; 
stroke-linecap:round; stroke-linejoin:round;">
<path style="fill:#02FFEE; fill-opacity:0.4000; 
stroke:#02FFEE; stroke-width:0.0100; stroke-opacity:1; 
stroke-linecap:round; stroke-linejoin:round;fill-rule:evenodd;"
d="M 56.2540,85.9010
56.2880,85.9040
56.3220,85.9080
56.3550,85.9140
56.3880,85.9220
56.4210,85.9320
56.4530,85.9430
56.4840,85.9560
56.5150,85.9710
56.5450,85.9870
56.5740,86.0050
56.6020,86.0240
56.6290,86.0450
56.6550,86.0670
56.6800,86.0900
56.7030,86.1150
56.7250,86.1410
56.7460,86.1680
56.7650,86.1960
56.7830,86.2250
56.7990,86.2550
56.8140,86.2860
56.8270,86.3170
56.8380,86.3490
56.8480,86.3820
56.8560,86.4150
56.8620,86.4480
56.8660,86.4820
56.8690,86.5160
56.8700,86.5500
56.8700,87.1500
56.8690,87.1840
56.8660,87.2180
56.8620,87.2520
56.8560,87.2850
56.8480,87.3180
56.8380,87.3510
56.8270,87.3830
56.8140,87.4140
56.7990,87.4450
56.7830,87.4750
56.7650,87.5040
56.7460,87.5320
56.7250,87.5590
56.7030,87.5850
56.6800,87.6100
56.6550,87.6330
56.6290,87.6550
56.6020,87.6760
56.5740,87.6950
56.5450,87.7130
56.5150,87.7290
56.4840,87.7440
56.4530,87.7570
56.4210,87.7680
56.3880,87.7780
56.3550,87.7860
56.3220,87.7920
56.2880,87.7960
56.2540,87.7990
56.2200,87.8000
56.1860,87.7990
56.1520,87.7960
56.1180,87.7920
56.0850,87.7860
56.0520,87.7780
56.0190,87.7680
55.9870,87.7570
55.9560,87.7440
55.9250,87.7290
55.8950,87.7130
55.8660,87.6950
55.8380,87.6760
55.8110,87.6550
55.7850,87.6330
55.7600,87.6100
55.7370,87.5850
55.7150,87.5590
55.6940,87.5320
55.6750,87.5040
55.6570,87.4750
55.6410,87.4450
55.6260,87.4140
55.6130,87.3830
55.6020,87.3510
55.5920,87.3180
55.5840,87.2850
55.5780,87.2520
55.5740,87.2180
55.5710,87.1840
55.5700,87.1500
55.5700,86.5500
55.5710,86.5160
55.5740,86.4820
55.5780,86.4480
55.5840,86.4150
55.5920,86.3820
55.6020,86.3490
55.6130,86.3170
55.6260,86.2860
55.6410,86.2550
55.6570,86.2250
55.6750,86.1960
55.6940,86.1680
55.7150,86.1410
55.7370,86.1150
55.7600,86.0900
55.7850,86.0670
55.8110,86.0450
55.8380,86.0240
55.8660,86.0050
55.8950,85.9870
55.9250,85.9710
55.9560,85.9560
55.9870,85.9430
56.0190,85.9320
56.0520,85.9220
56.0850,85.9140
56.1180,85.9080
56.1520,85.9040
56.1860,85.9010
56.2200,85.9000
Z" /> 
<path style="fill:#02FFEE; fill-opacity:0.4000; 
stroke:#02FFEE; stroke-width:0.0100; stroke-opacity:1; 
stroke-linecap:round; stroke-linejoin:round;fill-rule:evenodd;"
d="M 56.2540,82.1010
56.2880,82.1040
56.3220,82.1080
56.3550,82.1140
56.3880,82.1220
56.4210,82.1320
56.4530,82.1430
56.4840,82.1560
56.5150,82.1710
56.5450,82.1870
56.5740,82.2050
56.6020,82.2240
56.6290,82.2450
56.6550,82.2670
56.6800,82.2900
56.7030,82.3150
56.7250,82.3410
56.7460,82.3680
56.7650,82.3960
56.7830,82.4250
56.7990,82.4550
56.8140,82.4860
56.8270,82.5170
56.8380,82.5490
56.8480,82.5820
56.8560,82.6150
56.8620,82.6480
56.8660,82.6820
56.8690,82.7160
56.8700,82.7500
56.8700,83.3500
56.8690,83.3840
56.8660,83.4180
56.8620,83.4520
56.8560,83.4850
56.8480,83.5180
56.8380,83.5510
56.8270,83.5830
56.8140,83.6140
56.7990,83.6450
56.7830,83.6750
56.7650,83.7040
56.7460,83.7320
56.7250,83.7590
56.7030,83.7850
56.6800,83.8100
56.6550,83.8330
56.6290,83.8550
56.6020,83.8760
56.5740,83.8950
56.5450,83.9130
56.5150,83.9290
56.4840,83.9440
56.4530,83.9570
56.4210,83.9680
56.3880,83.9780
56.3550,83.9860
56.3220,83.9920
56.2880,83.9960
56.2540,83.9990
56.2200,84.0000
56.1860,83.9990
56.1520,83.9960
56.1180,83.9920
56.0850,83.9860
56.0520,83.9780
56.0190,83.9680
55.9870,83.9570
55.9560,83.9440
55.9250,83.9290
55.8950,83.9130
55.8660,83.8950
55.8380,83.8760
55.8110,83.8550
55.7850,83.8330
55.7600,83.8100
55.7370,83.7850
55.7150,83.7590
55.6940,83.7320
55.6750,83.7040
55.6570,83.6750
55.6410,83.6450
55.6260,83.6140
55.6130,83.5830
55.6020,83.5510
55.5920,83.5180
55.5840,83.4850
55.5780,83.4520
55.5740,83.4180
55.5710,83.3840
55.5700,83.3500
55.5700,82.7500
55.5710,82.7160
55.5740,82.6820
55.5780,82.6480
55.5840,82.6150
55.5920,82.5820
55.6020,82.5490
55.6130,82.5170
55.6260,82.4860
55.6410,82.4550
55.6570,82.4250
55.6750,82.3960
55.6940,82.3680
55.7150,82.3410
55.7370,82.3150
55.7600,82.2900
55.7850,82.2670
55.8110,82.2450
55.8380,82.2240
55.8660,82.2050
55.8950,82.1870
55.9250,82.1710
55.9560,82.1560
55.9870,82.1430
56.0190,82.1320
56.0520,82.1220
56.0850,82.1140
56.1180,82.1080
56.1520,82.1040
56.1860,82.1010
56.2200,82.1000
Z" /> 
<path style="fill:#02FFEE; fill-opacity:0.4000; 
stroke:#02FFEE; stroke-width:0.0100; stroke-opacity:1; 
stroke-linecap:round; stroke-linejoin:round;fill-rule:evenodd;"
d="M 47.6140,85.9010
47.6480,85.9040
47.6820,85.9080
47.7150,85.9140
47.7480,85.9220
47.7810,85.9320
47.8130,85.9430
47.8440,85.9560
47.8750,85.9710
47.9050,85.9870
47.9340,86.0050
47.9620,86.0240
47.9890,86.0450
48.0150,86.0670
48.0400,86.0900
48.0630,86.1150
48.0850,86.1410
48.1060,86.1680
48.1250,86.1960
48.1430,86.2250
48.1590,86.2550
48.1740,86.2860
48.1870,86.3170
48.1980,86.3490
48.2080,86.3820
48.2160,86.4150
48.2220,86.4480
48.2260,86.4820
48.2290,86.5160
48.2300,86.5500
48.2300,87.1500
48.2290,87.1840
48.2260,87.2180
48.2220,87.2520
48.2160,87.2850
48.2080,87.3180
48.1980,87.3510
48.1870,87.3830
48.1740,87.4140
48.1590,87.4450
48.1430,87.4750
48.1250,87.5040
48.1060,87.5320
48.0850,87.5590
48.0630,87.5850
48.0400,87.6100
48.0150,87.6330
47.9890,87.6550
47.9620,87.6760
47.9340,87.6950
47.9050,87.7130
47.8750,87.7290
47.8440,87.7440
47.8130,87.7570
47.7810,87.7680
47.7480,87.7780
47.7150,87.7860
47.6820,87.7920
47.6480,87.7960
47.6140,87.7990
47.5800,87.8000
47.5460,87.7990
47.5120,87.7960
47.4780,87.7920
47.4450,87.7860
47.4120,87.7780
47.3790,87.7680
47.3470,87.7570
47.3160,87.7440
47.2850,87.7290
47.2550,87.7130
47.2260,87.6950
47.1980,87.6760
47.1710,87.6550
47.1450,87.6330
47.1200,87.6100
47.0970,87.5850
47.0750,87.5590
47.0540,87.5320
47.0350,87.5040
47.0170,87.4750
47.0010,87.4450
46.9860,87.4140
46.9730,87.3830
46.9620,87.3510
46.9520,87.3180
46.9440,87.2850
46.9380,87.2520
46.9340,87.2180
46.9310,87.1840
46.9300,87.1500
46.9300,86.5500
46.9310,86.5160
46.9340,86.4820
46.9380,86.4480
46.9440,86.4150
46.9520,86.3820
46.9620,86.3490
46.9730,86.3170
46.9860,86.2860
47.0010,86.2550
47.0170,86.2250
47.0350,86.1960
47.0540,86.1680
47.0750,86.1410
47.0970,86.1150
47.1200,86.0900
47.1450,86.0670
47.1710,86.0450
47.1980,86.0240
47.2260,86.0050
47.2550,85.9870
47.2850,85.9710
47.3160,85.9560
47.3470,85.9430
47.3790,85.9320
47.4120,85.9220
47.4450,85.9140
47.4780,85.9080
47.5120,85.9040
47.5460,85.9010
47.5800,85.9000
Z" /> 
<path style="fill:#02FFEE; fill-opacity:0.4000; 
stroke:#02FFEE; stroke-width:0.0100; stroke-opacity:1; 
stroke-linecap:round; stroke-linejoin:round;fill-rule:evenodd;"
d="M 47.6140,82.1010
47.6480,82.1040
47.6820,82.1080
47.7150,82.1140
47.7480,82.1220
47.7810,82.1320
47.8130,82.1430
47.8440,82.1560
47.8750,82.1710
47.9050,82.1870
47.9340,82.2050
47.9620,82.2240
47.9890,82.2450
48.0150,82.2670
48.0400,82.2900
48.0630,82.3150
48.0850,82.3410
48.1060,82.3680
48.1250,82.3960
48.1430,82.4250
48.1590,82.4550
48.1740,82.4860
48.1870,82.5170
48.1980,82.5490
48.2080,82.5820
48.2160,82.6150
48.2220,82.6480
48.2260,82.6820
48.2290,82.7160
48.2300,82.7500
48.2300,83.3500
48.2290,83.3840
48.2260,83.4180
48.2220,83.4520
48.2160,83.4850
48.2080,83.5180
48.1980,83.5510
48.1870,83.5830
48.1740,83.6140
48.1590,83.6450
48.1430,83.6750
48.1250,83.7040
48.1060,83.7320
48.0850,83.7590
48.0630,83.7850
48.0400,83.8100
48.0150,83.8330
47.9890,83.8550
47.9620,83.8760
47.9340,83.8950
47.9050,83.9130
47.8750,83.9290
47.8440,83.9440
47.8130,83.9570
47.7810,83.9680
47.7480,83.9780
47.7150,83.9860
47.6820,83.9920
47.6480,83.9960
47.6140,83.9990
47.5800,84.0000
47.5460,83.9990
47.5120,83.9960
47.4780,83.9920
47.4450,83.9860
47.4120,83.9780
47.3790,83.9680
47.3470,83.9570
47.3160,83.9440
47.2850,83.9290
47.2550,83.9130
47.2260,83.8950
47.1980,83.8760
47.1710,83.8550
47.1450,83.8330
47.1200,83.8100
47.0970,83.7850
47.0750,83.7590
47.0540,83.7320
47.0350,83.7040
47.0170,83.6750
47.0010,83.6450
46.9860,83.6140
46.9730,83.5830
46.9620,83.5510
46.9520,83.5180
46.9440,83.4850
46.9380,83.4520
46.9340,83.4180
46.9310,83.3840
46.9300,83.3500
46.9300,82.7500
46.9310,82.7160
46.9340,82.6820
46.9380,82.6480
46.9440,82.6150
46.9520,82.5820
46.9620,82.5490
46.9730,82.5170
46.9860,82.4860
47.0010,82.4550
47.0170,82.4250
47.0350,82.3960
47.0540,82.3680
47.0750,82.3410
47.0970,82.3150
47.1200,82.2900
47.1450,82.2670
47.1710,82.2450
47.1980,82.2240
47.2260,82.2050
47.2550,82.1870
47.2850,82.1710
47.3160,82.1560
47.3470,82.1430
47.3790,82.1320
47.4120,82.1220
47.4450,82.1140
47.4780,82.1080
47.5120,82.1040
47.5460,82.1010
47.5800,82.1000
Z" /> 
<g >
</g>
<g style="fill:#02FFEE; fill-opacity:0.4000; 
stroke:#02FFEE; stroke-width:0.0000; stroke-opacity:1; 
stroke-linecap:round; stroke-linejoin:round;">
<path style="fill:#02FFEE; fill-opacity:0.4000; 
stroke:#02FFEE; stroke-width:0.0000; stroke-opacity:1; 
stroke-linecap:round; stroke-linejoin:round;fill-rule:evenodd;"
d="M 110.8340,119.0310
110.8418,118.9920
110.8639,118.9589
110.8970,118.9368
110.9360,118.9290
112.2040,118.9290
112.2430,118.9368
112.2761,118.9589
112.2982,118.9920
112.3060,119.0310
112.3060,120.2990
112.2982,120.3380
112.2761,120.3711
112.2430,120.3932
112.2040,120.4010
110.9360,120.4010
110.8970,120.3932
110.8639,120.3711
110.8418,120.3380
110.8340,120.2990
Z" /> 
<circle cx="114.1100" cy="119.6650" r="0.7360" /> 
</g>
<g style="fill:#02FFEE; fill-opacity:0.4000; 
stroke:#02FFEE; stroke-width:0.0212; stroke-opacity:1; 
stroke-linecap:round; stroke-linejoin:round;">
</g>
<g style="fill:#02FFEE; fill-opacity:0.4000; 
stroke:#02FFEE; stroke-width:0.0000; stroke-opacity:1; 
stroke-linecap:round; stroke-linejoin:round;">
<circle cx="116.6500" cy="119.6650" r="0.7360" /> 
</g>
<g style="fill:#02FFEE; fill-opacity:0.4000; 
stroke:#02FFEE; stroke-width:0.0212; stroke-opacity:1; 
stroke-linecap:round; stroke-linejoin:round;">
</g>
<g >
</g>
<g style="fill:#02FFEE; fill-opacity:0.4000; 
stroke:#02FFEE; stroke-width:0.0212; stroke-opacity:1; 
stroke-linecap:round; stroke-linejoin:round;">
</g>
<g style="fill:#02FFEE; fill-opacity:0.4000; 
stroke:#02FFEE; stroke-width:0.0000; stroke-opacity:1; 
stroke-linecap:round; stroke-linejoin:round;">
<path style="fill:#02FFEE; fill-opacity:0.4000; 
stroke:#02FFEE; stroke-width:0.0000; stroke-opacity:1; 
stroke-linecap:round; stroke-linejoin:round;fill-rule:evenodd;"
d="M 96.3250,83.3250
97.6750,83.3250
97.6750,84.6750
96.3250,84.6750
Z" /> 
<circle cx="95.0000" cy="84.0000" r="0.6750" /> 
<circle cx="93.0000" cy="84.0000" r="0.6750" /> 
<circle cx="91.0000" cy="84.0000" r="0.6750" /> 
</g>
<g >
</g>
<g style="fill:#02FFEE; fill-opacity:0.4000; 
stroke:#02FFEE; stroke-width:0.0000; stroke-opacity:1; 
stroke-linecap:round; stroke-linejoin:round;">
<circle cx="105.1750" cy="115.7000" r="0.9910" /> 
</g>
<g style="fill:#02FFEE; fill-opacity:0.4000; 
stroke:#02FFEE; stroke-width:0.0212; stroke-opacity:1; 
stroke-linecap:round; stroke-linejoin:round;">
</g>
<g style="fill:#02FFEE; fill-opacity:0.4000; 
stroke:#02FFEE; stroke-width:0.0000; stroke-opacity:1; 
stroke-linecap:round; stroke-linejoin:round;">
<circle cx="98.8250" cy="115.7000" r="0.9910" /> 
</g>
<g style="fill:#02FFEE; fill-opacity:0.4000; 
stroke:#02FFEE; stroke-width:0.0212; stroke-opacity:1; 
stroke-linecap:round; stroke-linejoin:round;">
</g>
<g style="fill:#02FFEE; fill-opacity:0.4000; 
stroke:#02FFEE; stroke-width:0.0000; stroke-opacity:1; 
stroke-linecap:round; stroke-linejoin:round;">
<circle cx="105.1750" cy="110.6200" r="0.9910" /> 
</g>
<g style="fill:#02FFEE; fill-opacity:0.4000; 
stroke:#02FFEE; stroke-width:0.0212; stroke-opacity:1; 
stroke-linecap:round; stroke-linejoin:round;">
</g>
<g style="fill:#02FFEE; fill-opacity:0.4000; 
stroke:#02FFEE; stroke-width:0.0000; stroke-opacity:1; 
stroke-linecap:round; stroke-linejoin:round;">
<circle cx="98.8250" cy="110.6200" r="0.9910" /> 
</g>
<g style="fill:#02FFEE; fill-opacity:0.4000; 
stroke:#02FFEE; stroke-width:0.0212; stroke-opacity:1; 
stroke-linecap:round; stroke-linejoin:round;">
</g>
<g style="fill:#02FFEE; fill-opacity:0.4000; 
stroke:#02FFEE; stroke-width:0.0000; stroke-opacity:1; 
stroke-linecap:round; stroke-linejoin:round;">
<circle cx="104.5400" cy="92.8400" r="0.9910" /> 
</g>
<g style="fill:#02FFEE; fill-opacity:0.4000; 
stroke:#02FFEE; stroke-width:0.0212; stroke-opacity:1; 
stroke-linecap:round; stroke-linejoin:round;">
</g>
<g style="fill:#02FFEE; fill-opacity:0.4000; 
stroke:#02FFEE; stroke-width:0.0000; stroke-opacity:1; 
stroke-linecap:round; stroke-linejoin:round;">
<circle cx="102.0000" cy="92.8400" r="0.9910" /> 
</g>
<g style="fill:#02FFEE; fill-opacity:0.4000; 
stroke:#02FFEE; stroke-width:0.0212; stroke-opacity:1; 
stroke-linecap:round; stroke-linejoin:round;">
</g>
<g style="fill:#02FFEE; fill-opacity:0.4000; 
stroke:#02FFEE; stroke-width:0.0000; stroke-opacity:1; 
stroke-linecap:round; stroke-linejoin:round;">
<circle cx="99.4600" cy="92.8400" r="0.9910" /> 
</g>
<g style="fill:#02FFEE; fill-opacity:0.4000; 
stroke:#02FFEE; stroke-width:0.0212; stroke-opacity:1; 
stroke-linecap:round; stroke-linejoin:round;">
</g>
<g style="fill:#02FFEE; fill-opacity:0.4000; 
stroke:#02FFEE; stroke-width:0.0000; stroke-opacity:1; 
stroke-linecap:round; stroke-linejoin:round;">
<circle cx="109.6200" cy="109.6675" r="1.2450" /> 
</g>
<g style="fill:#02FFEE; fill-opacity:0.4000; 
stroke:#02FFEE; stroke-width:0.0212; stroke-opacity:1; 
stroke-linecap:round; stroke-linejoin:round;">
</g>
<g style="fill:#02FFEE; fill-opacity:0.4000; 
stroke:#02FFEE; stroke-width:0.0000; stroke-opacity:1; 
stroke-linecap:round; stroke-linejoin:round;">
<circle cx="109.6200" cy="96.3325" r="1.2450" /> 
</g>
<g style="fill:#02FFEE; fill-opacity:0.4000; 
stroke:#02FFEE; stroke-width:0.0212; stroke-opacity:1; 
stroke-linecap:round; stroke-linejoin:round;">
</g>
<g style="fill:#02FFEE; fill-opacity:0.4000; 
stroke:#02FFEE; stroke-width:0.0000; stroke-opacity:1; 
stroke-linecap:round; stroke-linejoin:round;">
<circle cx="94.3800" cy="96.3325" r="1.2450" /> 
</g>
<g style="fill:#02FFEE; fill-opacity:0.4000; 
stroke:#02FFEE; stroke-width:0.0212; stroke-opacity:1; 
stroke-linecap:round; stroke-linejoin:round;">
</g>
<g style="fill:#02FFEE; fill-opacity:0.4000; 
stroke:#02FFEE; stroke-width:0.0000; stroke-opacity:1; 
stroke-linecap:round; stroke-linejoin:round;">
<circle cx="94.3800" cy="109.6675" r="1.2450" /> 
</g>
<g style="fill:#02FFEE; fill-opacity:0.4000; 
stroke:#02FFEE; stroke-width:0.0212; stroke-opacity:1; 
stroke-linecap:round; stroke-linejoin:round;">
</g>
<g style="fill:#02FFEE; fill-opacity:0.4000; 
stroke:#02FFEE; stroke-width:0.0000; stroke-opacity:1; 
stroke-linecap:round; stroke-linejoin:round;">
<circle cx="112.1600" cy="105.5400" r="0.9910" /> 
</g>
<g style="fill:#02FFEE; fill-opacity:0.4000; 
stroke:#02FFEE; stroke-width:0.0212; stroke-opacity:1; 
stroke-linecap:round; stroke-linejoin:round;">
</g>
<g style="fill:#02FFEE; fill-opacity:0.4000; 
stroke:#02FFEE; stroke-width:0.0000; stroke-opacity:1; 
stroke-linecap:round; stroke-linejoin:round;">
<circle cx="112.1600" cy="103.0000" r="0.9910" /> 
</g>
<g style="fill:#02FFEE; fill-opacity:0.4000; 
stroke:#02FFEE; stroke-width:0.0212; stroke-opacity:1; 
stroke-linecap:round; stroke-linejoin:round;">
</g>
<g style="fill:#02FFEE; fill-opacity:0.4000; 
stroke:#02FFEE; stroke-width:0.0000; stroke-opacity:1; 
stroke-linecap:round; stroke-linejoin:round;">
<circle cx="112.1600" cy="100.4600" r="0.9910" /> 
</g>
<g style="fill:#02FFEE; fill-opacity:0.4000; 
stroke:#02FFEE; stroke-width:0.0212; stroke-opacity:1; 
stroke-linecap:round; stroke-linejoin:round;">
</g>
<g >
</g>
<g style="fill:#02FFEE; fill-opacity:0.4000; 
stroke:#02FFEE; stroke-width:0.0212; stroke-opacity:1; 
stroke-linecap:round; stroke-linejoin:round;">
</g>
<g style="fill:#02FFEE; fill-opacity:0.4000; 
stroke:#02FFEE; stroke-width:0.0000; stroke-opacity:1; 
stroke-linecap:round; stroke-linejoin:round;">
<circle cx="100.7500" cy="126.5150" r="1.0000" /> 
</g>
<g style="fill:#02FFEE; fill-opacity:0.4000; 
stroke:#02FFEE; stroke-width:0.0212; stroke-opacity:1; 
stroke-linecap:round; stroke-linejoin:round;">
</g>
<g style="fill:#02FFEE; fill-opacity:0.4000; 
stroke:#02FFEE; stroke-width:0.0000; stroke-opacity:1; 
stroke-linecap:round; stroke-linejoin:round;">
<circle cx="107.2500" cy="126.5150" r="1.0000" /> 
</g>
<g style="fill:#02FFEE; fill-opacity:0.4000; 
stroke:#02FFEE; stroke-width:0.0212; stroke-opacity:1; 
stroke-linecap:round; stroke-linejoin:round;">
</g>
<g style="fill:#02FFEE; fill-opacity:0.4000; 
stroke:#02FFEE; stroke-width:0.0000; stroke-opacity:1; 
stroke-linecap:round; stroke-linejoin:round;">
<circle cx="100.7500" cy="131.0150" r="1.0000" /> 
</g>
<g style="fill:#02FFEE; fill-opacity:0.4000; 
stroke:#02FFEE; stroke-width:0.0212; stroke-opacity:1; 
stroke-linecap:round; stroke-linejoin:round;">
</g>
<g style="fill:#02FFEE; fill-opacity:0.4000; 
stroke:#02FFEE; stroke-width:0.0000; stroke-opacity:1; 
stroke-linecap:round; stroke-linejoin:round;">
<circle cx="107.2500" cy="131.0150" r="1.0000" /> 
</g>
<g style="fill:#02FFEE; fill-opacity:0.4000; 
stroke:#02FFEE; stroke-width:0.0212; stroke-opacity:1; 
stroke-linecap:round; stroke-linejoin:round;">
</g>
<g >
</g>
<g >
</g>
<g >
</g>
<g >
</g>
<g >
</g>
<g >
</g>
<g style="fill:#02FFEE; fill-opacity:0.4000; 
stroke:#02FFEE; stroke-width:0.0212; stroke-opacity:1; 
stroke-linecap:round; stroke-linejoin:round;">
</g>
<g style="fill:#02FFEE; fill-opacity:0.4000; 
stroke:#02FFEE; stroke-width:0.0000; stroke-opacity:1; 
stroke-linecap:round; stroke-linejoin:round;">
<circle cx="36.6250" cy="86.2175" r="1.0500" /> 
</g>
<g style="fill:#02FFEE; fill-opacity:0.4000; 
stroke:#02FFEE; stroke-width:0.0212; stroke-opacity:1; 
stroke-linecap:round; stroke-linejoin:round;">
</g>
<g style="fill:#02FFEE; fill-opacity:0.4000; 
stroke:#02FFEE; stroke-width:0.0000; stroke-opacity:1; 
stroke-linecap:round; stroke-linejoin:round;">
<circle cx="43.6350" cy="86.2175" r="1.0500" /> 
</g>
<g style="fill:#02FFEE; fill-opacity:0.4000; 
stroke:#02FFEE; stroke-width:0.0212; stroke-opacity:1; 
stroke-linecap:round; stroke-linejoin:round;">
</g>
<g style="fill:#02FFEE; fill-opacity:0.4000; 
stroke:#02FFEE; stroke-width:0.0000; stroke-opacity:1; 
stroke-linecap:round; stroke-linejoin:round;">
<circle cx="37.8750" cy="83.7275" r="0.8750" /> 
</g>
<g style="fill:#02FFEE; fill-opacity:0.4000; 
stroke:#02FFEE; stroke-width:0.0212; stroke-opacity:1; 
stroke-linecap:round; stroke-linejoin:round;">
</g>
<g style="fill:#02FFEE; fill-opacity:0.4000; 
stroke:#02FFEE; stroke-width:0.0000; stroke-opacity:1; 
stroke-linecap:round; stroke-linejoin:round;">
<circle cx="42.3750" cy="83.7275" r="0.8750" /> 
</g>
<g style="fill:#02FFEE; fill-opacity:0.4000; 
stroke:#02FFEE; stroke-width:0.0212; stroke-opacity:1; 
stroke-linecap:round; stroke-linejoin:round;">
</g>
<g >
</g>
<g >
</g>
<g >
</g>
<g >
</g>
<g style="fill:#02FFEE; fill-opacity:0.4000; 
stroke:#02FFEE; stroke-width:0.0212; stroke-opacity:1; 
stroke-linecap:round; stroke-linejoin:round;">
</g>
<g style="fill:#02FFEE; fill-opacity:0.4000; 
stroke:#02FFEE; stroke-width:0.0000; stroke-opacity:1; 
stroke-linecap:round; stroke-linejoin:round;">
<path style="fill:#02FFEE; fill-opacity:0.4000; 
stroke:#02FFEE; stroke-width:0.0000; stroke-opacity:1; 
stroke-linecap:round; stroke-linejoin:round;fill-rule:evenodd;"
d="M 96.3250,87.1250
97.6750,87.1250
97.6750,88.4750
96.3250,88.4750
Z" /> 
<circle cx="95.0000" cy="87.8000" r="0.6750" /> 
<circle cx="93.0000" cy="87.8000" r="0.6750" /> 
<circle cx="91.0000" cy="87.8000" r="0.6750" /> 
</g>
<g >
</g>
<g >
</g>
<g >
</g>
<g >
</g>
<g >
</g>
<g >
</g>
<g >
</g>
<g >
</g>
<g >
</g>
<g >
</g>
<g >
</g>
<g style="fill:#02FFEE; fill-opacity:0.4000; 
stroke:#02FFEE; stroke-width:0.0000; stroke-opacity:1; 
stroke-linecap:round; stroke-linejoin:round;">
<path style="fill:#02FFEE; fill-opacity:0.4000; 
stroke:#02FFEE; stroke-width:0.0000; stroke-opacity:1; 
stroke-linecap:round; stroke-linejoin:round;fill-rule:evenodd;"
d="M 34.6500,105.5000
34.6500,106.8500
33.3000,106.8500
33.3000,105.5000
Z" /> 
<circle cx="33.9750" cy="104.1750" r="0.6750" /> 
<circle cx="33.9750" cy="102.1750" r="0.6750" /> 
<circle cx="33.9750" cy="100.1750" r="0.6750" /> 
</g>
<g >
</g>
<g style="fill:#02FFEE; fill-opacity:0.4000; 
stroke:#02FFEE; stroke-width:0.0000; stroke-opacity:1; 
stroke-linecap:round; stroke-linejoin:round;">
<circle cx="53.1750" cy="115.7000" r="0.9910" /> 
</g>
<g style="fill:#02FFEE; fill-opacity:0.4000; 
stroke:#02FFEE; stroke-width:0.0212; stroke-opacity:1; 
stroke-linecap:round; stroke-linejoin:round;">
</g>
<g style="fill:#02FFEE; fill-opacity:0.4000; 
stroke:#02FFEE; stroke-width:0.0000; stroke-opacity:1; 
stroke-linecap:round; stroke-linejoin:round;">
<circle cx="46.8250" cy="115.7000" r="0.9910" /> 
</g>
<g style="fill:#02FFEE; fill-opacity:0.4000; 
stroke:#02FFEE; stroke-width:0.0212; stroke-opacity:1; 
stroke-linecap:round; stroke-linejoin:round;">
</g>
<g style="fill:#02FFEE; fill-opacity:0.4000; 
stroke:#02FFEE; stroke-width:0.0000; stroke-opacity:1; 
stroke-linecap:round; stroke-linejoin:round;">
<circle cx="53.1750" cy="110.6200" r="0.9910" /> 
</g>
<g style="fill:#02FFEE; fill-opacity:0.4000; 
stroke:#02FFEE; stroke-width:0.0212; stroke-opacity:1; 
stroke-linecap:round; stroke-linejoin:round;">
</g>
<g style="fill:#02FFEE; fill-opacity:0.4000; 
stroke:#02FFEE; stroke-width:0.0000; stroke-opacity:1; 
stroke-linecap:round; stroke-linejoin:round;">
<circle cx="46.8250" cy="110.6200" r="0.9910" /> 
</g>
<g style="fill:#02FFEE; fill-opacity:0.4000; 
stroke:#02FFEE; stroke-width:0.0212; stroke-opacity:1; 
stroke-linecap:round; stroke-linejoin:round;">
</g>
<g style="fill:#02FFEE; fill-opacity:0.4000; 
stroke:#02FFEE; stroke-width:0.0000; stroke-opacity:1; 
stroke-linecap:round; stroke-linejoin:round;">
<circle cx="52.5400" cy="92.8400" r="0.9910" /> 
</g>
<g style="fill:#02FFEE; fill-opacity:0.4000; 
stroke:#02FFEE; stroke-width:0.0212; stroke-opacity:1; 
stroke-linecap:round; stroke-linejoin:round;">
</g>
<g style="fill:#02FFEE; fill-opacity:0.4000; 
stroke:#02FFEE; stroke-width:0.0000; stroke-opacity:1; 
stroke-linecap:round; stroke-linejoin:round;">
<circle cx="50.0000" cy="92.8400" r="0.9910" /> 
</g>
<g style="fill:#02FFEE; fill-opacity:0.4000; 
stroke:#02FFEE; stroke-width:0.0212; stroke-opacity:1; 
stroke-linecap:round; stroke-linejoin:round;">
</g>
<g style="fill:#02FFEE; fill-opacity:0.4000; 
stroke:#02FFEE; stroke-width:0.0000; stroke-opacity:1; 
stroke-linecap:round; stroke-linejoin:round;">
<circle cx="47.4600" cy="92.8400" r="0.9910" /> 
</g>
<g style="fill:#02FFEE; fill-opacity:0.4000; 
stroke:#02FFEE; stroke-width:0.0212; stroke-opacity:1; 
stroke-linecap:round; stroke-linejoin:round;">
</g>
<g style="fill:#02FFEE; fill-opacity:0.4000; 
stroke:#02FFEE; stroke-width:0.0000; stroke-opacity:1; 
stroke-linecap:round; stroke-linejoin:round;">
<circle cx="57.6200" cy="109.6675" r="1.2450" /> 
</g>
<g style="fill:#02FFEE; fill-opacity:0.4000; 
stroke:#02FFEE; stroke-width:0.0212; stroke-opacity:1; 
stroke-linecap:round; stroke-linejoin:round;">
</g>
<g style="fill:#02FFEE; fill-opacity:0.4000; 
stroke:#02FFEE; stroke-width:0.0000; stroke-opacity:1; 
stroke-linecap:round; stroke-linejoin:round;">
<circle cx="57.6200" cy="96.3325" r="1.2450" /> 
</g>
<g style="fill:#02FFEE; fill-opacity:0.4000; 
stroke:#02FFEE; stroke-width:0.0212; stroke-opacity:1; 
stroke-linecap:round; stroke-linejoin:round;">
</g>
<g style="fill:#02FFEE; fill-opacity:0.4000; 
stroke:#02FFEE; stroke-width:0.0000; stroke-opacity:1; 
stroke-linecap:round; stroke-linejoin:round;">
<circle cx="42.3800" cy="96.3325" r="1.2450" /> 
</g>
<g style="fill:#02FFEE; fill-opacity:0.4000; 
stroke:#02FFEE; stroke-width:0.0212; stroke-opacity:1; 
stroke-linecap:round; stroke-linejoin:round;">
</g>
<g style="fill:#02FFEE; fill-opacity:0.4000; 
stroke:#02FFEE; stroke-width:0.0000; stroke-opacity:1; 
stroke-linecap:round; stroke-linejoin:round;">
<circle cx="42.3800" cy="109.6675" r="1.2450" /> 
</g>
<g style="fill:#02FFEE; fill-opacity:0.4000; 
stroke:#02FFEE; stroke-width:0.0212; stroke-opacity:1; 
stroke-linecap:round; stroke-linejoin:round;">
</g>
<g style="fill:#02FFEE; fill-opacity:0.4000; 
stroke:#02FFEE; stroke-width:0.0000; stroke-opacity:1; 
stroke-linecap:round; stroke-linejoin:round;">
<circle cx="60.1600" cy="105.5400" r="0.9910" /> 
</g>
<g style="fill:#02FFEE; fill-opacity:0.4000; 
stroke:#02FFEE; stroke-width:0.0212; stroke-opacity:1; 
stroke-linecap:round; stroke-linejoin:round;">
</g>
<g style="fill:#02FFEE; fill-opacity:0.4000; 
stroke:#02FFEE; stroke-width:0.0000; stroke-opacity:1; 
stroke-linecap:round; stroke-linejoin:round;">
<circle cx="60.1600" cy="103.0000" r="0.9910" /> 
</g>
<g style="fill:#02FFEE; fill-opacity:0.4000; 
stroke:#02FFEE; stroke-width:0.0212; stroke-opacity:1; 
stroke-linecap:round; stroke-linejoin:round;">
</g>
<g style="fill:#02FFEE; fill-opacity:0.4000; 
stroke:#02FFEE; stroke-width:0.0000; stroke-opacity:1; 
stroke-linecap:round; stroke-linejoin:round;">
<circle cx="60.1600" cy="100.4600" r="0.9910" /> 
</g>
<g style="fill:#02FFEE; fill-opacity:0.4000; 
stroke:#02FFEE; stroke-width:0.0212; stroke-opacity:1; 
stroke-linecap:round; stroke-linejoin:round;">
</g>
<g >
</g>
<g style="fill:#02FFEE; fill-opacity:0.4000; 
stroke:#02FFEE; stroke-width:0.0212; stroke-opacity:1; 
stroke-linecap:round; stroke-linejoin:round;">
</g>
<g style="fill:#02FFEE; fill-opacity:0.4000; 
stroke:#02FFEE; stroke-width:0.0000; stroke-opacity:1; 
stroke-linecap:round; stroke-linejoin:round;">
<circle cx="45.7500" cy="126.7500" r="1.0000" /> 
</g>
<g style="fill:#02FFEE; fill-opacity:0.4000; 
stroke:#02FFEE; stroke-width:0.0212; stroke-opacity:1; 
stroke-linecap:round; stroke-linejoin:round;">
</g>
<g style="fill:#02FFEE; fill-opacity:0.4000; 
stroke:#02FFEE; stroke-width:0.0000; stroke-opacity:1; 
stroke-linecap:round; stroke-linejoin:round;">
<circle cx="52.2500" cy="126.7500" r="1.0000" /> 
</g>
<g style="fill:#02FFEE; fill-opacity:0.4000; 
stroke:#02FFEE; stroke-width:0.0212; stroke-opacity:1; 
stroke-linecap:round; stroke-linejoin:round;">
</g>
<g style="fill:#02FFEE; fill-opacity:0.4000; 
stroke:#02FFEE; stroke-width:0.0000; stroke-opacity:1; 
stroke-linecap:round; stroke-linejoin:round;">
<circle cx="45.7500" cy="131.2500" r="1.0000" /> 
</g>
<g style="fill:#02FFEE; fill-opacity:0.4000; 
stroke:#02FFEE; stroke-width:0.0212; stroke-opacity:1; 
stroke-linecap:round; stroke-linejoin:round;">
</g>
<g style="fill:#02FFEE; fill-opacity:0.4000; 
stroke:#02FFEE; stroke-width:0.0000; stroke-opacity:1; 
stroke-linecap:round; stroke-linejoin:round;">
<circle cx="52.2500" cy="131.2500" r="1.0000" /> 
</g>
<g style="fill:#02FFEE; fill-opacity:0.4000; 
stroke:#02FFEE; stroke-width:0.0212; stroke-opacity:1; 
stroke-linecap:round; stroke-linejoin:round;">
</g>
<g >
</g>
<g >
</g>
<g >
</g>
<g >
</g>
<g style="fill:#02FFEE; fill-opacity:0.4000; 
stroke:#02FFEE; stroke-width:0.0212; stroke-opacity:1; 
stroke-linecap:round; stroke-linejoin:round;">
</g>
<g style="fill:#02FFEE; fill-opacity:0.4000; 
stroke:#02FFEE; stroke-width:0.0000; stroke-opacity:1; 
stroke-linecap:round; stroke-linejoin:round;">
<circle cx="97.1000" cy="139.8034" r="0.4445" /> 
</g>
<g style="fill:#02FFEE; fill-opacity:0.4000; 
stroke:#02FFEE; stroke-width:0.0212; stroke-opacity:1; 
stroke-linecap:round; stroke-linejoin:round;">
</g>
<g style="fill:#02FFEE; fill-opacity:0.4000; 
stroke:#02FFEE; stroke-width:0.0000; stroke-opacity:1; 
stroke-linecap:round; stroke-linejoin:round;">
<circle cx="100.1000" cy="139.8034" r="0.4445" /> 
</g>
<g style="fill:#02FFEE; fill-opacity:0.4000; 
stroke:#02FFEE; stroke-width:0.0212; stroke-opacity:1; 
stroke-linecap:round; stroke-linejoin:round;">
</g>
<g >
</g>
<g >
</g>
<g >
</g>
<g >
</g>
<g >
</g>
<g >
</g>
<g >
</g>
<g >
</g>
<g style="fill:#02FFEE; fill-opacity:0.4000; 
stroke:#02FFEE; stroke-width:0.0212; stroke-opacity:1; 
stroke-linecap:round; stroke-linejoin:round;">
</g>
<g style="fill:#02FFEE; fill-opacity:0.4000; 
stroke:#02FFEE; stroke-width:0.0000; stroke-opacity:1; 
stroke-linecap:round; stroke-linejoin:round;">
<circle cx="108.4750" cy="85.4525" r="1.0500" /> 
</g>
<g style="fill:#02FFEE; fill-opacity:0.4000; 
stroke:#02FFEE; stroke-width:0.0212; stroke-opacity:1; 
stroke-linecap:round; stroke-linejoin:round;">
</g>
<g style="fill:#02FFEE; fill-opacity:0.4000; 
stroke:#02FFEE; stroke-width:0.0000; stroke-opacity:1; 
stroke-linecap:round; stroke-linejoin:round;">
<circle cx="115.4850" cy="85.4525" r="1.0500" /> 
</g>
<g style="fill:#02FFEE; fill-opacity:0.4000; 
stroke:#02FFEE; stroke-width:0.0212; stroke-opacity:1; 
stroke-linecap:round; stroke-linejoin:round;">
</g>
<g style="fill:#02FFEE; fill-opacity:0.4000; 
stroke:#02FFEE; stroke-width:0.0000; stroke-opacity:1; 
stroke-linecap:round; stroke-linejoin:round;">
<circle cx="109.7250" cy="82.9625" r="0.8750" /> 
</g>
<g style="fill:#02FFEE; fill-opacity:0.4000; 
stroke:#02FFEE; stroke-width:0.0212; stroke-opacity:1; 
stroke-linecap:round; stroke-linejoin:round;">
</g>
<g style="fill:#02FFEE; fill-opacity:0.4000; 
stroke:#02FFEE; stroke-width:0.0000; stroke-opacity:1; 
stroke-linecap:round; stroke-linejoin:round;">
<circle cx="114.2250" cy="82.9625" r="0.8750" /> 
</g>
<g style="fill:#02FFEE; fill-opacity:0.4000; 
stroke:#02FFEE; stroke-width:0.0212; stroke-opacity:1; 
stroke-linecap:round; stroke-linejoin:round;">
</g>
<g >
</g>
<g style="fill:#02FFEE; fill-opacity:0.4000; 
stroke:#02FFEE; stroke-width:0.0212; stroke-opacity:1; 
stroke-linecap:round; stroke-linejoin:round;">
</g>
<g style="fill:#02FFEE; fill-opacity:0.4000; 
stroke:#02FFEE; stroke-width:0.0000; stroke-opacity:1; 
stroke-linecap:round; stroke-linejoin:round;">
<circle cx="114.5400" cy="87.6000" r="0.6350" /> 
</g>
<g style="fill:#02FFEE; fill-opacity:0.4000; 
stroke:#02FFEE; stroke-width:0.0212; stroke-opacity:1; 
stroke-linecap:round; stroke-linejoin:round;">
</g>
<g style="fill:#02FFEE; fill-opacity:0.4000; 
stroke:#02FFEE; stroke-width:0.0000; stroke-opacity:1; 
stroke-linecap:round; stroke-linejoin:round;">
<circle cx="112.0000" cy="87.6000" r="0.6350" /> 
</g>
<g style="fill:#02FFEE; fill-opacity:0.4000; 
stroke:#02FFEE; stroke-width:0.0212; stroke-opacity:1; 
stroke-linecap:round; stroke-linejoin:round;">
</g>
<g style="fill:#02FFEE; fill-opacity:0.4000; 
stroke:#02FFEE; stroke-width:0.0000; stroke-opacity:1; 
stroke-linecap:round; stroke-linejoin:round;">
<circle cx="109.4600" cy="87.6000" r="0.6350" /> 
</g>
<g style="fill:#02FFEE; fill-opacity:0.4000; 
stroke:#02FFEE; stroke-width:0.0212; stroke-opacity:1; 
stroke-linecap:round; stroke-linejoin:round;">
</g>
<g >
</g>
<g style="fill:#02FFEE; fill-opacity:0.4000; 
stroke:#02FFEE; stroke-width:0.0212; stroke-opacity:1; 
stroke-linecap:round; stroke-linejoin:round;">
</g>
<g style="fill:#02FFEE; fill-opacity:0.4000; 
stroke:#02FFEE; stroke-width:0.0000; stroke-opacity:1; 
stroke-linecap:round; stroke-linejoin:round;">
<path style="fill:#02FFEE; fill-opacity:0.4000; 
stroke:#02FFEE; stroke-width:0.0000; stroke-opacity:1; 
stroke-linecap:round; stroke-linejoin:round;fill-rule:evenodd;"
d="M 67.5750,102.5500
67.6707,102.5690
67.7518,102.6232
67.8060,102.7043
67.8250,102.8000
67.8250,103.3000
67.8060,103.3957
67.7518,103.4768
67.6707,103.5310
67.5750,103.5500
66.6250,103.5500
66.5293,103.5310
66.4482,103.4768
66.3940,103.3957
66.3750,103.3000
66.3750,102.8000
66.3940,102.7043
66.4482,102.6232
66.5293,102.5690
66.6250,102.5500
Z" /> 
<path style="fill:#02FFEE; fill-opacity:0.4000; 
stroke:#02FFEE; stroke-width:0.0000; stroke-opacity:1; 
stroke-linecap:round; stroke-linejoin:round;fill-rule:evenodd;"
d="M 67.5750,104.4500
67.6707,104.4690
67.7518,104.5232
67.8060,104.6043
67.8250,104.7000
67.8250,105.2000
67.8060,105.2957
67.7518,105.3768
67.6707,105.4310
67.5750,105.4500
66.6250,105.4500
66.5293,105.4310
66.4482,105.3768
66.3940,105.2957
66.3750,105.2000
66.3750,104.7000
66.3940,104.6043
66.4482,104.5232
66.5293,104.4690
66.6250,104.4500
Z" /> 
</g>
<g >
</g>
<g style="fill:#02FFEE; fill-opacity:0.4000; 
stroke:#02FFEE; stroke-width:0.0000; stroke-opacity:1; 
stroke-linecap:round; stroke-linejoin:round;">
<path style="fill:#02FFEE; fill-opacity:0.4000; 
stroke:#02FFEE; stroke-width:0.0000; stroke-opacity:1; 
stroke-linecap:round; stroke-linejoin:round;fill-rule:evenodd;"
d="M 77.9806,103.0456
78.5394,103.0456
78.5394,104.5061
77.9806,104.5061
Z" /> 
<path style="fill:#02FFEE; fill-opacity:0.4000; 
stroke:#02FFEE; stroke-width:0.0000; stroke-opacity:1; 
stroke-linecap:round; stroke-linejoin:round;fill-rule:evenodd;"
d="M 79.2506,103.0456
79.8094,103.0456
79.8094,104.5061
79.2506,104.5061
Z" /> 
<path style="fill:#02FFEE; fill-opacity:0.4000; 
stroke:#02FFEE; stroke-width:0.0000; stroke-opacity:1; 
stroke-linecap:round; stroke-linejoin:round;fill-rule:evenodd;"
d="M 80.5206,103.0456
81.0794,103.0456
81.0794,104.5061
80.5206,104.5061
Z" /> 
<path style="fill:#02FFEE; fill-opacity:0.4000; 
stroke:#02FFEE; stroke-width:0.0000; stroke-opacity:1; 
stroke-linecap:round; stroke-linejoin:round;fill-rule:evenodd;"
d="M 81.7906,103.0456
82.3494,103.0456
82.3494,104.5061
81.7906,104.5061
Z" /> 
<path style="fill:#02FFEE; fill-opacity:0.4000; 
stroke:#02FFEE; stroke-width:0.0000; stroke-opacity:1; 
stroke-linecap:round; stroke-linejoin:round;fill-rule:evenodd;"
d="M 81.7906,108.4939
82.3494,108.4939
82.3494,109.9544
81.7906,109.9544
Z" /> 
<path style="fill:#02FFEE; fill-opacity:0.4000; 
stroke:#02FFEE; stroke-width:0.0000; stroke-opacity:1; 
stroke-linecap:round; stroke-linejoin:round;fill-rule:evenodd;"
d="M 80.5206,108.4939
81.0794,108.4939
81.0794,109.9544
80.5206,109.9544
Z" /> 
<path style="fill:#02FFEE; fill-opacity:0.4000; 
stroke:#02FFEE; stroke-width:0.0000; stroke-opacity:1; 
stroke-linecap:round; stroke-linejoin:round;fill-rule:evenodd;"
d="M 79.2506,108.4939
79.8094,108.4939
79.8094,109.9544
79.2506,109.9544
Z" /> 
<path style="fill:#02FFEE; fill-opacity:0.4000; 
stroke:#02FFEE; stroke-width:0.0000; stroke-opacity:1; 
stroke-linecap:round; stroke-linejoin:round;fill-rule:evenodd;"
d="M 77.9806,108.4939
78.5394,108.4939
78.5394,109.9544
77.9806,109.9544
Z" /> 
<path style="fill:#02FFEE; fill-opacity:0.4000; 
stroke:#02FFEE; stroke-width:0.0000; stroke-opacity:1; 
stroke-linecap:round; stroke-linejoin:round;fill-rule:evenodd;"
d="M 78.4632,105.2427
81.8668,105.2427
81.8668,107.7573
78.4632,107.7573
Z" /> 
</g>
<g >
</g>
<g style="fill:#02FFEE; fill-opacity:0.4000; 
stroke:#02FFEE; stroke-width:0.0000; stroke-opacity:1; 
stroke-linecap:round; stroke-linejoin:round;">
<path style="fill:#02FFEE; fill-opacity:0.4000; 
stroke:#02FFEE; stroke-width:0.0000; stroke-opacity:1; 
stroke-linecap:round; stroke-linejoin:round;fill-rule:evenodd;"
d="M 93.4280,126.1650
93.4358,126.1260
93.4579,126.0929
93.4910,126.0708
93.5300,126.0630
97.7700,126.0630
97.8090,126.0708
97.8421,126.0929
97.8642,126.1260
97.8720,126.1650
97.8720,131.3650
97.8642,131.4040
97.8421,131.4371
97.8090,131.4592
97.7700,131.4670
93.5300,131.4670
93.4910,131.4592
93.4579,131.4371
93.4358,131.4040
93.4280,131.3650
Z" /> 
<path style="fill:#02FFEE; fill-opacity:0.4000; 
stroke:#02FFEE; stroke-width:0.0000; stroke-opacity:1; 
stroke-linecap:round; stroke-linejoin:round;fill-rule:evenodd;"
d="M 109.4380,127.1150
109.4458,127.0760
109.4679,127.0429
109.5010,127.0208
109.5400,127.0130
113.7800,127.0130
113.8190,127.0208
113.8521,127.0429
113.8742,127.0760
113.8820,127.1150
113.8820,130.4150
113.8742,130.4540
113.8521,130.4871
113.8190,130.5092
113.7800,130.5170
109.5400,130.5170
109.5010,130.5092
109.4679,130.4871
109.4458,130.4540
109.4380,130.4150
Z" /> 
</g>
<g >
</g>
<g style="fill:#02FFEE; fill-opacity:0.4000; 
stroke:#02FFEE; stroke-width:0.0000; stroke-opacity:1; 
stroke-linecap:round; stroke-linejoin:round;">
<path style="fill:#02FFEE; fill-opacity:0.4000; 
stroke:#02FFEE; stroke-width:0.0000; stroke-opacity:1; 
stroke-linecap:round; stroke-linejoin:round;fill-rule:evenodd;"
d="M 70.0500,102.5750
70.1457,102.5940
70.2268,102.6482
70.2810,102.7293
70.3000,102.8250
70.3000,103.3500
70.2810,103.4457
70.2268,103.5268
70.1457,103.5810
70.0500,103.6000
69.1500,103.6000
69.0543,103.5810
68.9732,103.5268
68.9190,103.4457
68.9000,103.3500
68.9000,102.8250
68.9190,102.7293
68.9732,102.6482
69.0543,102.5940
69.1500,102.5750
Z" /> 
<path style="fill:#02FFEE; fill-opacity:0.4000; 
stroke:#02FFEE; stroke-width:0.0000; stroke-opacity:1; 
stroke-linecap:round; stroke-linejoin:round;fill-rule:evenodd;"
d="M 70.0500,104.4000
70.1457,104.4190
70.2268,104.4732
70.2810,104.5543
70.3000,104.6500
70.3000,105.1750
70.2810,105.2707
70.2268,105.3518
70.1457,105.4060
70.0500,105.4250
69.1500,105.4250
69.0543,105.4060
68.9732,105.3518
68.9190,105.2707
68.9000,105.1750
68.9000,104.6500
68.9190,104.5543
68.9732,104.4732
69.0543,104.4190
69.1500,104.4000
Z" /> 
</g>
<g >
</g>
<g style="fill:#02FFEE; fill-opacity:0.4000; 
stroke:#02FFEE; stroke-width:0.0000; stroke-opacity:1; 
stroke-linecap:round; stroke-linejoin:round;">
<path style="fill:#02FFEE; fill-opacity:0.4000; 
stroke:#02FFEE; stroke-width:0.0000; stroke-opacity:1; 
stroke-linecap:round; stroke-linejoin:round;fill-rule:evenodd;"
d="M 67.4900,108.5600
67.4915,108.5523
67.4959,108.5459
67.5023,108.5415
67.5100,108.5400
69.0300,108.5400
69.0377,108.5415
69.0441,108.5459
69.0485,108.5523
69.0500,108.5600
69.0500,108.9200
69.0485,108.9277
69.0441,108.9341
69.0377,108.9385
69.0300,108.9400
67.5100,108.9400
67.5023,108.9385
67.4959,108.9341
67.4915,108.9277
67.4900,108.9200
Z" /> 
<path style="fill:#02FFEE; fill-opacity:0.4000; 
stroke:#02FFEE; stroke-width:0.0000; stroke-opacity:1; 
stroke-linecap:round; stroke-linejoin:round;fill-rule:evenodd;"
d="M 67.4900,107.9100
67.4915,107.9023
67.4959,107.8959
67.5023,107.8915
67.5100,107.8900
69.0300,107.8900
69.0377,107.8915
69.0441,107.8959
69.0485,107.9023
69.0500,107.9100
69.0500,108.2700
69.0485,108.2777
69.0441,108.2841
69.0377,108.2885
69.0300,108.2900
67.5100,108.2900
67.5023,108.2885
67.4959,108.2841
67.4915,108.2777
67.4900,108.2700
Z" /> 
<path style="fill:#02FFEE; fill-opacity:0.4000; 
stroke:#02FFEE; stroke-width:0.0000; stroke-opacity:1; 
stroke-linecap:round; stroke-linejoin:round;fill-rule:evenodd;"
d="M 67.4900,107.2600
67.4915,107.2523
67.4959,107.2459
67.5023,107.2415
67.5100,107.2400
69.0300,107.2400
69.0377,107.2415
69.0441,107.2459
69.0485,107.2523
69.0500,107.2600
69.0500,107.6200
69.0485,107.6277
69.0441,107.6341
69.0377,107.6385
69.0300,107.6400
67.5100,107.6400
67.5023,107.6385
67.4959,107.6341
67.4915,107.6277
67.4900,107.6200
Z" /> 
<path style="fill:#02FFEE; fill-opacity:0.4000; 
stroke:#02FFEE; stroke-width:0.0000; stroke-opacity:1; 
stroke-linecap:round; stroke-linejoin:round;fill-rule:evenodd;"
d="M 67.4900,106.6100
67.4915,106.6023
67.4959,106.5959
67.5023,106.5915
67.5100,106.5900
69.0300,106.5900
69.0377,106.5915
69.0441,106.5959
69.0485,106.6023
69.0500,106.6100
69.0500,106.9700
69.0485,106.9777
69.0441,106.9841
69.0377,106.9885
69.0300,106.9900
67.5100,106.9900
67.5023,106.9885
67.4959,106.9841
67.4915,106.9777
67.4900,106.9700
Z" /> 
<path style="fill:#02FFEE; fill-opacity:0.4000; 
stroke:#02FFEE; stroke-width:0.0000; stroke-opacity:1; 
stroke-linecap:round; stroke-linejoin:round;fill-rule:evenodd;"
d="M 73.2500,106.6100
73.2515,106.6023
73.2559,106.5959
73.2623,106.5915
73.2700,106.5900
74.7900,106.5900
74.7977,106.5915
74.8041,106.5959
74.8085,106.6023
74.8100,106.6100
74.8100,106.9700
74.8085,106.9777
74.8041,106.9841
74.7977,106.9885
74.7900,106.9900
73.2700,106.9900
73.2623,106.9885
73.2559,106.9841
73.2515,106.9777
73.2500,106.9700
Z" /> 
<path style="fill:#02FFEE; fill-opacity:0.4000; 
stroke:#02FFEE; stroke-width:0.0000; stroke-opacity:1; 
stroke-linecap:round; stroke-linejoin:round;fill-rule:evenodd;"
d="M 73.2500,107.2600
73.2515,107.2523
73.2559,107.2459
73.2623,107.2415
73.2700,107.2400
74.7900,107.2400
74.7977,107.2415
74.8041,107.2459
74.8085,107.2523
74.8100,107.2600
74.8100,107.6200
74.8085,107.6277
74.8041,107.6341
74.7977,107.6385
74.7900,107.6400
73.2700,107.6400
73.2623,107.6385
73.2559,107.6341
73.2515,107.6277
73.2500,107.6200
Z" /> 
<path style="fill:#02FFEE; fill-opacity:0.4000; 
stroke:#02FFEE; stroke-width:0.0000; stroke-opacity:1; 
stroke-linecap:round; stroke-linejoin:round;fill-rule:evenodd;"
d="M 73.2500,107.9100
73.2515,107.9023
73.2559,107.8959
73.2623,107.8915
73.2700,107.8900
74.7900,107.8900
74.7977,107.8915
74.8041,107.8959
74.8085,107.9023
74.8100,107.9100
74.8100,108.2700
74.8085,108.2777
74.8041,108.2841
74.7977,108.2885
74.7900,108.2900
73.2700,108.2900
73.2623,108.2885
73.2559,108.2841
73.2515,108.2777
73.2500,108.2700
Z" /> 
<path style="fill:#02FFEE; fill-opacity:0.4000; 
stroke:#02FFEE; stroke-width:0.0000; stroke-opacity:1; 
stroke-linecap:round; stroke-linejoin:round;fill-rule:evenodd;"
d="M 73.2500,108.5600
73.2515,108.5523
73.2559,108.5459
73.2623,108.5415
73.2700,108.5400
74.7900,108.5400
74.7977,108.5415
74.8041,108.5459
74.8085,108.5523
74.8100,108.5600
74.8100,108.9200
74.8085,108.9277
74.8041,108.9341
74.7977,108.9385
74.7900,108.9400
73.2700,108.9400
73.2623,108.9385
73.2559,108.9341
73.2515,108.9277
73.2500,108.9200
Z" /> 
</g>
<g >
</g>
<g style="fill:#02FFEE; fill-opacity:0.4000; 
stroke:#02FFEE; stroke-width:0.0000; stroke-opacity:1; 
stroke-linecap:round; stroke-linejoin:round;">
<path style="fill:#02FFEE; fill-opacity:0.4000; 
stroke:#02FFEE; stroke-width:0.0000; stroke-opacity:1; 
stroke-linecap:round; stroke-linejoin:round;fill-rule:evenodd;"
d="M 71.7500,100.3500
71.7690,100.2543
71.8232,100.1732
71.9043,100.1190
72.0000,100.1000
72.5000,100.1000
72.5957,100.1190
72.6768,100.1732
72.7310,100.2543
72.7500,100.3500
72.7500,101.3000
72.7310,101.3957
72.6768,101.4768
72.5957,101.5310
72.5000,101.5500
72.0000,101.5500
71.9043,101.5310
71.8232,101.4768
71.7690,101.3957
71.7500,101.3000
Z" /> 
<path style="fill:#02FFEE; fill-opacity:0.4000; 
stroke:#02FFEE; stroke-width:0.0000; stroke-opacity:1; 
stroke-linecap:round; stroke-linejoin:round;fill-rule:evenodd;"
d="M 73.6500,100.3500
73.6690,100.2543
73.7232,100.1732
73.8043,100.1190
73.9000,100.1000
74.4000,100.1000
74.4957,100.1190
74.5768,100.1732
74.6310,100.2543
74.6500,100.3500
74.6500,101.3000
74.6310,101.3957
74.5768,101.4768
74.4957,101.5310
74.4000,101.5500
73.9000,101.5500
73.8043,101.5310
73.7232,101.4768
73.6690,101.3957
73.6500,101.3000
Z" /> 
</g>
<g >
</g>
<g style="fill:#02FFEE; fill-opacity:0.4000; 
stroke:#02FFEE; stroke-width:0.0000; stroke-opacity:1; 
stroke-linecap:round; stroke-linejoin:round;">
<path style="fill:#02FFEE; fill-opacity:0.4000; 
stroke:#02FFEE; stroke-width:0.0000; stroke-opacity:1; 
stroke-linecap:round; stroke-linejoin:round;fill-rule:evenodd;"
d="M 80.7500,100.1900
80.7690,100.0943
80.8232,100.0132
80.9043,99.9590
81.0000,99.9400
81.5000,99.9400
81.5957,99.9590
81.6768,100.0132
81.7310,100.0943
81.7500,100.1900
81.7500,101.1400
81.7310,101.2357
81.6768,101.3168
81.5957,101.3710
81.5000,101.3900
81.0000,101.3900
80.9043,101.3710
80.8232,101.3168
80.7690,101.2357
80.7500,101.1400
Z" /> 
<path style="fill:#02FFEE; fill-opacity:0.4000; 
stroke:#02FFEE; stroke-width:0.0000; stroke-opacity:1; 
stroke-linecap:round; stroke-linejoin:round;fill-rule:evenodd;"
d="M 82.6500,100.1900
82.6690,100.0943
82.7232,100.0132
82.8043,99.9590
82.9000,99.9400
83.4000,99.9400
83.4957,99.9590
83.5768,100.0132
83.6310,100.0943
83.6500,100.1900
83.6500,101.1400
83.6310,101.2357
83.5768,101.3168
83.4957,101.3710
83.4000,101.3900
82.9000,101.3900
82.8043,101.3710
82.7232,101.3168
82.6690,101.2357
82.6500,101.1400
Z" /> 
</g>
<g >
</g>
<g style="fill:#02FFEE; fill-opacity:0.4000; 
stroke:#02FFEE; stroke-width:0.0000; stroke-opacity:1; 
stroke-linecap:round; stroke-linejoin:round;">
<path style="fill:#02FFEE; fill-opacity:0.4000; 
stroke:#02FFEE; stroke-width:0.0000; stroke-opacity:1; 
stroke-linecap:round; stroke-linejoin:round;fill-rule:evenodd;"
d="M 58.8720,131.3650
58.8642,131.4040
58.8421,131.4371
58.8090,131.4592
58.7700,131.4670
54.5300,131.4670
54.4910,131.4592
54.4579,131.4371
54.4358,131.4040
54.4280,131.3650
54.4280,126.1650
54.4358,126.1260
54.4579,126.0929
54.4910,126.0708
54.5300,126.0630
58.7700,126.0630
58.8090,126.0708
58.8421,126.0929
58.8642,126.1260
58.8720,126.1650
Z" /> 
<path style="fill:#02FFEE; fill-opacity:0.4000; 
stroke:#02FFEE; stroke-width:0.0000; stroke-opacity:1; 
stroke-linecap:round; stroke-linejoin:round;fill-rule:evenodd;"
d="M 42.8620,130.4150
42.8542,130.4540
42.8321,130.4871
42.7990,130.5092
42.7600,130.5170
38.5200,130.5170
38.4810,130.5092
38.4479,130.4871
38.4258,130.4540
38.4180,130.4150
38.4180,127.1150
38.4258,127.0760
38.4479,127.0429
38.4810,127.0208
38.5200,127.0130
42.7600,127.0130
42.7990,127.0208
42.8321,127.0429
42.8542,127.0760
42.8620,127.1150
Z" /> 
</g>
<g >
</g>
<g style="fill:#02FFEE; fill-opacity:0.4000; 
stroke:#02FFEE; stroke-width:0.0000; stroke-opacity:1; 
stroke-linecap:round; stroke-linejoin:round;">
<path style="fill:#02FFEE; fill-opacity:0.4000; 
stroke:#02FFEE; stroke-width:0.0000; stroke-opacity:1; 
stroke-linecap:round; stroke-linejoin:round;fill-rule:evenodd;"
d="M 79.6398,101.1150
79.6208,101.2107
79.5666,101.2918
79.4855,101.3460
79.3898,101.3650
78.8648,101.3650
78.7692,101.3460
78.6881,101.2918
78.6339,101.2107
78.6148,101.1150
78.6148,100.2150
78.6339,100.1193
78.6881,100.0382
78.7692,99.9840
78.8648,99.9650
79.3898,99.9650
79.4855,99.9840
79.5666,100.0382
79.6208,100.1193
79.6398,100.2150
Z" /> 
<path style="fill:#02FFEE; fill-opacity:0.4000; 
stroke:#02FFEE; stroke-width:0.0000; stroke-opacity:1; 
stroke-linecap:round; stroke-linejoin:round;fill-rule:evenodd;"
d="M 77.8148,101.1150
77.7958,101.2107
77.7416,101.2918
77.6605,101.3460
77.5648,101.3650
77.0398,101.3650
76.9442,101.3460
76.8631,101.2918
76.8089,101.2107
76.7898,101.1150
76.7898,100.2150
76.8089,100.1193
76.8631,100.0382
76.9442,99.9840
77.0398,99.9650
77.5648,99.9650
77.6605,99.9840
77.7416,100.0382
77.7958,100.1193
77.8148,100.2150
Z" /> 
</g>
<g >
</g>
<g style="fill:#02FFEE; fill-opacity:0.4000; 
stroke:#02FFEE; stroke-width:0.0000; stroke-opacity:1; 
stroke-linecap:round; stroke-linejoin:round;">
<path style="fill:#02FFEE; fill-opacity:0.4000; 
stroke:#02FFEE; stroke-width:0.0000; stroke-opacity:1; 
stroke-linecap:round; stroke-linejoin:round;fill-rule:evenodd;"
d="M 72.7000,105.1900
71.5000,105.1900
71.5000,104.6400
72.7000,104.6400
Z" /> 
<path style="fill:#02FFEE; fill-opacity:0.4000; 
stroke:#02FFEE; stroke-width:0.0000; stroke-opacity:1; 
stroke-linecap:round; stroke-linejoin:round;fill-rule:evenodd;"
d="M 72.7000,104.2400
71.5000,104.2400
71.5000,103.6900
72.7000,103.6900
Z" /> 
<path style="fill:#02FFEE; fill-opacity:0.4000; 
stroke:#02FFEE; stroke-width:0.0000; stroke-opacity:1; 
stroke-linecap:round; stroke-linejoin:round;fill-rule:evenodd;"
d="M 72.7000,103.2900
71.5000,103.2900
71.5000,102.7400
72.7000,102.7400
Z" /> 
<path style="fill:#02FFEE; fill-opacity:0.4000; 
stroke:#02FFEE; stroke-width:0.0000; stroke-opacity:1; 
stroke-linecap:round; stroke-linejoin:round;fill-rule:evenodd;"
d="M 75.3000,103.2900
74.1000,103.2900
74.1000,102.7400
75.3000,102.7400
Z" /> 
<path style="fill:#02FFEE; fill-opacity:0.4000; 
stroke:#02FFEE; stroke-width:0.0000; stroke-opacity:1; 
stroke-linecap:round; stroke-linejoin:round;fill-rule:evenodd;"
d="M 75.3000,104.2400
74.1000,104.2400
74.1000,103.6900
75.3000,103.6900
Z" /> 
<path style="fill:#02FFEE; fill-opacity:0.4000; 
stroke:#02FFEE; stroke-width:0.0000; stroke-opacity:1; 
stroke-linecap:round; stroke-linejoin:round;fill-rule:evenodd;"
d="M 75.3000,105.1900
74.1000,105.1900
74.1000,104.6400
75.3000,104.6400
Z" /> 
</g>
<g >
</g>
<g style="fill:#02FFEE; fill-opacity:0.4000; 
stroke:#02FFEE; stroke-width:0.0000; stroke-opacity:1; 
stroke-linecap:round; stroke-linejoin:round;">
<path style="fill:#02FFEE; fill-opacity:0.4000; 
stroke:#02FFEE; stroke-width:0.0000; stroke-opacity:1; 
stroke-linecap:round; stroke-linejoin:round;fill-rule:evenodd;"
d="M 69.7250,101.2750
69.7060,101.3707
69.6518,101.4518
69.5707,101.5060
69.4750,101.5250
68.9500,101.5250
68.8543,101.5060
68.7732,101.4518
68.7190,101.3707
68.7000,101.2750
68.7000,100.3750
68.7190,100.2793
68.7732,100.1982
68.8543,100.1440
68.9500,100.1250
69.4750,100.1250
69.5707,100.1440
69.6518,100.1982
69.7060,100.2793
69.7250,100.3750
Z" /> 
<path style="fill:#02FFEE; fill-opacity:0.4000; 
stroke:#02FFEE; stroke-width:0.0000; stroke-opacity:1; 
stroke-linecap:round; stroke-linejoin:round;fill-rule:evenodd;"
d="M 67.9000,101.2750
67.8810,101.3707
67.8268,101.4518
67.7457,101.5060
67.6500,101.5250
67.1250,101.5250
67.0293,101.5060
66.9482,101.4518
66.8940,101.3707
66.8750,101.2750
66.8750,100.3750
66.8940,100.2793
66.9482,100.1982
67.0293,100.1440
67.1250,100.1250
67.6500,100.1250
67.7457,100.1440
67.8268,100.1982
67.8810,100.2793
67.9000,100.3750
Z" /> 
</g>
<g >
</g>
<g >
</g>
<g >
</g>
</g> 
</svg>
