<?xml version="1.0" standalone="no"?>
 <!DOCTYPE svg PUBLIC "-//W3C//DTD SVG 1.1//EN" 
 "http://www.w3.org/Graphics/SVG/1.1/DTD/svg11.dtd"> 
<svg
  xmlns:svg="http://www.w3.org/2000/svg"
  xmlns="http://www.w3.org/2000/svg"
  xmlns:xlink="http://www.w3.org/1999/xlink"
  version="1.1"
  width="297.0022mm" height="210.0072mm" viewBox="0.0000 0.0000 297.0022 210.0072">
<title>SVG Image created as CONTROL WIFI ESP32 S3 V4.0-F_Paste.svg date 2024/03/27 21:43:53 </title>
  <desc>Image generated by PCBNEW </desc>
<g style="fill:#000000; fill-opacity:1.0000;stroke:#000000; stroke-opacity:1.0000;
stroke-linecap:round; stroke-linejoin:round;"
 transform="translate(0 0) scale(1 1)">
</g>
<g style="fill:#000000; fill-opacity:0.0; 
stroke:#000000; stroke-width:0.0000; stroke-opacity:1; 
stroke-linecap:round; stroke-linejoin:round;">
<g >
</g>
<g >
</g>
<g >
</g>
<g >
</g>
<g >
</g>
<g style="fill:#B4A09A; fill-opacity:0.0; 
stroke:#B4A09A; stroke-width:0.0000; stroke-opacity:1; 
stroke-linecap:round; stroke-linejoin:round;">
</g>
<g style="fill:#B4A09A; fill-opacity:0.0; 
stroke:#B4A09A; stroke-width:0.0000; stroke-opacity:1; 
stroke-linecap:round; stroke-linejoin:round;">
</g>
<g style="fill:#B4A09A; fill-opacity:0.9000; 
stroke:#B4A09A; stroke-width:0.0000; stroke-opacity:1; 
stroke-linecap:round; stroke-linejoin:round;">
<path style="fill:#B4A09A; fill-opacity:0.9000; 
stroke:#B4A09A; stroke-width:0.0000; stroke-opacity:1; 
stroke-linecap:round; stroke-linejoin:round;fill-rule:evenodd;"
d="M 61.5500,89.5250
61.5690,89.4293
61.6232,89.3482
61.7043,89.2940
61.8000,89.2750
62.3000,89.2750
62.3957,89.2940
62.4768,89.3482
62.5310,89.4293
62.5500,89.5250
62.5500,90.4750
62.5310,90.5707
62.4768,90.6518
62.3957,90.7060
62.3000,90.7250
61.8000,90.7250
61.7043,90.7060
61.6232,90.6518
61.5690,90.5707
61.5500,90.4750
Z" /> 
<path style="fill:#B4A09A; fill-opacity:0.9000; 
stroke:#B4A09A; stroke-width:0.0000; stroke-opacity:1; 
stroke-linecap:round; stroke-linejoin:round;fill-rule:evenodd;"
d="M 63.4500,89.5250
63.4690,89.4293
63.5232,89.3482
63.6043,89.2940
63.7000,89.2750
64.2000,89.2750
64.2957,89.2940
64.3768,89.3482
64.4310,89.4293
64.4500,89.5250
64.4500,90.4750
64.4310,90.5707
64.3768,90.6518
64.2957,90.7060
64.2000,90.7250
63.7000,90.7250
63.6043,90.7060
63.5232,90.6518
63.4690,90.5707
63.4500,90.4750
Z" /> 
</g>
<g >
</g>
<g style="fill:#B4A09A; fill-opacity:0.9000; 
stroke:#B4A09A; stroke-width:0.0000; stroke-opacity:1; 
stroke-linecap:round; stroke-linejoin:round;">
<path style="fill:#B4A09A; fill-opacity:0.9000; 
stroke:#B4A09A; stroke-width:0.0000; stroke-opacity:1; 
stroke-linecap:round; stroke-linejoin:round;fill-rule:evenodd;"
d="M 116.8250,112.5500
116.8060,112.6457
116.7518,112.7268
116.6707,112.7810
116.5750,112.8000
116.0500,112.8000
115.9543,112.7810
115.8732,112.7268
115.8190,112.6457
115.8000,112.5500
115.8000,111.6500
115.8190,111.5543
115.8732,111.4732
115.9543,111.4190
116.0500,111.4000
116.5750,111.4000
116.6707,111.4190
116.7518,111.4732
116.8060,111.5543
116.8250,111.6500
Z" /> 
<path style="fill:#B4A09A; fill-opacity:0.9000; 
stroke:#B4A09A; stroke-width:0.0000; stroke-opacity:1; 
stroke-linecap:round; stroke-linejoin:round;fill-rule:evenodd;"
d="M 115.0000,112.5500
114.9810,112.6457
114.9268,112.7268
114.8457,112.7810
114.7500,112.8000
114.2250,112.8000
114.1293,112.7810
114.0482,112.7268
113.9940,112.6457
113.9750,112.5500
113.9750,111.6500
113.9940,111.5543
114.0482,111.4732
114.1293,111.4190
114.2250,111.4000
114.7500,111.4000
114.8457,111.4190
114.9268,111.4732
114.9810,111.5543
115.0000,111.6500
Z" /> 
</g>
<g >
</g>
<g style="fill:#B4A09A; fill-opacity:0.9000; 
stroke:#B4A09A; stroke-width:0.0000; stroke-opacity:1; 
stroke-linecap:round; stroke-linejoin:round;">
<path style="fill:#B4A09A; fill-opacity:0.9000; 
stroke:#B4A09A; stroke-width:0.0000; stroke-opacity:1; 
stroke-linecap:round; stroke-linejoin:round;fill-rule:evenodd;"
d="M 70.2000,116.4900
70.1810,116.5857
70.1268,116.6668
70.0457,116.7210
69.9500,116.7400
69.4500,116.7400
69.3543,116.7210
69.2732,116.6668
69.2190,116.5857
69.2000,116.4900
69.2000,115.5400
69.2190,115.4443
69.2732,115.3632
69.3543,115.3090
69.4500,115.2900
69.9500,115.2900
70.0457,115.3090
70.1268,115.3632
70.1810,115.4443
70.2000,115.5400
Z" /> 
<path style="fill:#B4A09A; fill-opacity:0.9000; 
stroke:#B4A09A; stroke-width:0.0000; stroke-opacity:1; 
stroke-linecap:round; stroke-linejoin:round;fill-rule:evenodd;"
d="M 68.3000,116.4900
68.2810,116.5857
68.2268,116.6668
68.1457,116.7210
68.0500,116.7400
67.5500,116.7400
67.4543,116.7210
67.3732,116.6668
67.3190,116.5857
67.3000,116.4900
67.3000,115.5400
67.3190,115.4443
67.3732,115.3632
67.4543,115.3090
67.5500,115.2900
68.0500,115.2900
68.1457,115.3090
68.2268,115.3632
68.2810,115.4443
68.3000,115.5400
Z" /> 
</g>
<g >
</g>
<g style="fill:#B4A09A; fill-opacity:0.9000; 
stroke:#B4A09A; stroke-width:0.0000; stroke-opacity:1; 
stroke-linecap:round; stroke-linejoin:round;">
<path style="fill:#B4A09A; fill-opacity:0.9000; 
stroke:#B4A09A; stroke-width:0.0000; stroke-opacity:1; 
stroke-linecap:round; stroke-linejoin:round;fill-rule:evenodd;"
d="M 87.4625,124.4712
87.4439,124.5645
87.3911,124.6436
87.3120,124.6964
87.2188,124.7150
86.7313,124.7150
86.6380,124.6964
86.5589,124.6436
86.5061,124.5645
86.4875,124.4712
86.4875,123.5587
86.5061,123.4655
86.5589,123.3864
86.6380,123.3336
86.7313,123.3150
87.2188,123.3150
87.3120,123.3336
87.3911,123.3864
87.4439,123.4655
87.4625,123.5587
Z" /> 
<path style="fill:#B4A09A; fill-opacity:0.9000; 
stroke:#B4A09A; stroke-width:0.0000; stroke-opacity:1; 
stroke-linecap:round; stroke-linejoin:round;fill-rule:evenodd;"
d="M 85.5875,124.4712
85.5689,124.5645
85.5161,124.6436
85.4370,124.6964
85.3438,124.7150
84.8563,124.7150
84.7630,124.6964
84.6839,124.6436
84.6311,124.5645
84.6125,124.4712
84.6125,123.5587
84.6311,123.4655
84.6839,123.3864
84.7630,123.3336
84.8563,123.3150
85.3438,123.3150
85.4370,123.3336
85.5161,123.3864
85.5689,123.4655
85.5875,123.5587
Z" /> 
</g>
<g >
</g>
<g style="fill:#B4A09A; fill-opacity:0.9000; 
stroke:#B4A09A; stroke-width:0.0000; stroke-opacity:1; 
stroke-linecap:round; stroke-linejoin:round;">
<path style="fill:#B4A09A; fill-opacity:0.9000; 
stroke:#B4A09A; stroke-width:0.0000; stroke-opacity:1; 
stroke-linecap:round; stroke-linejoin:round;fill-rule:evenodd;"
d="M 84.6125,126.0587
84.6311,125.9655
84.6839,125.8864
84.7630,125.8336
84.8563,125.8150
85.3438,125.8150
85.4370,125.8336
85.5161,125.8864
85.5689,125.9655
85.5875,126.0587
85.5875,126.9712
85.5689,127.0645
85.5161,127.1436
85.4370,127.1964
85.3438,127.2150
84.8563,127.2150
84.7630,127.1964
84.6839,127.1436
84.6311,127.0645
84.6125,126.9712
Z" /> 
<path style="fill:#B4A09A; fill-opacity:0.9000; 
stroke:#B4A09A; stroke-width:0.0000; stroke-opacity:1; 
stroke-linecap:round; stroke-linejoin:round;fill-rule:evenodd;"
d="M 86.4875,126.0587
86.5061,125.9655
86.5589,125.8864
86.6380,125.8336
86.7313,125.8150
87.2188,125.8150
87.3120,125.8336
87.3911,125.8864
87.4439,125.9655
87.4625,126.0587
87.4625,126.9712
87.4439,127.0645
87.3911,127.1436
87.3120,127.1964
87.2188,127.2150
86.7313,127.2150
86.6380,127.1964
86.5589,127.1436
86.5061,127.0645
86.4875,126.9712
Z" /> 
</g>
<g >
</g>
<g >
</g>
<g style="fill:#B4A09A; fill-opacity:0.9000; 
stroke:#B4A09A; stroke-width:0.0000; stroke-opacity:1; 
stroke-linecap:round; stroke-linejoin:round;">
<path style="fill:#B4A09A; fill-opacity:0.9000; 
stroke:#B4A09A; stroke-width:0.0000; stroke-opacity:1; 
stroke-linecap:round; stroke-linejoin:round;fill-rule:evenodd;"
d="M 86.3000,104.4750
86.2810,104.5707
86.2268,104.6518
86.1457,104.7060
86.0500,104.7250
85.5500,104.7250
85.4543,104.7060
85.3732,104.6518
85.3190,104.5707
85.3000,104.4750
85.3000,103.5250
85.3190,103.4293
85.3732,103.3482
85.4543,103.2940
85.5500,103.2750
86.0500,103.2750
86.1457,103.2940
86.2268,103.3482
86.2810,103.4293
86.3000,103.5250
Z" /> 
<path style="fill:#B4A09A; fill-opacity:0.9000; 
stroke:#B4A09A; stroke-width:0.0000; stroke-opacity:1; 
stroke-linecap:round; stroke-linejoin:round;fill-rule:evenodd;"
d="M 84.4000,104.4750
84.3810,104.5707
84.3268,104.6518
84.2457,104.7060
84.1500,104.7250
83.6500,104.7250
83.5543,104.7060
83.4732,104.6518
83.4190,104.5707
83.4000,104.4750
83.4000,103.5250
83.4190,103.4293
83.4732,103.3482
83.5543,103.2940
83.6500,103.2750
84.1500,103.2750
84.2457,103.2940
84.3268,103.3482
84.3810,103.4293
84.4000,103.5250
Z" /> 
</g>
<g >
</g>
<g style="fill:#B4A09A; fill-opacity:0.9000; 
stroke:#B4A09A; stroke-width:0.0000; stroke-opacity:1; 
stroke-linecap:round; stroke-linejoin:round;">
<path style="fill:#B4A09A; fill-opacity:0.9000; 
stroke:#B4A09A; stroke-width:0.0000; stroke-opacity:1; 
stroke-linecap:round; stroke-linejoin:round;fill-rule:evenodd;"
d="M 61.5250,116.1500
61.5060,116.2457
61.4518,116.3268
61.3707,116.3810
61.2750,116.4000
60.7500,116.4000
60.6543,116.3810
60.5732,116.3268
60.5190,116.2457
60.5000,116.1500
60.5000,115.2500
60.5190,115.1543
60.5732,115.0732
60.6543,115.0190
60.7500,115.0000
61.2750,115.0000
61.3707,115.0190
61.4518,115.0732
61.5060,115.1543
61.5250,115.2500
Z" /> 
<path style="fill:#B4A09A; fill-opacity:0.9000; 
stroke:#B4A09A; stroke-width:0.0000; stroke-opacity:1; 
stroke-linecap:round; stroke-linejoin:round;fill-rule:evenodd;"
d="M 59.7000,116.1500
59.6810,116.2457
59.6268,116.3268
59.5457,116.3810
59.4500,116.4000
58.9250,116.4000
58.8293,116.3810
58.7482,116.3268
58.6940,116.2457
58.6750,116.1500
58.6750,115.2500
58.6940,115.1543
58.7482,115.0732
58.8293,115.0190
58.9250,115.0000
59.4500,115.0000
59.5457,115.0190
59.6268,115.0732
59.6810,115.1543
59.7000,115.2500
Z" /> 
</g>
<g >
</g>
<g style="fill:#B4A09A; fill-opacity:0.9000; 
stroke:#B4A09A; stroke-width:0.0000; stroke-opacity:1; 
stroke-linecap:round; stroke-linejoin:round;">
<path style="fill:#B4A09A; fill-opacity:0.9000; 
stroke:#B4A09A; stroke-width:0.0000; stroke-opacity:1; 
stroke-linecap:round; stroke-linejoin:round;fill-rule:evenodd;"
d="M 71.3500,112.9500
71.3500,111.4500
73.3500,111.4500
73.3500,112.9500
Z" /> 
<path style="fill:#B4A09A; fill-opacity:0.9000; 
stroke:#B4A09A; stroke-width:0.0000; stroke-opacity:1; 
stroke-linecap:round; stroke-linejoin:round;fill-rule:evenodd;"
d="M 71.3500,115.2500
71.3500,113.7500
73.3500,113.7500
73.3500,115.2500
Z" /> 
<path style="fill:#B4A09A; fill-opacity:0.9000; 
stroke:#B4A09A; stroke-width:0.0000; stroke-opacity:1; 
stroke-linecap:round; stroke-linejoin:round;fill-rule:evenodd;"
d="M 77.6500,116.4000
77.6500,112.6000
79.6500,112.6000
79.6500,116.4000
Z" /> 
<path style="fill:#B4A09A; fill-opacity:0.9000; 
stroke:#B4A09A; stroke-width:0.0000; stroke-opacity:1; 
stroke-linecap:round; stroke-linejoin:round;fill-rule:evenodd;"
d="M 71.3500,117.5500
71.3500,116.0500
73.3500,116.0500
73.3500,117.5500
Z" /> 
</g>
<g >
</g>
<g >
</g>
<g style="fill:#B4A09A; fill-opacity:0.9000; 
stroke:#B4A09A; stroke-width:0.0000; stroke-opacity:1; 
stroke-linecap:round; stroke-linejoin:round;">
<path style="fill:#B4A09A; fill-opacity:0.9000; 
stroke:#B4A09A; stroke-width:0.0000; stroke-opacity:1; 
stroke-linecap:round; stroke-linejoin:round;fill-rule:evenodd;"
d="M 70.2000,114.2400
70.1810,114.3357
70.1268,114.4168
70.0457,114.4710
69.9500,114.4900
69.4500,114.4900
69.3543,114.4710
69.2732,114.4168
69.2190,114.3357
69.2000,114.2400
69.2000,113.2900
69.2190,113.1943
69.2732,113.1132
69.3543,113.0590
69.4500,113.0400
69.9500,113.0400
70.0457,113.0590
70.1268,113.1132
70.1810,113.1943
70.2000,113.2900
Z" /> 
<path style="fill:#B4A09A; fill-opacity:0.9000; 
stroke:#B4A09A; stroke-width:0.0000; stroke-opacity:1; 
stroke-linecap:round; stroke-linejoin:round;fill-rule:evenodd;"
d="M 68.3000,114.2400
68.2810,114.3357
68.2268,114.4168
68.1457,114.4710
68.0500,114.4900
67.5500,114.4900
67.4543,114.4710
67.3732,114.4168
67.3190,114.3357
67.3000,114.2400
67.3000,113.2900
67.3190,113.1943
67.3732,113.1132
67.4543,113.0590
67.5500,113.0400
68.0500,113.0400
68.1457,113.0590
68.2268,113.1132
68.2810,113.1943
68.3000,113.2900
Z" /> 
</g>
<g >
</g>
<g style="fill:#B4A09A; fill-opacity:0.9000; 
stroke:#B4A09A; stroke-width:0.0000; stroke-opacity:1; 
stroke-linecap:round; stroke-linejoin:round;">
<path style="fill:#B4A09A; fill-opacity:0.9000; 
stroke:#B4A09A; stroke-width:0.0000; stroke-opacity:1; 
stroke-linecap:round; stroke-linejoin:round;fill-rule:evenodd;"
d="M 87.4625,121.9712
87.4439,122.0645
87.3911,122.1436
87.3120,122.1964
87.2188,122.2150
86.7313,122.2150
86.6380,122.1964
86.5589,122.1436
86.5061,122.0645
86.4875,121.9712
86.4875,121.0587
86.5061,120.9655
86.5589,120.8864
86.6380,120.8336
86.7313,120.8150
87.2188,120.8150
87.3120,120.8336
87.3911,120.8864
87.4439,120.9655
87.4625,121.0587
Z" /> 
<path style="fill:#B4A09A; fill-opacity:0.9000; 
stroke:#B4A09A; stroke-width:0.0000; stroke-opacity:1; 
stroke-linecap:round; stroke-linejoin:round;fill-rule:evenodd;"
d="M 85.5875,121.9712
85.5689,122.0645
85.5161,122.1436
85.4370,122.1964
85.3438,122.2150
84.8563,122.2150
84.7630,122.1964
84.6839,122.1436
84.6311,122.0645
84.6125,121.9712
84.6125,121.0587
84.6311,120.9655
84.6839,120.8864
84.7630,120.8336
84.8563,120.8150
85.3438,120.8150
85.4370,120.8336
85.5161,120.8864
85.5689,120.9655
85.5875,121.0587
Z" /> 
</g>
<g >
</g>
<g style="fill:#B4A09A; fill-opacity:0.9000; 
stroke:#B4A09A; stroke-width:0.0000; stroke-opacity:1; 
stroke-linecap:round; stroke-linejoin:round;">
<path style="fill:#B4A09A; fill-opacity:0.9000; 
stroke:#B4A09A; stroke-width:0.0000; stroke-opacity:1; 
stroke-linecap:round; stroke-linejoin:round;fill-rule:evenodd;"
d="M 68.9500,104.4750
68.9310,104.5707
68.8768,104.6518
68.7957,104.7060
68.7000,104.7250
68.2000,104.7250
68.1043,104.7060
68.0232,104.6518
67.9690,104.5707
67.9500,104.4750
67.9500,103.5250
67.9690,103.4293
68.0232,103.3482
68.1043,103.2940
68.2000,103.2750
68.7000,103.2750
68.7957,103.2940
68.8768,103.3482
68.9310,103.4293
68.9500,103.5250
Z" /> 
<path style="fill:#B4A09A; fill-opacity:0.9000; 
stroke:#B4A09A; stroke-width:0.0000; stroke-opacity:1; 
stroke-linecap:round; stroke-linejoin:round;fill-rule:evenodd;"
d="M 67.0500,104.4750
67.0310,104.5707
66.9768,104.6518
66.8957,104.7060
66.8000,104.7250
66.3000,104.7250
66.2043,104.7060
66.1232,104.6518
66.0690,104.5707
66.0500,104.4750
66.0500,103.5250
66.0690,103.4293
66.1232,103.3482
66.2043,103.2940
66.3000,103.2750
66.8000,103.2750
66.8957,103.2940
66.9768,103.3482
67.0310,103.4293
67.0500,103.5250
Z" /> 
</g>
<g >
</g>
<g style="fill:#B4A09A; fill-opacity:0.9000; 
stroke:#B4A09A; stroke-width:0.0000; stroke-opacity:1; 
stroke-linecap:round; stroke-linejoin:round;">
<path style="fill:#B4A09A; fill-opacity:0.9000; 
stroke:#B4A09A; stroke-width:0.0000; stroke-opacity:1; 
stroke-linecap:round; stroke-linejoin:round;fill-rule:evenodd;"
d="M 80.5000,113.0250
80.5190,112.9293
80.5732,112.8482
80.6543,112.7940
80.7500,112.7750
81.2500,112.7750
81.3457,112.7940
81.4268,112.8482
81.4810,112.9293
81.5000,113.0250
81.5000,113.9750
81.4810,114.0707
81.4268,114.1518
81.3457,114.2060
81.2500,114.2250
80.7500,114.2250
80.6543,114.2060
80.5732,114.1518
80.5190,114.0707
80.5000,113.9750
Z" /> 
<path style="fill:#B4A09A; fill-opacity:0.9000; 
stroke:#B4A09A; stroke-width:0.0000; stroke-opacity:1; 
stroke-linecap:round; stroke-linejoin:round;fill-rule:evenodd;"
d="M 82.4000,113.0250
82.4190,112.9293
82.4732,112.8482
82.5543,112.7940
82.6500,112.7750
83.1500,112.7750
83.2457,112.7940
83.3268,112.8482
83.3810,112.9293
83.4000,113.0250
83.4000,113.9750
83.3810,114.0707
83.3268,114.1518
83.2457,114.2060
83.1500,114.2250
82.6500,114.2250
82.5543,114.2060
82.4732,114.1518
82.4190,114.0707
82.4000,113.9750
Z" /> 
</g>
<g >
</g>
<g style="fill:#B4A09A; fill-opacity:0.9000; 
stroke:#B4A09A; stroke-width:0.0000; stroke-opacity:1; 
stroke-linecap:round; stroke-linejoin:round;">
<path style="fill:#B4A09A; fill-opacity:0.9000; 
stroke:#B4A09A; stroke-width:0.0000; stroke-opacity:1; 
stroke-linecap:round; stroke-linejoin:round;fill-rule:evenodd;"
d="M 61.9750,83.0000
62.0707,83.0190
62.1518,83.0732
62.2060,83.1543
62.2250,83.2500
62.2250,83.7500
62.2060,83.8457
62.1518,83.9268
62.0707,83.9810
61.9750,84.0000
61.0250,84.0000
60.9293,83.9810
60.8482,83.9268
60.7940,83.8457
60.7750,83.7500
60.7750,83.2500
60.7940,83.1543
60.8482,83.0732
60.9293,83.0190
61.0250,83.0000
Z" /> 
<path style="fill:#B4A09A; fill-opacity:0.9000; 
stroke:#B4A09A; stroke-width:0.0000; stroke-opacity:1; 
stroke-linecap:round; stroke-linejoin:round;fill-rule:evenodd;"
d="M 61.9750,84.9000
62.0707,84.9190
62.1518,84.9732
62.2060,85.0543
62.2250,85.1500
62.2250,85.6500
62.2060,85.7457
62.1518,85.8268
62.0707,85.8810
61.9750,85.9000
61.0250,85.9000
60.9293,85.8810
60.8482,85.8268
60.7940,85.7457
60.7750,85.6500
60.7750,85.1500
60.7940,85.0543
60.8482,84.9732
60.9293,84.9190
61.0250,84.9000
Z" /> 
</g>
<g >
</g>
<g style="fill:#B4A09A; fill-opacity:0.9000; 
stroke:#B4A09A; stroke-width:0.0000; stroke-opacity:1; 
stroke-linecap:round; stroke-linejoin:round;">
<path style="fill:#B4A09A; fill-opacity:0.9000; 
stroke:#B4A09A; stroke-width:0.0000; stroke-opacity:1; 
stroke-linecap:round; stroke-linejoin:round;fill-rule:evenodd;"
d="M 80.5000,115.5400
80.5190,115.4443
80.5732,115.3632
80.6543,115.3090
80.7500,115.2900
81.2500,115.2900
81.3457,115.3090
81.4268,115.3632
81.4810,115.4443
81.5000,115.5400
81.5000,116.4900
81.4810,116.5857
81.4268,116.6668
81.3457,116.7210
81.2500,116.7400
80.7500,116.7400
80.6543,116.7210
80.5732,116.6668
80.5190,116.5857
80.5000,116.4900
Z" /> 
<path style="fill:#B4A09A; fill-opacity:0.9000; 
stroke:#B4A09A; stroke-width:0.0000; stroke-opacity:1; 
stroke-linecap:round; stroke-linejoin:round;fill-rule:evenodd;"
d="M 82.4000,115.5400
82.4190,115.4443
82.4732,115.3632
82.5543,115.3090
82.6500,115.2900
83.1500,115.2900
83.2457,115.3090
83.3268,115.3632
83.3810,115.4443
83.4000,115.5400
83.4000,116.4900
83.3810,116.5857
83.3268,116.6668
83.2457,116.7210
83.1500,116.7400
82.6500,116.7400
82.5543,116.7210
82.4732,116.6668
82.4190,116.5857
82.4000,116.4900
Z" /> 
</g>
<g >
</g>
<g style="fill:#B4A09A; fill-opacity:0.9000; 
stroke:#B4A09A; stroke-width:0.0000; stroke-opacity:1; 
stroke-linecap:round; stroke-linejoin:round;">
<path style="fill:#B4A09A; fill-opacity:0.9000; 
stroke:#B4A09A; stroke-width:0.0000; stroke-opacity:1; 
stroke-linecap:round; stroke-linejoin:round;fill-rule:evenodd;"
d="M 91.4250,124.4500
91.4060,124.5457
91.3518,124.6268
91.2707,124.6810
91.1750,124.7000
90.6500,124.7000
90.5543,124.6810
90.4732,124.6268
90.4190,124.5457
90.4000,124.4500
90.4000,123.5500
90.4190,123.4543
90.4732,123.3732
90.5543,123.3190
90.6500,123.3000
91.1750,123.3000
91.2707,123.3190
91.3518,123.3732
91.4060,123.4543
91.4250,123.5500
Z" /> 
<path style="fill:#B4A09A; fill-opacity:0.9000; 
stroke:#B4A09A; stroke-width:0.0000; stroke-opacity:1; 
stroke-linecap:round; stroke-linejoin:round;fill-rule:evenodd;"
d="M 89.6000,124.4500
89.5810,124.5457
89.5268,124.6268
89.4457,124.6810
89.3500,124.7000
88.8250,124.7000
88.7293,124.6810
88.6482,124.6268
88.5940,124.5457
88.5750,124.4500
88.5750,123.5500
88.5940,123.4543
88.6482,123.3732
88.7293,123.3190
88.8250,123.3000
89.3500,123.3000
89.4457,123.3190
89.5268,123.3732
89.5810,123.4543
89.6000,123.5500
Z" /> 
</g>
<g >
</g>
<g style="fill:#B4A09A; fill-opacity:0.9000; 
stroke:#B4A09A; stroke-width:0.0000; stroke-opacity:1; 
stroke-linecap:round; stroke-linejoin:round;">
<path style="fill:#B4A09A; fill-opacity:0.9000; 
stroke:#B4A09A; stroke-width:0.0000; stroke-opacity:1; 
stroke-linecap:round; stroke-linejoin:round;fill-rule:evenodd;"
d="M 102.5750,83.3500
102.5940,83.2543
102.6482,83.1732
102.7293,83.1190
102.8250,83.1000
103.3500,83.1000
103.4457,83.1190
103.5268,83.1732
103.5810,83.2543
103.6000,83.3500
103.6000,84.2500
103.5810,84.3457
103.5268,84.4268
103.4457,84.4810
103.3500,84.5000
102.8250,84.5000
102.7293,84.4810
102.6482,84.4268
102.5940,84.3457
102.5750,84.2500
Z" /> 
<path style="fill:#B4A09A; fill-opacity:0.9000; 
stroke:#B4A09A; stroke-width:0.0000; stroke-opacity:1; 
stroke-linecap:round; stroke-linejoin:round;fill-rule:evenodd;"
d="M 104.4000,83.3500
104.4190,83.2543
104.4732,83.1732
104.5543,83.1190
104.6500,83.1000
105.1750,83.1000
105.2707,83.1190
105.3518,83.1732
105.4060,83.2543
105.4250,83.3500
105.4250,84.2500
105.4060,84.3457
105.3518,84.4268
105.2707,84.4810
105.1750,84.5000
104.6500,84.5000
104.5543,84.4810
104.4732,84.4268
104.4190,84.3457
104.4000,84.2500
Z" /> 
</g>
<g >
</g>
<g style="fill:#B4A09A; fill-opacity:0.9000; 
stroke:#B4A09A; stroke-width:0.0000; stroke-opacity:1; 
stroke-linecap:round; stroke-linejoin:round;">
<path style="fill:#B4A09A; fill-opacity:0.9000; 
stroke:#B4A09A; stroke-width:0.0000; stroke-opacity:1; 
stroke-linecap:round; stroke-linejoin:round;fill-rule:evenodd;"
d="M 41.7250,90.3500
41.7060,90.4457
41.6518,90.5268
41.5707,90.5810
41.4750,90.6000
40.9500,90.6000
40.8543,90.5810
40.7732,90.5268
40.7190,90.4457
40.7000,90.3500
40.7000,89.4500
40.7190,89.3543
40.7732,89.2732
40.8543,89.2190
40.9500,89.2000
41.4750,89.2000
41.5707,89.2190
41.6518,89.2732
41.7060,89.3543
41.7250,89.4500
Z" /> 
<path style="fill:#B4A09A; fill-opacity:0.9000; 
stroke:#B4A09A; stroke-width:0.0000; stroke-opacity:1; 
stroke-linecap:round; stroke-linejoin:round;fill-rule:evenodd;"
d="M 39.9000,90.3500
39.8810,90.4457
39.8268,90.5268
39.7457,90.5810
39.6500,90.6000
39.1250,90.6000
39.0293,90.5810
38.9482,90.5268
38.8940,90.4457
38.8750,90.3500
38.8750,89.4500
38.8940,89.3543
38.9482,89.2732
39.0293,89.2190
39.1250,89.2000
39.6500,89.2000
39.7457,89.2190
39.8268,89.2732
39.8810,89.3543
39.9000,89.4500
Z" /> 
</g>
<g >
</g>
<g style="fill:#B4A09A; fill-opacity:0.9000; 
stroke:#B4A09A; stroke-width:0.0000; stroke-opacity:1; 
stroke-linecap:round; stroke-linejoin:round;">
<path style="fill:#B4A09A; fill-opacity:0.9000; 
stroke:#B4A09A; stroke-width:0.0000; stroke-opacity:1; 
stroke-linecap:round; stroke-linejoin:round;fill-rule:evenodd;"
d="M 77.4000,108.2650
77.4000,107.2650
78.6500,107.2650
78.6500,108.2650
Z" /> 
<path style="fill:#B4A09A; fill-opacity:0.9000; 
stroke:#B4A09A; stroke-width:0.0000; stroke-opacity:1; 
stroke-linecap:round; stroke-linejoin:round;fill-rule:evenodd;"
d="M 85.1500,108.2650
85.1500,107.2650
86.4000,107.2650
86.4000,108.2650
Z" /> 
</g>
<g >
</g>
<g >
</g>
<g >
</g>
<g >
</g>
<g style="fill:#B4A09A; fill-opacity:0.9000; 
stroke:#B4A09A; stroke-width:0.0000; stroke-opacity:1; 
stroke-linecap:round; stroke-linejoin:round;">
<path style="fill:#B4A09A; fill-opacity:0.9000; 
stroke:#B4A09A; stroke-width:0.0000; stroke-opacity:1; 
stroke-linecap:round; stroke-linejoin:round;fill-rule:evenodd;"
d="M 52.7500,86.3300
52.7500,87.5300
52.0500,87.5300
52.0500,86.3300
Z" /> 
<path style="fill:#B4A09A; fill-opacity:0.9000; 
stroke:#B4A09A; stroke-width:0.0000; stroke-opacity:1; 
stroke-linecap:round; stroke-linejoin:round;fill-rule:evenodd;"
d="M 50.7600,86.3300
50.7600,87.5300
50.0000,87.5300
50.0000,86.3300
Z" /> 
<path style="fill:#B4A09A; fill-opacity:0.9000; 
stroke:#B4A09A; stroke-width:0.0000; stroke-opacity:1; 
stroke-linecap:round; stroke-linejoin:round;fill-rule:evenodd;"
d="M 49.5500,86.3300
49.5500,87.5300
48.7500,87.5300
48.7500,86.3300
Z" /> 
<path style="fill:#B4A09A; fill-opacity:0.9000; 
stroke:#B4A09A; stroke-width:0.0000; stroke-opacity:1; 
stroke-linecap:round; stroke-linejoin:round;fill-rule:evenodd;"
d="M 51.7500,86.3300
51.7500,87.5300
51.0500,87.5300
51.0500,86.3300
Z" /> 
<path style="fill:#B4A09A; fill-opacity:0.9000; 
stroke:#B4A09A; stroke-width:0.0000; stroke-opacity:1; 
stroke-linecap:round; stroke-linejoin:round;fill-rule:evenodd;"
d="M 53.8000,86.3300
53.8000,87.5300
53.0400,87.5300
53.0400,86.3300
Z" /> 
<path style="fill:#B4A09A; fill-opacity:0.9000; 
stroke:#B4A09A; stroke-width:0.0000; stroke-opacity:1; 
stroke-linecap:round; stroke-linejoin:round;fill-rule:evenodd;"
d="M 55.0500,86.3300
55.0500,87.5300
54.2500,87.5300
54.2500,86.3300
Z" /> 
</g>
<g >
</g>
<g style="fill:#B4A09A; fill-opacity:0.9000; 
stroke:#B4A09A; stroke-width:0.0000; stroke-opacity:1; 
stroke-linecap:round; stroke-linejoin:round;">
<path style="fill:#B4A09A; fill-opacity:0.9000; 
stroke:#B4A09A; stroke-width:0.0000; stroke-opacity:1; 
stroke-linecap:round; stroke-linejoin:round;fill-rule:evenodd;"
d="M 65.9000,108.2650
65.9000,107.2650
67.1500,107.2650
67.1500,108.2650
Z" /> 
<path style="fill:#B4A09A; fill-opacity:0.9000; 
stroke:#B4A09A; stroke-width:0.0000; stroke-opacity:1; 
stroke-linecap:round; stroke-linejoin:round;fill-rule:evenodd;"
d="M 73.6500,108.2650
73.6500,107.2650
74.9000,107.2650
74.9000,108.2650
Z" /> 
</g>
<g >
</g>
<g style="fill:#B4A09A; fill-opacity:0.9000; 
stroke:#B4A09A; stroke-width:0.0000; stroke-opacity:1; 
stroke-linecap:round; stroke-linejoin:round;">
<path style="fill:#B4A09A; fill-opacity:0.9000; 
stroke:#B4A09A; stroke-width:0.0000; stroke-opacity:1; 
stroke-linecap:round; stroke-linejoin:round;fill-rule:evenodd;"
d="M 61.5750,87.0500
61.5940,86.9543
61.6482,86.8732
61.7293,86.8190
61.8250,86.8000
62.3500,86.8000
62.4457,86.8190
62.5268,86.8732
62.5810,86.9543
62.6000,87.0500
62.6000,87.9500
62.5810,88.0457
62.5268,88.1268
62.4457,88.1810
62.3500,88.2000
61.8250,88.2000
61.7293,88.1810
61.6482,88.1268
61.5940,88.0457
61.5750,87.9500
Z" /> 
<path style="fill:#B4A09A; fill-opacity:0.9000; 
stroke:#B4A09A; stroke-width:0.0000; stroke-opacity:1; 
stroke-linecap:round; stroke-linejoin:round;fill-rule:evenodd;"
d="M 63.4000,87.0500
63.4190,86.9543
63.4732,86.8732
63.5543,86.8190
63.6500,86.8000
64.1750,86.8000
64.2707,86.8190
64.3518,86.8732
64.4060,86.9543
64.4250,87.0500
64.4250,87.9500
64.4060,88.0457
64.3518,88.1268
64.2707,88.1810
64.1750,88.2000
63.6500,88.2000
63.5543,88.1810
63.4732,88.1268
63.4190,88.0457
63.4000,87.9500
Z" /> 
</g>
<g >
</g>
<g style="fill:#B4A09A; fill-opacity:0.9000; 
stroke:#B4A09A; stroke-width:0.0000; stroke-opacity:1; 
stroke-linecap:round; stroke-linejoin:round;">
<path style="fill:#B4A09A; fill-opacity:0.9000; 
stroke:#B4A09A; stroke-width:0.0000; stroke-opacity:1; 
stroke-linecap:round; stroke-linejoin:round;fill-rule:evenodd;"
d="M 95.9055,138.3507
95.9055,137.1061
96.7945,137.1061
96.7945,138.3507
Z" /> 
<path style="fill:#B4A09A; fill-opacity:0.9000; 
stroke:#B4A09A; stroke-width:0.0000; stroke-opacity:1; 
stroke-linecap:round; stroke-linejoin:round;fill-rule:evenodd;"
d="M 98.9055,138.3507
98.9055,137.1061
99.7945,137.1061
99.7945,138.3507
Z" /> 
<path style="fill:#B4A09A; fill-opacity:0.9000; 
stroke:#B4A09A; stroke-width:0.0000; stroke-opacity:1; 
stroke-linecap:round; stroke-linejoin:round;fill-rule:evenodd;"
d="M 100.4055,138.3507
100.4055,137.1061
101.2945,137.1061
101.2945,138.3507
Z" /> 
<path style="fill:#B4A09A; fill-opacity:0.9000; 
stroke:#B4A09A; stroke-width:0.0000; stroke-opacity:1; 
stroke-linecap:round; stroke-linejoin:round;fill-rule:evenodd;"
d="M 94.3936,139.1979
94.3936,138.3089
95.2064,138.3089
95.2064,139.1979
Z" /> 
<path style="fill:#B4A09A; fill-opacity:0.9000; 
stroke:#B4A09A; stroke-width:0.0000; stroke-opacity:1; 
stroke-linecap:round; stroke-linejoin:round;fill-rule:evenodd;"
d="M 101.9936,139.1979
101.9936,138.3089
102.8064,138.3089
102.8064,139.1979
Z" /> 
<path style="fill:#B4A09A; fill-opacity:0.9000; 
stroke:#B4A09A; stroke-width:0.0000; stroke-opacity:1; 
stroke-linecap:round; stroke-linejoin:round;fill-rule:evenodd;"
d="M 94.3936,141.2979
94.3936,140.4089
95.2064,140.4089
95.2064,141.2979
Z" /> 
<path style="fill:#B4A09A; fill-opacity:0.9000; 
stroke:#B4A09A; stroke-width:0.0000; stroke-opacity:1; 
stroke-linecap:round; stroke-linejoin:round;fill-rule:evenodd;"
d="M 101.9936,141.2979
101.9936,140.4089
102.8064,140.4089
102.8064,141.2979
Z" /> 
</g>
<g >
</g>
<g >
</g>
<g style="fill:#B4A09A; fill-opacity:0.9000; 
stroke:#B4A09A; stroke-width:0.0000; stroke-opacity:1; 
stroke-linecap:round; stroke-linejoin:round;">
<path style="fill:#B4A09A; fill-opacity:0.9000; 
stroke:#B4A09A; stroke-width:0.0000; stroke-opacity:1; 
stroke-linecap:round; stroke-linejoin:round;fill-rule:evenodd;"
d="M 91.3250,126.9650
91.3060,127.0607
91.2518,127.1418
91.1707,127.1960
91.0750,127.2150
90.5500,127.2150
90.4543,127.1960
90.3732,127.1418
90.3190,127.0607
90.3000,126.9650
90.3000,126.0650
90.3190,125.9693
90.3732,125.8882
90.4543,125.8340
90.5500,125.8150
91.0750,125.8150
91.1707,125.8340
91.2518,125.8882
91.3060,125.9693
91.3250,126.0650
Z" /> 
<path style="fill:#B4A09A; fill-opacity:0.9000; 
stroke:#B4A09A; stroke-width:0.0000; stroke-opacity:1; 
stroke-linecap:round; stroke-linejoin:round;fill-rule:evenodd;"
d="M 89.5000,126.9650
89.4810,127.0607
89.4268,127.1418
89.3457,127.1960
89.2500,127.2150
88.7250,127.2150
88.6293,127.1960
88.5482,127.1418
88.4940,127.0607
88.4750,126.9650
88.4750,126.0650
88.4940,125.9693
88.5482,125.8882
88.6293,125.8340
88.7250,125.8150
89.2500,125.8150
89.3457,125.8340
89.4268,125.8882
89.4810,125.9693
89.5000,126.0650
Z" /> 
</g>
<g >
</g>
<g style="fill:#B4A09A; fill-opacity:0.9000; 
stroke:#B4A09A; stroke-width:0.0000; stroke-opacity:1; 
stroke-linecap:round; stroke-linejoin:round;">
<path style="fill:#B4A09A; fill-opacity:0.9000; 
stroke:#B4A09A; stroke-width:0.0000; stroke-opacity:1; 
stroke-linecap:round; stroke-linejoin:round;fill-rule:evenodd;"
d="M 104.8750,123.0500
104.8940,122.9543
104.9482,122.8732
105.0293,122.8190
105.1250,122.8000
105.6500,122.8000
105.7457,122.8190
105.8268,122.8732
105.8810,122.9543
105.9000,123.0500
105.9000,123.9500
105.8810,124.0457
105.8268,124.1268
105.7457,124.1810
105.6500,124.2000
105.1250,124.2000
105.0293,124.1810
104.9482,124.1268
104.8940,124.0457
104.8750,123.9500
Z" /> 
<path style="fill:#B4A09A; fill-opacity:0.9000; 
stroke:#B4A09A; stroke-width:0.0000; stroke-opacity:1; 
stroke-linecap:round; stroke-linejoin:round;fill-rule:evenodd;"
d="M 106.7000,123.0500
106.7190,122.9543
106.7732,122.8732
106.8543,122.8190
106.9500,122.8000
107.4750,122.8000
107.5707,122.8190
107.6518,122.8732
107.7060,122.9543
107.7250,123.0500
107.7250,123.9500
107.7060,124.0457
107.6518,124.1268
107.5707,124.1810
107.4750,124.2000
106.9500,124.2000
106.8543,124.1810
106.7732,124.1268
106.7190,124.0457
106.7000,123.9500
Z" /> 
</g>
<g >
</g>
<g style="fill:#B4A09A; fill-opacity:0.9000; 
stroke:#B4A09A; stroke-width:0.0000; stroke-opacity:1; 
stroke-linecap:round; stroke-linejoin:round;">
<path style="fill:#B4A09A; fill-opacity:0.9000; 
stroke:#B4A09A; stroke-width:0.0000; stroke-opacity:1; 
stroke-linecap:round; stroke-linejoin:round;fill-rule:evenodd;"
d="M 49.4250,123.6500
49.4060,123.7457
49.3518,123.8268
49.2707,123.8810
49.1750,123.9000
48.6500,123.9000
48.5543,123.8810
48.4732,123.8268
48.4190,123.7457
48.4000,123.6500
48.4000,122.7500
48.4190,122.6543
48.4732,122.5732
48.5543,122.5190
48.6500,122.5000
49.1750,122.5000
49.2707,122.5190
49.3518,122.5732
49.4060,122.6543
49.4250,122.7500
Z" /> 
<path style="fill:#B4A09A; fill-opacity:0.9000; 
stroke:#B4A09A; stroke-width:0.0000; stroke-opacity:1; 
stroke-linecap:round; stroke-linejoin:round;fill-rule:evenodd;"
d="M 47.6000,123.6500
47.5810,123.7457
47.5268,123.8268
47.4457,123.8810
47.3500,123.9000
46.8250,123.9000
46.7293,123.8810
46.6482,123.8268
46.5940,123.7457
46.5750,123.6500
46.5750,122.7500
46.5940,122.6543
46.6482,122.5732
46.7293,122.5190
46.8250,122.5000
47.3500,122.5000
47.4457,122.5190
47.5268,122.5732
47.5810,122.6543
47.6000,122.7500
Z" /> 
</g>
<g >
</g>
<g style="fill:#B4A09A; fill-opacity:0.9000; 
stroke:#B4A09A; stroke-width:0.0000; stroke-opacity:1; 
stroke-linecap:round; stroke-linejoin:round;">
<path style="fill:#B4A09A; fill-opacity:0.9000; 
stroke:#B4A09A; stroke-width:0.0000; stroke-opacity:1; 
stroke-linecap:round; stroke-linejoin:round;fill-rule:evenodd;"
d="M 64.4750,83.0000
64.5707,83.0190
64.6518,83.0732
64.7060,83.1543
64.7250,83.2500
64.7250,83.7500
64.7060,83.8457
64.6518,83.9268
64.5707,83.9810
64.4750,84.0000
63.5250,84.0000
63.4293,83.9810
63.3482,83.9268
63.2940,83.8457
63.2750,83.7500
63.2750,83.2500
63.2940,83.1543
63.3482,83.0732
63.4293,83.0190
63.5250,83.0000
Z" /> 
<path style="fill:#B4A09A; fill-opacity:0.9000; 
stroke:#B4A09A; stroke-width:0.0000; stroke-opacity:1; 
stroke-linecap:round; stroke-linejoin:round;fill-rule:evenodd;"
d="M 64.4750,84.9000
64.5707,84.9190
64.6518,84.9732
64.7060,85.0543
64.7250,85.1500
64.7250,85.6500
64.7060,85.7457
64.6518,85.8268
64.5707,85.8810
64.4750,85.9000
63.5250,85.9000
63.4293,85.8810
63.3482,85.8268
63.2940,85.7457
63.2750,85.6500
63.2750,85.1500
63.2940,85.0543
63.3482,84.9732
63.4293,84.9190
63.5250,84.9000
Z" /> 
</g>
<g >
</g>
<g style="fill:#B4A09A; fill-opacity:0.9000; 
stroke:#B4A09A; stroke-width:0.0000; stroke-opacity:1; 
stroke-linecap:round; stroke-linejoin:round;">
<path style="fill:#B4A09A; fill-opacity:0.9000; 
stroke:#B4A09A; stroke-width:0.0000; stroke-opacity:1; 
stroke-linecap:round; stroke-linejoin:round;fill-rule:evenodd;"
d="M 66.6500,83.9550
66.6500,83.0550
68.1500,83.0550
68.1500,83.9550
Z" /> 
<path style="fill:#B4A09A; fill-opacity:0.9000; 
stroke:#B4A09A; stroke-width:0.0000; stroke-opacity:1; 
stroke-linecap:round; stroke-linejoin:round;fill-rule:evenodd;"
d="M 66.6500,85.2250
66.6500,84.3250
68.1500,84.3250
68.1500,85.2250
Z" /> 
<path style="fill:#B4A09A; fill-opacity:0.9000; 
stroke:#B4A09A; stroke-width:0.0000; stroke-opacity:1; 
stroke-linecap:round; stroke-linejoin:round;fill-rule:evenodd;"
d="M 66.6500,86.4950
66.6500,85.5950
68.1500,85.5950
68.1500,86.4950
Z" /> 
<path style="fill:#B4A09A; fill-opacity:0.9000; 
stroke:#B4A09A; stroke-width:0.0000; stroke-opacity:1; 
stroke-linecap:round; stroke-linejoin:round;fill-rule:evenodd;"
d="M 66.6500,87.7650
66.6500,86.8650
68.1500,86.8650
68.1500,87.7650
Z" /> 
<path style="fill:#B4A09A; fill-opacity:0.9000; 
stroke:#B4A09A; stroke-width:0.0000; stroke-opacity:1; 
stroke-linecap:round; stroke-linejoin:round;fill-rule:evenodd;"
d="M 66.6500,89.0350
66.6500,88.1350
68.1500,88.1350
68.1500,89.0350
Z" /> 
<path style="fill:#B4A09A; fill-opacity:0.9000; 
stroke:#B4A09A; stroke-width:0.0000; stroke-opacity:1; 
stroke-linecap:round; stroke-linejoin:round;fill-rule:evenodd;"
d="M 66.6500,90.3050
66.6500,89.4050
68.1500,89.4050
68.1500,90.3050
Z" /> 
<path style="fill:#B4A09A; fill-opacity:0.9000; 
stroke:#B4A09A; stroke-width:0.0000; stroke-opacity:1; 
stroke-linecap:round; stroke-linejoin:round;fill-rule:evenodd;"
d="M 66.6500,91.5750
66.6500,90.6750
68.1500,90.6750
68.1500,91.5750
Z" /> 
<path style="fill:#B4A09A; fill-opacity:0.9000; 
stroke:#B4A09A; stroke-width:0.0000; stroke-opacity:1; 
stroke-linecap:round; stroke-linejoin:round;fill-rule:evenodd;"
d="M 66.6500,92.8450
66.6500,91.9450
68.1500,91.9450
68.1500,92.8450
Z" /> 
<path style="fill:#B4A09A; fill-opacity:0.9000; 
stroke:#B4A09A; stroke-width:0.0000; stroke-opacity:1; 
stroke-linecap:round; stroke-linejoin:round;fill-rule:evenodd;"
d="M 66.6500,94.1150
66.6500,93.2150
68.1500,93.2150
68.1500,94.1150
Z" /> 
<path style="fill:#B4A09A; fill-opacity:0.9000; 
stroke:#B4A09A; stroke-width:0.0000; stroke-opacity:1; 
stroke-linecap:round; stroke-linejoin:round;fill-rule:evenodd;"
d="M 66.6500,95.3850
66.6500,94.4850
68.1500,94.4850
68.1500,95.3850
Z" /> 
<path style="fill:#B4A09A; fill-opacity:0.9000; 
stroke:#B4A09A; stroke-width:0.0000; stroke-opacity:1; 
stroke-linecap:round; stroke-linejoin:round;fill-rule:evenodd;"
d="M 66.6500,96.6550
66.6500,95.7550
68.1500,95.7550
68.1500,96.6550
Z" /> 
<path style="fill:#B4A09A; fill-opacity:0.9000; 
stroke:#B4A09A; stroke-width:0.0000; stroke-opacity:1; 
stroke-linecap:round; stroke-linejoin:round;fill-rule:evenodd;"
d="M 66.6500,97.9250
66.6500,97.0250
68.1500,97.0250
68.1500,97.9250
Z" /> 
<path style="fill:#B4A09A; fill-opacity:0.9000; 
stroke:#B4A09A; stroke-width:0.0000; stroke-opacity:1; 
stroke-linecap:round; stroke-linejoin:round;fill-rule:evenodd;"
d="M 66.6500,99.1950
66.6500,98.2950
68.1500,98.2950
68.1500,99.1950
Z" /> 
<path style="fill:#B4A09A; fill-opacity:0.9000; 
stroke:#B4A09A; stroke-width:0.0000; stroke-opacity:1; 
stroke-linecap:round; stroke-linejoin:round;fill-rule:evenodd;"
d="M 66.6500,100.4650
66.6500,99.5650
68.1500,99.5650
68.1500,100.4650
Z" /> 
<path style="fill:#B4A09A; fill-opacity:0.9000; 
stroke:#B4A09A; stroke-width:0.0000; stroke-opacity:1; 
stroke-linecap:round; stroke-linejoin:round;fill-rule:evenodd;"
d="M 68.7150,102.0150
68.7150,100.5150
69.6150,100.5150
69.6150,102.0150
Z" /> 
<path style="fill:#B4A09A; fill-opacity:0.9000; 
stroke:#B4A09A; stroke-width:0.0000; stroke-opacity:1; 
stroke-linecap:round; stroke-linejoin:round;fill-rule:evenodd;"
d="M 69.9850,102.0150
69.9850,100.5150
70.8850,100.5150
70.8850,102.0150
Z" /> 
<path style="fill:#B4A09A; fill-opacity:0.9000; 
stroke:#B4A09A; stroke-width:0.0000; stroke-opacity:1; 
stroke-linecap:round; stroke-linejoin:round;fill-rule:evenodd;"
d="M 71.2550,102.0150
71.2550,100.5150
72.1550,100.5150
72.1550,102.0150
Z" /> 
<path style="fill:#B4A09A; fill-opacity:0.9000; 
stroke:#B4A09A; stroke-width:0.0000; stroke-opacity:1; 
stroke-linecap:round; stroke-linejoin:round;fill-rule:evenodd;"
d="M 72.5250,102.0150
72.5250,100.5150
73.4250,100.5150
73.4250,102.0150
Z" /> 
<path style="fill:#B4A09A; fill-opacity:0.9000; 
stroke:#B4A09A; stroke-width:0.0000; stroke-opacity:1; 
stroke-linecap:round; stroke-linejoin:round;fill-rule:evenodd;"
d="M 73.7950,102.0150
73.7950,100.5150
74.6950,100.5150
74.6950,102.0150
Z" /> 
<path style="fill:#B4A09A; fill-opacity:0.9000; 
stroke:#B4A09A; stroke-width:0.0000; stroke-opacity:1; 
stroke-linecap:round; stroke-linejoin:round;fill-rule:evenodd;"
d="M 75.0650,102.0150
75.0650,100.5150
75.9650,100.5150
75.9650,102.0150
Z" /> 
<path style="fill:#B4A09A; fill-opacity:0.9000; 
stroke:#B4A09A; stroke-width:0.0000; stroke-opacity:1; 
stroke-linecap:round; stroke-linejoin:round;fill-rule:evenodd;"
d="M 76.3350,102.0150
76.3350,100.5150
77.2350,100.5150
77.2350,102.0150
Z" /> 
<path style="fill:#B4A09A; fill-opacity:0.9000; 
stroke:#B4A09A; stroke-width:0.0000; stroke-opacity:1; 
stroke-linecap:round; stroke-linejoin:round;fill-rule:evenodd;"
d="M 77.6050,102.0150
77.6050,100.5150
78.5050,100.5150
78.5050,102.0150
Z" /> 
<path style="fill:#B4A09A; fill-opacity:0.9000; 
stroke:#B4A09A; stroke-width:0.0000; stroke-opacity:1; 
stroke-linecap:round; stroke-linejoin:round;fill-rule:evenodd;"
d="M 78.8750,102.0150
78.8750,100.5150
79.7750,100.5150
79.7750,102.0150
Z" /> 
<path style="fill:#B4A09A; fill-opacity:0.9000; 
stroke:#B4A09A; stroke-width:0.0000; stroke-opacity:1; 
stroke-linecap:round; stroke-linejoin:round;fill-rule:evenodd;"
d="M 80.1450,102.0150
80.1450,100.5150
81.0450,100.5150
81.0450,102.0150
Z" /> 
<path style="fill:#B4A09A; fill-opacity:0.9000; 
stroke:#B4A09A; stroke-width:0.0000; stroke-opacity:1; 
stroke-linecap:round; stroke-linejoin:round;fill-rule:evenodd;"
d="M 81.4150,102.0150
81.4150,100.5150
82.3150,100.5150
82.3150,102.0150
Z" /> 
<path style="fill:#B4A09A; fill-opacity:0.9000; 
stroke:#B4A09A; stroke-width:0.0000; stroke-opacity:1; 
stroke-linecap:round; stroke-linejoin:round;fill-rule:evenodd;"
d="M 82.6850,102.0150
82.6850,100.5150
83.5850,100.5150
83.5850,102.0150
Z" /> 
<path style="fill:#B4A09A; fill-opacity:0.9000; 
stroke:#B4A09A; stroke-width:0.0000; stroke-opacity:1; 
stroke-linecap:round; stroke-linejoin:round;fill-rule:evenodd;"
d="M 84.1500,100.4650
84.1500,99.5650
85.6500,99.5650
85.6500,100.4650
Z" /> 
<path style="fill:#B4A09A; fill-opacity:0.9000; 
stroke:#B4A09A; stroke-width:0.0000; stroke-opacity:1; 
stroke-linecap:round; stroke-linejoin:round;fill-rule:evenodd;"
d="M 84.1500,99.1950
84.1500,98.2950
85.6500,98.2950
85.6500,99.1950
Z" /> 
<path style="fill:#B4A09A; fill-opacity:0.9000; 
stroke:#B4A09A; stroke-width:0.0000; stroke-opacity:1; 
stroke-linecap:round; stroke-linejoin:round;fill-rule:evenodd;"
d="M 84.1500,97.9250
84.1500,97.0250
85.6500,97.0250
85.6500,97.9250
Z" /> 
<path style="fill:#B4A09A; fill-opacity:0.9000; 
stroke:#B4A09A; stroke-width:0.0000; stroke-opacity:1; 
stroke-linecap:round; stroke-linejoin:round;fill-rule:evenodd;"
d="M 84.1500,96.6550
84.1500,95.7550
85.6500,95.7550
85.6500,96.6550
Z" /> 
<path style="fill:#B4A09A; fill-opacity:0.9000; 
stroke:#B4A09A; stroke-width:0.0000; stroke-opacity:1; 
stroke-linecap:round; stroke-linejoin:round;fill-rule:evenodd;"
d="M 84.1500,95.3850
84.1500,94.4850
85.6500,94.4850
85.6500,95.3850
Z" /> 
<path style="fill:#B4A09A; fill-opacity:0.9000; 
stroke:#B4A09A; stroke-width:0.0000; stroke-opacity:1; 
stroke-linecap:round; stroke-linejoin:round;fill-rule:evenodd;"
d="M 84.1500,94.1150
84.1500,93.2150
85.6500,93.2150
85.6500,94.1150
Z" /> 
<path style="fill:#B4A09A; fill-opacity:0.9000; 
stroke:#B4A09A; stroke-width:0.0000; stroke-opacity:1; 
stroke-linecap:round; stroke-linejoin:round;fill-rule:evenodd;"
d="M 84.1500,92.8450
84.1500,91.9450
85.6500,91.9450
85.6500,92.8450
Z" /> 
<path style="fill:#B4A09A; fill-opacity:0.9000; 
stroke:#B4A09A; stroke-width:0.0000; stroke-opacity:1; 
stroke-linecap:round; stroke-linejoin:round;fill-rule:evenodd;"
d="M 84.1500,91.5750
84.1500,90.6750
85.6500,90.6750
85.6500,91.5750
Z" /> 
<path style="fill:#B4A09A; fill-opacity:0.9000; 
stroke:#B4A09A; stroke-width:0.0000; stroke-opacity:1; 
stroke-linecap:round; stroke-linejoin:round;fill-rule:evenodd;"
d="M 84.1500,90.3050
84.1500,89.4050
85.6500,89.4050
85.6500,90.3050
Z" /> 
<path style="fill:#B4A09A; fill-opacity:0.9000; 
stroke:#B4A09A; stroke-width:0.0000; stroke-opacity:1; 
stroke-linecap:round; stroke-linejoin:round;fill-rule:evenodd;"
d="M 84.1500,89.0350
84.1500,88.1350
85.6500,88.1350
85.6500,89.0350
Z" /> 
<path style="fill:#B4A09A; fill-opacity:0.9000; 
stroke:#B4A09A; stroke-width:0.0000; stroke-opacity:1; 
stroke-linecap:round; stroke-linejoin:round;fill-rule:evenodd;"
d="M 84.1500,87.7650
84.1500,86.8650
85.6500,86.8650
85.6500,87.7650
Z" /> 
<path style="fill:#B4A09A; fill-opacity:0.9000; 
stroke:#B4A09A; stroke-width:0.0000; stroke-opacity:1; 
stroke-linecap:round; stroke-linejoin:round;fill-rule:evenodd;"
d="M 84.1500,86.4950
84.1500,85.5950
85.6500,85.5950
85.6500,86.4950
Z" /> 
<path style="fill:#B4A09A; fill-opacity:0.9000; 
stroke:#B4A09A; stroke-width:0.0000; stroke-opacity:1; 
stroke-linecap:round; stroke-linejoin:round;fill-rule:evenodd;"
d="M 84.1500,85.2250
84.1500,84.3250
85.6500,84.3250
85.6500,85.2250
Z" /> 
<path style="fill:#B4A09A; fill-opacity:0.9000; 
stroke:#B4A09A; stroke-width:0.0000; stroke-opacity:1; 
stroke-linecap:round; stroke-linejoin:round;fill-rule:evenodd;"
d="M 84.1500,83.9550
84.1500,83.0550
85.6500,83.0550
85.6500,83.9550
Z" /> 
<path style="fill:#B4A09A; fill-opacity:0.9000; 
stroke:#B4A09A; stroke-width:0.0000; stroke-opacity:1; 
stroke-linecap:round; stroke-linejoin:round;fill-rule:evenodd;"
d="M 74.2000,91.6750
74.2000,90.7750
75.1000,90.7750
75.1000,91.6750
Z" /> 
<path style="fill:#B4A09A; fill-opacity:0.9000; 
stroke:#B4A09A; stroke-width:0.0000; stroke-opacity:1; 
stroke-linecap:round; stroke-linejoin:round;fill-rule:evenodd;"
d="M 72.8000,91.6750
72.8000,90.7750
73.7000,90.7750
73.7000,91.6750
Z" /> 
<path style="fill:#B4A09A; fill-opacity:0.9000; 
stroke:#B4A09A; stroke-width:0.0000; stroke-opacity:1; 
stroke-linecap:round; stroke-linejoin:round;fill-rule:evenodd;"
d="M 75.6000,91.6750
75.6000,90.7750
76.5000,90.7750
76.5000,91.6750
Z" /> 
<path style="fill:#B4A09A; fill-opacity:0.9000; 
stroke:#B4A09A; stroke-width:0.0000; stroke-opacity:1; 
stroke-linecap:round; stroke-linejoin:round;fill-rule:evenodd;"
d="M 72.8000,93.0750
72.8000,92.1750
73.7000,92.1750
73.7000,93.0750
Z" /> 
<path style="fill:#B4A09A; fill-opacity:0.9000; 
stroke:#B4A09A; stroke-width:0.0000; stroke-opacity:1; 
stroke-linecap:round; stroke-linejoin:round;fill-rule:evenodd;"
d="M 74.2000,93.0750
74.2000,92.1750
75.1000,92.1750
75.1000,93.0750
Z" /> 
<path style="fill:#B4A09A; fill-opacity:0.9000; 
stroke:#B4A09A; stroke-width:0.0000; stroke-opacity:1; 
stroke-linecap:round; stroke-linejoin:round;fill-rule:evenodd;"
d="M 75.6000,93.0750
75.6000,92.1750
76.5000,92.1750
76.5000,93.0750
Z" /> 
<path style="fill:#B4A09A; fill-opacity:0.9000; 
stroke:#B4A09A; stroke-width:0.0000; stroke-opacity:1; 
stroke-linecap:round; stroke-linejoin:round;fill-rule:evenodd;"
d="M 72.8000,90.2750
72.8000,89.3750
73.7000,89.3750
73.7000,90.2750
Z" /> 
<path style="fill:#B4A09A; fill-opacity:0.9000; 
stroke:#B4A09A; stroke-width:0.0000; stroke-opacity:1; 
stroke-linecap:round; stroke-linejoin:round;fill-rule:evenodd;"
d="M 74.2000,90.2750
74.2000,89.3750
75.1000,89.3750
75.1000,90.2750
Z" /> 
<path style="fill:#B4A09A; fill-opacity:0.9000; 
stroke:#B4A09A; stroke-width:0.0000; stroke-opacity:1; 
stroke-linecap:round; stroke-linejoin:round;fill-rule:evenodd;"
d="M 75.6000,90.2750
75.6000,89.3750
76.5000,89.3750
76.5000,90.2750
Z" /> 
</g>
<g >
</g>
<g style="fill:#B4A09A; fill-opacity:0.9000; 
stroke:#B4A09A; stroke-width:0.0000; stroke-opacity:1; 
stroke-linecap:round; stroke-linejoin:round;">
<path style="fill:#B4A09A; fill-opacity:0.9000; 
stroke:#B4A09A; stroke-width:0.0000; stroke-opacity:1; 
stroke-linecap:round; stroke-linejoin:round;fill-rule:evenodd;"
d="M 91.2750,121.9500
91.2560,122.0457
91.2018,122.1268
91.1207,122.1810
91.0250,122.2000
90.5000,122.2000
90.4043,122.1810
90.3232,122.1268
90.2690,122.0457
90.2500,121.9500
90.2500,121.0500
90.2690,120.9543
90.3232,120.8732
90.4043,120.8190
90.5000,120.8000
91.0250,120.8000
91.1207,120.8190
91.2018,120.8732
91.2560,120.9543
91.2750,121.0500
Z" /> 
<path style="fill:#B4A09A; fill-opacity:0.9000; 
stroke:#B4A09A; stroke-width:0.0000; stroke-opacity:1; 
stroke-linecap:round; stroke-linejoin:round;fill-rule:evenodd;"
d="M 89.4500,121.9500
89.4310,122.0457
89.3768,122.1268
89.2957,122.1810
89.2000,122.2000
88.6750,122.2000
88.5793,122.1810
88.4982,122.1268
88.4440,122.0457
88.4250,121.9500
88.4250,121.0500
88.4440,120.9543
88.4982,120.8732
88.5793,120.8190
88.6750,120.8000
89.2000,120.8000
89.2957,120.8190
89.3768,120.8732
89.4310,120.9543
89.4500,121.0500
Z" /> 
</g>
<g >
</g>
<g >
</g>
<g >
</g>
<g >
</g>
<g >
</g>
<g >
</g>
<g >
</g>
<g >
</g>
<g >
</g>
<g >
</g>
<g >
</g>
<g >
</g>
<g >
</g>
<g >
</g>
<g >
</g>
<g >
</g>
</g> 
</svg>
