M48
; DRILL file {KiCad 8.0.6} date 2025-02-26T11:59:37+0100
; FORMAT={-:-/ absolute / inch / decimal}
; #@! TF.CreationDate,2025-02-26T11:59:37+01:00
; #@! TF.GenerationSoftware,Kicad,Pcbnew,8.0.6
; #@! TF.FileFunction,Plated,1,4,PTH
FMAT,2
INCH
; #@! TA.AperFunction,Plated,PTH,ViaDrill
T1C0.0157
; #@! TA.AperFunction,Plated,PTH,ComponentDrill
T2C0.0299
; #@! TA.AperFunction,Plated,PTH,ComponentDrill
T3C0.0350
; #@! TA.AperFunction,Plated,PTH,ComponentDrill
T4C0.0354
; #@! TA.AperFunction,Plated,PTH,ComponentDrill
T5C0.0390
; #@! TA.AperFunction,Plated,PTH,ComponentDrill
T6C0.0402
; #@! TA.AperFunction,Plated,PTH,ComponentDrill
T7C0.0512
; #@! TA.AperFunction,Plated,PTH,ComponentDrill
T8C0.0550
%
G90
G05
T1
X1.5846Y-3.5157
X2.0512Y-4.815
X2.2244Y-4.8248
X2.2283Y-4.6398
X2.2283Y-4.6949
X2.3642Y-4.626
X2.3643Y-4.6674
X2.3661Y-4.8203
X2.3706Y-4.785
X2.3937Y-3.3701
X2.3937Y-3.8425
X2.4798Y-4.9193
X2.5453Y-4.9134
X2.5984Y-4.9764
X2.6063Y-3.248
X2.6142Y-3.3091
X2.6319Y-4.7835
X2.6378Y-5.065
X2.6398Y-4.9488
X2.685Y-4.6713
X2.689Y-4.1102
X2.7303Y-4.9744
X2.7559Y-4.8898
X2.9066Y-3.8613
X2.9193Y-3.9154
X2.9272Y-5.0531
X2.937Y-3.8268
X2.9449Y-3.8858
X2.9685Y-3.561
X2.9686Y-3.7993
X2.9783Y-3.8524
X3.0177Y-4.5079
X3.0217Y-4.5616
X3.0472Y-4.4114
X3.0472Y-4.8307
X3.1437Y-4.3583
X3.1693Y-4.2126
X3.189Y-3.315
X3.189Y-3.4941
X3.1949Y-5.1457
X3.1969Y-3.2598
X3.2913Y-3.7362
X3.2913Y-4.2736
X3.2933Y-4.2106
X3.2953Y-3.8465
X3.2972Y-3.9075
X3.3927Y-4.3287
X3.4547Y-3.4173
X3.7598Y-3.3504
X3.7598Y-3.4035
X3.9429Y-3.5157
X4.0079Y-4.7992
X4.0315Y-3.2992
T2
X3.4551Y-5.3346
X3.5551Y-5.3346
X3.6551Y-5.3346
X3.8563Y-5.3346
X3.9563Y-5.3346
X4.0563Y-5.3346
T3
X1.5193Y-4.0339
X1.5193Y-4.1339
X1.5193Y-4.2339
X1.8193Y-4.5339
X1.9193Y-4.5339
X2.0193Y-4.5339
X3.6846Y-4.0339
X3.6846Y-4.1339
X3.6846Y-4.2339
X3.9846Y-4.5339
X4.0846Y-4.5339
X4.1846Y-4.5339
T4
X1.7943Y-3.6339
X1.7943Y-3.8339
X2.0443Y-3.6339
X2.0443Y-3.8339
X3.9596Y-3.6339
X3.9596Y-3.8339
X4.2096Y-3.6339
X4.2096Y-3.8339
T5
X1.4911Y-3.2964
X1.6683Y-3.2964
X4.3199Y-3.2662
X4.497Y-3.2662
T6
X3.0394Y-5.4803
X3.1575Y-5.4803
T7
X1.4419Y-3.3944
X1.7179Y-3.3944
X4.2707Y-3.3643
X4.5467Y-3.3643
T8
X1.6193Y-3.8714
X1.6193Y-4.3964
X2.2193Y-3.8714
X2.2193Y-4.3964
X3.7846Y-3.8714
X3.7846Y-4.3964
X4.3846Y-3.8714
X4.3846Y-4.3964
M30
