%TF.GenerationSoftware,KiCad,Pcbnew,8.0.6*%
%TF.CreationDate,2025-02-26T11:59:35+01:00*%
%TF.ProjectId,CONTROL WIFI ESP32 S3 V4.0,434f4e54-524f-44c2-9057-494649204553,rev?*%
%TF.SameCoordinates,Original*%
%TF.FileFunction,Drillmap*%
%TF.FilePolarity,Positive*%
%FSLAX45Y45*%
G04 Gerber Fmt 4.5, Leading zero omitted, Abs format (unit mm)*
G04 Created by KiCad (PCBNEW 8.0.6) date 2025-02-26 11:59:35*
%MOMM*%
%LPD*%
G01*
G04 APERTURE LIST*
%ADD10C,0.100000*%
%ADD11C,0.200000*%
%ADD12C,0.102000*%
%ADD13C,0.130000*%
%ADD14C,0.139700*%
G04 APERTURE END LIST*
D10*
X11915000Y-10676500D02*
G75*
G02*
X11715000Y-10676500I-100000J0D01*
G01*
X11715000Y-10676500D02*
G75*
G02*
X11915000Y-10676500I100000J0D01*
G01*
X12115000Y-12176500D02*
X12115000Y-8576500D01*
X12115000Y-12176500D02*
G75*
G02*
X10115000Y-14176500I-2000000J0D01*
G01*
X3115000Y-8576500D02*
G75*
G02*
X3515000Y-8176500I400000J0D01*
G01*
X11715000Y-8176500D02*
G75*
G02*
X12115000Y-8576500I0J-400000D01*
G01*
X5115000Y-14176500D02*
G75*
G02*
X3115000Y-12176500I0J2000000D01*
G01*
X3515000Y-8176500D02*
X11715000Y-8176500D01*
X11415000Y-9276500D02*
G75*
G02*
X11215000Y-9276500I-100000J0D01*
G01*
X11215000Y-9276500D02*
G75*
G02*
X11415000Y-9276500I100000J0D01*
G01*
X3615000Y-9376500D02*
G75*
G02*
X3415000Y-9376500I-100000J0D01*
G01*
X3415000Y-9376500D02*
G75*
G02*
X3615000Y-9376500I100000J0D01*
G01*
X3615000Y-11676500D02*
G75*
G02*
X3415000Y-11676500I-100000J0D01*
G01*
X3415000Y-11676500D02*
G75*
G02*
X3615000Y-11676500I100000J0D01*
G01*
X3115000Y-8576500D02*
X3115000Y-12176500D01*
X5115000Y-14176500D02*
X10115000Y-14176500D01*
D11*
D10*
X4005000Y-8910000D02*
X4045000Y-8950000D01*
X4045000Y-8910000D02*
X4005000Y-8950000D01*
X5190000Y-12210000D02*
X5230000Y-12250000D01*
X5230000Y-12210000D02*
X5190000Y-12250000D01*
X5630000Y-12235000D02*
X5670000Y-12275000D01*
X5670000Y-12235000D02*
X5630000Y-12275000D01*
X5640000Y-11765000D02*
X5680000Y-11805000D01*
X5680000Y-11765000D02*
X5640000Y-11805000D01*
X5640000Y-11905000D02*
X5680000Y-11945000D01*
X5680000Y-11905000D02*
X5640000Y-11945000D01*
X5985000Y-11730000D02*
X6025000Y-11770000D01*
X6025000Y-11730000D02*
X5985000Y-11770000D01*
X5985200Y-11835200D02*
X6025200Y-11875200D01*
X6025200Y-11835200D02*
X5985200Y-11875200D01*
X5990000Y-12223650D02*
X6030000Y-12263650D01*
X6030000Y-12223650D02*
X5990000Y-12263650D01*
X6001218Y-12133918D02*
X6041218Y-12173918D01*
X6041218Y-12133918D02*
X6001218Y-12173918D01*
X6060000Y-8540000D02*
X6100000Y-8580000D01*
X6100000Y-8540000D02*
X6060000Y-8580000D01*
X6060000Y-9740000D02*
X6100000Y-9780000D01*
X6100000Y-9740000D02*
X6060000Y-9780000D01*
X6278650Y-12475000D02*
X6318650Y-12515000D01*
X6318650Y-12475000D02*
X6278650Y-12515000D01*
X6445000Y-12460000D02*
X6485000Y-12500000D01*
X6485000Y-12460000D02*
X6445000Y-12500000D01*
X6580000Y-12620000D02*
X6620000Y-12660000D01*
X6620000Y-12620000D02*
X6580000Y-12660000D01*
X6600000Y-8230000D02*
X6640000Y-8270000D01*
X6640000Y-8230000D02*
X6600000Y-8270000D01*
X6620000Y-8385000D02*
X6660000Y-8425000D01*
X6660000Y-8385000D02*
X6620000Y-8425000D01*
X6665000Y-12130000D02*
X6705000Y-12170000D01*
X6705000Y-12130000D02*
X6665000Y-12170000D01*
X6680000Y-12845000D02*
X6720000Y-12885000D01*
X6720000Y-12845000D02*
X6680000Y-12885000D01*
X6685000Y-12550000D02*
X6725000Y-12590000D01*
X6725000Y-12550000D02*
X6685000Y-12590000D01*
X6800000Y-11845000D02*
X6840000Y-11885000D01*
X6840000Y-11845000D02*
X6800000Y-11885000D01*
X6810000Y-10420000D02*
X6850000Y-10460000D01*
X6850000Y-10420000D02*
X6810000Y-10460000D01*
X6915000Y-12615000D02*
X6955000Y-12655000D01*
X6955000Y-12615000D02*
X6915000Y-12655000D01*
X6980000Y-12400000D02*
X7020000Y-12440000D01*
X7020000Y-12400000D02*
X6980000Y-12440000D01*
X7362654Y-9787655D02*
X7402654Y-9827655D01*
X7402654Y-9787655D02*
X7362654Y-9827655D01*
X7395000Y-9925000D02*
X7435000Y-9965000D01*
X7435000Y-9925000D02*
X7395000Y-9965000D01*
X7415000Y-12815000D02*
X7455000Y-12855000D01*
X7455000Y-12815000D02*
X7415000Y-12855000D01*
X7440000Y-9700000D02*
X7480000Y-9740000D01*
X7480000Y-9700000D02*
X7440000Y-9740000D01*
X7460000Y-9850000D02*
X7500000Y-9890000D01*
X7500000Y-9850000D02*
X7460000Y-9890000D01*
X7520000Y-9025000D02*
X7560000Y-9065000D01*
X7560000Y-9025000D02*
X7520000Y-9065000D01*
X7520154Y-9630155D02*
X7560154Y-9670155D01*
X7560154Y-9630155D02*
X7520154Y-9670155D01*
X7545000Y-9765000D02*
X7585000Y-9805000D01*
X7585000Y-9765000D02*
X7545000Y-9805000D01*
X7645000Y-11430000D02*
X7685000Y-11470000D01*
X7685000Y-11430000D02*
X7645000Y-11470000D01*
X7655000Y-11566350D02*
X7695000Y-11606350D01*
X7695000Y-11566350D02*
X7655000Y-11606350D01*
X7720000Y-11185000D02*
X7760000Y-11225000D01*
X7760000Y-11185000D02*
X7720000Y-11225000D01*
X7720000Y-12250000D02*
X7760000Y-12290000D01*
X7760000Y-12250000D02*
X7720000Y-12290000D01*
X7965000Y-11050000D02*
X8005000Y-11090000D01*
X8005000Y-11050000D02*
X7965000Y-11090000D01*
X8030000Y-10680000D02*
X8070000Y-10720000D01*
X8070000Y-10680000D02*
X8030000Y-10720000D01*
X8080000Y-8400000D02*
X8120000Y-8440000D01*
X8120000Y-8400000D02*
X8080000Y-8440000D01*
X8080000Y-8855000D02*
X8120000Y-8895000D01*
X8120000Y-8855000D02*
X8080000Y-8895000D01*
X8095000Y-13050000D02*
X8135000Y-13090000D01*
X8135000Y-13050000D02*
X8095000Y-13090000D01*
X8100000Y-8260000D02*
X8140000Y-8300000D01*
X8140000Y-8260000D02*
X8100000Y-8300000D01*
X8340000Y-9470000D02*
X8380000Y-9510000D01*
X8380000Y-9470000D02*
X8340000Y-9510000D01*
X8340000Y-10835000D02*
X8380000Y-10875000D01*
X8380000Y-10835000D02*
X8340000Y-10875000D01*
X8345000Y-10675000D02*
X8385000Y-10715000D01*
X8385000Y-10675000D02*
X8345000Y-10715000D01*
X8350000Y-9750000D02*
X8390000Y-9790000D01*
X8390000Y-9750000D02*
X8350000Y-9790000D01*
X8355000Y-9905000D02*
X8395000Y-9945000D01*
X8395000Y-9905000D02*
X8355000Y-9945000D01*
X8597500Y-10975000D02*
X8637500Y-11015000D01*
X8637500Y-10975000D02*
X8597500Y-11015000D01*
X8755000Y-8660000D02*
X8795000Y-8700000D01*
X8795000Y-8660000D02*
X8755000Y-8700000D01*
X9530000Y-8490000D02*
X9570000Y-8530000D01*
X9570000Y-8490000D02*
X9530000Y-8530000D01*
X9530000Y-8625000D02*
X9570000Y-8665000D01*
X9570000Y-8625000D02*
X9530000Y-8665000D01*
X9995000Y-8910000D02*
X10035000Y-8950000D01*
X10035000Y-8910000D02*
X9995000Y-8950000D01*
X10160000Y-12170000D02*
X10200000Y-12210000D01*
X10200000Y-12170000D02*
X10160000Y-12210000D01*
X10220000Y-8360000D02*
X10260000Y-8400000D01*
X10260000Y-8360000D02*
X10220000Y-8400000D01*
X8814000Y-13550000D02*
G75*
G02*
X8738000Y-13550000I-38000J0D01*
G01*
X8738000Y-13550000D02*
G75*
G02*
X8814000Y-13550000I38000J0D01*
G01*
X9068000Y-13550000D02*
G75*
G02*
X8992000Y-13550000I-38000J0D01*
G01*
X8992000Y-13550000D02*
G75*
G02*
X9068000Y-13550000I38000J0D01*
G01*
X9322000Y-13550000D02*
G75*
G02*
X9246000Y-13550000I-38000J0D01*
G01*
X9246000Y-13550000D02*
G75*
G02*
X9322000Y-13550000I38000J0D01*
G01*
X9833000Y-13550000D02*
G75*
G02*
X9757000Y-13550000I-38000J0D01*
G01*
X9757000Y-13550000D02*
G75*
G02*
X9833000Y-13550000I38000J0D01*
G01*
X10087000Y-13550000D02*
G75*
G02*
X10011000Y-13550000I-38000J0D01*
G01*
X10011000Y-13550000D02*
G75*
G02*
X10087000Y-13550000I38000J0D01*
G01*
X10341000Y-13550000D02*
G75*
G02*
X10265000Y-13550000I-38000J0D01*
G01*
X10265000Y-13550000D02*
G75*
G02*
X10341000Y-13550000I38000J0D01*
G01*
X3859000Y-10201550D02*
X3859000Y-10290450D01*
X3814550Y-10246000D02*
X3903450Y-10246000D01*
X3859000Y-10455550D02*
X3859000Y-10544450D01*
X3814550Y-10500000D02*
X3903450Y-10500000D01*
X3859000Y-10709550D02*
X3859000Y-10798450D01*
X3814550Y-10754000D02*
X3903450Y-10754000D01*
X4621000Y-11471550D02*
X4621000Y-11560450D01*
X4576550Y-11516000D02*
X4665450Y-11516000D01*
X4875000Y-11471550D02*
X4875000Y-11560450D01*
X4830550Y-11516000D02*
X4919450Y-11516000D01*
X5129000Y-11471550D02*
X5129000Y-11560450D01*
X5084550Y-11516000D02*
X5173450Y-11516000D01*
X9359000Y-10201550D02*
X9359000Y-10290450D01*
X9314550Y-10246000D02*
X9403450Y-10246000D01*
X9359000Y-10455550D02*
X9359000Y-10544450D01*
X9314550Y-10500000D02*
X9403450Y-10500000D01*
X9359000Y-10709550D02*
X9359000Y-10798450D01*
X9314550Y-10754000D02*
X9403450Y-10754000D01*
X10121000Y-11471550D02*
X10121000Y-11560450D01*
X10076550Y-11516000D02*
X10165450Y-11516000D01*
X10375000Y-11471550D02*
X10375000Y-11560450D01*
X10330550Y-11516000D02*
X10419450Y-11516000D01*
X10629000Y-11471550D02*
X10629000Y-11560450D01*
X10584550Y-11516000D02*
X10673450Y-11516000D01*
X4589320Y-9261820D02*
X4589320Y-9198180D01*
X4525680Y-9198180D01*
X4525680Y-9261820D01*
X4589320Y-9261820D01*
X4589320Y-9769820D02*
X4589320Y-9706180D01*
X4525680Y-9706180D01*
X4525680Y-9769820D01*
X4589320Y-9769820D01*
X5224320Y-9261820D02*
X5224320Y-9198180D01*
X5160680Y-9198180D01*
X5160680Y-9261820D01*
X5224320Y-9261820D01*
X5224320Y-9769820D02*
X5224320Y-9706180D01*
X5160680Y-9706180D01*
X5160680Y-9769820D01*
X5224320Y-9769820D01*
X10089320Y-9261820D02*
X10089320Y-9198180D01*
X10025680Y-9198180D01*
X10025680Y-9261820D01*
X10089320Y-9261820D01*
X10089320Y-9769820D02*
X10089320Y-9706180D01*
X10025680Y-9706180D01*
X10025680Y-9769820D01*
X10089320Y-9769820D01*
X10724320Y-9261820D02*
X10724320Y-9198180D01*
X10660680Y-9198180D01*
X10660680Y-9261820D01*
X10724320Y-9261820D01*
X10724320Y-9769820D02*
X10724320Y-9706180D01*
X10660680Y-9706180D01*
X10660680Y-9769820D01*
X10724320Y-9769820D01*
X3787500Y-8422250D02*
X3837000Y-8372750D01*
X3787500Y-8323250D01*
X3738000Y-8372750D01*
X3787500Y-8422250D01*
X4237500Y-8422250D02*
X4287000Y-8372750D01*
X4237500Y-8323250D01*
X4188000Y-8372750D01*
X4237500Y-8422250D01*
X10972500Y-8345750D02*
X11022000Y-8296250D01*
X10972500Y-8246750D01*
X10923000Y-8296250D01*
X10972500Y-8345750D01*
X11422500Y-8345750D02*
X11472000Y-8296250D01*
X11422500Y-8246750D01*
X11373000Y-8296250D01*
X11422500Y-8345750D01*
D12*
X7669000Y-13869000D02*
X7771000Y-13971000D01*
X7771000Y-13869000D02*
X7669000Y-13971000D01*
X7771000Y-13920000D02*
G75*
G02*
X7669000Y-13920000I-51000J0D01*
G01*
X7669000Y-13920000D02*
G75*
G02*
X7771000Y-13920000I51000J0D01*
G01*
X7969000Y-13869000D02*
X8071000Y-13971000D01*
X8071000Y-13869000D02*
X7969000Y-13971000D01*
X8071000Y-13920000D02*
G75*
G02*
X7969000Y-13920000I-51000J0D01*
G01*
X7969000Y-13920000D02*
G75*
G02*
X8071000Y-13920000I51000J0D01*
G01*
D13*
X3597500Y-8556750D02*
X3727500Y-8686750D01*
X3727500Y-8556750D02*
X3597500Y-8686750D01*
X3662500Y-8556750D02*
X3662500Y-8686750D01*
X3597500Y-8621750D02*
X3727500Y-8621750D01*
X4298500Y-8556750D02*
X4428500Y-8686750D01*
X4428500Y-8556750D02*
X4298500Y-8686750D01*
X4363500Y-8556750D02*
X4363500Y-8686750D01*
X4298500Y-8621750D02*
X4428500Y-8621750D01*
X10782500Y-8480250D02*
X10912500Y-8610250D01*
X10912500Y-8480250D02*
X10782500Y-8610250D01*
X10847500Y-8480250D02*
X10847500Y-8610250D01*
X10782500Y-8545250D02*
X10912500Y-8545250D01*
X11483500Y-8480250D02*
X11613500Y-8610250D01*
X11613500Y-8480250D02*
X11483500Y-8610250D01*
X11548500Y-8480250D02*
X11548500Y-8610250D01*
X11483500Y-8545250D02*
X11613500Y-8545250D01*
D14*
X4043150Y-9763400D02*
X4182850Y-9903100D01*
X4182850Y-9763400D02*
X4043150Y-9903100D01*
X4162392Y-9882642D02*
X4162392Y-9783858D01*
X4063608Y-9783858D01*
X4063608Y-9882642D01*
X4162392Y-9882642D01*
X4043150Y-11096900D02*
X4182850Y-11236600D01*
X4182850Y-11096900D02*
X4043150Y-11236600D01*
X4162392Y-11216142D02*
X4162392Y-11117358D01*
X4063608Y-11117358D01*
X4063608Y-11216142D01*
X4162392Y-11216142D01*
X5567150Y-9763400D02*
X5706850Y-9903100D01*
X5706850Y-9763400D02*
X5567150Y-9903100D01*
X5686392Y-9882642D02*
X5686392Y-9783858D01*
X5587608Y-9783858D01*
X5587608Y-9882642D01*
X5686392Y-9882642D01*
X5567150Y-11096900D02*
X5706850Y-11236600D01*
X5706850Y-11096900D02*
X5567150Y-11236600D01*
X5686392Y-11216142D02*
X5686392Y-11117358D01*
X5587608Y-11117358D01*
X5587608Y-11216142D01*
X5686392Y-11216142D01*
X9543150Y-9763400D02*
X9682850Y-9903100D01*
X9682850Y-9763400D02*
X9543150Y-9903100D01*
X9662392Y-9882642D02*
X9662392Y-9783858D01*
X9563608Y-9783858D01*
X9563608Y-9882642D01*
X9662392Y-9882642D01*
X9543150Y-11096900D02*
X9682850Y-11236600D01*
X9682850Y-11096900D02*
X9543150Y-11236600D01*
X9662392Y-11216142D02*
X9662392Y-11117358D01*
X9563608Y-11117358D01*
X9563608Y-11216142D01*
X9662392Y-11216142D01*
X11067150Y-9763400D02*
X11206850Y-9903100D01*
X11206850Y-9763400D02*
X11067150Y-9903100D01*
X11186392Y-9882642D02*
X11186392Y-9783858D01*
X11087608Y-9783858D01*
X11087608Y-9882642D01*
X11186392Y-9882642D01*
X11067150Y-11096900D02*
X11206850Y-11236600D01*
X11206850Y-11096900D02*
X11067150Y-11236600D01*
X11186392Y-11216142D02*
X11186392Y-11117358D01*
X11087608Y-11117358D01*
X11087608Y-11216142D01*
X11186392Y-11216142D01*
D11*
X3370777Y-14492984D02*
X3370777Y-14292984D01*
X3370777Y-14292984D02*
X3418396Y-14292984D01*
X3418396Y-14292984D02*
X3446967Y-14302508D01*
X3446967Y-14302508D02*
X3466015Y-14321555D01*
X3466015Y-14321555D02*
X3475539Y-14340603D01*
X3475539Y-14340603D02*
X3485062Y-14378698D01*
X3485062Y-14378698D02*
X3485062Y-14407269D01*
X3485062Y-14407269D02*
X3475539Y-14445365D01*
X3475539Y-14445365D02*
X3466015Y-14464412D01*
X3466015Y-14464412D02*
X3446967Y-14483460D01*
X3446967Y-14483460D02*
X3418396Y-14492984D01*
X3418396Y-14492984D02*
X3370777Y-14492984D01*
X3570777Y-14492984D02*
X3570777Y-14359650D01*
X3570777Y-14397746D02*
X3580301Y-14378698D01*
X3580301Y-14378698D02*
X3589824Y-14369174D01*
X3589824Y-14369174D02*
X3608872Y-14359650D01*
X3608872Y-14359650D02*
X3627920Y-14359650D01*
X3694586Y-14492984D02*
X3694586Y-14359650D01*
X3694586Y-14292984D02*
X3685062Y-14302508D01*
X3685062Y-14302508D02*
X3694586Y-14312031D01*
X3694586Y-14312031D02*
X3704110Y-14302508D01*
X3704110Y-14302508D02*
X3694586Y-14292984D01*
X3694586Y-14292984D02*
X3694586Y-14312031D01*
X3818396Y-14492984D02*
X3799348Y-14483460D01*
X3799348Y-14483460D02*
X3789824Y-14464412D01*
X3789824Y-14464412D02*
X3789824Y-14292984D01*
X3923158Y-14492984D02*
X3904110Y-14483460D01*
X3904110Y-14483460D02*
X3894586Y-14464412D01*
X3894586Y-14464412D02*
X3894586Y-14292984D01*
X4151729Y-14492984D02*
X4151729Y-14292984D01*
X4151729Y-14292984D02*
X4218396Y-14435841D01*
X4218396Y-14435841D02*
X4285063Y-14292984D01*
X4285063Y-14292984D02*
X4285063Y-14492984D01*
X4466015Y-14492984D02*
X4466015Y-14388222D01*
X4466015Y-14388222D02*
X4456491Y-14369174D01*
X4456491Y-14369174D02*
X4437444Y-14359650D01*
X4437444Y-14359650D02*
X4399348Y-14359650D01*
X4399348Y-14359650D02*
X4380301Y-14369174D01*
X4466015Y-14483460D02*
X4446967Y-14492984D01*
X4446967Y-14492984D02*
X4399348Y-14492984D01*
X4399348Y-14492984D02*
X4380301Y-14483460D01*
X4380301Y-14483460D02*
X4370777Y-14464412D01*
X4370777Y-14464412D02*
X4370777Y-14445365D01*
X4370777Y-14445365D02*
X4380301Y-14426317D01*
X4380301Y-14426317D02*
X4399348Y-14416793D01*
X4399348Y-14416793D02*
X4446967Y-14416793D01*
X4446967Y-14416793D02*
X4466015Y-14407269D01*
X4561253Y-14359650D02*
X4561253Y-14559650D01*
X4561253Y-14369174D02*
X4580301Y-14359650D01*
X4580301Y-14359650D02*
X4618396Y-14359650D01*
X4618396Y-14359650D02*
X4637444Y-14369174D01*
X4637444Y-14369174D02*
X4646967Y-14378698D01*
X4646967Y-14378698D02*
X4656491Y-14397746D01*
X4656491Y-14397746D02*
X4656491Y-14454888D01*
X4656491Y-14454888D02*
X4646967Y-14473936D01*
X4646967Y-14473936D02*
X4637444Y-14483460D01*
X4637444Y-14483460D02*
X4618396Y-14492984D01*
X4618396Y-14492984D02*
X4580301Y-14492984D01*
X4580301Y-14492984D02*
X4561253Y-14483460D01*
X4742205Y-14473936D02*
X4751729Y-14483460D01*
X4751729Y-14483460D02*
X4742205Y-14492984D01*
X4742205Y-14492984D02*
X4732682Y-14483460D01*
X4732682Y-14483460D02*
X4742205Y-14473936D01*
X4742205Y-14473936D02*
X4742205Y-14492984D01*
X4742205Y-14369174D02*
X4751729Y-14378698D01*
X4751729Y-14378698D02*
X4742205Y-14388222D01*
X4742205Y-14388222D02*
X4732682Y-14378698D01*
X4732682Y-14378698D02*
X4742205Y-14369174D01*
X4742205Y-14369174D02*
X4742205Y-14388222D01*
D10*
X3070000Y-14801500D02*
X3110000Y-14841500D01*
X3110000Y-14801500D02*
X3070000Y-14841500D01*
D11*
X3408872Y-14712984D02*
X3427920Y-14712984D01*
X3427920Y-14712984D02*
X3446967Y-14722508D01*
X3446967Y-14722508D02*
X3456491Y-14732031D01*
X3456491Y-14732031D02*
X3466015Y-14751079D01*
X3466015Y-14751079D02*
X3475539Y-14789174D01*
X3475539Y-14789174D02*
X3475539Y-14836793D01*
X3475539Y-14836793D02*
X3466015Y-14874888D01*
X3466015Y-14874888D02*
X3456491Y-14893936D01*
X3456491Y-14893936D02*
X3446967Y-14903460D01*
X3446967Y-14903460D02*
X3427920Y-14912984D01*
X3427920Y-14912984D02*
X3408872Y-14912984D01*
X3408872Y-14912984D02*
X3389824Y-14903460D01*
X3389824Y-14903460D02*
X3380301Y-14893936D01*
X3380301Y-14893936D02*
X3370777Y-14874888D01*
X3370777Y-14874888D02*
X3361253Y-14836793D01*
X3361253Y-14836793D02*
X3361253Y-14789174D01*
X3361253Y-14789174D02*
X3370777Y-14751079D01*
X3370777Y-14751079D02*
X3380301Y-14732031D01*
X3380301Y-14732031D02*
X3389824Y-14722508D01*
X3389824Y-14722508D02*
X3408872Y-14712984D01*
X3561253Y-14893936D02*
X3570777Y-14903460D01*
X3570777Y-14903460D02*
X3561253Y-14912984D01*
X3561253Y-14912984D02*
X3551729Y-14903460D01*
X3551729Y-14903460D02*
X3561253Y-14893936D01*
X3561253Y-14893936D02*
X3561253Y-14912984D01*
X3742205Y-14779650D02*
X3742205Y-14912984D01*
X3694586Y-14703460D02*
X3646967Y-14846317D01*
X3646967Y-14846317D02*
X3770777Y-14846317D01*
X3885062Y-14712984D02*
X3904110Y-14712984D01*
X3904110Y-14712984D02*
X3923158Y-14722508D01*
X3923158Y-14722508D02*
X3932682Y-14732031D01*
X3932682Y-14732031D02*
X3942205Y-14751079D01*
X3942205Y-14751079D02*
X3951729Y-14789174D01*
X3951729Y-14789174D02*
X3951729Y-14836793D01*
X3951729Y-14836793D02*
X3942205Y-14874888D01*
X3942205Y-14874888D02*
X3932682Y-14893936D01*
X3932682Y-14893936D02*
X3923158Y-14903460D01*
X3923158Y-14903460D02*
X3904110Y-14912984D01*
X3904110Y-14912984D02*
X3885062Y-14912984D01*
X3885062Y-14912984D02*
X3866015Y-14903460D01*
X3866015Y-14903460D02*
X3856491Y-14893936D01*
X3856491Y-14893936D02*
X3846967Y-14874888D01*
X3846967Y-14874888D02*
X3837443Y-14836793D01*
X3837443Y-14836793D02*
X3837443Y-14789174D01*
X3837443Y-14789174D02*
X3846967Y-14751079D01*
X3846967Y-14751079D02*
X3856491Y-14732031D01*
X3856491Y-14732031D02*
X3866015Y-14722508D01*
X3866015Y-14722508D02*
X3885062Y-14712984D01*
X4075539Y-14712984D02*
X4094586Y-14712984D01*
X4094586Y-14712984D02*
X4113634Y-14722508D01*
X4113634Y-14722508D02*
X4123158Y-14732031D01*
X4123158Y-14732031D02*
X4132682Y-14751079D01*
X4132682Y-14751079D02*
X4142205Y-14789174D01*
X4142205Y-14789174D02*
X4142205Y-14836793D01*
X4142205Y-14836793D02*
X4132682Y-14874888D01*
X4132682Y-14874888D02*
X4123158Y-14893936D01*
X4123158Y-14893936D02*
X4113634Y-14903460D01*
X4113634Y-14903460D02*
X4094586Y-14912984D01*
X4094586Y-14912984D02*
X4075539Y-14912984D01*
X4075539Y-14912984D02*
X4056491Y-14903460D01*
X4056491Y-14903460D02*
X4046967Y-14893936D01*
X4046967Y-14893936D02*
X4037443Y-14874888D01*
X4037443Y-14874888D02*
X4027920Y-14836793D01*
X4027920Y-14836793D02*
X4027920Y-14789174D01*
X4027920Y-14789174D02*
X4037443Y-14751079D01*
X4037443Y-14751079D02*
X4046967Y-14732031D01*
X4046967Y-14732031D02*
X4056491Y-14722508D01*
X4056491Y-14722508D02*
X4075539Y-14712984D01*
X4227920Y-14912984D02*
X4227920Y-14779650D01*
X4227920Y-14798698D02*
X4237444Y-14789174D01*
X4237444Y-14789174D02*
X4256491Y-14779650D01*
X4256491Y-14779650D02*
X4285063Y-14779650D01*
X4285063Y-14779650D02*
X4304110Y-14789174D01*
X4304110Y-14789174D02*
X4313634Y-14808222D01*
X4313634Y-14808222D02*
X4313634Y-14912984D01*
X4313634Y-14808222D02*
X4323158Y-14789174D01*
X4323158Y-14789174D02*
X4342205Y-14779650D01*
X4342205Y-14779650D02*
X4370777Y-14779650D01*
X4370777Y-14779650D02*
X4389825Y-14789174D01*
X4389825Y-14789174D02*
X4399348Y-14808222D01*
X4399348Y-14808222D02*
X4399348Y-14912984D01*
X4494586Y-14912984D02*
X4494586Y-14779650D01*
X4494586Y-14798698D02*
X4504110Y-14789174D01*
X4504110Y-14789174D02*
X4523158Y-14779650D01*
X4523158Y-14779650D02*
X4551729Y-14779650D01*
X4551729Y-14779650D02*
X4570777Y-14789174D01*
X4570777Y-14789174D02*
X4580301Y-14808222D01*
X4580301Y-14808222D02*
X4580301Y-14912984D01*
X4580301Y-14808222D02*
X4589825Y-14789174D01*
X4589825Y-14789174D02*
X4608872Y-14779650D01*
X4608872Y-14779650D02*
X4637444Y-14779650D01*
X4637444Y-14779650D02*
X4656491Y-14789174D01*
X4656491Y-14789174D02*
X4666015Y-14808222D01*
X4666015Y-14808222D02*
X4666015Y-14912984D01*
X5056491Y-14703460D02*
X4885063Y-14960603D01*
X5313634Y-14712984D02*
X5332682Y-14712984D01*
X5332682Y-14712984D02*
X5351729Y-14722508D01*
X5351729Y-14722508D02*
X5361253Y-14732031D01*
X5361253Y-14732031D02*
X5370777Y-14751079D01*
X5370777Y-14751079D02*
X5380301Y-14789174D01*
X5380301Y-14789174D02*
X5380301Y-14836793D01*
X5380301Y-14836793D02*
X5370777Y-14874888D01*
X5370777Y-14874888D02*
X5361253Y-14893936D01*
X5361253Y-14893936D02*
X5351729Y-14903460D01*
X5351729Y-14903460D02*
X5332682Y-14912984D01*
X5332682Y-14912984D02*
X5313634Y-14912984D01*
X5313634Y-14912984D02*
X5294587Y-14903460D01*
X5294587Y-14903460D02*
X5285063Y-14893936D01*
X5285063Y-14893936D02*
X5275539Y-14874888D01*
X5275539Y-14874888D02*
X5266015Y-14836793D01*
X5266015Y-14836793D02*
X5266015Y-14789174D01*
X5266015Y-14789174D02*
X5275539Y-14751079D01*
X5275539Y-14751079D02*
X5285063Y-14732031D01*
X5285063Y-14732031D02*
X5294587Y-14722508D01*
X5294587Y-14722508D02*
X5313634Y-14712984D01*
X5466015Y-14893936D02*
X5475539Y-14903460D01*
X5475539Y-14903460D02*
X5466015Y-14912984D01*
X5466015Y-14912984D02*
X5456491Y-14903460D01*
X5456491Y-14903460D02*
X5466015Y-14893936D01*
X5466015Y-14893936D02*
X5466015Y-14912984D01*
X5599348Y-14712984D02*
X5618396Y-14712984D01*
X5618396Y-14712984D02*
X5637444Y-14722508D01*
X5637444Y-14722508D02*
X5646967Y-14732031D01*
X5646967Y-14732031D02*
X5656491Y-14751079D01*
X5656491Y-14751079D02*
X5666015Y-14789174D01*
X5666015Y-14789174D02*
X5666015Y-14836793D01*
X5666015Y-14836793D02*
X5656491Y-14874888D01*
X5656491Y-14874888D02*
X5646967Y-14893936D01*
X5646967Y-14893936D02*
X5637444Y-14903460D01*
X5637444Y-14903460D02*
X5618396Y-14912984D01*
X5618396Y-14912984D02*
X5599348Y-14912984D01*
X5599348Y-14912984D02*
X5580301Y-14903460D01*
X5580301Y-14903460D02*
X5570777Y-14893936D01*
X5570777Y-14893936D02*
X5561253Y-14874888D01*
X5561253Y-14874888D02*
X5551729Y-14836793D01*
X5551729Y-14836793D02*
X5551729Y-14789174D01*
X5551729Y-14789174D02*
X5561253Y-14751079D01*
X5561253Y-14751079D02*
X5570777Y-14732031D01*
X5570777Y-14732031D02*
X5580301Y-14722508D01*
X5580301Y-14722508D02*
X5599348Y-14712984D01*
X5856491Y-14912984D02*
X5742206Y-14912984D01*
X5799348Y-14912984D02*
X5799348Y-14712984D01*
X5799348Y-14712984D02*
X5780301Y-14741555D01*
X5780301Y-14741555D02*
X5761253Y-14760603D01*
X5761253Y-14760603D02*
X5742206Y-14770127D01*
X6037444Y-14712984D02*
X5942206Y-14712984D01*
X5942206Y-14712984D02*
X5932682Y-14808222D01*
X5932682Y-14808222D02*
X5942206Y-14798698D01*
X5942206Y-14798698D02*
X5961253Y-14789174D01*
X5961253Y-14789174D02*
X6008872Y-14789174D01*
X6008872Y-14789174D02*
X6027920Y-14798698D01*
X6027920Y-14798698D02*
X6037444Y-14808222D01*
X6037444Y-14808222D02*
X6046967Y-14827269D01*
X6046967Y-14827269D02*
X6046967Y-14874888D01*
X6046967Y-14874888D02*
X6037444Y-14893936D01*
X6037444Y-14893936D02*
X6027920Y-14903460D01*
X6027920Y-14903460D02*
X6008872Y-14912984D01*
X6008872Y-14912984D02*
X5961253Y-14912984D01*
X5961253Y-14912984D02*
X5942206Y-14903460D01*
X5942206Y-14903460D02*
X5932682Y-14893936D01*
X6113634Y-14712984D02*
X6246967Y-14712984D01*
X6246967Y-14712984D02*
X6161253Y-14912984D01*
X6313634Y-14712984D02*
X6313634Y-14751079D01*
X6389825Y-14712984D02*
X6389825Y-14751079D01*
X6685063Y-14989174D02*
X6675539Y-14979650D01*
X6675539Y-14979650D02*
X6656491Y-14951079D01*
X6656491Y-14951079D02*
X6646968Y-14932031D01*
X6646968Y-14932031D02*
X6637444Y-14903460D01*
X6637444Y-14903460D02*
X6627920Y-14855841D01*
X6627920Y-14855841D02*
X6627920Y-14817746D01*
X6627920Y-14817746D02*
X6637444Y-14770127D01*
X6637444Y-14770127D02*
X6646968Y-14741555D01*
X6646968Y-14741555D02*
X6656491Y-14722508D01*
X6656491Y-14722508D02*
X6675539Y-14693936D01*
X6675539Y-14693936D02*
X6685063Y-14684412D01*
X6856491Y-14712984D02*
X6761253Y-14712984D01*
X6761253Y-14712984D02*
X6751729Y-14808222D01*
X6751729Y-14808222D02*
X6761253Y-14798698D01*
X6761253Y-14798698D02*
X6780301Y-14789174D01*
X6780301Y-14789174D02*
X6827920Y-14789174D01*
X6827920Y-14789174D02*
X6846968Y-14798698D01*
X6846968Y-14798698D02*
X6856491Y-14808222D01*
X6856491Y-14808222D02*
X6866015Y-14827269D01*
X6866015Y-14827269D02*
X6866015Y-14874888D01*
X6866015Y-14874888D02*
X6856491Y-14893936D01*
X6856491Y-14893936D02*
X6846968Y-14903460D01*
X6846968Y-14903460D02*
X6827920Y-14912984D01*
X6827920Y-14912984D02*
X6780301Y-14912984D01*
X6780301Y-14912984D02*
X6761253Y-14903460D01*
X6761253Y-14903460D02*
X6751729Y-14893936D01*
X6932682Y-14712984D02*
X7056491Y-14712984D01*
X7056491Y-14712984D02*
X6989825Y-14789174D01*
X6989825Y-14789174D02*
X7018396Y-14789174D01*
X7018396Y-14789174D02*
X7037444Y-14798698D01*
X7037444Y-14798698D02*
X7046968Y-14808222D01*
X7046968Y-14808222D02*
X7056491Y-14827269D01*
X7056491Y-14827269D02*
X7056491Y-14874888D01*
X7056491Y-14874888D02*
X7046968Y-14893936D01*
X7046968Y-14893936D02*
X7037444Y-14903460D01*
X7037444Y-14903460D02*
X7018396Y-14912984D01*
X7018396Y-14912984D02*
X6961253Y-14912984D01*
X6961253Y-14912984D02*
X6942206Y-14903460D01*
X6942206Y-14903460D02*
X6932682Y-14893936D01*
X7294587Y-14912984D02*
X7294587Y-14712984D01*
X7380301Y-14912984D02*
X7380301Y-14808222D01*
X7380301Y-14808222D02*
X7370777Y-14789174D01*
X7370777Y-14789174D02*
X7351730Y-14779650D01*
X7351730Y-14779650D02*
X7323158Y-14779650D01*
X7323158Y-14779650D02*
X7304110Y-14789174D01*
X7304110Y-14789174D02*
X7294587Y-14798698D01*
X7504110Y-14912984D02*
X7485063Y-14903460D01*
X7485063Y-14903460D02*
X7475539Y-14893936D01*
X7475539Y-14893936D02*
X7466015Y-14874888D01*
X7466015Y-14874888D02*
X7466015Y-14817746D01*
X7466015Y-14817746D02*
X7475539Y-14798698D01*
X7475539Y-14798698D02*
X7485063Y-14789174D01*
X7485063Y-14789174D02*
X7504110Y-14779650D01*
X7504110Y-14779650D02*
X7532682Y-14779650D01*
X7532682Y-14779650D02*
X7551730Y-14789174D01*
X7551730Y-14789174D02*
X7561253Y-14798698D01*
X7561253Y-14798698D02*
X7570777Y-14817746D01*
X7570777Y-14817746D02*
X7570777Y-14874888D01*
X7570777Y-14874888D02*
X7561253Y-14893936D01*
X7561253Y-14893936D02*
X7551730Y-14903460D01*
X7551730Y-14903460D02*
X7532682Y-14912984D01*
X7532682Y-14912984D02*
X7504110Y-14912984D01*
X7685063Y-14912984D02*
X7666015Y-14903460D01*
X7666015Y-14903460D02*
X7656491Y-14884412D01*
X7656491Y-14884412D02*
X7656491Y-14712984D01*
X7837444Y-14903460D02*
X7818396Y-14912984D01*
X7818396Y-14912984D02*
X7780301Y-14912984D01*
X7780301Y-14912984D02*
X7761253Y-14903460D01*
X7761253Y-14903460D02*
X7751730Y-14884412D01*
X7751730Y-14884412D02*
X7751730Y-14808222D01*
X7751730Y-14808222D02*
X7761253Y-14789174D01*
X7761253Y-14789174D02*
X7780301Y-14779650D01*
X7780301Y-14779650D02*
X7818396Y-14779650D01*
X7818396Y-14779650D02*
X7837444Y-14789174D01*
X7837444Y-14789174D02*
X7846968Y-14808222D01*
X7846968Y-14808222D02*
X7846968Y-14827269D01*
X7846968Y-14827269D02*
X7751730Y-14846317D01*
X7923158Y-14903460D02*
X7942206Y-14912984D01*
X7942206Y-14912984D02*
X7980301Y-14912984D01*
X7980301Y-14912984D02*
X7999349Y-14903460D01*
X7999349Y-14903460D02*
X8008872Y-14884412D01*
X8008872Y-14884412D02*
X8008872Y-14874888D01*
X8008872Y-14874888D02*
X7999349Y-14855841D01*
X7999349Y-14855841D02*
X7980301Y-14846317D01*
X7980301Y-14846317D02*
X7951730Y-14846317D01*
X7951730Y-14846317D02*
X7932682Y-14836793D01*
X7932682Y-14836793D02*
X7923158Y-14817746D01*
X7923158Y-14817746D02*
X7923158Y-14808222D01*
X7923158Y-14808222D02*
X7932682Y-14789174D01*
X7932682Y-14789174D02*
X7951730Y-14779650D01*
X7951730Y-14779650D02*
X7980301Y-14779650D01*
X7980301Y-14779650D02*
X7999349Y-14789174D01*
X8075539Y-14989174D02*
X8085063Y-14979650D01*
X8085063Y-14979650D02*
X8104111Y-14951079D01*
X8104111Y-14951079D02*
X8113634Y-14932031D01*
X8113634Y-14932031D02*
X8123158Y-14903460D01*
X8123158Y-14903460D02*
X8132682Y-14855841D01*
X8132682Y-14855841D02*
X8132682Y-14817746D01*
X8132682Y-14817746D02*
X8123158Y-14770127D01*
X8123158Y-14770127D02*
X8113634Y-14741555D01*
X8113634Y-14741555D02*
X8104111Y-14722508D01*
X8104111Y-14722508D02*
X8085063Y-14693936D01*
X8085063Y-14693936D02*
X8075539Y-14684412D01*
D10*
X3110000Y-15085500D02*
G75*
G02*
X3034000Y-15085500I-38000J0D01*
G01*
X3034000Y-15085500D02*
G75*
G02*
X3110000Y-15085500I38000J0D01*
G01*
D11*
X3408872Y-14976984D02*
X3427920Y-14976984D01*
X3427920Y-14976984D02*
X3446967Y-14986508D01*
X3446967Y-14986508D02*
X3456491Y-14996031D01*
X3456491Y-14996031D02*
X3466015Y-15015079D01*
X3466015Y-15015079D02*
X3475539Y-15053174D01*
X3475539Y-15053174D02*
X3475539Y-15100793D01*
X3475539Y-15100793D02*
X3466015Y-15138888D01*
X3466015Y-15138888D02*
X3456491Y-15157936D01*
X3456491Y-15157936D02*
X3446967Y-15167460D01*
X3446967Y-15167460D02*
X3427920Y-15176984D01*
X3427920Y-15176984D02*
X3408872Y-15176984D01*
X3408872Y-15176984D02*
X3389824Y-15167460D01*
X3389824Y-15167460D02*
X3380301Y-15157936D01*
X3380301Y-15157936D02*
X3370777Y-15138888D01*
X3370777Y-15138888D02*
X3361253Y-15100793D01*
X3361253Y-15100793D02*
X3361253Y-15053174D01*
X3361253Y-15053174D02*
X3370777Y-15015079D01*
X3370777Y-15015079D02*
X3380301Y-14996031D01*
X3380301Y-14996031D02*
X3389824Y-14986508D01*
X3389824Y-14986508D02*
X3408872Y-14976984D01*
X3561253Y-15157936D02*
X3570777Y-15167460D01*
X3570777Y-15167460D02*
X3561253Y-15176984D01*
X3561253Y-15176984D02*
X3551729Y-15167460D01*
X3551729Y-15167460D02*
X3561253Y-15157936D01*
X3561253Y-15157936D02*
X3561253Y-15176984D01*
X3637443Y-14976984D02*
X3770777Y-14976984D01*
X3770777Y-14976984D02*
X3685062Y-15176984D01*
X3932682Y-14976984D02*
X3894586Y-14976984D01*
X3894586Y-14976984D02*
X3875539Y-14986508D01*
X3875539Y-14986508D02*
X3866015Y-14996031D01*
X3866015Y-14996031D02*
X3846967Y-15024603D01*
X3846967Y-15024603D02*
X3837443Y-15062698D01*
X3837443Y-15062698D02*
X3837443Y-15138888D01*
X3837443Y-15138888D02*
X3846967Y-15157936D01*
X3846967Y-15157936D02*
X3856491Y-15167460D01*
X3856491Y-15167460D02*
X3875539Y-15176984D01*
X3875539Y-15176984D02*
X3913634Y-15176984D01*
X3913634Y-15176984D02*
X3932682Y-15167460D01*
X3932682Y-15167460D02*
X3942205Y-15157936D01*
X3942205Y-15157936D02*
X3951729Y-15138888D01*
X3951729Y-15138888D02*
X3951729Y-15091269D01*
X3951729Y-15091269D02*
X3942205Y-15072222D01*
X3942205Y-15072222D02*
X3932682Y-15062698D01*
X3932682Y-15062698D02*
X3913634Y-15053174D01*
X3913634Y-15053174D02*
X3875539Y-15053174D01*
X3875539Y-15053174D02*
X3856491Y-15062698D01*
X3856491Y-15062698D02*
X3846967Y-15072222D01*
X3846967Y-15072222D02*
X3837443Y-15091269D01*
X4075539Y-14976984D02*
X4094586Y-14976984D01*
X4094586Y-14976984D02*
X4113634Y-14986508D01*
X4113634Y-14986508D02*
X4123158Y-14996031D01*
X4123158Y-14996031D02*
X4132682Y-15015079D01*
X4132682Y-15015079D02*
X4142205Y-15053174D01*
X4142205Y-15053174D02*
X4142205Y-15100793D01*
X4142205Y-15100793D02*
X4132682Y-15138888D01*
X4132682Y-15138888D02*
X4123158Y-15157936D01*
X4123158Y-15157936D02*
X4113634Y-15167460D01*
X4113634Y-15167460D02*
X4094586Y-15176984D01*
X4094586Y-15176984D02*
X4075539Y-15176984D01*
X4075539Y-15176984D02*
X4056491Y-15167460D01*
X4056491Y-15167460D02*
X4046967Y-15157936D01*
X4046967Y-15157936D02*
X4037443Y-15138888D01*
X4037443Y-15138888D02*
X4027920Y-15100793D01*
X4027920Y-15100793D02*
X4027920Y-15053174D01*
X4027920Y-15053174D02*
X4037443Y-15015079D01*
X4037443Y-15015079D02*
X4046967Y-14996031D01*
X4046967Y-14996031D02*
X4056491Y-14986508D01*
X4056491Y-14986508D02*
X4075539Y-14976984D01*
X4227920Y-15176984D02*
X4227920Y-15043650D01*
X4227920Y-15062698D02*
X4237444Y-15053174D01*
X4237444Y-15053174D02*
X4256491Y-15043650D01*
X4256491Y-15043650D02*
X4285063Y-15043650D01*
X4285063Y-15043650D02*
X4304110Y-15053174D01*
X4304110Y-15053174D02*
X4313634Y-15072222D01*
X4313634Y-15072222D02*
X4313634Y-15176984D01*
X4313634Y-15072222D02*
X4323158Y-15053174D01*
X4323158Y-15053174D02*
X4342205Y-15043650D01*
X4342205Y-15043650D02*
X4370777Y-15043650D01*
X4370777Y-15043650D02*
X4389825Y-15053174D01*
X4389825Y-15053174D02*
X4399348Y-15072222D01*
X4399348Y-15072222D02*
X4399348Y-15176984D01*
X4494586Y-15176984D02*
X4494586Y-15043650D01*
X4494586Y-15062698D02*
X4504110Y-15053174D01*
X4504110Y-15053174D02*
X4523158Y-15043650D01*
X4523158Y-15043650D02*
X4551729Y-15043650D01*
X4551729Y-15043650D02*
X4570777Y-15053174D01*
X4570777Y-15053174D02*
X4580301Y-15072222D01*
X4580301Y-15072222D02*
X4580301Y-15176984D01*
X4580301Y-15072222D02*
X4589825Y-15053174D01*
X4589825Y-15053174D02*
X4608872Y-15043650D01*
X4608872Y-15043650D02*
X4637444Y-15043650D01*
X4637444Y-15043650D02*
X4656491Y-15053174D01*
X4656491Y-15053174D02*
X4666015Y-15072222D01*
X4666015Y-15072222D02*
X4666015Y-15176984D01*
X5056491Y-14967460D02*
X4885063Y-15224603D01*
X5313634Y-14976984D02*
X5332682Y-14976984D01*
X5332682Y-14976984D02*
X5351729Y-14986508D01*
X5351729Y-14986508D02*
X5361253Y-14996031D01*
X5361253Y-14996031D02*
X5370777Y-15015079D01*
X5370777Y-15015079D02*
X5380301Y-15053174D01*
X5380301Y-15053174D02*
X5380301Y-15100793D01*
X5380301Y-15100793D02*
X5370777Y-15138888D01*
X5370777Y-15138888D02*
X5361253Y-15157936D01*
X5361253Y-15157936D02*
X5351729Y-15167460D01*
X5351729Y-15167460D02*
X5332682Y-15176984D01*
X5332682Y-15176984D02*
X5313634Y-15176984D01*
X5313634Y-15176984D02*
X5294587Y-15167460D01*
X5294587Y-15167460D02*
X5285063Y-15157936D01*
X5285063Y-15157936D02*
X5275539Y-15138888D01*
X5275539Y-15138888D02*
X5266015Y-15100793D01*
X5266015Y-15100793D02*
X5266015Y-15053174D01*
X5266015Y-15053174D02*
X5275539Y-15015079D01*
X5275539Y-15015079D02*
X5285063Y-14996031D01*
X5285063Y-14996031D02*
X5294587Y-14986508D01*
X5294587Y-14986508D02*
X5313634Y-14976984D01*
X5466015Y-15157936D02*
X5475539Y-15167460D01*
X5475539Y-15167460D02*
X5466015Y-15176984D01*
X5466015Y-15176984D02*
X5456491Y-15167460D01*
X5456491Y-15167460D02*
X5466015Y-15157936D01*
X5466015Y-15157936D02*
X5466015Y-15176984D01*
X5599348Y-14976984D02*
X5618396Y-14976984D01*
X5618396Y-14976984D02*
X5637444Y-14986508D01*
X5637444Y-14986508D02*
X5646967Y-14996031D01*
X5646967Y-14996031D02*
X5656491Y-15015079D01*
X5656491Y-15015079D02*
X5666015Y-15053174D01*
X5666015Y-15053174D02*
X5666015Y-15100793D01*
X5666015Y-15100793D02*
X5656491Y-15138888D01*
X5656491Y-15138888D02*
X5646967Y-15157936D01*
X5646967Y-15157936D02*
X5637444Y-15167460D01*
X5637444Y-15167460D02*
X5618396Y-15176984D01*
X5618396Y-15176984D02*
X5599348Y-15176984D01*
X5599348Y-15176984D02*
X5580301Y-15167460D01*
X5580301Y-15167460D02*
X5570777Y-15157936D01*
X5570777Y-15157936D02*
X5561253Y-15138888D01*
X5561253Y-15138888D02*
X5551729Y-15100793D01*
X5551729Y-15100793D02*
X5551729Y-15053174D01*
X5551729Y-15053174D02*
X5561253Y-15015079D01*
X5561253Y-15015079D02*
X5570777Y-14996031D01*
X5570777Y-14996031D02*
X5580301Y-14986508D01*
X5580301Y-14986508D02*
X5599348Y-14976984D01*
X5742206Y-14996031D02*
X5751729Y-14986508D01*
X5751729Y-14986508D02*
X5770777Y-14976984D01*
X5770777Y-14976984D02*
X5818396Y-14976984D01*
X5818396Y-14976984D02*
X5837444Y-14986508D01*
X5837444Y-14986508D02*
X5846967Y-14996031D01*
X5846967Y-14996031D02*
X5856491Y-15015079D01*
X5856491Y-15015079D02*
X5856491Y-15034127D01*
X5856491Y-15034127D02*
X5846967Y-15062698D01*
X5846967Y-15062698D02*
X5732682Y-15176984D01*
X5732682Y-15176984D02*
X5856491Y-15176984D01*
X5951729Y-15176984D02*
X5989825Y-15176984D01*
X5989825Y-15176984D02*
X6008872Y-15167460D01*
X6008872Y-15167460D02*
X6018396Y-15157936D01*
X6018396Y-15157936D02*
X6037444Y-15129365D01*
X6037444Y-15129365D02*
X6046967Y-15091269D01*
X6046967Y-15091269D02*
X6046967Y-15015079D01*
X6046967Y-15015079D02*
X6037444Y-14996031D01*
X6037444Y-14996031D02*
X6027920Y-14986508D01*
X6027920Y-14986508D02*
X6008872Y-14976984D01*
X6008872Y-14976984D02*
X5970777Y-14976984D01*
X5970777Y-14976984D02*
X5951729Y-14986508D01*
X5951729Y-14986508D02*
X5942206Y-14996031D01*
X5942206Y-14996031D02*
X5932682Y-15015079D01*
X5932682Y-15015079D02*
X5932682Y-15062698D01*
X5932682Y-15062698D02*
X5942206Y-15081746D01*
X5942206Y-15081746D02*
X5951729Y-15091269D01*
X5951729Y-15091269D02*
X5970777Y-15100793D01*
X5970777Y-15100793D02*
X6008872Y-15100793D01*
X6008872Y-15100793D02*
X6027920Y-15091269D01*
X6027920Y-15091269D02*
X6037444Y-15081746D01*
X6037444Y-15081746D02*
X6046967Y-15062698D01*
X6142206Y-15176984D02*
X6180301Y-15176984D01*
X6180301Y-15176984D02*
X6199348Y-15167460D01*
X6199348Y-15167460D02*
X6208872Y-15157936D01*
X6208872Y-15157936D02*
X6227920Y-15129365D01*
X6227920Y-15129365D02*
X6237444Y-15091269D01*
X6237444Y-15091269D02*
X6237444Y-15015079D01*
X6237444Y-15015079D02*
X6227920Y-14996031D01*
X6227920Y-14996031D02*
X6218396Y-14986508D01*
X6218396Y-14986508D02*
X6199348Y-14976984D01*
X6199348Y-14976984D02*
X6161253Y-14976984D01*
X6161253Y-14976984D02*
X6142206Y-14986508D01*
X6142206Y-14986508D02*
X6132682Y-14996031D01*
X6132682Y-14996031D02*
X6123158Y-15015079D01*
X6123158Y-15015079D02*
X6123158Y-15062698D01*
X6123158Y-15062698D02*
X6132682Y-15081746D01*
X6132682Y-15081746D02*
X6142206Y-15091269D01*
X6142206Y-15091269D02*
X6161253Y-15100793D01*
X6161253Y-15100793D02*
X6199348Y-15100793D01*
X6199348Y-15100793D02*
X6218396Y-15091269D01*
X6218396Y-15091269D02*
X6227920Y-15081746D01*
X6227920Y-15081746D02*
X6237444Y-15062698D01*
X6313634Y-14976984D02*
X6313634Y-15015079D01*
X6389825Y-14976984D02*
X6389825Y-15015079D01*
X6685063Y-15253174D02*
X6675539Y-15243650D01*
X6675539Y-15243650D02*
X6656491Y-15215079D01*
X6656491Y-15215079D02*
X6646968Y-15196031D01*
X6646968Y-15196031D02*
X6637444Y-15167460D01*
X6637444Y-15167460D02*
X6627920Y-15119841D01*
X6627920Y-15119841D02*
X6627920Y-15081746D01*
X6627920Y-15081746D02*
X6637444Y-15034127D01*
X6637444Y-15034127D02*
X6646968Y-15005555D01*
X6646968Y-15005555D02*
X6656491Y-14986508D01*
X6656491Y-14986508D02*
X6675539Y-14957936D01*
X6675539Y-14957936D02*
X6685063Y-14948412D01*
X6846968Y-14976984D02*
X6808872Y-14976984D01*
X6808872Y-14976984D02*
X6789825Y-14986508D01*
X6789825Y-14986508D02*
X6780301Y-14996031D01*
X6780301Y-14996031D02*
X6761253Y-15024603D01*
X6761253Y-15024603D02*
X6751729Y-15062698D01*
X6751729Y-15062698D02*
X6751729Y-15138888D01*
X6751729Y-15138888D02*
X6761253Y-15157936D01*
X6761253Y-15157936D02*
X6770777Y-15167460D01*
X6770777Y-15167460D02*
X6789825Y-15176984D01*
X6789825Y-15176984D02*
X6827920Y-15176984D01*
X6827920Y-15176984D02*
X6846968Y-15167460D01*
X6846968Y-15167460D02*
X6856491Y-15157936D01*
X6856491Y-15157936D02*
X6866015Y-15138888D01*
X6866015Y-15138888D02*
X6866015Y-15091269D01*
X6866015Y-15091269D02*
X6856491Y-15072222D01*
X6856491Y-15072222D02*
X6846968Y-15062698D01*
X6846968Y-15062698D02*
X6827920Y-15053174D01*
X6827920Y-15053174D02*
X6789825Y-15053174D01*
X6789825Y-15053174D02*
X6770777Y-15062698D01*
X6770777Y-15062698D02*
X6761253Y-15072222D01*
X6761253Y-15072222D02*
X6751729Y-15091269D01*
X7104110Y-15176984D02*
X7104110Y-14976984D01*
X7189825Y-15176984D02*
X7189825Y-15072222D01*
X7189825Y-15072222D02*
X7180301Y-15053174D01*
X7180301Y-15053174D02*
X7161253Y-15043650D01*
X7161253Y-15043650D02*
X7132682Y-15043650D01*
X7132682Y-15043650D02*
X7113634Y-15053174D01*
X7113634Y-15053174D02*
X7104110Y-15062698D01*
X7313634Y-15176984D02*
X7294587Y-15167460D01*
X7294587Y-15167460D02*
X7285063Y-15157936D01*
X7285063Y-15157936D02*
X7275539Y-15138888D01*
X7275539Y-15138888D02*
X7275539Y-15081746D01*
X7275539Y-15081746D02*
X7285063Y-15062698D01*
X7285063Y-15062698D02*
X7294587Y-15053174D01*
X7294587Y-15053174D02*
X7313634Y-15043650D01*
X7313634Y-15043650D02*
X7342206Y-15043650D01*
X7342206Y-15043650D02*
X7361253Y-15053174D01*
X7361253Y-15053174D02*
X7370777Y-15062698D01*
X7370777Y-15062698D02*
X7380301Y-15081746D01*
X7380301Y-15081746D02*
X7380301Y-15138888D01*
X7380301Y-15138888D02*
X7370777Y-15157936D01*
X7370777Y-15157936D02*
X7361253Y-15167460D01*
X7361253Y-15167460D02*
X7342206Y-15176984D01*
X7342206Y-15176984D02*
X7313634Y-15176984D01*
X7494587Y-15176984D02*
X7475539Y-15167460D01*
X7475539Y-15167460D02*
X7466015Y-15148412D01*
X7466015Y-15148412D02*
X7466015Y-14976984D01*
X7646968Y-15167460D02*
X7627920Y-15176984D01*
X7627920Y-15176984D02*
X7589825Y-15176984D01*
X7589825Y-15176984D02*
X7570777Y-15167460D01*
X7570777Y-15167460D02*
X7561253Y-15148412D01*
X7561253Y-15148412D02*
X7561253Y-15072222D01*
X7561253Y-15072222D02*
X7570777Y-15053174D01*
X7570777Y-15053174D02*
X7589825Y-15043650D01*
X7589825Y-15043650D02*
X7627920Y-15043650D01*
X7627920Y-15043650D02*
X7646968Y-15053174D01*
X7646968Y-15053174D02*
X7656491Y-15072222D01*
X7656491Y-15072222D02*
X7656491Y-15091269D01*
X7656491Y-15091269D02*
X7561253Y-15110317D01*
X7732682Y-15167460D02*
X7751730Y-15176984D01*
X7751730Y-15176984D02*
X7789825Y-15176984D01*
X7789825Y-15176984D02*
X7808872Y-15167460D01*
X7808872Y-15167460D02*
X7818396Y-15148412D01*
X7818396Y-15148412D02*
X7818396Y-15138888D01*
X7818396Y-15138888D02*
X7808872Y-15119841D01*
X7808872Y-15119841D02*
X7789825Y-15110317D01*
X7789825Y-15110317D02*
X7761253Y-15110317D01*
X7761253Y-15110317D02*
X7742206Y-15100793D01*
X7742206Y-15100793D02*
X7732682Y-15081746D01*
X7732682Y-15081746D02*
X7732682Y-15072222D01*
X7732682Y-15072222D02*
X7742206Y-15053174D01*
X7742206Y-15053174D02*
X7761253Y-15043650D01*
X7761253Y-15043650D02*
X7789825Y-15043650D01*
X7789825Y-15043650D02*
X7808872Y-15053174D01*
X7885063Y-15253174D02*
X7894587Y-15243650D01*
X7894587Y-15243650D02*
X7913634Y-15215079D01*
X7913634Y-15215079D02*
X7923158Y-15196031D01*
X7923158Y-15196031D02*
X7932682Y-15167460D01*
X7932682Y-15167460D02*
X7942206Y-15119841D01*
X7942206Y-15119841D02*
X7942206Y-15081746D01*
X7942206Y-15081746D02*
X7932682Y-15034127D01*
X7932682Y-15034127D02*
X7923158Y-15005555D01*
X7923158Y-15005555D02*
X7913634Y-14986508D01*
X7913634Y-14986508D02*
X7894587Y-14957936D01*
X7894587Y-14957936D02*
X7885063Y-14948412D01*
D10*
X3065550Y-15305050D02*
X3065550Y-15393950D01*
X3021100Y-15349500D02*
X3110000Y-15349500D01*
D11*
X3408872Y-15240984D02*
X3427920Y-15240984D01*
X3427920Y-15240984D02*
X3446967Y-15250508D01*
X3446967Y-15250508D02*
X3456491Y-15260031D01*
X3456491Y-15260031D02*
X3466015Y-15279079D01*
X3466015Y-15279079D02*
X3475539Y-15317174D01*
X3475539Y-15317174D02*
X3475539Y-15364793D01*
X3475539Y-15364793D02*
X3466015Y-15402888D01*
X3466015Y-15402888D02*
X3456491Y-15421936D01*
X3456491Y-15421936D02*
X3446967Y-15431460D01*
X3446967Y-15431460D02*
X3427920Y-15440984D01*
X3427920Y-15440984D02*
X3408872Y-15440984D01*
X3408872Y-15440984D02*
X3389824Y-15431460D01*
X3389824Y-15431460D02*
X3380301Y-15421936D01*
X3380301Y-15421936D02*
X3370777Y-15402888D01*
X3370777Y-15402888D02*
X3361253Y-15364793D01*
X3361253Y-15364793D02*
X3361253Y-15317174D01*
X3361253Y-15317174D02*
X3370777Y-15279079D01*
X3370777Y-15279079D02*
X3380301Y-15260031D01*
X3380301Y-15260031D02*
X3389824Y-15250508D01*
X3389824Y-15250508D02*
X3408872Y-15240984D01*
X3561253Y-15421936D02*
X3570777Y-15431460D01*
X3570777Y-15431460D02*
X3561253Y-15440984D01*
X3561253Y-15440984D02*
X3551729Y-15431460D01*
X3551729Y-15431460D02*
X3561253Y-15421936D01*
X3561253Y-15421936D02*
X3561253Y-15440984D01*
X3685062Y-15326698D02*
X3666015Y-15317174D01*
X3666015Y-15317174D02*
X3656491Y-15307650D01*
X3656491Y-15307650D02*
X3646967Y-15288603D01*
X3646967Y-15288603D02*
X3646967Y-15279079D01*
X3646967Y-15279079D02*
X3656491Y-15260031D01*
X3656491Y-15260031D02*
X3666015Y-15250508D01*
X3666015Y-15250508D02*
X3685062Y-15240984D01*
X3685062Y-15240984D02*
X3723158Y-15240984D01*
X3723158Y-15240984D02*
X3742205Y-15250508D01*
X3742205Y-15250508D02*
X3751729Y-15260031D01*
X3751729Y-15260031D02*
X3761253Y-15279079D01*
X3761253Y-15279079D02*
X3761253Y-15288603D01*
X3761253Y-15288603D02*
X3751729Y-15307650D01*
X3751729Y-15307650D02*
X3742205Y-15317174D01*
X3742205Y-15317174D02*
X3723158Y-15326698D01*
X3723158Y-15326698D02*
X3685062Y-15326698D01*
X3685062Y-15326698D02*
X3666015Y-15336222D01*
X3666015Y-15336222D02*
X3656491Y-15345746D01*
X3656491Y-15345746D02*
X3646967Y-15364793D01*
X3646967Y-15364793D02*
X3646967Y-15402888D01*
X3646967Y-15402888D02*
X3656491Y-15421936D01*
X3656491Y-15421936D02*
X3666015Y-15431460D01*
X3666015Y-15431460D02*
X3685062Y-15440984D01*
X3685062Y-15440984D02*
X3723158Y-15440984D01*
X3723158Y-15440984D02*
X3742205Y-15431460D01*
X3742205Y-15431460D02*
X3751729Y-15421936D01*
X3751729Y-15421936D02*
X3761253Y-15402888D01*
X3761253Y-15402888D02*
X3761253Y-15364793D01*
X3761253Y-15364793D02*
X3751729Y-15345746D01*
X3751729Y-15345746D02*
X3742205Y-15336222D01*
X3742205Y-15336222D02*
X3723158Y-15326698D01*
X3875539Y-15326698D02*
X3856491Y-15317174D01*
X3856491Y-15317174D02*
X3846967Y-15307650D01*
X3846967Y-15307650D02*
X3837443Y-15288603D01*
X3837443Y-15288603D02*
X3837443Y-15279079D01*
X3837443Y-15279079D02*
X3846967Y-15260031D01*
X3846967Y-15260031D02*
X3856491Y-15250508D01*
X3856491Y-15250508D02*
X3875539Y-15240984D01*
X3875539Y-15240984D02*
X3913634Y-15240984D01*
X3913634Y-15240984D02*
X3932682Y-15250508D01*
X3932682Y-15250508D02*
X3942205Y-15260031D01*
X3942205Y-15260031D02*
X3951729Y-15279079D01*
X3951729Y-15279079D02*
X3951729Y-15288603D01*
X3951729Y-15288603D02*
X3942205Y-15307650D01*
X3942205Y-15307650D02*
X3932682Y-15317174D01*
X3932682Y-15317174D02*
X3913634Y-15326698D01*
X3913634Y-15326698D02*
X3875539Y-15326698D01*
X3875539Y-15326698D02*
X3856491Y-15336222D01*
X3856491Y-15336222D02*
X3846967Y-15345746D01*
X3846967Y-15345746D02*
X3837443Y-15364793D01*
X3837443Y-15364793D02*
X3837443Y-15402888D01*
X3837443Y-15402888D02*
X3846967Y-15421936D01*
X3846967Y-15421936D02*
X3856491Y-15431460D01*
X3856491Y-15431460D02*
X3875539Y-15440984D01*
X3875539Y-15440984D02*
X3913634Y-15440984D01*
X3913634Y-15440984D02*
X3932682Y-15431460D01*
X3932682Y-15431460D02*
X3942205Y-15421936D01*
X3942205Y-15421936D02*
X3951729Y-15402888D01*
X3951729Y-15402888D02*
X3951729Y-15364793D01*
X3951729Y-15364793D02*
X3942205Y-15345746D01*
X3942205Y-15345746D02*
X3932682Y-15336222D01*
X3932682Y-15336222D02*
X3913634Y-15326698D01*
X4046967Y-15440984D02*
X4085062Y-15440984D01*
X4085062Y-15440984D02*
X4104110Y-15431460D01*
X4104110Y-15431460D02*
X4113634Y-15421936D01*
X4113634Y-15421936D02*
X4132682Y-15393365D01*
X4132682Y-15393365D02*
X4142205Y-15355269D01*
X4142205Y-15355269D02*
X4142205Y-15279079D01*
X4142205Y-15279079D02*
X4132682Y-15260031D01*
X4132682Y-15260031D02*
X4123158Y-15250508D01*
X4123158Y-15250508D02*
X4104110Y-15240984D01*
X4104110Y-15240984D02*
X4066015Y-15240984D01*
X4066015Y-15240984D02*
X4046967Y-15250508D01*
X4046967Y-15250508D02*
X4037443Y-15260031D01*
X4037443Y-15260031D02*
X4027920Y-15279079D01*
X4027920Y-15279079D02*
X4027920Y-15326698D01*
X4027920Y-15326698D02*
X4037443Y-15345746D01*
X4037443Y-15345746D02*
X4046967Y-15355269D01*
X4046967Y-15355269D02*
X4066015Y-15364793D01*
X4066015Y-15364793D02*
X4104110Y-15364793D01*
X4104110Y-15364793D02*
X4123158Y-15355269D01*
X4123158Y-15355269D02*
X4132682Y-15345746D01*
X4132682Y-15345746D02*
X4142205Y-15326698D01*
X4227920Y-15440984D02*
X4227920Y-15307650D01*
X4227920Y-15326698D02*
X4237444Y-15317174D01*
X4237444Y-15317174D02*
X4256491Y-15307650D01*
X4256491Y-15307650D02*
X4285063Y-15307650D01*
X4285063Y-15307650D02*
X4304110Y-15317174D01*
X4304110Y-15317174D02*
X4313634Y-15336222D01*
X4313634Y-15336222D02*
X4313634Y-15440984D01*
X4313634Y-15336222D02*
X4323158Y-15317174D01*
X4323158Y-15317174D02*
X4342205Y-15307650D01*
X4342205Y-15307650D02*
X4370777Y-15307650D01*
X4370777Y-15307650D02*
X4389825Y-15317174D01*
X4389825Y-15317174D02*
X4399348Y-15336222D01*
X4399348Y-15336222D02*
X4399348Y-15440984D01*
X4494586Y-15440984D02*
X4494586Y-15307650D01*
X4494586Y-15326698D02*
X4504110Y-15317174D01*
X4504110Y-15317174D02*
X4523158Y-15307650D01*
X4523158Y-15307650D02*
X4551729Y-15307650D01*
X4551729Y-15307650D02*
X4570777Y-15317174D01*
X4570777Y-15317174D02*
X4580301Y-15336222D01*
X4580301Y-15336222D02*
X4580301Y-15440984D01*
X4580301Y-15336222D02*
X4589825Y-15317174D01*
X4589825Y-15317174D02*
X4608872Y-15307650D01*
X4608872Y-15307650D02*
X4637444Y-15307650D01*
X4637444Y-15307650D02*
X4656491Y-15317174D01*
X4656491Y-15317174D02*
X4666015Y-15336222D01*
X4666015Y-15336222D02*
X4666015Y-15440984D01*
X5056491Y-15231460D02*
X4885063Y-15488603D01*
X5313634Y-15240984D02*
X5332682Y-15240984D01*
X5332682Y-15240984D02*
X5351729Y-15250508D01*
X5351729Y-15250508D02*
X5361253Y-15260031D01*
X5361253Y-15260031D02*
X5370777Y-15279079D01*
X5370777Y-15279079D02*
X5380301Y-15317174D01*
X5380301Y-15317174D02*
X5380301Y-15364793D01*
X5380301Y-15364793D02*
X5370777Y-15402888D01*
X5370777Y-15402888D02*
X5361253Y-15421936D01*
X5361253Y-15421936D02*
X5351729Y-15431460D01*
X5351729Y-15431460D02*
X5332682Y-15440984D01*
X5332682Y-15440984D02*
X5313634Y-15440984D01*
X5313634Y-15440984D02*
X5294587Y-15431460D01*
X5294587Y-15431460D02*
X5285063Y-15421936D01*
X5285063Y-15421936D02*
X5275539Y-15402888D01*
X5275539Y-15402888D02*
X5266015Y-15364793D01*
X5266015Y-15364793D02*
X5266015Y-15317174D01*
X5266015Y-15317174D02*
X5275539Y-15279079D01*
X5275539Y-15279079D02*
X5285063Y-15260031D01*
X5285063Y-15260031D02*
X5294587Y-15250508D01*
X5294587Y-15250508D02*
X5313634Y-15240984D01*
X5466015Y-15421936D02*
X5475539Y-15431460D01*
X5475539Y-15431460D02*
X5466015Y-15440984D01*
X5466015Y-15440984D02*
X5456491Y-15431460D01*
X5456491Y-15431460D02*
X5466015Y-15421936D01*
X5466015Y-15421936D02*
X5466015Y-15440984D01*
X5599348Y-15240984D02*
X5618396Y-15240984D01*
X5618396Y-15240984D02*
X5637444Y-15250508D01*
X5637444Y-15250508D02*
X5646967Y-15260031D01*
X5646967Y-15260031D02*
X5656491Y-15279079D01*
X5656491Y-15279079D02*
X5666015Y-15317174D01*
X5666015Y-15317174D02*
X5666015Y-15364793D01*
X5666015Y-15364793D02*
X5656491Y-15402888D01*
X5656491Y-15402888D02*
X5646967Y-15421936D01*
X5646967Y-15421936D02*
X5637444Y-15431460D01*
X5637444Y-15431460D02*
X5618396Y-15440984D01*
X5618396Y-15440984D02*
X5599348Y-15440984D01*
X5599348Y-15440984D02*
X5580301Y-15431460D01*
X5580301Y-15431460D02*
X5570777Y-15421936D01*
X5570777Y-15421936D02*
X5561253Y-15402888D01*
X5561253Y-15402888D02*
X5551729Y-15364793D01*
X5551729Y-15364793D02*
X5551729Y-15317174D01*
X5551729Y-15317174D02*
X5561253Y-15279079D01*
X5561253Y-15279079D02*
X5570777Y-15260031D01*
X5570777Y-15260031D02*
X5580301Y-15250508D01*
X5580301Y-15250508D02*
X5599348Y-15240984D01*
X5732682Y-15240984D02*
X5856491Y-15240984D01*
X5856491Y-15240984D02*
X5789825Y-15317174D01*
X5789825Y-15317174D02*
X5818396Y-15317174D01*
X5818396Y-15317174D02*
X5837444Y-15326698D01*
X5837444Y-15326698D02*
X5846967Y-15336222D01*
X5846967Y-15336222D02*
X5856491Y-15355269D01*
X5856491Y-15355269D02*
X5856491Y-15402888D01*
X5856491Y-15402888D02*
X5846967Y-15421936D01*
X5846967Y-15421936D02*
X5837444Y-15431460D01*
X5837444Y-15431460D02*
X5818396Y-15440984D01*
X5818396Y-15440984D02*
X5761253Y-15440984D01*
X5761253Y-15440984D02*
X5742206Y-15431460D01*
X5742206Y-15431460D02*
X5732682Y-15421936D01*
X6037444Y-15240984D02*
X5942206Y-15240984D01*
X5942206Y-15240984D02*
X5932682Y-15336222D01*
X5932682Y-15336222D02*
X5942206Y-15326698D01*
X5942206Y-15326698D02*
X5961253Y-15317174D01*
X5961253Y-15317174D02*
X6008872Y-15317174D01*
X6008872Y-15317174D02*
X6027920Y-15326698D01*
X6027920Y-15326698D02*
X6037444Y-15336222D01*
X6037444Y-15336222D02*
X6046967Y-15355269D01*
X6046967Y-15355269D02*
X6046967Y-15402888D01*
X6046967Y-15402888D02*
X6037444Y-15421936D01*
X6037444Y-15421936D02*
X6027920Y-15431460D01*
X6027920Y-15431460D02*
X6008872Y-15440984D01*
X6008872Y-15440984D02*
X5961253Y-15440984D01*
X5961253Y-15440984D02*
X5942206Y-15431460D01*
X5942206Y-15431460D02*
X5932682Y-15421936D01*
X6170777Y-15240984D02*
X6189825Y-15240984D01*
X6189825Y-15240984D02*
X6208872Y-15250508D01*
X6208872Y-15250508D02*
X6218396Y-15260031D01*
X6218396Y-15260031D02*
X6227920Y-15279079D01*
X6227920Y-15279079D02*
X6237444Y-15317174D01*
X6237444Y-15317174D02*
X6237444Y-15364793D01*
X6237444Y-15364793D02*
X6227920Y-15402888D01*
X6227920Y-15402888D02*
X6218396Y-15421936D01*
X6218396Y-15421936D02*
X6208872Y-15431460D01*
X6208872Y-15431460D02*
X6189825Y-15440984D01*
X6189825Y-15440984D02*
X6170777Y-15440984D01*
X6170777Y-15440984D02*
X6151729Y-15431460D01*
X6151729Y-15431460D02*
X6142206Y-15421936D01*
X6142206Y-15421936D02*
X6132682Y-15402888D01*
X6132682Y-15402888D02*
X6123158Y-15364793D01*
X6123158Y-15364793D02*
X6123158Y-15317174D01*
X6123158Y-15317174D02*
X6132682Y-15279079D01*
X6132682Y-15279079D02*
X6142206Y-15260031D01*
X6142206Y-15260031D02*
X6151729Y-15250508D01*
X6151729Y-15250508D02*
X6170777Y-15240984D01*
X6313634Y-15240984D02*
X6313634Y-15279079D01*
X6389825Y-15240984D02*
X6389825Y-15279079D01*
X6685063Y-15517174D02*
X6675539Y-15507650D01*
X6675539Y-15507650D02*
X6656491Y-15479079D01*
X6656491Y-15479079D02*
X6646968Y-15460031D01*
X6646968Y-15460031D02*
X6637444Y-15431460D01*
X6637444Y-15431460D02*
X6627920Y-15383841D01*
X6627920Y-15383841D02*
X6627920Y-15345746D01*
X6627920Y-15345746D02*
X6637444Y-15298127D01*
X6637444Y-15298127D02*
X6646968Y-15269555D01*
X6646968Y-15269555D02*
X6656491Y-15250508D01*
X6656491Y-15250508D02*
X6675539Y-15221936D01*
X6675539Y-15221936D02*
X6685063Y-15212412D01*
X6866015Y-15440984D02*
X6751729Y-15440984D01*
X6808872Y-15440984D02*
X6808872Y-15240984D01*
X6808872Y-15240984D02*
X6789825Y-15269555D01*
X6789825Y-15269555D02*
X6770777Y-15288603D01*
X6770777Y-15288603D02*
X6751729Y-15298127D01*
X6942206Y-15260031D02*
X6951729Y-15250508D01*
X6951729Y-15250508D02*
X6970777Y-15240984D01*
X6970777Y-15240984D02*
X7018396Y-15240984D01*
X7018396Y-15240984D02*
X7037444Y-15250508D01*
X7037444Y-15250508D02*
X7046968Y-15260031D01*
X7046968Y-15260031D02*
X7056491Y-15279079D01*
X7056491Y-15279079D02*
X7056491Y-15298127D01*
X7056491Y-15298127D02*
X7046968Y-15326698D01*
X7046968Y-15326698D02*
X6932682Y-15440984D01*
X6932682Y-15440984D02*
X7056491Y-15440984D01*
X7294587Y-15440984D02*
X7294587Y-15240984D01*
X7380301Y-15440984D02*
X7380301Y-15336222D01*
X7380301Y-15336222D02*
X7370777Y-15317174D01*
X7370777Y-15317174D02*
X7351730Y-15307650D01*
X7351730Y-15307650D02*
X7323158Y-15307650D01*
X7323158Y-15307650D02*
X7304110Y-15317174D01*
X7304110Y-15317174D02*
X7294587Y-15326698D01*
X7504110Y-15440984D02*
X7485063Y-15431460D01*
X7485063Y-15431460D02*
X7475539Y-15421936D01*
X7475539Y-15421936D02*
X7466015Y-15402888D01*
X7466015Y-15402888D02*
X7466015Y-15345746D01*
X7466015Y-15345746D02*
X7475539Y-15326698D01*
X7475539Y-15326698D02*
X7485063Y-15317174D01*
X7485063Y-15317174D02*
X7504110Y-15307650D01*
X7504110Y-15307650D02*
X7532682Y-15307650D01*
X7532682Y-15307650D02*
X7551730Y-15317174D01*
X7551730Y-15317174D02*
X7561253Y-15326698D01*
X7561253Y-15326698D02*
X7570777Y-15345746D01*
X7570777Y-15345746D02*
X7570777Y-15402888D01*
X7570777Y-15402888D02*
X7561253Y-15421936D01*
X7561253Y-15421936D02*
X7551730Y-15431460D01*
X7551730Y-15431460D02*
X7532682Y-15440984D01*
X7532682Y-15440984D02*
X7504110Y-15440984D01*
X7685063Y-15440984D02*
X7666015Y-15431460D01*
X7666015Y-15431460D02*
X7656491Y-15412412D01*
X7656491Y-15412412D02*
X7656491Y-15240984D01*
X7837444Y-15431460D02*
X7818396Y-15440984D01*
X7818396Y-15440984D02*
X7780301Y-15440984D01*
X7780301Y-15440984D02*
X7761253Y-15431460D01*
X7761253Y-15431460D02*
X7751730Y-15412412D01*
X7751730Y-15412412D02*
X7751730Y-15336222D01*
X7751730Y-15336222D02*
X7761253Y-15317174D01*
X7761253Y-15317174D02*
X7780301Y-15307650D01*
X7780301Y-15307650D02*
X7818396Y-15307650D01*
X7818396Y-15307650D02*
X7837444Y-15317174D01*
X7837444Y-15317174D02*
X7846968Y-15336222D01*
X7846968Y-15336222D02*
X7846968Y-15355269D01*
X7846968Y-15355269D02*
X7751730Y-15374317D01*
X7923158Y-15431460D02*
X7942206Y-15440984D01*
X7942206Y-15440984D02*
X7980301Y-15440984D01*
X7980301Y-15440984D02*
X7999349Y-15431460D01*
X7999349Y-15431460D02*
X8008872Y-15412412D01*
X8008872Y-15412412D02*
X8008872Y-15402888D01*
X8008872Y-15402888D02*
X7999349Y-15383841D01*
X7999349Y-15383841D02*
X7980301Y-15374317D01*
X7980301Y-15374317D02*
X7951730Y-15374317D01*
X7951730Y-15374317D02*
X7932682Y-15364793D01*
X7932682Y-15364793D02*
X7923158Y-15345746D01*
X7923158Y-15345746D02*
X7923158Y-15336222D01*
X7923158Y-15336222D02*
X7932682Y-15317174D01*
X7932682Y-15317174D02*
X7951730Y-15307650D01*
X7951730Y-15307650D02*
X7980301Y-15307650D01*
X7980301Y-15307650D02*
X7999349Y-15317174D01*
X8075539Y-15517174D02*
X8085063Y-15507650D01*
X8085063Y-15507650D02*
X8104111Y-15479079D01*
X8104111Y-15479079D02*
X8113634Y-15460031D01*
X8113634Y-15460031D02*
X8123158Y-15431460D01*
X8123158Y-15431460D02*
X8132682Y-15383841D01*
X8132682Y-15383841D02*
X8132682Y-15345746D01*
X8132682Y-15345746D02*
X8123158Y-15298127D01*
X8123158Y-15298127D02*
X8113634Y-15269555D01*
X8113634Y-15269555D02*
X8104111Y-15250508D01*
X8104111Y-15250508D02*
X8085063Y-15221936D01*
X8085063Y-15221936D02*
X8075539Y-15212412D01*
D10*
X3096820Y-15645320D02*
X3096820Y-15581680D01*
X3033180Y-15581680D01*
X3033180Y-15645320D01*
X3096820Y-15645320D01*
D11*
X3408872Y-15504984D02*
X3427920Y-15504984D01*
X3427920Y-15504984D02*
X3446967Y-15514508D01*
X3446967Y-15514508D02*
X3456491Y-15524031D01*
X3456491Y-15524031D02*
X3466015Y-15543079D01*
X3466015Y-15543079D02*
X3475539Y-15581174D01*
X3475539Y-15581174D02*
X3475539Y-15628793D01*
X3475539Y-15628793D02*
X3466015Y-15666888D01*
X3466015Y-15666888D02*
X3456491Y-15685936D01*
X3456491Y-15685936D02*
X3446967Y-15695460D01*
X3446967Y-15695460D02*
X3427920Y-15704984D01*
X3427920Y-15704984D02*
X3408872Y-15704984D01*
X3408872Y-15704984D02*
X3389824Y-15695460D01*
X3389824Y-15695460D02*
X3380301Y-15685936D01*
X3380301Y-15685936D02*
X3370777Y-15666888D01*
X3370777Y-15666888D02*
X3361253Y-15628793D01*
X3361253Y-15628793D02*
X3361253Y-15581174D01*
X3361253Y-15581174D02*
X3370777Y-15543079D01*
X3370777Y-15543079D02*
X3380301Y-15524031D01*
X3380301Y-15524031D02*
X3389824Y-15514508D01*
X3389824Y-15514508D02*
X3408872Y-15504984D01*
X3561253Y-15685936D02*
X3570777Y-15695460D01*
X3570777Y-15695460D02*
X3561253Y-15704984D01*
X3561253Y-15704984D02*
X3551729Y-15695460D01*
X3551729Y-15695460D02*
X3561253Y-15685936D01*
X3561253Y-15685936D02*
X3561253Y-15704984D01*
X3666015Y-15704984D02*
X3704110Y-15704984D01*
X3704110Y-15704984D02*
X3723158Y-15695460D01*
X3723158Y-15695460D02*
X3732682Y-15685936D01*
X3732682Y-15685936D02*
X3751729Y-15657365D01*
X3751729Y-15657365D02*
X3761253Y-15619269D01*
X3761253Y-15619269D02*
X3761253Y-15543079D01*
X3761253Y-15543079D02*
X3751729Y-15524031D01*
X3751729Y-15524031D02*
X3742205Y-15514508D01*
X3742205Y-15514508D02*
X3723158Y-15504984D01*
X3723158Y-15504984D02*
X3685062Y-15504984D01*
X3685062Y-15504984D02*
X3666015Y-15514508D01*
X3666015Y-15514508D02*
X3656491Y-15524031D01*
X3656491Y-15524031D02*
X3646967Y-15543079D01*
X3646967Y-15543079D02*
X3646967Y-15590698D01*
X3646967Y-15590698D02*
X3656491Y-15609746D01*
X3656491Y-15609746D02*
X3666015Y-15619269D01*
X3666015Y-15619269D02*
X3685062Y-15628793D01*
X3685062Y-15628793D02*
X3723158Y-15628793D01*
X3723158Y-15628793D02*
X3742205Y-15619269D01*
X3742205Y-15619269D02*
X3751729Y-15609746D01*
X3751729Y-15609746D02*
X3761253Y-15590698D01*
X3885062Y-15504984D02*
X3904110Y-15504984D01*
X3904110Y-15504984D02*
X3923158Y-15514508D01*
X3923158Y-15514508D02*
X3932682Y-15524031D01*
X3932682Y-15524031D02*
X3942205Y-15543079D01*
X3942205Y-15543079D02*
X3951729Y-15581174D01*
X3951729Y-15581174D02*
X3951729Y-15628793D01*
X3951729Y-15628793D02*
X3942205Y-15666888D01*
X3942205Y-15666888D02*
X3932682Y-15685936D01*
X3932682Y-15685936D02*
X3923158Y-15695460D01*
X3923158Y-15695460D02*
X3904110Y-15704984D01*
X3904110Y-15704984D02*
X3885062Y-15704984D01*
X3885062Y-15704984D02*
X3866015Y-15695460D01*
X3866015Y-15695460D02*
X3856491Y-15685936D01*
X3856491Y-15685936D02*
X3846967Y-15666888D01*
X3846967Y-15666888D02*
X3837443Y-15628793D01*
X3837443Y-15628793D02*
X3837443Y-15581174D01*
X3837443Y-15581174D02*
X3846967Y-15543079D01*
X3846967Y-15543079D02*
X3856491Y-15524031D01*
X3856491Y-15524031D02*
X3866015Y-15514508D01*
X3866015Y-15514508D02*
X3885062Y-15504984D01*
X4075539Y-15504984D02*
X4094586Y-15504984D01*
X4094586Y-15504984D02*
X4113634Y-15514508D01*
X4113634Y-15514508D02*
X4123158Y-15524031D01*
X4123158Y-15524031D02*
X4132682Y-15543079D01*
X4132682Y-15543079D02*
X4142205Y-15581174D01*
X4142205Y-15581174D02*
X4142205Y-15628793D01*
X4142205Y-15628793D02*
X4132682Y-15666888D01*
X4132682Y-15666888D02*
X4123158Y-15685936D01*
X4123158Y-15685936D02*
X4113634Y-15695460D01*
X4113634Y-15695460D02*
X4094586Y-15704984D01*
X4094586Y-15704984D02*
X4075539Y-15704984D01*
X4075539Y-15704984D02*
X4056491Y-15695460D01*
X4056491Y-15695460D02*
X4046967Y-15685936D01*
X4046967Y-15685936D02*
X4037443Y-15666888D01*
X4037443Y-15666888D02*
X4027920Y-15628793D01*
X4027920Y-15628793D02*
X4027920Y-15581174D01*
X4027920Y-15581174D02*
X4037443Y-15543079D01*
X4037443Y-15543079D02*
X4046967Y-15524031D01*
X4046967Y-15524031D02*
X4056491Y-15514508D01*
X4056491Y-15514508D02*
X4075539Y-15504984D01*
X4227920Y-15704984D02*
X4227920Y-15571650D01*
X4227920Y-15590698D02*
X4237444Y-15581174D01*
X4237444Y-15581174D02*
X4256491Y-15571650D01*
X4256491Y-15571650D02*
X4285063Y-15571650D01*
X4285063Y-15571650D02*
X4304110Y-15581174D01*
X4304110Y-15581174D02*
X4313634Y-15600222D01*
X4313634Y-15600222D02*
X4313634Y-15704984D01*
X4313634Y-15600222D02*
X4323158Y-15581174D01*
X4323158Y-15581174D02*
X4342205Y-15571650D01*
X4342205Y-15571650D02*
X4370777Y-15571650D01*
X4370777Y-15571650D02*
X4389825Y-15581174D01*
X4389825Y-15581174D02*
X4399348Y-15600222D01*
X4399348Y-15600222D02*
X4399348Y-15704984D01*
X4494586Y-15704984D02*
X4494586Y-15571650D01*
X4494586Y-15590698D02*
X4504110Y-15581174D01*
X4504110Y-15581174D02*
X4523158Y-15571650D01*
X4523158Y-15571650D02*
X4551729Y-15571650D01*
X4551729Y-15571650D02*
X4570777Y-15581174D01*
X4570777Y-15581174D02*
X4580301Y-15600222D01*
X4580301Y-15600222D02*
X4580301Y-15704984D01*
X4580301Y-15600222D02*
X4589825Y-15581174D01*
X4589825Y-15581174D02*
X4608872Y-15571650D01*
X4608872Y-15571650D02*
X4637444Y-15571650D01*
X4637444Y-15571650D02*
X4656491Y-15581174D01*
X4656491Y-15581174D02*
X4666015Y-15600222D01*
X4666015Y-15600222D02*
X4666015Y-15704984D01*
X5056491Y-15495460D02*
X4885063Y-15752603D01*
X5313634Y-15504984D02*
X5332682Y-15504984D01*
X5332682Y-15504984D02*
X5351729Y-15514508D01*
X5351729Y-15514508D02*
X5361253Y-15524031D01*
X5361253Y-15524031D02*
X5370777Y-15543079D01*
X5370777Y-15543079D02*
X5380301Y-15581174D01*
X5380301Y-15581174D02*
X5380301Y-15628793D01*
X5380301Y-15628793D02*
X5370777Y-15666888D01*
X5370777Y-15666888D02*
X5361253Y-15685936D01*
X5361253Y-15685936D02*
X5351729Y-15695460D01*
X5351729Y-15695460D02*
X5332682Y-15704984D01*
X5332682Y-15704984D02*
X5313634Y-15704984D01*
X5313634Y-15704984D02*
X5294587Y-15695460D01*
X5294587Y-15695460D02*
X5285063Y-15685936D01*
X5285063Y-15685936D02*
X5275539Y-15666888D01*
X5275539Y-15666888D02*
X5266015Y-15628793D01*
X5266015Y-15628793D02*
X5266015Y-15581174D01*
X5266015Y-15581174D02*
X5275539Y-15543079D01*
X5275539Y-15543079D02*
X5285063Y-15524031D01*
X5285063Y-15524031D02*
X5294587Y-15514508D01*
X5294587Y-15514508D02*
X5313634Y-15504984D01*
X5466015Y-15685936D02*
X5475539Y-15695460D01*
X5475539Y-15695460D02*
X5466015Y-15704984D01*
X5466015Y-15704984D02*
X5456491Y-15695460D01*
X5456491Y-15695460D02*
X5466015Y-15685936D01*
X5466015Y-15685936D02*
X5466015Y-15704984D01*
X5599348Y-15504984D02*
X5618396Y-15504984D01*
X5618396Y-15504984D02*
X5637444Y-15514508D01*
X5637444Y-15514508D02*
X5646967Y-15524031D01*
X5646967Y-15524031D02*
X5656491Y-15543079D01*
X5656491Y-15543079D02*
X5666015Y-15581174D01*
X5666015Y-15581174D02*
X5666015Y-15628793D01*
X5666015Y-15628793D02*
X5656491Y-15666888D01*
X5656491Y-15666888D02*
X5646967Y-15685936D01*
X5646967Y-15685936D02*
X5637444Y-15695460D01*
X5637444Y-15695460D02*
X5618396Y-15704984D01*
X5618396Y-15704984D02*
X5599348Y-15704984D01*
X5599348Y-15704984D02*
X5580301Y-15695460D01*
X5580301Y-15695460D02*
X5570777Y-15685936D01*
X5570777Y-15685936D02*
X5561253Y-15666888D01*
X5561253Y-15666888D02*
X5551729Y-15628793D01*
X5551729Y-15628793D02*
X5551729Y-15581174D01*
X5551729Y-15581174D02*
X5561253Y-15543079D01*
X5561253Y-15543079D02*
X5570777Y-15524031D01*
X5570777Y-15524031D02*
X5580301Y-15514508D01*
X5580301Y-15514508D02*
X5599348Y-15504984D01*
X5732682Y-15504984D02*
X5856491Y-15504984D01*
X5856491Y-15504984D02*
X5789825Y-15581174D01*
X5789825Y-15581174D02*
X5818396Y-15581174D01*
X5818396Y-15581174D02*
X5837444Y-15590698D01*
X5837444Y-15590698D02*
X5846967Y-15600222D01*
X5846967Y-15600222D02*
X5856491Y-15619269D01*
X5856491Y-15619269D02*
X5856491Y-15666888D01*
X5856491Y-15666888D02*
X5846967Y-15685936D01*
X5846967Y-15685936D02*
X5837444Y-15695460D01*
X5837444Y-15695460D02*
X5818396Y-15704984D01*
X5818396Y-15704984D02*
X5761253Y-15704984D01*
X5761253Y-15704984D02*
X5742206Y-15695460D01*
X5742206Y-15695460D02*
X5732682Y-15685936D01*
X6037444Y-15504984D02*
X5942206Y-15504984D01*
X5942206Y-15504984D02*
X5932682Y-15600222D01*
X5932682Y-15600222D02*
X5942206Y-15590698D01*
X5942206Y-15590698D02*
X5961253Y-15581174D01*
X5961253Y-15581174D02*
X6008872Y-15581174D01*
X6008872Y-15581174D02*
X6027920Y-15590698D01*
X6027920Y-15590698D02*
X6037444Y-15600222D01*
X6037444Y-15600222D02*
X6046967Y-15619269D01*
X6046967Y-15619269D02*
X6046967Y-15666888D01*
X6046967Y-15666888D02*
X6037444Y-15685936D01*
X6037444Y-15685936D02*
X6027920Y-15695460D01*
X6027920Y-15695460D02*
X6008872Y-15704984D01*
X6008872Y-15704984D02*
X5961253Y-15704984D01*
X5961253Y-15704984D02*
X5942206Y-15695460D01*
X5942206Y-15695460D02*
X5932682Y-15685936D01*
X6218396Y-15571650D02*
X6218396Y-15704984D01*
X6170777Y-15495460D02*
X6123158Y-15638317D01*
X6123158Y-15638317D02*
X6246967Y-15638317D01*
X6313634Y-15504984D02*
X6313634Y-15543079D01*
X6389825Y-15504984D02*
X6389825Y-15543079D01*
X6685063Y-15781174D02*
X6675539Y-15771650D01*
X6675539Y-15771650D02*
X6656491Y-15743079D01*
X6656491Y-15743079D02*
X6646968Y-15724031D01*
X6646968Y-15724031D02*
X6637444Y-15695460D01*
X6637444Y-15695460D02*
X6627920Y-15647841D01*
X6627920Y-15647841D02*
X6627920Y-15609746D01*
X6627920Y-15609746D02*
X6637444Y-15562127D01*
X6637444Y-15562127D02*
X6646968Y-15533555D01*
X6646968Y-15533555D02*
X6656491Y-15514508D01*
X6656491Y-15514508D02*
X6675539Y-15485936D01*
X6675539Y-15485936D02*
X6685063Y-15476412D01*
X6789825Y-15590698D02*
X6770777Y-15581174D01*
X6770777Y-15581174D02*
X6761253Y-15571650D01*
X6761253Y-15571650D02*
X6751729Y-15552603D01*
X6751729Y-15552603D02*
X6751729Y-15543079D01*
X6751729Y-15543079D02*
X6761253Y-15524031D01*
X6761253Y-15524031D02*
X6770777Y-15514508D01*
X6770777Y-15514508D02*
X6789825Y-15504984D01*
X6789825Y-15504984D02*
X6827920Y-15504984D01*
X6827920Y-15504984D02*
X6846968Y-15514508D01*
X6846968Y-15514508D02*
X6856491Y-15524031D01*
X6856491Y-15524031D02*
X6866015Y-15543079D01*
X6866015Y-15543079D02*
X6866015Y-15552603D01*
X6866015Y-15552603D02*
X6856491Y-15571650D01*
X6856491Y-15571650D02*
X6846968Y-15581174D01*
X6846968Y-15581174D02*
X6827920Y-15590698D01*
X6827920Y-15590698D02*
X6789825Y-15590698D01*
X6789825Y-15590698D02*
X6770777Y-15600222D01*
X6770777Y-15600222D02*
X6761253Y-15609746D01*
X6761253Y-15609746D02*
X6751729Y-15628793D01*
X6751729Y-15628793D02*
X6751729Y-15666888D01*
X6751729Y-15666888D02*
X6761253Y-15685936D01*
X6761253Y-15685936D02*
X6770777Y-15695460D01*
X6770777Y-15695460D02*
X6789825Y-15704984D01*
X6789825Y-15704984D02*
X6827920Y-15704984D01*
X6827920Y-15704984D02*
X6846968Y-15695460D01*
X6846968Y-15695460D02*
X6856491Y-15685936D01*
X6856491Y-15685936D02*
X6866015Y-15666888D01*
X6866015Y-15666888D02*
X6866015Y-15628793D01*
X6866015Y-15628793D02*
X6856491Y-15609746D01*
X6856491Y-15609746D02*
X6846968Y-15600222D01*
X6846968Y-15600222D02*
X6827920Y-15590698D01*
X7104110Y-15704984D02*
X7104110Y-15504984D01*
X7189825Y-15704984D02*
X7189825Y-15600222D01*
X7189825Y-15600222D02*
X7180301Y-15581174D01*
X7180301Y-15581174D02*
X7161253Y-15571650D01*
X7161253Y-15571650D02*
X7132682Y-15571650D01*
X7132682Y-15571650D02*
X7113634Y-15581174D01*
X7113634Y-15581174D02*
X7104110Y-15590698D01*
X7313634Y-15704984D02*
X7294587Y-15695460D01*
X7294587Y-15695460D02*
X7285063Y-15685936D01*
X7285063Y-15685936D02*
X7275539Y-15666888D01*
X7275539Y-15666888D02*
X7275539Y-15609746D01*
X7275539Y-15609746D02*
X7285063Y-15590698D01*
X7285063Y-15590698D02*
X7294587Y-15581174D01*
X7294587Y-15581174D02*
X7313634Y-15571650D01*
X7313634Y-15571650D02*
X7342206Y-15571650D01*
X7342206Y-15571650D02*
X7361253Y-15581174D01*
X7361253Y-15581174D02*
X7370777Y-15590698D01*
X7370777Y-15590698D02*
X7380301Y-15609746D01*
X7380301Y-15609746D02*
X7380301Y-15666888D01*
X7380301Y-15666888D02*
X7370777Y-15685936D01*
X7370777Y-15685936D02*
X7361253Y-15695460D01*
X7361253Y-15695460D02*
X7342206Y-15704984D01*
X7342206Y-15704984D02*
X7313634Y-15704984D01*
X7494587Y-15704984D02*
X7475539Y-15695460D01*
X7475539Y-15695460D02*
X7466015Y-15676412D01*
X7466015Y-15676412D02*
X7466015Y-15504984D01*
X7646968Y-15695460D02*
X7627920Y-15704984D01*
X7627920Y-15704984D02*
X7589825Y-15704984D01*
X7589825Y-15704984D02*
X7570777Y-15695460D01*
X7570777Y-15695460D02*
X7561253Y-15676412D01*
X7561253Y-15676412D02*
X7561253Y-15600222D01*
X7561253Y-15600222D02*
X7570777Y-15581174D01*
X7570777Y-15581174D02*
X7589825Y-15571650D01*
X7589825Y-15571650D02*
X7627920Y-15571650D01*
X7627920Y-15571650D02*
X7646968Y-15581174D01*
X7646968Y-15581174D02*
X7656491Y-15600222D01*
X7656491Y-15600222D02*
X7656491Y-15619269D01*
X7656491Y-15619269D02*
X7561253Y-15638317D01*
X7732682Y-15695460D02*
X7751730Y-15704984D01*
X7751730Y-15704984D02*
X7789825Y-15704984D01*
X7789825Y-15704984D02*
X7808872Y-15695460D01*
X7808872Y-15695460D02*
X7818396Y-15676412D01*
X7818396Y-15676412D02*
X7818396Y-15666888D01*
X7818396Y-15666888D02*
X7808872Y-15647841D01*
X7808872Y-15647841D02*
X7789825Y-15638317D01*
X7789825Y-15638317D02*
X7761253Y-15638317D01*
X7761253Y-15638317D02*
X7742206Y-15628793D01*
X7742206Y-15628793D02*
X7732682Y-15609746D01*
X7732682Y-15609746D02*
X7732682Y-15600222D01*
X7732682Y-15600222D02*
X7742206Y-15581174D01*
X7742206Y-15581174D02*
X7761253Y-15571650D01*
X7761253Y-15571650D02*
X7789825Y-15571650D01*
X7789825Y-15571650D02*
X7808872Y-15581174D01*
X7885063Y-15781174D02*
X7894587Y-15771650D01*
X7894587Y-15771650D02*
X7913634Y-15743079D01*
X7913634Y-15743079D02*
X7923158Y-15724031D01*
X7923158Y-15724031D02*
X7932682Y-15695460D01*
X7932682Y-15695460D02*
X7942206Y-15647841D01*
X7942206Y-15647841D02*
X7942206Y-15609746D01*
X7942206Y-15609746D02*
X7932682Y-15562127D01*
X7932682Y-15562127D02*
X7923158Y-15533555D01*
X7923158Y-15533555D02*
X7913634Y-15514508D01*
X7913634Y-15514508D02*
X7894587Y-15485936D01*
X7894587Y-15485936D02*
X7885063Y-15476412D01*
D10*
X3060500Y-15927000D02*
X3110000Y-15877500D01*
X3060500Y-15828000D01*
X3011000Y-15877500D01*
X3060500Y-15927000D01*
D11*
X3408872Y-15768984D02*
X3427920Y-15768984D01*
X3427920Y-15768984D02*
X3446967Y-15778508D01*
X3446967Y-15778508D02*
X3456491Y-15788031D01*
X3456491Y-15788031D02*
X3466015Y-15807079D01*
X3466015Y-15807079D02*
X3475539Y-15845174D01*
X3475539Y-15845174D02*
X3475539Y-15892793D01*
X3475539Y-15892793D02*
X3466015Y-15930888D01*
X3466015Y-15930888D02*
X3456491Y-15949936D01*
X3456491Y-15949936D02*
X3446967Y-15959460D01*
X3446967Y-15959460D02*
X3427920Y-15968984D01*
X3427920Y-15968984D02*
X3408872Y-15968984D01*
X3408872Y-15968984D02*
X3389824Y-15959460D01*
X3389824Y-15959460D02*
X3380301Y-15949936D01*
X3380301Y-15949936D02*
X3370777Y-15930888D01*
X3370777Y-15930888D02*
X3361253Y-15892793D01*
X3361253Y-15892793D02*
X3361253Y-15845174D01*
X3361253Y-15845174D02*
X3370777Y-15807079D01*
X3370777Y-15807079D02*
X3380301Y-15788031D01*
X3380301Y-15788031D02*
X3389824Y-15778508D01*
X3389824Y-15778508D02*
X3408872Y-15768984D01*
X3561253Y-15949936D02*
X3570777Y-15959460D01*
X3570777Y-15959460D02*
X3561253Y-15968984D01*
X3561253Y-15968984D02*
X3551729Y-15959460D01*
X3551729Y-15959460D02*
X3561253Y-15949936D01*
X3561253Y-15949936D02*
X3561253Y-15968984D01*
X3666015Y-15968984D02*
X3704110Y-15968984D01*
X3704110Y-15968984D02*
X3723158Y-15959460D01*
X3723158Y-15959460D02*
X3732682Y-15949936D01*
X3732682Y-15949936D02*
X3751729Y-15921365D01*
X3751729Y-15921365D02*
X3761253Y-15883269D01*
X3761253Y-15883269D02*
X3761253Y-15807079D01*
X3761253Y-15807079D02*
X3751729Y-15788031D01*
X3751729Y-15788031D02*
X3742205Y-15778508D01*
X3742205Y-15778508D02*
X3723158Y-15768984D01*
X3723158Y-15768984D02*
X3685062Y-15768984D01*
X3685062Y-15768984D02*
X3666015Y-15778508D01*
X3666015Y-15778508D02*
X3656491Y-15788031D01*
X3656491Y-15788031D02*
X3646967Y-15807079D01*
X3646967Y-15807079D02*
X3646967Y-15854698D01*
X3646967Y-15854698D02*
X3656491Y-15873746D01*
X3656491Y-15873746D02*
X3666015Y-15883269D01*
X3666015Y-15883269D02*
X3685062Y-15892793D01*
X3685062Y-15892793D02*
X3723158Y-15892793D01*
X3723158Y-15892793D02*
X3742205Y-15883269D01*
X3742205Y-15883269D02*
X3751729Y-15873746D01*
X3751729Y-15873746D02*
X3761253Y-15854698D01*
X3856491Y-15968984D02*
X3894586Y-15968984D01*
X3894586Y-15968984D02*
X3913634Y-15959460D01*
X3913634Y-15959460D02*
X3923158Y-15949936D01*
X3923158Y-15949936D02*
X3942205Y-15921365D01*
X3942205Y-15921365D02*
X3951729Y-15883269D01*
X3951729Y-15883269D02*
X3951729Y-15807079D01*
X3951729Y-15807079D02*
X3942205Y-15788031D01*
X3942205Y-15788031D02*
X3932682Y-15778508D01*
X3932682Y-15778508D02*
X3913634Y-15768984D01*
X3913634Y-15768984D02*
X3875539Y-15768984D01*
X3875539Y-15768984D02*
X3856491Y-15778508D01*
X3856491Y-15778508D02*
X3846967Y-15788031D01*
X3846967Y-15788031D02*
X3837443Y-15807079D01*
X3837443Y-15807079D02*
X3837443Y-15854698D01*
X3837443Y-15854698D02*
X3846967Y-15873746D01*
X3846967Y-15873746D02*
X3856491Y-15883269D01*
X3856491Y-15883269D02*
X3875539Y-15892793D01*
X3875539Y-15892793D02*
X3913634Y-15892793D01*
X3913634Y-15892793D02*
X3932682Y-15883269D01*
X3932682Y-15883269D02*
X3942205Y-15873746D01*
X3942205Y-15873746D02*
X3951729Y-15854698D01*
X4075539Y-15768984D02*
X4094586Y-15768984D01*
X4094586Y-15768984D02*
X4113634Y-15778508D01*
X4113634Y-15778508D02*
X4123158Y-15788031D01*
X4123158Y-15788031D02*
X4132682Y-15807079D01*
X4132682Y-15807079D02*
X4142205Y-15845174D01*
X4142205Y-15845174D02*
X4142205Y-15892793D01*
X4142205Y-15892793D02*
X4132682Y-15930888D01*
X4132682Y-15930888D02*
X4123158Y-15949936D01*
X4123158Y-15949936D02*
X4113634Y-15959460D01*
X4113634Y-15959460D02*
X4094586Y-15968984D01*
X4094586Y-15968984D02*
X4075539Y-15968984D01*
X4075539Y-15968984D02*
X4056491Y-15959460D01*
X4056491Y-15959460D02*
X4046967Y-15949936D01*
X4046967Y-15949936D02*
X4037443Y-15930888D01*
X4037443Y-15930888D02*
X4027920Y-15892793D01*
X4027920Y-15892793D02*
X4027920Y-15845174D01*
X4027920Y-15845174D02*
X4037443Y-15807079D01*
X4037443Y-15807079D02*
X4046967Y-15788031D01*
X4046967Y-15788031D02*
X4056491Y-15778508D01*
X4056491Y-15778508D02*
X4075539Y-15768984D01*
X4227920Y-15968984D02*
X4227920Y-15835650D01*
X4227920Y-15854698D02*
X4237444Y-15845174D01*
X4237444Y-15845174D02*
X4256491Y-15835650D01*
X4256491Y-15835650D02*
X4285063Y-15835650D01*
X4285063Y-15835650D02*
X4304110Y-15845174D01*
X4304110Y-15845174D02*
X4313634Y-15864222D01*
X4313634Y-15864222D02*
X4313634Y-15968984D01*
X4313634Y-15864222D02*
X4323158Y-15845174D01*
X4323158Y-15845174D02*
X4342205Y-15835650D01*
X4342205Y-15835650D02*
X4370777Y-15835650D01*
X4370777Y-15835650D02*
X4389825Y-15845174D01*
X4389825Y-15845174D02*
X4399348Y-15864222D01*
X4399348Y-15864222D02*
X4399348Y-15968984D01*
X4494586Y-15968984D02*
X4494586Y-15835650D01*
X4494586Y-15854698D02*
X4504110Y-15845174D01*
X4504110Y-15845174D02*
X4523158Y-15835650D01*
X4523158Y-15835650D02*
X4551729Y-15835650D01*
X4551729Y-15835650D02*
X4570777Y-15845174D01*
X4570777Y-15845174D02*
X4580301Y-15864222D01*
X4580301Y-15864222D02*
X4580301Y-15968984D01*
X4580301Y-15864222D02*
X4589825Y-15845174D01*
X4589825Y-15845174D02*
X4608872Y-15835650D01*
X4608872Y-15835650D02*
X4637444Y-15835650D01*
X4637444Y-15835650D02*
X4656491Y-15845174D01*
X4656491Y-15845174D02*
X4666015Y-15864222D01*
X4666015Y-15864222D02*
X4666015Y-15968984D01*
X5056491Y-15759460D02*
X4885063Y-16016603D01*
X5313634Y-15768984D02*
X5332682Y-15768984D01*
X5332682Y-15768984D02*
X5351729Y-15778508D01*
X5351729Y-15778508D02*
X5361253Y-15788031D01*
X5361253Y-15788031D02*
X5370777Y-15807079D01*
X5370777Y-15807079D02*
X5380301Y-15845174D01*
X5380301Y-15845174D02*
X5380301Y-15892793D01*
X5380301Y-15892793D02*
X5370777Y-15930888D01*
X5370777Y-15930888D02*
X5361253Y-15949936D01*
X5361253Y-15949936D02*
X5351729Y-15959460D01*
X5351729Y-15959460D02*
X5332682Y-15968984D01*
X5332682Y-15968984D02*
X5313634Y-15968984D01*
X5313634Y-15968984D02*
X5294587Y-15959460D01*
X5294587Y-15959460D02*
X5285063Y-15949936D01*
X5285063Y-15949936D02*
X5275539Y-15930888D01*
X5275539Y-15930888D02*
X5266015Y-15892793D01*
X5266015Y-15892793D02*
X5266015Y-15845174D01*
X5266015Y-15845174D02*
X5275539Y-15807079D01*
X5275539Y-15807079D02*
X5285063Y-15788031D01*
X5285063Y-15788031D02*
X5294587Y-15778508D01*
X5294587Y-15778508D02*
X5313634Y-15768984D01*
X5466015Y-15949936D02*
X5475539Y-15959460D01*
X5475539Y-15959460D02*
X5466015Y-15968984D01*
X5466015Y-15968984D02*
X5456491Y-15959460D01*
X5456491Y-15959460D02*
X5466015Y-15949936D01*
X5466015Y-15949936D02*
X5466015Y-15968984D01*
X5599348Y-15768984D02*
X5618396Y-15768984D01*
X5618396Y-15768984D02*
X5637444Y-15778508D01*
X5637444Y-15778508D02*
X5646967Y-15788031D01*
X5646967Y-15788031D02*
X5656491Y-15807079D01*
X5656491Y-15807079D02*
X5666015Y-15845174D01*
X5666015Y-15845174D02*
X5666015Y-15892793D01*
X5666015Y-15892793D02*
X5656491Y-15930888D01*
X5656491Y-15930888D02*
X5646967Y-15949936D01*
X5646967Y-15949936D02*
X5637444Y-15959460D01*
X5637444Y-15959460D02*
X5618396Y-15968984D01*
X5618396Y-15968984D02*
X5599348Y-15968984D01*
X5599348Y-15968984D02*
X5580301Y-15959460D01*
X5580301Y-15959460D02*
X5570777Y-15949936D01*
X5570777Y-15949936D02*
X5561253Y-15930888D01*
X5561253Y-15930888D02*
X5551729Y-15892793D01*
X5551729Y-15892793D02*
X5551729Y-15845174D01*
X5551729Y-15845174D02*
X5561253Y-15807079D01*
X5561253Y-15807079D02*
X5570777Y-15788031D01*
X5570777Y-15788031D02*
X5580301Y-15778508D01*
X5580301Y-15778508D02*
X5599348Y-15768984D01*
X5732682Y-15768984D02*
X5856491Y-15768984D01*
X5856491Y-15768984D02*
X5789825Y-15845174D01*
X5789825Y-15845174D02*
X5818396Y-15845174D01*
X5818396Y-15845174D02*
X5837444Y-15854698D01*
X5837444Y-15854698D02*
X5846967Y-15864222D01*
X5846967Y-15864222D02*
X5856491Y-15883269D01*
X5856491Y-15883269D02*
X5856491Y-15930888D01*
X5856491Y-15930888D02*
X5846967Y-15949936D01*
X5846967Y-15949936D02*
X5837444Y-15959460D01*
X5837444Y-15959460D02*
X5818396Y-15968984D01*
X5818396Y-15968984D02*
X5761253Y-15968984D01*
X5761253Y-15968984D02*
X5742206Y-15959460D01*
X5742206Y-15959460D02*
X5732682Y-15949936D01*
X5951729Y-15968984D02*
X5989825Y-15968984D01*
X5989825Y-15968984D02*
X6008872Y-15959460D01*
X6008872Y-15959460D02*
X6018396Y-15949936D01*
X6018396Y-15949936D02*
X6037444Y-15921365D01*
X6037444Y-15921365D02*
X6046967Y-15883269D01*
X6046967Y-15883269D02*
X6046967Y-15807079D01*
X6046967Y-15807079D02*
X6037444Y-15788031D01*
X6037444Y-15788031D02*
X6027920Y-15778508D01*
X6027920Y-15778508D02*
X6008872Y-15768984D01*
X6008872Y-15768984D02*
X5970777Y-15768984D01*
X5970777Y-15768984D02*
X5951729Y-15778508D01*
X5951729Y-15778508D02*
X5942206Y-15788031D01*
X5942206Y-15788031D02*
X5932682Y-15807079D01*
X5932682Y-15807079D02*
X5932682Y-15854698D01*
X5932682Y-15854698D02*
X5942206Y-15873746D01*
X5942206Y-15873746D02*
X5951729Y-15883269D01*
X5951729Y-15883269D02*
X5970777Y-15892793D01*
X5970777Y-15892793D02*
X6008872Y-15892793D01*
X6008872Y-15892793D02*
X6027920Y-15883269D01*
X6027920Y-15883269D02*
X6037444Y-15873746D01*
X6037444Y-15873746D02*
X6046967Y-15854698D01*
X6170777Y-15768984D02*
X6189825Y-15768984D01*
X6189825Y-15768984D02*
X6208872Y-15778508D01*
X6208872Y-15778508D02*
X6218396Y-15788031D01*
X6218396Y-15788031D02*
X6227920Y-15807079D01*
X6227920Y-15807079D02*
X6237444Y-15845174D01*
X6237444Y-15845174D02*
X6237444Y-15892793D01*
X6237444Y-15892793D02*
X6227920Y-15930888D01*
X6227920Y-15930888D02*
X6218396Y-15949936D01*
X6218396Y-15949936D02*
X6208872Y-15959460D01*
X6208872Y-15959460D02*
X6189825Y-15968984D01*
X6189825Y-15968984D02*
X6170777Y-15968984D01*
X6170777Y-15968984D02*
X6151729Y-15959460D01*
X6151729Y-15959460D02*
X6142206Y-15949936D01*
X6142206Y-15949936D02*
X6132682Y-15930888D01*
X6132682Y-15930888D02*
X6123158Y-15892793D01*
X6123158Y-15892793D02*
X6123158Y-15845174D01*
X6123158Y-15845174D02*
X6132682Y-15807079D01*
X6132682Y-15807079D02*
X6142206Y-15788031D01*
X6142206Y-15788031D02*
X6151729Y-15778508D01*
X6151729Y-15778508D02*
X6170777Y-15768984D01*
X6313634Y-15768984D02*
X6313634Y-15807079D01*
X6389825Y-15768984D02*
X6389825Y-15807079D01*
X6685063Y-16045174D02*
X6675539Y-16035650D01*
X6675539Y-16035650D02*
X6656491Y-16007079D01*
X6656491Y-16007079D02*
X6646968Y-15988031D01*
X6646968Y-15988031D02*
X6637444Y-15959460D01*
X6637444Y-15959460D02*
X6627920Y-15911841D01*
X6627920Y-15911841D02*
X6627920Y-15873746D01*
X6627920Y-15873746D02*
X6637444Y-15826127D01*
X6637444Y-15826127D02*
X6646968Y-15797555D01*
X6646968Y-15797555D02*
X6656491Y-15778508D01*
X6656491Y-15778508D02*
X6675539Y-15749936D01*
X6675539Y-15749936D02*
X6685063Y-15740412D01*
X6846968Y-15835650D02*
X6846968Y-15968984D01*
X6799348Y-15759460D02*
X6751729Y-15902317D01*
X6751729Y-15902317D02*
X6875539Y-15902317D01*
X7104110Y-15968984D02*
X7104110Y-15768984D01*
X7189825Y-15968984D02*
X7189825Y-15864222D01*
X7189825Y-15864222D02*
X7180301Y-15845174D01*
X7180301Y-15845174D02*
X7161253Y-15835650D01*
X7161253Y-15835650D02*
X7132682Y-15835650D01*
X7132682Y-15835650D02*
X7113634Y-15845174D01*
X7113634Y-15845174D02*
X7104110Y-15854698D01*
X7313634Y-15968984D02*
X7294587Y-15959460D01*
X7294587Y-15959460D02*
X7285063Y-15949936D01*
X7285063Y-15949936D02*
X7275539Y-15930888D01*
X7275539Y-15930888D02*
X7275539Y-15873746D01*
X7275539Y-15873746D02*
X7285063Y-15854698D01*
X7285063Y-15854698D02*
X7294587Y-15845174D01*
X7294587Y-15845174D02*
X7313634Y-15835650D01*
X7313634Y-15835650D02*
X7342206Y-15835650D01*
X7342206Y-15835650D02*
X7361253Y-15845174D01*
X7361253Y-15845174D02*
X7370777Y-15854698D01*
X7370777Y-15854698D02*
X7380301Y-15873746D01*
X7380301Y-15873746D02*
X7380301Y-15930888D01*
X7380301Y-15930888D02*
X7370777Y-15949936D01*
X7370777Y-15949936D02*
X7361253Y-15959460D01*
X7361253Y-15959460D02*
X7342206Y-15968984D01*
X7342206Y-15968984D02*
X7313634Y-15968984D01*
X7494587Y-15968984D02*
X7475539Y-15959460D01*
X7475539Y-15959460D02*
X7466015Y-15940412D01*
X7466015Y-15940412D02*
X7466015Y-15768984D01*
X7646968Y-15959460D02*
X7627920Y-15968984D01*
X7627920Y-15968984D02*
X7589825Y-15968984D01*
X7589825Y-15968984D02*
X7570777Y-15959460D01*
X7570777Y-15959460D02*
X7561253Y-15940412D01*
X7561253Y-15940412D02*
X7561253Y-15864222D01*
X7561253Y-15864222D02*
X7570777Y-15845174D01*
X7570777Y-15845174D02*
X7589825Y-15835650D01*
X7589825Y-15835650D02*
X7627920Y-15835650D01*
X7627920Y-15835650D02*
X7646968Y-15845174D01*
X7646968Y-15845174D02*
X7656491Y-15864222D01*
X7656491Y-15864222D02*
X7656491Y-15883269D01*
X7656491Y-15883269D02*
X7561253Y-15902317D01*
X7732682Y-15959460D02*
X7751730Y-15968984D01*
X7751730Y-15968984D02*
X7789825Y-15968984D01*
X7789825Y-15968984D02*
X7808872Y-15959460D01*
X7808872Y-15959460D02*
X7818396Y-15940412D01*
X7818396Y-15940412D02*
X7818396Y-15930888D01*
X7818396Y-15930888D02*
X7808872Y-15911841D01*
X7808872Y-15911841D02*
X7789825Y-15902317D01*
X7789825Y-15902317D02*
X7761253Y-15902317D01*
X7761253Y-15902317D02*
X7742206Y-15892793D01*
X7742206Y-15892793D02*
X7732682Y-15873746D01*
X7732682Y-15873746D02*
X7732682Y-15864222D01*
X7732682Y-15864222D02*
X7742206Y-15845174D01*
X7742206Y-15845174D02*
X7761253Y-15835650D01*
X7761253Y-15835650D02*
X7789825Y-15835650D01*
X7789825Y-15835650D02*
X7808872Y-15845174D01*
X7885063Y-16045174D02*
X7894587Y-16035650D01*
X7894587Y-16035650D02*
X7913634Y-16007079D01*
X7913634Y-16007079D02*
X7923158Y-15988031D01*
X7923158Y-15988031D02*
X7932682Y-15959460D01*
X7932682Y-15959460D02*
X7942206Y-15911841D01*
X7942206Y-15911841D02*
X7942206Y-15873746D01*
X7942206Y-15873746D02*
X7932682Y-15826127D01*
X7932682Y-15826127D02*
X7923158Y-15797555D01*
X7923158Y-15797555D02*
X7913634Y-15778508D01*
X7913634Y-15778508D02*
X7894587Y-15749936D01*
X7894587Y-15749936D02*
X7885063Y-15740412D01*
D12*
X3008000Y-16090500D02*
X3110000Y-16192500D01*
X3110000Y-16090500D02*
X3008000Y-16192500D01*
X3110000Y-16141500D02*
G75*
G02*
X3008000Y-16141500I-51000J0D01*
G01*
X3008000Y-16141500D02*
G75*
G02*
X3110000Y-16141500I51000J0D01*
G01*
D11*
X3475539Y-16232984D02*
X3361253Y-16232984D01*
X3418396Y-16232984D02*
X3418396Y-16032984D01*
X3418396Y-16032984D02*
X3399348Y-16061555D01*
X3399348Y-16061555D02*
X3380301Y-16080603D01*
X3380301Y-16080603D02*
X3361253Y-16090127D01*
X3561253Y-16213936D02*
X3570777Y-16223460D01*
X3570777Y-16223460D02*
X3561253Y-16232984D01*
X3561253Y-16232984D02*
X3551729Y-16223460D01*
X3551729Y-16223460D02*
X3561253Y-16213936D01*
X3561253Y-16213936D02*
X3561253Y-16232984D01*
X3694586Y-16032984D02*
X3713634Y-16032984D01*
X3713634Y-16032984D02*
X3732682Y-16042508D01*
X3732682Y-16042508D02*
X3742205Y-16052031D01*
X3742205Y-16052031D02*
X3751729Y-16071079D01*
X3751729Y-16071079D02*
X3761253Y-16109174D01*
X3761253Y-16109174D02*
X3761253Y-16156793D01*
X3761253Y-16156793D02*
X3751729Y-16194888D01*
X3751729Y-16194888D02*
X3742205Y-16213936D01*
X3742205Y-16213936D02*
X3732682Y-16223460D01*
X3732682Y-16223460D02*
X3713634Y-16232984D01*
X3713634Y-16232984D02*
X3694586Y-16232984D01*
X3694586Y-16232984D02*
X3675539Y-16223460D01*
X3675539Y-16223460D02*
X3666015Y-16213936D01*
X3666015Y-16213936D02*
X3656491Y-16194888D01*
X3656491Y-16194888D02*
X3646967Y-16156793D01*
X3646967Y-16156793D02*
X3646967Y-16109174D01*
X3646967Y-16109174D02*
X3656491Y-16071079D01*
X3656491Y-16071079D02*
X3666015Y-16052031D01*
X3666015Y-16052031D02*
X3675539Y-16042508D01*
X3675539Y-16042508D02*
X3694586Y-16032984D01*
X3837443Y-16052031D02*
X3846967Y-16042508D01*
X3846967Y-16042508D02*
X3866015Y-16032984D01*
X3866015Y-16032984D02*
X3913634Y-16032984D01*
X3913634Y-16032984D02*
X3932682Y-16042508D01*
X3932682Y-16042508D02*
X3942205Y-16052031D01*
X3942205Y-16052031D02*
X3951729Y-16071079D01*
X3951729Y-16071079D02*
X3951729Y-16090127D01*
X3951729Y-16090127D02*
X3942205Y-16118698D01*
X3942205Y-16118698D02*
X3827920Y-16232984D01*
X3827920Y-16232984D02*
X3951729Y-16232984D01*
X4075539Y-16032984D02*
X4094586Y-16032984D01*
X4094586Y-16032984D02*
X4113634Y-16042508D01*
X4113634Y-16042508D02*
X4123158Y-16052031D01*
X4123158Y-16052031D02*
X4132682Y-16071079D01*
X4132682Y-16071079D02*
X4142205Y-16109174D01*
X4142205Y-16109174D02*
X4142205Y-16156793D01*
X4142205Y-16156793D02*
X4132682Y-16194888D01*
X4132682Y-16194888D02*
X4123158Y-16213936D01*
X4123158Y-16213936D02*
X4113634Y-16223460D01*
X4113634Y-16223460D02*
X4094586Y-16232984D01*
X4094586Y-16232984D02*
X4075539Y-16232984D01*
X4075539Y-16232984D02*
X4056491Y-16223460D01*
X4056491Y-16223460D02*
X4046967Y-16213936D01*
X4046967Y-16213936D02*
X4037443Y-16194888D01*
X4037443Y-16194888D02*
X4027920Y-16156793D01*
X4027920Y-16156793D02*
X4027920Y-16109174D01*
X4027920Y-16109174D02*
X4037443Y-16071079D01*
X4037443Y-16071079D02*
X4046967Y-16052031D01*
X4046967Y-16052031D02*
X4056491Y-16042508D01*
X4056491Y-16042508D02*
X4075539Y-16032984D01*
X4227920Y-16232984D02*
X4227920Y-16099650D01*
X4227920Y-16118698D02*
X4237444Y-16109174D01*
X4237444Y-16109174D02*
X4256491Y-16099650D01*
X4256491Y-16099650D02*
X4285063Y-16099650D01*
X4285063Y-16099650D02*
X4304110Y-16109174D01*
X4304110Y-16109174D02*
X4313634Y-16128222D01*
X4313634Y-16128222D02*
X4313634Y-16232984D01*
X4313634Y-16128222D02*
X4323158Y-16109174D01*
X4323158Y-16109174D02*
X4342205Y-16099650D01*
X4342205Y-16099650D02*
X4370777Y-16099650D01*
X4370777Y-16099650D02*
X4389825Y-16109174D01*
X4389825Y-16109174D02*
X4399348Y-16128222D01*
X4399348Y-16128222D02*
X4399348Y-16232984D01*
X4494586Y-16232984D02*
X4494586Y-16099650D01*
X4494586Y-16118698D02*
X4504110Y-16109174D01*
X4504110Y-16109174D02*
X4523158Y-16099650D01*
X4523158Y-16099650D02*
X4551729Y-16099650D01*
X4551729Y-16099650D02*
X4570777Y-16109174D01*
X4570777Y-16109174D02*
X4580301Y-16128222D01*
X4580301Y-16128222D02*
X4580301Y-16232984D01*
X4580301Y-16128222D02*
X4589825Y-16109174D01*
X4589825Y-16109174D02*
X4608872Y-16099650D01*
X4608872Y-16099650D02*
X4637444Y-16099650D01*
X4637444Y-16099650D02*
X4656491Y-16109174D01*
X4656491Y-16109174D02*
X4666015Y-16128222D01*
X4666015Y-16128222D02*
X4666015Y-16232984D01*
X5056491Y-16023460D02*
X4885063Y-16280603D01*
X5313634Y-16032984D02*
X5332682Y-16032984D01*
X5332682Y-16032984D02*
X5351729Y-16042508D01*
X5351729Y-16042508D02*
X5361253Y-16052031D01*
X5361253Y-16052031D02*
X5370777Y-16071079D01*
X5370777Y-16071079D02*
X5380301Y-16109174D01*
X5380301Y-16109174D02*
X5380301Y-16156793D01*
X5380301Y-16156793D02*
X5370777Y-16194888D01*
X5370777Y-16194888D02*
X5361253Y-16213936D01*
X5361253Y-16213936D02*
X5351729Y-16223460D01*
X5351729Y-16223460D02*
X5332682Y-16232984D01*
X5332682Y-16232984D02*
X5313634Y-16232984D01*
X5313634Y-16232984D02*
X5294587Y-16223460D01*
X5294587Y-16223460D02*
X5285063Y-16213936D01*
X5285063Y-16213936D02*
X5275539Y-16194888D01*
X5275539Y-16194888D02*
X5266015Y-16156793D01*
X5266015Y-16156793D02*
X5266015Y-16109174D01*
X5266015Y-16109174D02*
X5275539Y-16071079D01*
X5275539Y-16071079D02*
X5285063Y-16052031D01*
X5285063Y-16052031D02*
X5294587Y-16042508D01*
X5294587Y-16042508D02*
X5313634Y-16032984D01*
X5466015Y-16213936D02*
X5475539Y-16223460D01*
X5475539Y-16223460D02*
X5466015Y-16232984D01*
X5466015Y-16232984D02*
X5456491Y-16223460D01*
X5456491Y-16223460D02*
X5466015Y-16213936D01*
X5466015Y-16213936D02*
X5466015Y-16232984D01*
X5599348Y-16032984D02*
X5618396Y-16032984D01*
X5618396Y-16032984D02*
X5637444Y-16042508D01*
X5637444Y-16042508D02*
X5646967Y-16052031D01*
X5646967Y-16052031D02*
X5656491Y-16071079D01*
X5656491Y-16071079D02*
X5666015Y-16109174D01*
X5666015Y-16109174D02*
X5666015Y-16156793D01*
X5666015Y-16156793D02*
X5656491Y-16194888D01*
X5656491Y-16194888D02*
X5646967Y-16213936D01*
X5646967Y-16213936D02*
X5637444Y-16223460D01*
X5637444Y-16223460D02*
X5618396Y-16232984D01*
X5618396Y-16232984D02*
X5599348Y-16232984D01*
X5599348Y-16232984D02*
X5580301Y-16223460D01*
X5580301Y-16223460D02*
X5570777Y-16213936D01*
X5570777Y-16213936D02*
X5561253Y-16194888D01*
X5561253Y-16194888D02*
X5551729Y-16156793D01*
X5551729Y-16156793D02*
X5551729Y-16109174D01*
X5551729Y-16109174D02*
X5561253Y-16071079D01*
X5561253Y-16071079D02*
X5570777Y-16052031D01*
X5570777Y-16052031D02*
X5580301Y-16042508D01*
X5580301Y-16042508D02*
X5599348Y-16032984D01*
X5837444Y-16099650D02*
X5837444Y-16232984D01*
X5789825Y-16023460D02*
X5742206Y-16166317D01*
X5742206Y-16166317D02*
X5866015Y-16166317D01*
X5980301Y-16032984D02*
X5999348Y-16032984D01*
X5999348Y-16032984D02*
X6018396Y-16042508D01*
X6018396Y-16042508D02*
X6027920Y-16052031D01*
X6027920Y-16052031D02*
X6037444Y-16071079D01*
X6037444Y-16071079D02*
X6046967Y-16109174D01*
X6046967Y-16109174D02*
X6046967Y-16156793D01*
X6046967Y-16156793D02*
X6037444Y-16194888D01*
X6037444Y-16194888D02*
X6027920Y-16213936D01*
X6027920Y-16213936D02*
X6018396Y-16223460D01*
X6018396Y-16223460D02*
X5999348Y-16232984D01*
X5999348Y-16232984D02*
X5980301Y-16232984D01*
X5980301Y-16232984D02*
X5961253Y-16223460D01*
X5961253Y-16223460D02*
X5951729Y-16213936D01*
X5951729Y-16213936D02*
X5942206Y-16194888D01*
X5942206Y-16194888D02*
X5932682Y-16156793D01*
X5932682Y-16156793D02*
X5932682Y-16109174D01*
X5932682Y-16109174D02*
X5942206Y-16071079D01*
X5942206Y-16071079D02*
X5951729Y-16052031D01*
X5951729Y-16052031D02*
X5961253Y-16042508D01*
X5961253Y-16042508D02*
X5980301Y-16032984D01*
X6123158Y-16052031D02*
X6132682Y-16042508D01*
X6132682Y-16042508D02*
X6151729Y-16032984D01*
X6151729Y-16032984D02*
X6199348Y-16032984D01*
X6199348Y-16032984D02*
X6218396Y-16042508D01*
X6218396Y-16042508D02*
X6227920Y-16052031D01*
X6227920Y-16052031D02*
X6237444Y-16071079D01*
X6237444Y-16071079D02*
X6237444Y-16090127D01*
X6237444Y-16090127D02*
X6227920Y-16118698D01*
X6227920Y-16118698D02*
X6113634Y-16232984D01*
X6113634Y-16232984D02*
X6237444Y-16232984D01*
X6313634Y-16032984D02*
X6313634Y-16071079D01*
X6389825Y-16032984D02*
X6389825Y-16071079D01*
X6685063Y-16309174D02*
X6675539Y-16299650D01*
X6675539Y-16299650D02*
X6656491Y-16271079D01*
X6656491Y-16271079D02*
X6646968Y-16252031D01*
X6646968Y-16252031D02*
X6637444Y-16223460D01*
X6637444Y-16223460D02*
X6627920Y-16175841D01*
X6627920Y-16175841D02*
X6627920Y-16137746D01*
X6627920Y-16137746D02*
X6637444Y-16090127D01*
X6637444Y-16090127D02*
X6646968Y-16061555D01*
X6646968Y-16061555D02*
X6656491Y-16042508D01*
X6656491Y-16042508D02*
X6675539Y-16013936D01*
X6675539Y-16013936D02*
X6685063Y-16004412D01*
X6751729Y-16052031D02*
X6761253Y-16042508D01*
X6761253Y-16042508D02*
X6780301Y-16032984D01*
X6780301Y-16032984D02*
X6827920Y-16032984D01*
X6827920Y-16032984D02*
X6846968Y-16042508D01*
X6846968Y-16042508D02*
X6856491Y-16052031D01*
X6856491Y-16052031D02*
X6866015Y-16071079D01*
X6866015Y-16071079D02*
X6866015Y-16090127D01*
X6866015Y-16090127D02*
X6856491Y-16118698D01*
X6856491Y-16118698D02*
X6742206Y-16232984D01*
X6742206Y-16232984D02*
X6866015Y-16232984D01*
X7104110Y-16232984D02*
X7104110Y-16032984D01*
X7189825Y-16232984D02*
X7189825Y-16128222D01*
X7189825Y-16128222D02*
X7180301Y-16109174D01*
X7180301Y-16109174D02*
X7161253Y-16099650D01*
X7161253Y-16099650D02*
X7132682Y-16099650D01*
X7132682Y-16099650D02*
X7113634Y-16109174D01*
X7113634Y-16109174D02*
X7104110Y-16118698D01*
X7313634Y-16232984D02*
X7294587Y-16223460D01*
X7294587Y-16223460D02*
X7285063Y-16213936D01*
X7285063Y-16213936D02*
X7275539Y-16194888D01*
X7275539Y-16194888D02*
X7275539Y-16137746D01*
X7275539Y-16137746D02*
X7285063Y-16118698D01*
X7285063Y-16118698D02*
X7294587Y-16109174D01*
X7294587Y-16109174D02*
X7313634Y-16099650D01*
X7313634Y-16099650D02*
X7342206Y-16099650D01*
X7342206Y-16099650D02*
X7361253Y-16109174D01*
X7361253Y-16109174D02*
X7370777Y-16118698D01*
X7370777Y-16118698D02*
X7380301Y-16137746D01*
X7380301Y-16137746D02*
X7380301Y-16194888D01*
X7380301Y-16194888D02*
X7370777Y-16213936D01*
X7370777Y-16213936D02*
X7361253Y-16223460D01*
X7361253Y-16223460D02*
X7342206Y-16232984D01*
X7342206Y-16232984D02*
X7313634Y-16232984D01*
X7494587Y-16232984D02*
X7475539Y-16223460D01*
X7475539Y-16223460D02*
X7466015Y-16204412D01*
X7466015Y-16204412D02*
X7466015Y-16032984D01*
X7646968Y-16223460D02*
X7627920Y-16232984D01*
X7627920Y-16232984D02*
X7589825Y-16232984D01*
X7589825Y-16232984D02*
X7570777Y-16223460D01*
X7570777Y-16223460D02*
X7561253Y-16204412D01*
X7561253Y-16204412D02*
X7561253Y-16128222D01*
X7561253Y-16128222D02*
X7570777Y-16109174D01*
X7570777Y-16109174D02*
X7589825Y-16099650D01*
X7589825Y-16099650D02*
X7627920Y-16099650D01*
X7627920Y-16099650D02*
X7646968Y-16109174D01*
X7646968Y-16109174D02*
X7656491Y-16128222D01*
X7656491Y-16128222D02*
X7656491Y-16147269D01*
X7656491Y-16147269D02*
X7561253Y-16166317D01*
X7732682Y-16223460D02*
X7751730Y-16232984D01*
X7751730Y-16232984D02*
X7789825Y-16232984D01*
X7789825Y-16232984D02*
X7808872Y-16223460D01*
X7808872Y-16223460D02*
X7818396Y-16204412D01*
X7818396Y-16204412D02*
X7818396Y-16194888D01*
X7818396Y-16194888D02*
X7808872Y-16175841D01*
X7808872Y-16175841D02*
X7789825Y-16166317D01*
X7789825Y-16166317D02*
X7761253Y-16166317D01*
X7761253Y-16166317D02*
X7742206Y-16156793D01*
X7742206Y-16156793D02*
X7732682Y-16137746D01*
X7732682Y-16137746D02*
X7732682Y-16128222D01*
X7732682Y-16128222D02*
X7742206Y-16109174D01*
X7742206Y-16109174D02*
X7761253Y-16099650D01*
X7761253Y-16099650D02*
X7789825Y-16099650D01*
X7789825Y-16099650D02*
X7808872Y-16109174D01*
X7885063Y-16309174D02*
X7894587Y-16299650D01*
X7894587Y-16299650D02*
X7913634Y-16271079D01*
X7913634Y-16271079D02*
X7923158Y-16252031D01*
X7923158Y-16252031D02*
X7932682Y-16223460D01*
X7932682Y-16223460D02*
X7942206Y-16175841D01*
X7942206Y-16175841D02*
X7942206Y-16137746D01*
X7942206Y-16137746D02*
X7932682Y-16090127D01*
X7932682Y-16090127D02*
X7923158Y-16061555D01*
X7923158Y-16061555D02*
X7913634Y-16042508D01*
X7913634Y-16042508D02*
X7894587Y-16013936D01*
X7894587Y-16013936D02*
X7885063Y-16004412D01*
D13*
X2980000Y-16340500D02*
X3110000Y-16470500D01*
X3110000Y-16340500D02*
X2980000Y-16470500D01*
X3045000Y-16340500D02*
X3045000Y-16470500D01*
X2980000Y-16405500D02*
X3110000Y-16405500D01*
D11*
X3475539Y-16496984D02*
X3361253Y-16496984D01*
X3418396Y-16496984D02*
X3418396Y-16296984D01*
X3418396Y-16296984D02*
X3399348Y-16325555D01*
X3399348Y-16325555D02*
X3380301Y-16344603D01*
X3380301Y-16344603D02*
X3361253Y-16354127D01*
X3561253Y-16477936D02*
X3570777Y-16487460D01*
X3570777Y-16487460D02*
X3561253Y-16496984D01*
X3561253Y-16496984D02*
X3551729Y-16487460D01*
X3551729Y-16487460D02*
X3561253Y-16477936D01*
X3561253Y-16477936D02*
X3561253Y-16496984D01*
X3637443Y-16296984D02*
X3761253Y-16296984D01*
X3761253Y-16296984D02*
X3694586Y-16373174D01*
X3694586Y-16373174D02*
X3723158Y-16373174D01*
X3723158Y-16373174D02*
X3742205Y-16382698D01*
X3742205Y-16382698D02*
X3751729Y-16392222D01*
X3751729Y-16392222D02*
X3761253Y-16411269D01*
X3761253Y-16411269D02*
X3761253Y-16458888D01*
X3761253Y-16458888D02*
X3751729Y-16477936D01*
X3751729Y-16477936D02*
X3742205Y-16487460D01*
X3742205Y-16487460D02*
X3723158Y-16496984D01*
X3723158Y-16496984D02*
X3666015Y-16496984D01*
X3666015Y-16496984D02*
X3646967Y-16487460D01*
X3646967Y-16487460D02*
X3637443Y-16477936D01*
X3885062Y-16296984D02*
X3904110Y-16296984D01*
X3904110Y-16296984D02*
X3923158Y-16306508D01*
X3923158Y-16306508D02*
X3932682Y-16316031D01*
X3932682Y-16316031D02*
X3942205Y-16335079D01*
X3942205Y-16335079D02*
X3951729Y-16373174D01*
X3951729Y-16373174D02*
X3951729Y-16420793D01*
X3951729Y-16420793D02*
X3942205Y-16458888D01*
X3942205Y-16458888D02*
X3932682Y-16477936D01*
X3932682Y-16477936D02*
X3923158Y-16487460D01*
X3923158Y-16487460D02*
X3904110Y-16496984D01*
X3904110Y-16496984D02*
X3885062Y-16496984D01*
X3885062Y-16496984D02*
X3866015Y-16487460D01*
X3866015Y-16487460D02*
X3856491Y-16477936D01*
X3856491Y-16477936D02*
X3846967Y-16458888D01*
X3846967Y-16458888D02*
X3837443Y-16420793D01*
X3837443Y-16420793D02*
X3837443Y-16373174D01*
X3837443Y-16373174D02*
X3846967Y-16335079D01*
X3846967Y-16335079D02*
X3856491Y-16316031D01*
X3856491Y-16316031D02*
X3866015Y-16306508D01*
X3866015Y-16306508D02*
X3885062Y-16296984D01*
X4075539Y-16296984D02*
X4094586Y-16296984D01*
X4094586Y-16296984D02*
X4113634Y-16306508D01*
X4113634Y-16306508D02*
X4123158Y-16316031D01*
X4123158Y-16316031D02*
X4132682Y-16335079D01*
X4132682Y-16335079D02*
X4142205Y-16373174D01*
X4142205Y-16373174D02*
X4142205Y-16420793D01*
X4142205Y-16420793D02*
X4132682Y-16458888D01*
X4132682Y-16458888D02*
X4123158Y-16477936D01*
X4123158Y-16477936D02*
X4113634Y-16487460D01*
X4113634Y-16487460D02*
X4094586Y-16496984D01*
X4094586Y-16496984D02*
X4075539Y-16496984D01*
X4075539Y-16496984D02*
X4056491Y-16487460D01*
X4056491Y-16487460D02*
X4046967Y-16477936D01*
X4046967Y-16477936D02*
X4037443Y-16458888D01*
X4037443Y-16458888D02*
X4027920Y-16420793D01*
X4027920Y-16420793D02*
X4027920Y-16373174D01*
X4027920Y-16373174D02*
X4037443Y-16335079D01*
X4037443Y-16335079D02*
X4046967Y-16316031D01*
X4046967Y-16316031D02*
X4056491Y-16306508D01*
X4056491Y-16306508D02*
X4075539Y-16296984D01*
X4227920Y-16496984D02*
X4227920Y-16363650D01*
X4227920Y-16382698D02*
X4237444Y-16373174D01*
X4237444Y-16373174D02*
X4256491Y-16363650D01*
X4256491Y-16363650D02*
X4285063Y-16363650D01*
X4285063Y-16363650D02*
X4304110Y-16373174D01*
X4304110Y-16373174D02*
X4313634Y-16392222D01*
X4313634Y-16392222D02*
X4313634Y-16496984D01*
X4313634Y-16392222D02*
X4323158Y-16373174D01*
X4323158Y-16373174D02*
X4342205Y-16363650D01*
X4342205Y-16363650D02*
X4370777Y-16363650D01*
X4370777Y-16363650D02*
X4389825Y-16373174D01*
X4389825Y-16373174D02*
X4399348Y-16392222D01*
X4399348Y-16392222D02*
X4399348Y-16496984D01*
X4494586Y-16496984D02*
X4494586Y-16363650D01*
X4494586Y-16382698D02*
X4504110Y-16373174D01*
X4504110Y-16373174D02*
X4523158Y-16363650D01*
X4523158Y-16363650D02*
X4551729Y-16363650D01*
X4551729Y-16363650D02*
X4570777Y-16373174D01*
X4570777Y-16373174D02*
X4580301Y-16392222D01*
X4580301Y-16392222D02*
X4580301Y-16496984D01*
X4580301Y-16392222D02*
X4589825Y-16373174D01*
X4589825Y-16373174D02*
X4608872Y-16363650D01*
X4608872Y-16363650D02*
X4637444Y-16363650D01*
X4637444Y-16363650D02*
X4656491Y-16373174D01*
X4656491Y-16373174D02*
X4666015Y-16392222D01*
X4666015Y-16392222D02*
X4666015Y-16496984D01*
X5056491Y-16287460D02*
X4885063Y-16544603D01*
X5313634Y-16296984D02*
X5332682Y-16296984D01*
X5332682Y-16296984D02*
X5351729Y-16306508D01*
X5351729Y-16306508D02*
X5361253Y-16316031D01*
X5361253Y-16316031D02*
X5370777Y-16335079D01*
X5370777Y-16335079D02*
X5380301Y-16373174D01*
X5380301Y-16373174D02*
X5380301Y-16420793D01*
X5380301Y-16420793D02*
X5370777Y-16458888D01*
X5370777Y-16458888D02*
X5361253Y-16477936D01*
X5361253Y-16477936D02*
X5351729Y-16487460D01*
X5351729Y-16487460D02*
X5332682Y-16496984D01*
X5332682Y-16496984D02*
X5313634Y-16496984D01*
X5313634Y-16496984D02*
X5294587Y-16487460D01*
X5294587Y-16487460D02*
X5285063Y-16477936D01*
X5285063Y-16477936D02*
X5275539Y-16458888D01*
X5275539Y-16458888D02*
X5266015Y-16420793D01*
X5266015Y-16420793D02*
X5266015Y-16373174D01*
X5266015Y-16373174D02*
X5275539Y-16335079D01*
X5275539Y-16335079D02*
X5285063Y-16316031D01*
X5285063Y-16316031D02*
X5294587Y-16306508D01*
X5294587Y-16306508D02*
X5313634Y-16296984D01*
X5466015Y-16477936D02*
X5475539Y-16487460D01*
X5475539Y-16487460D02*
X5466015Y-16496984D01*
X5466015Y-16496984D02*
X5456491Y-16487460D01*
X5456491Y-16487460D02*
X5466015Y-16477936D01*
X5466015Y-16477936D02*
X5466015Y-16496984D01*
X5599348Y-16296984D02*
X5618396Y-16296984D01*
X5618396Y-16296984D02*
X5637444Y-16306508D01*
X5637444Y-16306508D02*
X5646967Y-16316031D01*
X5646967Y-16316031D02*
X5656491Y-16335079D01*
X5656491Y-16335079D02*
X5666015Y-16373174D01*
X5666015Y-16373174D02*
X5666015Y-16420793D01*
X5666015Y-16420793D02*
X5656491Y-16458888D01*
X5656491Y-16458888D02*
X5646967Y-16477936D01*
X5646967Y-16477936D02*
X5637444Y-16487460D01*
X5637444Y-16487460D02*
X5618396Y-16496984D01*
X5618396Y-16496984D02*
X5599348Y-16496984D01*
X5599348Y-16496984D02*
X5580301Y-16487460D01*
X5580301Y-16487460D02*
X5570777Y-16477936D01*
X5570777Y-16477936D02*
X5561253Y-16458888D01*
X5561253Y-16458888D02*
X5551729Y-16420793D01*
X5551729Y-16420793D02*
X5551729Y-16373174D01*
X5551729Y-16373174D02*
X5561253Y-16335079D01*
X5561253Y-16335079D02*
X5570777Y-16316031D01*
X5570777Y-16316031D02*
X5580301Y-16306508D01*
X5580301Y-16306508D02*
X5599348Y-16296984D01*
X5846967Y-16296984D02*
X5751729Y-16296984D01*
X5751729Y-16296984D02*
X5742206Y-16392222D01*
X5742206Y-16392222D02*
X5751729Y-16382698D01*
X5751729Y-16382698D02*
X5770777Y-16373174D01*
X5770777Y-16373174D02*
X5818396Y-16373174D01*
X5818396Y-16373174D02*
X5837444Y-16382698D01*
X5837444Y-16382698D02*
X5846967Y-16392222D01*
X5846967Y-16392222D02*
X5856491Y-16411269D01*
X5856491Y-16411269D02*
X5856491Y-16458888D01*
X5856491Y-16458888D02*
X5846967Y-16477936D01*
X5846967Y-16477936D02*
X5837444Y-16487460D01*
X5837444Y-16487460D02*
X5818396Y-16496984D01*
X5818396Y-16496984D02*
X5770777Y-16496984D01*
X5770777Y-16496984D02*
X5751729Y-16487460D01*
X5751729Y-16487460D02*
X5742206Y-16477936D01*
X6046967Y-16496984D02*
X5932682Y-16496984D01*
X5989825Y-16496984D02*
X5989825Y-16296984D01*
X5989825Y-16296984D02*
X5970777Y-16325555D01*
X5970777Y-16325555D02*
X5951729Y-16344603D01*
X5951729Y-16344603D02*
X5932682Y-16354127D01*
X6123158Y-16316031D02*
X6132682Y-16306508D01*
X6132682Y-16306508D02*
X6151729Y-16296984D01*
X6151729Y-16296984D02*
X6199348Y-16296984D01*
X6199348Y-16296984D02*
X6218396Y-16306508D01*
X6218396Y-16306508D02*
X6227920Y-16316031D01*
X6227920Y-16316031D02*
X6237444Y-16335079D01*
X6237444Y-16335079D02*
X6237444Y-16354127D01*
X6237444Y-16354127D02*
X6227920Y-16382698D01*
X6227920Y-16382698D02*
X6113634Y-16496984D01*
X6113634Y-16496984D02*
X6237444Y-16496984D01*
X6313634Y-16296984D02*
X6313634Y-16335079D01*
X6389825Y-16296984D02*
X6389825Y-16335079D01*
X6685063Y-16573174D02*
X6675539Y-16563650D01*
X6675539Y-16563650D02*
X6656491Y-16535079D01*
X6656491Y-16535079D02*
X6646968Y-16516031D01*
X6646968Y-16516031D02*
X6637444Y-16487460D01*
X6637444Y-16487460D02*
X6627920Y-16439841D01*
X6627920Y-16439841D02*
X6627920Y-16401746D01*
X6627920Y-16401746D02*
X6637444Y-16354127D01*
X6637444Y-16354127D02*
X6646968Y-16325555D01*
X6646968Y-16325555D02*
X6656491Y-16306508D01*
X6656491Y-16306508D02*
X6675539Y-16277936D01*
X6675539Y-16277936D02*
X6685063Y-16268412D01*
X6846968Y-16363650D02*
X6846968Y-16496984D01*
X6799348Y-16287460D02*
X6751729Y-16430317D01*
X6751729Y-16430317D02*
X6875539Y-16430317D01*
X7104110Y-16496984D02*
X7104110Y-16296984D01*
X7189825Y-16496984D02*
X7189825Y-16392222D01*
X7189825Y-16392222D02*
X7180301Y-16373174D01*
X7180301Y-16373174D02*
X7161253Y-16363650D01*
X7161253Y-16363650D02*
X7132682Y-16363650D01*
X7132682Y-16363650D02*
X7113634Y-16373174D01*
X7113634Y-16373174D02*
X7104110Y-16382698D01*
X7313634Y-16496984D02*
X7294587Y-16487460D01*
X7294587Y-16487460D02*
X7285063Y-16477936D01*
X7285063Y-16477936D02*
X7275539Y-16458888D01*
X7275539Y-16458888D02*
X7275539Y-16401746D01*
X7275539Y-16401746D02*
X7285063Y-16382698D01*
X7285063Y-16382698D02*
X7294587Y-16373174D01*
X7294587Y-16373174D02*
X7313634Y-16363650D01*
X7313634Y-16363650D02*
X7342206Y-16363650D01*
X7342206Y-16363650D02*
X7361253Y-16373174D01*
X7361253Y-16373174D02*
X7370777Y-16382698D01*
X7370777Y-16382698D02*
X7380301Y-16401746D01*
X7380301Y-16401746D02*
X7380301Y-16458888D01*
X7380301Y-16458888D02*
X7370777Y-16477936D01*
X7370777Y-16477936D02*
X7361253Y-16487460D01*
X7361253Y-16487460D02*
X7342206Y-16496984D01*
X7342206Y-16496984D02*
X7313634Y-16496984D01*
X7494587Y-16496984D02*
X7475539Y-16487460D01*
X7475539Y-16487460D02*
X7466015Y-16468412D01*
X7466015Y-16468412D02*
X7466015Y-16296984D01*
X7646968Y-16487460D02*
X7627920Y-16496984D01*
X7627920Y-16496984D02*
X7589825Y-16496984D01*
X7589825Y-16496984D02*
X7570777Y-16487460D01*
X7570777Y-16487460D02*
X7561253Y-16468412D01*
X7561253Y-16468412D02*
X7561253Y-16392222D01*
X7561253Y-16392222D02*
X7570777Y-16373174D01*
X7570777Y-16373174D02*
X7589825Y-16363650D01*
X7589825Y-16363650D02*
X7627920Y-16363650D01*
X7627920Y-16363650D02*
X7646968Y-16373174D01*
X7646968Y-16373174D02*
X7656491Y-16392222D01*
X7656491Y-16392222D02*
X7656491Y-16411269D01*
X7656491Y-16411269D02*
X7561253Y-16430317D01*
X7732682Y-16487460D02*
X7751730Y-16496984D01*
X7751730Y-16496984D02*
X7789825Y-16496984D01*
X7789825Y-16496984D02*
X7808872Y-16487460D01*
X7808872Y-16487460D02*
X7818396Y-16468412D01*
X7818396Y-16468412D02*
X7818396Y-16458888D01*
X7818396Y-16458888D02*
X7808872Y-16439841D01*
X7808872Y-16439841D02*
X7789825Y-16430317D01*
X7789825Y-16430317D02*
X7761253Y-16430317D01*
X7761253Y-16430317D02*
X7742206Y-16420793D01*
X7742206Y-16420793D02*
X7732682Y-16401746D01*
X7732682Y-16401746D02*
X7732682Y-16392222D01*
X7732682Y-16392222D02*
X7742206Y-16373174D01*
X7742206Y-16373174D02*
X7761253Y-16363650D01*
X7761253Y-16363650D02*
X7789825Y-16363650D01*
X7789825Y-16363650D02*
X7808872Y-16373174D01*
X7885063Y-16573174D02*
X7894587Y-16563650D01*
X7894587Y-16563650D02*
X7913634Y-16535079D01*
X7913634Y-16535079D02*
X7923158Y-16516031D01*
X7923158Y-16516031D02*
X7932682Y-16487460D01*
X7932682Y-16487460D02*
X7942206Y-16439841D01*
X7942206Y-16439841D02*
X7942206Y-16401746D01*
X7942206Y-16401746D02*
X7932682Y-16354127D01*
X7932682Y-16354127D02*
X7923158Y-16325555D01*
X7923158Y-16325555D02*
X7913634Y-16306508D01*
X7913634Y-16306508D02*
X7894587Y-16277936D01*
X7894587Y-16277936D02*
X7885063Y-16268412D01*
D14*
X2970300Y-16599650D02*
X3110000Y-16739350D01*
X3110000Y-16599650D02*
X2970300Y-16739350D01*
X3089542Y-16718892D02*
X3089542Y-16620108D01*
X2990758Y-16620108D01*
X2990758Y-16718892D01*
X3089542Y-16718892D01*
D11*
X3475539Y-16760984D02*
X3361253Y-16760984D01*
X3418396Y-16760984D02*
X3418396Y-16560984D01*
X3418396Y-16560984D02*
X3399348Y-16589555D01*
X3399348Y-16589555D02*
X3380301Y-16608603D01*
X3380301Y-16608603D02*
X3361253Y-16618127D01*
X3561253Y-16741936D02*
X3570777Y-16751460D01*
X3570777Y-16751460D02*
X3561253Y-16760984D01*
X3561253Y-16760984D02*
X3551729Y-16751460D01*
X3551729Y-16751460D02*
X3561253Y-16741936D01*
X3561253Y-16741936D02*
X3561253Y-16760984D01*
X3637443Y-16560984D02*
X3761253Y-16560984D01*
X3761253Y-16560984D02*
X3694586Y-16637174D01*
X3694586Y-16637174D02*
X3723158Y-16637174D01*
X3723158Y-16637174D02*
X3742205Y-16646698D01*
X3742205Y-16646698D02*
X3751729Y-16656222D01*
X3751729Y-16656222D02*
X3761253Y-16675269D01*
X3761253Y-16675269D02*
X3761253Y-16722888D01*
X3761253Y-16722888D02*
X3751729Y-16741936D01*
X3751729Y-16741936D02*
X3742205Y-16751460D01*
X3742205Y-16751460D02*
X3723158Y-16760984D01*
X3723158Y-16760984D02*
X3666015Y-16760984D01*
X3666015Y-16760984D02*
X3646967Y-16751460D01*
X3646967Y-16751460D02*
X3637443Y-16741936D01*
X3856491Y-16760984D02*
X3894586Y-16760984D01*
X3894586Y-16760984D02*
X3913634Y-16751460D01*
X3913634Y-16751460D02*
X3923158Y-16741936D01*
X3923158Y-16741936D02*
X3942205Y-16713365D01*
X3942205Y-16713365D02*
X3951729Y-16675269D01*
X3951729Y-16675269D02*
X3951729Y-16599079D01*
X3951729Y-16599079D02*
X3942205Y-16580031D01*
X3942205Y-16580031D02*
X3932682Y-16570508D01*
X3932682Y-16570508D02*
X3913634Y-16560984D01*
X3913634Y-16560984D02*
X3875539Y-16560984D01*
X3875539Y-16560984D02*
X3856491Y-16570508D01*
X3856491Y-16570508D02*
X3846967Y-16580031D01*
X3846967Y-16580031D02*
X3837443Y-16599079D01*
X3837443Y-16599079D02*
X3837443Y-16646698D01*
X3837443Y-16646698D02*
X3846967Y-16665746D01*
X3846967Y-16665746D02*
X3856491Y-16675269D01*
X3856491Y-16675269D02*
X3875539Y-16684793D01*
X3875539Y-16684793D02*
X3913634Y-16684793D01*
X3913634Y-16684793D02*
X3932682Y-16675269D01*
X3932682Y-16675269D02*
X3942205Y-16665746D01*
X3942205Y-16665746D02*
X3951729Y-16646698D01*
X4018396Y-16560984D02*
X4151729Y-16560984D01*
X4151729Y-16560984D02*
X4066015Y-16760984D01*
X4227920Y-16760984D02*
X4227920Y-16627650D01*
X4227920Y-16646698D02*
X4237444Y-16637174D01*
X4237444Y-16637174D02*
X4256491Y-16627650D01*
X4256491Y-16627650D02*
X4285063Y-16627650D01*
X4285063Y-16627650D02*
X4304110Y-16637174D01*
X4304110Y-16637174D02*
X4313634Y-16656222D01*
X4313634Y-16656222D02*
X4313634Y-16760984D01*
X4313634Y-16656222D02*
X4323158Y-16637174D01*
X4323158Y-16637174D02*
X4342205Y-16627650D01*
X4342205Y-16627650D02*
X4370777Y-16627650D01*
X4370777Y-16627650D02*
X4389825Y-16637174D01*
X4389825Y-16637174D02*
X4399348Y-16656222D01*
X4399348Y-16656222D02*
X4399348Y-16760984D01*
X4494586Y-16760984D02*
X4494586Y-16627650D01*
X4494586Y-16646698D02*
X4504110Y-16637174D01*
X4504110Y-16637174D02*
X4523158Y-16627650D01*
X4523158Y-16627650D02*
X4551729Y-16627650D01*
X4551729Y-16627650D02*
X4570777Y-16637174D01*
X4570777Y-16637174D02*
X4580301Y-16656222D01*
X4580301Y-16656222D02*
X4580301Y-16760984D01*
X4580301Y-16656222D02*
X4589825Y-16637174D01*
X4589825Y-16637174D02*
X4608872Y-16627650D01*
X4608872Y-16627650D02*
X4637444Y-16627650D01*
X4637444Y-16627650D02*
X4656491Y-16637174D01*
X4656491Y-16637174D02*
X4666015Y-16656222D01*
X4666015Y-16656222D02*
X4666015Y-16760984D01*
X5056491Y-16551460D02*
X4885063Y-16808603D01*
X5313634Y-16560984D02*
X5332682Y-16560984D01*
X5332682Y-16560984D02*
X5351729Y-16570508D01*
X5351729Y-16570508D02*
X5361253Y-16580031D01*
X5361253Y-16580031D02*
X5370777Y-16599079D01*
X5370777Y-16599079D02*
X5380301Y-16637174D01*
X5380301Y-16637174D02*
X5380301Y-16684793D01*
X5380301Y-16684793D02*
X5370777Y-16722888D01*
X5370777Y-16722888D02*
X5361253Y-16741936D01*
X5361253Y-16741936D02*
X5351729Y-16751460D01*
X5351729Y-16751460D02*
X5332682Y-16760984D01*
X5332682Y-16760984D02*
X5313634Y-16760984D01*
X5313634Y-16760984D02*
X5294587Y-16751460D01*
X5294587Y-16751460D02*
X5285063Y-16741936D01*
X5285063Y-16741936D02*
X5275539Y-16722888D01*
X5275539Y-16722888D02*
X5266015Y-16684793D01*
X5266015Y-16684793D02*
X5266015Y-16637174D01*
X5266015Y-16637174D02*
X5275539Y-16599079D01*
X5275539Y-16599079D02*
X5285063Y-16580031D01*
X5285063Y-16580031D02*
X5294587Y-16570508D01*
X5294587Y-16570508D02*
X5313634Y-16560984D01*
X5466015Y-16741936D02*
X5475539Y-16751460D01*
X5475539Y-16751460D02*
X5466015Y-16760984D01*
X5466015Y-16760984D02*
X5456491Y-16751460D01*
X5456491Y-16751460D02*
X5466015Y-16741936D01*
X5466015Y-16741936D02*
X5466015Y-16760984D01*
X5599348Y-16560984D02*
X5618396Y-16560984D01*
X5618396Y-16560984D02*
X5637444Y-16570508D01*
X5637444Y-16570508D02*
X5646967Y-16580031D01*
X5646967Y-16580031D02*
X5656491Y-16599079D01*
X5656491Y-16599079D02*
X5666015Y-16637174D01*
X5666015Y-16637174D02*
X5666015Y-16684793D01*
X5666015Y-16684793D02*
X5656491Y-16722888D01*
X5656491Y-16722888D02*
X5646967Y-16741936D01*
X5646967Y-16741936D02*
X5637444Y-16751460D01*
X5637444Y-16751460D02*
X5618396Y-16760984D01*
X5618396Y-16760984D02*
X5599348Y-16760984D01*
X5599348Y-16760984D02*
X5580301Y-16751460D01*
X5580301Y-16751460D02*
X5570777Y-16741936D01*
X5570777Y-16741936D02*
X5561253Y-16722888D01*
X5561253Y-16722888D02*
X5551729Y-16684793D01*
X5551729Y-16684793D02*
X5551729Y-16637174D01*
X5551729Y-16637174D02*
X5561253Y-16599079D01*
X5561253Y-16599079D02*
X5570777Y-16580031D01*
X5570777Y-16580031D02*
X5580301Y-16570508D01*
X5580301Y-16570508D02*
X5599348Y-16560984D01*
X5846967Y-16560984D02*
X5751729Y-16560984D01*
X5751729Y-16560984D02*
X5742206Y-16656222D01*
X5742206Y-16656222D02*
X5751729Y-16646698D01*
X5751729Y-16646698D02*
X5770777Y-16637174D01*
X5770777Y-16637174D02*
X5818396Y-16637174D01*
X5818396Y-16637174D02*
X5837444Y-16646698D01*
X5837444Y-16646698D02*
X5846967Y-16656222D01*
X5846967Y-16656222D02*
X5856491Y-16675269D01*
X5856491Y-16675269D02*
X5856491Y-16722888D01*
X5856491Y-16722888D02*
X5846967Y-16741936D01*
X5846967Y-16741936D02*
X5837444Y-16751460D01*
X5837444Y-16751460D02*
X5818396Y-16760984D01*
X5818396Y-16760984D02*
X5770777Y-16760984D01*
X5770777Y-16760984D02*
X5751729Y-16751460D01*
X5751729Y-16751460D02*
X5742206Y-16741936D01*
X6037444Y-16560984D02*
X5942206Y-16560984D01*
X5942206Y-16560984D02*
X5932682Y-16656222D01*
X5932682Y-16656222D02*
X5942206Y-16646698D01*
X5942206Y-16646698D02*
X5961253Y-16637174D01*
X5961253Y-16637174D02*
X6008872Y-16637174D01*
X6008872Y-16637174D02*
X6027920Y-16646698D01*
X6027920Y-16646698D02*
X6037444Y-16656222D01*
X6037444Y-16656222D02*
X6046967Y-16675269D01*
X6046967Y-16675269D02*
X6046967Y-16722888D01*
X6046967Y-16722888D02*
X6037444Y-16741936D01*
X6037444Y-16741936D02*
X6027920Y-16751460D01*
X6027920Y-16751460D02*
X6008872Y-16760984D01*
X6008872Y-16760984D02*
X5961253Y-16760984D01*
X5961253Y-16760984D02*
X5942206Y-16751460D01*
X5942206Y-16751460D02*
X5932682Y-16741936D01*
X6170777Y-16560984D02*
X6189825Y-16560984D01*
X6189825Y-16560984D02*
X6208872Y-16570508D01*
X6208872Y-16570508D02*
X6218396Y-16580031D01*
X6218396Y-16580031D02*
X6227920Y-16599079D01*
X6227920Y-16599079D02*
X6237444Y-16637174D01*
X6237444Y-16637174D02*
X6237444Y-16684793D01*
X6237444Y-16684793D02*
X6227920Y-16722888D01*
X6227920Y-16722888D02*
X6218396Y-16741936D01*
X6218396Y-16741936D02*
X6208872Y-16751460D01*
X6208872Y-16751460D02*
X6189825Y-16760984D01*
X6189825Y-16760984D02*
X6170777Y-16760984D01*
X6170777Y-16760984D02*
X6151729Y-16751460D01*
X6151729Y-16751460D02*
X6142206Y-16741936D01*
X6142206Y-16741936D02*
X6132682Y-16722888D01*
X6132682Y-16722888D02*
X6123158Y-16684793D01*
X6123158Y-16684793D02*
X6123158Y-16637174D01*
X6123158Y-16637174D02*
X6132682Y-16599079D01*
X6132682Y-16599079D02*
X6142206Y-16580031D01*
X6142206Y-16580031D02*
X6151729Y-16570508D01*
X6151729Y-16570508D02*
X6170777Y-16560984D01*
X6313634Y-16560984D02*
X6313634Y-16599079D01*
X6389825Y-16560984D02*
X6389825Y-16599079D01*
X6685063Y-16837174D02*
X6675539Y-16827650D01*
X6675539Y-16827650D02*
X6656491Y-16799079D01*
X6656491Y-16799079D02*
X6646968Y-16780031D01*
X6646968Y-16780031D02*
X6637444Y-16751460D01*
X6637444Y-16751460D02*
X6627920Y-16703841D01*
X6627920Y-16703841D02*
X6627920Y-16665746D01*
X6627920Y-16665746D02*
X6637444Y-16618127D01*
X6637444Y-16618127D02*
X6646968Y-16589555D01*
X6646968Y-16589555D02*
X6656491Y-16570508D01*
X6656491Y-16570508D02*
X6675539Y-16541936D01*
X6675539Y-16541936D02*
X6685063Y-16532412D01*
X6789825Y-16646698D02*
X6770777Y-16637174D01*
X6770777Y-16637174D02*
X6761253Y-16627650D01*
X6761253Y-16627650D02*
X6751729Y-16608603D01*
X6751729Y-16608603D02*
X6751729Y-16599079D01*
X6751729Y-16599079D02*
X6761253Y-16580031D01*
X6761253Y-16580031D02*
X6770777Y-16570508D01*
X6770777Y-16570508D02*
X6789825Y-16560984D01*
X6789825Y-16560984D02*
X6827920Y-16560984D01*
X6827920Y-16560984D02*
X6846968Y-16570508D01*
X6846968Y-16570508D02*
X6856491Y-16580031D01*
X6856491Y-16580031D02*
X6866015Y-16599079D01*
X6866015Y-16599079D02*
X6866015Y-16608603D01*
X6866015Y-16608603D02*
X6856491Y-16627650D01*
X6856491Y-16627650D02*
X6846968Y-16637174D01*
X6846968Y-16637174D02*
X6827920Y-16646698D01*
X6827920Y-16646698D02*
X6789825Y-16646698D01*
X6789825Y-16646698D02*
X6770777Y-16656222D01*
X6770777Y-16656222D02*
X6761253Y-16665746D01*
X6761253Y-16665746D02*
X6751729Y-16684793D01*
X6751729Y-16684793D02*
X6751729Y-16722888D01*
X6751729Y-16722888D02*
X6761253Y-16741936D01*
X6761253Y-16741936D02*
X6770777Y-16751460D01*
X6770777Y-16751460D02*
X6789825Y-16760984D01*
X6789825Y-16760984D02*
X6827920Y-16760984D01*
X6827920Y-16760984D02*
X6846968Y-16751460D01*
X6846968Y-16751460D02*
X6856491Y-16741936D01*
X6856491Y-16741936D02*
X6866015Y-16722888D01*
X6866015Y-16722888D02*
X6866015Y-16684793D01*
X6866015Y-16684793D02*
X6856491Y-16665746D01*
X6856491Y-16665746D02*
X6846968Y-16656222D01*
X6846968Y-16656222D02*
X6827920Y-16646698D01*
X7104110Y-16760984D02*
X7104110Y-16560984D01*
X7189825Y-16760984D02*
X7189825Y-16656222D01*
X7189825Y-16656222D02*
X7180301Y-16637174D01*
X7180301Y-16637174D02*
X7161253Y-16627650D01*
X7161253Y-16627650D02*
X7132682Y-16627650D01*
X7132682Y-16627650D02*
X7113634Y-16637174D01*
X7113634Y-16637174D02*
X7104110Y-16646698D01*
X7313634Y-16760984D02*
X7294587Y-16751460D01*
X7294587Y-16751460D02*
X7285063Y-16741936D01*
X7285063Y-16741936D02*
X7275539Y-16722888D01*
X7275539Y-16722888D02*
X7275539Y-16665746D01*
X7275539Y-16665746D02*
X7285063Y-16646698D01*
X7285063Y-16646698D02*
X7294587Y-16637174D01*
X7294587Y-16637174D02*
X7313634Y-16627650D01*
X7313634Y-16627650D02*
X7342206Y-16627650D01*
X7342206Y-16627650D02*
X7361253Y-16637174D01*
X7361253Y-16637174D02*
X7370777Y-16646698D01*
X7370777Y-16646698D02*
X7380301Y-16665746D01*
X7380301Y-16665746D02*
X7380301Y-16722888D01*
X7380301Y-16722888D02*
X7370777Y-16741936D01*
X7370777Y-16741936D02*
X7361253Y-16751460D01*
X7361253Y-16751460D02*
X7342206Y-16760984D01*
X7342206Y-16760984D02*
X7313634Y-16760984D01*
X7494587Y-16760984D02*
X7475539Y-16751460D01*
X7475539Y-16751460D02*
X7466015Y-16732412D01*
X7466015Y-16732412D02*
X7466015Y-16560984D01*
X7646968Y-16751460D02*
X7627920Y-16760984D01*
X7627920Y-16760984D02*
X7589825Y-16760984D01*
X7589825Y-16760984D02*
X7570777Y-16751460D01*
X7570777Y-16751460D02*
X7561253Y-16732412D01*
X7561253Y-16732412D02*
X7561253Y-16656222D01*
X7561253Y-16656222D02*
X7570777Y-16637174D01*
X7570777Y-16637174D02*
X7589825Y-16627650D01*
X7589825Y-16627650D02*
X7627920Y-16627650D01*
X7627920Y-16627650D02*
X7646968Y-16637174D01*
X7646968Y-16637174D02*
X7656491Y-16656222D01*
X7656491Y-16656222D02*
X7656491Y-16675269D01*
X7656491Y-16675269D02*
X7561253Y-16694317D01*
X7732682Y-16751460D02*
X7751730Y-16760984D01*
X7751730Y-16760984D02*
X7789825Y-16760984D01*
X7789825Y-16760984D02*
X7808872Y-16751460D01*
X7808872Y-16751460D02*
X7818396Y-16732412D01*
X7818396Y-16732412D02*
X7818396Y-16722888D01*
X7818396Y-16722888D02*
X7808872Y-16703841D01*
X7808872Y-16703841D02*
X7789825Y-16694317D01*
X7789825Y-16694317D02*
X7761253Y-16694317D01*
X7761253Y-16694317D02*
X7742206Y-16684793D01*
X7742206Y-16684793D02*
X7732682Y-16665746D01*
X7732682Y-16665746D02*
X7732682Y-16656222D01*
X7732682Y-16656222D02*
X7742206Y-16637174D01*
X7742206Y-16637174D02*
X7761253Y-16627650D01*
X7761253Y-16627650D02*
X7789825Y-16627650D01*
X7789825Y-16627650D02*
X7808872Y-16637174D01*
X7885063Y-16837174D02*
X7894587Y-16827650D01*
X7894587Y-16827650D02*
X7913634Y-16799079D01*
X7913634Y-16799079D02*
X7923158Y-16780031D01*
X7923158Y-16780031D02*
X7932682Y-16751460D01*
X7932682Y-16751460D02*
X7942206Y-16703841D01*
X7942206Y-16703841D02*
X7942206Y-16665746D01*
X7942206Y-16665746D02*
X7932682Y-16618127D01*
X7932682Y-16618127D02*
X7923158Y-16589555D01*
X7923158Y-16589555D02*
X7913634Y-16570508D01*
X7913634Y-16570508D02*
X7894587Y-16541936D01*
X7894587Y-16541936D02*
X7885063Y-16532412D01*
M02*
