%TF.GenerationSoftware,KiCad,Pcbnew,8.0.6*%
%TF.CreationDate,2025-02-26T11:59:32+01:00*%
%TF.ProjectId,CONTROL WIFI ESP32 S3 V4.0,434f4e54-524f-44c2-9057-494649204553,rev?*%
%TF.SameCoordinates,Original*%
%TF.FileFunction,Copper,L3,Inr*%
%TF.FilePolarity,Positive*%
%FSLAX46Y46*%
G04 Gerber Fmt 4.6, Leading zero omitted, Abs format (unit mm)*
G04 Created by KiCad (PCBNEW 8.0.6) date 2025-02-26 11:59:32*
%MOMM*%
%LPD*%
G01*
G04 APERTURE LIST*
G04 Aperture macros list*
%AMRoundRect*
0 Rectangle with rounded corners*
0 $1 Rounding radius*
0 $2 $3 $4 $5 $6 $7 $8 $9 X,Y pos of 4 corners*
0 Add a 4 corners polygon primitive as box body*
4,1,4,$2,$3,$4,$5,$6,$7,$8,$9,$2,$3,0*
0 Add four circle primitives for the rounded corners*
1,1,$1+$1,$2,$3*
1,1,$1+$1,$4,$5*
1,1,$1+$1,$6,$7*
1,1,$1+$1,$8,$9*
0 Add four rect primitives between the rounded corners*
20,1,$1+$1,$2,$3,$4,$5,0*
20,1,$1+$1,$4,$5,$6,$7,0*
20,1,$1+$1,$6,$7,$8,$9,0*
20,1,$1+$1,$8,$9,$2,$3,0*%
G04 Aperture macros list end*
%TA.AperFunction,ComponentPad*%
%ADD10R,1.268000X1.268000*%
%TD*%
%TA.AperFunction,ComponentPad*%
%ADD11C,1.268000*%
%TD*%
%TA.AperFunction,ComponentPad*%
%ADD12C,1.778000*%
%TD*%
%TA.AperFunction,ComponentPad*%
%ADD13C,2.286000*%
%TD*%
%TA.AperFunction,ComponentPad*%
%ADD14C,2.100000*%
%TD*%
%TA.AperFunction,ComponentPad*%
%ADD15C,1.750000*%
%TD*%
%TA.AperFunction,ComponentPad*%
%ADD16RoundRect,0.250001X-0.499999X-0.759999X0.499999X-0.759999X0.499999X0.759999X-0.499999X0.759999X0*%
%TD*%
%TA.AperFunction,ComponentPad*%
%ADD17O,1.500000X2.020000*%
%TD*%
%TA.AperFunction,ViaPad*%
%ADD18C,0.800000*%
%TD*%
G04 APERTURE END LIST*
D10*
%TO.N,+3.3V*%
%TO.C,POT1*%
X97950000Y-135500000D03*
D11*
%TO.N,IO5*%
X100490000Y-135500000D03*
%TO.N,GND*%
X103030000Y-135500000D03*
%TD*%
D12*
%TO.N,IO37*%
%TO.C,U4*%
X100575000Y-92300000D03*
%TO.N,N/C*%
X106925000Y-92300000D03*
%TO.N,GND*%
X100575000Y-97380000D03*
%TO.N,N/C*%
X106925000Y-97380000D03*
%TO.N,+3.3V*%
X101210000Y-115160000D03*
%TO.N,IO38*%
X103750000Y-115160000D03*
%TO.N,GND*%
X106290000Y-115160000D03*
D13*
%TO.N,unconnected-(U4-SHIELD-PadS1)_2*%
X96130000Y-98332500D03*
%TO.N,unconnected-(U4-SHIELD-PadS1)_3*%
X96130000Y-111667500D03*
%TO.N,unconnected-(U4-SHIELD-PadS1)*%
X111370000Y-111667500D03*
%TO.N,unconnected-(U4-SHIELD-PadS1)_1*%
X111370000Y-98332500D03*
D12*
%TO.N,+3.3V*%
X93590000Y-102460000D03*
%TO.N,IO40*%
X93590000Y-105000000D03*
%TO.N,GND*%
X93590000Y-107540000D03*
%TD*%
D14*
%TO.N,*%
%TO.C,SW3*%
X36625000Y-86217500D03*
X43635000Y-86217500D03*
D15*
%TO.N,IO13*%
X37875000Y-83727500D03*
%TO.N,GND*%
X42375000Y-83727500D03*
%TD*%
D16*
%TO.N,GND*%
%TO.C,J2*%
X77200000Y-139200000D03*
D17*
%TO.N,VIN*%
X80200000Y-139200000D03*
%TD*%
D12*
%TO.N,IO8*%
%TO.C,U5*%
X45575000Y-92300000D03*
%TO.N,N/C*%
X51925000Y-92300000D03*
%TO.N,GND*%
X45575000Y-97380000D03*
%TO.N,N/C*%
X51925000Y-97380000D03*
%TO.N,+3.3V*%
X46210000Y-115160000D03*
%TO.N,IO17*%
X48750000Y-115160000D03*
%TO.N,GND*%
X51290000Y-115160000D03*
D13*
%TO.N,unconnected-(U5-SHIELD-PadS1)_2*%
X41130000Y-98332500D03*
%TO.N,unconnected-(U5-SHIELD-PadS1)*%
X41130000Y-111667500D03*
%TO.N,unconnected-(U5-SHIELD-PadS1)_1*%
X56370000Y-111667500D03*
%TO.N,unconnected-(U5-SHIELD-PadS1)_3*%
X56370000Y-98332500D03*
D12*
%TO.N,+3.3V*%
X38590000Y-102460000D03*
%TO.N,IO18*%
X38590000Y-105000000D03*
%TO.N,GND*%
X38590000Y-107540000D03*
%TD*%
D14*
%TO.N,*%
%TO.C,SW2*%
X108475000Y-85452500D03*
X115485000Y-85452500D03*
D15*
%TO.N,IO15*%
X109725000Y-82962500D03*
%TO.N,GND*%
X114225000Y-82962500D03*
%TD*%
D10*
%TO.N,+3.3V*%
%TO.C,POT2*%
X87760000Y-135500000D03*
D11*
%TO.N,IO6*%
X90300000Y-135500000D03*
%TO.N,GND*%
X92840000Y-135500000D03*
%TD*%
D18*
%TO.N,GND*%
X66200000Y-82500000D03*
X81200000Y-82800000D03*
X62986500Y-124950000D03*
X80500000Y-107000000D03*
X67000000Y-128650000D03*
X67050000Y-125700000D03*
X77400000Y-122700000D03*
X70000000Y-124200000D03*
X75400000Y-90450000D03*
X66850000Y-121500000D03*
X83600000Y-108550000D03*
X77400000Y-112050000D03*
X74350000Y-128350000D03*
%TO.N,BT*%
X56500000Y-122550000D03*
X86175000Y-109950000D03*
%TO.N,+3.3V*%
X64650000Y-124800000D03*
X95500000Y-85100000D03*
X68200000Y-118650000D03*
X102400000Y-83800000D03*
X40250000Y-89300000D03*
X100150000Y-89300000D03*
X60800000Y-85600000D03*
X83650000Y-106950000D03*
X56600000Y-117850000D03*
X52100000Y-122300000D03*
X101800000Y-121900000D03*
X60800000Y-97600000D03*
X66400000Y-84050000D03*
X81150000Y-130700000D03*
%TO.N,EN*%
X74150000Y-99450000D03*
X73826545Y-98076545D03*
X60050000Y-117500000D03*
X81000000Y-84200000D03*
%TO.N,RX*%
X75650000Y-97850000D03*
X75401545Y-96501545D03*
X60100000Y-122436500D03*
X81000000Y-88750000D03*
%TO.N,TX*%
X60212185Y-121539183D03*
X74600000Y-97200000D03*
X74800000Y-98700000D03*
X87750000Y-86800000D03*
%TO.N,GND*%
X95500000Y-86450000D03*
%TO.N,IO15*%
X68300000Y-104400000D03*
%TO.N,+5V*%
X66000000Y-126400000D03*
X69350000Y-126350000D03*
%TO.N,IO5*%
X79850000Y-110700000D03*
%TO.N,IO6*%
X76750000Y-115863500D03*
X76650000Y-114500000D03*
%TO.N,Net-(Q1A-E1)*%
X56600000Y-119250000D03*
X60052000Y-118552000D03*
%TO.N,IO40*%
X83600000Y-94900000D03*
%TO.N,IO38*%
X83700000Y-97700000D03*
%TO.N,IO37*%
X83750000Y-99250000D03*
%TD*%
%TA.AperFunction,Conductor*%
%TO.N,+3.3V*%
G36*
X66131272Y-81784685D02*
G01*
X66177027Y-81837489D01*
X66186971Y-81906647D01*
X66157946Y-81970203D01*
X66099168Y-82007977D01*
X66099167Y-82007977D01*
X65989949Y-82040045D01*
X65868873Y-82117856D01*
X65774623Y-82226626D01*
X65774622Y-82226628D01*
X65714834Y-82357543D01*
X65694353Y-82500000D01*
X65714834Y-82642456D01*
X65774622Y-82773371D01*
X65774623Y-82773373D01*
X65868872Y-82882143D01*
X65989947Y-82959953D01*
X65989950Y-82959954D01*
X65989949Y-82959954D01*
X66128036Y-83000499D01*
X66128038Y-83000500D01*
X66128039Y-83000500D01*
X66271962Y-83000500D01*
X66271962Y-83000499D01*
X66410053Y-82959953D01*
X66531128Y-82882143D01*
X66602305Y-82800000D01*
X80694353Y-82800000D01*
X80714834Y-82942456D01*
X80756815Y-83034379D01*
X80774623Y-83073373D01*
X80868872Y-83182143D01*
X80989947Y-83259953D01*
X80989950Y-83259954D01*
X80989949Y-83259954D01*
X81128036Y-83300499D01*
X81128038Y-83300500D01*
X81128039Y-83300500D01*
X81271962Y-83300500D01*
X81271962Y-83300499D01*
X81410053Y-83259953D01*
X81531128Y-83182143D01*
X81625377Y-83073373D01*
X81685165Y-82942457D01*
X81705647Y-82800000D01*
X81685165Y-82657543D01*
X81625377Y-82526627D01*
X81531128Y-82417857D01*
X81410053Y-82340047D01*
X81410051Y-82340046D01*
X81410049Y-82340045D01*
X81410050Y-82340045D01*
X81271963Y-82299500D01*
X81271961Y-82299500D01*
X81128039Y-82299500D01*
X81128036Y-82299500D01*
X80989949Y-82340045D01*
X80868873Y-82417856D01*
X80774623Y-82526626D01*
X80774622Y-82526628D01*
X80714834Y-82657543D01*
X80694353Y-82800000D01*
X66602305Y-82800000D01*
X66625377Y-82773373D01*
X66685165Y-82642457D01*
X66705647Y-82500000D01*
X66685165Y-82357543D01*
X66625377Y-82226627D01*
X66531128Y-82117857D01*
X66410053Y-82040047D01*
X66410051Y-82040046D01*
X66410049Y-82040045D01*
X66410050Y-82040045D01*
X66300833Y-82007977D01*
X66242054Y-81970203D01*
X66213029Y-81906648D01*
X66222972Y-81837489D01*
X66268727Y-81784685D01*
X66335766Y-81765000D01*
X109476195Y-81765000D01*
X109543234Y-81784685D01*
X109588989Y-81837489D01*
X109598933Y-81906647D01*
X109569908Y-81970203D01*
X109512190Y-82007661D01*
X109349881Y-82056896D01*
X109180424Y-82147473D01*
X109180417Y-82147477D01*
X109031879Y-82269379D01*
X108909977Y-82417917D01*
X108909973Y-82417924D01*
X108819396Y-82587381D01*
X108763614Y-82771270D01*
X108744780Y-82962500D01*
X108763614Y-83153729D01*
X108819396Y-83337618D01*
X108909973Y-83507075D01*
X108909977Y-83507082D01*
X109031879Y-83655620D01*
X109180417Y-83777522D01*
X109180424Y-83777526D01*
X109349881Y-83868103D01*
X109349883Y-83868103D01*
X109349886Y-83868105D01*
X109533769Y-83923885D01*
X109533768Y-83923885D01*
X109550914Y-83925573D01*
X109725000Y-83942720D01*
X109916231Y-83923885D01*
X110100114Y-83868105D01*
X110269581Y-83777523D01*
X110418120Y-83655620D01*
X110540023Y-83507081D01*
X110630605Y-83337614D01*
X110686385Y-83153731D01*
X110705220Y-82962500D01*
X110686385Y-82771269D01*
X110630605Y-82587386D01*
X110630603Y-82587383D01*
X110630603Y-82587381D01*
X110540026Y-82417924D01*
X110540022Y-82417917D01*
X110418120Y-82269379D01*
X110269582Y-82147477D01*
X110269575Y-82147473D01*
X110100118Y-82056896D01*
X109937810Y-82007661D01*
X109879371Y-81969363D01*
X109850915Y-81905551D01*
X109861475Y-81836484D01*
X109907699Y-81784090D01*
X109973805Y-81765000D01*
X113976195Y-81765000D01*
X114043234Y-81784685D01*
X114088989Y-81837489D01*
X114098933Y-81906647D01*
X114069908Y-81970203D01*
X114012190Y-82007661D01*
X113849881Y-82056896D01*
X113680424Y-82147473D01*
X113680417Y-82147477D01*
X113531879Y-82269379D01*
X113409977Y-82417917D01*
X113409973Y-82417924D01*
X113319396Y-82587381D01*
X113263614Y-82771270D01*
X113244780Y-82962500D01*
X113263614Y-83153729D01*
X113319396Y-83337618D01*
X113409973Y-83507075D01*
X113409977Y-83507082D01*
X113531879Y-83655620D01*
X113680417Y-83777522D01*
X113680424Y-83777526D01*
X113849881Y-83868103D01*
X113849883Y-83868103D01*
X113849886Y-83868105D01*
X114033769Y-83923885D01*
X114033768Y-83923885D01*
X114050914Y-83925573D01*
X114225000Y-83942720D01*
X114416231Y-83923885D01*
X114600114Y-83868105D01*
X114769581Y-83777523D01*
X114918120Y-83655620D01*
X115040023Y-83507081D01*
X115130605Y-83337614D01*
X115186385Y-83153731D01*
X115205220Y-82962500D01*
X115186385Y-82771269D01*
X115130605Y-82587386D01*
X115130603Y-82587383D01*
X115130603Y-82587381D01*
X115040026Y-82417924D01*
X115040022Y-82417917D01*
X114918120Y-82269379D01*
X114769582Y-82147477D01*
X114769575Y-82147473D01*
X114600118Y-82056896D01*
X114437810Y-82007661D01*
X114379371Y-81969363D01*
X114350915Y-81905551D01*
X114361475Y-81836484D01*
X114407699Y-81784090D01*
X114473805Y-81765000D01*
X117149213Y-81765000D01*
X117150733Y-81765008D01*
X117341077Y-81767343D01*
X117351681Y-81767930D01*
X117731224Y-81805312D01*
X117743249Y-81807096D01*
X118116527Y-81881345D01*
X118128327Y-81884300D01*
X118408739Y-81969363D01*
X118492544Y-81994785D01*
X118504002Y-81998885D01*
X118855627Y-82144532D01*
X118866626Y-82149734D01*
X119202282Y-82329147D01*
X119212708Y-82335396D01*
X119336118Y-82417856D01*
X119529169Y-82546849D01*
X119538942Y-82554097D01*
X119833148Y-82795544D01*
X119842165Y-82803717D01*
X120111282Y-83072834D01*
X120119455Y-83081851D01*
X120360902Y-83376057D01*
X120368150Y-83385830D01*
X120579600Y-83702286D01*
X120585856Y-83712724D01*
X120765264Y-84048372D01*
X120770467Y-84059372D01*
X120916114Y-84410997D01*
X120920214Y-84422455D01*
X121030698Y-84786670D01*
X121033654Y-84798474D01*
X121107902Y-85171744D01*
X121109688Y-85183781D01*
X121147068Y-85563304D01*
X121147656Y-85573937D01*
X121149991Y-85764266D01*
X121150000Y-85765787D01*
X121150000Y-121764661D01*
X121149998Y-121765357D01*
X121147496Y-122211385D01*
X121147373Y-122216252D01*
X121107335Y-123107762D01*
X121106961Y-123113314D01*
X121026996Y-124001798D01*
X121026373Y-124007328D01*
X120906626Y-124891336D01*
X120905755Y-124896832D01*
X120746473Y-125774549D01*
X120745357Y-125780001D01*
X120546850Y-126649716D01*
X120545490Y-126655112D01*
X120308169Y-127515023D01*
X120306569Y-127520352D01*
X120030904Y-128368763D01*
X120029066Y-128374016D01*
X119715610Y-129209216D01*
X119713538Y-129214380D01*
X119362942Y-130034642D01*
X119360641Y-130039709D01*
X118973583Y-130843441D01*
X118971057Y-130848399D01*
X118548334Y-131633950D01*
X118545588Y-131638790D01*
X118088034Y-132404606D01*
X118085073Y-132409317D01*
X117593643Y-133153803D01*
X117590474Y-133158377D01*
X117066136Y-133880068D01*
X117062765Y-133884496D01*
X116506559Y-134581954D01*
X116502993Y-134586225D01*
X115916069Y-135258015D01*
X115912314Y-135262123D01*
X115295838Y-135906904D01*
X115291904Y-135910838D01*
X114647123Y-136527314D01*
X114643015Y-136531069D01*
X113971225Y-137117993D01*
X113966954Y-137121559D01*
X113269496Y-137677765D01*
X113265068Y-137681136D01*
X112543377Y-138205474D01*
X112538803Y-138208643D01*
X111794317Y-138700073D01*
X111789606Y-138703034D01*
X111023790Y-139160588D01*
X111018950Y-139163334D01*
X110233399Y-139586057D01*
X110228441Y-139588583D01*
X109424709Y-139975641D01*
X109419642Y-139977942D01*
X108599380Y-140328538D01*
X108594216Y-140330610D01*
X107759016Y-140644066D01*
X107753763Y-140645904D01*
X106905352Y-140921569D01*
X106900023Y-140923169D01*
X106040112Y-141160490D01*
X106034716Y-141161850D01*
X105165001Y-141360357D01*
X105159549Y-141361473D01*
X104281832Y-141520755D01*
X104276336Y-141521626D01*
X103392328Y-141641373D01*
X103386798Y-141641996D01*
X102498314Y-141721961D01*
X102492762Y-141722335D01*
X101601252Y-141762373D01*
X101596385Y-141762496D01*
X101155615Y-141764968D01*
X101150355Y-141764998D01*
X101149662Y-141765000D01*
X51150338Y-141765000D01*
X51149644Y-141764998D01*
X51144338Y-141764968D01*
X50703614Y-141762496D01*
X50698747Y-141762373D01*
X49807237Y-141722335D01*
X49801685Y-141721961D01*
X48913201Y-141641996D01*
X48907671Y-141641373D01*
X48023663Y-141521626D01*
X48018167Y-141520755D01*
X47140450Y-141361473D01*
X47134998Y-141360357D01*
X46265283Y-141161850D01*
X46259887Y-141160490D01*
X45399976Y-140923169D01*
X45394647Y-140921569D01*
X44546236Y-140645904D01*
X44540983Y-140644066D01*
X43705783Y-140330610D01*
X43700619Y-140328538D01*
X42880357Y-139977942D01*
X42875290Y-139975641D01*
X42071558Y-139588583D01*
X42066600Y-139586057D01*
X41281049Y-139163334D01*
X41276209Y-139160588D01*
X40510393Y-138703034D01*
X40505682Y-138700073D01*
X40061301Y-138406740D01*
X76349500Y-138406740D01*
X76349500Y-139993257D01*
X76359427Y-140061393D01*
X76410802Y-140166484D01*
X76493515Y-140249197D01*
X76493516Y-140249197D01*
X76493517Y-140249198D01*
X76598608Y-140300573D01*
X76598610Y-140300573D01*
X76598612Y-140300574D01*
X76620965Y-140303830D01*
X76666741Y-140310500D01*
X77733258Y-140310499D01*
X77801392Y-140300573D01*
X77906483Y-140249198D01*
X77989198Y-140166483D01*
X78040573Y-140061392D01*
X78050500Y-139993259D01*
X78050499Y-138856228D01*
X79349500Y-138856228D01*
X79349500Y-139543771D01*
X79382182Y-139708074D01*
X79382184Y-139708082D01*
X79446295Y-139862860D01*
X79539373Y-140002162D01*
X79657837Y-140120626D01*
X79726469Y-140166484D01*
X79797137Y-140213703D01*
X79951918Y-140277816D01*
X80116228Y-140310499D01*
X80116232Y-140310500D01*
X80116233Y-140310500D01*
X80283768Y-140310500D01*
X80283769Y-140310499D01*
X80448082Y-140277816D01*
X80602863Y-140213703D01*
X80742162Y-140120626D01*
X80860626Y-140002162D01*
X80953703Y-139862863D01*
X81017816Y-139708082D01*
X81050500Y-139543767D01*
X81050500Y-138856233D01*
X81017816Y-138691918D01*
X80953703Y-138537137D01*
X80922537Y-138490494D01*
X80860626Y-138397837D01*
X80742162Y-138279373D01*
X80602860Y-138186295D01*
X80448082Y-138122184D01*
X80448074Y-138122182D01*
X80283771Y-138089500D01*
X80283767Y-138089500D01*
X80116233Y-138089500D01*
X80116228Y-138089500D01*
X79951925Y-138122182D01*
X79951917Y-138122184D01*
X79797139Y-138186295D01*
X79657837Y-138279373D01*
X79539373Y-138397837D01*
X79446295Y-138537139D01*
X79382184Y-138691917D01*
X79382182Y-138691925D01*
X79349500Y-138856228D01*
X78050499Y-138856228D01*
X78050499Y-138406742D01*
X78040573Y-138338608D01*
X77989198Y-138233517D01*
X77989197Y-138233516D01*
X77989197Y-138233515D01*
X77906484Y-138150802D01*
X77847939Y-138122182D01*
X77801392Y-138099427D01*
X77801390Y-138099426D01*
X77801387Y-138099425D01*
X77733259Y-138089500D01*
X76666742Y-138089500D01*
X76598606Y-138099427D01*
X76493515Y-138150802D01*
X76410802Y-138233515D01*
X76359428Y-138338606D01*
X76359425Y-138338612D01*
X76349500Y-138406740D01*
X40061301Y-138406740D01*
X39761196Y-138208643D01*
X39756622Y-138205474D01*
X39374454Y-137927813D01*
X39034917Y-137681125D01*
X39030517Y-137677775D01*
X38372196Y-137152781D01*
X73314500Y-137152781D01*
X73314500Y-137327218D01*
X73348527Y-137498283D01*
X73348529Y-137498291D01*
X73415278Y-137659439D01*
X73415283Y-137659448D01*
X73512186Y-137804473D01*
X73512189Y-137804477D01*
X73635522Y-137927810D01*
X73635526Y-137927813D01*
X73780551Y-138024716D01*
X73780557Y-138024719D01*
X73780558Y-138024720D01*
X73941709Y-138091471D01*
X74096105Y-138122182D01*
X74112781Y-138125499D01*
X74112785Y-138125500D01*
X74112786Y-138125500D01*
X74287215Y-138125500D01*
X74287216Y-138125499D01*
X74458291Y-138091471D01*
X74619442Y-138024720D01*
X74764474Y-137927813D01*
X74887813Y-137804474D01*
X74984720Y-137659442D01*
X75051471Y-137498291D01*
X75085500Y-137327214D01*
X75085500Y-137152786D01*
X75085499Y-137152781D01*
X82314500Y-137152781D01*
X82314500Y-137327218D01*
X82348527Y-137498283D01*
X82348529Y-137498291D01*
X82415278Y-137659439D01*
X82415283Y-137659448D01*
X82512186Y-137804473D01*
X82512189Y-137804477D01*
X82635522Y-137927810D01*
X82635526Y-137927813D01*
X82780551Y-138024716D01*
X82780557Y-138024719D01*
X82780558Y-138024720D01*
X82941709Y-138091471D01*
X83096105Y-138122182D01*
X83112781Y-138125499D01*
X83112785Y-138125500D01*
X83112786Y-138125500D01*
X83287215Y-138125500D01*
X83287216Y-138125499D01*
X83458291Y-138091471D01*
X83619442Y-138024720D01*
X83764474Y-137927813D01*
X83887813Y-137804474D01*
X83984720Y-137659442D01*
X84051471Y-137498291D01*
X84085500Y-137327214D01*
X84085500Y-137152786D01*
X84051471Y-136981709D01*
X83984720Y-136820558D01*
X83984719Y-136820557D01*
X83984716Y-136820551D01*
X83887813Y-136675526D01*
X83887810Y-136675522D01*
X83764477Y-136552189D01*
X83764473Y-136552186D01*
X83619448Y-136455283D01*
X83619439Y-136455278D01*
X83458291Y-136388529D01*
X83458283Y-136388527D01*
X83287218Y-136354500D01*
X83287214Y-136354500D01*
X83112786Y-136354500D01*
X83112781Y-136354500D01*
X82941716Y-136388527D01*
X82941708Y-136388529D01*
X82780560Y-136455278D01*
X82780551Y-136455283D01*
X82635526Y-136552186D01*
X82635522Y-136552189D01*
X82512189Y-136675522D01*
X82512186Y-136675526D01*
X82415283Y-136820551D01*
X82415278Y-136820560D01*
X82348529Y-136981708D01*
X82348527Y-136981716D01*
X82314500Y-137152781D01*
X75085499Y-137152781D01*
X75051471Y-136981709D01*
X74984720Y-136820558D01*
X74984719Y-136820557D01*
X74984716Y-136820551D01*
X74887813Y-136675526D01*
X74887810Y-136675522D01*
X74764477Y-136552189D01*
X74764473Y-136552186D01*
X74619448Y-136455283D01*
X74619439Y-136455278D01*
X74458291Y-136388529D01*
X74458283Y-136388527D01*
X74287218Y-136354500D01*
X74287214Y-136354500D01*
X74112786Y-136354500D01*
X74112781Y-136354500D01*
X73941716Y-136388527D01*
X73941708Y-136388529D01*
X73780560Y-136455278D01*
X73780551Y-136455283D01*
X73635526Y-136552186D01*
X73635522Y-136552189D01*
X73512189Y-136675522D01*
X73512186Y-136675526D01*
X73415283Y-136820551D01*
X73415278Y-136820560D01*
X73348529Y-136981708D01*
X73348527Y-136981716D01*
X73314500Y-137152781D01*
X38372196Y-137152781D01*
X38333045Y-137121559D01*
X38328774Y-137117993D01*
X37681158Y-136552189D01*
X37656970Y-136531057D01*
X37652889Y-136527326D01*
X37225934Y-136119114D01*
X37008095Y-135910838D01*
X37004161Y-135906904D01*
X36752793Y-135643995D01*
X61899499Y-135643995D01*
X61926418Y-135779322D01*
X61926421Y-135779332D01*
X61979221Y-135906804D01*
X61979228Y-135906817D01*
X62055885Y-136021541D01*
X62055888Y-136021545D01*
X62153454Y-136119111D01*
X62153458Y-136119114D01*
X62268182Y-136195771D01*
X62268195Y-136195778D01*
X62372901Y-136239148D01*
X62395672Y-136248580D01*
X62395676Y-136248580D01*
X62395677Y-136248581D01*
X62531004Y-136275500D01*
X62531007Y-136275500D01*
X62668995Y-136275500D01*
X62760041Y-136257389D01*
X62804328Y-136248580D01*
X62931811Y-136195775D01*
X63046542Y-136119114D01*
X63144114Y-136021542D01*
X63220775Y-135906811D01*
X63273580Y-135779328D01*
X63296426Y-135664476D01*
X63300500Y-135643995D01*
X66299499Y-135643995D01*
X66326418Y-135779322D01*
X66326421Y-135779332D01*
X66379221Y-135906804D01*
X66379228Y-135906817D01*
X66455885Y-136021541D01*
X66455888Y-136021545D01*
X66553454Y-136119111D01*
X66553458Y-136119114D01*
X66668182Y-136195771D01*
X66668195Y-136195778D01*
X66772901Y-136239148D01*
X66795672Y-136248580D01*
X66795676Y-136248580D01*
X66795677Y-136248581D01*
X66931004Y-136275500D01*
X66931007Y-136275500D01*
X67068995Y-136275500D01*
X67160041Y-136257389D01*
X67204328Y-136248580D01*
X67331811Y-136195775D01*
X67446542Y-136119114D01*
X67544114Y-136021542D01*
X67620775Y-135906811D01*
X67673580Y-135779328D01*
X67696426Y-135664476D01*
X67700500Y-135643995D01*
X67700500Y-135506004D01*
X67699305Y-135499996D01*
X89560852Y-135499996D01*
X89560852Y-135500003D01*
X89579382Y-135664472D01*
X89634050Y-135820703D01*
X89634051Y-135820704D01*
X89722111Y-135960851D01*
X89839149Y-136077889D01*
X89979293Y-136165947D01*
X89979296Y-136165949D01*
X90135527Y-136220617D01*
X90299996Y-136239148D01*
X90300000Y-136239148D01*
X90300004Y-136239148D01*
X90464472Y-136220617D01*
X90464474Y-136220616D01*
X90464476Y-136220616D01*
X90620704Y-136165949D01*
X90760851Y-136077889D01*
X90877889Y-135960851D01*
X90965949Y-135820704D01*
X91020616Y-135664476D01*
X91020616Y-135664474D01*
X91020617Y-135664472D01*
X91039148Y-135500003D01*
X91039148Y-135499996D01*
X92100852Y-135499996D01*
X92100852Y-135500003D01*
X92119382Y-135664472D01*
X92174050Y-135820703D01*
X92174051Y-135820704D01*
X92262111Y-135960851D01*
X92379149Y-136077889D01*
X92519293Y-136165947D01*
X92519296Y-136165949D01*
X92675527Y-136220617D01*
X92839996Y-136239148D01*
X92840000Y-136239148D01*
X92840004Y-136239148D01*
X93004472Y-136220617D01*
X93004474Y-136220616D01*
X93004476Y-136220616D01*
X93160704Y-136165949D01*
X93300851Y-136077889D01*
X93417889Y-135960851D01*
X93505949Y-135820704D01*
X93560616Y-135664476D01*
X93560616Y-135664474D01*
X93560617Y-135664472D01*
X93579148Y-135500003D01*
X93579148Y-135499996D01*
X99750852Y-135499996D01*
X99750852Y-135500003D01*
X99769382Y-135664472D01*
X99824050Y-135820703D01*
X99824051Y-135820704D01*
X99912111Y-135960851D01*
X100029149Y-136077889D01*
X100169293Y-136165947D01*
X100169296Y-136165949D01*
X100325527Y-136220617D01*
X100489996Y-136239148D01*
X100490000Y-136239148D01*
X100490004Y-136239148D01*
X100654472Y-136220617D01*
X100654474Y-136220616D01*
X100654476Y-136220616D01*
X100810704Y-136165949D01*
X100950851Y-136077889D01*
X101067889Y-135960851D01*
X101155949Y-135820704D01*
X101210616Y-135664476D01*
X101210616Y-135664474D01*
X101210617Y-135664472D01*
X101229148Y-135500003D01*
X101229148Y-135499996D01*
X102290852Y-135499996D01*
X102290852Y-135500003D01*
X102309382Y-135664472D01*
X102364050Y-135820703D01*
X102364051Y-135820704D01*
X102452111Y-135960851D01*
X102569149Y-136077889D01*
X102709293Y-136165947D01*
X102709296Y-136165949D01*
X102865527Y-136220617D01*
X103029996Y-136239148D01*
X103030000Y-136239148D01*
X103030004Y-136239148D01*
X103194472Y-136220617D01*
X103194474Y-136220616D01*
X103194476Y-136220616D01*
X103350704Y-136165949D01*
X103490851Y-136077889D01*
X103607889Y-135960851D01*
X103695949Y-135820704D01*
X103750616Y-135664476D01*
X103750616Y-135664474D01*
X103750617Y-135664472D01*
X103769148Y-135500003D01*
X103769148Y-135499996D01*
X103750617Y-135335527D01*
X103695949Y-135179296D01*
X103695947Y-135179293D01*
X103607888Y-135039148D01*
X103490851Y-134922111D01*
X103350706Y-134834052D01*
X103350703Y-134834050D01*
X103194472Y-134779382D01*
X103030004Y-134760852D01*
X103029996Y-134760852D01*
X102865527Y-134779382D01*
X102709296Y-134834050D01*
X102709293Y-134834052D01*
X102569148Y-134922111D01*
X102452111Y-135039148D01*
X102364052Y-135179293D01*
X102364050Y-135179296D01*
X102309382Y-135335527D01*
X102290852Y-135499996D01*
X101229148Y-135499996D01*
X101210617Y-135335527D01*
X101155949Y-135179296D01*
X101155947Y-135179293D01*
X101067888Y-135039148D01*
X100950851Y-134922111D01*
X100810706Y-134834052D01*
X100810703Y-134834050D01*
X100654472Y-134779382D01*
X100490004Y-134760852D01*
X100489996Y-134760852D01*
X100325527Y-134779382D01*
X100169296Y-134834050D01*
X100169293Y-134834052D01*
X100029148Y-134922111D01*
X99912111Y-135039148D01*
X99824052Y-135179293D01*
X99824050Y-135179296D01*
X99769382Y-135335527D01*
X99750852Y-135499996D01*
X93579148Y-135499996D01*
X93560617Y-135335527D01*
X93505949Y-135179296D01*
X93505947Y-135179293D01*
X93417888Y-135039148D01*
X93300851Y-134922111D01*
X93160706Y-134834052D01*
X93160703Y-134834050D01*
X93004472Y-134779382D01*
X92840004Y-134760852D01*
X92839996Y-134760852D01*
X92675527Y-134779382D01*
X92519296Y-134834050D01*
X92519293Y-134834052D01*
X92379148Y-134922111D01*
X92262111Y-135039148D01*
X92174052Y-135179293D01*
X92174050Y-135179296D01*
X92119382Y-135335527D01*
X92100852Y-135499996D01*
X91039148Y-135499996D01*
X91020617Y-135335527D01*
X90965949Y-135179296D01*
X90965947Y-135179293D01*
X90877888Y-135039148D01*
X90760851Y-134922111D01*
X90620706Y-134834052D01*
X90620703Y-134834050D01*
X90464472Y-134779382D01*
X90300004Y-134760852D01*
X90299996Y-134760852D01*
X90135527Y-134779382D01*
X89979296Y-134834050D01*
X89979293Y-134834052D01*
X89839148Y-134922111D01*
X89722111Y-135039148D01*
X89634052Y-135179293D01*
X89634050Y-135179296D01*
X89579382Y-135335527D01*
X89560852Y-135499996D01*
X67699305Y-135499996D01*
X67673581Y-135370677D01*
X67673580Y-135370676D01*
X67673580Y-135370672D01*
X67628618Y-135262123D01*
X67620778Y-135243195D01*
X67620771Y-135243182D01*
X67544114Y-135128458D01*
X67544111Y-135128454D01*
X67446545Y-135030888D01*
X67446541Y-135030885D01*
X67331817Y-134954228D01*
X67331804Y-134954221D01*
X67204332Y-134901421D01*
X67204322Y-134901418D01*
X67068995Y-134874500D01*
X67068993Y-134874500D01*
X66931007Y-134874500D01*
X66931005Y-134874500D01*
X66795677Y-134901418D01*
X66795667Y-134901421D01*
X66668195Y-134954221D01*
X66668182Y-134954228D01*
X66553458Y-135030885D01*
X66553454Y-135030888D01*
X66455888Y-135128454D01*
X66455885Y-135128458D01*
X66379228Y-135243182D01*
X66379221Y-135243195D01*
X66326421Y-135370667D01*
X66326418Y-135370677D01*
X66299500Y-135506004D01*
X66299500Y-135506007D01*
X66299500Y-135643993D01*
X66299500Y-135643995D01*
X66299499Y-135643995D01*
X63300500Y-135643995D01*
X63300500Y-135506004D01*
X63273581Y-135370677D01*
X63273580Y-135370676D01*
X63273580Y-135370672D01*
X63228618Y-135262123D01*
X63220778Y-135243195D01*
X63220771Y-135243182D01*
X63144114Y-135128458D01*
X63144111Y-135128454D01*
X63046545Y-135030888D01*
X63046541Y-135030885D01*
X62931817Y-134954228D01*
X62931804Y-134954221D01*
X62804332Y-134901421D01*
X62804322Y-134901418D01*
X62668995Y-134874500D01*
X62668993Y-134874500D01*
X62531007Y-134874500D01*
X62531005Y-134874500D01*
X62395677Y-134901418D01*
X62395667Y-134901421D01*
X62268195Y-134954221D01*
X62268182Y-134954228D01*
X62153458Y-135030885D01*
X62153454Y-135030888D01*
X62055888Y-135128454D01*
X62055885Y-135128458D01*
X61979228Y-135243182D01*
X61979221Y-135243195D01*
X61926421Y-135370667D01*
X61926418Y-135370677D01*
X61899500Y-135506004D01*
X61899500Y-135506007D01*
X61899500Y-135643993D01*
X61899500Y-135643995D01*
X61899499Y-135643995D01*
X36752793Y-135643995D01*
X36620860Y-135506004D01*
X36387671Y-135262108D01*
X36383944Y-135258031D01*
X35797006Y-134586225D01*
X35793440Y-134581954D01*
X35716970Y-134486064D01*
X35237218Y-133884476D01*
X35233879Y-133880089D01*
X34709525Y-133158377D01*
X34706356Y-133153803D01*
X34214926Y-132409317D01*
X34211965Y-132404606D01*
X33754411Y-131638790D01*
X33751665Y-131633950D01*
X33328942Y-130848399D01*
X33326416Y-130843441D01*
X32939358Y-130039709D01*
X32937066Y-130034661D01*
X32586460Y-129214378D01*
X32584389Y-129209216D01*
X32374512Y-128650000D01*
X66494353Y-128650000D01*
X66514834Y-128792456D01*
X66574622Y-128923371D01*
X66574623Y-128923373D01*
X66668872Y-129032143D01*
X66789947Y-129109953D01*
X66789950Y-129109954D01*
X66789949Y-129109954D01*
X66928036Y-129150499D01*
X66928038Y-129150500D01*
X66928039Y-129150500D01*
X67071962Y-129150500D01*
X67071962Y-129150499D01*
X67210053Y-129109953D01*
X67331128Y-129032143D01*
X67425377Y-128923373D01*
X67485165Y-128792457D01*
X67505647Y-128650000D01*
X67485165Y-128507543D01*
X67425377Y-128376627D01*
X67402305Y-128350000D01*
X73844353Y-128350000D01*
X73864834Y-128492456D01*
X73924622Y-128623371D01*
X73924623Y-128623373D01*
X74018872Y-128732143D01*
X74139947Y-128809953D01*
X74139950Y-128809954D01*
X74139949Y-128809954D01*
X74278036Y-128850499D01*
X74278038Y-128850500D01*
X74278039Y-128850500D01*
X74421962Y-128850500D01*
X74421962Y-128850499D01*
X74560053Y-128809953D01*
X74681128Y-128732143D01*
X74775377Y-128623373D01*
X74835165Y-128492457D01*
X74855647Y-128350000D01*
X74835165Y-128207543D01*
X74775377Y-128076627D01*
X74681128Y-127967857D01*
X74560053Y-127890047D01*
X74560051Y-127890046D01*
X74560049Y-127890045D01*
X74560050Y-127890045D01*
X74421963Y-127849500D01*
X74421961Y-127849500D01*
X74278039Y-127849500D01*
X74278036Y-127849500D01*
X74139949Y-127890045D01*
X74018873Y-127967856D01*
X73924623Y-128076626D01*
X73924622Y-128076628D01*
X73864834Y-128207543D01*
X73844353Y-128350000D01*
X67402305Y-128350000D01*
X67331128Y-128267857D01*
X67210053Y-128190047D01*
X67210051Y-128190046D01*
X67210049Y-128190045D01*
X67210050Y-128190045D01*
X67071963Y-128149500D01*
X67071961Y-128149500D01*
X66928039Y-128149500D01*
X66928036Y-128149500D01*
X66789949Y-128190045D01*
X66668873Y-128267856D01*
X66574623Y-128376626D01*
X66574622Y-128376628D01*
X66514834Y-128507543D01*
X66494353Y-128650000D01*
X32374512Y-128650000D01*
X32270933Y-128374016D01*
X32269095Y-128368763D01*
X32113550Y-127890045D01*
X31993428Y-127520347D01*
X31991830Y-127515023D01*
X31789567Y-126782143D01*
X31754507Y-126655107D01*
X31753149Y-126649716D01*
X31696153Y-126400000D01*
X65494353Y-126400000D01*
X65514834Y-126542456D01*
X65563819Y-126649716D01*
X65574623Y-126673373D01*
X65668872Y-126782143D01*
X65789947Y-126859953D01*
X65789950Y-126859954D01*
X65789949Y-126859954D01*
X65928036Y-126900499D01*
X65928038Y-126900500D01*
X65928039Y-126900500D01*
X66071962Y-126900500D01*
X66071962Y-126900499D01*
X66210053Y-126859953D01*
X66331128Y-126782143D01*
X66425377Y-126673373D01*
X66485165Y-126542457D01*
X66505647Y-126400000D01*
X66498458Y-126350000D01*
X68844353Y-126350000D01*
X68864834Y-126492456D01*
X68887669Y-126542456D01*
X68924623Y-126623373D01*
X69018872Y-126732143D01*
X69139947Y-126809953D01*
X69139950Y-126809954D01*
X69139949Y-126809954D01*
X69278036Y-126850499D01*
X69278038Y-126850500D01*
X69278039Y-126850500D01*
X69421962Y-126850500D01*
X69421962Y-126850499D01*
X69560053Y-126809953D01*
X69681128Y-126732143D01*
X69775377Y-126623373D01*
X69835165Y-126492457D01*
X69855647Y-126350000D01*
X69835165Y-126207543D01*
X69775377Y-126076627D01*
X69681128Y-125967857D01*
X69560053Y-125890047D01*
X69560051Y-125890046D01*
X69560049Y-125890045D01*
X69560050Y-125890045D01*
X69421963Y-125849500D01*
X69421961Y-125849500D01*
X69278039Y-125849500D01*
X69278036Y-125849500D01*
X69139949Y-125890045D01*
X69018873Y-125967856D01*
X68924623Y-126076626D01*
X68924622Y-126076628D01*
X68864834Y-126207543D01*
X68844353Y-126350000D01*
X66498458Y-126350000D01*
X66485165Y-126257543D01*
X66425377Y-126126627D01*
X66331128Y-126017857D01*
X66210053Y-125940047D01*
X66210051Y-125940046D01*
X66210049Y-125940045D01*
X66210050Y-125940045D01*
X66071963Y-125899500D01*
X66071961Y-125899500D01*
X65928039Y-125899500D01*
X65928036Y-125899500D01*
X65789949Y-125940045D01*
X65668873Y-126017856D01*
X65574623Y-126126626D01*
X65574622Y-126126628D01*
X65514834Y-126257543D01*
X65494353Y-126400000D01*
X31696153Y-126400000D01*
X31554634Y-125779964D01*
X31553533Y-125774585D01*
X31539998Y-125700000D01*
X66544353Y-125700000D01*
X66564834Y-125842456D01*
X66590886Y-125899500D01*
X66624623Y-125973373D01*
X66718872Y-126082143D01*
X66839947Y-126159953D01*
X66839950Y-126159954D01*
X66839949Y-126159954D01*
X66978036Y-126200499D01*
X66978038Y-126200500D01*
X66978039Y-126200500D01*
X67121962Y-126200500D01*
X67121962Y-126200499D01*
X67260053Y-126159953D01*
X67381128Y-126082143D01*
X67475377Y-125973373D01*
X67535165Y-125842457D01*
X67555647Y-125700000D01*
X67535165Y-125557543D01*
X67475377Y-125426627D01*
X67381128Y-125317857D01*
X67260053Y-125240047D01*
X67260051Y-125240046D01*
X67260049Y-125240045D01*
X67260050Y-125240045D01*
X67121963Y-125199500D01*
X67121961Y-125199500D01*
X66978039Y-125199500D01*
X66978036Y-125199500D01*
X66839949Y-125240045D01*
X66718873Y-125317856D01*
X66624623Y-125426626D01*
X66624622Y-125426628D01*
X66564834Y-125557543D01*
X66544353Y-125700000D01*
X31539998Y-125700000D01*
X31403893Y-124950000D01*
X62480853Y-124950000D01*
X62501334Y-125092456D01*
X62550220Y-125199500D01*
X62561123Y-125223373D01*
X62655372Y-125332143D01*
X62776447Y-125409953D01*
X62776450Y-125409954D01*
X62776449Y-125409954D01*
X62914536Y-125450499D01*
X62914538Y-125450500D01*
X62914539Y-125450500D01*
X63058462Y-125450500D01*
X63058462Y-125450499D01*
X63196553Y-125409953D01*
X63317628Y-125332143D01*
X63411877Y-125223373D01*
X63471665Y-125092457D01*
X63492147Y-124950000D01*
X63471665Y-124807543D01*
X63411877Y-124676627D01*
X63317628Y-124567857D01*
X63196553Y-124490047D01*
X63196551Y-124490046D01*
X63196549Y-124490045D01*
X63196550Y-124490045D01*
X63058463Y-124449500D01*
X63058461Y-124449500D01*
X62914539Y-124449500D01*
X62914536Y-124449500D01*
X62776449Y-124490045D01*
X62655373Y-124567856D01*
X62561123Y-124676626D01*
X62561122Y-124676628D01*
X62501334Y-124807543D01*
X62480853Y-124950000D01*
X31403893Y-124950000D01*
X31394238Y-124896794D01*
X31393379Y-124891374D01*
X31299725Y-124200000D01*
X69494353Y-124200000D01*
X69514834Y-124342456D01*
X69563720Y-124449500D01*
X69574623Y-124473373D01*
X69668872Y-124582143D01*
X69789947Y-124659953D01*
X69789950Y-124659954D01*
X69789949Y-124659954D01*
X69928036Y-124700499D01*
X69928038Y-124700500D01*
X69928039Y-124700500D01*
X70071962Y-124700500D01*
X70071962Y-124700499D01*
X70210053Y-124659953D01*
X70331128Y-124582143D01*
X70425377Y-124473373D01*
X70485165Y-124342457D01*
X70505647Y-124200000D01*
X70485165Y-124057543D01*
X70425377Y-123926627D01*
X70331128Y-123817857D01*
X70210053Y-123740047D01*
X70210051Y-123740046D01*
X70210049Y-123740045D01*
X70210050Y-123740045D01*
X70071963Y-123699500D01*
X70071961Y-123699500D01*
X69928039Y-123699500D01*
X69928036Y-123699500D01*
X69789949Y-123740045D01*
X69668873Y-123817856D01*
X69574623Y-123926626D01*
X69574622Y-123926628D01*
X69514834Y-124057543D01*
X69494353Y-124200000D01*
X31299725Y-124200000D01*
X31273624Y-124007313D01*
X31273003Y-124001798D01*
X31266238Y-123926628D01*
X31193035Y-123113280D01*
X31192666Y-123107797D01*
X31167615Y-122550000D01*
X55994353Y-122550000D01*
X56014834Y-122692456D01*
X56072463Y-122818643D01*
X56074623Y-122823373D01*
X56168872Y-122932143D01*
X56289947Y-123009953D01*
X56289950Y-123009954D01*
X56289949Y-123009954D01*
X56428036Y-123050499D01*
X56428038Y-123050500D01*
X56428039Y-123050500D01*
X56571962Y-123050500D01*
X56571962Y-123050499D01*
X56710053Y-123009953D01*
X56831128Y-122932143D01*
X56925377Y-122823373D01*
X56985165Y-122692457D01*
X57005647Y-122550000D01*
X56989328Y-122436500D01*
X59594353Y-122436500D01*
X59614834Y-122578956D01*
X59666669Y-122692456D01*
X59674623Y-122709873D01*
X59768872Y-122818643D01*
X59889947Y-122896453D01*
X59889950Y-122896454D01*
X59889949Y-122896454D01*
X59997107Y-122927917D01*
X60011497Y-122932143D01*
X60028036Y-122936999D01*
X60028038Y-122937000D01*
X60028039Y-122937000D01*
X60171962Y-122937000D01*
X60171962Y-122936999D01*
X60310053Y-122896453D01*
X60431128Y-122818643D01*
X60525377Y-122709873D01*
X60529886Y-122700000D01*
X76894353Y-122700000D01*
X76914834Y-122842456D01*
X76958011Y-122936999D01*
X76974623Y-122973373D01*
X77068872Y-123082143D01*
X77189947Y-123159953D01*
X77189950Y-123159954D01*
X77189949Y-123159954D01*
X77328036Y-123200499D01*
X77328038Y-123200500D01*
X77328039Y-123200500D01*
X77471962Y-123200500D01*
X77471962Y-123200499D01*
X77610053Y-123159953D01*
X77731128Y-123082143D01*
X77825377Y-122973373D01*
X77885165Y-122842457D01*
X77905647Y-122700000D01*
X77885165Y-122557543D01*
X77825377Y-122426627D01*
X77731128Y-122317857D01*
X77610053Y-122240047D01*
X77610051Y-122240046D01*
X77610049Y-122240045D01*
X77610050Y-122240045D01*
X77471963Y-122199500D01*
X77471961Y-122199500D01*
X77328039Y-122199500D01*
X77328036Y-122199500D01*
X77189949Y-122240045D01*
X77068873Y-122317856D01*
X76974623Y-122426626D01*
X76974622Y-122426628D01*
X76914834Y-122557543D01*
X76894353Y-122700000D01*
X60529886Y-122700000D01*
X60585165Y-122578957D01*
X60605647Y-122436500D01*
X60585165Y-122294043D01*
X60525377Y-122163127D01*
X60490925Y-122123367D01*
X60461901Y-122059814D01*
X60471844Y-121990655D01*
X60517598Y-121937851D01*
X60543313Y-121921326D01*
X60637562Y-121812556D01*
X60697350Y-121681640D01*
X60717832Y-121539183D01*
X60712198Y-121500000D01*
X66344353Y-121500000D01*
X66364834Y-121642456D01*
X66382729Y-121681639D01*
X66424623Y-121773373D01*
X66518872Y-121882143D01*
X66639947Y-121959953D01*
X66639950Y-121959954D01*
X66639949Y-121959954D01*
X66778036Y-122000499D01*
X66778038Y-122000500D01*
X66778039Y-122000500D01*
X66921962Y-122000500D01*
X66921962Y-122000499D01*
X67060053Y-121959953D01*
X67181128Y-121882143D01*
X67275377Y-121773373D01*
X67335165Y-121642457D01*
X67355647Y-121500000D01*
X67335165Y-121357543D01*
X67275377Y-121226627D01*
X67181128Y-121117857D01*
X67060053Y-121040047D01*
X67060051Y-121040046D01*
X67060049Y-121040045D01*
X67060050Y-121040045D01*
X66921963Y-120999500D01*
X66921961Y-120999500D01*
X66778039Y-120999500D01*
X66778036Y-120999500D01*
X66639949Y-121040045D01*
X66518873Y-121117856D01*
X66424623Y-121226626D01*
X66424622Y-121226628D01*
X66364834Y-121357543D01*
X66344353Y-121500000D01*
X60712198Y-121500000D01*
X60697350Y-121396726D01*
X60637562Y-121265810D01*
X60543313Y-121157040D01*
X60422238Y-121079230D01*
X60422236Y-121079229D01*
X60422234Y-121079228D01*
X60422235Y-121079228D01*
X60284148Y-121038683D01*
X60284146Y-121038683D01*
X60140224Y-121038683D01*
X60140221Y-121038683D01*
X60002134Y-121079228D01*
X59881058Y-121157039D01*
X59786808Y-121265809D01*
X59786807Y-121265811D01*
X59727019Y-121396726D01*
X59706538Y-121539183D01*
X59727019Y-121681639D01*
X59786807Y-121812554D01*
X59786808Y-121812556D01*
X59821258Y-121852314D01*
X59850283Y-121915869D01*
X59840339Y-121985027D01*
X59794587Y-122037830D01*
X59768873Y-122054355D01*
X59674623Y-122163126D01*
X59674622Y-122163128D01*
X59614834Y-122294043D01*
X59594353Y-122436500D01*
X56989328Y-122436500D01*
X56985165Y-122407543D01*
X56925377Y-122276627D01*
X56831128Y-122167857D01*
X56710053Y-122090047D01*
X56710051Y-122090046D01*
X56710049Y-122090045D01*
X56710050Y-122090045D01*
X56571963Y-122049500D01*
X56571961Y-122049500D01*
X56428039Y-122049500D01*
X56428036Y-122049500D01*
X56289949Y-122090045D01*
X56168873Y-122167856D01*
X56074623Y-122276626D01*
X56074622Y-122276628D01*
X56014834Y-122407543D01*
X55994353Y-122550000D01*
X31167615Y-122550000D01*
X31152625Y-122216236D01*
X31152503Y-122211384D01*
X31152436Y-122199500D01*
X31150002Y-121765356D01*
X31150000Y-121764661D01*
X31150000Y-119250000D01*
X56094353Y-119250000D01*
X56114834Y-119392456D01*
X56174622Y-119523371D01*
X56174623Y-119523373D01*
X56268872Y-119632143D01*
X56389947Y-119709953D01*
X56389950Y-119709954D01*
X56389949Y-119709954D01*
X56528036Y-119750499D01*
X56528038Y-119750500D01*
X56528039Y-119750500D01*
X56671962Y-119750500D01*
X56671962Y-119750499D01*
X56810053Y-119709953D01*
X56931128Y-119632143D01*
X57025377Y-119523373D01*
X57085165Y-119392457D01*
X57105647Y-119250000D01*
X57085165Y-119107543D01*
X57025377Y-118976627D01*
X56931128Y-118867857D01*
X56810053Y-118790047D01*
X56810051Y-118790046D01*
X56810049Y-118790045D01*
X56810050Y-118790045D01*
X56671963Y-118749500D01*
X56671961Y-118749500D01*
X56528039Y-118749500D01*
X56528036Y-118749500D01*
X56389949Y-118790045D01*
X56268873Y-118867856D01*
X56174623Y-118976626D01*
X56174622Y-118976628D01*
X56114834Y-119107543D01*
X56094353Y-119250000D01*
X31150000Y-119250000D01*
X31150000Y-116765000D01*
X34147422Y-116765000D01*
X34167943Y-116966819D01*
X34228669Y-117160364D01*
X34228676Y-117160379D01*
X34327118Y-117337738D01*
X34327121Y-117337743D01*
X34459255Y-117491660D01*
X34459256Y-117491662D01*
X34619668Y-117615829D01*
X34619672Y-117615832D01*
X34801799Y-117705170D01*
X34998182Y-117756017D01*
X35200780Y-117766292D01*
X35401299Y-117735573D01*
X35591530Y-117665120D01*
X35763684Y-117557815D01*
X35824506Y-117500000D01*
X59544353Y-117500000D01*
X59564834Y-117642456D01*
X59593475Y-117705170D01*
X59624623Y-117773373D01*
X59718872Y-117882143D01*
X59781400Y-117922327D01*
X59827154Y-117975130D01*
X59837098Y-118044288D01*
X59808073Y-118107844D01*
X59781400Y-118130957D01*
X59720874Y-118169855D01*
X59626623Y-118278626D01*
X59626622Y-118278628D01*
X59566834Y-118409543D01*
X59546353Y-118552000D01*
X59566834Y-118694456D01*
X59610489Y-118790045D01*
X59626623Y-118825373D01*
X59720872Y-118934143D01*
X59841947Y-119011953D01*
X59841950Y-119011954D01*
X59841949Y-119011954D01*
X59980036Y-119052499D01*
X59980038Y-119052500D01*
X59980039Y-119052500D01*
X60123962Y-119052500D01*
X60123962Y-119052499D01*
X60262053Y-119011953D01*
X60383128Y-118934143D01*
X60477377Y-118825373D01*
X60537165Y-118694457D01*
X60557647Y-118552000D01*
X60537165Y-118409543D01*
X60477377Y-118278627D01*
X60383128Y-118169857D01*
X60320599Y-118129672D01*
X60274845Y-118076869D01*
X60264901Y-118007710D01*
X60293926Y-117944154D01*
X60320596Y-117921044D01*
X60381128Y-117882143D01*
X60475377Y-117773373D01*
X60535165Y-117642457D01*
X60555647Y-117500000D01*
X60535165Y-117357543D01*
X60475377Y-117226627D01*
X60381128Y-117117857D01*
X60260053Y-117040047D01*
X60260051Y-117040046D01*
X60260049Y-117040045D01*
X60260050Y-117040045D01*
X60121963Y-116999500D01*
X60121961Y-116999500D01*
X59978039Y-116999500D01*
X59978036Y-116999500D01*
X59839949Y-117040045D01*
X59718873Y-117117856D01*
X59624623Y-117226626D01*
X59624622Y-117226628D01*
X59564834Y-117357543D01*
X59544353Y-117500000D01*
X35824506Y-117500000D01*
X35910715Y-117418052D01*
X36026601Y-117251553D01*
X36106600Y-117065135D01*
X36147435Y-116866429D01*
X36150000Y-116765000D01*
X36147435Y-116663571D01*
X36106600Y-116464865D01*
X36026601Y-116278447D01*
X35910715Y-116111948D01*
X35763684Y-115972185D01*
X35591530Y-115864880D01*
X35587804Y-115863500D01*
X35401300Y-115794427D01*
X35401294Y-115794426D01*
X35200781Y-115763708D01*
X35200780Y-115763708D01*
X35099481Y-115768845D01*
X34998181Y-115773983D01*
X34801798Y-115824830D01*
X34619668Y-115914170D01*
X34459256Y-116038337D01*
X34459255Y-116038339D01*
X34327121Y-116192256D01*
X34327118Y-116192261D01*
X34228676Y-116369620D01*
X34228669Y-116369635D01*
X34167943Y-116563180D01*
X34147422Y-116765000D01*
X31150000Y-116765000D01*
X31150000Y-115160000D01*
X47755712Y-115160000D01*
X47774816Y-115353972D01*
X47774816Y-115353974D01*
X47774817Y-115353976D01*
X47813458Y-115481357D01*
X47831400Y-115540504D01*
X47923276Y-115712391D01*
X47923281Y-115712398D01*
X48046931Y-115863068D01*
X48109200Y-115914170D01*
X48197603Y-115986720D01*
X48197606Y-115986721D01*
X48197608Y-115986723D01*
X48369495Y-116078599D01*
X48369498Y-116078599D01*
X48369502Y-116078602D01*
X48556024Y-116135183D01*
X48750000Y-116154288D01*
X48943976Y-116135183D01*
X49130498Y-116078602D01*
X49205829Y-116038337D01*
X49302391Y-115986723D01*
X49302389Y-115986723D01*
X49302397Y-115986720D01*
X49453068Y-115863068D01*
X49576720Y-115712397D01*
X49668602Y-115540498D01*
X49725183Y-115353976D01*
X49744288Y-115160000D01*
X50295712Y-115160000D01*
X50314816Y-115353972D01*
X50314816Y-115353974D01*
X50314817Y-115353976D01*
X50353458Y-115481357D01*
X50371400Y-115540504D01*
X50463276Y-115712391D01*
X50463281Y-115712398D01*
X50586931Y-115863068D01*
X50649200Y-115914170D01*
X50737603Y-115986720D01*
X50737606Y-115986721D01*
X50737608Y-115986723D01*
X50909495Y-116078599D01*
X50909498Y-116078599D01*
X50909502Y-116078602D01*
X51096024Y-116135183D01*
X51290000Y-116154288D01*
X51483976Y-116135183D01*
X51670498Y-116078602D01*
X51745829Y-116038337D01*
X51842391Y-115986723D01*
X51842389Y-115986723D01*
X51842397Y-115986720D01*
X51992542Y-115863500D01*
X76244353Y-115863500D01*
X76264834Y-116005956D01*
X76298010Y-116078599D01*
X76324623Y-116136873D01*
X76418872Y-116245643D01*
X76539947Y-116323453D01*
X76539950Y-116323454D01*
X76539949Y-116323454D01*
X76678036Y-116363999D01*
X76678038Y-116364000D01*
X76678039Y-116364000D01*
X76821962Y-116364000D01*
X76821962Y-116363999D01*
X76960053Y-116323453D01*
X77081128Y-116245643D01*
X77175377Y-116136873D01*
X77235165Y-116005957D01*
X77255647Y-115863500D01*
X77235165Y-115721043D01*
X77175377Y-115590127D01*
X77081128Y-115481357D01*
X76960053Y-115403547D01*
X76960051Y-115403546D01*
X76960049Y-115403545D01*
X76960050Y-115403545D01*
X76821963Y-115363000D01*
X76821961Y-115363000D01*
X76678039Y-115363000D01*
X76678036Y-115363000D01*
X76539949Y-115403545D01*
X76418873Y-115481356D01*
X76324623Y-115590126D01*
X76324622Y-115590128D01*
X76264834Y-115721043D01*
X76244353Y-115863500D01*
X51992542Y-115863500D01*
X51993068Y-115863068D01*
X52116720Y-115712397D01*
X52208602Y-115540498D01*
X52265183Y-115353976D01*
X52284288Y-115160000D01*
X102755712Y-115160000D01*
X102774816Y-115353972D01*
X102774816Y-115353974D01*
X102774817Y-115353976D01*
X102813458Y-115481357D01*
X102831400Y-115540504D01*
X102923276Y-115712391D01*
X102923281Y-115712398D01*
X103046931Y-115863068D01*
X103109200Y-115914170D01*
X103197603Y-115986720D01*
X103197606Y-115986721D01*
X103197608Y-115986723D01*
X103369495Y-116078599D01*
X103369498Y-116078599D01*
X103369502Y-116078602D01*
X103556024Y-116135183D01*
X103750000Y-116154288D01*
X103943976Y-116135183D01*
X104130498Y-116078602D01*
X104205829Y-116038337D01*
X104302391Y-115986723D01*
X104302389Y-115986723D01*
X104302397Y-115986720D01*
X104453068Y-115863068D01*
X104576720Y-115712397D01*
X104668602Y-115540498D01*
X104725183Y-115353976D01*
X104744288Y-115160000D01*
X105295712Y-115160000D01*
X105314816Y-115353972D01*
X105314816Y-115353974D01*
X105314817Y-115353976D01*
X105353458Y-115481357D01*
X105371400Y-115540504D01*
X105463276Y-115712391D01*
X105463281Y-115712398D01*
X105586931Y-115863068D01*
X105649200Y-115914170D01*
X105737603Y-115986720D01*
X105737606Y-115986721D01*
X105737608Y-115986723D01*
X105909495Y-116078599D01*
X105909498Y-116078599D01*
X105909502Y-116078602D01*
X106096024Y-116135183D01*
X106290000Y-116154288D01*
X106483976Y-116135183D01*
X106670498Y-116078602D01*
X106745829Y-116038337D01*
X106842391Y-115986723D01*
X106842389Y-115986723D01*
X106842397Y-115986720D01*
X106993068Y-115863068D01*
X107116720Y-115712397D01*
X107208602Y-115540498D01*
X107265183Y-115353976D01*
X107284288Y-115160000D01*
X107265183Y-114966024D01*
X107208602Y-114779502D01*
X107208599Y-114779498D01*
X107208599Y-114779495D01*
X107116723Y-114607608D01*
X107116721Y-114607606D01*
X107116720Y-114607603D01*
X107028413Y-114500000D01*
X106993068Y-114456931D01*
X106842398Y-114333281D01*
X106842391Y-114333276D01*
X106670504Y-114241400D01*
X106670498Y-114241398D01*
X106483976Y-114184817D01*
X106483974Y-114184816D01*
X106483972Y-114184816D01*
X106290000Y-114165712D01*
X106096027Y-114184816D01*
X105909495Y-114241400D01*
X105737608Y-114333276D01*
X105737601Y-114333281D01*
X105586931Y-114456931D01*
X105463281Y-114607601D01*
X105463276Y-114607608D01*
X105371400Y-114779495D01*
X105314816Y-114966027D01*
X105295712Y-115160000D01*
X104744288Y-115160000D01*
X104725183Y-114966024D01*
X104668602Y-114779502D01*
X104668599Y-114779498D01*
X104668599Y-114779495D01*
X104576723Y-114607608D01*
X104576721Y-114607606D01*
X104576720Y-114607603D01*
X104488413Y-114500000D01*
X104453068Y-114456931D01*
X104302398Y-114333281D01*
X104302391Y-114333276D01*
X104130504Y-114241400D01*
X104130498Y-114241398D01*
X103943976Y-114184817D01*
X103943974Y-114184816D01*
X103943972Y-114184816D01*
X103750000Y-114165712D01*
X103556027Y-114184816D01*
X103369495Y-114241400D01*
X103197608Y-114333276D01*
X103197601Y-114333281D01*
X103046931Y-114456931D01*
X102923281Y-114607601D01*
X102923276Y-114607608D01*
X102831400Y-114779495D01*
X102774816Y-114966027D01*
X102755712Y-115160000D01*
X52284288Y-115160000D01*
X52265183Y-114966024D01*
X52208602Y-114779502D01*
X52208599Y-114779498D01*
X52208599Y-114779495D01*
X52116723Y-114607608D01*
X52116721Y-114607606D01*
X52116720Y-114607603D01*
X52028413Y-114500000D01*
X76144353Y-114500000D01*
X76164834Y-114642456D01*
X76224622Y-114773371D01*
X76224623Y-114773373D01*
X76318872Y-114882143D01*
X76439947Y-114959953D01*
X76439950Y-114959954D01*
X76439949Y-114959954D01*
X76578036Y-115000499D01*
X76578038Y-115000500D01*
X76578039Y-115000500D01*
X76721962Y-115000500D01*
X76721962Y-115000499D01*
X76860053Y-114959953D01*
X76981128Y-114882143D01*
X77075377Y-114773373D01*
X77135165Y-114642457D01*
X77155647Y-114500000D01*
X77135165Y-114357543D01*
X77075377Y-114226627D01*
X76981128Y-114117857D01*
X76860053Y-114040047D01*
X76860051Y-114040046D01*
X76860049Y-114040045D01*
X76860050Y-114040045D01*
X76721963Y-113999500D01*
X76721961Y-113999500D01*
X76578039Y-113999500D01*
X76578036Y-113999500D01*
X76439949Y-114040045D01*
X76318873Y-114117856D01*
X76224623Y-114226626D01*
X76224622Y-114226628D01*
X76164834Y-114357543D01*
X76144353Y-114500000D01*
X52028413Y-114500000D01*
X51993068Y-114456931D01*
X51842398Y-114333281D01*
X51842391Y-114333276D01*
X51670504Y-114241400D01*
X51670498Y-114241398D01*
X51483976Y-114184817D01*
X51483974Y-114184816D01*
X51483972Y-114184816D01*
X51290000Y-114165712D01*
X51096027Y-114184816D01*
X50909495Y-114241400D01*
X50737608Y-114333276D01*
X50737601Y-114333281D01*
X50586931Y-114456931D01*
X50463281Y-114607601D01*
X50463276Y-114607608D01*
X50371400Y-114779495D01*
X50314816Y-114966027D01*
X50295712Y-115160000D01*
X49744288Y-115160000D01*
X49725183Y-114966024D01*
X49668602Y-114779502D01*
X49668599Y-114779498D01*
X49668599Y-114779495D01*
X49576723Y-114607608D01*
X49576721Y-114607606D01*
X49576720Y-114607603D01*
X49488413Y-114500000D01*
X49453068Y-114456931D01*
X49302398Y-114333281D01*
X49302391Y-114333276D01*
X49130504Y-114241400D01*
X49130498Y-114241398D01*
X48943976Y-114184817D01*
X48943974Y-114184816D01*
X48943972Y-114184816D01*
X48750000Y-114165712D01*
X48556027Y-114184816D01*
X48369495Y-114241400D01*
X48197608Y-114333276D01*
X48197601Y-114333281D01*
X48046931Y-114456931D01*
X47923281Y-114607601D01*
X47923276Y-114607608D01*
X47831400Y-114779495D01*
X47774816Y-114966027D01*
X47755712Y-115160000D01*
X31150000Y-115160000D01*
X31150000Y-111667499D01*
X39881750Y-111667499D01*
X39881750Y-111667500D01*
X39900713Y-111884251D01*
X39900715Y-111884261D01*
X39957026Y-112094419D01*
X39957028Y-112094423D01*
X39957029Y-112094427D01*
X40002741Y-112192456D01*
X40048983Y-112291623D01*
X40048984Y-112291625D01*
X40173786Y-112469862D01*
X40327637Y-112623713D01*
X40327640Y-112623715D01*
X40505875Y-112748516D01*
X40703073Y-112840471D01*
X40913244Y-112896786D01*
X41086648Y-112911957D01*
X41129999Y-112915750D01*
X41130000Y-112915750D01*
X41130001Y-112915750D01*
X41166126Y-112912589D01*
X41346756Y-112896786D01*
X41556927Y-112840471D01*
X41754125Y-112748516D01*
X41932360Y-112623715D01*
X42086215Y-112469860D01*
X42211016Y-112291625D01*
X42302971Y-112094427D01*
X42359286Y-111884256D01*
X42378250Y-111667500D01*
X42378250Y-111667499D01*
X55121750Y-111667499D01*
X55121750Y-111667500D01*
X55140713Y-111884251D01*
X55140715Y-111884261D01*
X55197026Y-112094419D01*
X55197028Y-112094423D01*
X55197029Y-112094427D01*
X55242741Y-112192456D01*
X55288983Y-112291623D01*
X55288984Y-112291625D01*
X55413786Y-112469862D01*
X55567637Y-112623713D01*
X55567640Y-112623715D01*
X55745875Y-112748516D01*
X55943073Y-112840471D01*
X56153244Y-112896786D01*
X56326648Y-112911957D01*
X56369999Y-112915750D01*
X56370000Y-112915750D01*
X56370001Y-112915750D01*
X56406126Y-112912589D01*
X56586756Y-112896786D01*
X56796927Y-112840471D01*
X56994125Y-112748516D01*
X57172360Y-112623715D01*
X57326215Y-112469860D01*
X57451016Y-112291625D01*
X57542971Y-112094427D01*
X57554875Y-112050000D01*
X76894353Y-112050000D01*
X76914834Y-112192456D01*
X76960123Y-112291623D01*
X76974623Y-112323373D01*
X77068872Y-112432143D01*
X77189947Y-112509953D01*
X77189950Y-112509954D01*
X77189949Y-112509954D01*
X77328036Y-112550499D01*
X77328038Y-112550500D01*
X77328039Y-112550500D01*
X77471962Y-112550500D01*
X77471962Y-112550499D01*
X77610053Y-112509953D01*
X77731128Y-112432143D01*
X77825377Y-112323373D01*
X77885165Y-112192457D01*
X77905647Y-112050000D01*
X77885165Y-111907543D01*
X77825377Y-111776627D01*
X77731128Y-111667857D01*
X77730571Y-111667499D01*
X94881750Y-111667499D01*
X94881750Y-111667500D01*
X94900713Y-111884251D01*
X94900715Y-111884261D01*
X94957026Y-112094419D01*
X94957028Y-112094423D01*
X94957029Y-112094427D01*
X95002741Y-112192456D01*
X95048983Y-112291623D01*
X95048984Y-112291625D01*
X95173786Y-112469862D01*
X95327637Y-112623713D01*
X95327640Y-112623715D01*
X95505875Y-112748516D01*
X95703073Y-112840471D01*
X95913244Y-112896786D01*
X96086648Y-112911957D01*
X96129999Y-112915750D01*
X96130000Y-112915750D01*
X96130001Y-112915750D01*
X96166126Y-112912589D01*
X96346756Y-112896786D01*
X96556927Y-112840471D01*
X96754125Y-112748516D01*
X96932360Y-112623715D01*
X97086215Y-112469860D01*
X97211016Y-112291625D01*
X97302971Y-112094427D01*
X97359286Y-111884256D01*
X97378250Y-111667500D01*
X97378250Y-111667499D01*
X110121750Y-111667499D01*
X110121750Y-111667500D01*
X110140713Y-111884251D01*
X110140715Y-111884261D01*
X110197026Y-112094419D01*
X110197028Y-112094423D01*
X110197029Y-112094427D01*
X110242741Y-112192456D01*
X110288983Y-112291623D01*
X110288984Y-112291625D01*
X110413786Y-112469862D01*
X110567637Y-112623713D01*
X110567640Y-112623715D01*
X110745875Y-112748516D01*
X110943073Y-112840471D01*
X111153244Y-112896786D01*
X111326648Y-112911957D01*
X111369999Y-112915750D01*
X111370000Y-112915750D01*
X111370001Y-112915750D01*
X111406126Y-112912589D01*
X111586756Y-112896786D01*
X111796927Y-112840471D01*
X111994125Y-112748516D01*
X112172360Y-112623715D01*
X112326215Y-112469860D01*
X112451016Y-112291625D01*
X112542971Y-112094427D01*
X112599286Y-111884256D01*
X112618250Y-111667500D01*
X112599286Y-111450744D01*
X112542971Y-111240573D01*
X112451016Y-111043375D01*
X112326215Y-110865140D01*
X112326213Y-110865137D01*
X112172362Y-110711286D01*
X111994125Y-110586484D01*
X111994123Y-110586483D01*
X111932061Y-110557543D01*
X111796927Y-110494529D01*
X111796923Y-110494528D01*
X111796919Y-110494526D01*
X111586761Y-110438215D01*
X111586751Y-110438213D01*
X111370001Y-110419250D01*
X111369999Y-110419250D01*
X111153248Y-110438213D01*
X111153238Y-110438215D01*
X110943080Y-110494526D01*
X110943071Y-110494530D01*
X110745876Y-110586483D01*
X110745874Y-110586484D01*
X110567637Y-110711286D01*
X110413786Y-110865137D01*
X110288984Y-111043374D01*
X110288983Y-111043376D01*
X110197030Y-111240571D01*
X110197026Y-111240580D01*
X110140715Y-111450738D01*
X110140713Y-111450748D01*
X110121750Y-111667499D01*
X97378250Y-111667499D01*
X97359286Y-111450744D01*
X97302971Y-111240573D01*
X97211016Y-111043375D01*
X97086215Y-110865140D01*
X97086213Y-110865137D01*
X96932362Y-110711286D01*
X96754125Y-110586484D01*
X96754123Y-110586483D01*
X96692061Y-110557543D01*
X96556927Y-110494529D01*
X96556923Y-110494528D01*
X96556919Y-110494526D01*
X96346761Y-110438215D01*
X96346751Y-110438213D01*
X96130001Y-110419250D01*
X96129999Y-110419250D01*
X95913248Y-110438213D01*
X95913238Y-110438215D01*
X95703080Y-110494526D01*
X95703071Y-110494530D01*
X95505876Y-110586483D01*
X95505874Y-110586484D01*
X95327637Y-110711286D01*
X95173786Y-110865137D01*
X95048984Y-111043374D01*
X95048983Y-111043376D01*
X94957030Y-111240571D01*
X94957026Y-111240580D01*
X94900715Y-111450738D01*
X94900713Y-111450748D01*
X94881750Y-111667499D01*
X77730571Y-111667499D01*
X77610053Y-111590047D01*
X77610051Y-111590046D01*
X77610049Y-111590045D01*
X77610050Y-111590045D01*
X77471963Y-111549500D01*
X77471961Y-111549500D01*
X77328039Y-111549500D01*
X77328036Y-111549500D01*
X77189949Y-111590045D01*
X77068873Y-111667856D01*
X76974623Y-111776626D01*
X76974622Y-111776628D01*
X76914834Y-111907543D01*
X76894353Y-112050000D01*
X57554875Y-112050000D01*
X57599286Y-111884256D01*
X57618250Y-111667500D01*
X57599286Y-111450744D01*
X57542971Y-111240573D01*
X57451016Y-111043375D01*
X57326215Y-110865140D01*
X57326213Y-110865137D01*
X57172362Y-110711286D01*
X57156244Y-110700000D01*
X79344353Y-110700000D01*
X79364834Y-110842456D01*
X79375194Y-110865140D01*
X79424623Y-110973373D01*
X79518872Y-111082143D01*
X79639947Y-111159953D01*
X79639950Y-111159954D01*
X79639949Y-111159954D01*
X79778036Y-111200499D01*
X79778038Y-111200500D01*
X79778039Y-111200500D01*
X79921962Y-111200500D01*
X79921962Y-111200499D01*
X80060053Y-111159953D01*
X80181128Y-111082143D01*
X80275377Y-110973373D01*
X80335165Y-110842457D01*
X80355647Y-110700000D01*
X80335165Y-110557543D01*
X80275377Y-110426627D01*
X80181128Y-110317857D01*
X80060053Y-110240047D01*
X80060051Y-110240046D01*
X80060049Y-110240045D01*
X80060050Y-110240045D01*
X79921963Y-110199500D01*
X79921961Y-110199500D01*
X79778039Y-110199500D01*
X79778036Y-110199500D01*
X79639949Y-110240045D01*
X79518873Y-110317856D01*
X79424623Y-110426626D01*
X79424622Y-110426628D01*
X79364834Y-110557543D01*
X79344353Y-110700000D01*
X57156244Y-110700000D01*
X56994125Y-110586484D01*
X56994123Y-110586483D01*
X56932061Y-110557543D01*
X56796927Y-110494529D01*
X56796923Y-110494528D01*
X56796919Y-110494526D01*
X56586761Y-110438215D01*
X56586751Y-110438213D01*
X56370001Y-110419250D01*
X56369999Y-110419250D01*
X56153248Y-110438213D01*
X56153238Y-110438215D01*
X55943080Y-110494526D01*
X55943071Y-110494530D01*
X55745876Y-110586483D01*
X55745874Y-110586484D01*
X55567637Y-110711286D01*
X55413786Y-110865137D01*
X55288984Y-111043374D01*
X55288983Y-111043376D01*
X55197030Y-111240571D01*
X55197026Y-111240580D01*
X55140715Y-111450738D01*
X55140713Y-111450748D01*
X55121750Y-111667499D01*
X42378250Y-111667499D01*
X42359286Y-111450744D01*
X42302971Y-111240573D01*
X42211016Y-111043375D01*
X42086215Y-110865140D01*
X42086213Y-110865137D01*
X41932362Y-110711286D01*
X41754125Y-110586484D01*
X41754123Y-110586483D01*
X41692061Y-110557543D01*
X41556927Y-110494529D01*
X41556923Y-110494528D01*
X41556919Y-110494526D01*
X41346761Y-110438215D01*
X41346751Y-110438213D01*
X41130001Y-110419250D01*
X41129999Y-110419250D01*
X40913248Y-110438213D01*
X40913238Y-110438215D01*
X40703080Y-110494526D01*
X40703071Y-110494530D01*
X40505876Y-110586483D01*
X40505874Y-110586484D01*
X40327637Y-110711286D01*
X40173786Y-110865137D01*
X40048984Y-111043374D01*
X40048983Y-111043376D01*
X39957030Y-111240571D01*
X39957026Y-111240580D01*
X39900715Y-111450738D01*
X39900713Y-111450748D01*
X39881750Y-111667499D01*
X31150000Y-111667499D01*
X31150000Y-109950000D01*
X85669353Y-109950000D01*
X85689834Y-110092456D01*
X85738720Y-110199500D01*
X85749623Y-110223373D01*
X85843872Y-110332143D01*
X85964947Y-110409953D01*
X85964950Y-110409954D01*
X85964949Y-110409954D01*
X86103036Y-110450499D01*
X86103038Y-110450500D01*
X86103039Y-110450500D01*
X86246962Y-110450500D01*
X86246962Y-110450499D01*
X86385053Y-110409953D01*
X86506128Y-110332143D01*
X86600377Y-110223373D01*
X86660165Y-110092457D01*
X86680647Y-109950000D01*
X86660165Y-109807543D01*
X86600377Y-109676627D01*
X86506128Y-109567857D01*
X86385053Y-109490047D01*
X86385051Y-109490046D01*
X86385049Y-109490045D01*
X86385050Y-109490045D01*
X86246963Y-109449500D01*
X86246961Y-109449500D01*
X86103039Y-109449500D01*
X86103036Y-109449500D01*
X85964949Y-109490045D01*
X85843873Y-109567856D01*
X85749623Y-109676626D01*
X85749622Y-109676628D01*
X85689834Y-109807543D01*
X85669353Y-109950000D01*
X31150000Y-109950000D01*
X31150000Y-108550000D01*
X83094353Y-108550000D01*
X83114834Y-108692456D01*
X83174622Y-108823371D01*
X83174623Y-108823373D01*
X83268872Y-108932143D01*
X83389947Y-109009953D01*
X83389950Y-109009954D01*
X83389949Y-109009954D01*
X83528036Y-109050499D01*
X83528038Y-109050500D01*
X83528039Y-109050500D01*
X83671962Y-109050500D01*
X83671962Y-109050499D01*
X83810053Y-109009953D01*
X83931128Y-108932143D01*
X84025377Y-108823373D01*
X84085165Y-108692457D01*
X84105647Y-108550000D01*
X84085165Y-108407543D01*
X84025377Y-108276627D01*
X83931128Y-108167857D01*
X83810053Y-108090047D01*
X83810051Y-108090046D01*
X83810049Y-108090045D01*
X83810050Y-108090045D01*
X83671963Y-108049500D01*
X83671961Y-108049500D01*
X83528039Y-108049500D01*
X83528036Y-108049500D01*
X83389949Y-108090045D01*
X83268873Y-108167856D01*
X83174623Y-108276626D01*
X83174622Y-108276628D01*
X83114834Y-108407543D01*
X83094353Y-108550000D01*
X31150000Y-108550000D01*
X31150000Y-107540000D01*
X37595712Y-107540000D01*
X37614816Y-107733972D01*
X37614816Y-107733974D01*
X37614817Y-107733976D01*
X37621503Y-107756017D01*
X37671400Y-107920504D01*
X37763276Y-108092391D01*
X37763281Y-108092398D01*
X37886931Y-108243068D01*
X37927825Y-108276628D01*
X38037603Y-108366720D01*
X38037606Y-108366721D01*
X38037608Y-108366723D01*
X38209495Y-108458599D01*
X38209498Y-108458599D01*
X38209502Y-108458602D01*
X38396024Y-108515183D01*
X38590000Y-108534288D01*
X38783976Y-108515183D01*
X38970498Y-108458602D01*
X39142397Y-108366720D01*
X39293068Y-108243068D01*
X39416720Y-108092397D01*
X39508602Y-107920498D01*
X39565183Y-107733976D01*
X39584288Y-107540000D01*
X92595712Y-107540000D01*
X92614816Y-107733972D01*
X92614816Y-107733974D01*
X92614817Y-107733976D01*
X92621503Y-107756017D01*
X92671400Y-107920504D01*
X92763276Y-108092391D01*
X92763281Y-108092398D01*
X92886931Y-108243068D01*
X92927825Y-108276628D01*
X93037603Y-108366720D01*
X93037606Y-108366721D01*
X93037608Y-108366723D01*
X93209495Y-108458599D01*
X93209498Y-108458599D01*
X93209502Y-108458602D01*
X93396024Y-108515183D01*
X93590000Y-108534288D01*
X93783976Y-108515183D01*
X93970498Y-108458602D01*
X94142397Y-108366720D01*
X94293068Y-108243068D01*
X94416720Y-108092397D01*
X94508602Y-107920498D01*
X94565183Y-107733976D01*
X94584288Y-107540000D01*
X94565183Y-107346024D01*
X94508602Y-107159502D01*
X94508599Y-107159498D01*
X94508599Y-107159495D01*
X94416723Y-106987608D01*
X94416721Y-106987606D01*
X94416720Y-106987603D01*
X94379114Y-106941780D01*
X94293068Y-106836931D01*
X94205419Y-106765000D01*
X117147422Y-106765000D01*
X117167943Y-106966819D01*
X117228669Y-107160364D01*
X117228676Y-107160379D01*
X117327118Y-107337738D01*
X117327121Y-107337743D01*
X117459255Y-107491660D01*
X117459256Y-107491662D01*
X117619668Y-107615829D01*
X117619672Y-107615832D01*
X117801799Y-107705170D01*
X117998182Y-107756017D01*
X118200780Y-107766292D01*
X118401299Y-107735573D01*
X118591530Y-107665120D01*
X118763684Y-107557815D01*
X118910715Y-107418052D01*
X119026601Y-107251553D01*
X119106600Y-107065135D01*
X119147435Y-106866429D01*
X119150000Y-106765000D01*
X119147435Y-106663571D01*
X119106600Y-106464865D01*
X119026601Y-106278447D01*
X118910715Y-106111948D01*
X118763684Y-105972185D01*
X118591530Y-105864880D01*
X118488502Y-105826723D01*
X118401300Y-105794427D01*
X118401294Y-105794426D01*
X118200781Y-105763708D01*
X118200780Y-105763708D01*
X118099481Y-105768845D01*
X117998181Y-105773983D01*
X117801798Y-105824830D01*
X117619668Y-105914170D01*
X117459256Y-106038337D01*
X117459255Y-106038339D01*
X117327121Y-106192256D01*
X117327118Y-106192261D01*
X117228676Y-106369620D01*
X117228669Y-106369635D01*
X117167943Y-106563180D01*
X117147422Y-106765000D01*
X94205419Y-106765000D01*
X94142398Y-106713281D01*
X94142391Y-106713276D01*
X93970504Y-106621400D01*
X93970498Y-106621398D01*
X93783976Y-106564817D01*
X93783974Y-106564816D01*
X93783972Y-106564816D01*
X93590000Y-106545712D01*
X93396027Y-106564816D01*
X93209495Y-106621400D01*
X93037608Y-106713276D01*
X93037601Y-106713281D01*
X92886931Y-106836931D01*
X92763281Y-106987601D01*
X92763276Y-106987608D01*
X92671400Y-107159495D01*
X92614816Y-107346027D01*
X92595712Y-107540000D01*
X39584288Y-107540000D01*
X39565183Y-107346024D01*
X39508602Y-107159502D01*
X39508599Y-107159498D01*
X39508599Y-107159495D01*
X39423347Y-107000000D01*
X79994353Y-107000000D01*
X80014834Y-107142456D01*
X80064658Y-107251553D01*
X80074623Y-107273373D01*
X80168872Y-107382143D01*
X80289947Y-107459953D01*
X80289950Y-107459954D01*
X80289949Y-107459954D01*
X80428036Y-107500499D01*
X80428038Y-107500500D01*
X80428039Y-107500500D01*
X80571962Y-107500500D01*
X80571962Y-107500499D01*
X80710053Y-107459953D01*
X80831128Y-107382143D01*
X80925377Y-107273373D01*
X80985165Y-107142457D01*
X81005647Y-107000000D01*
X80985165Y-106857543D01*
X80925377Y-106726627D01*
X80831128Y-106617857D01*
X80710053Y-106540047D01*
X80710051Y-106540046D01*
X80710049Y-106540045D01*
X80710050Y-106540045D01*
X80571963Y-106499500D01*
X80571961Y-106499500D01*
X80428039Y-106499500D01*
X80428036Y-106499500D01*
X80289949Y-106540045D01*
X80168873Y-106617856D01*
X80074623Y-106726626D01*
X80074622Y-106726628D01*
X80014834Y-106857543D01*
X79994353Y-107000000D01*
X39423347Y-107000000D01*
X39416723Y-106987608D01*
X39416721Y-106987606D01*
X39416720Y-106987603D01*
X39379114Y-106941780D01*
X39293068Y-106836931D01*
X39142398Y-106713281D01*
X39142391Y-106713276D01*
X38970504Y-106621400D01*
X38970498Y-106621398D01*
X38783976Y-106564817D01*
X38783974Y-106564816D01*
X38783972Y-106564816D01*
X38590000Y-106545712D01*
X38396027Y-106564816D01*
X38209495Y-106621400D01*
X38037608Y-106713276D01*
X38037601Y-106713281D01*
X37886931Y-106836931D01*
X37763281Y-106987601D01*
X37763276Y-106987608D01*
X37671400Y-107159495D01*
X37614816Y-107346027D01*
X37595712Y-107540000D01*
X31150000Y-107540000D01*
X31150000Y-105000000D01*
X37595712Y-105000000D01*
X37614816Y-105193972D01*
X37671400Y-105380504D01*
X37763276Y-105552391D01*
X37763281Y-105552398D01*
X37886931Y-105703068D01*
X37991780Y-105789114D01*
X38037603Y-105826720D01*
X38037606Y-105826721D01*
X38037608Y-105826723D01*
X38209495Y-105918599D01*
X38209498Y-105918599D01*
X38209502Y-105918602D01*
X38396024Y-105975183D01*
X38590000Y-105994288D01*
X38783976Y-105975183D01*
X38970498Y-105918602D01*
X39142397Y-105826720D01*
X39293068Y-105703068D01*
X39416720Y-105552397D01*
X39508602Y-105380498D01*
X39565183Y-105193976D01*
X39584288Y-105000000D01*
X92595712Y-105000000D01*
X92614816Y-105193972D01*
X92671400Y-105380504D01*
X92763276Y-105552391D01*
X92763281Y-105552398D01*
X92886931Y-105703068D01*
X92991780Y-105789114D01*
X93037603Y-105826720D01*
X93037606Y-105826721D01*
X93037608Y-105826723D01*
X93209495Y-105918599D01*
X93209498Y-105918599D01*
X93209502Y-105918602D01*
X93396024Y-105975183D01*
X93590000Y-105994288D01*
X93783976Y-105975183D01*
X93970498Y-105918602D01*
X94142397Y-105826720D01*
X94293068Y-105703068D01*
X94416720Y-105552397D01*
X94508602Y-105380498D01*
X94565183Y-105193976D01*
X94584288Y-105000000D01*
X94565183Y-104806024D01*
X94508602Y-104619502D01*
X94508599Y-104619498D01*
X94508599Y-104619495D01*
X94416723Y-104447608D01*
X94416721Y-104447606D01*
X94416720Y-104447603D01*
X94377653Y-104400000D01*
X94293068Y-104296931D01*
X94142398Y-104173281D01*
X94142391Y-104173276D01*
X93970504Y-104081400D01*
X93970498Y-104081398D01*
X93783976Y-104024817D01*
X93783974Y-104024816D01*
X93783972Y-104024816D01*
X93590000Y-104005712D01*
X93396027Y-104024816D01*
X93209495Y-104081400D01*
X93037608Y-104173276D01*
X93037601Y-104173281D01*
X92886931Y-104296931D01*
X92763281Y-104447601D01*
X92763276Y-104447608D01*
X92671400Y-104619495D01*
X92614816Y-104806027D01*
X92595712Y-105000000D01*
X39584288Y-105000000D01*
X39565183Y-104806024D01*
X39508602Y-104619502D01*
X39508599Y-104619498D01*
X39508599Y-104619495D01*
X39416723Y-104447608D01*
X39416721Y-104447606D01*
X39416720Y-104447603D01*
X39377653Y-104400000D01*
X67794353Y-104400000D01*
X67814834Y-104542456D01*
X67874622Y-104673371D01*
X67874623Y-104673373D01*
X67968872Y-104782143D01*
X68089947Y-104859953D01*
X68089950Y-104859954D01*
X68089949Y-104859954D01*
X68228036Y-104900499D01*
X68228038Y-104900500D01*
X68228039Y-104900500D01*
X68371962Y-104900500D01*
X68371962Y-104900499D01*
X68510053Y-104859953D01*
X68631128Y-104782143D01*
X68725377Y-104673373D01*
X68785165Y-104542457D01*
X68805647Y-104400000D01*
X68785165Y-104257543D01*
X68725377Y-104126627D01*
X68631128Y-104017857D01*
X68510053Y-103940047D01*
X68510051Y-103940046D01*
X68510049Y-103940045D01*
X68510050Y-103940045D01*
X68371963Y-103899500D01*
X68371961Y-103899500D01*
X68228039Y-103899500D01*
X68228036Y-103899500D01*
X68089949Y-103940045D01*
X67968873Y-104017856D01*
X67874623Y-104126626D01*
X67874622Y-104126628D01*
X67814834Y-104257543D01*
X67794353Y-104400000D01*
X39377653Y-104400000D01*
X39293068Y-104296931D01*
X39142398Y-104173281D01*
X39142391Y-104173276D01*
X38970504Y-104081400D01*
X38970498Y-104081398D01*
X38783976Y-104024817D01*
X38783974Y-104024816D01*
X38783972Y-104024816D01*
X38590000Y-104005712D01*
X38396027Y-104024816D01*
X38209495Y-104081400D01*
X38037608Y-104173276D01*
X38037601Y-104173281D01*
X37886931Y-104296931D01*
X37763281Y-104447601D01*
X37763276Y-104447608D01*
X37671400Y-104619495D01*
X37614816Y-104806027D01*
X37595712Y-105000000D01*
X31150000Y-105000000D01*
X31150000Y-98332499D01*
X39881750Y-98332499D01*
X39881750Y-98332500D01*
X39900713Y-98549251D01*
X39900715Y-98549261D01*
X39957026Y-98759419D01*
X39957028Y-98759423D01*
X39957029Y-98759427D01*
X40036482Y-98929815D01*
X40048983Y-98956623D01*
X40048984Y-98956625D01*
X40173786Y-99134862D01*
X40327637Y-99288713D01*
X40327640Y-99288715D01*
X40505875Y-99413516D01*
X40703073Y-99505471D01*
X40913244Y-99561786D01*
X41086648Y-99576957D01*
X41129999Y-99580750D01*
X41130000Y-99580750D01*
X41130001Y-99580750D01*
X41166126Y-99577589D01*
X41346756Y-99561786D01*
X41556927Y-99505471D01*
X41754125Y-99413516D01*
X41932360Y-99288715D01*
X42086215Y-99134860D01*
X42211016Y-98956625D01*
X42302971Y-98759427D01*
X42359286Y-98549256D01*
X42378250Y-98332500D01*
X42359286Y-98115744D01*
X42310159Y-97932398D01*
X42302973Y-97905580D01*
X42302972Y-97905579D01*
X42302971Y-97905573D01*
X42211016Y-97708375D01*
X42086215Y-97530140D01*
X42086213Y-97530137D01*
X41936076Y-97380000D01*
X44580712Y-97380000D01*
X44599816Y-97573972D01*
X44599816Y-97573974D01*
X44599817Y-97573976D01*
X44638198Y-97700500D01*
X44656400Y-97760504D01*
X44748276Y-97932391D01*
X44748281Y-97932398D01*
X44871931Y-98083068D01*
X44965617Y-98159953D01*
X45022603Y-98206720D01*
X45022606Y-98206721D01*
X45022608Y-98206723D01*
X45194495Y-98298599D01*
X45194498Y-98298599D01*
X45194502Y-98298602D01*
X45381024Y-98355183D01*
X45575000Y-98374288D01*
X45768976Y-98355183D01*
X45955498Y-98298602D01*
X45967083Y-98292410D01*
X46065050Y-98240045D01*
X46127397Y-98206720D01*
X46278068Y-98083068D01*
X46401720Y-97932397D01*
X46493602Y-97760498D01*
X46550183Y-97573976D01*
X46569288Y-97380000D01*
X50930712Y-97380000D01*
X50949816Y-97573972D01*
X50949816Y-97573974D01*
X50949817Y-97573976D01*
X50988198Y-97700500D01*
X51006400Y-97760504D01*
X51098276Y-97932391D01*
X51098281Y-97932398D01*
X51221931Y-98083068D01*
X51315617Y-98159953D01*
X51372603Y-98206720D01*
X51372606Y-98206721D01*
X51372608Y-98206723D01*
X51544495Y-98298599D01*
X51544498Y-98298599D01*
X51544502Y-98298602D01*
X51731024Y-98355183D01*
X51925000Y-98374288D01*
X52118976Y-98355183D01*
X52193755Y-98332499D01*
X55121750Y-98332499D01*
X55121750Y-98332500D01*
X55140713Y-98549251D01*
X55140715Y-98549261D01*
X55197026Y-98759419D01*
X55197028Y-98759423D01*
X55197029Y-98759427D01*
X55276482Y-98929815D01*
X55288983Y-98956623D01*
X55288984Y-98956625D01*
X55413786Y-99134862D01*
X55567637Y-99288713D01*
X55567640Y-99288715D01*
X55745875Y-99413516D01*
X55943073Y-99505471D01*
X56153244Y-99561786D01*
X56326648Y-99576957D01*
X56369999Y-99580750D01*
X56370000Y-99580750D01*
X56370001Y-99580750D01*
X56406126Y-99577589D01*
X56586756Y-99561786D01*
X56796927Y-99505471D01*
X56994125Y-99413516D01*
X57172360Y-99288715D01*
X57326215Y-99134860D01*
X57451016Y-98956625D01*
X57542971Y-98759427D01*
X57599286Y-98549256D01*
X57618250Y-98332500D01*
X57599286Y-98115744D01*
X57588783Y-98076545D01*
X73320898Y-98076545D01*
X73341379Y-98219001D01*
X73382916Y-98309952D01*
X73401168Y-98349918D01*
X73495417Y-98458688D01*
X73616492Y-98536498D01*
X73616495Y-98536499D01*
X73616494Y-98536499D01*
X73754581Y-98577044D01*
X73754583Y-98577045D01*
X73754584Y-98577045D01*
X73898507Y-98577045D01*
X73898507Y-98577044D01*
X74005666Y-98545580D01*
X74036595Y-98536499D01*
X74036596Y-98536499D01*
X74036598Y-98536498D01*
X74118077Y-98484134D01*
X74185114Y-98464450D01*
X74252154Y-98484134D01*
X74297909Y-98536938D01*
X74307853Y-98606096D01*
X74294353Y-98699998D01*
X74294353Y-98700000D01*
X74307299Y-98790045D01*
X74309860Y-98807853D01*
X74299916Y-98877011D01*
X74254161Y-98929815D01*
X74187122Y-98949500D01*
X74078036Y-98949500D01*
X73939949Y-98990045D01*
X73818873Y-99067856D01*
X73724623Y-99176626D01*
X73724622Y-99176628D01*
X73664834Y-99307543D01*
X73644353Y-99450000D01*
X73664834Y-99592456D01*
X73682959Y-99632143D01*
X73724623Y-99723373D01*
X73818872Y-99832143D01*
X73939947Y-99909953D01*
X73939950Y-99909954D01*
X73939949Y-99909954D01*
X74078036Y-99950499D01*
X74078038Y-99950500D01*
X74078039Y-99950500D01*
X74221962Y-99950500D01*
X74221962Y-99950499D01*
X74360053Y-99909953D01*
X74481128Y-99832143D01*
X74575377Y-99723373D01*
X74635165Y-99592457D01*
X74655647Y-99450000D01*
X74640140Y-99342146D01*
X74650084Y-99272989D01*
X74670004Y-99250000D01*
X83244353Y-99250000D01*
X83264834Y-99392456D01*
X83274452Y-99413515D01*
X83324623Y-99523373D01*
X83418872Y-99632143D01*
X83539947Y-99709953D01*
X83539950Y-99709954D01*
X83539949Y-99709954D01*
X83678036Y-99750499D01*
X83678038Y-99750500D01*
X83678039Y-99750500D01*
X83821962Y-99750500D01*
X83821962Y-99750499D01*
X83960053Y-99709953D01*
X84081128Y-99632143D01*
X84175377Y-99523373D01*
X84235165Y-99392457D01*
X84255647Y-99250000D01*
X84235165Y-99107543D01*
X84175377Y-98976627D01*
X84081128Y-98867857D01*
X83960053Y-98790047D01*
X83960051Y-98790046D01*
X83960049Y-98790045D01*
X83960050Y-98790045D01*
X83821963Y-98749500D01*
X83821961Y-98749500D01*
X83678039Y-98749500D01*
X83678036Y-98749500D01*
X83539949Y-98790045D01*
X83418873Y-98867856D01*
X83324623Y-98976626D01*
X83324622Y-98976628D01*
X83264834Y-99107543D01*
X83244353Y-99250000D01*
X74670004Y-99250000D01*
X74695839Y-99220185D01*
X74762878Y-99200500D01*
X74871962Y-99200500D01*
X74871962Y-99200499D01*
X75010053Y-99159953D01*
X75131128Y-99082143D01*
X75225377Y-98973373D01*
X75285165Y-98842457D01*
X75305647Y-98700000D01*
X75285165Y-98557543D01*
X75236254Y-98450445D01*
X75226311Y-98381290D01*
X75255335Y-98317734D01*
X75314113Y-98279959D01*
X75383983Y-98279959D01*
X75416087Y-98294620D01*
X75422284Y-98298602D01*
X75439947Y-98309953D01*
X75439949Y-98309954D01*
X75578036Y-98350499D01*
X75578038Y-98350500D01*
X75578039Y-98350500D01*
X75721962Y-98350500D01*
X75721962Y-98350499D01*
X75783266Y-98332499D01*
X94881750Y-98332499D01*
X94881750Y-98332500D01*
X94900713Y-98549251D01*
X94900715Y-98549261D01*
X94957026Y-98759419D01*
X94957028Y-98759423D01*
X94957029Y-98759427D01*
X95036482Y-98929815D01*
X95048983Y-98956623D01*
X95048984Y-98956625D01*
X95173786Y-99134862D01*
X95327637Y-99288713D01*
X95327640Y-99288715D01*
X95505875Y-99413516D01*
X95703073Y-99505471D01*
X95913244Y-99561786D01*
X96086648Y-99576957D01*
X96129999Y-99580750D01*
X96130000Y-99580750D01*
X96130001Y-99580750D01*
X96166126Y-99577589D01*
X96346756Y-99561786D01*
X96556927Y-99505471D01*
X96754125Y-99413516D01*
X96932360Y-99288715D01*
X97086215Y-99134860D01*
X97211016Y-98956625D01*
X97302971Y-98759427D01*
X97359286Y-98549256D01*
X97378250Y-98332500D01*
X97359286Y-98115744D01*
X97310159Y-97932398D01*
X97302973Y-97905580D01*
X97302972Y-97905579D01*
X97302971Y-97905573D01*
X97211016Y-97708375D01*
X97086215Y-97530140D01*
X97086213Y-97530137D01*
X96936076Y-97380000D01*
X99580712Y-97380000D01*
X99599816Y-97573972D01*
X99599816Y-97573974D01*
X99599817Y-97573976D01*
X99638198Y-97700500D01*
X99656400Y-97760504D01*
X99748276Y-97932391D01*
X99748281Y-97932398D01*
X99871931Y-98083068D01*
X99965617Y-98159953D01*
X100022603Y-98206720D01*
X100022606Y-98206721D01*
X100022608Y-98206723D01*
X100194495Y-98298599D01*
X100194498Y-98298599D01*
X100194502Y-98298602D01*
X100381024Y-98355183D01*
X100575000Y-98374288D01*
X100768976Y-98355183D01*
X100955498Y-98298602D01*
X100967083Y-98292410D01*
X101065050Y-98240045D01*
X101127397Y-98206720D01*
X101278068Y-98083068D01*
X101401720Y-97932397D01*
X101493602Y-97760498D01*
X101550183Y-97573976D01*
X101569288Y-97380000D01*
X105930712Y-97380000D01*
X105949816Y-97573972D01*
X105949816Y-97573974D01*
X105949817Y-97573976D01*
X105988198Y-97700500D01*
X106006400Y-97760504D01*
X106098276Y-97932391D01*
X106098281Y-97932398D01*
X106221931Y-98083068D01*
X106315617Y-98159953D01*
X106372603Y-98206720D01*
X106372606Y-98206721D01*
X106372608Y-98206723D01*
X106544495Y-98298599D01*
X106544498Y-98298599D01*
X106544502Y-98298602D01*
X106731024Y-98355183D01*
X106925000Y-98374288D01*
X107118976Y-98355183D01*
X107193755Y-98332499D01*
X110121750Y-98332499D01*
X110121750Y-98332500D01*
X110140713Y-98549251D01*
X110140715Y-98549261D01*
X110197026Y-98759419D01*
X110197028Y-98759423D01*
X110197029Y-98759427D01*
X110276482Y-98929815D01*
X110288983Y-98956623D01*
X110288984Y-98956625D01*
X110413786Y-99134862D01*
X110567637Y-99288713D01*
X110567640Y-99288715D01*
X110745875Y-99413516D01*
X110943073Y-99505471D01*
X111153244Y-99561786D01*
X111326648Y-99576957D01*
X111369999Y-99580750D01*
X111370000Y-99580750D01*
X111370001Y-99580750D01*
X111406126Y-99577589D01*
X111586756Y-99561786D01*
X111796927Y-99505471D01*
X111994125Y-99413516D01*
X112172360Y-99288715D01*
X112326215Y-99134860D01*
X112451016Y-98956625D01*
X112542971Y-98759427D01*
X112599286Y-98549256D01*
X112618250Y-98332500D01*
X112599286Y-98115744D01*
X112550159Y-97932398D01*
X112542973Y-97905580D01*
X112542972Y-97905579D01*
X112542971Y-97905573D01*
X112451016Y-97708375D01*
X112326215Y-97530140D01*
X112326213Y-97530137D01*
X112172362Y-97376286D01*
X111994125Y-97251484D01*
X111994123Y-97251483D01*
X111883717Y-97200000D01*
X111796927Y-97159529D01*
X111796923Y-97159528D01*
X111796919Y-97159526D01*
X111586761Y-97103215D01*
X111586751Y-97103213D01*
X111370001Y-97084250D01*
X111369999Y-97084250D01*
X111153248Y-97103213D01*
X111153238Y-97103215D01*
X110943080Y-97159526D01*
X110943071Y-97159530D01*
X110745876Y-97251483D01*
X110745874Y-97251484D01*
X110567637Y-97376286D01*
X110413786Y-97530137D01*
X110288984Y-97708374D01*
X110288983Y-97708376D01*
X110197030Y-97905571D01*
X110197026Y-97905580D01*
X110140715Y-98115738D01*
X110140713Y-98115748D01*
X110121750Y-98332499D01*
X107193755Y-98332499D01*
X107305498Y-98298602D01*
X107317083Y-98292410D01*
X107415050Y-98240045D01*
X107477397Y-98206720D01*
X107628068Y-98083068D01*
X107751720Y-97932397D01*
X107843602Y-97760498D01*
X107900183Y-97573976D01*
X107919288Y-97380000D01*
X107900183Y-97186024D01*
X107843602Y-96999502D01*
X107843599Y-96999498D01*
X107843599Y-96999495D01*
X107751723Y-96827608D01*
X107751721Y-96827606D01*
X107751720Y-96827603D01*
X107679865Y-96740047D01*
X107628068Y-96676931D01*
X107477398Y-96553281D01*
X107477391Y-96553276D01*
X107305504Y-96461400D01*
X107305498Y-96461398D01*
X107118976Y-96404817D01*
X107118974Y-96404816D01*
X107118972Y-96404816D01*
X106925000Y-96385712D01*
X106731027Y-96404816D01*
X106544495Y-96461400D01*
X106372608Y-96553276D01*
X106372601Y-96553281D01*
X106221931Y-96676931D01*
X106098281Y-96827601D01*
X106098276Y-96827608D01*
X106006400Y-96999495D01*
X105949816Y-97186027D01*
X105930712Y-97380000D01*
X101569288Y-97380000D01*
X101550183Y-97186024D01*
X101493602Y-96999502D01*
X101493599Y-96999498D01*
X101493599Y-96999495D01*
X101401723Y-96827608D01*
X101401721Y-96827606D01*
X101401720Y-96827603D01*
X101329865Y-96740047D01*
X101278068Y-96676931D01*
X101127398Y-96553281D01*
X101127391Y-96553276D01*
X100955504Y-96461400D01*
X100955498Y-96461398D01*
X100768976Y-96404817D01*
X100768974Y-96404816D01*
X100768972Y-96404816D01*
X100575000Y-96385712D01*
X100381027Y-96404816D01*
X100194495Y-96461400D01*
X100022608Y-96553276D01*
X100022601Y-96553281D01*
X99871931Y-96676931D01*
X99748281Y-96827601D01*
X99748276Y-96827608D01*
X99656400Y-96999495D01*
X99599816Y-97186027D01*
X99580712Y-97380000D01*
X96936076Y-97380000D01*
X96932362Y-97376286D01*
X96754125Y-97251484D01*
X96754123Y-97251483D01*
X96643717Y-97200000D01*
X96556927Y-97159529D01*
X96556923Y-97159528D01*
X96556919Y-97159526D01*
X96346761Y-97103215D01*
X96346751Y-97103213D01*
X96130001Y-97084250D01*
X96129999Y-97084250D01*
X95913248Y-97103213D01*
X95913238Y-97103215D01*
X95703080Y-97159526D01*
X95703071Y-97159530D01*
X95505876Y-97251483D01*
X95505874Y-97251484D01*
X95327637Y-97376286D01*
X95173786Y-97530137D01*
X95048984Y-97708374D01*
X95048983Y-97708376D01*
X94957030Y-97905571D01*
X94957026Y-97905580D01*
X94900715Y-98115738D01*
X94900713Y-98115748D01*
X94881750Y-98332499D01*
X75783266Y-98332499D01*
X75833553Y-98317734D01*
X75860050Y-98309954D01*
X75860050Y-98309953D01*
X75860053Y-98309953D01*
X75981128Y-98232143D01*
X76075377Y-98123373D01*
X76135165Y-97992457D01*
X76155647Y-97850000D01*
X76135165Y-97707543D01*
X76131720Y-97700000D01*
X83194353Y-97700000D01*
X83214834Y-97842456D01*
X83255910Y-97932398D01*
X83274623Y-97973373D01*
X83368872Y-98082143D01*
X83489947Y-98159953D01*
X83489950Y-98159954D01*
X83489949Y-98159954D01*
X83597107Y-98191417D01*
X83624633Y-98199500D01*
X83628036Y-98200499D01*
X83628038Y-98200500D01*
X83628039Y-98200500D01*
X83771962Y-98200500D01*
X83771962Y-98200499D01*
X83910053Y-98159953D01*
X84031128Y-98082143D01*
X84125377Y-97973373D01*
X84185165Y-97842457D01*
X84205647Y-97700000D01*
X84185165Y-97557543D01*
X84125377Y-97426627D01*
X84031128Y-97317857D01*
X83910053Y-97240047D01*
X83910051Y-97240046D01*
X83910049Y-97240045D01*
X83910050Y-97240045D01*
X83771963Y-97199500D01*
X83771961Y-97199500D01*
X83628039Y-97199500D01*
X83628036Y-97199500D01*
X83489949Y-97240045D01*
X83368873Y-97317856D01*
X83274623Y-97426626D01*
X83274622Y-97426628D01*
X83214834Y-97557543D01*
X83194353Y-97700000D01*
X76131720Y-97700000D01*
X76075377Y-97576627D01*
X75981128Y-97467857D01*
X75860053Y-97390047D01*
X75860051Y-97390046D01*
X75860049Y-97390045D01*
X75860050Y-97390045D01*
X75721963Y-97349500D01*
X75721961Y-97349500D01*
X75578039Y-97349500D01*
X75578036Y-97349500D01*
X75439949Y-97390045D01*
X75318872Y-97467857D01*
X75318869Y-97467859D01*
X75268422Y-97526078D01*
X75209644Y-97563852D01*
X75187238Y-97563852D01*
X75198027Y-97587476D01*
X75188084Y-97656635D01*
X75164834Y-97707544D01*
X75144353Y-97850000D01*
X75164834Y-97992456D01*
X75213744Y-98099551D01*
X75223688Y-98168709D01*
X75194663Y-98232265D01*
X75135885Y-98270040D01*
X75066016Y-98270040D01*
X75033913Y-98255380D01*
X75010052Y-98240046D01*
X75010050Y-98240045D01*
X74871963Y-98199500D01*
X74871961Y-98199500D01*
X74728039Y-98199500D01*
X74728036Y-98199500D01*
X74589949Y-98240045D01*
X74508468Y-98292410D01*
X74441428Y-98312094D01*
X74374389Y-98292409D01*
X74328634Y-98239605D01*
X74318691Y-98170447D01*
X74325459Y-98123373D01*
X74332192Y-98076545D01*
X74311710Y-97934088D01*
X74267806Y-97837954D01*
X74257863Y-97768798D01*
X74286887Y-97705242D01*
X74345665Y-97667467D01*
X74415535Y-97667467D01*
X74528036Y-97700499D01*
X74528038Y-97700500D01*
X74528039Y-97700500D01*
X74671962Y-97700500D01*
X74671962Y-97700499D01*
X74810053Y-97659953D01*
X74931128Y-97582143D01*
X74981578Y-97523919D01*
X75040353Y-97486147D01*
X75062761Y-97486147D01*
X75051972Y-97462521D01*
X75061915Y-97393365D01*
X75085165Y-97342457D01*
X75105647Y-97200000D01*
X75093519Y-97115649D01*
X75103462Y-97046493D01*
X75149217Y-96993689D01*
X75216257Y-96974004D01*
X75251190Y-96979026D01*
X75290715Y-96990632D01*
X75329583Y-97002045D01*
X75329584Y-97002045D01*
X75473507Y-97002045D01*
X75473507Y-97002044D01*
X75611598Y-96961498D01*
X75732673Y-96883688D01*
X75826922Y-96774918D01*
X75886710Y-96644002D01*
X75907192Y-96501545D01*
X75886710Y-96359088D01*
X75826922Y-96228172D01*
X75732673Y-96119402D01*
X75611598Y-96041592D01*
X75611596Y-96041591D01*
X75611594Y-96041590D01*
X75611595Y-96041590D01*
X75473508Y-96001045D01*
X75473506Y-96001045D01*
X75329584Y-96001045D01*
X75329581Y-96001045D01*
X75191494Y-96041590D01*
X75070418Y-96119401D01*
X74976168Y-96228171D01*
X74976167Y-96228173D01*
X74916379Y-96359088D01*
X74895898Y-96501545D01*
X74908025Y-96585894D01*
X74898081Y-96655052D01*
X74852326Y-96707856D01*
X74785286Y-96727540D01*
X74750353Y-96722517D01*
X74671963Y-96699500D01*
X74671961Y-96699500D01*
X74528039Y-96699500D01*
X74528036Y-96699500D01*
X74389949Y-96740045D01*
X74268873Y-96817856D01*
X74174623Y-96926626D01*
X74174622Y-96926628D01*
X74114834Y-97057543D01*
X74094353Y-97200000D01*
X74114834Y-97342456D01*
X74158737Y-97438588D01*
X74168681Y-97507747D01*
X74139656Y-97571302D01*
X74080878Y-97609077D01*
X74011009Y-97609077D01*
X73898509Y-97576045D01*
X73898506Y-97576045D01*
X73754584Y-97576045D01*
X73754581Y-97576045D01*
X73616494Y-97616590D01*
X73495418Y-97694401D01*
X73401168Y-97803171D01*
X73401167Y-97803173D01*
X73341379Y-97934088D01*
X73320898Y-98076545D01*
X57588783Y-98076545D01*
X57550159Y-97932398D01*
X57542973Y-97905580D01*
X57542972Y-97905579D01*
X57542971Y-97905573D01*
X57451016Y-97708375D01*
X57326215Y-97530140D01*
X57326213Y-97530137D01*
X57172362Y-97376286D01*
X56994125Y-97251484D01*
X56994123Y-97251483D01*
X56883717Y-97200000D01*
X56796927Y-97159529D01*
X56796923Y-97159528D01*
X56796919Y-97159526D01*
X56586761Y-97103215D01*
X56586751Y-97103213D01*
X56370001Y-97084250D01*
X56369999Y-97084250D01*
X56153248Y-97103213D01*
X56153238Y-97103215D01*
X55943080Y-97159526D01*
X55943071Y-97159530D01*
X55745876Y-97251483D01*
X55745874Y-97251484D01*
X55567637Y-97376286D01*
X55413786Y-97530137D01*
X55288984Y-97708374D01*
X55288983Y-97708376D01*
X55197030Y-97905571D01*
X55197026Y-97905580D01*
X55140715Y-98115738D01*
X55140713Y-98115748D01*
X55121750Y-98332499D01*
X52193755Y-98332499D01*
X52305498Y-98298602D01*
X52317083Y-98292410D01*
X52415050Y-98240045D01*
X52477397Y-98206720D01*
X52628068Y-98083068D01*
X52751720Y-97932397D01*
X52843602Y-97760498D01*
X52900183Y-97573976D01*
X52919288Y-97380000D01*
X52900183Y-97186024D01*
X52843602Y-96999502D01*
X52843599Y-96999498D01*
X52843599Y-96999495D01*
X52751723Y-96827608D01*
X52751721Y-96827606D01*
X52751720Y-96827603D01*
X52679865Y-96740047D01*
X52628068Y-96676931D01*
X52477398Y-96553281D01*
X52477391Y-96553276D01*
X52305504Y-96461400D01*
X52305498Y-96461398D01*
X52118976Y-96404817D01*
X52118974Y-96404816D01*
X52118972Y-96404816D01*
X51925000Y-96385712D01*
X51731027Y-96404816D01*
X51544495Y-96461400D01*
X51372608Y-96553276D01*
X51372601Y-96553281D01*
X51221931Y-96676931D01*
X51098281Y-96827601D01*
X51098276Y-96827608D01*
X51006400Y-96999495D01*
X50949816Y-97186027D01*
X50930712Y-97380000D01*
X46569288Y-97380000D01*
X46550183Y-97186024D01*
X46493602Y-96999502D01*
X46493599Y-96999498D01*
X46493599Y-96999495D01*
X46401723Y-96827608D01*
X46401721Y-96827606D01*
X46401720Y-96827603D01*
X46329865Y-96740047D01*
X46278068Y-96676931D01*
X46127398Y-96553281D01*
X46127391Y-96553276D01*
X45955504Y-96461400D01*
X45955498Y-96461398D01*
X45768976Y-96404817D01*
X45768974Y-96404816D01*
X45768972Y-96404816D01*
X45575000Y-96385712D01*
X45381027Y-96404816D01*
X45194495Y-96461400D01*
X45022608Y-96553276D01*
X45022601Y-96553281D01*
X44871931Y-96676931D01*
X44748281Y-96827601D01*
X44748276Y-96827608D01*
X44656400Y-96999495D01*
X44599816Y-97186027D01*
X44580712Y-97380000D01*
X41936076Y-97380000D01*
X41932362Y-97376286D01*
X41754125Y-97251484D01*
X41754123Y-97251483D01*
X41643717Y-97200000D01*
X41556927Y-97159529D01*
X41556923Y-97159528D01*
X41556919Y-97159526D01*
X41346761Y-97103215D01*
X41346751Y-97103213D01*
X41130001Y-97084250D01*
X41129999Y-97084250D01*
X40913248Y-97103213D01*
X40913238Y-97103215D01*
X40703080Y-97159526D01*
X40703071Y-97159530D01*
X40505876Y-97251483D01*
X40505874Y-97251484D01*
X40327637Y-97376286D01*
X40173786Y-97530137D01*
X40048984Y-97708374D01*
X40048983Y-97708376D01*
X39957030Y-97905571D01*
X39957026Y-97905580D01*
X39900715Y-98115738D01*
X39900713Y-98115748D01*
X39881750Y-98332499D01*
X31150000Y-98332499D01*
X31150000Y-94900000D01*
X83094353Y-94900000D01*
X83114834Y-95042456D01*
X83174622Y-95173371D01*
X83174623Y-95173373D01*
X83268872Y-95282143D01*
X83389947Y-95359953D01*
X83389950Y-95359954D01*
X83389949Y-95359954D01*
X83528036Y-95400499D01*
X83528038Y-95400500D01*
X83528039Y-95400500D01*
X83671962Y-95400500D01*
X83671962Y-95400499D01*
X83810053Y-95359953D01*
X83931128Y-95282143D01*
X84025377Y-95173373D01*
X84085165Y-95042457D01*
X84105647Y-94900000D01*
X84085165Y-94757543D01*
X84025377Y-94626627D01*
X83931128Y-94517857D01*
X83810053Y-94440047D01*
X83810051Y-94440046D01*
X83810049Y-94440045D01*
X83810050Y-94440045D01*
X83671963Y-94399500D01*
X83671961Y-94399500D01*
X83528039Y-94399500D01*
X83528036Y-94399500D01*
X83389949Y-94440045D01*
X83268873Y-94517856D01*
X83174623Y-94626626D01*
X83174622Y-94626628D01*
X83114834Y-94757543D01*
X83094353Y-94900000D01*
X31150000Y-94900000D01*
X31150000Y-93765000D01*
X34147422Y-93765000D01*
X34167943Y-93966819D01*
X34228669Y-94160364D01*
X34228676Y-94160379D01*
X34327118Y-94337738D01*
X34327121Y-94337743D01*
X34459255Y-94491660D01*
X34459256Y-94491662D01*
X34619668Y-94615829D01*
X34619672Y-94615832D01*
X34801799Y-94705170D01*
X34998182Y-94756017D01*
X35200780Y-94766292D01*
X35401299Y-94735573D01*
X35591530Y-94665120D01*
X35763684Y-94557815D01*
X35910715Y-94418052D01*
X36026601Y-94251553D01*
X36106600Y-94065135D01*
X36147435Y-93866429D01*
X36148110Y-93839737D01*
X36150000Y-93765014D01*
X36150000Y-93764985D01*
X36147435Y-93663575D01*
X36147435Y-93663571D01*
X36106600Y-93464865D01*
X36026601Y-93278447D01*
X36024329Y-93275183D01*
X35910715Y-93111948D01*
X35861468Y-93065135D01*
X35763684Y-92972185D01*
X35591530Y-92864880D01*
X35557827Y-92852398D01*
X35401300Y-92794427D01*
X35401294Y-92794426D01*
X35200781Y-92763708D01*
X35200780Y-92763708D01*
X35099481Y-92768845D01*
X34998181Y-92773983D01*
X34801798Y-92824830D01*
X34619668Y-92914170D01*
X34459256Y-93038337D01*
X34459255Y-93038339D01*
X34327121Y-93192256D01*
X34327118Y-93192261D01*
X34228676Y-93369620D01*
X34228669Y-93369635D01*
X34167943Y-93563180D01*
X34147422Y-93765000D01*
X31150000Y-93765000D01*
X31150000Y-92300000D01*
X44580712Y-92300000D01*
X44599816Y-92493972D01*
X44599816Y-92493974D01*
X44599817Y-92493976D01*
X44656398Y-92680498D01*
X44656400Y-92680504D01*
X44748276Y-92852391D01*
X44748279Y-92852395D01*
X44748280Y-92852397D01*
X44759796Y-92866429D01*
X44871931Y-93003068D01*
X44947561Y-93065135D01*
X45022603Y-93126720D01*
X45022606Y-93126721D01*
X45022608Y-93126723D01*
X45194495Y-93218599D01*
X45194498Y-93218599D01*
X45194502Y-93218602D01*
X45381024Y-93275183D01*
X45575000Y-93294288D01*
X45768976Y-93275183D01*
X45955498Y-93218602D01*
X46127397Y-93126720D01*
X46278068Y-93003068D01*
X46401720Y-92852397D01*
X46493602Y-92680498D01*
X46550183Y-92493976D01*
X46569288Y-92300000D01*
X50930712Y-92300000D01*
X50949816Y-92493972D01*
X50949816Y-92493974D01*
X50949817Y-92493976D01*
X51006398Y-92680498D01*
X51006400Y-92680504D01*
X51098276Y-92852391D01*
X51098279Y-92852395D01*
X51098280Y-92852397D01*
X51109796Y-92866429D01*
X51221931Y-93003068D01*
X51297561Y-93065135D01*
X51372603Y-93126720D01*
X51372606Y-93126721D01*
X51372608Y-93126723D01*
X51544495Y-93218599D01*
X51544498Y-93218599D01*
X51544502Y-93218602D01*
X51731024Y-93275183D01*
X51925000Y-93294288D01*
X52118976Y-93275183D01*
X52305498Y-93218602D01*
X52477397Y-93126720D01*
X52628068Y-93003068D01*
X52751720Y-92852397D01*
X52843602Y-92680498D01*
X52900183Y-92493976D01*
X52919288Y-92300000D01*
X99580712Y-92300000D01*
X99599816Y-92493972D01*
X99599816Y-92493974D01*
X99599817Y-92493976D01*
X99656398Y-92680498D01*
X99656400Y-92680504D01*
X99748276Y-92852391D01*
X99748279Y-92852395D01*
X99748280Y-92852397D01*
X99759796Y-92866429D01*
X99871931Y-93003068D01*
X99947561Y-93065135D01*
X100022603Y-93126720D01*
X100022606Y-93126721D01*
X100022608Y-93126723D01*
X100194495Y-93218599D01*
X100194498Y-93218599D01*
X100194502Y-93218602D01*
X100381024Y-93275183D01*
X100575000Y-93294288D01*
X100768976Y-93275183D01*
X100955498Y-93218602D01*
X101127397Y-93126720D01*
X101278068Y-93003068D01*
X101401720Y-92852397D01*
X101493602Y-92680498D01*
X101550183Y-92493976D01*
X101569288Y-92300000D01*
X105930712Y-92300000D01*
X105949816Y-92493972D01*
X105949816Y-92493974D01*
X105949817Y-92493976D01*
X106006398Y-92680498D01*
X106006400Y-92680504D01*
X106098276Y-92852391D01*
X106098279Y-92852395D01*
X106098280Y-92852397D01*
X106109796Y-92866429D01*
X106221931Y-93003068D01*
X106297561Y-93065135D01*
X106372603Y-93126720D01*
X106372606Y-93126721D01*
X106372608Y-93126723D01*
X106544495Y-93218599D01*
X106544498Y-93218599D01*
X106544502Y-93218602D01*
X106731024Y-93275183D01*
X106925000Y-93294288D01*
X107118976Y-93275183D01*
X107305498Y-93218602D01*
X107477397Y-93126720D01*
X107628068Y-93003068D01*
X107751720Y-92852397D01*
X107798435Y-92765000D01*
X112147422Y-92765000D01*
X112167943Y-92966819D01*
X112228669Y-93160364D01*
X112228676Y-93160379D01*
X112327118Y-93337738D01*
X112327121Y-93337743D01*
X112459255Y-93491660D01*
X112459256Y-93491662D01*
X112619668Y-93615829D01*
X112619672Y-93615832D01*
X112801799Y-93705170D01*
X112998182Y-93756017D01*
X113200780Y-93766292D01*
X113401299Y-93735573D01*
X113591530Y-93665120D01*
X113763684Y-93557815D01*
X113910715Y-93418052D01*
X114026601Y-93251553D01*
X114106600Y-93065135D01*
X114147435Y-92866429D01*
X114150000Y-92765000D01*
X114149967Y-92763708D01*
X114147435Y-92663575D01*
X114147435Y-92663571D01*
X114106600Y-92464865D01*
X114026601Y-92278447D01*
X113910715Y-92111948D01*
X113763684Y-91972185D01*
X113591530Y-91864880D01*
X113483391Y-91824830D01*
X113401300Y-91794427D01*
X113401294Y-91794426D01*
X113200781Y-91763708D01*
X113200780Y-91763708D01*
X113099481Y-91768845D01*
X112998181Y-91773983D01*
X112801798Y-91824830D01*
X112619668Y-91914170D01*
X112459256Y-92038337D01*
X112459255Y-92038339D01*
X112327121Y-92192256D01*
X112327118Y-92192261D01*
X112228676Y-92369620D01*
X112228669Y-92369635D01*
X112167943Y-92563180D01*
X112147422Y-92765000D01*
X107798435Y-92765000D01*
X107843602Y-92680498D01*
X107900183Y-92493976D01*
X107919288Y-92300000D01*
X107900183Y-92106024D01*
X107843602Y-91919502D01*
X107843599Y-91919498D01*
X107843599Y-91919495D01*
X107751723Y-91747608D01*
X107751721Y-91747606D01*
X107751720Y-91747603D01*
X107714114Y-91701780D01*
X107628068Y-91596931D01*
X107477398Y-91473281D01*
X107477391Y-91473276D01*
X107305504Y-91381400D01*
X107305498Y-91381398D01*
X107118976Y-91324817D01*
X107118974Y-91324816D01*
X107118972Y-91324816D01*
X106925000Y-91305712D01*
X106731027Y-91324816D01*
X106544495Y-91381400D01*
X106372608Y-91473276D01*
X106372601Y-91473281D01*
X106221931Y-91596931D01*
X106098281Y-91747601D01*
X106098276Y-91747608D01*
X106006400Y-91919495D01*
X105949816Y-92106027D01*
X105930712Y-92300000D01*
X101569288Y-92300000D01*
X101550183Y-92106024D01*
X101493602Y-91919502D01*
X101493599Y-91919498D01*
X101493599Y-91919495D01*
X101401723Y-91747608D01*
X101401721Y-91747606D01*
X101401720Y-91747603D01*
X101364114Y-91701780D01*
X101278068Y-91596931D01*
X101127398Y-91473281D01*
X101127391Y-91473276D01*
X100955504Y-91381400D01*
X100955498Y-91381398D01*
X100768976Y-91324817D01*
X100768974Y-91324816D01*
X100768972Y-91324816D01*
X100575000Y-91305712D01*
X100381027Y-91324816D01*
X100194495Y-91381400D01*
X100022608Y-91473276D01*
X100022601Y-91473281D01*
X99871931Y-91596931D01*
X99748281Y-91747601D01*
X99748276Y-91747608D01*
X99656400Y-91919495D01*
X99599816Y-92106027D01*
X99580712Y-92300000D01*
X52919288Y-92300000D01*
X52900183Y-92106024D01*
X52843602Y-91919502D01*
X52843599Y-91919498D01*
X52843599Y-91919495D01*
X52751723Y-91747608D01*
X52751721Y-91747606D01*
X52751720Y-91747603D01*
X52714114Y-91701780D01*
X52628068Y-91596931D01*
X52477398Y-91473281D01*
X52477391Y-91473276D01*
X52305504Y-91381400D01*
X52305498Y-91381398D01*
X52118976Y-91324817D01*
X52118974Y-91324816D01*
X52118972Y-91324816D01*
X51925000Y-91305712D01*
X51731027Y-91324816D01*
X51544495Y-91381400D01*
X51372608Y-91473276D01*
X51372601Y-91473281D01*
X51221931Y-91596931D01*
X51098281Y-91747601D01*
X51098276Y-91747608D01*
X51006400Y-91919495D01*
X50949816Y-92106027D01*
X50930712Y-92300000D01*
X46569288Y-92300000D01*
X46550183Y-92106024D01*
X46493602Y-91919502D01*
X46493599Y-91919498D01*
X46493599Y-91919495D01*
X46401723Y-91747608D01*
X46401721Y-91747606D01*
X46401720Y-91747603D01*
X46364114Y-91701780D01*
X46278068Y-91596931D01*
X46127398Y-91473281D01*
X46127391Y-91473276D01*
X45955504Y-91381400D01*
X45955498Y-91381398D01*
X45768976Y-91324817D01*
X45768974Y-91324816D01*
X45768972Y-91324816D01*
X45575000Y-91305712D01*
X45381027Y-91324816D01*
X45194495Y-91381400D01*
X45022608Y-91473276D01*
X45022601Y-91473281D01*
X44871931Y-91596931D01*
X44748281Y-91747601D01*
X44748276Y-91747608D01*
X44656400Y-91919495D01*
X44599816Y-92106027D01*
X44580712Y-92300000D01*
X31150000Y-92300000D01*
X31150000Y-90450000D01*
X74894353Y-90450000D01*
X74914834Y-90592456D01*
X74974622Y-90723371D01*
X74974623Y-90723373D01*
X75068872Y-90832143D01*
X75189947Y-90909953D01*
X75189950Y-90909954D01*
X75189949Y-90909954D01*
X75328036Y-90950499D01*
X75328038Y-90950500D01*
X75328039Y-90950500D01*
X75471962Y-90950500D01*
X75471962Y-90950499D01*
X75610053Y-90909953D01*
X75731128Y-90832143D01*
X75825377Y-90723373D01*
X75885165Y-90592457D01*
X75905647Y-90450000D01*
X75885165Y-90307543D01*
X75825377Y-90176627D01*
X75731128Y-90067857D01*
X75610053Y-89990047D01*
X75610051Y-89990046D01*
X75610049Y-89990045D01*
X75610050Y-89990045D01*
X75471963Y-89949500D01*
X75471961Y-89949500D01*
X75328039Y-89949500D01*
X75328036Y-89949500D01*
X75189949Y-89990045D01*
X75068873Y-90067856D01*
X74974623Y-90176626D01*
X74974622Y-90176628D01*
X74914834Y-90307543D01*
X74894353Y-90450000D01*
X31150000Y-90450000D01*
X31150000Y-88750000D01*
X80494353Y-88750000D01*
X80514834Y-88892456D01*
X80574622Y-89023371D01*
X80574623Y-89023373D01*
X80668872Y-89132143D01*
X80789947Y-89209953D01*
X80789950Y-89209954D01*
X80789949Y-89209954D01*
X80928036Y-89250499D01*
X80928038Y-89250500D01*
X80928039Y-89250500D01*
X81071962Y-89250500D01*
X81071962Y-89250499D01*
X81210053Y-89209953D01*
X81331128Y-89132143D01*
X81425377Y-89023373D01*
X81485165Y-88892457D01*
X81505647Y-88750000D01*
X81485165Y-88607543D01*
X81425377Y-88476627D01*
X81331128Y-88367857D01*
X81210053Y-88290047D01*
X81210051Y-88290046D01*
X81210049Y-88290045D01*
X81210050Y-88290045D01*
X81071963Y-88249500D01*
X81071961Y-88249500D01*
X80928039Y-88249500D01*
X80928036Y-88249500D01*
X80789949Y-88290045D01*
X80668873Y-88367856D01*
X80574623Y-88476626D01*
X80574622Y-88476628D01*
X80514834Y-88607543D01*
X80494353Y-88750000D01*
X31150000Y-88750000D01*
X31150000Y-86217500D01*
X35469571Y-86217500D01*
X35489244Y-86429810D01*
X35527373Y-86563819D01*
X35547596Y-86634892D01*
X35547596Y-86634894D01*
X35642632Y-86825753D01*
X35730763Y-86942456D01*
X35771128Y-86995907D01*
X35928698Y-87139552D01*
X36109981Y-87251798D01*
X36308802Y-87328821D01*
X36518390Y-87368000D01*
X36518392Y-87368000D01*
X36731608Y-87368000D01*
X36731610Y-87368000D01*
X36941198Y-87328821D01*
X37140019Y-87251798D01*
X37321302Y-87139552D01*
X37478872Y-86995907D01*
X37607366Y-86825755D01*
X37702405Y-86634889D01*
X37760756Y-86429810D01*
X37780429Y-86217500D01*
X42479571Y-86217500D01*
X42499244Y-86429810D01*
X42537373Y-86563819D01*
X42557596Y-86634892D01*
X42557596Y-86634894D01*
X42652632Y-86825753D01*
X42740763Y-86942456D01*
X42781128Y-86995907D01*
X42938698Y-87139552D01*
X43119981Y-87251798D01*
X43318802Y-87328821D01*
X43528390Y-87368000D01*
X43528392Y-87368000D01*
X43741608Y-87368000D01*
X43741610Y-87368000D01*
X43951198Y-87328821D01*
X44150019Y-87251798D01*
X44331302Y-87139552D01*
X44488872Y-86995907D01*
X44617366Y-86825755D01*
X44630190Y-86800000D01*
X87244353Y-86800000D01*
X87264834Y-86942456D01*
X87289245Y-86995907D01*
X87324623Y-87073373D01*
X87418872Y-87182143D01*
X87539947Y-87259953D01*
X87539950Y-87259954D01*
X87539949Y-87259954D01*
X87678036Y-87300499D01*
X87678038Y-87300500D01*
X87678039Y-87300500D01*
X87821962Y-87300500D01*
X87821962Y-87300499D01*
X87960053Y-87259953D01*
X88081128Y-87182143D01*
X88175377Y-87073373D01*
X88235165Y-86942457D01*
X88255647Y-86800000D01*
X88235165Y-86657543D01*
X88175377Y-86526627D01*
X88108980Y-86450000D01*
X94994353Y-86450000D01*
X95014834Y-86592456D01*
X95044559Y-86657543D01*
X95074623Y-86723373D01*
X95168872Y-86832143D01*
X95289947Y-86909953D01*
X95289950Y-86909954D01*
X95289949Y-86909954D01*
X95428036Y-86950499D01*
X95428038Y-86950500D01*
X95428039Y-86950500D01*
X95571962Y-86950500D01*
X95571962Y-86950499D01*
X95710053Y-86909953D01*
X95831128Y-86832143D01*
X95925377Y-86723373D01*
X95985165Y-86592457D01*
X96005647Y-86450000D01*
X95985165Y-86307543D01*
X95925377Y-86176627D01*
X95831128Y-86067857D01*
X95710053Y-85990047D01*
X95710051Y-85990046D01*
X95710049Y-85990045D01*
X95710050Y-85990045D01*
X95571963Y-85949500D01*
X95571961Y-85949500D01*
X95428039Y-85949500D01*
X95428036Y-85949500D01*
X95289949Y-85990045D01*
X95168873Y-86067856D01*
X95074623Y-86176626D01*
X95074622Y-86176628D01*
X95014834Y-86307543D01*
X94994353Y-86450000D01*
X88108980Y-86450000D01*
X88081128Y-86417857D01*
X87960053Y-86340047D01*
X87960051Y-86340046D01*
X87960049Y-86340045D01*
X87960050Y-86340045D01*
X87821963Y-86299500D01*
X87821961Y-86299500D01*
X87678039Y-86299500D01*
X87678036Y-86299500D01*
X87539949Y-86340045D01*
X87418873Y-86417856D01*
X87324623Y-86526626D01*
X87324622Y-86526628D01*
X87264834Y-86657543D01*
X87244353Y-86800000D01*
X44630190Y-86800000D01*
X44712405Y-86634889D01*
X44770756Y-86429810D01*
X44790429Y-86217500D01*
X44770756Y-86005190D01*
X44712405Y-85800111D01*
X44712403Y-85800106D01*
X44712403Y-85800105D01*
X44617367Y-85609246D01*
X44498997Y-85452500D01*
X107319571Y-85452500D01*
X107339244Y-85664810D01*
X107367542Y-85764267D01*
X107397596Y-85869892D01*
X107397596Y-85869894D01*
X107492632Y-86060753D01*
X107611003Y-86217500D01*
X107621128Y-86230907D01*
X107778698Y-86374552D01*
X107959981Y-86486798D01*
X108158802Y-86563821D01*
X108368390Y-86603000D01*
X108368392Y-86603000D01*
X108581608Y-86603000D01*
X108581610Y-86603000D01*
X108791198Y-86563821D01*
X108990019Y-86486798D01*
X109171302Y-86374552D01*
X109328872Y-86230907D01*
X109457366Y-86060755D01*
X109552405Y-85869889D01*
X109610756Y-85664810D01*
X109630429Y-85452500D01*
X114329571Y-85452500D01*
X114349244Y-85664810D01*
X114377542Y-85764267D01*
X114407596Y-85869892D01*
X114407596Y-85869894D01*
X114502632Y-86060753D01*
X114621003Y-86217500D01*
X114631128Y-86230907D01*
X114788698Y-86374552D01*
X114969981Y-86486798D01*
X115168802Y-86563821D01*
X115378390Y-86603000D01*
X115378392Y-86603000D01*
X115591608Y-86603000D01*
X115591610Y-86603000D01*
X115801198Y-86563821D01*
X116000019Y-86486798D01*
X116181302Y-86374552D01*
X116338872Y-86230907D01*
X116467366Y-86060755D01*
X116562405Y-85869889D01*
X116620756Y-85664810D01*
X116640429Y-85452500D01*
X116620756Y-85240190D01*
X116562405Y-85035111D01*
X116562403Y-85035106D01*
X116562403Y-85035105D01*
X116467367Y-84844246D01*
X116338872Y-84674093D01*
X116323361Y-84659953D01*
X116181302Y-84530448D01*
X116000019Y-84418202D01*
X116000017Y-84418201D01*
X115900608Y-84379690D01*
X115801198Y-84341179D01*
X115591610Y-84302000D01*
X115378390Y-84302000D01*
X115168802Y-84341179D01*
X115168799Y-84341179D01*
X115168799Y-84341180D01*
X114969982Y-84418201D01*
X114969980Y-84418202D01*
X114788699Y-84530447D01*
X114631127Y-84674093D01*
X114502632Y-84844246D01*
X114407596Y-85035105D01*
X114407596Y-85035107D01*
X114365297Y-85183772D01*
X114349244Y-85240190D01*
X114329571Y-85452500D01*
X109630429Y-85452500D01*
X109610756Y-85240190D01*
X109552405Y-85035111D01*
X109552403Y-85035106D01*
X109552403Y-85035105D01*
X109457367Y-84844246D01*
X109328872Y-84674093D01*
X109313361Y-84659953D01*
X109171302Y-84530448D01*
X108990019Y-84418202D01*
X108990017Y-84418201D01*
X108890608Y-84379690D01*
X108791198Y-84341179D01*
X108581610Y-84302000D01*
X108368390Y-84302000D01*
X108158802Y-84341179D01*
X108158799Y-84341179D01*
X108158799Y-84341180D01*
X107959982Y-84418201D01*
X107959980Y-84418202D01*
X107778699Y-84530447D01*
X107621127Y-84674093D01*
X107492632Y-84844246D01*
X107397596Y-85035105D01*
X107397596Y-85035107D01*
X107355297Y-85183772D01*
X107339244Y-85240190D01*
X107319571Y-85452500D01*
X44498997Y-85452500D01*
X44488872Y-85439093D01*
X44331302Y-85295448D01*
X44150019Y-85183202D01*
X44150017Y-85183201D01*
X44050608Y-85144690D01*
X43951198Y-85106179D01*
X43741610Y-85067000D01*
X43528390Y-85067000D01*
X43318802Y-85106179D01*
X43318799Y-85106179D01*
X43318799Y-85106180D01*
X43119982Y-85183201D01*
X43119980Y-85183202D01*
X42938699Y-85295447D01*
X42781127Y-85439093D01*
X42652632Y-85609246D01*
X42557596Y-85800105D01*
X42557596Y-85800107D01*
X42503553Y-85990047D01*
X42499244Y-86005190D01*
X42479571Y-86217500D01*
X37780429Y-86217500D01*
X37760756Y-86005190D01*
X37702405Y-85800111D01*
X37702403Y-85800106D01*
X37702403Y-85800105D01*
X37607367Y-85609246D01*
X37478872Y-85439093D01*
X37321302Y-85295448D01*
X37140019Y-85183202D01*
X37140017Y-85183201D01*
X37040608Y-85144690D01*
X36941198Y-85106179D01*
X36731610Y-85067000D01*
X36518390Y-85067000D01*
X36308802Y-85106179D01*
X36308799Y-85106179D01*
X36308799Y-85106180D01*
X36109982Y-85183201D01*
X36109980Y-85183202D01*
X35928699Y-85295447D01*
X35771127Y-85439093D01*
X35642632Y-85609246D01*
X35547596Y-85800105D01*
X35547596Y-85800107D01*
X35493553Y-85990047D01*
X35489244Y-86005190D01*
X35469571Y-86217500D01*
X31150000Y-86217500D01*
X31150000Y-85765787D01*
X31150009Y-85764267D01*
X31151229Y-85664810D01*
X31152343Y-85573922D01*
X31152930Y-85563320D01*
X31190312Y-85183772D01*
X31192097Y-85171744D01*
X31205139Y-85106180D01*
X31266346Y-84798468D01*
X31269301Y-84786670D01*
X31315886Y-84633103D01*
X31379787Y-84422447D01*
X31383885Y-84410997D01*
X31529535Y-84059363D01*
X31534730Y-84048380D01*
X31706245Y-83727500D01*
X36894780Y-83727500D01*
X36913614Y-83918729D01*
X36969396Y-84102618D01*
X37059973Y-84272075D01*
X37059977Y-84272082D01*
X37181879Y-84420620D01*
X37330417Y-84542522D01*
X37330424Y-84542526D01*
X37499881Y-84633103D01*
X37499883Y-84633103D01*
X37499886Y-84633105D01*
X37683769Y-84688885D01*
X37683768Y-84688885D01*
X37700914Y-84690573D01*
X37875000Y-84707720D01*
X38066231Y-84688885D01*
X38250114Y-84633105D01*
X38419581Y-84542523D01*
X38568120Y-84420620D01*
X38690023Y-84272081D01*
X38780605Y-84102614D01*
X38836385Y-83918731D01*
X38855220Y-83727500D01*
X41394780Y-83727500D01*
X41413614Y-83918729D01*
X41469396Y-84102618D01*
X41559973Y-84272075D01*
X41559977Y-84272082D01*
X41681879Y-84420620D01*
X41830417Y-84542522D01*
X41830424Y-84542526D01*
X41999881Y-84633103D01*
X41999883Y-84633103D01*
X41999886Y-84633105D01*
X42183769Y-84688885D01*
X42183768Y-84688885D01*
X42200914Y-84690573D01*
X42375000Y-84707720D01*
X42566231Y-84688885D01*
X42750114Y-84633105D01*
X42919581Y-84542523D01*
X43068120Y-84420620D01*
X43190023Y-84272081D01*
X43228551Y-84200000D01*
X80494353Y-84200000D01*
X80514834Y-84342456D01*
X80551369Y-84422455D01*
X80574623Y-84473373D01*
X80668872Y-84582143D01*
X80789947Y-84659953D01*
X80789950Y-84659954D01*
X80789949Y-84659954D01*
X80928036Y-84700499D01*
X80928038Y-84700500D01*
X80928039Y-84700500D01*
X81071962Y-84700500D01*
X81071962Y-84700499D01*
X81210053Y-84659953D01*
X81331128Y-84582143D01*
X81425377Y-84473373D01*
X81485165Y-84342457D01*
X81505647Y-84200000D01*
X81485165Y-84057543D01*
X81425377Y-83926627D01*
X81331128Y-83817857D01*
X81210053Y-83740047D01*
X81210051Y-83740046D01*
X81210049Y-83740045D01*
X81210050Y-83740045D01*
X81071963Y-83699500D01*
X81071961Y-83699500D01*
X80928039Y-83699500D01*
X80928036Y-83699500D01*
X80789949Y-83740045D01*
X80668873Y-83817856D01*
X80574623Y-83926626D01*
X80574622Y-83926628D01*
X80514834Y-84057543D01*
X80494353Y-84200000D01*
X43228551Y-84200000D01*
X43280605Y-84102614D01*
X43336385Y-83918731D01*
X43355220Y-83727500D01*
X43336385Y-83536269D01*
X43280605Y-83352386D01*
X43280603Y-83352383D01*
X43280603Y-83352381D01*
X43190026Y-83182924D01*
X43190022Y-83182917D01*
X43068120Y-83034379D01*
X42919582Y-82912477D01*
X42919575Y-82912473D01*
X42750118Y-82821896D01*
X42658172Y-82794005D01*
X42566231Y-82766115D01*
X42566229Y-82766114D01*
X42566231Y-82766114D01*
X42375000Y-82747280D01*
X42183770Y-82766114D01*
X41999881Y-82821896D01*
X41830424Y-82912473D01*
X41830417Y-82912477D01*
X41681879Y-83034379D01*
X41559977Y-83182917D01*
X41559973Y-83182924D01*
X41469396Y-83352381D01*
X41413614Y-83536270D01*
X41394780Y-83727500D01*
X38855220Y-83727500D01*
X38836385Y-83536269D01*
X38780605Y-83352386D01*
X38780603Y-83352383D01*
X38780603Y-83352381D01*
X38690026Y-83182924D01*
X38690022Y-83182917D01*
X38568120Y-83034379D01*
X38419582Y-82912477D01*
X38419575Y-82912473D01*
X38250118Y-82821896D01*
X38158172Y-82794005D01*
X38066231Y-82766115D01*
X38066229Y-82766114D01*
X38066231Y-82766114D01*
X37875000Y-82747280D01*
X37683770Y-82766114D01*
X37499881Y-82821896D01*
X37330424Y-82912473D01*
X37330417Y-82912477D01*
X37181879Y-83034379D01*
X37059977Y-83182917D01*
X37059973Y-83182924D01*
X36969396Y-83352381D01*
X36913614Y-83536270D01*
X36894780Y-83727500D01*
X31706245Y-83727500D01*
X31714152Y-83712708D01*
X31720390Y-83702300D01*
X31931852Y-83385825D01*
X31939091Y-83376064D01*
X32180555Y-83081838D01*
X32188707Y-83072844D01*
X32457844Y-82803707D01*
X32466838Y-82795555D01*
X32761064Y-82554091D01*
X32770825Y-82546852D01*
X33087300Y-82335390D01*
X33097708Y-82329152D01*
X33433380Y-82149730D01*
X33444363Y-82144535D01*
X33796004Y-81998882D01*
X33807447Y-81994787D01*
X34171677Y-81884299D01*
X34183468Y-81881346D01*
X34556753Y-81807095D01*
X34568772Y-81805312D01*
X34948320Y-81767930D01*
X34958922Y-81767343D01*
X35146784Y-81765039D01*
X35149267Y-81765009D01*
X35150787Y-81765000D01*
X66064233Y-81765000D01*
X66131272Y-81784685D01*
G37*
%TD.AperFunction*%
%TD*%
M02*
