%TF.GenerationSoftware,KiCad,Pcbnew,8.0.6*%
%TF.CreationDate,2025-02-26T11:59:33+01:00*%
%TF.ProjectId,CONTROL WIFI ESP32 S3 V4.0,434f4e54-524f-44c2-9057-494649204553,rev?*%
%TF.SameCoordinates,Original*%
%TF.FileFunction,Soldermask,Top*%
%TF.FilePolarity,Negative*%
%FSLAX46Y46*%
G04 Gerber Fmt 4.6, Leading zero omitted, Abs format (unit mm)*
G04 Created by KiCad (PCBNEW 8.0.6) date 2025-02-26 11:59:33*
%MOMM*%
%LPD*%
G01*
G04 APERTURE LIST*
G04 Aperture macros list*
%AMRoundRect*
0 Rectangle with rounded corners*
0 $1 Rounding radius*
0 $2 $3 $4 $5 $6 $7 $8 $9 X,Y pos of 4 corners*
0 Add a 4 corners polygon primitive as box body*
4,1,4,$2,$3,$4,$5,$6,$7,$8,$9,$2,$3,0*
0 Add four circle primitives for the rounded corners*
1,1,$1+$1,$2,$3*
1,1,$1+$1,$4,$5*
1,1,$1+$1,$6,$7*
1,1,$1+$1,$8,$9*
0 Add four rect primitives between the rounded corners*
20,1,$1+$1,$2,$3,$4,$5,0*
20,1,$1+$1,$4,$5,$6,$7,0*
20,1,$1+$1,$6,$7,$8,$9,0*
20,1,$1+$1,$8,$9,$2,$3,0*%
G04 Aperture macros list end*
%ADD10RoundRect,0.200000X0.200000X0.275000X-0.200000X0.275000X-0.200000X-0.275000X0.200000X-0.275000X0*%
%ADD11RoundRect,0.102000X-0.634000X-0.634000X0.634000X-0.634000X0.634000X0.634000X-0.634000X0.634000X0*%
%ADD12C,1.472000*%
%ADD13RoundRect,0.100000X-0.225000X-0.100000X0.225000X-0.100000X0.225000X0.100000X-0.225000X0.100000X0*%
%ADD14R,1.550000X1.300000*%
%ADD15C,1.982000*%
%ADD16C,2.490000*%
%ADD17RoundRect,0.150000X0.512500X0.150000X-0.512500X0.150000X-0.512500X-0.150000X0.512500X-0.150000X0*%
%ADD18RoundRect,0.225000X0.225000X0.250000X-0.225000X0.250000X-0.225000X-0.250000X0.225000X-0.250000X0*%
%ADD19R,1.500000X0.900000*%
%ADD20R,0.900000X1.500000*%
%ADD21R,4.100000X4.100000*%
%ADD22RoundRect,0.243750X-0.243750X-0.456250X0.243750X-0.456250X0.243750X0.456250X-0.243750X0.456250X0*%
%ADD23RoundRect,0.243750X0.243750X0.456250X-0.243750X0.456250X-0.243750X-0.456250X0.243750X-0.456250X0*%
%ADD24RoundRect,0.218750X0.218750X0.256250X-0.218750X0.256250X-0.218750X-0.256250X0.218750X-0.256250X0*%
%ADD25C,2.100000*%
%ADD26C,1.750000*%
%ADD27RoundRect,0.200000X-0.200000X-0.275000X0.200000X-0.275000X0.200000X0.275000X-0.200000X0.275000X0*%
%ADD28RoundRect,0.225000X-0.225000X-0.250000X0.225000X-0.250000X0.225000X0.250000X-0.225000X0.250000X0*%
%ADD29C,0.900000*%
%ADD30R,0.500000X2.500000*%
%ADD31R,2.000000X2.500000*%
%ADD32RoundRect,0.150000X-0.512500X-0.150000X0.512500X-0.150000X0.512500X0.150000X-0.512500X0.150000X0*%
%ADD33C,1.270000*%
%ADD34RoundRect,0.250001X-0.499999X-0.759999X0.499999X-0.759999X0.499999X0.759999X-0.499999X0.759999X0*%
%ADD35O,1.500000X2.020000*%
%ADD36R,1.250000X1.000000*%
%ADD37RoundRect,0.062500X0.062500X-0.337500X0.062500X0.337500X-0.062500X0.337500X-0.062500X-0.337500X0*%
%ADD38RoundRect,0.062500X0.337500X-0.062500X0.337500X0.062500X-0.337500X0.062500X-0.337500X-0.062500X0*%
%ADD39R,3.350000X3.350000*%
%ADD40RoundRect,0.150000X0.150000X-0.512500X0.150000X0.512500X-0.150000X0.512500X-0.150000X-0.512500X0*%
%ADD41R,2.400000X0.740000*%
G04 APERTURE END LIST*
D10*
%TO.C,R13*%
X59087500Y-119300000D03*
X57437500Y-119300000D03*
%TD*%
D11*
%TO.C,POT1*%
X97950000Y-135500000D03*
D12*
X100490000Y-135500000D03*
X103030000Y-135500000D03*
%TD*%
D13*
%TO.C,Q1*%
X57217500Y-121075000D03*
X57217500Y-121725000D03*
X57217500Y-122375000D03*
X59117500Y-122375000D03*
X59117500Y-121725000D03*
X59117500Y-121075000D03*
%TD*%
D14*
%TO.C,SW5*%
X96770000Y-124265000D03*
X104730000Y-124265000D03*
X96770000Y-128765000D03*
X104730000Y-128765000D03*
%TD*%
D15*
%TO.C,U4*%
X100575000Y-92300000D03*
X106925000Y-92300000D03*
X100575000Y-97380000D03*
X106925000Y-97380000D03*
X101210000Y-115160000D03*
X103750000Y-115160000D03*
X106290000Y-115160000D03*
D16*
X96130000Y-98332500D03*
X96130000Y-111667500D03*
X111370000Y-111667500D03*
X111370000Y-98332500D03*
D15*
X93590000Y-102460000D03*
X93590000Y-105000000D03*
X93590000Y-107540000D03*
%TD*%
D17*
%TO.C,U2*%
X73425000Y-129250000D03*
X73425000Y-128300000D03*
X73425000Y-127350000D03*
X71150000Y-127350000D03*
X71150000Y-129250000D03*
%TD*%
D10*
%TO.C,R2*%
X69350000Y-128600000D03*
X67700000Y-128600000D03*
%TD*%
D18*
%TO.C,C3*%
X69300000Y-124000000D03*
X67750000Y-124000000D03*
%TD*%
D19*
%TO.C,U8*%
X65075000Y-82525000D03*
X65075000Y-84025000D03*
X65075000Y-85525000D03*
X65075000Y-87025000D03*
X65075000Y-88525000D03*
X65075000Y-90025000D03*
X65075000Y-91525000D03*
X65075000Y-93025000D03*
X65075000Y-94525000D03*
X65075000Y-96025000D03*
X65075000Y-97525000D03*
X65075000Y-99025000D03*
X65075000Y-100525000D03*
X65075000Y-102025000D03*
X65075000Y-103525000D03*
X65075000Y-105025000D03*
D20*
X66950000Y-105775000D03*
X68450000Y-105775000D03*
X69950000Y-105775000D03*
X71450000Y-105775000D03*
X72950000Y-105775000D03*
X74450000Y-105775000D03*
X75950000Y-105775000D03*
X77450000Y-105775000D03*
X78950000Y-105775000D03*
X80450000Y-105775000D03*
D19*
X82325000Y-105125000D03*
X82325000Y-103625000D03*
X82325000Y-102125000D03*
X82325000Y-100625000D03*
X82325000Y-99125000D03*
X82325000Y-97625000D03*
X82325000Y-96125000D03*
X82325000Y-94625000D03*
X82325000Y-93125000D03*
X82325000Y-91625000D03*
X82325000Y-90125000D03*
X82325000Y-88625000D03*
X82325000Y-87125000D03*
X82325000Y-85525000D03*
X82325000Y-84025000D03*
X82325000Y-82625000D03*
D21*
X72510000Y-90565000D03*
%TD*%
D22*
%TO.C,D2*%
X75225000Y-129200000D03*
X77100000Y-129200000D03*
%TD*%
D10*
%TO.C,R3*%
X63275000Y-97550000D03*
X61625000Y-97550000D03*
%TD*%
D23*
%TO.C,D1*%
X76600000Y-122650000D03*
X74725000Y-122650000D03*
%TD*%
D24*
%TO.C,FB1*%
X75475000Y-132740000D03*
X73900000Y-132740000D03*
%TD*%
D25*
%TO.C,SW3*%
X36625000Y-86217500D03*
X43635000Y-86217500D03*
D26*
X37875000Y-83727500D03*
X42375000Y-83727500D03*
%TD*%
D27*
%TO.C,R7*%
X84475000Y-106900000D03*
X86125000Y-106900000D03*
%TD*%
D28*
%TO.C,C1*%
X84475000Y-82700000D03*
X86025000Y-82700000D03*
%TD*%
D18*
%TO.C,C10*%
X86050000Y-108450000D03*
X84500000Y-108450000D03*
%TD*%
D27*
%TO.C,R5*%
X57500000Y-117700000D03*
X59150000Y-117700000D03*
%TD*%
%TO.C,R12*%
X57437500Y-124200000D03*
X59087500Y-124200000D03*
%TD*%
D29*
%TO.C,J3*%
X62600000Y-135575000D03*
X67000000Y-135575000D03*
D30*
X63200000Y-132975000D03*
X64000000Y-132975000D03*
X64800000Y-132975000D03*
X65600000Y-132975000D03*
X66400000Y-132975000D03*
D31*
X60400000Y-132975000D03*
X60400000Y-138475000D03*
X69200000Y-132975000D03*
X69200000Y-138475000D03*
%TD*%
D32*
%TO.C,U7*%
X77187500Y-131350000D03*
X77187500Y-132300000D03*
X77187500Y-133250000D03*
X79462500Y-133250000D03*
X79462500Y-131350000D03*
%TD*%
D27*
%TO.C,R15*%
X97687500Y-89200000D03*
X99337500Y-89200000D03*
%TD*%
%TO.C,R14*%
X61650000Y-85600000D03*
X63300000Y-85600000D03*
%TD*%
D33*
%TO.C,J2*%
X74200000Y-137240000D03*
X83200000Y-137240000D03*
D34*
X77200000Y-139200000D03*
D35*
X80200000Y-139200000D03*
%TD*%
D28*
%TO.C,C4*%
X68250000Y-121000000D03*
X69800000Y-121000000D03*
%TD*%
D27*
%TO.C,R8*%
X103175000Y-83800000D03*
X104825000Y-83800000D03*
%TD*%
D10*
%TO.C,R9*%
X39462500Y-89350000D03*
X37812500Y-89350000D03*
%TD*%
D36*
%TO.C,BT3*%
X78425000Y-112000000D03*
X86175000Y-112000000D03*
%TD*%
D28*
%TO.C,C5*%
X73900000Y-131240000D03*
X75450000Y-131240000D03*
%TD*%
D18*
%TO.C,C2*%
X69800000Y-119500000D03*
X68250000Y-119500000D03*
%TD*%
D37*
%TO.C,U6*%
X62050000Y-123950000D03*
X62550000Y-123950000D03*
X63050000Y-123950000D03*
X63550000Y-123950000D03*
X64050000Y-123950000D03*
X64550000Y-123950000D03*
X65050000Y-123950000D03*
D38*
X66000000Y-123000000D03*
X66000000Y-122500000D03*
X66000000Y-122000000D03*
X66000000Y-121500000D03*
X66000000Y-121000000D03*
X66000000Y-120500000D03*
X66000000Y-120000000D03*
D37*
X65050000Y-119050000D03*
X64550000Y-119050000D03*
X64050000Y-119050000D03*
X63550000Y-119050000D03*
X63050000Y-119050000D03*
X62550000Y-119050000D03*
X62050000Y-119050000D03*
D38*
X61100000Y-120000000D03*
X61100000Y-120500000D03*
X61100000Y-121000000D03*
X61100000Y-121500000D03*
X61100000Y-122000000D03*
X61100000Y-122500000D03*
X61100000Y-123000000D03*
D39*
X63550000Y-121500000D03*
%TD*%
D14*
%TO.C,SW4*%
X41770000Y-124500000D03*
X49730000Y-124500000D03*
X41770000Y-129000000D03*
X49730000Y-129000000D03*
%TD*%
D18*
%TO.C,C8*%
X69350000Y-125550000D03*
X67800000Y-125550000D03*
%TD*%
D27*
%TO.C,R1*%
X70975000Y-122650000D03*
X72625000Y-122650000D03*
%TD*%
D15*
%TO.C,U5*%
X45575000Y-92300000D03*
X51925000Y-92300000D03*
X45575000Y-97380000D03*
X51925000Y-97380000D03*
X46210000Y-115160000D03*
X48750000Y-115160000D03*
X51290000Y-115160000D03*
D16*
X41130000Y-98332500D03*
X41130000Y-111667500D03*
X56370000Y-111667500D03*
X56370000Y-98332500D03*
D15*
X38590000Y-102460000D03*
X38590000Y-105000000D03*
X38590000Y-107540000D03*
%TD*%
D27*
%TO.C,R11*%
X102700000Y-121850000D03*
X104350000Y-121850000D03*
%TD*%
D18*
%TO.C,C6*%
X75500000Y-134250000D03*
X73950000Y-134250000D03*
%TD*%
D28*
%TO.C,C7*%
X81300000Y-131800000D03*
X82850000Y-131800000D03*
%TD*%
D10*
%TO.C,R10*%
X51250000Y-122350000D03*
X49600000Y-122350000D03*
%TD*%
D40*
%TO.C,U1*%
X63550000Y-129937500D03*
X64500000Y-129937500D03*
X65450000Y-129937500D03*
X65450000Y-127662500D03*
X64500000Y-127662500D03*
X63550000Y-127662500D03*
%TD*%
D10*
%TO.C,R6*%
X69400000Y-122500000D03*
X67750000Y-122500000D03*
%TD*%
D25*
%TO.C,SW2*%
X108475000Y-85452500D03*
X115485000Y-85452500D03*
D26*
X109725000Y-82962500D03*
X114225000Y-82962500D03*
%TD*%
D10*
%TO.C,R4*%
X69375000Y-127100000D03*
X67725000Y-127100000D03*
%TD*%
D11*
%TO.C,POT2*%
X87760000Y-135500000D03*
D12*
X90300000Y-135500000D03*
X92840000Y-135500000D03*
%TD*%
D41*
%TO.C,J1*%
X89900000Y-85100000D03*
X93800000Y-85100000D03*
X89900000Y-86370000D03*
X93800000Y-86370000D03*
X89900000Y-87640000D03*
X93800000Y-87640000D03*
%TD*%
M02*
